<?xml version="1.0" encoding="UTF-8" standalone="no"?>
<svg
   viewBox="0 0 2220.8957 1033.6293"
   width="2220.8958"
   height="1033.6293"
   version="1.1"
   id="svg51"
   sodipodi:docname="Air Nomad Temples.dxf"
   xmlns:inkscape="http://www.inkscape.org/namespaces/inkscape"
   xmlns:sodipodi="http://sodipodi.sourceforge.net/DTD/sodipodi-0.dtd"
   xmlns="http://www.w3.org/2000/svg"
   xmlns:svg="http://www.w3.org/2000/svg">
  <sodipodi:namedview
     id="namedview51"
     pagecolor="#ffffff"
     bordercolor="#000000"
     borderopacity="0.25"
     inkscape:showpageshadow="2"
     inkscape:pageopacity="0.0"
     inkscape:pagecheckerboard="0"
     inkscape:deskcolor="#d1d1d1" />
  <desc
     id="desc1">Air Nomad Temples.dxf - scale = 1.000000, origin = (0.000000, 0.000000), method = file</desc>
  <defs
     id="defs4" />
  <g
     inkscape:groupmode="layer"
     inkscape:label="MODELSKETCH_VISIBLE"
     id="g43"
     transform="translate(365.12618,-756.08227)">
    <path
       d="m 440.91596,1746.3661 c 0.38334,-3.3621 5.25219,-7.4303 9.97252,-9.0925 5.45831,-1.9222 10.71803,-0.6272 17.89188,-2.3466 10.51724,-2.5204 25.14856,-11.5196 33.43729,-19.6518 5.59305,-5.4876 8.29816,-10.5802 13.19893,-11.7324 5.68586,-1.3368 14.32719,2.6306 22.87815,6.4528 8.97642,4.0122 17.85325,7.8646 21.70491,14.6654 3.71973,6.5682 2.75269,15.886 2.05317,24.3449 -0.56056,6.7784 -0.94933,13.0054 -5.57289,14.6654 -6.67761,2.3976 -22.18852,-4.731 -31.67743,-8.2126 -6.3925,-2.3456 -10.05193,-3.0358 -14.66548,-2.3466 -5.14866,0.7694 -11.48559,3.257 -17.89188,4.693 -6.94465,1.5566 -13.97082,1.8776 -21.70491,1.1732 -8.09834,-0.7374 -16.97285,-2.5986 -23.17146,-5.5728 -3.92375,-1.8826 -6.77527,-4.2112 -6.4528,-7.0394 z"
       style="fill:none;stroke:#ff0000;stroke-width:2"
       id="path34" />
    <path
       d="m 237.65241,1661.5995 c 3.25874,-3.0734 9.70574,-4.781 16.71867,-5.8662 8.28675,-1.2822 17.36369,-1.695 24.3447,-4.3996 5.89612,-2.2842 10.29714,-6.2032 16.42532,-6.4528 7.63126,-0.311 17.94085,5.0682 25.81125,9.0926 6.70521,3.4286 11.64,5.8742 19.06511,5.5728 9.87099,-0.4006 24.14317,-5.6558 34.61053,-5.8662 8.03804,-0.162 13.8324,2.652 20.53167,2.6398 7.81435,-0.02 16.85991,-3.8722 27.86441,-4.1062 13.28095,-0.2824 29.41512,4.714 38.42356,14.3722 7.57303,8.119 10.11023,19.5326 12.61231,26.1044 1.55299,4.0789 3.09245,6.2927 2.63978,10.8525 -0.72339,7.2866 -6.53433,20.5646 -14.37216,24.6382 -6.51873,3.3876 -14.4395,0.4082 -19.65175,1.7598 -4.50357,1.1678 -6.98507,5.5688 -12.02569,8.506 -7.06352,4.1158 -19.15236,5.357 -28.74434,3.2264 -8.82782,-1.9608 -15.54076,-6.7778 -20.82498,-12.9056 -4.94713,-5.7372 -8.64203,-12.6234 -15.9548,-14.3724 -6.66471,-1.594 -16.33446,1.0792 -17.7758,-1.4666 -1.39243,-2.4594 4.89468,-9.7894 4.10634,-16.132 -1.01469,-8.1635 -13.75096,-14.6915 -21.70492,-17.0119 -6.08864,-1.7762 -9.375,-1.0868 -15.97741,2.4188 -10.68037,5.6708 -30.03813,18.7107 -38.87145,16.6463 -6.29626,-1.4716 -7.24546,-10.6171 -13.49227,-16.7185 -7.22982,-7.0618 -21.55572,-10.0462 -24.93128,-14.3722 -1.57567,-2.0194 -0.76538,-4.3312 1.1732,-6.1596 z"
       style="fill:none;stroke:#ff0000;stroke-width:2"
       id="path35" />
    <path
       d="m 202.80865,1737.0446 c 0.39635,-4.0472 7.54623,-9.0346 15.43671,-9.9746 10.86224,-1.2938 23.128,5.0826 34.43571,5.2248 11.61464,0.146 22.21852,-6.285 34.43572,-12.8246 12.12624,-6.4906 25.84186,-13.0882 34.19823,-11.8744 5.55725,0.8072 8.74428,5.0692 13.53679,8.5496 6.27056,4.554 15.2896,7.7702 24.22376,12.8246 8.27435,4.6808 16.4759,10.9382 16.62414,16.6241 0.1267,4.86 -5.63053,9.3028 -10.57371,13.5368 -5.54414,4.7486 -10.06428,9.235 -17.21237,13.0618 -8.25905,4.4214 -20.02641,7.9626 -26.59861,11.1618 -4.10666,1.999 -6.18491,3.8646 -10.21197,4.7498 -5.8943,1.2956 -15.96362,0.4912 -23.98626,-2.6124 -8.04181,-3.111 -14.02716,-8.5322 -20.42394,-13.0618 -6.19382,-4.3858 -12.77338,-7.9358 -20.42395,-9.9744 -7.8552,-2.0932 -16.83946,-2.5932 -23.2738,-5.6998 -5.45315,-2.6328 -9.07476,-7.1382 -13.2993,-10.9244 -3.40248,-3.0495 -7.19607,-5.6327 -6.88715,-8.7869 z"
       style="fill:none;stroke:#ff0000;stroke-width:2"
       id="path36" />
    <path
       d="m 26.722736,766.61115 c 4.661351,-4.79419 11.567817,-8.39697 19.97028,-9.28617 11.211238,-1.18645 25.08577,2.45802 39.141702,2.2966 11.421557,-0.1312 22.962852,-2.77537 25.861492,1.19818 1.98505,2.72121 -0.0832,8.54602 -2.4963,11.88231 -2.09159,2.89176 -4.44227,3.91398 -6.09095,6.78987 -2.27909,3.97557 -3.21669,11.49344 -5.691505,16.47549 -2.202736,4.43431 -5.623249,6.85972 -10.484379,8.98658 -5.10567,2.23385 -11.800537,4.13837 -15.17741,1.29812 -3.026914,-2.54594 -3.387833,-8.90421 -5.19227,-11.08354 -1.294257,-1.56316 -3.331153,-0.97632 -6.090927,-1.59762 -4.291652,-0.96616 -10.33138,-4.85393 -14.278732,-5.29209 -1.827696,-0.20286 -3.206813,0.33382 -2.995534,1.29806 0.489659,2.23458 9.521201,6.76537 13.979192,10.58426 3.023574,2.59009 3.943312,4.85273 2.995534,7.48884 -1.251697,3.4814 -5.760668,7.61417 -6.090928,12.68108 -0.403639,6.19253 5.434249,13.78033 5.891229,20.16998 0.394019,5.50955 -3.212634,10.12828 -8.387484,13.18037 -6.388847,3.76803 -15.167989,5.14817 -23.365233,4.59317 -8.229024,-0.55718 -15.871668,-3.06453 -22.7660944,-7.5887 -6.8228864,-4.47719 -12.9130342,-10.92956 -17.7735046,-15.37709 -3.322753,-3.04046 -6.070868,-5.14397 -6.590227,-8.78694 -0.700598,-4.91439 2.654715,-12.63038 7.389026,-18.57231 5.0696294,-6.36278 11.72055608,-10.69134 17.1744252,-15.17745 4.6907508,-3.85841 8.4959828,-7.83334 11.5827368,-12.38153 3.066114,-4.51775 5.423309,-9.60114 9.485861,-13.77947 z"
       style="fill:none;stroke:#ff0000;stroke-width:2"
       id="path37" />
    <path
       d="m -274.69048,815.41415 c 4.11169,-3.90341 6.21149,-14.22269 10.61866,-20.67702 3.87299,-5.67201 9.52792,-8.35918 16.38048,-7.34303 9.38541,1.39178 21.01742,9.73048 31.06642,12.99148 8.79791,2.85499 16.38241,1.81793 25.80951,0.25056 10.40526,-1.73 23.05528,-4.10607 31.35332,-2.39638 6.04381,1.24522 9.77896,4.65785 14.17885,8.78686 4.86001,4.56084 10.53106,9.99568 13.77947,14.97769 2.21498,3.397 3.3036,6.58345 6.78993,6.59019 6.05733,0.012 19.35264,-9.57518 24.56339,-14.57831 2.577615,-2.47489 3.176933,-3.82813 5.591709,-4.19369 3.937272,-0.59606 12.700994,1.43364 18.572302,-0.59912 5.538589,-1.9176 8.503323,-7.45022 13.180394,-9.98514 5.448329,-2.95293 13.220294,-1.838 22.366675,-1.79732 8.564063,0.038 18.333084,-0.86569 19.570861,1.99702 1.048678,2.4254 -4.026452,7.55442 -6.789866,12.38158 -3.028574,5.29024 -3.280594,10.21791 -3.594693,16.57528 -0.344179,6.96639 -0.762918,15.64951 -3.994052,19.97028 -2.659315,3.55611 -7.223706,4.15729 -12.780934,5.19225 -7.937205,1.47818 -17.899765,3.84123 -27.359266,6.59021 -9.6855,2.81465 -18.843642,6.03391 -26.95983,11.98215 -7.59362,5.56529 -14.27515,13.51944 -19.97026,16.37559 -4.27905,2.146 -8.00122,1.41396 -14.57831,-0.1996 -9.83502,-2.41299 -26.05378,-6.79734 -29.3563,-14.17891 -2.28275,-5.10235 1.60586,-11.6368 0,-15.57675 -1.85739,-4.55723 -11.06576,-5.64339 -19.77048,-6.59021 -9.30878,-1.01251 -18.04162,-1.86571 -23.76461,1.79734 -4.57675,2.92936 -7.22859,8.74698 -7.98812,12.98064 -0.5914,3.29645 -0.0356,5.63256 -0.99854,9.18638 -1.0881,4.01549 -4.11533,9.5856 -6.59017,9.78534 -2.35592,0.1902 -4.21123,-4.48639 -5.79135,-8.98658 -1.84447,-5.25305 -3.31395,-10.26578 -6.98964,-12.78096 -3.62204,-2.47843 -9.38639,-2.53169 -13.77948,-3.19527 -2.56163,-0.38692 -4.65703,-0.98136 -4.79283,-0.39936 -0.22442,0.96178 4.90237,5.13615 9.386,9.1863 4.94517,4.46705 9.10797,8.78304 9.58573,12.78095 0.37071,3.10212 -1.47728,6.01277 -0.79878,9.58573 0.88453,4.65789 6.06292,10.44139 6.98958,14.77801 0.71722,3.35655 -1.11268,5.84634 -3.39495,9.18632 -3.35363,4.90787 -7.68405,11.65159 -13.38011,16.37556 -5.80911,4.81773 -13.03862,7.53475 -20.56934,7.78841 -8.18943,0.27584 -16.73507,-2.36148 -25.96131,-1.59762 -9.67202,0.80078 -20.09198,5.33937 -27.55895,7.58871 -5.52024,1.66287 -9.42656,2.07459 -15.57682,-1.1982 -9.46463,-5.03651 -24.24348,-18.7987 -25.96135,-26.36073 -0.95868,-4.22003 2.15019,-6.50915 4.99261,-10.38456 4.24211,-5.78377 7.89064,-15.10079 9.18628,-23.96431 1.1352,-7.76588 0.46416,-15.18367 3.59465,-19.37114 2.52646,-3.37951 7.52893,-4.65505 11.98218,-4.59313 3.51845,0.049 6.69406,0.93274 7.98808,-0.59914 1.64446,-1.94666 0.25036,-7.79436 1.99706,-12.78093 2.46313,-7.03205 11.17218,-12.35164 18.97172,-17.37413 7.25357,-4.67089 13.72053,-9.08478 19.57086,-10.58424 4.20529,-1.07786 8.09198,-0.6498 10.98362,-3.39495 z"
       style="fill:none;stroke:#ff0000;stroke-width:2"
       id="path38" />
    <path
       d="m 62.729524,1639.8338 c 5.11901,-3.7302 9.80604,-10.4624 15.533209,-11.0144 5.623269,-0.542 12.249295,4.8738 14.685931,11.0144 2.445835,6.1637 0.670678,13.0577 2.259395,18.3573 1.499097,5.0008 5.993251,8.5822 8.472681,14.1212 2.78986,6.2324 3.02898,14.9434 -3.10665,20.6168 -8.471385,7.8331 -29.094863,9.8763 -39.256663,6.2131 -6.370987,-2.2966 -8.629783,-6.8359 -11.861736,-10.1671 -3.366874,-3.47 -7.789845,-5.6288 -14.685951,-8.4726 -9.125342,-3.7632 -22.581115,-8.726 -26.2652475,-13.8386 -2.2440355,-3.1142 -0.8627183,-6.284 0,-11.0146 1.1830976,-6.4874 1.3907972,-15.9105 3.9539125,-20.3343 1.401537,-2.419 3.507373,-3.3432 5.648448,-2.5418 3.292214,1.2322 6.667687,6.5444 11.296858,9.32 5.128229,3.0747 11.795036,3.0365 17.792604,2.5417 5.704269,-0.4705 10.803138,-1.3543 15.533209,-4.8011 z"
       style="fill:none;stroke:#ff0000;stroke-width:2"
       id="path39" />
    <path
       d="m 119.49635,1644.9173 c -5.38221,2.635 -8.6444,4.446 -9.88474,7.9078 -1.24298,3.4692 -0.45558,8.5964 0.28244,12.709 0.56982,3.1754 1.11018,5.7458 3.38903,6.7782 3.49184,1.5818 11.06544,-0.4478 17.79261,0 7.29544,0.4856 13.59541,3.8848 19.4871,7.6254 4.90065,3.1114 9.51882,6.459 13.55625,5.0836 4.93458,-1.6812 9.00166,-10.4176 14.12111,-16.3806 5.36565,-6.2496 11.88732,-9.453 20.89924,-11.2968 10.35218,-2.1182 23.99041,-2.4424 29.65432,-10.1672 5.36002,-7.3101 3.57849,-21.2479 -2.5418,-27.9597 -5.89892,-6.469 -15.8284,-6.2252 -24.85315,-7.908 -8.97028,-1.6726 -17.04673,-5.2486 -23.15861,-11.297 -4.97319,-4.9214 -8.64565,-11.4799 -5.64843,-16.0979 3.03668,-4.6788 12.91983,-7.3656 13.83869,-10.732 0.94655,-3.4678 -7.61977,-7.6568 -14.96839,-11.0144 -7.70166,-3.519 -14.06579,-6.1252 -19.76953,-5.0836 -4.35838,0.7958 -8.33115,3.7212 -9.60236,7.0604 -1.2795,3.3612 0.17799,7.1414 2.25937,11.8618 3.11289,7.0598 7.62129,16.2226 9.88478,25.1355 2.11788,8.3396 2.27036,16.4606 -3.10665,23.4412 -6.78071,8.803 -22.35482,15.7928 -31.63128,20.3343 z"
       style="fill:none;stroke:#ff0000;stroke-width:2"
       id="path40" />
    <path
       d="m 1694.1807,1595.8 c -7.2409,3.8652 -21.8322,6.735 -33.599,9.9554 -10.4385,2.8566 -18.6541,5.9894 -25.7177,9.9554 -5.4886,3.0818 -10.2816,6.6668 -10.5776,12.8588 -0.3882,8.1224 6.9609,20.7305 16.1774,23.6437 9.7549,3.0834 21.6015,-4.694 31.1102,-7.8811 7.7051,-2.5828 13.875,-2.1516 20.7401,-3.7332 8.4054,-1.9366 17.8528,-6.8902 29.0361,-12.4442 12.5274,-6.2214 27.233,-13.196 32.5621,-22.6068 3.8934,-6.8754 2.7818,-15.0511 0.4147,-21.1549 -1.7286,-4.4574 -4.1268,-7.81 -3.3183,-10.7848 0.8755,-3.222 5.5125,-6.001 7.6738,-10.785 2.2311,-4.9382 1.8241,-12.013 -0.2075,-14.1032 -1.3383,-1.377 -3.3815,-0.591 -5.9495,-1.4382 -4.3666,-1.4406 -10.2503,-7.6031 -11.4234,-13.5161 -1.1705,-5.9 2.3489,-11.5512 8.8074,-15.2602 9.0144,-5.1768 23.7542,-6.57 32.1773,-11.9466 6.7289,-4.2954 9.4267,-11.133 14.9116,-16.0453 6.1982,-5.5512 15.9557,-8.6442 25.7244,-10.9874 9.4411,-2.2644 18.8925,-3.8284 24.5036,-9.0688 4.9189,-4.5942 6.8865,-12.0136 7.4121,-18.6612 0.4619,-5.8412 -0.1896,-11.0863 -3.5753,-15.0857 -4.4838,-5.2968 -13.7632,-8.4086 -23.5444,-13.6034 -11.3279,-6.0164 -23.3288,-14.8262 -32.2645,-17.0044 -5.1153,-1.2468 -9.2261,-0.3206 -11.8594,-1.4824 -2.2641,-0.9988 -3.4361,-3.5414 -5.8425,-6.6274 -3.7817,-4.8497 -10.6122,-11.0421 -16.4811,-14.3009 -4.8769,-2.7082 -9.0899,-3.3904 -14.4754,-4.1858 -6.5061,-0.9608 -14.7235,-2.0868 -21.9748,-0.872 -6.7252,1.1266 -12.6194,4.2668 -18.4867,4.0112 -5.2691,-0.2294 -10.5165,-3.1974 -14.9986,-2.7904 -4.5792,0.4158 -8.3596,4.3544 -12.6442,9.6796 -5.2346,6.5057 -11.2217,15.0813 -11.4234,20.8409 -0.1454,4.1526 2.7163,6.8412 6.2785,10.6386 4.3331,4.6194 9.7028,10.879 9.069,15.8708 -0.5856,4.6114 -6.2948,8.1405 -11.0747,10.9873 -4.3647,2.5994 -7.9544,4.63 -11.9524,5.1328 -3.6855,0.4636 -7.718,-0.3712 -10.999,1.1 -3.6469,1.6352 -6.3654,6.1194 -7.9928,11.0724 -1.7608,5.359 -2.2443,11.2668 0.1466,15.9854 2.3837,4.704 7.6242,8.2258 11.8057,10.6324 3.4152,1.9656 6.1241,3.1871 9.3125,5.0595 3.5431,2.081 7.6783,4.9658 11.5858,6.0864 3.2765,0.9396 6.3928,0.6392 9.1659,-0.8066 3.0081,-1.5682 5.6122,-4.4842 9.2392,-5.6464 3.0641,-0.9818 6.8582,-0.7118 7.6994,0.66 0.8132,1.3262 -1.1333,3.6822 -2.933,6.5996 -2.3652,3.8338 -4.4771,8.6372 -8.2127,9.386 -3.8029,0.762 -9.2886,-2.6776 -12.8323,-1.54 -3.4342,1.1026 -5.0448,6.5036 -5.7196,10.7058 -0.5868,3.654 -0.466,6.4014 -1.2465,9.0926 -0.7495,2.5844 -2.3301,5.1168 -3.9596,7.4794 -1.6213,2.3506 -3.291,4.5328 -4.1797,7.2593 -0.9033,2.7716 -0.9996,6.1056 0.22,8.6526 1.2201,2.5484 3.7573,4.3092 6.3061,5.9396 2.4665,1.5778 4.9439,3.0336 7.0394,4.033 1.7031,0.8124 3.1539,1.3232 5.133,1.5398 2.4955,0.2732 5.8311,0.078 8.5059,0.5134 2.3802,0.387 4.2372,1.2724 6.3795,2.1998 2.2003,0.9526 4.7015,1.9492 6.4528,3.0064 1.3453,0.8122 2.248,1.6598 2.9331,3.0064 0.86,1.6904 1.377,4.1666 1.0999,6.5262 -0.3013,2.5664 -1.542,4.9948 -2.9331,7.2594 -1.5764,2.5662 -3.3459,4.9222 -7.2245,6.9925 z"
       style="fill:none;stroke:#ff0000;stroke-width:2"
       id="path41" />
    <path
       d="m 184.39501,1693.2491 c 0.44092,-2.011 8.40067,-1.7252 14.74438,-3.0228 6.74254,-1.3792 11.65944,-4.547 15.14703,-7.7248 2.72054,-2.4788 4.57134,-4.9638 8.39645,-6.0454 5.11609,-1.4466 13.76406,-0.3828 18.13635,3.6944 3.6463,3.4002 4.31893,8.8964 1.6793,12.7626 -3.50622,5.1357 -12.8565,7.3959 -20.82322,9.0681 -7.9362,1.6658 -14.49943,2.7482 -22.53591,0.336 -7.04288,-2.114 -15.21723,-6.9118 -14.74438,-9.0681 z"
       style="fill:none;stroke:#ff0000;stroke-width:2"
       id="path42" />
    <path
       d="m 159.38453,1697.2924 c 3.59895,1.4202 7.00012,4.9856 10.56822,7.9558 3.93564,3.2764 8.07437,5.8288 14.24926,7.481 6.57645,1.7596 15.46251,2.4978 17.45534,5.3434 1.31042,1.8712 -0.35973,4.6536 -2.51796,7.481 -2.97035,3.8914 -6.86523,7.868 -11.13757,9.9746 -3.98518,1.965 -8.2988,2.3032 -12.94309,1.3062 -5.5187,-1.1846 -11.50433,-4.2544 -17.57408,-5.3436 -5.98128,-1.0732 -12.04425,-0.2234 -17.81158,-0.9498 -5.70635,-0.719 -11.12328,-2.981 -16.50541,-5.7 -4.78817,-2.4188 -9.5488,-5.199 -10.56818,-8.9058 -0.88959,-3.2348 1.07012,-7.1754 4.27478,-9.6182 4.01989,-3.0644 9.99866,-3.772 15.79292,-4.9872 5.84911,-1.2268 11.51022,-2.9706 16.38665,-4.0374 3.81525,-0.8346 7.15023,-1.255 10.3307,0 z"
       style="fill:none;stroke:#ff0000;stroke-width:2"
       id="path43" />
  </g>
  <g
     inkscape:groupmode="layer"
     inkscape:label="SECTION_JOG_LINES"
     id="g51"
     transform="translate(365.12618,-756.08227)">
    <text
       xml:space="preserve"
       style="font-size:21.3333px;fill:none;stroke:#0000ff"
       x="-302.28241"
       y="845.65271"
       id="text51"><tspan
         sodipodi:role="line"
         id="tspan51"
         x="-302.28241"
         y="845.65271">Western Air Temple</tspan></text>
    <text
       xml:space="preserve"
       style="font-size:20px;fill:none;stroke:#0000ff"
       x="358.66061"
       y="1678.5132"
       id="text52"><tspan
         sodipodi:role="line"
         id="tspan52"
         x="358.66061"
         y="1678.5132">Sourhern</tspan><tspan
         sodipodi:role="line"
         x="358.66061"
         y="1703.5132"
         id="tspan53">Air Temple</tspan></text>
    <text
       xml:space="preserve"
       style="font-size:26.6667px;fill:none;stroke:#0000ff"
       x="1683.436"
       y="1423.5264"
       id="text54"><tspan
         sodipodi:role="line"
         id="tspan54"
         x="1683.436"
         y="1423.5264"
         style="font-size:26.6667px">Eastern</tspan><tspan
         sodipodi:role="line"
         x="1683.436"
         y="1456.8597"
         id="tspan56"
         style="font-size:26.6667px">Air</tspan><tspan
         sodipodi:role="line"
         x="1683.436"
         y="1490.1931"
         id="tspan57"
         style="font-size:26.6667px">Temple</tspan></text>
  </g>
</svg>
