<?xml version="1.0" encoding="UTF-8" standalone="no"?>
<svg
   viewBox="0 0 1253.9868 685.26625"
   width="1253.9868"
   height="685.26624"
   version="1.1"
   id="svg82"
   sodipodi:docname="Ba Sing Se.dxf"
   xmlns:inkscape="http://www.inkscape.org/namespaces/inkscape"
   xmlns:sodipodi="http://sodipodi.sourceforge.net/DTD/sodipodi-0.dtd"
   xmlns="http://www.w3.org/2000/svg"
   xmlns:svg="http://www.w3.org/2000/svg">
  <sodipodi:namedview
     id="namedview82"
     pagecolor="#ffffff"
     bordercolor="#000000"
     borderopacity="0.25"
     inkscape:showpageshadow="2"
     inkscape:pageopacity="0.0"
     inkscape:pagecheckerboard="0"
     inkscape:deskcolor="#d1d1d1" />
  <desc
     id="desc1">Ba Sing Se.dxf - scale = 1.000000, origin = (0.000000, 0.000000), method = file</desc>
  <defs
     id="defs4" />
  <g
     inkscape:groupmode="layer"
     inkscape:label="MODELSKETCH_VISIBLE"
     id="g74"
     transform="translate(-138.84773,-695.24295)">
    <path
       d="m 560.69992,955.96679 c 2.00154,-0.27752 4.00286,-0.55502 5.81774,0 1.93589,0.59202 3.65965,2.13131 5.49569,3.68989 2.13958,1.81626 4.43164,3.65874 7.39087,5.11672 3.5093,1.729 7.95686,2.91723 12.31805,2.84261 4.51726,-0.0772 8.94183,-1.50939 13.07607,-3.60061 3.94904,-1.99754 7.63317,-4.59646 10.99147,-5.68526 2.628,-0.85204 5.05646,-0.77932 7.57783,0 2.89792,0.8957 5.91852,2.72486 9.47793,3.22162 4.10266,0.5726 8.92112,-0.62496 13.26559,-0.9475 4.03068,-0.29926 7.65337,0.1546 11.37055,1.32654 3.81204,1.2018 7.72347,3.15868 10.61243,5.68521 2.5907,2.26568 4.35914,4.98944 6.25376,7.39086 1.79717,2.27788 3.70787,4.26573 6.25383,6.06425 2.95034,2.08418 6.75377,3.91412 9.81905,6.35874 2.99928,2.39197 5.29186,5.37241 8.11017,7.72397 2.75618,2.29972 6.01518,3.99796 8.88258,5.98607 2.63071,1.824 4.93181,3.892 6.17919,6.5654 1.28262,2.749 1.45116,6.1381 1.1586,9.4619 -0.31002,3.5224 -1.1379,6.9714 -1.35172,10.6205 -0.21784,3.718 0.20182,7.6436 1.54484,11.0066 1.31964,3.3044 3.53072,6.0656 5.40679,9.2689 1.62634,2.7768 3.00092,5.886 2.3172,7.7239 -0.54714,1.4709 -2.4124,2.1276 -4.05573,3.1969 -1.94636,1.2665 -3.58136,3.1117 -5.24024,5.0021 -1.58194,1.8028 -3.18558,3.6466 -4.28742,5.002 -0.7251,0.892 -1.2329,1.5724 -1.74351,2.2584"
       style="fill:none;stroke:#0000ff;stroke-width:2"
       id="path34" />
    <path
       d="m 722.66843,1055.7871 c 2.02306,0.1266 4.04612,0.2532 6.10958,0 1.98985,-0.2441 4.01727,-0.8415 5.68133,0 1.97978,1.0012 3.44526,4.0391 5.68134,5.6909 2.36265,1.7453 5.58555,1.9433 8.61997,2.5081 3.02039,0.5622 5.85401,1.4877 8.61997,2.1937 2.60264,0.6643 5.14537,1.1343 7.83633,0.7836 2.98292,-0.3886 6.14798,-1.7856 9.20771,-2.9773 3.15688,-1.2295 6.20164,-2.2405 9.99135,-2.5081 4.49656,-0.3175 10.0419,0.4117 14.49717,0.3918 4.02874,-0.018 7.16617,-0.6483 11.75455,-1.5672 5.24268,-1.05 12.37965,-2.4766 15.45831,-0.8527 1.90681,1.0057 2.25683,3.1816 3.83311,4.5362 2.2202,1.908 6.87316,2.1867 11.52081,2.4672 5.17264,0.3122 10.33867,0.6265 14.50337,1.6254 3.3861,0.8121 6.11027,2.0768 9.12711,3.1257 3.37448,1.1732 7.11515,2.0765 11.75273,2.7506 5.72463,0.8321 12.81591,1.315 18.22204,2.494 4.0411,0.8813 7.1406,2.1516 10.21825,1.0948 3.59216,-1.2335 7.15454,-5.6371 11.31299,-8.2472 4.22244,-2.6503 9.05943,-3.4514 13.74589,-4.4039 4.58886,-0.9327 9.03343,-2.0107 13.21917,-4.0962 4.20901,-2.0971 8.15633,-5.2129 11.41571,-8.0933 2.62205,-2.317 4.79891,-4.4817 6.81533,-5.9634 1.6321,-1.1993 3.15908,-1.9511 5.53744,-2.1298 4.06811,-0.3055 10.62703,1.0662 17.18598,2.4379"
       style="fill:none;stroke:#0000ff;stroke-width:2"
       id="path38" />
    <path
       d="m 563.0882,897.03372 c 0.94948,0.58512 3.13498,1.2291 4.20221,0.63946 0.86776,-0.47944 0.99622,-1.77442 0.3654,-2.78624 -0.75772,-1.2154 -2.61101,-2.0222 -3.74547,-1.553 -0.96048,0.39724 -1.40574,1.70912 -1.4616,2.51218 -0.038,0.54706 0.1046,0.858 0.63946,1.1876 z"
       style="fill:none;stroke:#ff0000;stroke-width:2"
       id="path39" />
    <path
       d="m 984.53597,817.54289 c 5.74407,2.04184 11.67975,4.49744 16.25243,9.15011 5.0836,5.17256 8.4827,13.06065 10.9596,20.28055"
       style="fill:none;stroke:#ff0000;stroke-width:2"
       id="path40" />
    <path
       d="m 1218.0667,1041.5126 c 0.6704,3.3453 1.3426,6.6675 2.6986,9.176 1.0449,1.933 2.4959,3.3827 2.5028,5.0985 0.01,1.8976 -1.7509,4.1205 -3.7541,5.845 -2.2333,1.9227 -4.7708,3.2258 -6.8824,5.214 -2.2016,2.0729 -3.9402,4.8905 -5.6311,7.5082 -1.604,2.4833 -3.1649,4.7866 -4.5883,7.091 -1.393,2.2549 -2.6542,4.5108 -4.3798,6.7997 -1.9393,2.5725 -4.465,5.1867 -7.8931,6.4869 -4.042,1.5331 -9.3385,1.2395 -14.1567,1.151 -4.4027,-0.081 -8.4061,0.01 -11.8547,-0.3453 -2.5431,-0.2617 -4.7845,-0.7655 -6.4453,0.2302 -1.7804,1.0674 -2.8934,3.8583 -4.3736,5.9849 -1.5127,2.1733 -3.4089,3.6528 -5.7547,5.1792 -2.7382,1.7818 -6.089,3.6275 -9.1216,5.2986 -2.787,1.5357 -5.3052,2.9239 -7.8242,4.2608"
       style="fill:none;stroke:#0000ff;stroke-width:2"
       id="path41" />
    <path
       d="m 895.85713,817.54289 c 2.64128,-2.84241 5.65212,-4.25009 8.96221,-6.65075 4.0373,-2.9281 8.51976,-7.33339 13.94875,-9.00493 5.03104,-1.549 10.87493,-0.7503 14.12523,1.94224 3.04425,2.52185 3.81333,6.70499 4.06109,11.82996 0.22308,4.61442 0.0236,9.99238 1.23588,10.06426 1.12204,0.0666 3.45348,-4.41214 3.88444,-7.76892 0.37122,-2.89131 -0.66754,-4.95029 1.05948,-6.35637 3.47067,-2.82572 18.11106,-3.01476 25.86357,-2.89184 4.44542,0.0704 6.62604,0.24354 8.37626,1.74996 1.89915,1.63458 3.29155,4.83908 7.16193,7.08639"
       style="fill:none;stroke:#ff0000;stroke-width:2"
       id="path42" />
    <path
       d="m 593.55677,824.08647 c -2.08554,-1.67034 -4.17108,-3.34066 -6.52557,-4.25978 -2.45146,-0.95698 -5.19448,-1.09956 -8.41732,-0.7215 -3.95549,0.464 -8.63375,1.71226 -12.2653,3.39262 -3.20052,1.4809 -5.58806,3.29742 -8.89834,4.30325 -3.83223,1.16442 -8.90111,1.24236 -13.22724,0.72152 -3.87452,-0.46648 -7.15326,-1.41325 -10.58185,-0.962 -3.69248,0.48598 -7.55874,2.59348 -11.78427,3.60744 -4.61056,1.10634 -9.64883,0.91078 -14.67025,0.24048 -5.00618,-0.66828 -9.99561,-1.80842 -14.18927,-3.36694 -3.67821,-1.36697 -6.74425,-3.05577 -10.82229,-2.95509 -5.39671,0.1332 -12.56573,3.40031 -18.51822,6.56257 -5.44131,2.89068 -9.86607,5.69378 -13.94873,8.65781 -3.65855,2.6561 -7.04241,5.4414 -10.34131,8.17684 -3.31771,2.75101 -6.54951,5.45157 -10.34137,8.41739 -4.08041,3.19149 -8.80937,6.69013 -12.26523,9.37931 -2.41319,1.87782 -4.20561,3.36094 -6.73389,3.36694 -2.8861,0.006 -6.73109,-1.9111 -9.61987,-1.92392 -2.21676,-0.01 -3.87046,1.10216 -5.77188,0.24048 -3.45059,-1.56374 -7.71697,-9.62737 -12.26531,-14.54329 -4.04611,-4.37313 -8.31535,-6.25527 -12.4747,-8.42905 -3.98302,-2.08164 -7.86528,-4.43072 -11.55651,-7.55367 -4.01326,-3.39542 -7.8007,-7.70562 -10.66757,-12.35141 -2.81796,-4.56654 -4.74646,-9.45735 -6.10226,-14.53969 -1.1379,-4.26558 -1.87236,-8.66609 -4.34301,-10.22311 -1.97548,-1.24496 -5.06094,-0.672 -6.66724,-2.44466 -2.42786,-2.67932 -1.4764,-10.71741 0,-16.22354 1.24482,-4.6424 2.86284,-7.48488 4.88928,-10.44533 2.04328,-2.985 4.50183,-6.08994 6.12097,-10.00079 1.77076,-4.27708 2.5376,-9.51808 2.77762,-13.74617 0.1816,-3.19826 0.0616,-5.81694 -1.16344,-7.93957 -1.18016,-2.04468 -3.38588,-3.62908 -5.23547,-5.29446 -1.7608,-1.58546 -3.1988,-3.24434 -4.63608,-4.90373"
       style="fill:none;stroke:#0000ff;stroke-width:2"
       id="path43" />
    <path
       d="m 1149.9768,1225.4013 c -0.1642,-1.8557 -0.761,-4.2079 -2.0532,-6.0311 -1.4293,-2.0166 -3.7095,-3.386 -6.5443,-4.2345 -3.2144,-0.9622 -7.1421,-1.2547 -10.0091,-0.5133 -2.3868,0.6171 -4.0386,1.9508 -6.2878,2.9513 -2.6257,1.1681 -6.0656,1.8822 -9.1108,2.5665 -2.4758,0.5562 -4.6907,1.0927 -5.6461,2.6947 -0.997,1.6717 -0.6227,4.5036 0.385,6.801 1.1054,2.5205 2.9732,4.3978 5.2611,6.2878 2.5701,2.1231 5.6703,4.2621 8.9825,5.1329 3.2164,0.8455 6.6327,0.4951 9.7525,-0.2567 3.0273,-0.7295 5.7754,-1.8368 8.3409,-3.8496 2.6174,-2.0536 5.0447,-5.0498 6.1594,-7.3144 0.7479,-1.5192 0.9049,-2.7092 0.7699,-4.2346 z"
       style="fill:none;stroke:#ff0000;stroke-width:2"
       id="path44" />
    <path
       d="m 1096.3446,1165.5973 c 1.0901,0.8849 1.393,3.2441 1.4616,5.2984 0.067,2.0118 -0.09,3.7311 -0.8221,5.2069 -0.7213,1.4541 -2.0005,2.6717 -3.4871,3.7454 -1.5669,1.1316 -3.3643,2.1033 -5.2825,2.101 -1.9103,0 -3.9406,-0.9704 -5.0243,-2.5578 -1.1053,-1.6188 -1.226,-3.8817 -0.4567,-5.8464 0.8438,-2.155 2.7584,-3.9513 4.6588,-5.2983 1.7294,-1.2258 3.447,-2.0794 5.207,-2.6492 1.4092,-0.4562 2.8455,-0.7304 3.7453,0 z"
       style="fill:none;stroke:#ff0000;stroke-width:2"
       id="path45" />
    <path
       d="m 1308.2582,1162.6605 c -0.9003,2.9476 -1.2997,5.4559 -1.3288,9.2833 -0.036,4.7839 0.5057,11.6287 4.2812,14.011 4.1461,2.6162 12.1916,-0.1494 17.5136,2.3351 5.8747,2.7426 8.4308,11.8824 14.011,16.3462 5.6754,4.5398 14.479,4.2429 22.184,1.9459 7.6784,-2.289 14.2659,-6.5644 19.4597,-10.5082 3.861,-2.9317 6.9519,-5.6802 7.3948,-9.7298 0.5441,-4.9755 -2.909,-11.9152 -6.1403,-17.3961 -2.7276,-4.6266 -5.2971,-8.2137 -4.7252,-12.2661 0.5684,-4.0277 4.2401,-8.5151 2.8896,-12.6593 -1.949,-5.9813 -14.3591,-11.2479 -23.5489,-13.3053 -7.4766,-1.6738 -12.8217,-1.2235 -17.9028,0 -4.8814,1.1754 -9.5191,3.0643 -14.7894,7.3668 -6.4934,5.3009 -13.9471,14.2654 -16.7354,18.6813 -1.2418,1.9667 -1.5583,3.0311 -2.0989,4.5105"
       style="fill:none;stroke:#ff0000;stroke-width:2"
       id="path46" />
    <path
       style="fill:none;stroke:#ff0000;stroke-width:2"
       d="m 1011.7471,846.97319 0.904,2.77601"
       id="path47" />
    <path
       d="m 1026.8729,847.18415 c 0.8951,4.05457 0.6361,8.05493 3.3542,10.38245 3.2898,2.81713 10.9409,3.18367 15.9497,1.04022 4.9297,-2.1096 7.2997,-6.6506 12.8291,-8.66834 6.2867,-2.29407 16.6574,-1.3264 19.4169,-4.85423 2.1421,-2.7386 -0.3024,-8.18627 -3.8141,-11.44219 -4.3404,-4.0243 -10.3111,-4.70024 -17.3366,-6.24114 -8.4996,-1.86421 -18.543,-4.99441 -26.6983,-3.81407 -5.6583,0.81896 -10.4077,3.71299 -10.7487,7.28137 -0.3651,3.82196 4.3269,8.41755 6.2411,13.52257"
       style="fill:none;stroke:#ff0000;stroke-width:2"
       id="path48" />
    <path
       d="m 1086.3391,1190.5425 c 2.0244,-0.2706 4.8692,0.7736 7.1579,1.9027 2.1702,1.0707 3.8403,2.2178 5.527,3.7149 1.7576,1.5601 3.5332,3.5003 4.4397,5.7082 0.8928,2.1744 0.9427,4.6084 0.7249,6.9766 -0.2038,2.2142 -0.6416,4.3708 -1.9934,5.7988 -1.4671,1.5497 -4.0107,2.2412 -6.6143,2.8994 -2.8995,0.733 -5.8734,1.4248 -8.8793,1.1779 -2.8901,-0.2375 -5.8099,-1.3428 -7.6109,-3.2619 -1.7088,-1.8209 -2.4104,-4.3745 -2.6276,-6.9766 -0.2284,-2.7355 0.079,-5.5245 1.1779,-8.1546 1.1161,-2.6703 3.0489,-5.1767 4.7115,-7.0672 1.2531,-1.4249 2.3526,-2.4998 3.9866,-2.7182 z"
       style="fill:none;stroke:#ff0000;stroke-width:2"
       id="path49" />
    <path
       d="m 856.19947,1159.4243 c -0.6046,-2.9235 -1.20922,-5.847 0,-8.7579 1.54368,-3.7159 6.04329,-7.4112 8.36321,-11.5654 2.15314,-3.8554 2.42876,-8.1061 0.70806,-12.2734 -2.04436,-4.9511 -6.90663,-9.7846 -11.79667,-12.7269 -4.71349,-2.8361 -9.45277,-3.9152 -15.33993,-4.963 -6.85849,-1.2206 -15.2749,-2.3988 -21.88191,0 -6.36904,2.3125 -11.05669,7.949 -15.56543,13.0841 -4.18398,4.7652 -8.21391,9.0987 -13.76081,10.8282 -6.27783,1.9573 -14.4988,0.5791 -22.42486,-0.4364 -7.58689,-0.972 -14.9036,-1.6117 -20.09064,-4.3233 -4.00466,-2.0935 -6.73993,-5.422 -8.13799,-9.1552 -1.3698,-3.6578 -1.45592,-7.704 -4.3233,-10.9354 -3.62447,-4.0847 -11.69275,-6.8675 -14.49578,-11.9527 -2.62828,-4.7682 -0.62734,-11.5607 -2.08494,-16.3864 -1.40872,-4.6638 -6.0479,-7.4905 -11.24557,-10.564 -6.11212,-3.6142 -12.99653,-7.5697 -19.08344,-9.5418 -5.4297,-1.7591 -10.22483,-1.9401 -16.69803,-3.067 -8.59347,-1.4959 -20.14434,-4.6589 -28.96591,-7.497 -7.00056,-2.2523 -12.28233,-4.2999 -18.67782,-2.4864 -7.45778,2.1149 -16.42999,9.4802 -22.58522,12.0992 -4.47142,1.9026 -7.45624,1.3005 -12.90581,4.0331 -8.34649,4.1853 -22.47466,16.1932 -23.79506,20.9719 -0.52704,1.9075 0.9865,2.6632 2.41982,4.4364 2.60004,3.2166 4.93615,9.7817 4.03309,16.1323 -1.09358,7.6904 -6.93733,15.0664 -13.71242,20.1653 -6.35828,4.7852 -13.53683,7.5647 -17.74551,12.0992 -3.23789,3.4885 -4.71799,8.0157 -3.62979,12.183 1.14546,4.3865 5.13663,8.3742 9.27609,10.5995 4.05625,2.1806 8.25485,2.6689 13.14689,3.1744"
       style="fill:none;stroke:#ff0000;stroke-width:2"
       id="path50" />
    <path
       style="fill:none;stroke:#ff0000;stroke-width:2"
       d="m 420.91053,964.4473 1.778,1.72"
       id="path51" />
    <path
       d="m 473.08714,971.41109 c -6.14947,1.16906 -12.38917,2.24102 -18.3421,3.45576 -5.12342,1.04548 -10.03443,2.19674 -13.82297,-0.26582 -3.90366,-2.53738 -6.61563,-8.91149 -8.50649,-11.96225 -1.03306,-1.66678 -1.82102,-2.34154 -2.8549,-3.3237"
       style="fill:none;stroke:#ff0000;stroke-width:2"
       id="path52" />
    <path
       d="m 1182.5095,1148.8248 c -3.7237,-5.3225 -7.4473,-10.6449 -12.4538,-15.1225 -5.36,-4.7937 -12.1904,-8.619 -19.4221,-11.2678 -7.3501,-2.6921 -15.1147,-4.1687 -22.2122,-6.6804 -6.7498,-2.3886 -12.8962,-5.7134 -19.9268,-6.5582 -8.208,-0.9863 -17.621,1.4075 -28.5031,2.2701 -11.6722,0.9253 -25.0345,0.089 -32.7447,3.1531 -5.1158,2.0332 -7.7432,5.7837 -12.2945,7.6551 -5.4773,2.2522 -13.7411,1.7826 -20.6457,3.7116 -6.7867,1.896 -12.2603,6.1094 -16.9341,11.1347 -4.32884,4.6545 -7.97165,10.0055 -9.04691,14.8464 -0.8717,3.9243 -0.056,7.5135 -1.15986,11.3666 -1.25246,4.372 -4.97618,9.0838 -9.04703,11.5987 -3.5695,2.2052 -7.40588,2.7213 -10.20677,4.8715 -2.72094,2.0887 -4.46462,5.7196 -7.88718,7.1912 -4.24289,1.8242 -11.06587,0.3298 -16.23812,-2.3198 -5.1462,-2.6362 -8.65825,-6.4161 -12.99053,-9.7429 -4.60066,-3.5328 -10.12633,-6.5545 -16.16491,-8.6046 -6.11411,-2.0758 -12.75406,-3.1555 -18.53144,-3.0051 -5.08691,0.1324 -9.50511,1.2182 -14.32101,2.595 -4.80655,1.3742 -10.00925,3.0381 -14.3637,1.9676 -4.28652,-1.0537 -7.75104,-4.7572 -11.21557,-8.4608"
       style="fill:none;stroke:#ff0000;stroke-width:2"
       id="path53" />
    <path
       style="fill:none;stroke:#ff0000;stroke-width:2"
       d="m 1308.7233,1161.2755 -0.466,1.386"
       id="path54" />
    <path
       style="fill:none;stroke:#ff0000;stroke-width:2"
       d="m 1026.0671,844.39119 0.806,2.792"
       id="path55" />
    <path
       d="m 622.13966,875.64418 c -3.68281,4.67372 -7.30355,9.26871 -12.8183,11.59487 -6.29228,2.65414 -15.05029,2.3546 -22.18022,3.79158 -6.53594,1.31729 -11.70379,4.09381 -17.66903,6.73463 -6.53545,2.89324 -14.02806,5.62359 -20.30054,10.15033 -5.47773,3.95316 -10.02495,9.27633 -9.77435,14.28553 0.24204,4.83821 4.95992,9.38351 6.76689,14.66152 2.02882,5.926 0.38806,12.77567 -1.50379,20.30062 -2.07216,8.24206 -4.44556,17.29425 -12.82539,20.78223 -11.48395,4.78003 -34.24833,-0.8899 -45.7223,-3.6103 -6.19027,-1.46766 -9.09425,-2.0768 -13.02549,-2.9241"
       style="fill:none;stroke:#ff0000;stroke-width:2"
       id="path56" />
    <path
       d="m 576.63695,911.64629 c 1.04069,0.73816 2.31601,0.63828 2.99591,-0.3841 0.91654,-1.37818 0.75112,-4.43268 -0.61454,-5.45406 -1.17496,-0.87876 -3.23833,-0.2526 -3.91771,1.07546 -0.754,1.47398 0.1968,3.81258 1.53634,4.7627 z"
       style="fill:none;stroke:#ff0000;stroke-width:2"
       id="path57" />
    <path
       d="m 1275.819,1352.2587 c -5.6229,5.791 -11.2153,11.5504 -17.4856,15.9652 -6.4052,4.5096 -13.5178,7.616 -22.8072,9.503 -10.3703,2.1066 -23.4533,2.6936 -30.7898,-0.3802 -3.4951,-1.4642 -5.686,-3.7594 -4.9416,-4.9414 1.176,-1.8678 9.6789,-0.957 17.1054,-3.4212 9.9354,-3.2966 17.9446,-12.6332 23.1874,-20.9066 4.4129,-6.9639 6.866,-13.1745 7.2223,-20.9069 0.3919,-8.5054 -1.7531,-18.8524 -5.3216,-26.2283 -2.929,-6.0542 -6.817,-10.1068 -10.2633,-14.8247 -3.5042,-4.7971 -6.5517,-10.282 -11.7839,-14.4446 -6.4715,-5.1487 -16.2854,-8.2746 -26.6084,-10.2633 -8.8914,-1.7129 -18.1604,-2.5822 -20.1465,-6.462 -1.5522,-3.0324 1.3445,-7.9038 0,-12.9242 -1.4461,-5.3999 -7.7988,-10.9721 -8.3108,-12.4297 -0.1056,-0.3004 0.037,-0.4261 0.075,-0.6307"
       style="fill:none;stroke:#ff0000;stroke-width:2"
       id="path59" />
    <path
       style="fill:none;stroke:#ff0000;stroke-width:2"
       d="m 1284.6573,1157.5255 -0.652,1.354"
       id="path60" />
    <path
       style="fill:none;stroke:#ff0000;stroke-width:2"
       d="m 427.65054,957.7273 1.91,1.588"
       id="path61" />
    <path
       d="m 555.19979,1162.5987 c -1.67206,4.0899 -3.34412,8.1798 -5.12176,12.0962 -1.70388,3.7538 -3.50478,7.3482 -7.19081,9.6919 -4.16312,2.6471 -10.73095,3.6988 -15.16321,2.6575 -3.82588,-0.8989 -6.06057,-3.3572 -10.94247,-3.4391 -6.80783,-0.1142 -18.76352,4.3933 -22.19766,2.1885 -1.87906,-1.2063 -1.20684,-4.4223 -2.34482,-6.2528 -1.30826,-2.1045 -5.00907,-2.3779 -8.12875,-3.4391 -3.33526,-1.1344 -6.00629,-3.1693 -7.65971,-6.5655 -2.07908,-4.2706 -2.54916,-10.6938 -5.20994,-15.0766 -2.59849,-4.2803 -7.28629,-6.6147 -11.68711,-9.7393 -4.31245,-3.0619 -8.34931,-6.8826 -9.46105,-11.1306 -1.2216,-4.6679 1.0887,-9.8517 1.94786,-17.5307 1.09448,-9.7824 -0.166,-23.6141 4.7925,-28.2201 4.38427,-4.0726 13.6305,-0.9327 22.33318,-1.418 9.95715,-0.5553 19.20276,-5.8564 27.29615,-10.6349 7.24987,-4.2804 13.57519,-8.1415 21.62418,-9.2168 8.65371,-1.1561 19.2998,0.9079 27.11342,-1.7725 7.26007,-2.4906 12.07482,-9.0771 17.1985,-15.9523 5.17877,-6.949 10.67317,-14.1929 11.69833,-20.9152 0.82964,-5.4401 -1.2676,-10.5386 -4.9629,-14.8888 -4.35185,-5.1231 -10.92003,-9.2082 -17.37026,-13.11631 -6.07177,-3.6788 -12.03899,-7.20082 -15.59783,-11.34385 -2.68847,-3.12978 -4.00255,-6.61396 -2.83597,-10.63485 1.54556,-5.3272 7.44543,-11.59649 11.87013,-15.24329 2.96851,-2.4466 5.27305,-3.71284 5.50013,-6.73541 0.37032,-4.92942 -4.78486,-14.53023 -5.50013,-22.46508 -0.65444,-7.26026 2.40823,-13.12581 6.21183,-18.33979 3.60092,-4.93613 7.86593,-9.28829 13.34015,-11.10037 5.80589,-1.92189 12.97193,-0.9866 19.30506,-2.89579 6.28319,-1.89412 11.74653,-6.58798 17.37454,-8.2046 4.90704,-1.40954 9.93925,-0.4797 14.47875,-1.93053 4.4436,-1.42014 8.41509,-5.1214 9.65253,-10.13512 1.76706,-7.15955 -2.04102,-16.99546 1.93052,-28.47491 4.34288,-12.55279 17.9882,-27.07085 16.40928,-29.92279 -1.12009,-2.02316 -9.90171,1.82462 -15.60048,7.18179 -6.0635,5.70004 -8.63691,13.10887 -13.16039,14.31195 -4.70067,1.2502 -11.50719,-4.20108 -18.25998,-10.36379 -5.96604,-5.44468 -11.89013,-11.44469 -13.32483,-9.54129 -1.1391,1.51122 0.5518,8.00459 1.64504,10.19927 0.53738,1.07882 0.93034,1.11894 1.89852,1.62082 2.67675,1.38755 9.75025,6.30459 15.43,11.22467 5.58698,4.83975 9.82535,9.68243 11.02711,14.80784 1.03818,4.42772 -0.1898,9.06641 -1.41778,13.70511"
       style="fill:none;stroke:#ff0000;stroke-width:2"
       id="path62" />
    <path
       d="m 653.90245,822.49781 c 2.85484,-1.6539 5.7097,-3.3078 8.49396,-3.65288 2.60153,-0.32242 5.14141,0.4978 7.99095,1.14154 3.10622,0.70174 6.58039,1.19376 9.58911,0.22832 3.34762,-1.07418 6.11905,-3.9527 9.36085,-7.30597 3.89204,-4.0259 8.46211,-8.73611 11.87223,-12.32895 2.46124,-2.5931 4.31824,-4.60412 5.70786,-6.84933 1.20001,-1.93882 2.05147,-4.05226 1.82651,-6.39276 -0.24744,-2.57426 -1.79711,-5.42323 -0.91328,-7.99099 1.1609,-3.3728 6.5203,-6.26044 10.26786,-9.33461 3.38695,-2.77834 5.45735,-5.70904 8.49331,-7.50568 2.87717,-1.70269 6.62153,-2.38683 9.38207,-3.95041 2.60692,-1.47656 4.33646,-3.73738 6.41935,-6.41928 2.41784,-3.11319 5.31178,-6.79379 6.37592,-10.43965 0.9461,-3.24151 0.44576,-6.45557 -0.0546,-9.66961"
       style="fill:none;stroke:#0000ff;stroke-width:2"
       id="path63" />
    <path
       d="m 331.70627,729.14667 c 3.20916,-1.64249 6.40922,-3.28029 9.86195,-4.10255 3.90436,-0.9298 8.1318,-0.81676 13.31307,-3.05132 7.73429,-3.33564 17.59394,-11.90247 25.06872,-17.25746 6.37437,-4.56662 11.01437,-6.79748 20.70892,-7.81126 14.59916,-1.52669 40.6609,-0.29332 50.13745,2.36152 3.03954,0.85154 4.37286,1.8493 3.99648,3.26986 -0.57788,2.18106 -5.18604,5.35877 -7.44797,9.62785 -2.42726,4.58114 -2.1527,10.41905 0.90827,13.98759 3.72694,4.34495 11.58465,5.32565 17.80245,10.71781 5.91299,5.12783 10.34291,14.2452 12.87303,13.6907 2.02707,-0.44427 2.83473,-7.09651 0.38794,-12.0558 -3.48192,-7.05734 -13.55435,-10.68629 -19.07403,-15.25923 -3.75993,-3.11502 -5.40729,-6.66805 -4.17811,-10.53613 1.64688,-5.1825 8.45753,-10.93055 16.1675,-12.35269 8.98865,-1.658 19.1997,2.56378 27.24862,4.7231 6.59849,1.77022 11.74389,2.15431 18.52908,1.45322 8.05439,-0.83224 18.41938,-3.19362 26.15866,-1.27158 6.87833,1.7082 11.68265,6.79979 17.8024,10.53611 6.35303,3.87877 14.12365,6.29697 21.61726,5.44975 7.78821,-0.88052 15.27719,-5.28831 23.0705,-6.90301 7.98191,-1.65378 16.28306,-0.37762 25.25035,0.72664 9.45436,1.16424 19.64921,2.1374 27.79364,3.99649 6.94933,1.58626 12.40583,3.81752 19.80066,5.08642 8.59273,1.47446 19.80264,1.6495 27.43024,3.08816 5.76773,1.08786 9.48717,2.89823 15.44088,3.26985 7.69747,0.48046 19.12968,-1.44406 26.34034,1.49684 6.41147,2.61494 9.48533,9.07651 13.62436,15.79417 4.34492,7.05189 9.86362,14.38596 15.62253,16.86056 4.46182,1.91726 9.06783,0.91754 13.62429,2.17984 5.11479,1.41698 10.16713,5.68431 15.62262,7.62965 5.9541,2.12316 12.38841,1.48052 20.70886,-0.1816 10.63319,-2.1242 24.3468,-5.91351 33.60669,-3.81479 6.82874,1.54768 11.23537,6.29751 15.07749,10.53611 2.84352,3.13695 5.37785,5.99389 4.3598,9.08291 -1.43114,4.34249 -9.88244,9.14361 -14.16929,13.98759 -2.43862,2.75557 -3.5296,5.52501 -2.36148,5.99471 1.94656,0.7827 10.16627,-4.8205 15.62255,-8.71955 4.52045,-3.23028 7.14413,-5.29088 10.71769,-5.99468 3.07367,-0.60534 6.85007,-0.20698 8.90129,1.81658 1.82582,1.8012 2.2848,4.89002 1.27158,7.08464 -0.99602,2.15735 -3.41466,3.45061 -4.54148,5.26807 -1.20922,1.95034 -0.93082,4.50432 -0.54494,7.99121"
       style="fill:none;stroke:#ff0000;stroke-width:2"
       id="path64" />
    <path
       d="m 826.12604,1059.4499 c 0.30338,-2.276 0.60674,-4.552 1.62347,-6.8231 1.2248,-2.7358 3.48482,-5.4646 6.27082,-8.0168 3.18064,-2.9136 7.04681,-5.5972 10.40377,-8.2303 3.02826,-2.3753 5.64215,-4.7096 7.98115,-7.2685 2.05132,-2.2442 3.89122,-4.6611 6.4133,-5.2732 2.55971,-0.6211 5.82207,0.6169 8.55109,0.1426 2.72676,-0.4739 4.92107,-2.6574 7.12599,-4.7031 2.20064,-2.0417 4.41184,-3.9461 5.41566,-6.5578 1.04852,-2.728 0.77974,-6.2278 0.57006,-9.2617 -0.20464,-2.9615 -0.35296,-5.47915 0.2851,-8.83621 0.81217,-4.27306 2.89843,-9.90605 5.13453,-13.37169 1.6193,-2.50966 3.31718,-3.88275 4.39268,-6.09297 1.22214,-2.51152 1.64064,-6.10394 1.98369,-9.49377 0.34482,-3.40736 0.61338,-6.61 1.417,-9.69651 0.81824,-3.14264 2.1912,-6.1649 4.10928,-9.291 2.1366,-3.48225 4.9496,-7.09335 7.20663,-10.34255 1.92904,-2.77703 3.45194,-5.28969 5.14366,-7.63753 1.57318,-2.18334 3.29234,-4.22416 5.14365,-6.07885 1.79466,-1.79792 3.71354,-3.42096 6.07878,-4.36424 2.39346,-0.95454 5.24405,-1.21302 7.63747,-0.62346 2.1818,0.53744 3.98374,1.7796 5.923,2.338 1.87323,0.53936 3.87457,0.44074 5.92299,-0.46762 2.87652,-1.27556 5.84587,-4.14784 9.81963,-6.39057 4.90134,-2.76624 11.33071,-4.5747 16.67055,-6.30772 4.58303,-1.4874 8.36347,-2.91924 12.42744,-4.23662 4.11578,-1.33417 8.52234,-2.55095 12.92891,-3.76771"
       style="fill:none;stroke:#0000ff;stroke-width:2"
       id="path65" />
    <path
       d="m 341.58252,1029.3108 c -2.77687,-1.389 -5.55375,-2.7781 -9.39157,-3.7037 -5.45051,-1.3146 -13.04089,-1.6945 -20.23812,-2.2487 -7.58333,-0.5839 -14.73017,-1.3614 -22.56152,-1.4193 -8.20349,-0.061 -17.1581,0.6684 -24.74792,-1.6905 -6.93267,-2.1545 -12.72668,-6.8854 -15.71352,-13.4687 -3.01866,-6.6534 -3.17002,-15.19903 -0.187,-21.13842 2.71238,-5.40066 8.01631,-8.64645 11.78515,-12.90749 3.60313,-4.07368 5.80319,-9.07529 6.86673,-14.42403 1.1732,-5.90013 0.96344,-12.22265 -0.79278,-19.42252 -2.35058,-9.63669 -7.47157,-20.8451 -14.01543,-31.87871 -6.98233,-11.77287 -15.5846,-23.34672 -23.73105,-31.75975 -6.41908,-6.62917 -12.55515,-11.29581 -17.95827,-16.8359 -5.16863,-5.29964 -9.66653,-11.39855 -16.8359,-14.96525 -8.48857,-4.22296 -20.72218,-4.89608 -30.67875,-7.48265 -8.50502,-2.20946 -15.34855,-5.8151 -19.45483,-12.34633 -3.96521,-6.30684 -5.37801,-15.34169 -2.61891,-21.32546 2.65247,-5.75252 9.16059,-8.68523 14.59112,-13.46873 6.05072,-5.3298 10.76363,-12.95733 15.13127,-19.46184 3.78206,-5.63242 7.30523,-10.42279 12.71277,-13.41905 6.03479,-3.3438 14.41642,-4.4532 21.5411,-8.12205 6.95801,-3.583 12.71717,-9.60709 19.4223,-10.24085 6.89425,-0.65162 14.78855,4.39545 22.60048,5.29703 7.85633,0.90668 15.62934,-2.37934 23.30678,-2.8251 7.82799,-0.4545 15.55664,2.0437 24.36614,1.41254 11.09823,-0.79512 23.91189,-6.55691 36.72554,-12.31867"
       style="fill:none;stroke:#ff0000;stroke-width:2"
       id="path66" />
    <path
       d="m 953.9944,972.48353 c -0.8583,-5.96077 -6.3464,-9.83943 -11.66263,-13.12045 -4.84366,-2.98937 -9.54463,-5.48263 -13.70363,-4.95661 -3.17924,0.40208 -6.04181,2.56851 -6.70595,5.24817 -0.75872,3.06136 1.35182,6.7926 0.87464,11.07951 -0.67866,6.09696 -6.59164,13.31787 -12.53725,18.66024 -4.96718,4.4632 -9.95713,7.61526 -10.49637,11.66261 -0.47262,3.5474 2.47376,7.7825 6.41445,10.2048 4.04096,2.4839 9.12745,3.0616 12.59043,1.4578 3.2121,-1.4876 5.02738,-4.8522 8.11067,-7.2891 4.01072,-3.17 10.16703,-4.7704 15.74453,-9.62167 6.61431,-5.7531 12.41465,-16.07809 11.37111,-23.3253 z"
       style="fill:none;stroke:#ff0000;stroke-width:2"
       id="path67" />
    <path
       d="m 420.91141,964.44636 c -3.44816,-3.02128 -6.11433,-4.65964 -7.70711,-3.36992 -1.81564,1.47016 -2.23652,6.74511 -2.30678,10.68411 -0.0544,3.04656 0.101,5.29394 2.47416,6.05226 3.55029,1.13451 12.06417,-1.06378 14.60234,-0.9647 0.65224,0.0254 0.90986,0.20262 0.96638,0 0.20222,-0.72514 -2.1713,-6.31422 -6.25203,-10.68119"
       style="fill:none;stroke:#ff0000;stroke-width:2"
       id="path68" />
    <path
       d="m 582.35348,917.79176 a 3.3351791,3.3351791 0 0 0 -6.67035,0 3.3351791,3.3351791 0 0 0 6.67035,0 z"
       style="fill:none;stroke:#ff0000;stroke-width:2"
       id="path69" />
    <path
       d="m 1284.0051,1158.8801 c -2.8721,5.557 -7.4562,9.4169 -10.751,17.001 -4.2292,9.7349 -6.3341,25.6058 -1.3898,33.113 4.0336,6.1246 12.759,6.6826 20.4356,8.3045 7.3888,1.5612 13.8061,4.1081 18.2282,9.239 5.0336,5.8405 7.4821,15.029 9.4888,24.7206 2.0004,9.6615 3.5619,19.823 2.2472,26.2188 -0.8764,4.2639 -3.0311,6.854 -3.2461,11.2366 -0.3391,6.9128 4.1478,18.285 0.8792,29.087 -3.8832,12.8326 -18.7119,24.8603 -29.3916,28.6859 -6.6199,2.3712 -11.6456,1.591 -14.6866,5.7722"
       style="fill:none;stroke:#ff0000;stroke-width:2"
       id="path70" />
    <path
       d="m 550.07047,896.5313 c -0.77762,-0.607 -1.0782,-2.69844 -0.59376,-3.56276 0.40952,-0.7307 1.3801,-0.58438 2.51216,-0.59378 1.50588,-0.012 3.29748,-0.3005 4.56763,0 0.86948,0.20572 1.4946,0.68722 1.64436,1.37026 0.15,0.68412 -0.1768,1.57042 -0.86788,1.96408 -0.95316,0.543 -2.59909,0.1486 -4.06521,0.41106 -1.30224,0.23316 -2.46266,0.98458 -3.1973,0.41114 z"
       style="fill:none;stroke:#ff0000;stroke-width:2"
       id="path71" />
    <path
       d="m 1164.9508,1228.9631 c 1.336,-2.4682 5.6476,-5.1779 9.756,-8.9866 5.7332,-5.3152 11.0707,-12.7708 14.0644,-21.667 3.2169,-9.5593 3.7276,-20.7819 1.8925,-29.7662 -1.5521,-7.5991 -4.7823,-13.5968 -8.1542,-19.7185"
       style="fill:none;stroke:#ff0000;stroke-width:2"
       id="path72" />
    <path
       d="m 1012.6516,849.74944 c 0.2218,0.71986 0.3559,1.04342 0.6227,2.11354 0.5987,2.4019 1.8655,8.56489 0.1982,11.09857 -1.5321,2.32828 -5.5416,1.5919 -8.9336,2.83744 -4.2054,1.5442 -7.46136,6.13483 -10.83272,9.49939 -2.88374,2.87794 -5.85189,4.85884 -6.66619,8.16615 -1.01398,4.11836 1.31186,10.29349 5.66631,15.33239 5.32152,6.15799 13.6728,10.61905 21.1653,12.16593 5.7734,1.19198 11.0369,0.65366 14.3325,-2.16654 2.7913,-2.38862 4.1709,-6.41414 3.8331,-9.66605 -0.3223,-3.10264 -2.208,-5.50104 -4.1664,-8.49949 -2.0143,-3.08394 -4.1056,-6.8026 -3.1665,-9.49938 0.957,-2.74817 5.061,-4.43511 9.6661,-3.83311 6.9808,0.91256 15.1133,7.08501 22.332,8.49945 6.1621,1.20742 11.6584,-1.05234 17.3323,-1.66656 5.6731,-0.61412 11.5238,0.4168 17.1467,3.00086 5.8607,2.69332 11.4741,7.07387 13.5281,13.21345 2.2874,6.83725 0.1606,15.85604 2.8315,23.2808 2.6722,7.42877 10.1473,13.2618 12.5842,19.82014 2.0702,5.57123 0.5048,11.66583 -4.4045,16.3595 -6.0756,5.80872 -17.2725,9.47177 -24.2678,9.18507 -5.2563,-0.21542 -8.1402,-2.66091 -14.6292,-0.78648 -9.2311,2.6665 -25.7576,14.07537 -25.3257,15.41563 0.4327,1.3427 17.8862,-7.42017 28.4718,-8.65163 8.1916,-0.95296 12.2706,2.60416 17.7752,1.2584 6.2691,-1.53266 14.3874,-9.42453 21.2359,-9.12357 7.5675,0.33255 13.5845,10.66839 21.3932,18.40444 8.1165,8.04111 18.1687,13.27335 27.3174,13.54201 8.0004,0.23494 15.3099,-3.32598 23.2896,-1.1224 7.8263,2.16121 16.2974,9.86731 16.2747,15.43291 -0.02,4.8544 -6.5012,8.0803 -13.4686,10.4757 -9.1417,3.1428 -19.12,4.856 -28.0776,8.6288 -8.6379,3.6381 -16.3266,9.1915 -23.4833,13.9488 -6.6213,4.4013 -12.7871,8.1212 -20.6583,10.9471 -8.686,3.1184 -19.4488,5.1483 -28.2506,3.5313 -8.6369,-1.5867 -15.3855,-6.6848 -24.8959,-11.4768 -11.3073,-5.6975 -26.5186,-10.9623 -36.9023,-11.8299 -7.6275,-0.6374 -12.6501,1.0978 -20.8348,1.7656 -9.1913,0.7499 -22.37017,0.1538 -26.14847,3.3945 -1.52624,1.3091 -1.51856,3.2443 0,4.3025 4.02296,2.8034 18.64967,-0.5481 30.14917,-1.6836 10.7669,-1.0631 18.7923,-0.1838 26.3761,2.2448 7.1724,2.2967 13.9499,5.979 21.4389,10.0493 8.2982,4.5102 17.47,9.4969 26.3179,12.3478 6.8185,2.197 13.4446,3.1256 17.2179,1.2598 2.3401,-1.1571 3.5829,-3.389 5.4593,-3.7795 2.3207,-0.4829 5.6105,1.8509 10.0788,1.2598 8.4052,-1.1118 20.9804,-12.5735 31.0761,-18.0577 7.8297,-4.2533 14.1681,-4.9113 19.7376,-8.8189 5.2834,-3.7068 9.875,-10.3379 16.3779,-10.4987 7.7904,-0.1926 18.324,8.9004 26.0368,10.0787 5.9543,0.9097 10.2276,-2.8978 16.3779,-2.9396 7.8138,-0.053 18.6573,5.9715 23.9371,12.1785 4.3485,5.1122 4.9229,10.348 7.979,16.378 3.4533,6.8137 10.0753,14.6415 8.8948,21.4942 -1.0295,5.9756 -7.9921,11.2098 -8.0689,15.7407 -0.072,4.2719 5.976,7.9186 10.7143,11.508 5.0852,3.8523 8.6613,7.6386 10.2833,14.9077 1.9185,8.5974 1.1037,22.0665 0.3333,25.3318 -0.193,0.8184 -0.3833,0.9958 -0.5965,1.4756"
       style="fill:none;stroke:#ff0000;stroke-width:2"
       id="path73" />
    <path
       d="m 427.65068,957.7272 c -1.95644,-1.40689 -3.76897,-2.48035 -6.39985,-2.53159 -3.69282,-0.072 -8.99799,1.87011 -13.55715,-0.26582 -5.70625,-2.67332 -10.24393,-11.73471 -15.15218,-14.88629 -3.88608,-2.49524 -8.00444,-1.28586 -13.29133,-0.79748 -7.12598,0.65828 -16.37485,0.006 -24.1903,0 -6.61149,-0.006 -12.19715,0.45012 -17.27874,-1.06332 -4.381,-1.30478 -8.38734,-4.07327 -10.26605,-7.75703 -2.01742,-3.95578 -1.58138,-8.96703 1.00365,-14.80355 2.54396,-5.74381 7.16918,-12.28685 6.02178,-13.04719 -1.31488,-0.87133 -10.21077,5.85166 -15.30535,11.03991 -4.19837,4.27556 -5.81521,7.50886 -5.01815,11.79265 1.00192,5.38484 5.81807,12.42957 11.29083,16.81079 5.34193,4.27647 11.30947,6.01525 18.06536,6.77455 7.43055,0.83512 15.81477,0.48536 23.33436,-0.50186 6.81125,-0.89424 12.91309,-2.3115 19.06896,1.75636 7.84263,5.1825 15.77297,19.26788 16.07711,26.60078 0.1656,3.99397 -1.93106,5.98475 -4.61284,7.98385 -3.46622,2.58384 -7.90985,5.18159 -12.95155,8.33865 -5.97759,3.74308 -12.79587,8.27239 -18.13654,11.82919 -4.2593,2.8365 -7.57877,5.0545 -10.59249,8.8022 -3.16532,3.9361 -5.99338,9.5597 -8.80229,12.3828 -1.79702,1.8062 -3.5862,2.4661 -5.3754,3.126"
       style="fill:none;stroke:#ff0000;stroke-width:2"
       id="path74" />
    <text
       xml:space="preserve"
       style="font-size:32px;fill:none;stroke:#0000ff"
       x="365.66315"
       y="783.36865"
       id="text82"><tspan
         sodipodi:role="line"
         id="tspan82"
         x="365.66315"
         y="783.36865">Northern Air Temple</tspan></text>
    <text
       xml:space="preserve"
       style="font-size:29.3333px;fill:none;stroke:#0000ff"
       x="250.4548"
       y="895.46594"
       id="text83"><tspan
         sodipodi:role="line"
         id="tspan83"
         x="250.4548"
         y="895.46594"
         style="font-size:29.3333px">Northern Mountains</tspan></text>
    <text
       xml:space="preserve"
       style="font-size:52px;fill:none;stroke:#0000ff"
       x="653.70691"
       y="899.55212"
       id="text84"><tspan
         sodipodi:role="line"
         id="tspan84"
         x="653.70691"
         y="899.55212"
         style="font-size:52px">Ba Sing Se</tspan></text>
    <text
       xml:space="preserve"
       style="font-size:21.3333px;fill:none;stroke:#0000ff"
       x="590.37109"
       y="1014.9868"
       id="text85"><tspan
         sodipodi:role="line"
         id="tspan85"
         x="590.37109"
         y="1014.9868"
         style="font-size:21.3333px">Serpent's</tspan><tspan
         sodipodi:role="line"
         x="590.37109"
         y="1041.6534"
         id="tspan86"
         style="font-size:21.3333px">Pass</tspan></text>
    <text
       xml:space="preserve"
       style="font-size:32px;fill:none;stroke:#0000ff"
       x="943.82599"
       y="1025.2023"
       id="text87"><tspan
         sodipodi:role="line"
         id="tspan87"
         x="943.82599"
         y="1025.2023">Lake laogai</tspan></text>
    <text
       xml:space="preserve"
       style="font-size:26.6667px;fill:none;stroke:#0000ff"
       x="854.95142"
       y="1101.8182"
       id="text88"><tspan
         sodipodi:role="line"
         id="tspan88"
         x="854.95142"
         y="1101.8182"
         style="font-size:26.6667px">Chameleon Bay</tspan></text>
    <text
       xml:space="preserve"
       style="font-size:21.3333px;fill:none;stroke:#0000ff"
       x="1191.0403"
       y="1139.6155"
       id="text89"><tspan
         sodipodi:role="line"
         id="tspan89"
         x="1191.0403"
         y="1139.6155"
         style="font-size:21.3333px">Hopping</tspan><tspan
         sodipodi:role="line"
         x="1191.0403"
         y="1166.2821"
         id="tspan90"
         style="font-size:21.3333px">Llamas</tspan></text>
  </g>
</svg>
