<?xml version="1.0" encoding="UTF-8" standalone="no"?>
<svg
   viewBox="0 0 1012.4069 538.89168"
   width="1012.4069"
   height="538.89166"
   version="1.1"
   id="svg66"
   sodipodi:docname="Fire Nation.dxf"
   inkscape:export-filename="Fire Nation.dxf.png"
   inkscape:export-xdpi="96"
   inkscape:export-ydpi="96"
   xmlns:inkscape="http://www.inkscape.org/namespaces/inkscape"
   xmlns:sodipodi="http://sodipodi.sourceforge.net/DTD/sodipodi-0.dtd"
   xmlns="http://www.w3.org/2000/svg"
   xmlns:svg="http://www.w3.org/2000/svg">
  <sodipodi:namedview
     id="namedview66"
     pagecolor="#ffffff"
     bordercolor="#000000"
     borderopacity="0.25"
     inkscape:showpageshadow="2"
     inkscape:pageopacity="0.0"
     inkscape:pagecheckerboard="0"
     inkscape:deskcolor="#d1d1d1" />
  <desc
     id="desc1">Fire Nation.dxf - scale = 1.000000, origin = (0.000000, 0.000000), method = file</desc>
  <defs
     id="defs4" />
  <g
     inkscape:groupmode="layer"
     inkscape:label="MODELSKETCH_VISIBLE"
     id="g58"
     transform="translate(461.75891,-829.1036)">
    <path
       d="m 539.47388,1037.464 c 3.87151,-0.047 7.71992,0.6782 9.23612,2.5189 1.25918,1.5287 0.90982,3.827 0.83965,6.5493 -0.0842,3.2659 0.23348,7.1419 -1.17551,9.4307 -1.06367,1.7278 -3.11136,2.551 -5.03788,1.9885 -2.4705,-0.7214 -4.74176,-3.7215 -6.38133,-6.2134 -1.47708,-2.2449 -2.44149,-4.0773 -3.69445,-6.2134 -1.12633,-1.9202 -2.48584,-4.0858 -1.84722,-5.5417"
       style="fill:none;stroke:#ff0000;stroke-width:2"
       id="path34" />
    <path
       d="m -366.88068,1038.0664 c 8.65929,1.173 17.28937,2.342 25.17376,4.5123 7.30311,2.0104 13.96645,4.8799 21.61142,3.7998 9.54044,-1.3478 20.60964,-8.8465 32.29836,-11.1619 12.9323,-2.5617 26.62294,1.2215 41.79793,1.6624 14.73389,0.4281 30.86706,-2.2947 39.42305,0.95 5.45085,2.0671 7.82635,6.5563 12.8032,9.6046 6.15093,3.7674 16.27535,5.3338 22.71624,9.0366 4.96225,2.8527 7.73812,6.9735 11.43296,8.9367 4.07279,2.1639 9.2622,1.7062 17.52395,1.9471 12.87017,0.3751 33.1961,2.4453 42.78634,-0.3495 5.073669,-1.4786 7.142553,-4.3189 11.632741,-2.8458 10.330998,3.3894 33.479579,29.6126 51.696291,36.6948 13.541404,5.2646 24.357603,-0.048 35.02042201,0.8473 8.58207519,0.7203 17.06478999,5.4615 19.34595399,11.8618 1.952624,5.4784 -0.638621,12.1725 -5.93089,15.5332 -6.6703321,4.2358 -17.6315114,3.1764 -25.861066,5.3737 -8.020874,2.1417 -13.446944,7.3771 -22.166779,11.7551 -10.152518,5.0974 -24.770044,9.0326 -33.585879,5.3737 -6.797912,-2.8213 -10.146158,-10.158 -16.45711,-11.755 -6.854132,-1.7344 -17.202954,3.3015 -23.845944,0.6717 -6.39653,-2.5322 -9.35709,-12.1718 -16.45709,-14.7778 -7.77665,-2.8543 -20.51931,2.7296 -26.53288,0.3359 -4.58611,-1.8256 -5.25859,-8.2909 -10.71822,-11.1036 -8.2484,-4.2494 -27.42353,-0.1616 -35.16158,-2.1181 -4.00155,-1.0118 -4.94459,-3.6399 -6.07208,-7.2018"
       style="fill:none;stroke:#ff0000;stroke-width:2"
       id="path35" />
    <path
       d="m -203.28009,1122.4911 c 5.57797,-1.9031 12.44238,-1.6447 19.21085,-1.9239 5.72297,-0.236 11.37736,-0.8563 13.74854,1.2254 1.84645,1.6211 1.70207,4.8805 0.89913,8.3214 -1.03033,4.4153 -3.14499,9.1293 -6.28901,12.2629 -2.90219,2.8927 -6.68148,4.4387 -10.94428,4.2574 -4.72257,-0.201 -10.03858,-2.5221 -14.18173,-2.5708 -3.25724,-0.038 -5.78957,1.3279 -8.60153,2.3172 -2.80609,0.9873 -5.89063,1.5993 -8.7703,1.3324 -2.28808,-0.2122 -4.44681,-0.9792 -4.88709,-2.7355 -0.69566,-2.775 2.89905,-8.0198 6.55797,-12.3493 3.99739,-4.7301 8.07142,-8.3678 13.25745,-10.1372 z"
       style="fill:none;stroke:#ff0000;stroke-width:2"
       id="path36" />
    <path
       d="m -139.87136,874.99448 c 2.11122,5.19563 6.48449,10.2968 11.7134,12.215 5.26805,1.93256 11.4046,0.63438 16.95949,2.73019 5.64659,2.1304 10.69218,7.76773 15.306666,8.98635 3.975587,1.0499 7.631174,-1.18 12.971743,-2.304 7.392113,-1.55577 18.012352,-0.99274 25.186645,-1.65513 5.060949,-0.46726 8.407095,-1.54432 11.31344,-5.45678 4.081047,-5.49385 7.294933,-16.57843 5.475529,-24.15369 -1.572802,-6.54851 -6.906952,-10.47452 -13.033363,-13.14064 -6.747972,-2.93661 -14.457145,-4.34471 -21.497578,-6.48311 -6.843912,-2.07871 -13.055903,-4.84751 -19.872655,-7.43426 -6.845387,-2.59762 -14.300607,-5.01164 -20.265517,-6.86365 -3.6461,-1.13204 -6.73535,-2.0541 -7.97615,-0.53938 -1.54423,1.8851 -0.22544,7.54441 -1.11366,12.33186 -0.97443,5.25207 -4.60501,9.45488 -8.15434,12.47301 -2.92054,2.48344 -5.78609,4.16478 -7.26891,6.99767 -1.61386,3.0832 -1.58984,7.53045 0.1184,11.9513"
       style="fill:none;stroke:#ff0000;stroke-width:2"
       id="path37" />
    <path
       d="m 32.504683,1120.7271 c 3.237546,-4.5337 7.941554,-7.5271 12.594702,-8.3964 4.765129,-0.8904 9.476917,0.4468 15.785368,1.6793 7.333833,1.4327 16.82553,2.7239 20.319476,6.8851 2.120144,2.525 2.031824,6.1068 -0.33586,7.8926 -3.521907,2.6564 -12.087182,1.3391 -17.296731,2.519 -4.387328,0.9936 -6.394571,3.7584 -11.25126,5.2058 -6.444571,1.9206 -17.906391,1.5214 -21.662938,-2.6869 -2.924305,-3.276 -1.179302,-8.8603 1.847243,-13.0985 z"
       style="fill:none;stroke:#ff0000;stroke-width:2"
       id="path38" />
    <path
       d="m 447.44852,1046.3642 c 1.78589,1.6566 3.65096,5.228 5.20582,5.3738 1.55486,0.1458 2.79951,-3.1341 5.37374,-5.2058 3.80166,-3.0596 10.50311,-3.4841 14.94572,-6.5493 4.04729,-2.7924 6.21985,-7.7763 5.82301,-12.2271"
       style="fill:none;stroke:#ff0000;stroke-width:2"
       id="path39" />
    <path
       d="m -258.61297,1236.2125 c 4.38173,0.2134 8.75999,0.4258 13.01154,0 3.69153,-0.3698 7.28753,-1.2206 9.8095,0 2.2818,1.1042 3.68439,3.904 6.53969,4.66 3.51781,0.9312 9.24066,-1.2402 11.26276,-4.66 2.00126,-3.3846 0.37778,-7.9922 2.54323,-11.6646 2.71698,-4.6078 11.39878,-7.7436 13.39474,-13.1836"
       style="fill:none;stroke:#0000ff;stroke-width:2"
       id="path40" />
    <path
       style="fill:none;stroke:#0000ff;stroke-width:2"
       d="m -139.87052,874.99448 c -1.83998,-4.87267 3.60796,5.74148 5.41194,8.61222"
       id="path43"
       sodipodi:nodetypes="cc" />
    <a
       id="a76">
      <path
         style="fill:none;stroke:#0000ff;stroke-width:2"
         d="m -246.83448,1085.0048 c -2.41754,-4.5242 16.77204,8.0099 12.14593,6.0437 -5.45601,-2.319 6.83567,2.5068 0.90896,0.1975 -4.92123,-1.9174 -8.04883,-6.2815 -12.0029,-7.0605 -4.12817,-0.8134 -9.15717,2.2808 -14.82722,3.2478 -6.35442,1.0838 -13.51397,-0.504 -19.06352,-0.1412 -4.52457,0.2958 -7.97893,1.8881 -12.28542,3.1067 -4.52277,1.2798 -9.98536,2.1474 -13.27382,4.3775 -2.76617,1.876 -3.99397,4.716 -7.2018,6.7782 -4.85702,3.1224 -14.2534,4.4616 -22.02894,5.366 -6.60955,0.7687 -12.04794,1.2233 -16.38052,0.2824 -3.31695,-0.7203 -5.98579,-2.2584 -8.4727,-4.5187 -2.65998,-2.4177 -5.11183,-5.6617 -7.90781,-7.6255 -2.37843,-1.6704 -5.00589,-2.4145 -7.76662,-1.6945 -3.52217,1.1094 -7.85813,4.9049 -11.63307,6.3639 -4.02369,1.5551 -7.39926,1.828 -11.94923,1.2615 -4.04885,-0.5041 -8.44371,-1.7955 -9.03753,-4.3775 -0.62189,-2.7042 2.92542,-6.824 4.23634,-10.1672 1.15375,-2.9424 0.5753,-5.2833 1.83575,-8.3315 1.9953,-4.8254 8.59883,-11.423 12.85024,-17.0866 3.59845,-4.7937 5.51177,-8.9182 8.75507,-12.5678 3.38503,-3.8091 8.21882,-7.1008 13.05261,-10.3925"
         id="path42"
         sodipodi:nodetypes="cscccsscscscccsssssssc" />
    </a>
    <path
       d="m 478.6834,1026.8844 c -0.75348,-4.3717 -4.24804,-8.0289 -8.5644,-9.2361 -4.5193,-1.2639 -9.93951,0.1582 -13.43437,3.1906 -3.36879,2.9232 -4.94863,7.3427 -7.72475,10.2438 -2.56064,2.6759 -6.13905,4.06 -9.40406,5.5416 -2.81784,1.2787 -5.40224,2.63 -6.38132,5.0379 -0.81726,2.0099 -0.51598,4.7561 1.17551,5.5417 2.0595,0.9565 6.17993,-0.9933 8.22855,-1.6793 1.06482,-0.3566 1.5699,-0.3717 2.24291,-0.3425"
       style="fill:none;stroke:#ff0000;stroke-width:2"
       id="path44" />
    <path
       d="m 523.85644,1033.4337 c -1.41181,1.4792 -6.1214,0.078 -9.57199,-1.1755 -3.17128,-1.1519 -5.27912,-2.1788 -7.89268,-2.0152 -2.83986,0.1778 -6.27681,1.7609 -9.40406,2.0152 -2.33587,0.19 -4.49895,-0.3617 -5.03788,-1.8472"
       style="fill:none;stroke:#ff0000;stroke-width:2"
       id="path45" />
    <path
       d="m 441.71239,1055.9629 c -4.27521,-1.0313 -9.57176,3.1035 -14.26235,6.6369 -4.60342,3.4677 -8.62319,6.356 -11.72054,9.6023 -2.69929,2.8292 -4.69802,5.9304 -5.64845,10.0261 -1.08966,4.6956 -0.80139,10.6986 0.70606,15.1096 1.29788,3.7977 3.49953,6.4153 6.63693,9.0375 3.01161,2.517 6.88544,5.0382 9.60237,3.8127 3.47395,-1.567 5.05648,-9.2593 5.93087,-15.8157 0.87196,-6.538 1.03972,-11.9465 2.11818,-16.6629 0.86237,-3.7714 2.30708,-7.1004 5.0836,-9.4612 2.51654,-2.1397 6.12716,-3.484 6.77815,-5.6484 0.56289,-1.8716 -1.08703,-4.3562 -3.22701,-5.7536"
       style="fill:none;stroke:#ff0000;stroke-width:2"
       id="path46" />
    <path
       d="m -350.84373,1107.2029 c 2.22854,1.6016 4.45708,3.2032 6.51865,5.2528 2.35832,2.3446 4.49815,5.2754 7.08459,8.3563 2.97765,3.5468 6.54723,7.2926 9.99118,10.5361 2.57508,2.4252 5.07993,4.5695 5.26807,6.1764 0.1306,1.1156 -0.85548,1.9721 -1.45327,3.6331 -1.14596,3.1841 -0.865,9.3243 0.90833,14.351 1.71204,4.853 4.81512,8.668 7.26627,11.2627 1.60468,1.6987 2.92996,2.8743 3.26984,4.7231 0.35275,1.9188 -0.3558,4.5624 0.36333,6.1764 0.8647,1.9408 3.79362,2.3928 7.81127,4.3598 6.83291,3.3452 16.81491,11.0728 20.34563,15.9859 1.73407,2.413 1.91199,4.147 2.08991,5.881"
       style="fill:none;stroke:#0000ff;stroke-width:2"
       id="path47" />
    <path
       d="m -233.77959,1091.246 c 4.69239,2.9329 9.38478,5.8659 13.60341,8.9023 3.48148,2.5058 6.64029,5.082 6.98963,8.5872 0.44708,4.4856 -3.70701,10.4925 -7.78841,16.3756 -4.29857,6.1962 -8.51652,12.255 -9.78544,17.5739 -0.84234,3.5308 -0.38516,6.7356 3.39492,8.1878 6.51824,2.5041 22.91688,-0.2031 26.16113,3.1952 2.79573,2.9285 -4.17717,10.3909 -9.3861,17.1744 -5.46645,7.119 -8.99021,13.4904 -8.58719,19.7706 0.37954,5.9142 4.24141,11.7479 10.18486,16.1761 7.41363,5.5234 18.06601,8.8602 27.55897,11.1834 8.92853,2.1848 16.83142,3.473 26.16112,2.7958 10.68894,-0.776 23.2507,-4.1318 33.55012,-8.1878 8.59888,-3.3864 15.62081,-7.2608 22.167,-9.386 5.211569,-1.6922 10.121618,-2.2756 14.778046,-3.7944 4.744228,-1.5476 9.225176,-4.0661 14.578286,-6.1909 5.57395,-2.2124 12.093541,-3.9978 16.97473,-2.5962 4.971588,1.4278 8.243574,6.1616 14.178945,10.7841 8.482375,6.6058 22.404459,12.9838 34.7483011,10.784 14.1849051,-2.528 26.2856869,-16.3833 38.8306289,-28.2943 11.76062,-11.1662 23.911602,-20.6239 36.434904,-21.3423 10.620019,-0.6091 21.507798,5.0665 29.723549,6.2134 6.38203,0.891 11.15172,-0.9508 18.3043,0.8397 9.84355,2.464 24.20032,11.8078 29.89147,17.6326 3.01966,3.0906 3.59975,5.1904 4.03031,8.9002 0.62348,5.3721 0.93346,14.1199 -0.168,20.4875 -0.81363,4.7036 -2.39737,8.1084 -6.04546,9.404 -4.64192,1.6486 -12.62618,-0.118 -17.96847,2.183 -5.67959,2.4462 -8.37305,9.4892 -16.62501,11.923 -14.167141,4.1786 -44.717755,-5.2284 -59.614982,-9.0682 -5.89053,-1.5182 -9.333656,-2.1662 -9.404056,-0.6716 -0.1024,2.174 6.932612,8.8818 16.121248,11.755 12.656903,3.9578 29.399992,0.6398 37.448266,5.5416 4.957554,3.0194 6.616054,9.1577 4.720964,13.5657 -2.419839,5.6288 -10.633794,8.4364 -20.186491,11.8744 -12.266562,4.4148 -26.740607,9.8692 -37.998107,6.8872 -9.748617,-2.5822 -17.08517,-11.4906 -24.936244,-14.7242 -4.552508,-1.875 -9.2780364,-1.842 -9.7370172,0 -0.5946611,2.3862 5.9720502,7.8086 9.4995372,13.2994 2.849625,4.4354 3.715866,8.9156 2.137383,10.4494 -1.864343,1.8116 -7.139032,-0.4868 -14.7242657,-2.1374 -14.0880249,-3.066 -36.1463643,-3.898 -51.2974703,-1.6624 -10.421119,1.5376 -17.574531,4.5262 -24.223783,1.6624 -6.471132,-2.7872 -12.464742,-11.1176 -18.761533,-13.2994 -3.977587,-1.378 -8.076135,-0.3026 -9.024576,1.6624 -0.967702,2.0052 1.343922,4.9364 5.462249,7.8372 7.335733,5.1668 20.403797,10.2368 25.648726,16.1492 3.598186,4.056 3.514506,8.5086 4.892588,13.3995 1.581563,5.6128 5.088429,11.803 4.609069,18.2142 -0.524201,7.0108 -5.815071,14.286 -10.484439,19.8704 -3.516066,4.2052 -6.679752,7.4514 -10.584279,7.0894 -4.898808,-0.454 -10.963799,-6.5882 -17.27429,-10.1848 -6.429727,-3.6644 -13.114307,-4.6946 -20.469537,-3.7944 -6.68263,0.818 -13.91886,3.2296 -17.17445,0.5992 -3.29913,-2.6656 -2.51036,-10.509 -3.09543,-17.3742 -0.61334,-7.1968 -2.7365,-13.3186 -7.98813,-17.6737 -5.67579,-4.7068 -15.00581,-7.3498 -18.97175,-12.3816 -3.19627,-4.0552 -2.90849,-9.662 -4.59315,-13.9792 -1.66684,-4.2714 -5.26467,-7.2804 -10.9356,-9.3762 -7.45749,-2.7562 -18.50007,-3.9334 -24.8532,-1.6946 -4.74175,1.671 -6.87118,5.2448 -11.86173,7.2018 -8.13611,3.1904 -23.87678,2.0836 -36.85618,-1.4122 -10.64842,-2.8678 -19.43831,-7.3436 -19.91078,-14.8272 -0.4748,-7.5204 7.45032,-18.0785 11.15564,-22.4525 1.70495,-2.0128 2.51645,-2.7162 2.54181,-4.66 0.0532,-4.0732 -3.34531,-13.5928 -9.38688,-21.3314 -5.20693,-6.6694 -12.37714,-12.016 -13.38008,-10.9836 -0.9587,0.9868 3.71761,7.802 6.59015,14.3786 3.27109,7.489 4.20319,14.6686 2.39646,20.3696 -1.56282,4.9314 -5.17486,8.7564 -8.78691,12.5812"
       style="fill:none;stroke:#ff0000;stroke-width:2"
       id="path48" />
    <path
       style="fill:none;stroke:#ff0000;stroke-width:2"
       d="m 494.9726,1023.0227 -3.02281,7.3881"
       id="path49" />
    <path
       d="m -281.18023,1251.2269 c -1.86766,3.1526 -3.73535,6.3051 -4.87383,8.4587 -0.64606,1.222 -1.05732,2.1226 -2.14684,2.2966 -2.15321,0.3438 -6.95556,-2.1496 -11.93222,-2.8958 -5.78803,-0.8676 -11.81183,0.6282 -16.47553,2.097 -3.92511,1.236 -6.8868,2.4528 -11.39382,2.9292 -6.4959,0.687 -16.20193,-0.164 -24.30781,-2.5188 -7.53897,-2.1904 -13.6938,-5.6818 -18.17835,-10.7895 -4.13739,-4.7124 -6.85305,-10.8006 -9.15219,-15.4916 -1.75067,-3.5718 -3.25981,-6.3334 -5.45775,-8.8908 -2.24745,-2.615 -5.21509,-5.0164 -9.2361,-5.803 -5.04031,-0.986 -11.73574,0.565 -17.12883,0.5878 -4.34795,0.02 -7.84942,-0.9564 -10.83142,-2.603 -2.94555,-1.6264 -5.38427,-3.9082 -7.47291,-7.8926 -2.78759,-5.3176 -4.95159,-13.6677 -2.26703,-19.2279 2.39219,-4.9548 8.63434,-7.6944 9.90784,-11.7552 1.09358,-3.487 -1.47672,-7.9482 0.168,-11.3351 2.20974,-4.5507 12.0284,-7.1618 17.71657,-10.2438 3.24475,-1.758 5.14543,-3.6692 4.45009,-4.9539 -0.79154,-1.4624 -4.94713,-2.1129 -8.48042,-1.5953 -4.25402,0.6232 -7.60597,2.9398 -11.33524,5.2898 -4.4323,2.793 -9.39763,5.6332 -16.54108,6.2134 -8.39592,0.6819 -19.80072,-1.7581 -23.34217,-7.137 -2.80146,-4.2551 -0.68226,-10.3493 3.52657,-14.8618 4.94853,-5.3055 12.78574,-8.4245 18.55617,-10.0757 4.30689,-1.2325 7.46246,-1.6473 11.16732,-3.6945 4.47767,-2.4743 9.75772,-7.333 12.76261,-11.5032 2.0968,-2.91 3.08578,-5.4847 5.20582,-6.5492 2.27915,-1.1445 5.86549,-0.5436 9.65598,-0.5038 3.95915,0.042 8.141,-0.5291 10.24366,-2.519 1.75578,-1.6615 2.0618,-4.3127 2.36784,-6.9638"
       style="fill:none;stroke:#ff0000;stroke-width:2"
       id="path50" />
    <path
       d="m 494.97255,1023.022 c 1.90228,-2.3519 3.96078,-3.9001 6.38133,-4.534 2.53182,-0.6631 5.45974,-0.326 8.5644,0 3.17589,0.3334 6.53672,0.6551 8.73234,2.0151 1.86732,1.1566 2.89183,3.0641 3.86237,5.2058 0.97339,2.1479 1.8925,4.5314 1.84368,6.2541"
       style="fill:none;stroke:#ff0000;stroke-width:2"
       id="path51" />
    <path
       style="fill:none;stroke:#ff0000;stroke-width:2"
       d="m 539.47388,1037.4648 -8.06062,2.518"
       id="path52" />
    <path
       d="m 381.50897,1156.084 c 4.46291,4.045 7.59339,9.0989 9.6171,13.8984 1.59387,3.78 2.5012,7.4024 0.84728,10.4496 -1.84394,3.3972 -6.87145,6.0796 -11.2969,6.4958 -4.60588,0.433 -8.55959,-1.589 -13.27387,-4.8012 -4.32797,-2.9492 -9.29696,-6.9016 -10.55217,-5.4944 -1.12858,1.2652 0.74509,6.8632 3.32484,9.0246 2.16931,1.8174 4.83789,1.2046 6.1747,2.8498 1.54419,1.9006 1.31132,6.8142 -0.94996,9.0246 -2.83442,2.7707 -8.85576,1.2941 -14.2493,0.4749 -5.86639,-0.8909 -10.99006,-1.0037 -16.62416,-2.8499 -5.54606,-1.8174 -11.58672,-5.3142 -13.29935,-9.4994 -1.31855,-3.2222 -0.0717,-6.8524 1.89991,-9.4996 1.91336,-2.569 4.50924,-4.212 5.69971,-7.1246 1.38705,-3.3935 0.86623,-8.5105 -0.94995,-12.3494 -1.38665,-2.931 -3.52841,-5.1169 -2.55526,-6.7528 1.87491,-3.1517 15.31207,-4.2616 26.54774,-3.6715 11.66017,0.6124 20.94934,3.0557 27.67742,8.1902"
       style="fill:none;stroke:#ff0000;stroke-width:2"
       id="path53" />
    <path
       d="m -50.514044,1295.1222 c 5.44047,-2.7574 13.598824,0.17 21.813539,2.092 8.835256,2.0672 17.735751,2.972 25.3037647,1.52 6.205171,-1.1906 11.5145604,-3.9654 16.3896693,-4.6684 4.178527,-0.6026 8.038014,0.3172 12.277281,2.4504 5.69589,2.866 12.077422,7.9228 16.51919,15.4245 4.815088,8.1318 7.350673,19.1366 4.433627,26.1866 -2.391444,5.7798 -8.447635,8.9016 -14.383205,10.5722 -5.76993,1.624 -11.4259,1.8768 -16.117009,4.978 -4.923848,3.255 -8.784715,9.6482 -14.1688245,12.0244 -5.61473,2.4781 -12.8860025,0.5874 -20.2067555,0.336 -7.722754,-0.265 -15.500588,1.294 -22.38796,-2.1394 -6.519471,-3.2498 -12.241081,-10.973 -11.26198,-16.7106 0.922322,-5.405 7.790694,-9.0478 10.264358,-14.6426 2.494805,-5.6426 0.519481,-13.2706 -3.707126,-17.807 -3.670267,-3.9393 -9.038136,-5.5471 -10.204518,-9.1641 -1.081022,-3.3522 1.446882,-8.4302 5.435949,-10.452 z"
       style="fill:none;stroke:#ff0000;stroke-width:2"
       id="path54" />
    <path
       style="fill:none;stroke:#ff0000;stroke-width:2"
       d="m -152.39254,882.83049 2.79628,5.9831"
       id="path55"
       sodipodi:nodetypes="cc" />
    <path
       d="m 388.81241,1144.9047 c -2.12246,-2.321 -3.51593,-4.5608 -7.21759,-7.3395 -5.18475,-3.892 -14.89778,-8.8412 -14.9684,-13.5563 -0.0723,-4.8273 9.96188,-9.4094 18.07504,-11.0145 7.54263,-1.4923 13.42492,-0.4116 18.07505,2.8242 4.18017,2.9088 7.36466,7.5591 10.73207,10.1672 2.31968,1.7967 4.72617,2.6243 5.36603,4.5188 0.76926,2.2776 -1.01495,6.0973 -2.25939,9.8848 -1.31064,3.989 -2.02256,7.9424 -5.36603,9.8848 -3.92951,2.2828 -11.49393,1.7879 -15.53325,0.2824 -2.68062,-0.9991 -3.80875,-2.4434 -5.46057,-4.1227"
       style="fill:none;stroke:#ff0000;stroke-width:2"
       id="path56" />
    <path
       d="m 182.41575,1170.5472 c 9.23791,-2.5271 29.81247,-8.5882 44.05794,-7.9078 10.94862,0.5229 18.15865,5.0279 25.70044,6.2133 6.84221,1.0754 13.9575,-0.5816 21.74655,-0.8473 7.87516,-0.2686 16.43908,0.8852 22.02897,3.1066 3.83176,1.5228 6.26607,3.5474 8.19025,6.4958 1.95169,2.9904 3.37855,6.9314 4.23634,9.8848 0.62513,2.1524 0.94801,3.7802 0.84727,5.6484 -0.12216,2.2652 -0.86711,4.8837 -2.82422,7.9079 -2.96233,4.5776 -8.70176,10.0852 -14.68597,12.4266 -5.99002,2.3438 -12.2253,1.5152 -18.92233,3.6714 -8.26472,2.6612 -17.23267,9.8678 -25.41803,14.686 -7.45975,4.391 -14.26952,6.7982 -23.15868,7.6254 -10.63552,0.9896 -24.24772,-0.2824 -34.73798,-3.389 -6.99819,-2.0724 -12.60698,-4.9612 -12.4266,-9.32 0.20272,-4.8984 7.71685,-11.6532 7.62543,-18.075 -0.1014,-7.1284 -9.57395,-13.8465 -12.14418,-20.8993 -1.93806,-5.3182 0.0484,-10.8268 2.25938,-13.5562 1.73511,-2.142 3.60853,-2.5728 7.62542,-3.6716 z"
       style="fill:none;stroke:#ff0000;stroke-width:2"
       id="path57" />
    <path
       d="m -149.98472,887.99794 c 2.53165,5.73335 4.57537,11.3202 8.87082,14.38083 3.2655,2.32676 7.83241,3.19352 8.31369,5.12313 0.50372,2.01948 -3.46765,5.20313 -8.23669,6.82413 -7.491,2.5462 -16.95009,1.23694 -26.38627,-0.47752 -9.7174,-1.76556 -19.41049,-3.96083 -26.26027,-9.6787 -5.76021,-4.80837 -9.50969,-12.10784 -8.69765,-17.77819 0.7497,-5.23497 5.38735,-9.0814 12.57782,-11.24128 9.37058,-2.81475 23.0766,-2.76521 28.57415,-2.07076 2.14774,0.2713 3.04265,0.64102 4.02939,1.6981 1.4451,1.5481 3.08714,4.57045 4.80707,8.05277"
       style="fill:none;stroke:#ff0000;stroke-width:2"
       id="path58" />
    <text
       xml:space="preserve"
       style="font-size:21.3333px;fill:none;stroke:#0000ff"
       x="-358.18478"
       y="1072.6428"
       id="text66"><tspan
         sodipodi:role="line"
         id="tspan66"
         x="-358.18478"
         y="1072.6428">Greate Gates of</tspan><tspan
         sodipodi:role="line"
         x="-358.18478"
         y="1099.3094"
         id="tspan67">                       Azulon</tspan></text>
    <text
       xml:space="preserve"
       style="font-size:20px;fill:none;stroke:#0000ff"
       x="-299.94257"
       y="1130.4679"
       id="text68"><tspan
         sodipodi:role="line"
         id="tspan68"
         x="-299.94257"
         y="1130.4679"
         style="font-size:20px">Fire</tspan><tspan
         sodipodi:role="line"
         x="-299.94257"
         y="1155.4679"
         id="tspan69"
         style="font-size:20px">Nation</tspan><tspan
         sodipodi:role="line"
         x="-299.94257"
         y="1180.4679"
         id="tspan70"
         style="font-size:20px">Capital</tspan></text>
    <text
       xml:space="preserve"
       style="font-size:24px;fill:none;stroke:#0000ff"
       x="-396.93341"
       y="1175.0045"
       id="text71"><tspan
         sodipodi:role="line"
         id="tspan71"
         x="-396.93341"
         y="1175.0045"
         style="font-size:24px">Royal</tspan><tspan
         sodipodi:role="line"
         x="-396.93341"
         y="1205.0045"
         id="tspan72"
         style="font-size:24px">Palace</tspan></text>
    <text
       xml:space="preserve"
       style="font-size:33.3333px;fill:none;stroke:#0000ff"
       x="-176.22981"
       y="1256.655"
       id="text73"><tspan
         sodipodi:role="line"
         id="tspan73"
         x="-176.22981"
         y="1256.655"
         style="font-size:33.3333px">Black Cliffs</tspan></text>
    <text
       xml:space="preserve"
       style="font-size:16px;fill:none;stroke:#0000ff"
       x="192.9292"
       y="1187.3759"
       id="text74"><tspan
         sodipodi:role="line"
         id="tspan74"
         x="192.9292"
         y="1187.3759"
         style="font-size:16px">Fire Fountain</tspan><tspan
         sodipodi:role="line"
         x="192.9292"
         y="1207.3759"
         id="tspan75"
         style="font-size:16px">City</tspan></text>
    <path
       style="fill:none;stroke:#ff0000;stroke-width:0.956442"
       d="m -204.21837,1105.9468 -3.84873,-5.0201 -4.6854,-2.008 -9.37079,-3.012 -8.70146,-3.5141"
       id="path75" />
  </g>
</svg>
