<?xml version="1.0" encoding="UTF-8" standalone="no"?>
<svg
   viewBox="0 0 367.38192 367.35472"
   width="367.38193"
   height="367.35471"
   version="1.1"
   id="svg50"
   sodipodi:docname="frame - BR C.dxf"
   xmlns:inkscape="http://www.inkscape.org/namespaces/inkscape"
   xmlns:sodipodi="http://sodipodi.sourceforge.net/DTD/sodipodi-0.dtd"
   xmlns="http://www.w3.org/2000/svg"
   xmlns:svg="http://www.w3.org/2000/svg">
  <sodipodi:namedview
     id="namedview50"
     pagecolor="#505050"
     bordercolor="#eeeeee"
     borderopacity="1"
     inkscape:showpageshadow="0"
     inkscape:pageopacity="0"
     inkscape:pagecheckerboard="0"
     inkscape:deskcolor="#505050" />
  <desc
     id="desc1">frame - BR C.dxf - scale = 1.000000, origin = (0.000000, 0.000000), method = manual</desc>
  <defs
     id="defs4" />
  <g
     inkscape:groupmode="layer"
     inkscape:label="MODELSKETCH_VISIBLE"
     id="g42"
     transform="translate(-1619.7386,-1880.0402)">
    <path
       d="m 1926.4409,2055.1225 c -3.4144,0.9651 -6.8287,1.9302 -10.1823,3.5962 -3.5181,1.7477 -6.9694,4.2667 -10.7813,4.9988 -3.9364,0.7561 -8.2574,-0.3934 -12.5783,-1.5429"
       style="fill:none;stroke:#0000ff"
       id="path34" />
    <path
       d="m 1892.899,2062.1746 c 0.9261,1.3995 1.8523,2.7989 2.3958,4.1855 0.5517,1.4076 0.7089,2.8019 0.5988,4.9344 -0.1943,3.763 -1.2208,9.8246 -1.4973,15.4039 -0.2584,5.2151 0.1385,10.0087 2.3957,13.3075 1.5826,2.3129 4.0797,3.8909 5.6902,3.4355 1.2694,-0.359 1.9879,-1.9812 2.8451,-2.9928 0.5978,-0.7057 1.2631,-1.1143 1.7968,-0.8986 0.649,0.2622 1.1034,1.4472 2.2463,1.9425 2.2759,0.9861 7.2818,-0.7632 11.6797,-1.5036 4.8424,-0.8153 8.9476,-0.4076 14.2252,-1.2065 5.2043,-0.7878 11.5486,-2.749 12.728,-5.542 0.7937,-1.8797 -0.752,-4.1362 -0.2995,-6.2805 0.6907,-3.2725 6.0353,-6.2836 9.5835,-11.0729 3.8687,-5.2219 5.6019,-12.5578 2.6954,-17.1992 -2.8639,-4.5734 -10.2323,-6.5308 -15.5731,-6.5689 -4.1476,-0.03 -7.0724,1.0986 -10.0326,1.8016 -2.6268,0.6238 -5.2815,0.9129 -7.9361,1.202"
       style="fill:none;stroke:#0000ff"
       id="path35" />
    <path
       d="m 1909.2666,2070.092 c -1.3788,3.8811 1.3133,12.5925 5.5403,15.9971 3.5213,2.8362 8.1078,1.9895 11.634,1.6373 2.7534,-0.2751 4.8602,-0.2486 6.9338,-1.7999 2.8576,-2.1379 5.6521,-7.272 6.7382,-11.8186 0.8938,-3.7415 0.6308,-7.085 -2.0962,-8.9711 -3.6532,-2.5266 -11.728,-2.4379 -16.4715,-1.4193 -3.1987,0.6869 -4.8827,1.7966 -7.0378,2.6426 -1.9938,0.7825 -4.3909,1.3394 -5.2408,3.7319 z"
       style="fill:none;stroke:#0000ff"
       id="path36" />
    <path
       d="m 1669.426,2001.2282 c 2.0675,-5.4293 5.9419,-10.0359 9.7412,-13.1189 3.0885,-2.5062 6.1274,-4.0056 9.7412,-4.6595 3.2522,-0.5885 6.9701,-0.4922 8.6823,1.0513 1.4198,1.28 1.4603,3.5553 1.0588,5.9208 -0.4724,2.7835 -1.5566,5.692 -3.8118,7.4046 -1.9131,1.4528 -4.6688,2.0449 -5.0823,3.1759 -0.3298,0.902 0.8303,2.1468 1.2706,3.5943 0.4664,1.5332 0.1252,3.2939 0.6353,4.2293 0.3945,0.7233 1.298,0.953 2.3294,1.0557 1.2237,0.1219 2.6273,0.065 3.6,0 0.7078,-0.049 1.1874,-0.104 1.9059,0 0.9366,0.1338 2.279,0.5352 3.1765,0.6322 0.6884,0.074 1.1151,-0.03 1.9058,0 1.4708,0.054 4.2013,0.5693 6.5647,0.6298 2.4381,0.062 4.4856,-0.3595 6.9883,-0.6394 3.079,-0.3443 6.847,-0.4735 10.5883,0.8385 4.1942,1.4708 8.3548,4.7531 12.0705,5.7015 2.5041,0.6392 4.8062,0.2184 5.9294,1.2647 1.0993,1.024 1.0694,3.4531 1.0588,5.7094 -0.01,1.7489 0,3.394 -0.847,3.3843 -1.4616,-0.017 -5.4703,-5.0188 -8.047,-6.7618 -1.6798,-1.1363 -2.751,-0.8875 -4.4471,-0.4198 -3.3244,0.9168 -9.0494,2.6748 -16.7295,3.8185 -10.0968,1.5036 -23.5729,1.9454 -29.647,-0.825 -3.333,-1.5201 -4.4373,-4.0074 -7.2,-5.282 -3.1554,-1.4558 -8.4741,-1.3295 -11.0118,-3.7989 -2.6712,-2.5994 -2.261,-8.0748 -0.4235,-12.9003 z"
       style="fill:none;stroke:#0000ff"
       id="path37" />
    <path
       d="m 1986.6205,2063.7175 a 183.19097,183.19097 0 0 0 -366.3819,0 183.19097,183.19097 0 0 0 366.3819,0 z"
       style="fill:none;stroke:#ff0000"
       id="path38" />
    <path
       d="m 1664.3436,2030.8396 c 2.9688,0.4204 7.0246,2.6945 11.2235,4.0103 4.5974,1.4406 9.3662,1.7324 14.1883,1.6818 5.3194,-0.056 10.7036,-0.5283 17.3647,-0.8582 8.1221,-0.4022 18.1428,-0.5924 25.8353,0.8277 5.873,1.0842 10.3889,3.1069 14.4,4.431 2.8624,0.9449 5.4678,1.5339 6.9883,3.1674 1.0488,1.1266 1.5814,2.7503 0.6353,3.5947 -1.9625,1.7516 -10.2872,0.151 -15.6707,-1.0463 -4.3159,-0.96 -6.7413,-1.6607 -9.9528,-1.6849 -3.5894,-0.027 -8.1608,0.7909 -12.4942,1.7007 -4.5794,0.9615 -8.8931,2.0256 -13.7647,2.9705 -5.772,1.1196 -12.3273,2.0719 -19.6941,1.7058 -7.2321,-0.3594 -15.2463,-1.9893 -18.4236,-4.8511 -1.901,-1.7123 -2.0705,-3.8657 -3.3882,-5.9192 -1.3334,-2.0779 -3.8423,-4.0536 -4.0235,-5.7072 -0.1309,-1.1941 0.952,-2.2203 2.1177,-2.9623 1.3352,-0.8499 2.7791,-1.3269 4.6587,-1.0607 z"
       style="fill:none;stroke:#0000ff"
       id="path39" />
    <path
       d="m 1652.0488,2060.5202 c 2.8736,1.6193 5.9976,4.4602 10.0733,6.2804 5.4636,2.4399 12.6373,3.0454 21.1539,2.7515 11.3579,-0.3919 25.1041,-2.3835 37.7748,-3.5476 11.0351,-1.0139 21.2545,-1.4002 28.7089,1.9916 5.9817,2.7217 10.183,7.8762 12.3398,13.8237 2.0263,5.5877 2.248,11.8756 -0.5037,16.3478 -2.9548,4.8024 -9.3381,7.5114 -13.8169,12.8362 -4.5698,5.4331 -7.157,13.5895 -10.8626,16.355 -1.9894,1.4847 -4.3012,1.4157 -4.7848,3.0214 -0.9795,3.2519 5.5391,13.3726 11.5842,20.1117 5.9862,6.6734 11.508,10.0307 18.6356,13.0647 7.2779,3.098 16.23,5.8589 22.6649,7.026 3.457,0.6269 6.1875,0.7939 6.5476,2.0073 0.3582,1.2068 -1.628,3.4486 -4.5329,5.0332 -5.1454,2.8066 -13.1732,3.5512 -21.1539,2.0269 -9.3529,-1.7864 -18.6411,-6.6889 -26.6943,-11.8015 -7.4131,-4.7063 -13.7796,-9.5907 -17.1245,-17.8443 -3.5218,-8.6901 -3.6938,-21.1153 -0.5037,-27.413 2.392,-4.7221 6.6742,-5.9992 12.088,-9.5654 7.6153,-5.0166 17.4697,-14.5627 20.1465,-22.9007 1.761,-5.4855 0.4154,-10.4482 -4.0292,-12.5721 -6.9455,-3.3188 -21.4585,0.2947 -32.2346,0.5258 -8.519,0.1828 -14.7026,-1.7483 -20.1466,-0.2372 -4.8333,1.3416 -9.0837,5.3965 -14.1026,7.3034 -5.3278,2.0242 -11.5217,1.6278 -17.8801,0.7671 -6.3989,-0.8662 -12.9643,-2.2027 -16.369,-7.7849 -3.3853,-5.5502 -3.6458,-15.2977 -1.511,-17.8553 1.0745,-1.2873 2.7558,-0.7531 4.5329,0.2483 z"
       style="fill:none;stroke:#0000ff"
       id="path40" />
    <path
       d="m 1798.279,2069.8049 c 0.7997,-3.1025 6.2605,-4.294 12.4651,-6.0874 9.4436,-2.7296 20.6105,-6.8536 30.9846,-8.5259 6.6865,-1.0778 13.0437,-1.1371 13.1772,-2.1433 0.073,-0.5525 -1.7298,-1.3905 -2.8491,-2.8434 -1.4127,-1.8337 -1.7361,-4.647 -0.3562,-6.4018 1.6992,-2.1608 5.9811,-2.7168 9.6159,-1.4295 4.1443,1.4677 7.4474,5.3317 10.6844,6.7502 2.7747,1.216 5.5009,0.635 9.2598,0.7048 3.68,0.068 8.3498,0.7605 8.5475,2.4837 0.2551,2.2236 -6.936,6.164 -12.109,8.5447 -4.2913,1.9749 -7.1938,2.8765 -8.5474,5.564 -1.4216,2.8223 -1.1348,7.6144 1.4246,11.1576 3.1446,4.3532 9.7196,6.8212 14.2458,9.2375 2.3098,1.2331 4.086,2.4527 3.3851,2.8449 -1.4563,0.8147 -13.6048,-1.9421 -19.0556,1.0785 -6.3684,3.5293 -3.5941,14.9452 -2.1368,25.9656 1.5982,12.0856 1.6124,23.6957 -1.4246,31.3002 -1.6334,4.0899 -4.1494,7.0212 -6.4106,6.4067 -2.9716,-0.8077 -5.503,-7.7392 -5.6983,-14.5786 -0.2409,-8.4339 3.0705,-16.7278 3.9176,-23.4771 0.6869,-5.4735 -0.2469,-9.9311 -0.3562,-15.6494 -0.093,-4.8947 0.4171,-10.7131 -1.4245,-11.3806 -2.731,-0.9897 -10.6347,9.3481 -18.8757,16.73 -6.9933,6.2643 -14.2294,10.4001 -16.0265,8.5475 -1.6568,-1.708 1.3093,-8.5058 6.7668,-13.876 6.6192,-6.5134 16.9033,-10.9269 17.0949,-14.9503 0.094,-1.9651 -2.2203,-3.837 -2.1369,-4.978 0.1026,-1.4036 3.8332,-1.7009 6.7668,-4.6285 4.2456,-4.2371 6.8215,-13.9835 3.9175,-16.7194 -3.8611,-3.6375 -17.4099,5.1186 -28.1354,11.4014 -9.254,5.4209 -16.4062,9.0005 -21.5602,6.7739 -3.3179,-1.4333 -5.8077,-5.2727 -5.1506,-7.822 z"
       style="fill:none;stroke:#0000ff"
       id="path41" />
    <path
       d="m 1848.456,2031.9996 c -0.7959,-0.1317 7.2025,-5.2211 10.3282,-10.6775 2.6792,-4.6769 1.7785,-9.6235 3.5614,-10.317 1.9414,-0.755 7.0645,3.5326 11.0405,6.75 3.2194,2.6053 5.6867,4.509 4.63,7.1102 -1.2901,3.1757 -7.8325,7.3911 -10.6845,6.7653 -1.9374,-0.4251 -2.1718,-3.0846 -4.6298,-3.5534 -3.9111,-0.7461 -13.4521,4.0538 -14.2458,3.9224 z"
       style="fill:none;stroke:#0000ff"
       id="path42" />
    <path
       style="fill:#000000;stroke:#000000;stroke-width:0.596527"
       d="m 278.87,220.5297 c -2.97346,-2.97347 -3.50794,-5.81038 -2.94336,-15.6228 0.64561,-11.22063 0.66817,-18.20311 0.0642,-19.87127 -0.48168,-1.33038 -0.41865,-1.36298 1.78958,-0.92567 5.76661,1.14199 8.75623,0.59366 15.85327,-2.9077 7.67138,-3.7847 10.96088,-4.92292 16.85843,-5.83325 2.29663,-0.3545 5.78631,-1.06357 7.75485,-1.57571 7.97449,-2.07468 17.7651,0.33043 21.06866,5.1756 1.24203,1.82162 1.38397,2.59025 1.15464,6.25262 -0.34599,5.5253 -1.876,8.38864 -7.65007,14.31664 -2.55656,2.62472 -4.90265,5.44331 -5.21354,6.26353 -0.31088,0.82023 -0.43298,2.86394 -0.27132,4.54159 0.26058,2.70432 0.13398,3.16298 -1.11633,4.04415 -2.68792,1.89434 -9.09287,3.41702 -16.91994,4.02246 -4.26517,0.32992 -9.44924,0.9835 -11.52016,1.45241 -4.87145,1.10302 -8.12212,1.08787 -9.06001,-0.0422 -1.16511,-1.40387 -2.8282,-1.05537 -4.27001,0.89479 -1.70622,2.30779 -3.1333,2.26042 -5.57889,-0.18516 z m 33.21199,-12.8625 c 3.98303,-1.51434 8.726,-9.39853 9.27124,-15.41146 0.65182,-7.18844 -2.76596,-9.79639 -12.83836,-9.79639 -5.94745,0 -8.55638,0.59289 -14.7255,3.34647 -4.93465,2.20257 -5.85027,3.95532 -4.9766,9.52665 0.9093,5.7985 4.36483,11.16606 8.2575,12.82654 1.69377,0.7225 12.77249,0.35955 15.01172,-0.49181 z"
       id="path50"
       transform="translate(1619.7386,1880.0402)" />
    <path
       style="fill:#000000;stroke:#000000;stroke-width:0.596527"
       d="m 238.04676,272.22041 c -3.83676,-4.87765 -4.28281,-14.76435 -1.25979,-27.92322 l 1.91409,-8.33184 -0.4302,-12.78246 c -0.37359,-11.1004 -0.56996,-12.92221 -1.49225,-13.8445 -0.69665,-0.69665 -1.53549,-0.93824 -2.43813,-0.7022 -0.75685,0.19793 -5.80997,4.69202 -11.22915,9.98687 -10.0862,9.85481 -13.49471,12.59698 -18.30023,14.7227 -3.3328,1.47425 -4.05458,0.8198 -2.85273,-2.58659 1.77571,-5.03292 6.18147,-9.88301 14.28254,-15.72299 9.20774,-6.63776 10.35188,-8.34856 8.27253,-12.36959 -0.5355,-1.03555 -0.73057,-1.96383 -0.43349,-2.06286 2.18253,-0.72751 6.71224,-4.50237 8.07885,-6.73257 2.43576,-3.97497 3.77147,-9.76246 2.91379,-12.62516 -1.77801,-5.93444 -7.5029,-4.50458 -26.48465,6.61489 -16.17048,9.47263 -21.25637,11.12948 -25.45426,8.29234 -2.64226,-1.78576 -4.36007,-4.99861 -3.51593,-6.5759 0.33068,-0.61788 1.72681,-1.63843 3.10251,-2.26788 2.49487,-1.14153 24.81253,-8.01538 31.87486,-9.81747 2.73635,-0.69824 19.18103,-3.3062 20.84745,-3.3062 0.102,0 0.18546,-0.48665 0.18546,-1.08145 0,-0.59479 -0.80532,-1.85298 -1.78958,-2.79597 -3.1889,-3.05516 -2.12612,-6.80899 2.18705,-7.72489 2.85103,-0.60542 6.24256,0.57991 10.38528,3.6296 5.21051,3.83577 6.84673,4.39303 12.91002,4.39688 5.29801,0.003 9.71272,0.80827 9.71272,1.77086 0,1.17228 -4.87193,4.40607 -11.78411,7.82182 -7.60912,3.76015 -8.46646,4.55993 -9.36596,8.73725 -0.25389,1.17907 -0.0601,3.14996 0.49844,5.07048 1.25243,4.30608 4.56491,7.38891 12.30026,11.4475 l 6.26352,3.28636 -7.49355,-0.0493 c -6.52459,-0.0429 -7.81499,0.11469 -9.97952,1.21896 -4.86642,2.48266 -5.75655,7.62383 -3.72912,21.53845 2.54253,17.44977 2.14536,30.10668 -1.16568,37.14708 -1.22083,2.59592 -3.63314,5.20631 -4.81124,5.20631 -0.26003,0 -1.03394,-0.71339 -1.7198,-1.58532 z"
       id="path51"
       transform="translate(1619.7386,1880.0402)" />
    <path
       style="fill:#000000;stroke:#000000;stroke-width:0.596527"
       d="m 246.06724,149.13166 c -1.99944,-2.08696 -5.03465,-2.38069 -9.24616,-0.89479 -3.72913,1.31572 -3.79716,1.16489 -0.84477,-1.87289 3.31436,-3.41023 4.38774,-5.38564 5.62692,-10.35562 0.61342,-2.46026 1.30114,-3.94154 1.88186,-4.05338 0.99572,-0.19175 9.1534,5.63121 12.27571,8.76242 1.06629,1.06933 1.93871,2.42923 1.93871,3.022 0,1.93788 -6.87356,7.18184 -9.41366,7.18184 -0.27724,0 -1.27562,-0.80531 -2.21861,-1.78958 z"
       id="path52"
       transform="translate(1619.7386,1880.0402)" />
    <path
       style="fill:#000000;stroke:#000000;stroke-width:0.596527"
       d="m 145.25424,298.57399 c -9.8527,-2.16791 -26.08673,-10.72077 -34.39084,-18.11872 -7.75806,-6.91149 -11.969119,-19.81399 -10.12419,-31.02012 1.17217,-7.11977 2.24567,-8.50305 11.0365,-14.2213 18.02812,-11.7269 27.26709,-26.06968 22.38656,-34.75341 -3.02659,-5.38508 -7.34008,-5.8918 -30.87867,-3.62745 -4.868306,0.46832 -8.875002,0.471 -14.233881,0.01 -9.173409,-0.78996 -12.228963,-0.25796 -17.793229,3.09801 -6.912981,4.16941 -10.060144,5.35522 -15.066423,5.67681 -5.632552,0.36183 -15.696293,-1.08894 -19.800064,-2.85434 -5.92943,-2.55077 -8.949777,-8.01711 -8.949777,-16.19764 0,-4.28027 0.676142,-6.4143 2.032294,-6.4143 0.438495,0 2.83412,1.32967 5.323611,2.95483 8.841556,5.77183 11.311889,6.54015 22.470427,6.98878 8.069458,0.32443 11.886996,0.051 39.370759,-2.81957 14.963113,-1.56286 25.284583,-1.39099 30.586773,0.50933 9.43704,3.38224 15.64404,12.18763 15.64404,22.19296 0,6.08202 -1.55264,8.65707 -8.61623,14.29001 -6.02086,4.80138 -7.69046,6.73673 -11.34459,13.15022 -4.28052,7.51291 -5.48094,9.00214 -8.35196,10.36136 -3.49742,1.65578 -3.72953,3.24354 -1.24904,8.54422 5.03167,10.75245 15.07647,21.12714 25.52538,26.3637 4.93538,2.47342 20.27407,7.5584 25.5114,8.45738 2.29663,0.39422 4.81875,0.95752 5.60471,1.25178 l 1.42902,0.53504 -1.42902,1.52974 c -4.17355,4.46772 -14.93536,6.26029 -24.69356,4.11316 z"
       id="path53"
       transform="translate(1619.7386,1880.0402)" />
    <path
       style="fill:#000000;stroke:#000000;stroke-width:0.596527"
       d="m 122.67521,142.69881 c -2.24769,-2.03946 -4.61418,-3.7081 -5.25887,-3.7081 -0.64469,0 -3.7781,0.67295 -6.96313,1.49545 -9.03663,2.3336 -15.235326,3.28482 -23.956846,3.67626 -12.816304,0.57523 -15.749481,-0.17188 -23.773612,-6.05532 -1.100214,-0.8067 -3.600385,-1.78151 -5.555934,-2.16624 -6.855457,-1.34873 -9.080481,-4.31373 -7.804002,-10.39938 1.639413,-7.81595 8.480841,-16.5852 15.416251,-19.76034 4.031872,-1.84585 10.633401,-2.30915 12.375747,-0.86854 2.492541,2.06089 0.283142,10.55172 -3.244513,12.46883 -1.041507,0.56601 -2.59079,1.60609 -3.442848,2.31129 l -1.549198,1.28218 1.037159,2.89351 c 0.570437,1.59142 1.03583,3.48804 1.034207,4.2147 -0.0016,0.72666 0.466815,1.56363 1.040972,1.85994 1.606035,0.82884 13.623885,1.58476 25.247642,1.58808 l 10.483605,0.003 6.21914,3.09893 c 3.42053,1.70441 7.48557,3.27711 9.03342,3.49488 1.54786,0.21777 3.10615,0.74762 3.46288,1.17746 0.35673,0.42983 0.56671,2.20351 0.46662,3.94151 l -0.18199,3.16 z"
       id="path55"
       transform="translate(1619.7386,1880.0402)" />
    <path
       style="fill:#000000;stroke:#000000;stroke-width:0.596527"
       d="m 56.387988,169.64118 c -2.615796,-0.47211 -6.156899,-1.49973 -7.869118,-2.28361 -2.632965,-1.20541 -3.361321,-1.91583 -4.722301,-4.60597 -0.885047,-1.74939 -2.377137,-4.1143 -3.315756,-5.25535 -2.10528,-2.55931 -2.122878,-3.17832 -0.134817,-4.74213 2.13882,-1.6824 3.470966,-1.5706 9.897372,0.83065 10.138765,3.78839 12.43389,3.96911 38.937366,3.06606 19.040496,-0.64877 22.815786,-0.23084 34.839526,3.8568 8.76708,2.98048 11.26463,4.43495 10.59811,6.17189 -0.55531,1.44709 -4.7211,1.19352 -14.93205,-0.90893 -10.74004,-2.21139 -12.26876,-2.14243 -28.219216,1.27291 -17.498311,3.74678 -25.449858,4.3356 -35.079116,2.59768 z"
       id="path56"
       transform="translate(1619.7386,1880.0402)" />
  </g>
</svg>
