<?xml version="1.0" encoding="UTF-8" standalone="no"?>
<svg
   viewBox="0 0 656.87431 260.10816"
   width="656.87433"
   height="260.10815"
   version="1.1"
   id="svg57"
   sodipodi:docname="Southern water tribe.svg"
   inkscape:export-filename="Southern water tribe.png"
   inkscape:export-xdpi="96"
   inkscape:export-ydpi="96"
   inkscape:version="1.3.2 (091e20e, 2023-11-25, custom)"
   xmlns:inkscape="http://www.inkscape.org/namespaces/inkscape"
   xmlns:sodipodi="http://sodipodi.sourceforge.net/DTD/sodipodi-0.dtd"
   xmlns="http://www.w3.org/2000/svg"
   xmlns:svg="http://www.w3.org/2000/svg">
  <sodipodi:namedview
     id="namedview57"
     pagecolor="#ffffff"
     bordercolor="#000000"
     borderopacity="0.25"
     inkscape:showpageshadow="2"
     inkscape:pageopacity="0.0"
     inkscape:pagecheckerboard="0"
     inkscape:deskcolor="#d1d1d1"
     inkscape:zoom="0.6679527"
     inkscape:cx="388.50056"
     inkscape:cy="78.59838"
     inkscape:window-width="1920"
     inkscape:window-height="991"
     inkscape:window-x="-9"
     inkscape:window-y="-9"
     inkscape:window-maximized="1"
     inkscape:current-layer="g57"
     showgrid="false" />
  <desc
     id="desc1">Southern water tribe.dxf - scale = 1.000000, origin = (0.000000, 0.000000), method = file</desc>
  <defs
     id="defs4">
    <rect
       x="115.94547"
       y="28.858675"
       width="170.47604"
       height="152.61226"
       id="rect57" />
  </defs>
  <g
     inkscape:groupmode="layer"
     inkscape:label="MODELSKETCH_VISIBLE"
     id="g49"
     transform="translate(37.596636,-1287.3651)">
    <path
       d="m 169.04105,1390.0186 c 2.44487,1.8908 4.88974,3.7814 7.33281,6.0132 2.40237,2.1946 4.80298,4.7192 5.08642,7.6297 0.31861,3.2716 -2.03826,7.0308 -2.72487,11.2628 -0.69583,4.2888 0.32377,9.0632 2.5432,11.626 1.47665,1.7052 3.48441,2.4314 3.63316,3.8148 0.1733,1.6116 -2.17636,4.1152 -3.26984,6.358 -1.04133,2.1359 -0.94345,4.0353 -1.27161,6.3581 -0.40408,2.8602 -1.45416,6.3624 -2.72486,9.4462 -1.12539,2.7312 -2.42383,5.1342 -1.99823,7.448 0.41944,2.2802 2.51342,4.4736 2.90652,6.903 0.43097,2.6632 -1.18236,5.6102 -2.79568,8.5573"
       style="fill:none;stroke:#0000ff;stroke-width:2.00001"
       id="path34" />
    <path
       d="m 520.59584,1319.818 c -0.1016,1.0004 -2.11793,1.4232 -3.11825,2.8872 -1.62521,2.3784 -0.56836,7.5052 -0.57744,11.2025 -0.008,3.099 -0.76423,5.1936 -1.50131,7.7376 -0.62464,2.1558 -1.23526,4.6344 0.1154,5.659 2.10849,1.5994 8.99611,-0.3434 13.74314,-1.1548 3.58233,-0.6124 5.94562,-0.5802 7.85326,-0.116 1.40269,0.3418 2.55901,0.9174 3.9266,1.6168 1.64868,0.8434 3.60441,1.8668 5.19699,3.3286 1.5016,1.3782 2.68037,3.1462 3.92665,3.8318 0.94466,0.5196 1.92813,0.4176 2.77171,1.5014"
       style="fill:none;stroke:#ff0000;stroke-width:2.00001"
       id="path35" />
    <path
       d="m 523.18928,1315.2572 c 0.62497,-1.6224 4.77754,-3.076 6.53014,-5.2558 1.28657,-1.6002 1.27981,-3.5916 0.34648,-4.504 -1.11764,-1.0926 -3.56391,-0.6376 -6.35189,-1.2704 -4.3633,-0.9906 -9.56359,-4.6458 -14.43608,-6.5828 -4.36896,-1.7369 -8.47437,-2.0923 -12.7038,-1.1551 -4.11695,0.9125 -8.35142,3.0499 -10.74045,5.5437 -1.71371,1.7888 -2.47781,3.761 -1.61685,6.0054 1.25967,3.2834 5.99806,7.1492 9.58559,9.239 2.88839,1.6824 5.03078,2.2136 8.31519,2.3098 3.94461,0.116 9.5365,-0.397 12.35731,-1.5014 1.49716,-0.5862 2.21369,-1.3392 3.34915,-1.0394"
       style="fill:none;stroke:#ff0000;stroke-width:2.00001"
       id="path36" />
    <path
       d="m 560.20843,1355.2729 c 1.38272,-3.7462 5.17249,-5.9484 8.66172,-7.9686 3.34249,-1.9352 6.40918,-3.7032 9.81655,-4.504 2.94037,-0.691 6.13442,-0.6616 7.73774,-2.1944 1.43429,-1.371 1.59557,-3.9922 1.03937,-6.3518 -0.6554,-2.7807 -2.30713,-5.1981 -4.85052,-7.5069 -3.24451,-2.9452 -7.94004,-5.714 -12.24183,-7.8532 -3.84521,-1.9122 -7.3758,-3.3216 -10.39399,-5.197 -2.66233,-1.6542 -4.92595,-3.6712 -7.9687,-4.273 -3.53923,-0.7 -8.13263,0.5148 -12.12632,1.6168 -3.59421,0.9918 -6.70272,1.8922 -9.2391,3.5802 -1.99051,1.3246 -3.62865,3.1344 -5.31252,3.0026"
       style="fill:none;stroke:#ff0000;stroke-width:2.00001"
       id="path37" />
    <path
       d="m 234.31398,1458.7966 c 1.73249,-3.0912 3.465,-6.1824 6.36672,-9.1756 3.46013,-3.5694 8.58281,-6.9996 12.8977,-9.2646 3.42339,-1.797 6.33832,-2.8607 9.44621,-3.2699 2.85158,-0.3756 5.86561,-0.2002 8.1746,-1.9982 2.33621,-1.8194 3.95065,-5.6588 5.81306,-6.358 1.55678,-0.5846 3.28685,1.0252 5.99469,0.5448 6.56246,-1.1638 18.86782,-14.603 32.69842,-13.4426 16.18894,1.3582 34.46763,22.7195 42.68956,22.8889 3.88925,0.08 5.52817,-4.5817 8.35626,-6.9031 2.80497,-2.3024 6.77972,-2.3026 9.80951,-4.178 3.34871,-2.0728 5.54303,-6.4364 8.35626,-9.9912 3.05185,-3.8564 6.83206,-6.7612 13.07936,-7.9928 6.53744,-1.289 15.77642,-0.7458 16.63277,-2.2556"
       style="fill:none;stroke:#0000ff;stroke-width:2.00001"
       id="path38" />
    <path
       d="m 165.04553,1391.3834 c -7.65575,-1.048 -15.31151,-2.096 -21.42506,-4.1202 -5.31495,-1.7598 -9.46429,-4.2576 -14.28338,-8.2404 -5.48607,-4.5342 -11.84011,-10.993 -17.03017,-12.9101 -3.32855,-1.2294 -6.17835,-0.5906 -8.78977,0 -2.42145,0.5478 -4.637947,1.054 -7.14169,2.4723 -2.934766,1.6622 -6.264196,4.5774 -6.317652,8.2404 -0.0528,3.618 3.090315,7.9656 2.197446,9.8884 -0.570071,1.2276 -2.785398,1.4668 -4.120203,0.2746 -2.307105,-2.0604 -1.983714,-8.3964 -2.472121,-12.0858 -0.312259,-2.3588 -0.956345,-3.6358 -2.472122,-4.3948 -1.672896,-0.838 -4.407564,-1.045 -6.042963,-1.0988 -1.275481,-0.042 -1.882303,0 -3.570844,-1.0988 -5.036634,-3.3057 -19.697646,-16.9295 -26.918674,-19.5023 -3.870873,-1.379 -5.603824,0.4174 -9.06148,3.0216 -6.742657,5.0784 -20.043945,13.2284 -31.3165187,18.4035 -8.9309194,4.1 -16.5884353,6.3326 -19.5023033,11.8112 -2.544283,4.784 -1.471942,12.0428 -1.648071,17.3048 -0.1403,4.1921 -1.072929,7.1169 -3.570842,10.4381 -3.230615,4.2952 -9.079484,9.2532 -13.184665,12.9098 -2.743318,2.4436 -4.707962,4.3058 -4.94424,6.5924 -0.234487,2.269 1.233273,4.956 3.296169,7.4162 2.784022,3.3207 6.651987,6.2285 10.987203,9.8887 4.994308,4.2166 10.60874,9.4314 13.7340132,14.0086 2.2717044,3.327 3.2282451,6.317 5.4936016,8.7898 2.27366441,2.4818 5.8657606,4.4427 9.3391365,4.6695 3.546172,0.2318 6.9685957,-1.3441 10.7125307,-1.9227 3.67656,-0.5682 7.663165,-0.174 10.437857,1.0986 2.799538,1.2849 4.365365,3.4655 7.416361,7.6911 5.260257,7.2856 14.935271,20.6506 20.601025,24.1718 2.73882,1.7022 4.540779,1.1042 7.416367,0.2748 4.43248,-1.2786 11.41587,-3.1066 16.755501,-5.4936 5.111281,-2.285 8.716387,-5.0822 13.184652,-9.3392 5.164094,-4.9198 11.481116,-11.7894 15.931456,-14.558 2.47657,-1.5406 4.37506,-1.8114 6.59233,-1.0986 2.94563,0.9466 6.45386,3.629 10.43785,5.4936 4.35005,2.0358 9.2673,3.0968 13.73402,3.0214 3.97811,-0.068 7.59887,-1.0356 10.98721,-1.9228 3.07874,-0.806 5.9656,-1.545 8.78977,-2.7468 2.84467,-1.2104 5.62574,-2.8904 8.51509,-3.8454 2.67103,-0.883 5.4346,-1.1466 7.96572,0.5494 2.90489,1.9462 5.50361,6.4734 7.96573,6.8668 2.27891,0.3644 4.4408,-2.8126 7.14169,-5.4934 3.19678,-3.1732 7.14866,-5.6511 10.48685,-7.0253 2.75313,-1.1332 5.08883,-1.5158 8.5151,-1.0986 4.54495,0.5532 11.00889,2.513 15.10741,0 3.70725,-2.2734 5.47916,-8.2064 7.41637,-9.8886 0.76404,-0.6634 1.5538,-0.6656 1.92276,0 0.88772,1.6016 -0.66047,7.0686 -3.02149,10.7126 -2.28874,3.5324 -5.34133,5.3515 -9.06444,5.2189 -4.12267,-0.146 -9.06751,-2.6863 -12.63529,-2.1975 -3.21028,0.44 -5.30564,3.3321 -8.24042,6.3177 -3.22354,3.2796 -7.4598,6.6722 -7.69105,9.8886 -0.21112,2.9362 2.91593,5.7256 6.04297,8.515"
       style="fill:none;stroke:#ff0000;stroke-width:2.00001"
       id="path39" />
    <path
       d="m 553.97213,1364.3967 c 1.03385,-0.285 2.06769,-0.57 3.22597,-0.693 1.31931,-0.14 2.80003,-0.07 4.28073,0"
       style="fill:none;stroke:#ff0000;stroke-width:2.00001"
       id="path40" />
    <path
       d="m 358.39494,1438.7214 c 0.88406,0.7788 1.76812,1.5576 2.134,2.9732 0.55655,2.1534 -0.086,5.78 1.41297,8.3494 2.06578,3.541 8.1989,5.0736 14.38658,7.1932 6.31666,2.1638 12.69013,4.9394 16.31332,3.8536 1.92079,-0.5756 3.06861,-2.2366 4.2389,-2.0552 1.5771,0.2442 3.19497,3.834 5.65185,6.4226 2.83613,2.988 6.79028,4.642 9.50541,6.294 2.01323,1.2248 3.34523,2.4485 4.49583,4.3675 1.45027,2.4184 2.61231,5.9414 5.00958,8.6062 2.69006,2.99 6.93548,4.8994 10.91839,6.1656 3.89575,1.2384 7.54036,1.8614 11.68909,2.6974 4.26055,0.8586 9.05277,1.9418 12.20288,3.3398 2.26916,1.007 3.68625,2.1774 5.65187,3.3396 2.40297,1.421 5.62572,2.8298 8.84847,4.2386"
       style="fill:none;stroke:#0000ff;stroke-width:2.00001"
       id="path41" />
    <path
       d="m 553.97213,1364.3967 c -1.32668,1.55 -5.01235,-0.2502 -8.31524,-0.5776 -3.65319,-0.3622 -6.83812,1.0774 -9.93201,2.3098 -2.96615,1.1816 -5.84862,2.1731 -8.66166,3.5803 -2.77143,1.3864 -5.47548,3.1764 -7.62229,4.966 -1.75002,1.4588 -3.12976,2.9172 -4.15761,4.3886 -0.865,1.2382 -1.48076,2.4856 -2.09654,3.7328"
       style="fill:none;stroke:#ff0000;stroke-width:2.00001"
       id="path42" />
    <path
       d="m 596.40899,1350.9793 c -1.4383,-1.744 -2.87659,-3.488 -5.24949,-3.675 -4.12555,-0.3252 -11.07625,4.0558 -17.20787,8.8926 -5.31564,4.193 -10.01567,8.7286 -12.4728,7.5068"
       style="fill:none;stroke:#ff0000;stroke-width:2.00001"
       id="path43" />
    <path
       d="m 520.59584,1319.818 c 0.43602,-0.6724 0.87204,-1.3448 1.56798,-1.716 0.81692,-0.436 1.99197,-0.4572 3.16701,-0.4784"
       style="fill:none;stroke:#ff0000;stroke-width:2.00001"
       id="path44" />
    <path
       d="m 517.82407,1317.0462 c 0.94374,-0.056 1.88749,-0.112 2.77177,-0.4024 0.9061,-0.2978 1.74976,-0.8422 2.59344,-1.3866"
       style="fill:none;stroke:#ff0000;stroke-width:2.00001"
       id="path45" />
    <path
       d="m 560.20843,1355.2729 c -1.21152,-0.084 -2.42305,-0.166 -3.62133,0 -1.2274,0.172 -2.44091,0.6054 -3.65441,1.0396"
       style="fill:none;stroke:#ff0000;stroke-width:2.00001"
       id="path46" />
    <path
       d="m 199.70426,1497.2519 c 1.79361,2.0088 3.58723,4.0178 5.44548,6.4782 2.10482,2.7868 4.29257,6.1531 4.85571,9.7115 0.54318,3.4322 -0.42513,7.0434 -0.19424,10.0998 0.18542,2.4544 1.14424,4.551 2.91342,5.8268 2.09594,1.5114 5.32922,1.8706 8.93452,1.9422 4.3658,0.086 9.27713,-0.2482 13.40175,0.3886 3.98886,0.6158 7.24195,2.1404 12.04216,3.496 6.33766,1.7898 15.37225,3.285 21.17088,5.4384 3.65537,1.3574 6.02482,2.9764 7.76912,3.8847 1.04841,0.5458 1.87095,0.835 2.91343,1.1654 1.27935,0.4054 2.88989,0.873 4.6615,0.7768 2.71738,-0.148 5.81367,-1.621 10.4883,-3.6903 7.81713,-3.4604 20.04794,-8.5868 28.74581,-11.848 6.15073,-2.306 10.53475,-3.6794 15.1498,-3.496 4.72787,0.188 9.69819,2.0092 16.12095,2.5248 7.51678,0.6034 17.02294,-0.5818 22.33626,-0.7768 2.91831,-0.108 4.57177,0.084 6.60378,1.3596 2.3897,1.4996 5.30299,4.4982 7.57488,5.4384 1.47454,0.6102 2.67889,0.3534 3.88459,-0.5828 1.92633,-1.4956 3.85607,-4.7256 6.9922,-7.1864 4.09793,-3.2152 10.25565,-5.1168 15.53828,-7.1864 4.91038,-1.9236 9.06463,-3.9924 13.59598,-5.8268 4.32757,-1.7518 8.99907,-3.29 12.43062,-5.2442 2.69111,-1.5325 4.61963,-3.3211 6.9922,-4.4673 2.48038,-1.1984 5.44607,-1.695 8.9345,-1.5538 3.98971,0.162 8.66319,1.157 11.84794,0.5826 2.2474,-0.4052 3.75347,-1.5924 5.24415,-2.7192 1.55527,-1.1754 3.09379,-2.2852 5.82686,-2.719 4.91347,-0.7802 13.68782,0.624 20.78242,0 6.48832,-0.5708 11.57173,-2.8378 16.50938,-5.4386 4.63378,-2.4406 9.13917,-5.175 12.43064,-8.9344 3.01749,-3.4464 5.01475,-7.7544 6.2153,-11.2652 0.90502,-2.6465 1.3573,-4.8401 2.13654,-6.9923 0.78372,-2.1646 1.89819,-4.2876 3.69033,-6.4096 2.33535,-2.765 5.82144,-5.528 9.71139,-7.9632 4.45923,-2.7918 9.44915,-5.1528 14.76134,-7.3808 5.7655,-2.418 11.9106,-4.6792 18.06325,-7.1865 6.11596,-2.4922 12.2394,-5.2274 17.48057,-7.9632 3.86951,-2.0198 7.25812,-4.0398 7.96335,-6.798 0.68918,-2.6954 -1.18431,-6.0956 -2.47581,-9.688 -1.43449,-3.99 -2.15097,-8.217 -2.47215,-12.0859 -0.27116,-3.2666 -0.26052,-6.2782 -0.27466,-8.7898 -0.012,-2.0524 -0.0396,-3.7712 1.09868,-5.7682 1.64417,-2.8846 5.72172,-6.35 8.24045,-9.0644 1.65414,-1.7828 2.63597,-3.2416 2.47208,-4.6696 -0.1704,-1.4854 -1.58032,-2.9376 -3.29614,-4.6696 -2.40959,-2.4325 -5.42258,-5.4171 -8.24041,-7.6911 -2.39392,-1.932 -4.64699,-3.3512 -6.4671,-4.9362 -1.54206,-1.3428 -2.77332,-2.8046 -3.84555,-4.3948"
       style="fill:none;stroke:#ff0000;stroke-width:2.00001"
       id="path47" />
    <path
       d="m 410.35604,1334.7595 c -5.76947,-3.2763 -11.53897,-6.5523 -18.25745,-8.3519 -6.19415,-1.6594 -13.19497,-2.0638 -16.70364,-3.4962 -1.86555,-0.7616 -2.74385,-1.8138 -3.10765,-3.6902 -0.55458,-2.8608 0.0866,-7.6372 -2.71919,-10.8768 -4.45443,-5.1434 -17.59683,-6.4132 -26.99774,-8.3518 -7.6314,-1.5738 -12.79723,-3.5887 -17.86901,-5.2443 -4.61857,-1.5078 -9.15914,-2.7176 -15.34402,-1.748 -8.86875,1.3904 -21.11852,7.2625 -30.10537,10.0999 -6.45286,2.0374 -11.22345,2.51 -16.31518,1.3596 -5.54842,-1.2536 -11.47818,-4.4346 -18.06323,-7.1864 -7.46816,-3.1211 -15.77914,-5.6903 -23.89008,-7.3809 -7.48259,-1.5594 -14.79494,-2.3712 -21.27922,-0.194 -6.24016,2.0952 -11.71343,6.9582 -17.56643,8.9347 -5.6192,1.8972 -11.58839,1.1338 -18.16488,-0.046 -7.0844,-1.2698 -14.87353,-3.0219 -21.06903,-0.6532 -5.62534,2.1506 -9.93688,7.6982 -13.88271,10.4528 -2.89161,2.0186 -5.58683,2.5374 -8.34059,4.187 -3.41881,2.0484 -6.92787,5.84 -10.57519,9.7512 -3.21346,3.446 -6.53426,6.9846 -5.90562,9.4764 0.61454,2.4361 5.00346,3.8715 9.06445,5.6311 4.32475,1.8738 8.27758,4.1154 10.71253,5.631 1.4476,0.901 2.35872,1.5454 2.88414,3.1588 0.97851,3.0046 0.61932,9.3696 0.27468,14.8326 -0.29798,4.7232 -0.58507,8.7721 1.04675,11.0403 1.26869,1.7634 3.6973,2.4506 5.83695,3.2962 2.06556,0.8162 3.86182,1.7804 5.21893,3.4334 1.42751,1.739 2.36911,4.2404 4.53222,5.219 2.65011,1.1988 7.13364,0.112 10.36919,-0.3434 2.74545,-0.3862 4.59235,-0.3172 7.41635,0.8928 3.14155,1.346 7.49228,4.1042 7.48505,5.4248 -0.005,0.8926 -2.0002,1.1288 -3.99552,1.3648"
       style="fill:none;stroke:#ff0000;stroke-width:2.00001"
       id="path48" />
    <path
       d="m 513.18678,1382.7966 c 0.72672,4.101 2.20436,5.6722 4.18909,7.1236 1.84778,1.3512 4.13509,2.5986 5.43839,4.6614 1.40903,2.2304 1.66793,5.4138 0.58269,8.3519 -1.37833,3.7314 -4.92476,7.0668 -8.74029,10.2942 -4.43213,3.7488 -9.22735,7.3518 -15.53828,9.517 -7.5374,2.586 -17.23691,3.121 -25.63814,4.273 -6.45599,0.8854 -12.14531,2.1352 -15.34402,-0.3884 -2.73297,-2.1562 -3.64779,-7.067 -6.2153,-9.323 -2.84879,-2.503 -7.7322,-1.7376 -13.59598,-2.3306 -7.8746,-0.7964 -17.51723,-4.0426 -23.69584,-7.575 -4.57072,-2.613 -7.24576,-5.3829 -10.09989,-9.1287 -2.75819,-3.62 -5.68364,-8.1514 -4.07881,-12.0422 2.16192,-5.2412 12.54519,-9.3194 16.3152,-16.315 4.69176,-8.7063 -0.8589,-21.9309 -6.40956,-35.1553"
       style="fill:none;stroke:#ff0000;stroke-width:2.00001"
       id="path49" />
  </g>
  <g
     inkscape:groupmode="layer"
     inkscape:label="SECTION_JOG_LINES"
     id="g57"
     transform="translate(37.596636,-1287.3651)">
    <text
       xml:space="preserve"
       transform="translate(78.790555,1298.7917)"
       id="text57"
       style="font-size:32px;white-space:pre;shape-inside:url(#rect57);fill:none;stroke:#0000ff"><tspan
         x="115.94531"
         y="58.053945"
         id="tspan2">Southern
</tspan><tspan
         x="115.94531"
         y="98.053945"
         id="tspan3">Tundra</tspan></text>
    <text
       xml:space="preserve"
       style="font-size:29.3333px;fill:none;stroke:#0000ff"
       x="247.06429"
       y="1498.7295"
       id="text58"><tspan
         sodipodi:role="line"
         id="tspan57"
         x="247.06429"
         y="1498.7295"
         style="font-size:29.3333px">South Pole</tspan></text>
    <text
       xml:space="preserve"
       style="font-size:26.6667px;fill:none;stroke:#0000ff"
       x="3.9964306"
       y="1416.1334"
       id="text59"><tspan
         sodipodi:role="line"
         id="tspan58"
         x="3.9964306"
         y="1416.1334"
         style="font-size:26.6667px">Water Tribe</tspan><tspan
         sodipodi:role="line"
         x="3.9964306"
         y="1449.4668"
         id="tspan59"
         style="font-size:26.6667px">Settelments</tspan></text>
    <text
       xml:space="preserve"
       style="font-size:26.6667px;fill:none;stroke:#0000ff"
       x="407.01639"
       y="1452.9976"
       id="text60"><tspan
         sodipodi:role="line"
         id="tspan60"
         x="407.01639"
         y="1452.9976"
         style="font-size:26.6667px">Shipwreck</tspan></text>
  </g>
</svg>
