  0
SECTION
  2
HEADER
  9
$ACADVER
  1
AC1014
  9
$ACADMAINTVER
 70
     9
  9
$DWGCODEPAGE
  3
ANSI_1252
  9
$INSBASE
 10
0.0
 20
0.0
 30
0.0
  9
$EXTMIN
 10
1.000000000000000E+20
 20
1.000000000000000E+20
 30
1.000000000000000E+20
  9
$EXTMAX
 10
-1.000000000000000E+20
 20
-1.000000000000000E+20
 30
-1.000000000000000E+20
  9
$LIMMIN
 10
0.0
 20
0.0
  9
$LIMMAX
 10
420.0
 20
297.0
  9
$ORTHOMODE
 70
     0
  9
$REGENMODE
 70
     1
  9
$FILLMODE
 70
     1
  9
$QTEXTMODE
 70
     0
  9
$MIRRTEXT
 70
     1
  9
$DRAGMODE
 70
     2
  9
$LTSCALE
 40
1.0
  9
$OSMODE
 70
    37
  9
$ATTMODE
 70
     1
  9
$TEXTSIZE
 40
2.5
  9
$TRACEWID
 40
1.0
  9
$TEXTSTYLE
  7
STANDARD
  9
$CLAYER
  8
0
  9
$CELTYPE
  6
BYLAYER
  9
$CECOLOR
 62
   256
  9
$CELTSCALE
 40
1.0
  9
$DELOBJ
 70
     1
  9
$DISPSILH
 70
     0
  9
$DIMSCALE
 40
1.0
  9
$DIMASZ
 40
2.5
  9
$DIMEXO
 40
0.625
  9
$DIMDLI
 40
3.75
  9
$DIMRND
 40
0.0
  9
$DIMDLE
 40
0.0
  9
$DIMEXE
 40
1.25
  9
$DIMTP
 40
0.0
  9
$DIMTM
 40
0.0
  9
$DIMTXT
 40
2.5
  9
$DIMCEN
 40
2.5
  9
$DIMTSZ
 40
0.0
  9
$DIMTOL
 70
     0
  9
$DIMLIM
 70
     0
  9
$DIMTIH
 70
     0
  9
$DIMTOH
 70
     0
  9
$DIMSE1
 70
     0
  9
$DIMSE2
 70
     0
  9
$DIMTAD
 70
     1
  9
$DIMZIN
 70
     8
  9
$DIMBLK
  1

  9
$DIMASO
 70
     1
  9
$DIMSHO
 70
     1
  9
$DIMPOST
  1

  9
$DIMAPOST
  1

  9
$DIMALT
 70
     0
  9
$DIMALTD
 70
     3
  9
$DIMALTF
 40
0.03937007874016
  9
$DIMLFAC
 40
1.0
  9
$DIMTOFL
 70
     1
  9
$DIMTVP
 40
0.0
  9
$DIMTIX
 70
     0
  9
$DIMSOXD
 70
     0
  9
$DIMSAH
 70
     0
  9
$DIMBLK1
  1

  9
$DIMBLK2
  1

  9
$DIMSTYLE
  2
ISO-25
  9
$DIMCLRD
 70
     0
  9
$DIMCLRE
 70
     0
  9
$DIMCLRT
 70
     0
  9
$DIMTFAC
 40
1.0
  9
$DIMGAP
 40
0.625
  9
$DIMJUST
 70
     0
  9
$DIMSD1
 70
     0
  9
$DIMSD2
 70
     0
  9
$DIMTOLJ
 70
     0
  9
$DIMTZIN
 70
     8
  9
$DIMALTZ
 70
     0
  9
$DIMALTTZ
 70
     0
  9
$DIMFIT
 70
     3
  9
$DIMUPT
 70
     0
  9
$DIMUNIT
 70
     2
  9
$DIMDEC
 70
     2
  9
$DIMTDEC
 70
     2
  9
$DIMALTU
 70
     2
  9
$DIMALTTD
 70
     3
  9
$DIMTXSTY
  7
STANDARD
  9
$DIMAUNIT
 70
     0
  9
$LUNITS
 70
     2
  9
$LUPREC
 70
     4
  9
$SKETCHINC
 40
1.0
  9
$FILLETRAD
 40
10.0
  9
$AUNITS
 70
     0
  9
$AUPREC
 70
     0
  9
$MENU
  1
.
  9
$ELEVATION
 40
0.0
  9
$PELEVATION
 40
0.0
  9
$THICKNESS
 40
0.0
  9
$LIMCHECK
 70
     0
  9
$CHAMFERA
 40
0.0
  9
$CHAMFERB
 40
0.0
  9
$CHAMFERC
 40
0.0
  9
$CHAMFERD
 40
0.0
  9
$SKPOLY
 70
     0
  9
$TDCREATE
 40
2460568.524618426
  9
$TDUPDATE
 40
2460568.524618438
  9
$TDINDWG
 40
0.0000000116
  9
$TDUSRTIMER
 40
0.0000000116
  9
$USRTIMER
 70
     1
  9
$ANGBASE
 50
0.0
  9
$ANGDIR
 70
     0
  9
$PDMODE
 70
     0
  9
$PDSIZE
 40
0.0
  9
$PLINEWID
 40
0.0
  9
$COORDS
 70
     1
  9
$SPLFRAME
 70
     0
  9
$SPLINETYPE
 70
     6
  9
$SPLINESEGS
 70
     8
  9
$ATTDIA
 70
     0
  9
$ATTREQ
 70
     1
  9
$HANDLING
 70
     1
  9
$HANDSEED
  5
10000106
  9
$SURFTAB1
 70
     6
  9
$SURFTAB2
 70
     6
  9
$SURFTYPE
 70
     6
  9
$SURFU
 70
     6
  9
$SURFV
 70
     6
  9
$UCSNAME
  2

  9
$UCSORG
 10
0.0
 20
0.0
 30
0.0
  9
$UCSXDIR
 10
1.0
 20
0.0
 30
0.0
  9
$UCSYDIR
 10
0.0
 20
1.0
 30
0.0
  9
$PUCSNAME
  2

  9
$PUCSORG
 10
0.0
 20
0.0
 30
0.0
  9
$PUCSXDIR
 10
1.0
 20
0.0
 30
0.0
  9
$PUCSYDIR
 10
0.0
 20
1.0
 30
0.0
  9
$USERI1
 70
     0
  9
$USERI2
 70
     0
  9
$USERI3
 70
     0
  9
$USERI4
 70
     0
  9
$USERI5
 70
     0
  9
$USERR1
 40
0.0
  9
$USERR2
 40
0.0
  9
$USERR3
 40
0.0
  9
$USERR4
 40
0.0
  9
$USERR5
 40
0.0
  9
$WORLDVIEW
 70
     1
  9
$SHADEDGE
 70
     3
  9
$SHADEDIF
 70
    70
  9
$TILEMODE
 70
     1
  9
$MAXACTVP
 70
    64
  9
$PINSBASE
 10
0.0
 20
0.0
 30
0.0
  9
$PLIMCHECK
 70
     0
  9
$PEXTMIN
 10
1.000000000000000E+20
 20
1.000000000000000E+20
 30
1.000000000000000E+20
  9
$PEXTMAX
 10
-1.000000000000000E+20
 20
-1.000000000000000E+20
 30
-1.000000000000000E+20
  9
$PLIMMIN
 10
0.0
 20
0.0
  9
$PLIMMAX
 10
420.0
 20
297.0
  9
$UNITMODE
 70
     0
  9
$VISRETAIN
 70
     1
  9
$PLINEGEN
 70
     0
  9
$PSLTSCALE
 70
     1
  9
$TREEDEPTH
 70
  3020
  9
$PICKSTYLE
 70
     1
  9
$CMLSTYLE
  2
STANDARD
  9
$CMLJUST
 70
     0
  9
$CMLSCALE
 40
20.0
  9
$PROXYGRAPHICS
 70
     1
  9
$MEASUREMENT
 70
     1
  0
ENDSEC
  0
SECTION
  2
CLASSES
  0
CLASS
  1
ACDBDICTIONARYWDFLT
  2
AcDbDictionaryWithDefault
  3
ObjectDBX Classes
 90
        0
280
     0
281
     0
  0
CLASS
  1
VISUALSTYLE
  2
AcDbVisualStyle
  3
ObjectDBX Classes
 90
     4095
280
     0
281
     0
  0
CLASS
  1
MATERIAL
  2
AcDbMaterial
  3
ObjectDBX Classes
 90
     1153
280
     0
281
     0
  0
CLASS
  1
SCALE
  2
AcDbScale
  3
ObjectDBX Classes
 90
     1153
280
     0
281
     0
  0
CLASS
  1
TABLESTYLE
  2
AcDbTableStyle
  3
ObjectDBX Classes
 90
     4095
280
     0
281
     0
  0
CLASS
  1
MLEADERSTYLE
  2
AcDbMLeaderStyle
  3
ACDB_MLEADERSTYLE_CLASS
 90
     4095
280
     0
281
     0
  0
CLASS
  1
SUN
  2
AcDbSun
  3
SCENEOE
 90
     1153
280
     0
281
     0
  0
CLASS
  1
SORTENTSTABLE
  2
AcDbSortentsTable
  3
ObjectDBX Classes
 90
        0
280
     0
281
     0
  0
CLASS
  1
DICTIONARYVAR
  2
AcDbDictionaryVar
  3
ObjectDBX Classes
 90
        0
280
     0
281
     0
  0
CLASS
  1
XRECORD
  2
AcDbXrecord
  3
ObjectDBX Classes
 90
        0
280
     0
281
     0
  0
CLASS
  1
LWPOLYLINE
  2
AcDbPolyline
  3
ObjectDBX Classes
 90
        0
280
     0
281
     1
  0
CLASS
  1
HATCH
  2
AcDbHatch
  3
ObjectDBX Classes
 90
        0
280
     0
281
     1
  0
CLASS
  1
ACDBPLACEHOLDER
  2
AcDbPlaceHolder
  3
ObjectDBX Classes
 90
        0
280
     0
281
     0
  0
CLASS
  1
LAYOUT
  2
AcDbLayout
  3
ObjectDBX Classes
 90
        0
280
     0
281
     0
  0
ENDSEC
  0
SECTION
  2
TABLES
  0
TABLE
  2
VPORT
  5
8
102
{ACAD_XDICTIONARY
360
100000FB
102
}
330
0
100
AcDbSymbolTable
 70
     1
  0
VPORT
  5
29
330
8
100
AcDbSymbolTableRecord
100
AcDbViewportTableRecord
  2
*ACTIVE
 70
     0
 10
0.0
 20
0.0
 11
1.0
 21
1.0
 12
344.1869158878504
 22
148.5
 13
0.0
 23
0.0
 14
10.0
 24
10.0
 15
10.0
 25
10.0
 16
0.0
 26
0.0
 36
1.0
 17
0.0
 27
0.0
 37
0.0
 40
297.0
 41
1.972972972850329
 42
50.0
 43
0.0
 44
0.0
 50
0.0
 51
0.0
 71
     0
 72
   100
 73
     1
 74
     3
 75
     0
 76
     0
 77
     0
 78
     0
  0
ENDTAB
  0
TABLE
  2
LTYPE
  5
5
330
0
100
AcDbSymbolTable
 70
     7
  0
LTYPE
  5
14
330
5
100
AcDbSymbolTableRecord
100
AcDbLinetypeTableRecord
  2
BYBLOCK
 70
     0
  3

 72
    65
 73
     0
 40
0.0
  0
LTYPE
  5
15
330
5
100
AcDbSymbolTableRecord
100
AcDbLinetypeTableRecord
  2
BYLAYER
 70
     0
  3

 72
    65
 73
     0
 40
0.0
  0
LTYPE
  5
16
330
5
100
AcDbSymbolTableRecord
100
AcDbLinetypeTableRecord
  2
CONTINUOUS
 70
     0
  3
Solid line
 72
    65
 73
     0
 40
0.0
  0
LTYPE
  5
10000024
330
5
100
AcDbSymbolTableRecord
100
AcDbLinetypeTableRecord
  2
ONS_PHANTOM
 70
     0
  3
Onshape Phantom line ______ __ __ ______
 72
    65
 73
     6
 40
0.4999999999999999
 49
0.25
 74
     0
 49
-0.05
 74
     0
 49
0.05
 74
     0
 49
-0.05
 74
     0
 49
0.05
 74
     0
 49
-0.05
 74
     0
  0
LTYPE
  5
10000025
330
5
100
AcDbSymbolTableRecord
100
AcDbLinetypeTableRecord
  2
CENTER
 70
     0
  3
Center line ____ _ ____ _ ____ _
 72
    65
 73
     4
 40
0.7874015748031495
 49
0.4921259842519685
 74
     0
 49
-0.0984251968503937
 74
     0
 49
0.0984251968503937
 74
     0
 49
-0.0984251968503937
 74
     0
  0
LTYPE
  5
10000026
330
5
100
AcDbSymbolTableRecord
100
AcDbLinetypeTableRecord
  2
DASHED
 70
     0
  3
Dashed line __ __ __ __ __
 72
    65
 73
     2
 40
0.75
 49
0.5
 74
     0
 49
-0.25
 74
     0
  0
LTYPE
  5
10000027
330
5
100
AcDbSymbolTableRecord
100
AcDbLinetypeTableRecord
  2
ONS_DASHDOT
 70
     0
  3
Onshape Dashed with Dot _ . ____ . ____
 72
    65
 73
     4
 40
0.71
 49
0.5
 74
     0
 49
-0.1
 74
     0
 49
0.01
 74
     0
 49
-0.1
 74
     0
  0
LTYPE
  5
10000028
330
5
100
AcDbSymbolTableRecord
100
AcDbLinetypeTableRecord
  2
ONS_DOTTED
 70
     0
  3
Onshape Dotted line . . . . . . .
 72
    65
 73
     2
 40
0.11
 49
0.01
 74
     0
 49
-0.1
 74
     0
  0
LTYPE
  5
10000029
330
5
100
AcDbSymbolTableRecord
100
AcDbLinetypeTableRecord
  2
HIDDEN
 70
     0
  3
Hidden line ____ ____ ____ ____ 
 72
    65
 73
     2
 40
0.15
 49
0.1
 74
     0
 49
-0.05
 74
     0
  0
ENDTAB
  0
TABLE
  2
LAYER
  5
2
330
0
100
AcDbSymbolTable
 70
    40
  0
LAYER
  5
10
330
2
100
AcDbSymbolTableRecord
100
AcDbLayerTableRecord
  2
0
 70
     0
 62
     7
  6
CONTINUOUS
  0
LAYER
  5
1000002A
330
2
100
AcDbSymbolTableRecord
100
AcDbLayerTableRecord
  2
SECTION_CUTTING_LINE
 70
     0
 62
     7
  6
ONS_DASHDOT
  0
LAYER
  5
1000002B
330
2
100
AcDbSymbolTableRecord
100
AcDbLayerTableRecord
  2
DETAIL_VIEW_BORDER
 70
     0
 62
     7
  6
CONTINUOUS
  0
LAYER
  5
1000002C
330
2
100
AcDbSymbolTableRecord
100
AcDbLayerTableRecord
  2
DETAIL_VIEW_PARENT_BORDER
 70
     0
 62
     7
  6
ONS_PHANTOM
  0
LAYER
  5
1000002D
330
2
100
AcDbSymbolTableRecord
100
AcDbLayerTableRecord
  2
TEXT
 70
     0
 62
     7
  6
CONTINUOUS
  0
LAYER
  5
1000002E
330
2
100
AcDbSymbolTableRecord
100
AcDbLayerTableRecord
  2
SKETCHED_GEOMETRY
 70
     0
 62
    -7
  6
CONTINUOUS
  0
LAYER
  5
1000002F
330
2
100
AcDbSymbolTableRecord
100
AcDbLayerTableRecord
  2
VIRTUAL_SHARPS
 70
     0
 62
    -7
  6
CONTINUOUS
  0
LAYER
  5
10000030
330
2
100
AcDbSymbolTableRecord
100
AcDbLayerTableRecord
  2
CENTERLINES
 70
     0
 62
    -7
  6
CENTER
  0
LAYER
  5
10000031
330
2
100
AcDbSymbolTableRecord
100
AcDbLayerTableRecord
  2
CENTERMARKS
 70
     0
 62
    -7
  6
CONTINUOUS
  0
LAYER
  5
10000032
330
2
100
AcDbSymbolTableRecord
100
AcDbLayerTableRecord
  2
TABLES
 70
     0
 62
     7
  6
CONTINUOUS
  0
LAYER
  5
10000033
330
2
100
AcDbSymbolTableRecord
100
AcDbLayerTableRecord
  2
IMAGES
 70
     0
 62
    -7
  6
CONTINUOUS
  0
LAYER
  5
10000034
330
2
100
AcDbSymbolTableRecord
100
AcDbLayerTableRecord
  2
ANNOTATION_LINES
 70
     0
 62
    -7
  6
CONTINUOUS
  0
LAYER
  5
10000035
330
2
100
AcDbSymbolTableRecord
100
AcDbLayerTableRecord
  2
ANNOTATION_TEXT
 70
     0
 62
    -7
  6
CONTINUOUS
  0
LAYER
  5
10000036
330
2
100
AcDbSymbolTableRecord
100
AcDbLayerTableRecord
  2
SIDE_THREAD_SYMBOLS
 70
     0
 62
     7
  6
CONTINUOUS
  0
LAYER
  5
10000037
330
2
100
AcDbSymbolTableRecord
100
AcDbLayerTableRecord
  2
SIDE_THREAD_SYMBOLS_HIDDEN
 70
     0
 62
    -7
  6
HIDDEN
  0
LAYER
  5
10000038
330
2
100
AcDbSymbolTableRecord
100
AcDbLayerTableRecord
  2
SURFACE_THREAD_SYMBOLS
 70
     0
 62
     7
  6
CONTINUOUS
  0
LAYER
  5
10000039
330
2
100
AcDbSymbolTableRecord
100
AcDbLayerTableRecord
  2
SURFACE_THREAD_SYMBOLS_ON_
 70
     0
 62
     7
  6
CONTINUOUS
  0
LAYER
  5
1000003A
330
2
100
AcDbSymbolTableRecord
100
AcDbLayerTableRecord
  2
SURFACE_THREAD_SYMBOLS_HID
 70
     0
 62
    -7
  6
HIDDEN
  0
LAYER
  5
1000003B
330
2
100
AcDbSymbolTableRecord
100
AcDbLayerTableRecord
  2
BLIND_THREAD_SYMBOLS
 70
     0
 62
     7
  6
CONTINUOUS
  0
LAYER
  5
1000003C
330
2
100
AcDbSymbolTableRecord
100
AcDbLayerTableRecord
  2
BLIND_THREAD_SYMBOLS_HIDDE
 70
     0
 62
    -7
  6
HIDDEN
  0
LAYER
  5
1000003D
330
2
100
AcDbSymbolTableRecord
100
AcDbLayerTableRecord
  2
EXPLODE_LINES
 70
     0
 62
     7
  6
ONS_PHANTOM
  0
LAYER
  5
1000003E
330
2
100
AcDbSymbolTableRecord
100
AcDbLayerTableRecord
  2
HIDDEN_EXPLODE_LINES
 70
     0
 62
    -7
  6
ONS_PHANTOM
  0
LAYER
  5
1000003F
330
2
100
AcDbSymbolTableRecord
100
AcDbLayerTableRecord
  2
BREAK_LINES
 70
     0
 62
    -7
  6
CONTINUOUS
  0
LAYER
  5
10000040
330
2
100
AcDbSymbolTableRecord
100
AcDbLayerTableRecord
  2
SHEETMETAL_BEND_LINES_UP
 70
     0
 62
     7
  6
CENTER
  0
LAYER
  5
10000041
330
2
100
AcDbSymbolTableRecord
100
AcDbLayerTableRecord
  2
SHEETMETAL_BEND_LINES_DOWN
 70
     0
 62
     7
  6
CENTER
  0
LAYER
  5
10000042
330
2
100
AcDbSymbolTableRecord
100
AcDbLayerTableRecord
  2
SHEETMETAL_BEND_TANGENT_LI
 70
     0
 62
     7
  6
CONTINUOUS
  0
LAYER
  5
10000043
330
2
100
AcDbSymbolTableRecord
100
AcDbLayerTableRecord
  2
SHEETMETAL_CUT_LINES
 70
     0
 62
     7
  6
CONTINUOUS
  0
LAYER
  5
10000044
330
2
100
AcDbSymbolTableRecord
100
AcDbLayerTableRecord
  2
REGION_ASSOC_POINTS
 70
     0
 62
    -7
  6
CONTINUOUS
  0
LAYER
  5
10000045
330
2
100
AcDbSymbolTableRecord
100
AcDbLayerTableRecord
  2
PATTERN_CENTERLINES
 70
     1
 62
    -7
  6
CENTER
  0
LAYER
  5
10000046
330
2
100
AcDbSymbolTableRecord
100
AcDbLayerTableRecord
  2
HIDDEN
 70
     0
 62
    -7
  6
HIDDEN
  0
LAYER
  5
10000047
330
2
100
AcDbSymbolTableRecord
100
AcDbLayerTableRecord
  2
VISIBLE
 70
     0
 62
     7
  6
CONTINUOUS
  0
LAYER
  5
10000048
330
2
100
AcDbSymbolTableRecord
100
AcDbLayerTableRecord
  2
MODELSKETCH_VISIBLE
 70
     0
 62
     7
  6
CONTINUOUS
  0
LAYER
  5
10000049
330
2
100
AcDbSymbolTableRecord
100
AcDbLayerTableRecord
  2
MODELSKETCH_POINT
 70
     0
 62
     7
  6
CONTINUOUS
  0
LAYER
  5
1000004A
330
2
100
AcDbSymbolTableRecord
100
AcDbLayerTableRecord
  2
MODELSKETCH_CONSTRUCTION
 70
     0
 62
    -7
  6
CENTER
  0
LAYER
  5
1000004B
330
2
100
AcDbSymbolTableRecord
100
AcDbLayerTableRecord
  2
HIDDEN_BASE_VIEW
 70
     0
 62
     7
  6
CONTINUOUS
  0
LAYER
  5
1000004C
330
2
100
AcDbSymbolTableRecord
100
AcDbLayerTableRecord
  2
TANGENT_LINES
 70
     0
 62
    -7
  6
CONTINUOUS
  0
LAYER
  5
1000004D
330
2
100
AcDbSymbolTableRecord
100
AcDbLayerTableRecord
  2
TANGENT_HIDDEN
 70
     0
 62
    -7
  6
HIDDEN
  0
LAYER
  5
1000004E
330
2
100
AcDbSymbolTableRecord
100
AcDbLayerTableRecord
  2
INVISIBLE_LINES
 70
     0
 62
    -7
  6
CONTINUOUS
  0
LAYER
  5
1000004F
330
2
100
AcDbSymbolTableRecord
100
AcDbLayerTableRecord
  2
VIEW_HATCHES
 70
     0
 62
    -7
  6
CONTINUOUS
  0
LAYER
  5
10000050
330
2
100
AcDbSymbolTableRecord
100
AcDbLayerTableRecord
  2
SECTION_JOG_LINES
 70
     0
 62
    -7
  6
CONTINUOUS
  0
ENDTAB
  0
TABLE
  2
STYLE
  5
3
330
0
100
AcDbSymbolTable
 70
     2
  0
STYLE
  5
11
330
3
100
AcDbSymbolTableRecord
100
AcDbTextStyleTableRecord
  2
STANDARD
 70
     0
 40
0.0
 41
1.0
 50
0.0
 71
     0
 42
2.5
  3
txt
  4

  0
STYLE
  5
10000004
330
3
100
AcDbSymbolTableRecord
100
AcDbTextStyleTableRecord
  2
TTFSTYLE
 70
     0
 40
0.0
 41
1.0
 50
0.0
 71
     0
 42
2.5
  3
Verdana.ttf
  4

1001
ACAD
1000
Verdana
1071
       34
  0
ENDTAB
  0
TABLE
  2
VIEW
  5
6
330
0
100
AcDbSymbolTable
 70
     0
  0
ENDTAB
  0
TABLE
  2
UCS
  5
7
330
0
100
AcDbSymbolTable
 70
     0
  0
ENDTAB
  0
TABLE
  2
APPID
  5
9
330
0
100
AcDbSymbolTable
 70
     2
  0
APPID
  5
12
330
9
100
AcDbSymbolTableRecord
100
AcDbRegAppTableRecord
  2
ACAD
 70
     0
  0
APPID
  5
10000105
330
9
100
AcDbSymbolTableRecord
100
AcDbRegAppTableRecord
  2
ACAD_MLEADERVER
 70
     0
  0
ENDTAB
  0
TABLE
  2
DIMSTYLE
  5
A
330
0
100
AcDbSymbolTable
 70
     1
  0
DIMSTYLE
105
27
330
A
100
AcDbSymbolTableRecord
100
AcDbDimStyleTableRecord
  2
ISO-25
 70
     0
  3

  4

  5

  6

  7

 40
1.0
 41
2.5
 42
0.625
 43
3.75
 44
1.25
 45
0.0
 46
0.0
 47
0.0
 48
0.0
140
2.5
141
2.5
142
0.0
143
0.03937007874016
144
1.0
145
0.0
146
1.0
147
0.625
 71
     0
 72
     0
 73
     0
 74
     0
 75
     0
 76
     0
 77
     1
 78
     8
170
     0
171
     3
172
     1
173
     0
174
     0
175
     0
176
     0
177
     0
178
     0
270
     2
271
     2
272
     2
273
     2
274
     3
340
11
275
     0
280
     0
281
     0
282
     0
283
     0
284
     8
285
     0
286
     0
287
     3
288
     0
  0
ENDTAB
  0
TABLE
  2
BLOCK_RECORD
  5
1
330
0
100
AcDbSymbolTable
 70
     0
  0
BLOCK_RECORD
  5
1F
102
{ACAD_XDICTIONARY
360
100000CC
102
}
330
1
100
AcDbSymbolTableRecord
100
AcDbBlockTableRecord
  2
*MODEL_SPACE
  0
BLOCK_RECORD
  5
1B
330
1
100
AcDbSymbolTableRecord
100
AcDbBlockTableRecord
  2
*PAPER_SPACE
  0
ENDTAB
  0
ENDSEC
  0
SECTION
  2
BLOCKS
  0
BLOCK
  5
20
330
1F
100
AcDbEntity
  8
0
100
AcDbBlockBegin
  2
*MODEL_SPACE
 70
     0
 10
0.0
 20
0.0
 30
0.0
  3
*MODEL_SPACE
  1

  0
ENDBLK
  5
21
330
1F
100
AcDbEntity
  8
0
100
AcDbBlockEnd
  0
BLOCK
  5
1C
330
1B
100
AcDbEntity
 67
     1
  8
0
100
AcDbBlockBegin
  2
*PAPER_SPACE
 70
     0
 10
0.0
 20
0.0
 30
0.0
  3
*PAPER_SPACE
  1

  0
ENDBLK
  5
1D
330
1B
100
AcDbEntity
 67
     1
  8
0
100
AcDbBlockEnd
  0
ENDSEC
  0
SECTION
  2
ENTITIES
  0
SPLINE
  5
10000051
102
{ACAD_XDICTIONARY
360
10000052
102
}
330
1F
100
AcDbEntity
  8
MODELSKETCH_VISIBLE
100
AcDbSpline
210
0.0
220
0.0
230
1.0
 70
     8
 71
     3
 72
    33
 73
    29
 74
     0
 42
0.000000001
 43
0.00000001
 40
0.0
 40
0.0
 40
0.0
 40
0.0
 40
0.030419987823077
 40
0.0628685155595661
 40
0.1006816208203699
 40
0.1455237763836734
 40
0.1919705693283384
 40
0.2363365722987607
 40
0.2710545283892736
 40
0.3109579537671215
 40
0.3569515816333504
 40
0.399623334879416
 40
0.4433839194096162
 40
0.4826264059102092
 40
0.5198502699330207
 40
0.562986406651388
 40
0.6051935844536278
 40
0.6464702329800267
 40
0.684339574416686
 40
0.7232786260306667
 40
0.7645452431275731
 40
0.8065915621492783
 40
0.8479051154977424
 40
0.8837196459429796
 40
0.9123801920386782
 40
0.9463256725760197
 40
0.9786969379558027
 40
1.0
 40
1.0
 40
1.0
 40
1.0
 10
92.54427254199982
 20
78.55874300003052
 30
0.0
 10
92.80906104982112
 20
78.59545715161629
 30
0.0
 10
93.35622928287157
 20
78.67132455846263
 30
0.0
 10
94.06379328353198
 20
78.03949365070144
 30
0.0
 10
94.98679634848622
 20
77.29752386410549
 30
0.0
 10
96.68075038407457
 20
76.8449629831288
 30
0.0
 10
98.3903083124578
 20
77.39829695411282
 30
0.0
 10
99.769314136949
 20
78.37110284116667
 30
0.0
 10
100.8703805866034
 20
78.33813520561176
 30
0.0
 10
102.0782435876871
 20
77.6067026292791
 30
0.0
 10
103.8601258724398
 20
78.04955956491376
 30
0.0
 10
105.3474111522754
 20
77.86320741829752
 30
0.0
 10
106.8334605947245
 20
77.11973685539951
 30
0.0
 10
107.5502146334915
 20
76.01579380426823
 30
0.0
 10
108.3623742176604
 20
75.17084028770202
 30
0.0
 10
109.792062207814
 20
74.48297559787925
 30
0.0
 10
110.7019153452172
 20
73.30012461937044
 30
0.0
 10
111.9694577541477
 20
72.63961435452069
 30
0.0
 10
112.9186959672366
 20
71.78653972891338
 30
0.0
 10
112.9863017982628
 20
70.42700309489854
 30
0.0
 10
112.6618443545422
 20
69.07529238678549
 30
0.0
 10
112.8263985147967
 20
67.53597512991476
 30
0.0
 10
113.6701784660537
 20
66.48227882173926
 30
0.0
 10
114.2073076849881
 20
65.2673522010816
 30
0.0
 10
113.3599368555015
 20
64.96898356363634
 30
0.0
 10
112.7547464371756
 20
64.28600523483446
 30
0.0
 10
112.1805234530877
 20
63.62575723315459
 30
0.0
 10
112.0112659494237
 20
63.39896651461732
 30
0.0
 10
111.9437184342851
 20
63.30820679582988
 30
0.0
  0
LINE
  5
10000054
102
{ACAD_XDICTIONARY
360
10000055
102
}
330
1F
100
AcDbEntity
  8
MODELSKETCH_VISIBLE
100
AcDbLine
 10
107.4232012033463
 20
200.848564505577
 30
0.0
 11
122.6950883865356
 21
200.848564505577
 31
0.0
  0
LINE
  5
10000057
102
{ACAD_XDICTIONARY
360
10000058
102
}
330
1F
100
AcDbEntity
  8
MODELSKETCH_VISIBLE
100
AcDbLine
 10
66.66719168424606
 20
204.8572748899459
 30
0.0
 11
18.77214014530193
 21
204.8572748899459
 31
0.0
  0
LINE
  5
1000005A
102
{ACAD_XDICTIONARY
360
1000005B
102
}
330
1F
100
AcDbEntity
  8
MODELSKETCH_VISIBLE
100
AcDbLine
 10
289.8964434862137
 20
143.7544971704483
 30
0.0
 11
289.8964434862137
 21
123.7930059432983
 31
0.0
  0
SPLINE
  5
1000005D
102
{ACAD_XDICTIONARY
360
1000005E
102
}
330
1F
100
AcDbEntity
  8
MODELSKETCH_VISIBLE
100
AcDbSpline
210
0.0
220
0.0
230
1.0
 70
     8
 71
     3
 72
    32
 73
    28
 74
     0
 42
0.000000001
 43
0.00000001
 40
0.0
 40
0.0
 40
0.0
 40
0.0
 40
0.0300114903905632
 40
0.0589520418586088
 40
0.0933827690646826
 40
0.1297623831241077
 40
0.1659740030542786
 40
0.2000476493979685
 40
0.2378183098399661
 40
0.2767881490985222
 40
0.3230265397412679
 40
0.3648382216670395
 40
0.4126123480916499
 40
0.4422015741966187
 40
0.4838781112377165
 40
0.5302624466312653
 40
0.5679753022234129
 40
0.6101586641009438
 40
0.662229558497342
 40
0.7011528322133918
 40
0.7465831642029515
 40
0.7927124415530463
 40
0.8378812053110462
 40
0.8833010592363532
 40
0.9198394995213829
 40
0.9494138161269594
 40
1.0
 40
1.0
 40
1.0
 40
1.0
 10
113.9713376760483
 20
65.35335630178452
 30
0.0
 10
114.2389710709297
 20
65.3366074799728
 30
0.0
 10
114.7646875512672
 20
65.30370750627353
 30
0.0
 10
115.6301236546125
 20
65.55870385865873
 30
0.0
 10
116.1918017545902
 20
64.39440391443756
 30
0.0
 10
117.4460868304583
 20
64.31733999020267
 30
0.0
 10
118.5502852080271
 20
63.95667951590965
 30
0.0
 10
119.6170362569829
 20
63.75952650735201
 30
0.0
 10
120.8454772552863
 20
64.30172322408906
 30
0.0
 10
122.1165964485811
 20
64.72380285143642
 30
0.0
 10
124.1318467430307
 20
64.45881925909143
 30
0.0
 10
125.4801379160637
 20
64.72973327628058
 30
0.0
 10
127.8353955122806
 20
65.20051564340213
 30
0.0
 10
128.021682971521
 20
64.04246693543409
 30
0.0
 10
129.7593346086065
 20
63.9383808744652
 30
0.0
 10
131.6124762834853
 20
63.82562386685757
 30
0.0
 10
132.8192115510643
 20
63.26540627319164
 30
0.0
 10
134.3673356193132
 20
62.89156343707775
 30
0.0
 10
136.7666825706666
 20
62.72819380811809
 30
0.0
 10
138.203848225357
 20
62.13918534792887
 30
0.0
 10
139.5574165890852
 20
63.81240598343292
 30
0.0
 10
141.4540737104854
 20
64.12652387972695
 30
0.0
 10
143.2337770146331
 20
64.55815966236108
 30
0.0
 10
144.6953689137562
 20
65.7118883562605
 30
0.0
 10
145.5744181914532
 20
66.58600757061733
 30
0.0
 10
146.3715337580073
 20
66.97849737271096
 30
0.0
 10
147.7465061826245
 20
66.69094251549592
 30
0.0
 10
148.6141979694366
 20
66.50947779417038
 30
0.0
  0
SPLINE
  5
10000060
102
{ACAD_XDICTIONARY
360
10000061
102
}
330
1F
100
AcDbEntity
  8
MODELSKETCH_VISIBLE
100
AcDbSpline
210
0.0
220
0.0
230
1.0
 70
    11
 71
     3
 72
    12
 73
     8
 74
     0
 42
0.000000001
 43
0.00000001
 40
0.0
 40
0.0
 40
0.0
 40
0.0
 40
0.2392352119258633
 40
0.4337536286579845
 40
0.6674103196430509
 40
0.8652350220759502
 40
1.0
 40
1.0
 40
1.0
 40
1.0
 10
92.86022186279297
 20
86.35509014129639
 30
0.0
 10
92.9858311269116
 20
86.27768371337739
 30
0.0
 10
93.51003483801911
 20
86.12322217967237
 30
0.0
 10
93.56834252447146
 20
86.71102285901496
 30
0.0
 10
92.91149151469774
 20
86.99697666818514
 30
0.0
 10
92.74289234313761
 20
86.50020872528744
 30
0.0
 10
92.78946417804525
 20
86.39869440617743
 30
0.0
 10
92.86022186279297
 20
86.35509014129639
 30
0.0
  0
SPLINE
  5
10000063
102
{ACAD_XDICTIONARY
360
10000064
102
}
330
1F
100
AcDbEntity
  8
MODELSKETCH_VISIBLE
100
AcDbSpline
210
0.0
220
0.0
230
1.0
 70
     8
 71
     3
 72
     9
 73
     5
 74
     0
 42
0.000000001
 43
0.00000001
 40
0.0
 40
0.0
 40
0.0
 40
0.0
 40
0.4735419678927847
 40
1.0
 40
1.0
 40
1.0
 40
1.0
 10
148.6141979694366
 20
96.87105566263199
 30
0.0
 10
149.3740915059496
 20
96.60093841715565
 30
0.0
 10
151.0323155071551
 20
95.91492525444394
 30
0.0
 10
151.8864434541634
 20
93.93276042156076
 30
0.0
 10
152.2141176660643
 20
92.97762798197773
 30
0.0
  0
SPLINE
  5
10000066
102
{ACAD_XDICTIONARY
360
10000067
102
}
330
1F
100
AcDbEntity
  8
MODELSKETCH_VISIBLE
100
AcDbSpline
210
0.0
220
0.0
230
1.0
 70
     8
 71
     3
 72
    22
 73
    18
 74
     0
 42
0.000000001
 43
0.00000001
 40
0.0
 40
0.0
 40
0.0
 40
0.0
 40
0.0694203482873967
 40
0.1229155088978592
 40
0.1820774097494317
 40
0.2480358486218825
 40
0.3168017998390525
 40
0.3820364258059526
 40
0.4458741727891327
 40
0.5176221653506873
 40
0.6022179192141446
 40
0.6795197091277192
 40
0.736524699774432
 40
0.7976386388703267
 40
0.8600961011421293
 40
0.9330007302298122
 40
1.0
 40
1.0
 40
1.0
 40
1.0
 10
179.508334263248
 20
67.2417595410241
 30
0.0
 10
179.5970226812144
 20
66.799201615491
 30
0.0
 10
179.7544967897768
 20
66.02101389997442
 30
0.0
 10
180.4077944141227
 20
65.3682353497184
 30
0.0
 10
179.7054570415775
 20
64.48039240349704
 30
0.0
 10
178.7186951778263
 20
63.97364549188018
 30
0.0
 10
178.0498589940456
 20
62.88977681320637
 30
0.0
 10
177.4236124442567
 20
61.96565003242362
 30
0.0
 10
176.8987161721855
 20
61.02684535357931
 30
0.0
 10
175.8733270436702
 20
59.96553069214804
 30
0.0
 10
173.9381051779498
 20
60.07281457297237
 30
0.0
 10
172.4383687748628
 20
60.03894447642671
 30
0.0
 10
171.4218442971602
 20
60.26742444584153
 30
0.0
 10
170.986776336868
 20
59.17650337686379
 30
0.0
 10
170.197664472997
 20
58.56080188845407
 30
0.0
 10
168.9672388099781
 20
57.88305764321852
 30
0.0
 10
168.271606778521
 20
57.49956589050656
 30
0.0
 10
167.9383628308294
 20
57.32270170345203
 30
0.0
  0
SPLINE
  5
10000069
102
{ACAD_XDICTIONARY
360
1000006A
102
}
330
1F
100
AcDbEntity
  8
MODELSKETCH_VISIBLE
100
AcDbSpline
210
0.0
220
0.0
230
1.0
 70
     8
 71
     3
 72
    17
 73
    13
 74
     0
 42
0.000000001
 43
0.00000001
 40
0.0
 40
0.0
 40
0.0
 40
0.0
 40
0.0965556510053568
 40
0.2143244002564084
 40
0.3234608623121653
 40
0.4256783661158513
 40
0.517713703123967
 40
0.602895391476141
 40
0.6762653716645161
 40
0.8237108302923901
 40
0.9082585879509338
 40
1.0
 40
1.0
 40
1.0
 40
1.0
 10
136.8827372789383
 20
96.87105566263199
 30
0.0
 10
137.2321564216698
 20
97.24708049004225
 30
0.0
 10
138.1162857195537
 20
97.6604465434405
 30
0.0
 10
139.7449803499146
 20
99.2611061129055
 30
0.0
 10
142.076412343923
 20
98.94246494767829
 30
0.0
 10
142.3783894804803
 20
97.29994166945326
 30
0.0
 10
142.2982449472942
 20
95.13984093188019
 30
0.0
 10
143.2055859437843
 20
96.88283040104663
 30
0.0
 10
142.6324686843536
 20
98.01883783844899
 30
0.0
 10
146.6436320927247
 20
98.07063076443012
 30
0.0
 10
147.7482205534345
 20
97.98296882232889
 30
0.0
 10
148.1021791696548
 20
97.16835618019104
 30
0.0
 10
148.6141979694366
 20
96.87105566263199
 30
0.0
  0
SPLINE
  5
1000006C
102
{ACAD_XDICTIONARY
360
1000006D
102
}
330
1F
100
AcDbEntity
  8
MODELSKETCH_VISIBLE
100
AcDbSpline
210
0.0
220
0.0
230
1.0
 70
     8
 71
     3
 72
    39
 73
    35
 74
     0
 42
0.000000001
 43
0.00000001
 40
0.0
 40
0.0
 40
0.0
 40
0.0
 40
0.0252603907395668
 40
0.051561477247891
 40
0.0838416020968434
 40
0.1122903978194595
 40
0.1452247226472887
 40
0.1747209315222873
 40
0.2064873842140622
 40
0.2411482659538977
 40
0.2757039325936375
 40
0.3060120306765906
 40
0.3461205054902114
 40
0.3827846456222109
 40
0.415640016623256
 40
0.4486824779978939
 40
0.484239208299321
 40
0.5090678005171325
 40
0.5374100460820197
 40
0.5591590418646687
 40
0.5986277045198155
 40
0.6337383368898595
 40
0.6673607374563884
 40
0.7039165692559001
 40
0.739848840608851
 40
0.7700064699596685
 40
0.794119975620184
 40
0.8305672018015665
 40
0.8612972249223619
 40
0.8922823605898728
 40
0.9261689114617917
 40
0.95180176799769
 40
0.9764934284272572
 40
1.0
 40
1.0
 40
1.0
 40
1.0
 10
96.89095616340637
 20
96.0053950548172
 30
0.0
 10
96.61505652633235
 20
96.22636556903359
 30
0.0
 10
96.05188994733803
 20
96.67741077470906
 30
0.0
 10
94.89512105625218
 20
96.73754158132736
 30
0.0
 10
93.22653005808954
 20
96.29232183727947
 30
0.0
 10
92.1866371510111
 20
95.50114074291886
 30
0.0
 10
90.33625981458877
 20
95.4726896842321
 30
0.0
 10
88.95106336843273
 20
95.87267745251896
 30
0.0
 10
87.40659221752765
 20
95.03079001410615
 30
0.0
 10
85.46471056807367
 20
95.10616055510854
 30
0.0
 10
83.56365865979289
 20
95.54057497635502
 30
0.0
 10
82.15882074543752
 20
96.31436935519882
 30
0.0
 10
79.62680453131627
 20
95.16047247967761
 30
0.0
 10
77.8765495904812
 20
94.05167700456522
 30
0.0
 10
76.4791429089144
 20
92.90144416919969
 30
0.0
 10
75.16641357246343
 20
91.80449732728773
 30
0.0
 10
73.52260206672693
 20
90.58835222887872
 30
0.0
 10
72.67522257129792
 20
89.88719010562387
 30
0.0
 10
71.33063472890709
 20
90.55789604248231
 30
0.0
 10
70.42976072740026
 20
89.95211529469857
 30
0.0
 10
69.05225441494252
 20
92.55565958394796
 30
0.0
 10
67.311739625839
 20
93.32298606331376
 30
0.0
 10
65.70342817478645
 20
94.29614560928428
 30
0.0
 10
64.24904155611834
 20
95.95127189851937
 30
0.0
 10
63.52023681552875
 20
97.79955263922884
 30
0.0
 10
63.22961208573133
 20
99.54079899532145
 30
0.0
 10
61.69397704866236
 20
99.25563730899243
 30
0.0
 10
62.00924769153239
 20
101.9191026969258
 30
0.0
 10
62.69299373406606
 20
103.1202946758697
 30
0.0
 10
63.69650073344406
 20
104.387643914044
 30
0.0
 10
63.96744064317041
 20
106.2394231163484
 30
0.0
 10
63.91534225815209
 20
107.3775411428473
 30
0.0
 10
63.04282505269444
 20
108.0042759887055
 30
0.0
 10
62.65276277808565
 20
108.4542498575359
 30
0.0
 10
62.46262212157921
 20
108.6737714069855
 30
0.0
  0
SPLINE
  5
1000006F
102
{ACAD_XDICTIONARY
360
10000070
102
}
330
1F
100
AcDbEntity
  8
MODELSKETCH_VISIBLE
100
AcDbSpline
210
0.0
220
0.0
230
1.0
 70
    11
 71
     3
 72
    20
 73
    16
 74
     0
 42
0.000000001
 43
0.00000001
 40
0.0
 40
0.0
 40
0.0
 40
0.0
 40
0.0687646462241796
 40
0.1448262221283871
 40
0.2310731072728872
 40
0.3028740218967411
 40
0.3866905360243643
 40
0.4548330202889771
 40
0.5259372495489564
 40
0.6039432812824849
 40
0.6915704938162844
 40
0.7766635397693074
 40
0.8592358630337421
 40
0.9434805345976601
 40
1.0
 40
1.0
 40
1.0
 40
1.0
 10
170.5006211996079
 20
42.91483014822006
 30
0.0
 10
170.4788852400745
 20
43.16033503769665
 30
0.0
 10
170.3126303684953
 20
43.81569404046
 30
0.0
 10
169.3962287571026
 20
44.36606299662996
 30
0.0
 10
167.9858510879546
 20
44.47108148388646
 30
0.0
 10
167.249777977846
 20
43.87677100563833
 30
0.0
 10
166.0349102640245
 20
43.62454632901681
 30
0.0
 10
165.0757349372535
 20
43.39222665081725
 30
0.0
 10
165.2270356485873
 20
42.24756765304974
 30
0.0
 10
165.9769173285944
 20
41.49385605394566
 30
0.0
 10
167.1504235693774
 20
40.68417377736306
 30
0.0
 10
168.5063438031999
 20
40.82326934082189
 30
0.0
 10
169.6154572614572
 20
41.27018406980116
 30
0.0
 10
170.4667356187425
 20
42.32096654058544
 30
0.0
 10
170.5184865545583
 20
42.713043243629
 30
0.0
 10
170.5006211996079
 20
42.91483014822006
 30
0.0
  0
SPLINE
  5
10000072
102
{ACAD_XDICTIONARY
360
10000073
102
}
330
1F
100
AcDbEntity
  8
MODELSKETCH_VISIBLE
100
AcDbSpline
210
0.0
220
0.0
230
1.0
 70
    11
 71
     3
 72
    16
 73
    12
 74
     0
 42
0.000000001
 43
0.00000001
 40
0.0
 40
0.0
 40
0.0
 40
0.0
 40
0.111154427564594
 40
0.2200122417645048
 40
0.3272673115832134
 40
0.4403147093073906
 40
0.5528921300889728
 40
0.6677075568800848
 40
0.7936441133879972
 40
0.9082427308662969
 40
1.0
 40
1.0
 40
1.0
 40
1.0
 10
163.4055376052856
 20
50.82639679312705
 30
0.0
 10
163.5497468270374
 20
50.70933708044879
 30
0.0
 10
163.6290468051884
 20
50.09157863209006
 30
0.0
 10
163.5664664220114
 20
49.40776662364168
 30
0.0
 10
163.0471247521781
 20
48.91340731319928
 30
0.0
 10
162.3469726212033
 20
48.53488587670897
 30
0.0
 10
161.534767051978
 20
48.9222205963931
 30
0.0
 10
161.485603588666
 20
49.84344865684741
 30
0.0
 10
162.2002928973796
 20
50.51398559965618
 30
0.0
 10
162.8591684281864
 20
50.84144089785558
 30
0.0
 10
163.2864938149324
 20
50.92302883735842
 30
0.0
 10
163.4055376052856
 20
50.82639679312705
 30
0.0
  0
SPLINE
  5
10000075
102
{ACAD_XDICTIONARY
360
10000076
102
}
330
1F
100
AcDbEntity
  8
MODELSKETCH_VISIBLE
100
AcDbSpline
210
0.0
220
0.0
230
1.0
 70
     8
 71
     3
 72
    22
 73
    18
 74
     0
 42
0.000000001
 43
0.00000001
 40
0.0
 40
0.0
 40
0.0
 40
0.0
 40
0.0502761291573546
 40
0.1131159234459
 40
0.1821257206526485
 40
0.2583025124224579
 40
0.3357774561659165
 40
0.4129849333505852
 40
0.4703783003128364
 40
0.5408936208970153
 40
0.6004167465266506
 40
0.6595767675359137
 40
0.744960511110789
 40
0.8144261181093221
 40
0.8811602067216874
 40
0.9633812662875711
 40
1.0
 40
1.0
 40
1.0
 40
1.0
 10
191.4399104448855
 20
51.21490814939818
 30
0.0
 10
191.3208151563915
 20
50.82496927925249
 30
0.0
 10
191.2019285696637
 20
50.07840655461252
 30
0.0
 10
191.4097890806594
 20
47.45402211021579
 30
0.0
 10
194.618235460082
 20
48.55689332292037
 30
0.0
 10
195.6066138028385
 20
45.02269969463223
 30
0.0
 10
199.0769989487552
 20
45.13973205731656
 30
0.0
 10
201.4707474922452
 20
46.69332581377775
 30
0.0
 10
202.93210059533
 20
47.99278813857129
 30
0.0
 10
201.7178597810049
 20
50.43301434392965
 30
0.0
 10
200.6373816323441
 20
51.94140247882596
 30
0.0
 10
202.3128500911224
 20
53.98909033044358
 30
0.0
 10
198.1979017178042
 20
55.73540431104426
 30
0.0
 10
195.9423332991122
 20
55.54536918633283
 30
0.0
 10
193.934250599366
 20
54.72746921922668
 30
0.0
 10
191.708694016058
 20
52.05081070688226
 30
0.0
 10
191.5728449592675
 20
51.59380845604163
 30
0.0
 10
191.5013245712846
 20
51.39810044358978
 30
0.0
  0
LINE
  5
10000078
102
{ACAD_XDICTIONARY
360
10000079
102
}
330
1F
100
AcDbEntity
  8
MODELSKETCH_VISIBLE
100
AcDbLine
 10
152.2141176660643
 20
92.97762798197773
 30
0.0
 11
152.333658536689
 21
92.61040294989392
 31
0.0
  0
SPLINE
  5
1000007B
102
{ACAD_XDICTIONARY
360
1000007C
102
}
330
1F
100
AcDbEntity
  8
MODELSKETCH_VISIBLE
100
AcDbSpline
210
0.0
220
0.0
230
1.0
 70
     8
 71
     3
 72
    16
 73
    12
 74
     0
 42
0.000000001
 43
0.00000001
 40
0.0
 40
0.0
 40
0.0
 40
0.0
 40
0.0914223292749478
 40
0.2020745541528341
 40
0.3109807434912613
 40
0.4348021910349494
 40
0.5309230348056282
 40
0.6497285019382535
 40
0.793462391382303
 40
0.8931881356469531
 40
1.0
 40
1.0
 40
1.0
 40
1.0
 10
154.2150170456888
 20
92.94976592453817
 30
0.0
 10
154.3334382110673
 20
92.41338163504027
 30
0.0
 10
154.2576908576644
 20
91.24364009973417
 30
0.0
 10
157.1023492981948
 20
91.10735999381838
 30
0.0
 10
158.0909161076976
 20
93.0014730824464
 30
0.0
 10
161.7346054864464
 20
92.66148772778394
 30
0.0
 10
160.594912136788
 20
95.20130382194061
 30
0.0
 10
158.2103813012511
 20
95.47125943488791
 30
0.0
 10
154.8616374084826
 20
96.51495143639279
 30
0.0
 10
152.6548119124885
 20
95.17023801308686
 30
0.0
 10
153.8550633171943
 20
93.99465537325531
 30
0.0
 10
154.1083008050939
 20
93.31930428742777
 30
0.0
  0
SPLINE
  5
1000007E
102
{ACAD_XDICTIONARY
360
1000007F
102
}
330
1F
100
AcDbEntity
  8
MODELSKETCH_VISIBLE
100
AcDbSpline
210
0.0
220
0.0
230
1.0
 70
    11
 71
     3
 72
    19
 73
    15
 74
     0
 42
0.000000001
 43
0.00000001
 40
0.0
 40
0.0
 40
0.0
 40
0.0
 40
0.0840338959977539
 40
0.1637170135472967
 40
0.2467527163602123
 40
0.3285311524330493
 40
0.4049930408336943
 40
0.4879730343725626
 40
0.5803861166079424
 40
0.669239819027007
 40
0.7535491517783576
 40
0.8421813264345238
 40
0.9321728209789745
 40
1.0
 40
1.0
 40
1.0
 40
1.0
 10
162.0818972587585
 20
47.52636328339577
 30
0.0
 10
162.3497105822411
 20
47.56215886327026
 30
0.0
 10
163.08290773383
 20
47.29303409512984
 30
0.0
 10
163.7670996503043
 20
46.82313045351213
 30
0.0
 10
164.458746503581
 20
46.0673521249432
 30
0.0
 10
164.4782195938716
 20
45.11732679040807
 30
0.0
 10
164.2955021039151
 20
44.2172583479113
 30
0.0
 10
163.2741844010063
 20
43.93961498502487
 30
0.0
 10
162.1492422931892
 20
43.67792317118778
 30
0.0
 10
160.9947392111419
 20
44.1149615495049
 30
0.0
 10
160.7065425939664
 20
45.16396485043838
 30
0.0
 10
160.8270095183817
 20
46.25852223063624
 30
0.0
 10
161.5272815900511
 20
47.16658990969175
 30
0.0
 10
161.8657342209702
 20
47.49747121341042
 30
0.0
 10
162.0818972587585
 20
47.52636328339577
 30
0.0
  0
SPLINE
  5
10000081
102
{ACAD_XDICTIONARY
360
10000082
102
}
330
1F
100
AcDbEntity
  8
MODELSKETCH_VISIBLE
100
AcDbSpline
210
0.0
220
0.0
230
1.0
 70
     8
 71
     3
 72
    36
 73
    32
 74
     0
 42
0.000000001
 43
0.00000001
 40
0.0
 40
0.0
 40
0.0
 40
0.0
 40
0.0246333651755931
 40
0.0560798738216517
 40
0.0852654469134206
 40
0.1199402891881142
 40
0.1533631832852749
 40
0.1923005304658253
 40
0.2298355191302171
 40
0.2646668527598127
 40
0.304088064509957
 40
0.3418223124168116
 40
0.3709549154913772
 40
0.3994985301399769
 40
0.4355784565688274
 40
0.4694090125254816
 40
0.5021051396126848
 40
0.5405536796240483
 40
0.574850900462684
 40
0.6203819461530309
 40
0.6565141255426423
 40
0.6986478157073214
 40
0.7292557044268176
 40
0.7761344906132471
 40
0.7948462995765603
 40
0.8287895940610269
 40
0.869894452268505
 40
0.9084705602845624
 40
0.9381485263913705
 40
0.9693882716655298
 40
1.0
 40
1.0
 40
1.0
 40
1.0
 10
131.6363662481308
 20
51.64303258061409
 30
0.0
 10
131.5563813780392
 20
52.02978935017929
 30
0.0
 10
131.3742892688043
 20
52.91027281974495
 30
0.0
 10
132.9883013715715
 20
54.2357841578642
 30
0.0
 10
133.1073739713001
 20
56.07209623356957
 30
0.0
 10
131.3027162900919
 20
57.86606409344267
 30
0.0
 10
129.2948840830605
 20
58.32321183527868
 30
0.0
 10
126.1524183417972
 20
58.76312109668184
 30
0.0
 10
124.31350905953
 20
56.55199817902891
 30
0.0
 10
122.6025012829478
 20
54.71210134461522
 30
0.0
 10
119.5129798231811
 20
55.2300527293
 30
0.0
 10
116.7865379489632
 20
55.46840885785266
 30
0.0
 10
115.6014552038014
 20
56.910522038049
 30
0.0
 10
115.5640347743831
 20
58.66874084870029
 30
0.0
 10
112.6514315565083
 20
59.6733139333796
 30
0.0
 10
113.4542732291412
 20
62.3987036772261
 30
0.0
 10
111.4838271744593
 20
63.59931566551831
 30
0.0
 10
108.9861763460945
 20
65.0343471237011
 30
0.0
 10
106.7985545798837
 20
65.1169058539412
 30
0.0
 10
102.906766642629
 20
66.18259856545173
 30
0.0
 10
100.5127512907809
 20
67.11072423094694
 30
0.0
 10
97.44566846121849
 20
64.59295324702595
 30
0.0
 10
95.90246464954146
 20
64.90426732928195
 30
0.0
 10
92.0670701795899
 20
61.64446522788744
 30
0.0
 10
93.13214551144478
 20
61.11269426807613
 30
0.0
 10
93.98580667626008
 20
58.71368403598103
 30
0.0
 10
91.84881948531556
 20
56.0163721194435
 30
0.0
 10
89.15663725405585
 20
54.9739422317463
 30
0.0
 10
88.50021505344111
 20
52.96612963129925
 30
0.0
 10
90.0471994127181
 20
51.4204887098092
 30
0.0
 10
91.16947700810427
 20
51.28995660144386
 30
0.0
 10
91.81665434947043
 20
51.22309195823021
 30
0.0
  0
LINE
  5
10000084
102
{ACAD_XDICTIONARY
360
10000085
102
}
330
1F
100
AcDbEntity
  8
MODELSKETCH_VISIBLE
100
AcDbLine
 10
74.05143587538535
 20
77.43696670269263
 30
0.0
 11
74.28651303052902
 21
77.20935344696045
 31
0.0
  0
SPLINE
  5
10000087
102
{ACAD_XDICTIONARY
360
10000088
102
}
330
1F
100
AcDbEntity
  8
MODELSKETCH_VISIBLE
100
AcDbSpline
210
0.0
220
0.0
230
1.0
 70
     8
 71
     3
 72
    11
 73
     7
 74
     0
 42
0.000000001
 43
0.00000001
 40
0.0
 40
0.0
 40
0.0
 40
0.0
 40
0.3094092874743478
 40
0.5757040033929033
 40
0.850089386361981
 40
1.0
 40
1.0
 40
1.0
 40
1.0
 10
80.95384389162064
 20
76.51559263467789
 30
0.0
 10
80.14032101505306
 20
76.36093548987948
 30
0.0
 10
78.6044249701989
 20
76.09707622259005
 30
0.0
 10
76.5304464719461
 20
75.61088849945116
 30
0.0
 10
75.62746915252816
 20
77.73321040958028
 30
0.0
 10
75.33243278455683
 20
77.98586258877765
 30
0.0
 10
75.19566132285175
 20
78.11579272628249
 30
0.0
  0
SPLINE
  5
1000008A
102
{ACAD_XDICTIONARY
360
1000008B
102
}
330
1F
100
AcDbEntity
  8
MODELSKETCH_VISIBLE
100
AcDbSpline
210
0.0
220
0.0
230
1.0
 70
     8
 71
     3
 72
    28
 73
    24
 74
     0
 42
0.000000001
 43
0.00000001
 40
0.0
 40
0.0
 40
0.0
 40
0.0
 40
0.0499509733093275
 40
0.1034280538143023
 40
0.157780425283038
 40
0.2094704126957029
 40
0.269817223972951
 40
0.334545461054242
 40
0.3774941822920729
 40
0.4291821598103234
 40
0.4799881578722449
 40
0.5270443120017505
 40
0.5651915494533357
 40
0.6084753179192005
 40
0.6464283637134111
 40
0.6832983150036444
 40
0.729005328965663
 40
0.7744821114238245
 40
0.8227762358879946
 40
0.871674600319154
 40
0.9147288559041932
 40
0.9576996267479048
 40
1.0
 40
1.0
 40
1.0
 40
1.0
 10
174.8044192790985
 20
53.04526537656784
 30
0.0
 10
174.3118153335064
 20
53.7493802560249
 30
0.0
 10
173.2918338593051
 20
55.20731444267142
 30
0.0
 10
170.6258071951522
 20
56.7004072250726
 30
0.0
 10
167.611091630095
 20
57.27373689746642
 30
0.0
 10
164.9936620048352
 20
58.68956658982592
 30
0.0
 10
161.3460918317191
 20
57.76194302161707
 30
0.0
 10
156.7573758819653
 20
58.04918341712754
 30
0.0
 10
155.4676338947569
 20
56.2081208052717
 30
0.0
 10
152.3914491801208
 20
56.38290509857409
 30
0.0
 10
150.2600094002287
 20
54.74219100705889
 30
0.0
 10
148.8671065356187
 20
52.6961351026938
 30
0.0
 10
149.2305614194445
 20
51.09686426117585
 30
0.0
 10
147.8718415474782
 20
49.37760422472865
 30
0.0
 10
146.2924738890696
 20
49.16513658335885
 30
0.0
 10
145.5383825586746
 20
47.59488686382782
 30
0.0
 10
143.0095728336286
 20
48.14873823680524
 30
0.0
 10
141.5845948178681
 20
49.68239757308665
 30
0.0
 10
139.4250944252653
 20
50.86333406233418
 30
0.0
 10
136.9057101860244
 20
51.27298467086477
 30
0.0
 10
135.0740291573846
 20
50.8228027147054
 30
0.0
 10
133.0186113574641
 20
50.16542912024849
 30
0.0
 10
132.0946933517525
 20
51.1530863983358
 30
0.0
 10
131.6363662481308
 20
51.64303258061409
 30
0.0
  0
LINE
  5
1000008D
102
{ACAD_XDICTIONARY
360
1000008E
102
}
330
1F
100
AcDbEntity
  8
MODELSKETCH_VISIBLE
100
AcDbLine
 10
191.5013245712846
 20
51.39810044358978
 30
0.0
 11
191.4399104448855
 21
51.21490814939818
 31
0.0
  0
LINE
  5
10000090
102
{ACAD_XDICTIONARY
360
10000091
102
}
330
1F
100
AcDbEntity
  8
MODELSKETCH_VISIBLE
100
AcDbLine
 10
154.1083008050939
 20
93.31930428742777
 30
0.0
 11
154.2150170456888
 21
92.94976592453817
 31
0.0
  0
SPLINE
  5
10000093
102
{ACAD_XDICTIONARY
360
10000094
102
}
330
1F
100
AcDbEntity
  8
MODELSKETCH_VISIBLE
100
AcDbSpline
210
0.0
220
0.0
230
1.0
 70
     8
 71
     3
 72
    17
 73
    13
 74
     0
 42
0.000000001
 43
0.00000001
 40
0.0
 40
0.0
 40
0.0
 40
0.0
 40
0.090237805996144
 40
0.19319857914872
 40
0.2875820089311642
 40
0.3909874380159697
 40
0.4812904501055734
 40
0.5685108548255586
 40
0.6664396336346633
 40
0.7737013502461478
 40
0.9206956429973253
 40
1.0
 40
1.0
 40
1.0
 40
1.0
 10
100.6722301244736
 20
89.18474614620209
 30
0.0
 10
100.1850270213497
 20
88.56645108215524
 30
0.0
 10
99.15950101746691
 20
87.264992576324
 30
0.0
 10
95.92336222185573
 20
87.3756743446804
 30
0.0
 10
93.74490054784411
 20
86.20524976360332
 30
0.0
 10
90.983354530201
 20
85.19892745785559
 30
0.0
 10
89.11193015811524
 20
83.00816053144445
 30
0.0
 10
91.0830245043555
 20
81.10916774498531
 30
0.0
 10
90.43490312818388
 20
78.40343494702877
 30
0.0
 10
89.40396939956666
 20
74.47145326467718
 30
0.0
 10
82.57017030306687
 20
76.17354921147327
 30
0.0
 10
81.47391225335919
 20
76.40350415921644
 30
0.0
 10
80.95384389162064
 20
76.51559263467789
 30
0.0
  0
SPLINE
  5
10000096
102
{ACAD_XDICTIONARY
360
10000097
102
}
330
1F
100
AcDbEntity
  8
MODELSKETCH_VISIBLE
100
AcDbSpline
210
0.0
220
0.0
230
1.0
 70
    11
 71
     3
 72
    11
 73
     7
 74
     0
 42
0.000000001
 43
0.00000001
 40
0.0
 40
0.0
 40
0.0
 40
0.0
 40
0.2085521383556588
 40
0.4896844729681074
 40
0.7315553624555532
 40
1.0
 40
1.0
 40
1.0
 40
1.0
 10
94.65260803699493
 20
84.42196995019913
 30
0.0
 10
94.79028172209838
 20
84.32431915542902
 30
0.0
 10
95.18642470738004
 20
84.35534173653934
 30
0.0
 10
95.12948040244794
 20
85.40684436374062
 30
0.0
 10
94.23628255158317
 20
85.13579170148796
 30
0.0
 10
94.47539689551061
 20
84.54766433249924
 30
0.0
 10
94.65260803699493
 20
84.42196995019913
 30
0.0
  0
LINE
  5
10000099
102
{ACAD_XDICTIONARY
360
1000009A
102
}
330
1F
100
AcDbEntity
  8
MODELSKETCH_VISIBLE
100
AcDbLine
 10
42.719665914774
 20
204.8572748899459
 30
0.0
 11
42.719665914774
 21
187.9807114601135
 31
0.0
  0
SPLINE
  5
1000009C
102
{ACAD_XDICTIONARY
360
1000009D
102
}
330
1F
100
AcDbEntity
  8
MODELSKETCH_VISIBLE
100
AcDbSpline
210
0.0
220
0.0
230
1.0
 70
     8
 71
     3
 72
    22
 73
    18
 74
     0
 42
0.000000001
 43
0.00000001
 40
0.0
 40
0.0
 40
0.0
 40
0.0
 40
0.0755203165428602
 40
0.1526660448992891
 40
0.2387881653307275
 40
0.2798165949480156
 40
0.3446382484249963
 40
0.431357834160907
 40
0.504350224015077
 40
0.5846400317679293
 40
0.6505424857443596
 40
0.7175517543189354
 40
0.8004343187750798
 40
0.8718225143333581
 40
0.9276175524039012
 40
0.9876307733944152
 40
1.0
 40
1.0
 40
1.0
 40
1.0
 10
187.1484816074371
 20
26.13266929984093
 30
0.0
 10
186.4046218995319
 20
25.36658280664734
 30
0.0
 10
184.9090368085611
 20
23.82630911407349
 30
0.0
 10
181.9965694156467
 20
22.55433317204983
 30
0.0
 10
177.890863373409
 20
22.37011202903723
 30
0.0
 10
176.5347351405361
 20
23.79079288662614
 30
0.0
 10
179.8764027353411
 20
23.43288844163419
 30
0.0
 10
182.6197615030914
 20
26.63096772462021
 30
0.0
 10
183.6867976596477
 20
29.33240196879563
 30
0.0
 10
182.9121163751654
 20
33.06914991525722
 30
0.0
 10
181.2481397985541
 20
34.80358191156253
 30
0.0
 10
179.9498278239733
 20
37.14028171338796
 30
0.0
 10
176.483645089708
 20
38.24431438485772
 30
0.0
 10
172.8753886954013
 20
38.58271143420196
 30
0.0
 10
174.1610735512298
 20
40.7448752207432
 30
0.0
 10
172.3660936719285
 20
42.31931031818271
 30
0.0
 10
172.4764887293353
 20
42.41656917524983
 30
0.0
 10
172.4815517663955
 20
42.4436405301094
 30
0.0
  0
LINE
  5
1000009F
102
{ACAD_XDICTIONARY
360
100000A0
102
}
330
1F
100
AcDbEntity
  8
MODELSKETCH_VISIBLE
100
AcDbLine
 10
188.3176450387387
 20
51.89435373624139
 30
0.0
 11
188.2314319463889
 21
51.71502695941158
 31
0.0
  0
LINE
  5
100000A2
102
{ACAD_XDICTIONARY
360
100000A3
102
}
330
1F
100
AcDbEntity
  8
MODELSKETCH_VISIBLE
100
AcDbLine
 10
74.94298247609474
 20
78.3258567386233
 30
0.0
 11
75.19566132285175
 21
78.11579272628249
 31
0.0
  0
SPLINE
  5
100000A5
102
{ACAD_XDICTIONARY
360
100000A6
102
}
330
1F
100
AcDbEntity
  8
MODELSKETCH_VISIBLE
100
AcDbSpline
210
0.0
220
0.0
230
1.0
 70
     8
 71
     3
 72
    50
 73
    46
 74
     0
 42
0.000000001
 43
0.00000001
 40
0.0
 40
0.0
 40
0.0
 40
0.0
 40
0.0203578583162533
 40
0.0398708482701259
 40
0.0619093833312427
 40
0.0809327474928869
 40
0.1074608671616917
 40
0.1219762126662278
 40
0.1386637397228254
 40
0.1565045787624822
 40
0.1789383649472762
 40
0.2008468959656061
 40
0.2223154047724418
 40
0.2459057582780342
 40
0.2759574290294113
 40
0.3025288361476386
 40
0.3329304824407258
 40
0.3601635498859896
 40
0.3894426563939379
 40
0.4166474193393997
 40
0.4441445079961641
 40
0.4663966567269913
 40
0.4926021709498651
 40
0.5172700038116059
 40
0.5359048925063398
 40
0.5605939715915393
 40
0.5771576669747632
 40
0.6041709217456782
 40
0.6288876742120703
 40
0.6522872707660826
 40
0.6771045309372117
 40
0.7017260591789083
 40
0.7231935584350433
 40
0.7442074600761827
 40
0.7742150875489865
 40
0.8070284055607793
 40
0.8303061384094917
 40
0.8550737017128324
 40
0.880811509864259
 40
0.9035506442840427
 40
0.9216047291532449
 40
0.930479349061403
 40
0.9550152027211912
 40
0.9791503211446554
 40
1.0
 40
1.0
 40
1.0
 40
1.0
 10
91.81665434947043
 20
51.22309195823021
 30
0.0
 10
91.59545432378158
 20
50.68202908315688
 30
0.0
 10
91.16223426081716
 20
49.62235790058341
 30
0.0
 10
90.406356493725
 20
48.1137042642124
 30
0.0
 10
88.0181948993897
 20
47.73128476305718
 30
0.0
 10
86.96782030306143
 20
48.88679482249657
 30
0.0
 10
83.38656554883616
 20
47.53664154642347
 30
0.0
 10
83.74026480324517
 20
49.22872307998224
 30
0.0
 10
82.30139965406667
 20
49.33503503927072
 30
0.0
 10
81.17321149821481
 20
50.1944975046928
 30
0.0
 10
81.0008369879794
 20
52.54983656819596
 30
0.0
 10
79.13795237416618
 20
53.47749446637786
 30
0.0
 10
77.47209291054263
 20
55.05415471621227
 30
0.0
 10
78.44522081077965
 20
57.23761612066776
 30
0.0
 10
78.00013044184374
 20
62.12173637557866
 30
0.0
 10
82.00626033275283
 20
60.76128151973669
 30
0.0
 10
85.3940297347887
 20
62.70369732598179
 30
0.0
 10
88.06461814678141
 20
64.33388925404346
 30
0.0
 10
92.09158408876323
 20
63.55314755691942
 30
0.0
 10
94.05784048835504
 20
66.24298934574198
 30
0.0
 10
96.0920545469595
 20
68.92491105960426
 30
0.0
 10
95.14502777415433
 20
71.22721430731438
 30
0.0
 10
92.720350831608
 20
72.73525058306778
 30
0.0
 10
90.4959652039515
 20
74.04813824579384
 30
0.0
 10
89.86169068133249
 20
75.72989398651723
 30
0.0
 10
91.75493541774702
 20
77.74168533515743
 30
0.0
 10
93.0114375117224
 20
78.43207344586087
 30
0.0
 10
91.28726793136673
 20
81.64309841753462
 30
0.0
 10
92.51881176721551
 20
84.00172701192184
 30
0.0
 10
94.27743010241628
 20
85.7962802659303
 30
0.0
 10
97.05982024593285
 20
85.43313481878846
 30
0.0
 10
99.14124833203633
 20
87.22140587623576
 30
0.0
 10
101.22214519541
 20
86.83690914580862
 30
0.0
 10
103.0345339870346
 20
88.52597087444856
 30
0.0
 10
101.627087448494
 20
92.16126303044054
 30
0.0
 10
106.3636337576182
 20
97.20075745299381
 30
0.0
 10
102.3281786539577
 20
95.4325710317015
 30
0.0
 10
101.3140024383583
 20
92.51275715775095
 30
0.0
 10
98.75152008876198
 20
94.56502713316722
 30
0.0
 10
96.45851934053151
 20
96.88740604805292
 30
0.0
 10
97.0739139641627
 20
94.52419857554723
 30
0.0
 10
97.3753838119486
 20
94.4934151028054
 30
0.0
 10
99.57009666096513
 20
92.96779456674332
 30
0.0
 10
101.1851820841251
 20
91.1224265076019
 30
0.0
 10
100.8346812329955
 20
89.79840658115671
 30
0.0
 10
100.6722301244736
 20
89.18474614620209
 30
0.0
  0
SPLINE
  5
100000A8
102
{ACAD_XDICTIONARY
360
100000A9
102
}
330
1F
100
AcDbEntity
  8
MODELSKETCH_VISIBLE
100
AcDbSpline
210
0.0
220
0.0
230
1.0
 70
     8
 71
     3
 72
    21
 73
    17
 74
     0
 42
0.000000001
 43
0.00000001
 40
0.0
 40
0.0
 40
0.0
 40
0.0
 40
0.0677754113998782
 40
0.1311016940210888
 40
0.2001324309024625
 40
0.2769390662056624
 40
0.3691518720460258
 40
0.4357058770238026
 40
0.4931778169745231
 40
0.5563900479593119
 40
0.6394201538897943
 40
0.714460278936183
 40
0.7855754622390306
 40
0.8527328215082915
 40
0.9306893863024055
 40
1.0
 40
1.0
 40
1.0
 40
1.0
 10
104.8741787672043
 20
96.21556103229523
 30
0.0
 10
105.2518513553877
 20
96.43435835406036
 30
0.0
 10
105.9824041484063
 20
96.85759000899553
 30
0.0
 10
107.0442977468499
 20
96.51466946406599
 30
0.0
 10
108.4368983381291
 20
96.31744183556664
 30
0.0
 10
109.5732257470416
 20
97.497679474385
 30
0.0
 10
111.1177324785048
 20
99.08955209191144
 30
0.0
 10
111.9159176087102
 20
99.95394514680866
 30
0.0
 10
112.282896015724
 20
100.8648229958154
 30
0.0
 10
111.6222239105066
 20
102.0794371769689
 30
0.0
 10
113.5117793324239
 20
103.097529084616
 30
0.0
 10
114.348305328745
 20
104.2816505082936
 30
0.0
 10
115.8341212686851
 20
104.5531341100171
 30
0.0
 10
116.5708093760144
 20
105.5161138558117
 30
0.0
 10
117.6238525007676
 20
106.8553982774641
 30
0.0
 10
117.483213621375
 20
107.7588207106989
 30
0.0
 10
117.4170225858688
 20
108.1840122837092
 30
0.0
  0
SPLINE
  5
100000AB
102
{ACAD_XDICTIONARY
360
100000AC
102
}
330
1F
100
AcDbEntity
  8
MODELSKETCH_VISIBLE
100
AcDbSpline
210
0.0
220
0.0
230
1.0
 70
     8
 71
     3
 72
    49
 73
    45
 74
     0
 42
0.000000001
 43
0.00000001
 40
0.0
 40
0.0
 40
0.0
 40
0.0
 40
0.0183597634712873
 40
0.039121042263789
 40
0.0701123279055143
 40
0.0965411483564489
 40
0.1363406864813614
 40
0.1491061533177409
 40
0.1687056420247659
 40
0.1897378435705145
 40
0.2153459011270591
 40
0.2396985441080199
 40
0.259208957574273
 40
0.2869733755527621
 40
0.3058860854327196
 40
0.3312257257824767
 40
0.3607679105874813
 40
0.3849865132753738
 40
0.4137353598097316
 40
0.4392859415888072
 40
0.4658103994321768
 40
0.4933777233300685
 40
0.521612211932198
 40
0.5513802961451423
 40
0.5767803297338875
 40
0.6062950532523477
 40
0.628613043362279
 40
0.6574677867527953
 40
0.6831243364564479
 40
0.7100573692969193
 40
0.7309242504897319
 40
0.7543480709132566
 40
0.7799128987470301
 40
0.8125836585999006
 40
0.8366768792248545
 40
0.8545080740133943
 40
0.8795746864538071
 40
0.8938341141443399
 40
0.9175957242280665
 40
0.9372818608854585
 40
0.9542140435079255
 40
0.9692855889857559
 40
0.9841011213738492
 40
1.0
 40
1.0
 40
1.0
 40
1.0
 10
62.25034967064857
 20
108.565129339695
 30
0.0
 10
62.67489457250986
 20
108.782413474276
 30
0.0
 10
63.57695049174301
 20
109.2440912917799
 30
0.0
 10
65.4655974477433
 20
109.1935841578133
 30
0.0
 10
68.75606114863265
 20
112.0525942463187
 30
0.0
 10
71.01407789493871
 20
113.1382195104253
 30
0.0
 10
77.8571410159754
 20
112.8143740577476
 30
0.0
 10
78.85427198413441
 20
112.0681890792256
 30
0.0
 10
77.19341030189669
 20
110.9228851397537
 30
0.0
 10
77.30779878288332
 20
108.490553012903
 30
0.0
 10
80.18961661785377
 20
108.1308815000683
 30
0.0
 10
81.86142307720291
 20
104.6900799420291
 30
0.0
 10
82.25368237861251
 20
107.9209065113332
 30
0.0
 10
79.07713960328043
 20
109.0653678631066
 30
0.0
 10
78.24728135413486
 20
110.855196703628
 30
0.0
 10
80.87116119745852
 20
113.0696982464545
 30
0.0
 10
84.4880729678296
 20
111.5742730959443
 30
0.0
 10
86.80711120794082
 20
111.4011621215047
 30
0.0
 10
90.55209453016883
 20
112.2543522736634
 30
0.0
 10
92.56259254692269
 20
110.1236459704249
 30
0.0
 10
95.6492328475037
 20
109.1630842134483
 30
0.0
 10
98.60791689004543
 20
110.9044765547449
 30
0.0
 10
101.9361310182175
 20
110.3928257285891
 30
0.0
 10
105.7148212338816
 20
110.032121199604
 30
0.0
 10
108.1214450666424
 20
109.0480134303091
 30
0.0
 10
112.0020241596252
 20
108.9874155925692
 30
0.0
 10
113.7809594384946
 20
108.1215495189688
 30
0.0
 10
117.8078667073756
 20
108.7994469151618
 30
0.0
 10
119.0987298870789
 20
106.0859237810117
 30
0.0
 10
121.08992651705
 20
103.4397286859685
 30
0.0
 10
123.1697364080164
 20
103.8911429049463
 30
0.0
 10
125.1630182231882
 20
102.2075788015833
 30
0.0
 10
127.881938555012
 20
102.4791454763266
 30
0.0
 10
132.4536281730375
 20
103.742374638325
 30
0.0
 10
134.2585325275968
 20
101.7969001637493
 30
0.0
 10
135.5181237645407
 20
100.3769655214975
 30
0.0
 10
132.9687619782473
 20
98.92868839527942
 30
0.0
 10
132.3302141399065
 20
97.30775792109225
 30
0.0
 10
134.971058391657
 20
99.10796454660137
 30
0.0
 10
136.0356247639473
 20
99.94405856447905
 30
0.0
 10
137.5607356892032
 20
99.78317332049465
 30
0.0
 10
137.7493585716479
 20
98.51379179037608
 30
0.0
 10
136.760537381969
 20
97.9850607424984
 30
0.0
 10
136.8316896067354
 20
97.33234028150729
 30
0.0
 10
136.8827372789383
 20
96.87105566263199
 30
0.0
  0
SPLINE
  5
100000AE
102
{ACAD_XDICTIONARY
360
100000AF
102
}
330
1F
100
AcDbEntity
  8
MODELSKETCH_VISIBLE
100
AcDbSpline
210
0.0
220
0.0
230
1.0
 70
     8
 71
     3
 72
    33
 73
    29
 74
     0
 42
0.000000001
 43
0.00000001
 40
0.0
 40
0.0
 40
0.0
 40
0.0
 40
0.0326158457224267
 40
0.0719067689288975
 40
0.1167631852300109
 40
0.157227222086275
 40
0.1927145914565014
 40
0.2287310817200362
 40
0.264717686315346
 40
0.3006344483508471
 40
0.3381504941485571
 40
0.3747694280025935
 40
0.4213802345550736
 40
0.4551337354020564
 40
0.4934884980530762
 40
0.5320418836084213
 40
0.5712964427264955
 40
0.6150228890868462
 40
0.6523948123719276
 40
0.6871483420543185
 40
0.7208385784574295
 40
0.7549308956787929
 40
0.7860089039247545
 40
0.8160285814088497
 40
0.8581836673487202
 40
0.910178825423858
 40
0.9548049041374008
 40
1.0
 40
1.0
 40
1.0
 40
1.0
 10
127.6579052209854
 20
64.86880779266357
 30
0.0
 10
127.6980384638602
 20
65.16990096895458
 30
0.0
 10
127.7865185188103
 20
65.83370829861506
 30
0.0
 10
128.6750210080419
 20
66.90648424685148
 30
0.0
 10
130.0958647274772
 20
67.89270267777088
 30
0.0
 10
131.1282561670374
 20
68.81465541786544
 30
0.0
 10
131.896229941166
 20
69.82349927052117
 30
0.0
 10
133.1842834273539
 20
69.33469605243444
 30
0.0
 10
134.054823900148
 20
70.20094986967386
 30
0.0
 10
134.9459924893929
 20
70.96846876100588
 30
0.0
 10
134.8416830782055
 20
72.32661399519225
 30
0.0
 10
134.7769827727498
 20
73.42486226781492
 30
0.0
 10
135.469667316683
 20
75.29514877397801
 30
0.0
 10
136.2596923069711
 20
75.93404940514387
 30
0.0
 10
136.4194352152031
 20
77.30524313754049
 30
0.0
 10
136.5264803877851
 20
78.58181106439038
 30
0.0
 10
137.0888196882617
 20
79.8196735956912
 30
0.0
 10
138.1130900783647
 20
81.1345486272097
 30
0.0
 10
138.7376360310058
 20
82.16499365517042
 30
0.0
 10
139.4301022407361
 20
82.98701931055584
 30
0.0
 10
140.2026916871748
 20
83.64049566834566
 30
0.0
 10
141.2962217697096
 20
83.73965402747733
 30
0.0
 10
142.0263656858365
 20
83.23632951974635
 30
0.0
 10
142.9370136151888
 20
83.28120777328584
 30
0.0
 10
144.0940868549501
 20
84.40045257002598
 30
0.0
 10
146.3642300713846
 20
85.0390008520979
 30
0.0
 10
147.953554023276
 20
85.64095656761177
 30
0.0
 10
149.1121172402597
 20
85.96086652237211
 30
0.0
 10
149.6950685977936
 20
86.12183481454848
 30
0.0
  0
SPLINE
  5
100000B1
102
{ACAD_XDICTIONARY
360
100000B2
102
}
330
1F
100
AcDbEntity
  8
MODELSKETCH_VISIBLE
100
AcDbSpline
210
0.0
220
0.0
230
1.0
 70
     8
 71
     3
 72
    32
 73
    28
 74
     0
 42
0.000000001
 43
0.00000001
 40
0.0
 40
0.0
 40
0.0
 40
0.0
 40
0.0264446476783818
 40
0.0640016628965952
 40
0.1035735537294296
 40
0.1450258510320066
 40
0.182888944270309
 40
0.221155422550394
 40
0.2559510117045249
 40
0.2892166472530052
 40
0.3259116940874473
 40
0.3750263016680191
 40
0.427431704763454
 40
0.4687252812961746
 40
0.5082266978685439
 40
0.5549966282059333
 40
0.5949479882472377
 40
0.6335267362041698
 40
0.6706146566830323
 40
0.711938381091386
 40
0.7477216906675402
 40
0.7876554315199383
 40
0.8266548370638818
 40
0.8667543291238833
 40
0.9070815638949383
 40
0.9481995075814349
 40
1.0
 40
1.0
 40
1.0
 40
1.0
 10
63.55689465999603
 20
68.85594874620438
 30
0.0
 10
63.18953687350064
 20
69.03970851596799
 30
0.0
 10
62.30045302183956
 20
69.48444618014116
 30
0.0
 10
59.53125108083835
 20
69.62303312196914
 30
0.0
 10
56.69806613423171
 20
69.93124753771993
 30
0.0
 10
53.30052138774757
 20
69.65465730539587
 30
0.0
 10
50.92020165323166
 20
71.59819987915431
 30
0.0
 10
50.8621575459854
 20
74.87527022802449
 30
0.0
 10
53.00628535197411
 20
76.18739813832121
 30
0.0
 10
53.9228308286788
 20
78.27105259342572
 30
0.0
 10
53.83278331932993
 20
80.98522154631115
 30
0.0
 10
51.92631266660985
 20
85.15795662348671
 30
0.0
 10
48.82504948817574
 20
89.3305242068809
 30
0.0
 10
46.20659250103581
 20
91.32193115882035
 30
0.0
 10
44.28499837326359
 20
93.92750476079469
 30
0.0
 10
39.91725514094921
 20
94.16782758706383
 30
0.0
 10
37.07781731354527
 20
95.66383860024023
 30
0.0
 10
36.51768738807235
 20
99.24587881325814
 30
0.0
 10
39.23354272248849
 20
100.4696985925192
 30
0.0
 10
40.9564743964882
 20
103.2581482886729
 30
0.0
 10
42.48095586375329
 20
105.3309448791739
 30
0.0
 10
45.66623046120672
 20
105.7525499807504
 30
0.0
 10
47.9916448825451
 20
108.1849260827288
 30
0.0
 10
51.10197536595014
 20
106.1963973391888
 30
0.0
 10
54.20123996217887
 20
107.5066042479513
 30
0.0
 10
57.51451447300583
 20
106.4356186184966
 30
0.0
 10
60.55521139292829
 20
107.8028952277234
 30
0.0
 10
62.25034967064857
 20
108.565129339695
 30
0.0
  0
SPLINE
  5
100000B4
102
{ACAD_XDICTIONARY
360
100000B5
102
}
330
1F
100
AcDbEntity
  8
MODELSKETCH_VISIBLE
100
AcDbSpline
210
0.0
220
0.0
230
1.0
 70
    11
 71
     3
 72
    18
 73
    14
 74
     0
 42
0.000000001
 43
0.00000001
 40
0.0
 40
0.0
 40
0.0
 40
0.0
 40
0.0981557882510312
 40
0.1875867312210721
 40
0.2559503492784877
 40
0.3340511037535039
 40
0.445128841264481
 40
0.5379268274582252
 40
0.6192612575655865
 40
0.702665285825022
 40
0.7800276120988221
 40
0.8806604088076221
 40
1.0
 40
1.0
 40
1.0
 40
1.0
 10
144.5738077163696
 20
76.37371867895126
 30
0.0
 10
144.4602624789133
 20
77.16227724987365
 30
0.0
 10
143.0727360231556
 20
78.14289791353977
 30
0.0
 10
141.2928691131069
 20
79.08688380084631
 30
0.0
 10
139.9861550846611
 20
78.09795288898914
 30
0.0
 10
140.9068579060155
 20
76.47023419536892
 30
0.0
 10
138.9211079908298
 20
74.04524668520158
 30
0.0
 10
136.8922360105566
 20
72.76363818397465
 30
0.0
 10
138.1264368961723
 20
70.98960516830768
 30
0.0
 10
140.0796990464085
 20
70.76776208576466
 30
0.0
 10
140.8911244051209
 20
72.27171480115157
 30
0.0
 10
143.2974710860316
 20
72.89726829891256
 30
0.0
 10
144.7118580795863
 20
75.41497483753409
 30
0.0
 10
144.5738077163696
 20
76.37371867895126
 30
0.0
  0
SPLINE
  5
100000B7
102
{ACAD_XDICTIONARY
360
100000B8
102
}
330
1F
100
AcDbEntity
  8
MODELSKETCH_VISIBLE
100
AcDbSpline
210
0.0
220
0.0
230
1.0
 70
     8
 71
     3
 72
    13
 73
     9
 74
     0
 42
0.000000001
 43
0.00000001
 40
0.0
 40
0.0
 40
0.0
 40
0.0
 40
0.1697071363980691
 40
0.363160179022136
 40
0.512782497577619
 40
0.7366252349461748
 40
0.7941472589059473
 40
1.0
 40
1.0
 40
1.0
 40
1.0
 10
74.05143587538535
 20
77.43696670269263
 30
0.0
 10
73.59527197780417
 20
77.83665750568638
 30
0.0
 10
72.84049954461166
 20
78.30046677423624
 30
0.0
 10
72.69291240796748
 20
76.4507342369065
 30
0.0
 10
72.77080834416773
 20
75.32422963246717
 30
0.0
 10
74.9394147763008
 20
75.884158825967
 30
0.0
 10
75.22809622110972
 20
75.68563968276398
 30
0.0
 10
74.82635721955235
 20
76.63164064900832
 30
0.0
 10
74.28651303052902
 20
77.20935344696045
 30
0.0
  0
CIRCLE
  5
100000BA
102
{ACAD_XDICTIONARY
360
100000BB
102
}
330
1F
100
AcDbEntity
  8
MODELSKETCH_VISIBLE
100
AcDbCircle
 10
94.96764093637466
 20
83.608977496624
 30
0.0
 40
0.4412159586014551
  0
SPLINE
  5
100000BD
102
{ACAD_XDICTIONARY
360
100000BE
102
}
330
1F
100
AcDbEntity
  8
MODELSKETCH_VISIBLE
100
AcDbSpline
210
0.0
220
0.0
230
1.0
 70
     8
 71
     3
 72
    17
 73
    13
 74
     0
 42
0.000000001
 43
0.00000001
 40
0.0
 40
0.0
 40
0.0
 40
0.0
 40
0.0916608820150286
 40
0.2093166927012423
 40
0.305303409663191
 40
0.3976923739336524
 40
0.5028581855738544
 40
0.6076973891118782
 40
0.6775919959601714
 40
0.7878403483771628
 40
0.9188141724484519
 40
1.0
 40
1.0
 40
1.0
 40
1.0
 10
188.2314319463889
 20
51.71502695941158
 30
0.0
 10
187.8514840078605
 20
50.97988415394195
 30
0.0
 10
186.4666144065906
 20
49.81379604163266
 30
0.0
 10
185.7440458894079
 20
44.36560978105314
 30
0.0
 10
189.4242363526033
 20
44.13028187170154
 30
0.0
 10
192.1215484475968
 20
43.05974722995978
 30
0.0
 10
193.0529278504489
 20
39.56452459625132
 30
0.0
 10
193.604402756147
 20
35.97555800985374
 30
0.0
 10
192.4421636243053
 20
34.57844375328816
 30
0.0
 10
194.1172362425396
 20
30.33290909815029
 30
0.0
 10
189.2882288564398
 20
26.41607919216109
 30
0.0
 10
187.55078315735
 20
26.68582461774514
 30
0.0
 10
187.1484816074371
 20
26.13266929984092
 30
0.0
  0
SPLINE
  5
100000C0
102
{ACAD_XDICTIONARY
360
100000C1
102
}
330
1F
100
AcDbEntity
  8
MODELSKETCH_VISIBLE
100
AcDbSpline
210
0.0
220
0.0
230
1.0
 70
    11
 71
     3
 72
    14
 73
    10
 74
     0
 42
0.000000001
 43
0.00000001
 40
0.0
 40
0.0
 40
0.0
 40
0.0
 40
0.1533952050129471
 40
0.2830747075281639
 40
0.4555744107454294
 40
0.5736596110319813
 40
0.6919334183131028
 40
0.8550839862433026
 40
1.0
 40
1.0
 40
1.0
 40
1.0
 10
91.13808721303938
 20
86.42155677080154
 30
0.0
 10
91.0352137102349
 20
86.50185734757723
 30
0.0
 10
90.96183258706719
 20
87.01244151058575
 30
0.0
 10
91.41291149767706
 20
86.94444158985996
 30
0.0
 10
91.99035197082644
 20
87.03726915621804
 30
0.0
 10
92.27668760538224
 20
86.81671888709245
 30
0.0
 10
92.13060938854963
 20
86.42066515824293
 30
0.0
 10
91.56161423714488
 20
86.5570179619993
 30
0.0
 10
91.23527420103133
 20
86.34569495042903
 30
0.0
 10
91.13808721303938
 20
86.42155677080154
 30
0.0
  0
SPLINE
  5
100000C3
102
{ACAD_XDICTIONARY
360
100000C4
102
}
330
1F
100
AcDbEntity
  8
MODELSKETCH_VISIBLE
100
AcDbSpline
210
0.0
220
0.0
230
1.0
 70
     8
 71
     3
 72
    11
 73
     7
 74
     0
 42
0.000000001
 43
0.00000001
 40
0.0
 40
0.0
 40
0.0
 40
0.0
 40
0.1936707429038589
 40
0.4639407798020082
 40
0.7543588357154711
 40
1.0
 40
1.0
 40
1.0
 40
1.0
 10
172.4815517663956
 20
42.44364053010941
 30
0.0
 10
172.6582977780827
 20
42.77016296122181
 30
0.0
 10
174.0246697001438
 20
43.62887366706651
 30
0.0
 10
175.9954834358973
 20
46.38180447138503
 30
0.0
 10
176.1830619224575
 20
50.50387495743036
 30
0.0
 10
175.2504933851345
 20
52.23541592241091
 30
0.0
 10
174.8044192790985
 20
53.04526537656784
 30
0.0
  0
SPLINE
  5
100000C6
102
{ACAD_XDICTIONARY
360
100000C7
102
}
330
1F
100
AcDbEntity
  8
MODELSKETCH_VISIBLE
100
AcDbSpline
210
0.0
220
0.0
230
1.0
 70
     8
 71
     3
 72
    66
 73
    62
 74
     0
 42
0.000000001
 43
0.00000001
 40
0.0
 40
0.0
 40
0.0
 40
0.0
 40
0.0057655058197017
 40
0.0187063418776019
 40
0.03059799361995
 40
0.0453412483224911
 40
0.0579521429952723
 40
0.0736557226087731
 40
0.0928469059844127
 40
0.1076348544939791
 40
0.1201597897150651
 40
0.1321098845361343
 40
0.1444007227947424
 40
0.1569256895459496
 40
0.175912196391435
 40
0.1921198882270665
 40
0.2083253262948054
 40
0.2252158869389343
 40
0.2440258206659936
 40
0.2628459011590146
 40
0.2788332619784457
 40
0.2986186599969576
 40
0.3134854580179192
 40
0.3346347223313789
 40
0.355822747800337
 40
0.3722189735938831
 40
0.3908922523394193
 40
0.4115258740523023
 40
0.4329730905488307
 40
0.4517285317337498
 40
0.470123312588802
 40
0.4861676339085042
 40
0.5072186227558836
 40
0.5275180242545959
 40
0.5462987484853941
 40
0.5670235834693509
 40
0.5873602327536749
 40
0.6115394410650646
 40
0.6293003638991245
 40
0.6492452333083037
 40
0.6573019004006846
 40
0.6786455832777725
 40
0.698629630200628
 40
0.7175295480723813
 40
0.7384716983025893
 40
0.7546101985111269
 40
0.7646188181039871
 40
0.7769977092347392
 40
0.8002836349889656
 40
0.8183430358160189
 40
0.8354746649825618
 40
0.855997975358448
 40
0.8718420106773574
 40
0.8919710486589467
 40
0.9085495939132595
 40
0.9272830064434573
 40
0.9436187114091636
 40
0.9590204299835104
 40
0.9755498641799406
 40
0.9950998045038243
 40
1.0
 40
1.0
 40
1.0
 40
1.0
 10
152.333658536689
 20
92.61040294989392
 30
0.0
 10
152.3629960141542
 20
92.5151697854971
 30
0.0
 10
152.4205843969465
 20
92.37629084840209
 30
0.0
 10
152.8168151386148
 20
90.44852708134347
 30
0.0
 10
151.051516979319
 20
90.77273302255789
 30
0.0
 10
149.9049066972245
 20
89.15613299027582
 30
0.0
 10
148.5642322602727
 20
88.26138515757617
 30
0.0
 10
149.4950342249837
 20
85.79009521540016
 30
0.0
 10
152.3551804633573
 20
84.26227126430261
 30
0.0
 10
154.544900869881
 20
84.48622993331078
 30
0.0
 10
155.1170317704349
 20
86.15563760648519
 30
0.0
 10
154.3495504069125
 20
87.13181453646618
 30
0.0
 10
153.5219612609483
 20
88.60339552415473
 30
0.0
 10
155.4206659870372
 20
89.38386335159372
 30
0.0
 10
158.1246383017315
 20
87.33158566188978
 30
0.0
 10
160.4305222874834
 20
88.27963653381644
 30
0.0
 10
162.7853469140987
 20
87.86469885281194
 30
0.0
 10
165.0673914573731
 20
86.08382647211543
 30
0.0
 10
164.2518993048117
 20
82.6256007324767
 30
0.0
 10
167.0691624171127
 20
80.42718175052984
 30
0.0
 10
166.3620073136073
 20
77.67398454324447
 30
0.0
 10
162.5708014207487
 20
76.43369981387936
 30
0.0
 10
161.1387713102993
 20
77.64799789357265
 30
0.0
 10
155.2252390485057
 20
73.56568014364603
 30
0.0
 10
161.6256707930058
 20
76.77914648699702
 30
0.0
 10
163.477133432708
 20
75.16454053111862
 30
0.0
 10
166.680867157549
 20
78.27891707827992
 30
0.0
 10
169.0246424500941
 20
74.25287493024351
 30
0.0
 10
172.7967557569457
 20
72.28946058865341
 30
0.0
 10
175.8178827747795
 20
73.76124374012674
 30
0.0
 10
179.0586072725322
 20
70.81315767494594
 30
0.0
 10
176.093091730976
 20
69.3371848339887
 30
0.0
 10
172.4940494286018
 20
68.71927110066392
 30
0.0
 10
169.4810083611177
 20
66.54304478853328
 30
0.0
 10
166.8835614074361
 20
64.97598055199896
 30
0.0
 10
162.7723069810253
 20
64.20062046599786
 30
0.0
 10
159.9082210995283
 20
66.36424300122911
 30
0.0
 10
154.725198342859
 20
68.15812824189598
 30
0.0
 10
152.4100409193734
 20
67.35829899146556
 30
0.0
 10
148.409774590982
 20
67.53925318277295
 30
0.0
 10
148.4159961035629
 20
65.97124842748445
 30
0.0
 10
152.893117659957
 20
66.99711874549273
 30
0.0
 10
156.0928362027817
 20
66.6464706734151
 30
0.0
 10
158.9309567604975
 20
65.10451343852148
 30
0.0
 10
162.174366401932
 20
63.34106578042806
 30
0.0
 10
164.7320755590769
 20
62.98261523758247
 30
0.0
 10
165.3649619694826
 20
64.11914755001277
 30
0.0
 10
166.9707453700059
 20
62.97998723166724
 30
0.0
 10
170.808910156729
 20
66.47828370288248
 30
0.0
 10
173.5240320219097
 20
66.76015333429334
 30
0.0
 10
175.4994523157029
 20
69.61303825650826
 30
0.0
 10
179.1319502785319
 20
66.47728047362686
 30
0.0
 10
181.1477204951601
 20
68.2733454714196
 30
0.0
 10
184.8928511592654
 20
66.19255064638374
 30
0.0
 10
185.1469682951825
 20
63.87621140806937
 30
0.0
 10
187.5621904284258
 20
61.02123332703301
 30
0.0
 10
184.7163841972019
 20
58.88185808864246
 30
0.0
 10
187.2239829974339
 20
57.37001180868459
 30
0.0
 10
188.6974128809797
 20
55.80993846935799
 30
0.0
 10
188.4714424218727
 20
52.07490900288933
 30
0.0
 10
188.3458436719323
 20
51.95782694864654
 30
0.0
 10
188.3176450387387
 20
51.89435373624139
 30
0.0
  0
SPLINE
  5
100000C9
102
{ACAD_XDICTIONARY
360
100000CA
102
}
330
1F
100
AcDbEntity
  8
MODELSKETCH_VISIBLE
100
AcDbSpline
210
0.0
220
0.0
230
1.0
 70
     8
 71
     3
 72
    29
 73
    25
 74
     0
 42
0.000000001
 43
0.00000001
 40
0.0
 40
0.0
 40
0.0
 40
0.0
 40
0.0297479491996225
 40
0.0715034914212013
 40
0.1237645290427624
 40
0.165141858259931
 40
0.2209129187201563
 40
0.2680925529188798
 40
0.3087677058089779
 40
0.3524463459507406
 40
0.3954309891696951
 40
0.4446906447720456
 40
0.4852848136090668
 40
0.5363125948416697
 40
0.58612038339829
 40
0.6409021982060532
 40
0.6905235873200393
 40
0.7537416058699621
 40
0.7881740960538012
 40
0.8326783470513242
 40
0.8854438000313617
 40
0.9275255283884226
 40
0.9717236688467487
 40
1.0
 40
1.0
 40
1.0
 40
1.0
 10
74.94298247609474
 20
78.3258567386233
 30
0.0
 10
74.68416262574675
 20
78.51197646573942
 30
0.0
 10
74.1078111601277
 20
78.85331316954401
 30
0.0
 10
72.02757803971477
 20
78.0918131300554
 30
0.0
 10
70.47237567867174
 20
81.19743255462649
 30
0.0
 10
68.50506475729854
 20
80.61972545431185
 30
0.0
 10
65.33868710038375
 20
80.84279155865266
 30
0.0
 10
63.08919172087673
 20
80.65922629694128
 30
0.0
 10
61.37528769519152
 20
81.84357675314367
 30
0.0
 10
61.54345447955096
 20
83.77629264530378
 30
0.0
 10
63.47828526859424
 20
86.51340108006823
 30
0.0
 10
60.30467018149893
 20
84.11497534575963
 30
0.0
 10
59.56235531393268
 20
82.63051393669663
 30
0.0
 10
61.32824963667105
 20
80.0474769318952
 30
0.0
 10
63.79478987547107
 20
79.32879187895318
 30
0.0
 10
66.91708314787031
 20
79.4590425341377
 30
0.0
 10
69.64388093201491
 20
80.0923896741533
 30
0.0
 10
72.08788891122876
 20
75.75148993192852
 30
0.0
 10
70.94273457812454
 20
74.66419101357565
 30
0.0
 10
69.20308848181953
 20
73.64719374992622
 30
0.0
 10
66.82093324945059
 20
72.0647524649584
 30
0.0
 10
65.36995207901853
 20
71.09524504514253
 30
0.0
 10
64.40025533703304
 20
69.16701921015591
 30
0.0
 10
63.79358901012623
 20
68.94325258110506
 30
0.0
 10
63.55689465999603
 20
68.85594874620438
 30
0.0
  0
ENDSEC
  0
SECTION
  2
OBJECTS
  0
DICTIONARY
  5
C
330
0
100
AcDbDictionary
  3
ACAD_GROUP
350
D
  3
ACAD_LAYOUT
350
1A
  3
ACAD_MATERIAL
350
43
  3
ACAD_MLEADERSTYLE
350
6B
  3
ACAD_MLINESTYLE
350
17
  3
ACAD_PLOTSETTINGS
350
19
  3
ACAD_SCALELIST
350
47
  3
ACAD_VISUALSTYLE
350
2A
  3
ACDBHEADERROUNDTRIPXREC
350
100000CE
  3
ACDBVARIABLEDICTIONARY
350
100000EF
  3
DWGPROPS
350
100000FA
  3
ONSHAPE_DATA
350
10000001
  0
DICTIONARY
  5
100000FB
330
8
100
AcDbDictionary
280
     1
  3
ACAD_XREC_ROUNDTRIP
360
100000FC
  0
DICTIONARY
  5
100000CC
330
1F
100
AcDbDictionary
280
     1
  3
ACAD_SORTENTS
360
100000CD
  0
DICTIONARY
  5
10000052
330
10000051
100
AcDbDictionary
280
     1
  3
BTDETID
360
10000053
  0
DICTIONARY
  5
10000055
330
10000054
100
AcDbDictionary
280
     1
  3
BTDETID
360
10000056
  0
DICTIONARY
  5
10000058
330
10000057
100
AcDbDictionary
280
     1
  3
BTDETID
360
10000059
  0
DICTIONARY
  5
1000005B
330
1000005A
100
AcDbDictionary
280
     1
  3
BTDETID
360
1000005C
  0
DICTIONARY
  5
1000005E
330
1000005D
100
AcDbDictionary
280
     1
  3
BTDETID
360
1000005F
  0
DICTIONARY
  5
10000061
330
10000060
100
AcDbDictionary
280
     1
  3
BTDETID
360
10000062
  0
DICTIONARY
  5
10000064
330
10000063
100
AcDbDictionary
280
     1
  3
BTDETID
360
10000065
  0
DICTIONARY
  5
10000067
330
10000066
100
AcDbDictionary
280
     1
  3
BTDETID
360
10000068
  0
DICTIONARY
  5
1000006A
330
10000069
100
AcDbDictionary
280
     1
  3
BTDETID
360
1000006B
  0
DICTIONARY
  5
1000006D
330
1000006C
100
AcDbDictionary
280
     1
  3
BTDETID
360
1000006E
  0
DICTIONARY
  5
10000070
330
1000006F
100
AcDbDictionary
280
     1
  3
BTDETID
360
10000071
  0
DICTIONARY
  5
10000073
330
10000072
100
AcDbDictionary
280
     1
  3
BTDETID
360
10000074
  0
DICTIONARY
  5
10000076
330
10000075
100
AcDbDictionary
280
     1
  3
BTDETID
360
10000077
  0
DICTIONARY
  5
10000079
330
10000078
100
AcDbDictionary
280
     1
  3
BTDETID
360
1000007A
  0
DICTIONARY
  5
1000007C
330
1000007B
100
AcDbDictionary
280
     1
  3
BTDETID
360
1000007D
  0
DICTIONARY
  5
1000007F
330
1000007E
100
AcDbDictionary
280
     1
  3
BTDETID
360
10000080
  0
DICTIONARY
  5
10000082
330
10000081
100
AcDbDictionary
280
     1
  3
BTDETID
360
10000083
  0
DICTIONARY
  5
10000085
330
10000084
100
AcDbDictionary
280
     1
  3
BTDETID
360
10000086
  0
DICTIONARY
  5
10000088
330
10000087
100
AcDbDictionary
280
     1
  3
BTDETID
360
10000089
  0
DICTIONARY
  5
1000008B
330
1000008A
100
AcDbDictionary
280
     1
  3
BTDETID
360
1000008C
  0
DICTIONARY
  5
1000008E
330
1000008D
100
AcDbDictionary
280
     1
  3
BTDETID
360
1000008F
  0
DICTIONARY
  5
10000091
330
10000090
100
AcDbDictionary
280
     1
  3
BTDETID
360
10000092
  0
DICTIONARY
  5
10000094
330
10000093
100
AcDbDictionary
280
     1
  3
BTDETID
360
10000095
  0
DICTIONARY
  5
10000097
330
10000096
100
AcDbDictionary
280
     1
  3
BTDETID
360
10000098
  0
DICTIONARY
  5
1000009A
330
10000099
100
AcDbDictionary
280
     1
  3
BTDETID
360
1000009B
  0
DICTIONARY
  5
1000009D
330
1000009C
100
AcDbDictionary
280
     1
  3
BTDETID
360
1000009E
  0
DICTIONARY
  5
100000A0
330
1000009F
100
AcDbDictionary
280
     1
  3
BTDETID
360
100000A1
  0
DICTIONARY
  5
100000A3
330
100000A2
100
AcDbDictionary
280
     1
  3
BTDETID
360
100000A4
  0
DICTIONARY
  5
100000A6
330
100000A5
100
AcDbDictionary
280
     1
  3
BTDETID
360
100000A7
  0
DICTIONARY
  5
100000A9
330
100000A8
100
AcDbDictionary
280
     1
  3
BTDETID
360
100000AA
  0
DICTIONARY
  5
100000AC
330
100000AB
100
AcDbDictionary
280
     1
  3
BTDETID
360
100000AD
  0
DICTIONARY
  5
100000AF
330
100000AE
100
AcDbDictionary
280
     1
  3
BTDETID
360
100000B0
  0
DICTIONARY
  5
100000B2
330
100000B1
100
AcDbDictionary
280
     1
  3
BTDETID
360
100000B3
  0
DICTIONARY
  5
100000B5
330
100000B4
100
AcDbDictionary
280
     1
  3
BTDETID
360
100000B6
  0
DICTIONARY
  5
100000B8
330
100000B7
100
AcDbDictionary
280
     1
  3
BTDETID
360
100000B9
  0
DICTIONARY
  5
100000BB
330
100000BA
100
AcDbDictionary
280
     1
  3
BTDETID
360
100000BC
  0
DICTIONARY
  5
100000BE
330
100000BD
100
AcDbDictionary
280
     1
  3
BTDETID
360
100000BF
  0
DICTIONARY
  5
100000C1
330
100000C0
100
AcDbDictionary
280
     1
  3
BTDETID
360
100000C2
  0
DICTIONARY
  5
100000C4
330
100000C3
100
AcDbDictionary
280
     1
  3
BTDETID
360
100000C5
  0
DICTIONARY
  5
100000C7
330
100000C6
100
AcDbDictionary
280
     1
  3
BTDETID
360
100000C8
  0
DICTIONARY
  5
100000CA
330
100000C9
100
AcDbDictionary
280
     1
  3
BTDETID
360
100000CB
  0
DICTIONARY
  5
D
102
{ACAD_REACTORS
330
C
102
}
330
C
100
AcDbDictionary
  0
DICTIONARY
  5
1A
102
{ACAD_REACTORS
330
C
102
}
330
C
100
AcDbDictionary
  0
DICTIONARY
  5
43
102
{ACAD_REACTORS
330
C
102
}
330
C
100
AcDbDictionary
  3
BYBLOCK
350
45
  3
BYLAYER
350
44
  3
GLOBAL
350
46
  0
DICTIONARY
  5
6B
102
{ACAD_REACTORS
330
C
102
}
330
C
100
AcDbDictionary
  3
STANDARD
350
6C
  0
DICTIONARY
  5
17
102
{ACAD_REACTORS
330
C
102
}
330
C
100
AcDbDictionary
  3
STANDARD
350
18
  0
DICTIONARY
  5
19
102
{ACAD_REACTORS
330
C
102
}
330
C
100
AcDbDictionary
  0
DICTIONARY
  5
47
102
{ACAD_REACTORS
330
C
102
}
330
C
100
AcDbDictionary
  3
SCALE100_1
350
10000023
  3
SCALE10_1
350
1000001D
  3
SCALE12_1
350
1000001E
  3
SCALE16_1
350
1000001F
  3
SCALE1_1
350
10000006
  3
SCALE1_10
350
1000000D
  3
SCALE1_100
350
10000016
  3
SCALE1_12
350
1000000E
  3
SCALE1_16
350
1000000F
  3
SCALE1_2
350
10000007
  3
SCALE1_20
350
10000010
  3
SCALE1_25
350
10000011
  3
SCALE1_3
350
10000008
  3
SCALE1_32
350
10000012
  3
SCALE1_4
350
10000009
  3
SCALE1_40
350
10000013
  3
SCALE1_5
350
1000000A
  3
SCALE1_50
350
10000014
  3
SCALE1_6
350
1000000B
  3
SCALE1_8
350
1000000C
  3
SCALE1_80
350
10000015
  3
SCALE20_1
350
10000020
  3
SCALE2_1
350
10000017
  3
SCALE32_1
350
10000021
  3
SCALE3_1
350
10000018
  3
SCALE4_1
350
10000019
  3
SCALE50_1
350
10000022
  3
SCALE5_1
350
1000001A
  3
SCALE6_1
350
1000001B
  3
SCALE8_1
350
1000001C
  0
DICTIONARY
  5
2A
102
{ACAD_REACTORS
330
C
102
}
330
C
100
AcDbDictionary
  3
2DWIREFRAME
350
2F
  3
BASIC
350
32
  3
BRIGHTEN
350
36
  3
COLORCHANGE
350
3A
  3
CONCEPTUAL
350
34
  3
DIM
350
35
  3
EDGECOLOROFF
350
3D
  3
FACEPATTERN
350
39
  3
FLAT
350
2B
  3
FLATWITHEDGES
350
2C
  3
GOURAUD
350
2D
  3
GOURAUDWITHEDGES
350
2E
  3
HIDDEN
350
31
  3
JITTEROFF
350
3B
  3
LINEPATTERN
350
38
  3
OVERHANGOFF
350
3C
  3
REALISTIC
350
33
  3
SHADED
350
42
  3
SHADED_WITH_EDGES
350
41
  3
SHADES_OF_GRAY
350
3E
  3
SKETCHY
350
3F
  3
THICKEN
350
37
  3
WIREFRAME
350
30
  3
X-RAY
350
40
  0
DICTIONARY
  5
100000CE
102
{ACAD_REACTORS
330
C
102
}
330
C
100
AcDbDictionary
  3
CEPSNID
350
100000D8
  3
CEPSNTYPE
350
100000D7
  3
DIMSTYLEDATA
350
100000EE
  3
FINGERPRINTGUID
350
100000D9
  3
HYPERLINKBASE
350
100000D1
  3
INSUNITS
350
100000D6
  3
LAYOUTDICT
350
100000D3
  3
LWETCUNION
350
100000D5
  3
PLOTSETDICT
350
100000D4
  3
PSVPSCALE
350
100000DB
  3
PUCSBASE
350
100000DE
  3
PUCSORGBACK
350
100000E4
  3
PUCSORGBOTTOM
350
100000E0
  3
PUCSORGFRONT
350
100000E3
  3
PUCSORGLEFT
350
100000E1
  3
PUCSORGRIGHT
350
100000E2
  3
PUCSORGTOP
350
100000DF
  3
PUCSORTHOREF
350
100000DC
  3
PUCSORTHOVIEW
350
100000DD
  3
STYLESHEET
350
100000D2
  3
TSTACKALIGN
350
100000CF
  3
TSTACKSIZE
350
100000D0
  3
UCSBASE
350
100000E7
  3
UCSORGBACK
350
100000ED
  3
UCSORGBOTTOM
350
100000E9
  3
UCSORGFRONT
350
100000EC
  3
UCSORGLEFT
350
100000EA
  3
UCSORGRIGHT
350
100000EB
  3
UCSORGTOP
350
100000E8
  3
UCSORTHOREF
350
100000E5
  3
UCSORTHOVIEW
350
100000E6
  3
VERSIONGUID
350
100000DA
  0
DICTIONARY
  5
100000EF
102
{ACAD_REACTORS
330
C
102
}
330
C
100
AcDbDictionary
  3
CANNOSCALE
350
100000FD
  3
CENTEREXE
350
100000F6
  3
CENTERLTYPEFILE
350
100000F7
  3
CMLEADERSTYLE
350
100000F1
  3
CTABLESTYLE
350
100000F0
  3
DIMASSOC
350
100000F8
  3
HIDETEXT
350
100000F9
  3
MSLTSCALE
350
100000FE
  3
PSOLHEIGHT
350
100000F3
  3
PSOLWIDTH
350
100000F2
  0
XRECORD
  5
100000FA
102
{ACAD_REACTORS
330
C
102
}
330
C
100
AcDbXrecord
  1
DWGPROPS COOKIE
  2

  3

  4

  6
File was created by BTDwgCreate
  7

  8

  9

300
=
301
=
302
=
303
=
304
=
305
=
306
=
307
=
308
=
309
=
 40
0.0
 41
2460568.524618426
 42
2460568.524618438
  1

 90
        0
  0
DICTIONARY
  5
10000001
102
{ACAD_REACTORS
330
C
102
}
330
C
100
AcDbDictionary
280
     1
  3
DIM_UNITS
360
10000003
  3
DWGGEN_VERSION
360
10000002
  3
FIRST_ANGLE
360
10000005
  0
XRECORD
  5
100000FC
102
{ACAD_REACTORS
330
100000FB
102
}
330
100000FB
100
AcDbXrecord
102
VTR_0.000_0.000_1.000_1.000_VISUALSTYLE
340
2F
102
VTR_0.000_0.000_1.000_1.000_GRIDDISPLAY
 70
     3
102
VTR_0.000_0.000_1.000_1.000_GRIDMAJOR
 70
     5
102
VTR_0.000_0.000_1.000_1.000_DEFAULTLIGHTING
280
     1
102
VTR_0.000_0.000_1.000_1.000_DEFAULTLIGHTINGTYPE
 70
     1
102
VTR_0.000_0.000_1.000_1.000_BRIGHTNESS
141
0.0
102
VTR_0.000_0.000_1.000_1.000_CONTRAST
142
0.0
  0
SORTENTSTABLE
  5
100000CD
102
{ACAD_REACTORS
330
100000CC
102
}
330
100000CC
100
AcDbSortentsTable
330
1F
  0
XRECORD
  5
10000053
102
{ACAD_REACTORS
330
10000052
102
}
330
10000052
100
AcDbXrecord
1000
KFJE
  0
XRECORD
  5
10000056
102
{ACAD_REACTORS
330
10000055
102
}
330
10000055
100
AcDbXrecord
1000
KF9D
  0
XRECORD
  5
10000059
102
{ACAD_REACTORS
330
10000058
102
}
330
10000058
100
AcDbXrecord
1000
KF1D
  0
XRECORD
  5
1000005C
102
{ACAD_REACTORS
330
1000005B
102
}
330
1000005B
100
AcDbXrecord
1000
KFxD
  0
XRECORD
  5
1000005F
102
{ACAD_REACTORS
330
1000005E
102
}
330
1000005E
100
AcDbXrecord
1000
KFVE
  0
XRECORD
  5
10000062
102
{ACAD_REACTORS
330
10000061
102
}
330
10000061
100
AcDbXrecord
1000
KF5C
  0
XRECORD
  5
10000065
102
{ACAD_REACTORS
330
10000064
102
}
330
10000064
100
AcDbXrecord
1000
JF9
  0
XRECORD
  5
10000068
102
{ACAD_REACTORS
330
10000067
102
}
330
10000067
100
AcDbXrecord
1000
KFFF
  0
XRECORD
  5
1000006B
102
{ACAD_REACTORS
330
1000006A
102
}
330
1000006A
100
AcDbXrecord
1000
JFx
  0
XRECORD
  5
1000006E
102
{ACAD_REACTORS
330
1000006D
102
}
330
1000006D
100
AcDbXrecord
1000
KF5E
  0
XRECORD
  5
10000071
102
{ACAD_REACTORS
330
10000070
102
}
330
10000070
100
AcDbXrecord
1000
KFJF
  0
XRECORD
  5
10000074
102
{ACAD_REACTORS
330
10000073
102
}
330
10000073
100
AcDbXrecord
1000
KFRF
  0
XRECORD
  5
10000077
102
{ACAD_REACTORS
330
10000076
102
}
330
10000076
100
AcDbXrecord
1000
KFdC
  0
XRECORD
  5
1000007A
102
{ACAD_REACTORS
330
10000079
102
}
330
10000079
100
AcDbXrecord
1000
KFZG
  0
XRECORD
  5
1000007D
102
{ACAD_REACTORS
330
1000007C
102
}
330
1000007C
100
AcDbXrecord
1000
KFRC
  0
XRECORD
  5
10000080
102
{ACAD_REACTORS
330
1000007F
102
}
330
1000007F
100
AcDbXrecord
1000
KFNF
  0
XRECORD
  5
10000083
102
{ACAD_REACTORS
330
10000082
102
}
330
10000082
100
AcDbXrecord
1000
KFhB
  0
XRECORD
  5
10000086
102
{ACAD_REACTORS
330
10000085
102
}
330
10000085
100
AcDbXrecord
1000
KF1F
  0
XRECORD
  5
10000089
102
{ACAD_REACTORS
330
10000088
102
}
330
10000088
100
AcDbXrecord
1000
KFFC
  0
XRECORD
  5
1000008C
102
{ACAD_REACTORS
330
1000008B
102
}
330
1000008B
100
AcDbXrecord
1000
KFVB
  0
XRECORD
  5
1000008F
102
{ACAD_REACTORS
330
1000008E
102
}
330
1000008E
100
AcDbXrecord
1000
KFpF
  0
XRECORD
  5
10000092
102
{ACAD_REACTORS
330
10000091
102
}
330
10000091
100
AcDbXrecord
1000
KFNG
  0
XRECORD
  5
10000095
102
{ACAD_REACTORS
330
10000094
102
}
330
10000094
100
AcDbXrecord
1000
KF5B
  0
XRECORD
  5
10000098
102
{ACAD_REACTORS
330
10000097
102
}
330
10000097
100
AcDbXrecord
1000
KF1C
  0
XRECORD
  5
1000009B
102
{ACAD_REACTORS
330
1000009A
102
}
330
1000009A
100
AcDbXrecord
1000
KF5D
  0
XRECORD
  5
1000009E
102
{ACAD_REACTORS
330
1000009D
102
}
330
1000009D
100
AcDbXrecord
1000
KFJB
  0
XRECORD
  5
100000A1
102
{ACAD_REACTORS
330
100000A0
102
}
330
100000A0
100
AcDbXrecord
1000
KFdF
  0
XRECORD
  5
100000A4
102
{ACAD_REACTORS
330
100000A3
102
}
330
100000A3
100
AcDbXrecord
1000
KFBG
  0
XRECORD
  5
100000A7
102
{ACAD_REACTORS
330
100000A6
102
}
330
100000A6
100
AcDbXrecord
1000
KFtB
  0
XRECORD
  5
100000AA
102
{ACAD_REACTORS
330
100000A9
102
}
330
100000A9
100
AcDbXrecord
1000
KFtE
  0
XRECORD
  5
100000AD
102
{ACAD_REACTORS
330
100000AC
102
}
330
100000AC
100
AcDbXrecord
1000
JFl
  0
XRECORD
  5
100000B0
102
{ACAD_REACTORS
330
100000AF
102
}
330
100000AF
100
AcDbXrecord
1000
KFhE
  0
XRECORD
  5
100000B3
102
{ACAD_REACTORS
330
100000B2
102
}
330
100000B2
100
AcDbXrecord
1000
JFZ
  0
XRECORD
  5
100000B6
102
{ACAD_REACTORS
330
100000B5
102
}
330
100000B5
100
AcDbXrecord
1000
KFhC
  0
XRECORD
  5
100000B9
102
{ACAD_REACTORS
330
100000B8
102
}
330
100000B8
100
AcDbXrecord
1000
KFtC
  0
XRECORD
  5
100000BC
102
{ACAD_REACTORS
330
100000BB
102
}
330
100000BB
100
AcDbXrecord
1000
KFxC
  0
XRECORD
  5
100000BF
102
{ACAD_REACTORS
330
100000BE
102
}
330
100000BE
100
AcDbXrecord
1000
KFJD
  0
XRECORD
  5
100000C2
102
{ACAD_REACTORS
330
100000C1
102
}
330
100000C1
100
AcDbXrecord
1000
KF9C
  0
XRECORD
  5
100000C5
102
{ACAD_REACTORS
330
100000C4
102
}
330
100000C4
100
AcDbXrecord
1000
KFVD
  0
XRECORD
  5
100000C8
102
{ACAD_REACTORS
330
100000C7
102
}
330
100000C7
100
AcDbXrecord
1000
KFhD
  0
XRECORD
  5
100000CB
102
{ACAD_REACTORS
330
100000CA
102
}
330
100000CA
100
AcDbXrecord
1000
KFtD
  0
MATERIAL
  5
45
102
{ACAD_REACTORS
330
43
102
}
102
{ACAD_XDICTIONARY
360
10000101
102
}
330
43
100
AcDbMaterial
  1
BYBLOCK
  0
MATERIAL
  5
44
102
{ACAD_REACTORS
330
43
102
}
102
{ACAD_XDICTIONARY
360
100000FF
102
}
330
43
100
AcDbMaterial
  1
BYLAYER
  0
MATERIAL
  5
46
102
{ACAD_REACTORS
330
43
102
}
102
{ACAD_XDICTIONARY
360
10000103
102
}
330
43
100
AcDbMaterial
  1
GLOBAL
  0
ACAD_PROXY_OBJECT
  5
6C
102
{ACAD_REACTORS
330
6B
102
}
330
6B
100
AcDbProxyObject
 90
      499
 91
      505
 93
      610
310
40901902A4063FBFFFFFE0000000000000020400000000000020404214DD185B99185C990000000000000104090141901A00000000000004100000000000000041025764000000000000039000
340
14
340
0
340
11
340
0
 94
        0
1001
ACAD_MLEADERVER
1070
     2
  0
MLINESTYLE
  5
18
102
{ACAD_REACTORS
330
17
102
}
330
17
100
AcDbMlineStyle
  2
Standard
 70
     0
  3

 62
   256
 51
90.0
 52
90.0
 71
     2
 49
0.5
 62
   256
  6
BYLAYER
 49
-0.5
 62
   256
  6
BYLAYER
  0
ACAD_PROXY_OBJECT
  5
10000023
102
{ACAD_REACTORS
330
47
102
}
330
47
100
AcDbProxyObject
 90
      499
 91
      503
 93
      121
310
9053130303A310000000000001650100
  0
ACAD_PROXY_OBJECT
  5
1000001D
102
{ACAD_REACTORS
330
47
102
}
330
47
100
AcDbProxyObject
 90
      499
 91
      503
 93
      113
310
90431303A310000000000000910100
  0
ACAD_PROXY_OBJECT
  5
1000001E
102
{ACAD_REACTORS
330
47
102
}
330
47
100
AcDbProxyObject
 90
      499
 91
      503
 93
      113
310
90431323A310000000000000A10100
  0
ACAD_PROXY_OBJECT
  5
1000001F
102
{ACAD_REACTORS
330
47
102
}
330
47
100
AcDbProxyObject
 90
      499
 91
      503
 93
      113
310
90431363A310000000000000C10100
  0
ACAD_PROXY_OBJECT
  5
10000006
102
{ACAD_REACTORS
330
47
102
}
330
47
100
AcDbProxyObject
 90
      499
 91
      503
 93
       41
310
903313A31500
  0
ACAD_PROXY_OBJECT
  5
1000000D
102
{ACAD_REACTORS
330
47
102
}
330
47
100
AcDbProxyObject
 90
      499
 91
      503
 93
      113
310
904313A31304000000000000244000
  0
ACAD_PROXY_OBJECT
  5
10000016
102
{ACAD_REACTORS
330
47
102
}
330
47
100
AcDbProxyObject
 90
      499
 91
      503
 93
      121
310
905313A3130304000000000000594000
  0
ACAD_PROXY_OBJECT
  5
1000000E
102
{ACAD_REACTORS
330
47
102
}
330
47
100
AcDbProxyObject
 90
      499
 91
      503
 93
      113
310
904313A31324000000000000284000
  0
ACAD_PROXY_OBJECT
  5
1000000F
102
{ACAD_REACTORS
330
47
102
}
330
47
100
AcDbProxyObject
 90
      499
 91
      503
 93
      113
310
904313A31364000000000000304000
  0
ACAD_PROXY_OBJECT
  5
10000007
102
{ACAD_REACTORS
330
47
102
}
330
47
100
AcDbProxyObject
 90
      499
 91
      503
 93
      105
310
903313A324000000000000004000
  0
ACAD_PROXY_OBJECT
  5
10000010
102
{ACAD_REACTORS
330
47
102
}
330
47
100
AcDbProxyObject
 90
      499
 91
      503
 93
      113
310
904313A32304000000000000344000
  0
ACAD_PROXY_OBJECT
  5
10000011
102
{ACAD_REACTORS
330
47
102
}
330
47
100
AcDbProxyObject
 90
      499
 91
      503
 93
      113
310
904313A32354000000000000394000
  0
ACAD_PROXY_OBJECT
  5
10000008
102
{ACAD_REACTORS
330
47
102
}
330
47
100
AcDbProxyObject
 90
      499
 91
      503
 93
      105
310
903313A334000000000000084000
  0
ACAD_PROXY_OBJECT
  5
10000012
102
{ACAD_REACTORS
330
47
102
}
330
47
100
AcDbProxyObject
 90
      499
 91
      503
 93
      113
310
904313A33324000000000000404000
  0
ACAD_PROXY_OBJECT
  5
10000009
102
{ACAD_REACTORS
330
47
102
}
330
47
100
AcDbProxyObject
 90
      499
 91
      503
 93
      105
310
903313A344000000000000104000
  0
ACAD_PROXY_OBJECT
  5
10000013
102
{ACAD_REACTORS
330
47
102
}
330
47
100
AcDbProxyObject
 90
      499
 91
      503
 93
      113
310
904313A34304000000000000444000
  0
ACAD_PROXY_OBJECT
  5
1000000A
102
{ACAD_REACTORS
330
47
102
}
330
47
100
AcDbProxyObject
 90
      499
 91
      503
 93
      105
310
903313A354000000000000144000
  0
ACAD_PROXY_OBJECT
  5
10000014
102
{ACAD_REACTORS
330
47
102
}
330
47
100
AcDbProxyObject
 90
      499
 91
      503
 93
      113
310
904313A35304000000000000494000
  0
ACAD_PROXY_OBJECT
  5
1000000B
102
{ACAD_REACTORS
330
47
102
}
330
47
100
AcDbProxyObject
 90
      499
 91
      503
 93
      105
310
903313A364000000000000184000
  0
ACAD_PROXY_OBJECT
  5
1000000C
102
{ACAD_REACTORS
330
47
102
}
330
47
100
AcDbProxyObject
 90
      499
 91
      503
 93
      105
310
903313A384000000000000204000
  0
ACAD_PROXY_OBJECT
  5
10000015
102
{ACAD_REACTORS
330
47
102
}
330
47
100
AcDbProxyObject
 90
      499
 91
      503
 93
      113
310
904313A38304000000000000544000
  0
ACAD_PROXY_OBJECT
  5
10000020
102
{ACAD_REACTORS
330
47
102
}
330
47
100
AcDbProxyObject
 90
      499
 91
      503
 93
      113
310
90432303A310000000000000D10100
  0
ACAD_PROXY_OBJECT
  5
10000017
102
{ACAD_REACTORS
330
47
102
}
330
47
100
AcDbProxyObject
 90
      499
 91
      503
 93
      105
310
903323A310000000000000010100
  0
ACAD_PROXY_OBJECT
  5
10000021
102
{ACAD_REACTORS
330
47
102
}
330
47
100
AcDbProxyObject
 90
      499
 91
      503
 93
      113
310
90433323A310000000000001010100
  0
ACAD_PROXY_OBJECT
  5
10000018
102
{ACAD_REACTORS
330
47
102
}
330
47
100
AcDbProxyObject
 90
      499
 91
      503
 93
      105
310
903333A310000000000000210100
  0
ACAD_PROXY_OBJECT
  5
10000019
102
{ACAD_REACTORS
330
47
102
}
330
47
100
AcDbProxyObject
 90
      499
 91
      503
 93
      105
310
903343A310000000000000410100
  0
ACAD_PROXY_OBJECT
  5
10000022
102
{ACAD_REACTORS
330
47
102
}
330
47
100
AcDbProxyObject
 90
      499
 91
      503
 93
      113
310
90435303A310000000000001250100
  0
ACAD_PROXY_OBJECT
  5
1000001A
102
{ACAD_REACTORS
330
47
102
}
330
47
100
AcDbProxyObject
 90
      499
 91
      503
 93
      105
310
903353A310000000000000510100
  0
ACAD_PROXY_OBJECT
  5
1000001B
102
{ACAD_REACTORS
330
47
102
}
330
47
100
AcDbProxyObject
 90
      499
 91
      503
 93
      105
310
903363A310000000000000610100
  0
ACAD_PROXY_OBJECT
  5
1000001C
102
{ACAD_REACTORS
330
47
102
}
330
47
100
AcDbProxyObject
 90
      499
 91
      503
 93
      105
310
903383A310000000000000810100
  0
ACAD_PROXY_OBJECT
  5
2F
102
{ACAD_REACTORS
330
2A
102
}
330
2A
100
AcDbProxyObject
 90
      499
 91
      501
 93
      436
310
42CC9915DA5C99599C985B595049028333333333333E33F0000000000000F90107901411070040501600405405064090741402480A0340
1001
ACAD
1000
AcDbSavedByObjectVersion
1070
     0
  0
ACAD_PROXY_OBJECT
  5
32
102
{ACAD_REACTORS
330
2A
102
}
330
2A
100
AcDbProxyObject
 90
      499
 91
      501
 93
      388
310
4150985CDA58D07406404333333333333E33F0000000000000F90107A41107004050150841D405064090741402480A0350
1001
ACAD
1000
AcDbSavedByObjectVersion
1070
     0
  0
ACAD_PROXY_OBJECT
  5
36
102
{ACAD_REACTORS
330
2A
102
}
330
2A
100
AcDbProxyObject
 90
      499
 91
      501
 93
      428
310
42109C9A59DA1D195B90C409028333333333333E33F0000000000000F9010790141107004050150841D405064090741402480A029950
1001
ACAD
1000
AcDbSavedByObjectVersion
1070
     0
  0
ACAD_PROXY_OBJECT
  5
3A
102
{ACAD_REACTORS
330
2A
102
}
330
2A
100
AcDbProxyObject
 90
      499
 91
      501
 93
      452
310
42D0DBDB1BDC90DA185B99D95104090240C333333333333E33F0000000000000F90108901411070040501508421405064090741402480A0350
1001
ACAD
1000
AcDbSavedByObjectVersion
1070
     0
  0
ACAD_PROXY_OBJECT
  5
34
102
{ACAD_REACTORS
330
2A
102
}
330
2A
100
AcDbProxyObject
 90
      499
 91
      501
 93
      500
310
4290DBDB98D95C1D1D585B10940D028333333333333E33F0000000000000F90107902409070040501000000000018199010841D405064090740C02480A0340
1001
ACAD
1000
AcDbSavedByObjectVersion
1070
     0
  0
ACAD_PROXY_OBJECT
  5
35
102
{ACAD_REACTORS
330
2A
102
}
330
2A
100
AcDbProxyObject
 90
      499
 91
      501
 93
      412
310
40D11A5B50B409028333333333333E33F0000000000000F9010790141107004050150841D405064090741402480A02677FFFFFD0
1001
ACAD
1000
AcDbSavedByObjectVersion
1070
     0
  0
ACAD_PROXY_OBJECT
  5
3D
102
{ACAD_REACTORS
330
2A
102
}
330
2A
100
AcDbProxyObject
 90
      499
 91
      501
 93
      452
310
43115919D950DBDB1BDC93D999916409028333333333333E33F0000000000000F9010790141107004050150841D405064090741402480A0350
1001
ACAD
1000
AcDbSavedByObjectVersion
1070
     0
  0
ACAD_PROXY_OBJECT
  5
39
102
{ACAD_REACTORS
330
2A
102
}
330
2A
100
AcDbProxyObject
 90
      499
 91
      501
 93
      444
310
42D19858D95C185D1D195C9B90F409028333333333333E33F0000000000000F9010790141107004050150841D405064090741402480A0350
1001
ACAD
1000
AcDbSavedByObjectVersion
1070
     0
  0
ACAD_PROXY_OBJECT
  5
2B
102
{ACAD_REACTORS
330
2A
102
}
330
2A
100
AcDbProxyObject
 90
      499
 91
      501
 93
      380
310
41119B185D240901404333333333333E33F0000000000000F9010740A907004050150841D405064090741402480A1B50
1001
ACAD
1000
AcDbSavedByObjectVersion
1070
     0
  0
ACAD_PROXY_OBJECT
  5
2C
102
{ACAD_REACTORS
330
2A
102
}
330
2A
100
AcDbProxyObject
 90
      499
 91
      501
 93
      468
310
43519B185D15DA5D1A115919D95CD0140901404333333333333E33F0000000000000F90107409019070040501600405405064090741402480A1B50
1001
ACAD
1000
AcDbSavedByObjectVersion
1070
     0
  0
ACAD_PROXY_OBJECT
  5
2D
102
{ACAD_REACTORS
330
2A
102
}
330
2A
100
AcDbProxyObject
 90
      499
 91
      501
 93
      404
310
41D1DBDD5C985D5910240902404333333333333E33F0000000000000F9010740A9070040501641D405064090741402480A1B50
1001
ACAD
1000
AcDbSavedByObjectVersion
1070
     0
  0
ACAD_PROXY_OBJECT
  5
2E
102
{ACAD_REACTORS
330
2A
102
}
330
2A
100
AcDbProxyObject
 90
      499
 91
      501
 93
      492
310
4411DBDD5C985D5915DA5D1A115919D95CD0340902404333333333333E33F0000000000000F90107409019070040501600405405064090741402480A1B50
1001
ACAD
1000
AcDbSavedByObjectVersion
1070
     0
  0
ACAD_PROXY_OBJECT
  5
31
102
{ACAD_REACTORS
330
2A
102
}
330
2A
100
AcDbProxyObject
 90
      499
 91
      501
 93
      476
310
41921A5919195B90640502408333333333333E33F0000000000000F901079024090700405020000000000001110200405405064090740C02480A0340
1001
ACAD
1000
AcDbSavedByObjectVersion
1070
     0
  0
ACAD_PROXY_OBJECT
  5
3B
102
{ACAD_REACTORS
330
2A
102
}
330
2A
100
AcDbProxyObject
 90
      499
 91
      501
 93
      428
310
42529A5D1D195C93D999914409028333333333333E33F0000000000000F9010790141107004050150A41D405064090741402480A0350
1001
ACAD
1000
AcDbSavedByObjectVersion
1070
     0
  0
ACAD_PROXY_OBJECT
  5
38
102
{ACAD_REACTORS
330
2A
102
}
330
2A
100
AcDbProxyObject
 90
      499
 91
      501
 93
      444
310
42D31A5B995C185D1D195C9B90E409028333333333333E33F0000000000000F9010790141107004050750841D405064090741402483A0350
1001
ACAD
1000
AcDbSavedByObjectVersion
1070
     0
  0
ACAD_PROXY_OBJECT
  5
3C
102
{ACAD_REACTORS
330
2A
102
}
330
2A
100
AcDbProxyObject
 90
      499
 91
      501
 93
      444
310
42D3DD995C9A185B99D3D999915409028333333333333E33F0000000000000F9010790141107004050150941D405064090741402480A0350
1001
ACAD
1000
AcDbSavedByObjectVersion
1070
     0
  0
ACAD_PROXY_OBJECT
  5
33
102
{ACAD_REACTORS
330
2A
102
}
330
2A
100
AcDbProxyObject
 90
      499
 91
      501
 93
      428
310
425499585B1A5CDD1A58D08409038333333333333E33F0000000000000F9010740A907004050150800405405064090740C02480A1B40
1001
ACAD
1000
AcDbSavedByObjectVersion
1070
     0
  0
ACAD_PROXY_OBJECT
  5
42
102
{ACAD_REACTORS
330
2A
102
}
330
2A
100
AcDbProxyObject
 90
      499
 91
      501
 93
      420
310
4194DA1859195911B40902404333333333333E33F0000000000000F9010740A41107004050150800405405064090840C02480A0B40
1001
ACAD
1000
AcDbSavedByObjectVersion
1070
     0
  0
ACAD_PROXY_OBJECT
  5
41
102
{ACAD_REACTORS
330
2A
102
}
330
2A
100
AcDbProxyObject
 90
      499
 91
      501
 93
      516
310
4454DA18591959081DDA5D1A08195919D95CD1A40902404333333333333E33F0000000000000F901074090142907004050250800405405064090740C02480A0B40
1001
ACAD
1000
AcDbSavedByObjectVersion
1070
     0
  0
ACAD_PROXY_OBJECT
  5
3E
102
{ACAD_REACTORS
330
2A
102
}
330
2A
100
AcDbProxyObject
 90
      499
 91
      501
 93
      532
310
4394DA1859195CC81BD98811DC985E5174090240C333333333333E33F0000000000000F901079024090741D01000000000000111010841D405064090740C02480A0340
1001
ACAD
1000
AcDbSavedByObjectVersion
1070
     0
  0
ACAD_PROXY_OBJECT
  5
3F
102
{ACAD_REACTORS
330
2A
102
}
330
2A
100
AcDbProxyObject
 90
      499
 91
      501
 93
      476
310
41D4DAD95D18DA1E51840502408333333333333E33F0000000000000F901079024090741D01000000000000111010B41D405064090741802480A0340
1001
ACAD
1000
AcDbSavedByObjectVersion
1070
     0
  0
ACAD_PROXY_OBJECT
  5
37
102
{ACAD_REACTORS
330
2A
102
}
330
2A
100
AcDbProxyObject
 90
      499
 91
      501
 93
      412
310
41D51A1A58DAD95B90D409028333333333333E33F0000000000000F9010790141107004050150C41D405064090741402480A0350
1001
ACAD
1000
AcDbSavedByObjectVersion
1070
     0
  0
ACAD_PROXY_OBJECT
  5
30
102
{ACAD_REACTORS
330
2A
102
}
330
2A
100
AcDbProxyObject
 90
      499
 91
      501
 93
      420
310
4255DA5C99599C985B595059028333333333333E33F0000000000000F90107901411070040501600405405064090740C02480A0340
1001
ACAD
1000
AcDbSavedByObjectVersion
1070
     0
  0
ACAD_PROXY_OBJECT
  5
40
102
{ACAD_REACTORS
330
2A
102
}
330
2A
100
AcDbProxyObject
 90
      499
 91
      501
 93
      404
310
41560B54985E51940902404000000000000E03F0000000000000F9010740501907004050150841D405064090740C02480A1B40
1001
ACAD
1000
AcDbSavedByObjectVersion
1070
     0
  0
XRECORD
  5
100000D8
102
{ACAD_REACTORS
330
100000CE
102
}
330
100000CE
100
AcDbXrecord
340
0
  0
XRECORD
  5
100000D7
102
{ACAD_REACTORS
330
100000CE
102
}
330
100000CE
100
AcDbXrecord
 90
        0
  0
XRECORD
  5
100000EE
102
{ACAD_REACTORS
330
100000CE
102
}
330
100000CE
100
AcDbXrecord
1000
DSTYLE
1002
{
1070
   340
340
11
1002
}
  0
XRECORD
  5
100000D9
102
{ACAD_REACTORS
330
100000CE
102
}
330
100000CE
100
AcDbXrecord
  1
{76797575-b6b4-7179-e436-74347875f1b9}
  0
XRECORD
  5
100000D1
102
{ACAD_REACTORS
330
100000CE
102
}
330
100000CE
100
AcDbXrecord
  1

  0
XRECORD
  5
100000D6
102
{ACAD_REACTORS
330
100000CE
102
}
330
100000CE
100
AcDbXrecord
 90
        4
  0
XRECORD
  5
100000D3
102
{ACAD_REACTORS
330
100000CE
102
}
330
100000CE
100
AcDbXrecord
340
1A
  0
XRECORD
  5
100000D5
102
{ACAD_REACTORS
330
100000CE
102
}
330
100000CE
100
AcDbXrecord
 90
    10781
  0
XRECORD
  5
100000D4
102
{ACAD_REACTORS
330
100000CE
102
}
330
100000CE
100
AcDbXrecord
340
19
  0
XRECORD
  5
100000DB
102
{ACAD_REACTORS
330
100000CE
102
}
330
100000CE
100
AcDbXrecord
 40
0.0
  0
XRECORD
  5
100000DE
102
{ACAD_REACTORS
330
100000CE
102
}
330
100000CE
100
AcDbXrecord
340
0
  0
XRECORD
  5
100000E4
102
{ACAD_REACTORS
330
100000CE
102
}
330
100000CE
100
AcDbXrecord
 10
0.0
 20
0.0
 30
0.0
  0
XRECORD
  5
100000E0
102
{ACAD_REACTORS
330
100000CE
102
}
330
100000CE
100
AcDbXrecord
 10
0.0
 20
0.0
 30
0.0
  0
XRECORD
  5
100000E3
102
{ACAD_REACTORS
330
100000CE
102
}
330
100000CE
100
AcDbXrecord
 10
0.0
 20
0.0
 30
0.0
  0
XRECORD
  5
100000E1
102
{ACAD_REACTORS
330
100000CE
102
}
330
100000CE
100
AcDbXrecord
 10
0.0
 20
0.0
 30
0.0
  0
XRECORD
  5
100000E2
102
{ACAD_REACTORS
330
100000CE
102
}
330
100000CE
100
AcDbXrecord
 10
0.0
 20
0.0
 30
0.0
  0
XRECORD
  5
100000DF
102
{ACAD_REACTORS
330
100000CE
102
}
330
100000CE
100
AcDbXrecord
 10
0.0
 20
0.0
 30
0.0
  0
XRECORD
  5
100000DC
102
{ACAD_REACTORS
330
100000CE
102
}
330
100000CE
100
AcDbXrecord
340
0
  0
XRECORD
  5
100000DD
102
{ACAD_REACTORS
330
100000CE
102
}
330
100000CE
100
AcDbXrecord
 70
     0
  0
XRECORD
  5
100000D2
102
{ACAD_REACTORS
330
100000CE
102
}
330
100000CE
100
AcDbXrecord
  1

  0
XRECORD
  5
100000CF
102
{ACAD_REACTORS
330
100000CE
102
}
330
100000CE
100
AcDbXrecord
 90
        1
  0
XRECORD
  5
100000D0
102
{ACAD_REACTORS
330
100000CE
102
}
330
100000CE
100
AcDbXrecord
 90
       70
  0
XRECORD
  5
100000E7
102
{ACAD_REACTORS
330
100000CE
102
}
330
100000CE
100
AcDbXrecord
340
0
  0
XRECORD
  5
100000ED
102
{ACAD_REACTORS
330
100000CE
102
}
330
100000CE
100
AcDbXrecord
 10
0.0
 20
0.0
 30
0.0
  0
XRECORD
  5
100000E9
102
{ACAD_REACTORS
330
100000CE
102
}
330
100000CE
100
AcDbXrecord
 10
0.0
 20
0.0
 30
0.0
  0
XRECORD
  5
100000EC
102
{ACAD_REACTORS
330
100000CE
102
}
330
100000CE
100
AcDbXrecord
 10
0.0
 20
0.0
 30
0.0
  0
XRECORD
  5
100000EA
102
{ACAD_REACTORS
330
100000CE
102
}
330
100000CE
100
AcDbXrecord
 10
0.0
 20
0.0
 30
0.0
  0
XRECORD
  5
100000EB
102
{ACAD_REACTORS
330
100000CE
102
}
330
100000CE
100
AcDbXrecord
 10
0.0
 20
0.0
 30
0.0
  0
XRECORD
  5
100000E8
102
{ACAD_REACTORS
330
100000CE
102
}
330
100000CE
100
AcDbXrecord
 10
0.0
 20
0.0
 30
0.0
  0
XRECORD
  5
100000E5
102
{ACAD_REACTORS
330
100000CE
102
}
330
100000CE
100
AcDbXrecord
340
0
  0
XRECORD
  5
100000E6
102
{ACAD_REACTORS
330
100000CE
102
}
330
100000CE
100
AcDbXrecord
 70
     0
  0
XRECORD
  5
100000DA
102
{ACAD_REACTORS
330
100000CE
102
}
330
100000CE
100
AcDbXrecord
  1
{FAEB1C32-E019-11D5-929B-00C0DF256EC4}
  0
DICTIONARYVAR
  5
100000FD
102
{ACAD_REACTORS
330
100000EF
102
}
330
100000EF
100
DictionaryVariables
280
     0
  1
1:1
  0
DICTIONARYVAR
  5
100000F6
102
{ACAD_REACTORS
330
100000EF
102
}
330
100000EF
100
DictionaryVariables
280
     0
  1
3.500000
  0
DICTIONARYVAR
  5
100000F7
102
{ACAD_REACTORS
330
100000EF
102
}
330
100000EF
100
DictionaryVariables
280
     0
  1
acadiso.lin
  0
DICTIONARYVAR
  5
100000F1
102
{ACAD_REACTORS
330
100000EF
102
}
330
100000EF
100
DictionaryVariables
280
     0
  1
Standard
  0
DICTIONARYVAR
  5
100000F0
102
{ACAD_REACTORS
330
100000EF
102
}
330
100000EF
100
DictionaryVariables
280
     0
  1
Standard
  0
DICTIONARYVAR
  5
100000F8
102
{ACAD_REACTORS
330
100000EF
102
}
330
100000EF
100
DictionaryVariables
280
     0
  1
2
  0
DICTIONARYVAR
  5
100000F9
102
{ACAD_REACTORS
330
100000EF
102
}
330
100000EF
100
DictionaryVariables
280
     0
  1
1
  0
DICTIONARYVAR
  5
100000FE
102
{ACAD_REACTORS
330
100000EF
102
}
330
100000EF
100
DictionaryVariables
280
     0
  1
1
  0
DICTIONARYVAR
  5
100000F3
102
{ACAD_REACTORS
330
100000EF
102
}
330
100000EF
100
DictionaryVariables
280
     0
  1
80.000000
  0
DICTIONARYVAR
  5
100000F2
102
{ACAD_REACTORS
330
100000EF
102
}
330
100000EF
100
DictionaryVariables
280
     0
  1
5.000000
  0
XRECORD
  5
10000003
102
{ACAD_REACTORS
330
10000001
102
}
330
10000001
100
AcDbXrecord
 70
     4
  0
XRECORD
  5
10000002
102
{ACAD_REACTORS
330
10000001
102
}
330
10000001
100
AcDbXrecord
1040
89.0
  0
ACAD_PROXY_OBJECT
  5
10000005
102
{ACAD_REACTORS
330
10000001
102
}
330
10000001
100
AcDbProxyObject
 90
      499
 91
      509
 93
       34
310
40C8804040
  0
DICTIONARY
  5
10000101
330
45
100
AcDbDictionary
280
     1
  3
ACAD_XREC_ROUNDTRIP
360
10000102
  0
DICTIONARY
  5
100000FF
330
44
100
AcDbDictionary
280
     1
  3
ACAD_XREC_ROUNDTRIP
360
10000100
  0
DICTIONARY
  5
10000103
330
46
100
AcDbDictionary
280
     1
  3
ACAD_XREC_ROUNDTRIP
360
10000104
  0
XRECORD
  5
10000102
102
{ACAD_REACTORS
330
10000101
102
}
330
10000101
100
AcDbXrecord
102
MATERIAL
148
0.0
149
0.0
149
0.0
 93
        0
 94
      127
282
     0
 72
     1
 77
     1
171
     1
175
     1
179
     1
273
     0
  0
XRECORD
  5
10000100
102
{ACAD_REACTORS
330
100000FF
102
}
330
100000FF
100
AcDbXrecord
102
MATERIAL
148
0.0
149
0.0
149
0.0
 93
        0
 94
      127
282
     0
 72
     1
 77
     1
171
     1
175
     1
179
     1
273
     0
  0
XRECORD
  5
10000104
102
{ACAD_REACTORS
330
10000103
102
}
330
10000103
100
AcDbXrecord
102
MATERIAL
148
0.0
149
0.0
149
0.0
 93
        0
 94
      127
282
     0
 72
     1
 77
     1
171
     1
175
     1
179
     1
273
     0
  0
ENDSEC
  0
EOF
