  0
SECTION
  2
HEADER
  9
$ACADVER
  1
AC1014
  9
$ACADMAINTVER
 70
     9
  9
$DWGCODEPAGE
  3
ANSI_1252
  9
$INSBASE
 10
0.0
 20
0.0
 30
0.0
  9
$EXTMIN
 10
1.000000000000000E+20
 20
1.000000000000000E+20
 30
1.000000000000000E+20
  9
$EXTMAX
 10
-1.000000000000000E+20
 20
-1.000000000000000E+20
 30
-1.000000000000000E+20
  9
$LIMMIN
 10
0.0
 20
0.0
  9
$LIMMAX
 10
420.0
 20
297.0
  9
$ORTHOMODE
 70
     0
  9
$REGENMODE
 70
     1
  9
$FILLMODE
 70
     1
  9
$QTEXTMODE
 70
     0
  9
$MIRRTEXT
 70
     1
  9
$DRAGMODE
 70
     2
  9
$LTSCALE
 40
1.0
  9
$OSMODE
 70
    37
  9
$ATTMODE
 70
     1
  9
$TEXTSIZE
 40
2.5
  9
$TRACEWID
 40
1.0
  9
$TEXTSTYLE
  7
STANDARD
  9
$CLAYER
  8
0
  9
$CELTYPE
  6
BYLAYER
  9
$CECOLOR
 62
   256
  9
$CELTSCALE
 40
1.0
  9
$DELOBJ
 70
     1
  9
$DISPSILH
 70
     0
  9
$DIMSCALE
 40
1.0
  9
$DIMASZ
 40
2.5
  9
$DIMEXO
 40
0.625
  9
$DIMDLI
 40
3.75
  9
$DIMRND
 40
0.0
  9
$DIMDLE
 40
0.0
  9
$DIMEXE
 40
1.25
  9
$DIMTP
 40
0.0
  9
$DIMTM
 40
0.0
  9
$DIMTXT
 40
2.5
  9
$DIMCEN
 40
2.5
  9
$DIMTSZ
 40
0.0
  9
$DIMTOL
 70
     0
  9
$DIMLIM
 70
     0
  9
$DIMTIH
 70
     0
  9
$DIMTOH
 70
     0
  9
$DIMSE1
 70
     0
  9
$DIMSE2
 70
     0
  9
$DIMTAD
 70
     1
  9
$DIMZIN
 70
     8
  9
$DIMBLK
  1

  9
$DIMASO
 70
     1
  9
$DIMSHO
 70
     1
  9
$DIMPOST
  1

  9
$DIMAPOST
  1

  9
$DIMALT
 70
     0
  9
$DIMALTD
 70
     3
  9
$DIMALTF
 40
0.03937007874016
  9
$DIMLFAC
 40
1.0
  9
$DIMTOFL
 70
     1
  9
$DIMTVP
 40
0.0
  9
$DIMTIX
 70
     0
  9
$DIMSOXD
 70
     0
  9
$DIMSAH
 70
     0
  9
$DIMBLK1
  1

  9
$DIMBLK2
  1

  9
$DIMSTYLE
  2
ISO-25
  9
$DIMCLRD
 70
     0
  9
$DIMCLRE
 70
     0
  9
$DIMCLRT
 70
     0
  9
$DIMTFAC
 40
1.0
  9
$DIMGAP
 40
0.625
  9
$DIMJUST
 70
     0
  9
$DIMSD1
 70
     0
  9
$DIMSD2
 70
     0
  9
$DIMTOLJ
 70
     0
  9
$DIMTZIN
 70
     8
  9
$DIMALTZ
 70
     0
  9
$DIMALTTZ
 70
     0
  9
$DIMFIT
 70
     3
  9
$DIMUPT
 70
     0
  9
$DIMUNIT
 70
     2
  9
$DIMDEC
 70
     2
  9
$DIMTDEC
 70
     2
  9
$DIMALTU
 70
     2
  9
$DIMALTTD
 70
     3
  9
$DIMTXSTY
  7
STANDARD
  9
$DIMAUNIT
 70
     0
  9
$LUNITS
 70
     2
  9
$LUPREC
 70
     4
  9
$SKETCHINC
 40
1.0
  9
$FILLETRAD
 40
10.0
  9
$AUNITS
 70
     0
  9
$AUPREC
 70
     0
  9
$MENU
  1
.
  9
$ELEVATION
 40
0.0
  9
$PELEVATION
 40
0.0
  9
$THICKNESS
 40
0.0
  9
$LIMCHECK
 70
     0
  9
$CHAMFERA
 40
0.0
  9
$CHAMFERB
 40
0.0
  9
$CHAMFERC
 40
0.0
  9
$CHAMFERD
 40
0.0
  9
$SKPOLY
 70
     0
  9
$TDCREATE
 40
2460568.535449051
  9
$TDUPDATE
 40
2460568.535449062
  9
$TDINDWG
 40
0.0000000116
  9
$TDUSRTIMER
 40
0.0000000116
  9
$USRTIMER
 70
     1
  9
$ANGBASE
 50
0.0
  9
$ANGDIR
 70
     0
  9
$PDMODE
 70
     0
  9
$PDSIZE
 40
0.0
  9
$PLINEWID
 40
0.0
  9
$COORDS
 70
     1
  9
$SPLFRAME
 70
     0
  9
$SPLINETYPE
 70
     6
  9
$SPLINESEGS
 70
     8
  9
$ATTDIA
 70
     0
  9
$ATTREQ
 70
     1
  9
$HANDLING
 70
     1
  9
$HANDSEED
  5
10000172
  9
$SURFTAB1
 70
     6
  9
$SURFTAB2
 70
     6
  9
$SURFTYPE
 70
     6
  9
$SURFU
 70
     6
  9
$SURFV
 70
     6
  9
$UCSNAME
  2

  9
$UCSORG
 10
0.0
 20
0.0
 30
0.0
  9
$UCSXDIR
 10
1.0
 20
0.0
 30
0.0
  9
$UCSYDIR
 10
0.0
 20
1.0
 30
0.0
  9
$PUCSNAME
  2

  9
$PUCSORG
 10
0.0
 20
0.0
 30
0.0
  9
$PUCSXDIR
 10
1.0
 20
0.0
 30
0.0
  9
$PUCSYDIR
 10
0.0
 20
1.0
 30
0.0
  9
$USERI1
 70
     0
  9
$USERI2
 70
     0
  9
$USERI3
 70
     0
  9
$USERI4
 70
     0
  9
$USERI5
 70
     0
  9
$USERR1
 40
0.0
  9
$USERR2
 40
0.0
  9
$USERR3
 40
0.0
  9
$USERR4
 40
0.0
  9
$USERR5
 40
0.0
  9
$WORLDVIEW
 70
     1
  9
$SHADEDGE
 70
     3
  9
$SHADEDIF
 70
    70
  9
$TILEMODE
 70
     1
  9
$MAXACTVP
 70
    64
  9
$PINSBASE
 10
0.0
 20
0.0
 30
0.0
  9
$PLIMCHECK
 70
     0
  9
$PEXTMIN
 10
1.000000000000000E+20
 20
1.000000000000000E+20
 30
1.000000000000000E+20
  9
$PEXTMAX
 10
-1.000000000000000E+20
 20
-1.000000000000000E+20
 30
-1.000000000000000E+20
  9
$PLIMMIN
 10
0.0
 20
0.0
  9
$PLIMMAX
 10
420.0
 20
297.0
  9
$UNITMODE
 70
     0
  9
$VISRETAIN
 70
     1
  9
$PLINEGEN
 70
     0
  9
$PSLTSCALE
 70
     1
  9
$TREEDEPTH
 70
  3020
  9
$PICKSTYLE
 70
     1
  9
$CMLSTYLE
  2
STANDARD
  9
$CMLJUST
 70
     0
  9
$CMLSCALE
 40
20.0
  9
$PROXYGRAPHICS
 70
     1
  9
$MEASUREMENT
 70
     1
  0
ENDSEC
  0
SECTION
  2
CLASSES
  0
CLASS
  1
ACDBDICTIONARYWDFLT
  2
AcDbDictionaryWithDefault
  3
ObjectDBX Classes
 90
        0
280
     0
281
     0
  0
CLASS
  1
VISUALSTYLE
  2
AcDbVisualStyle
  3
ObjectDBX Classes
 90
     4095
280
     0
281
     0
  0
CLASS
  1
MATERIAL
  2
AcDbMaterial
  3
ObjectDBX Classes
 90
     1153
280
     0
281
     0
  0
CLASS
  1
SCALE
  2
AcDbScale
  3
ObjectDBX Classes
 90
     1153
280
     0
281
     0
  0
CLASS
  1
TABLESTYLE
  2
AcDbTableStyle
  3
ObjectDBX Classes
 90
     4095
280
     0
281
     0
  0
CLASS
  1
MLEADERSTYLE
  2
AcDbMLeaderStyle
  3
ACDB_MLEADERSTYLE_CLASS
 90
     4095
280
     0
281
     0
  0
CLASS
  1
SUN
  2
AcDbSun
  3
SCENEOE
 90
     1153
280
     0
281
     0
  0
CLASS
  1
SORTENTSTABLE
  2
AcDbSortentsTable
  3
ObjectDBX Classes
 90
        0
280
     0
281
     0
  0
CLASS
  1
DICTIONARYVAR
  2
AcDbDictionaryVar
  3
ObjectDBX Classes
 90
        0
280
     0
281
     0
  0
CLASS
  1
XRECORD
  2
AcDbXrecord
  3
ObjectDBX Classes
 90
        0
280
     0
281
     0
  0
CLASS
  1
LWPOLYLINE
  2
AcDbPolyline
  3
ObjectDBX Classes
 90
        0
280
     0
281
     1
  0
CLASS
  1
HATCH
  2
AcDbHatch
  3
ObjectDBX Classes
 90
        0
280
     0
281
     1
  0
CLASS
  1
ACDBPLACEHOLDER
  2
AcDbPlaceHolder
  3
ObjectDBX Classes
 90
        0
280
     0
281
     0
  0
CLASS
  1
LAYOUT
  2
AcDbLayout
  3
ObjectDBX Classes
 90
        0
280
     0
281
     0
  0
ENDSEC
  0
SECTION
  2
TABLES
  0
TABLE
  2
VPORT
  5
8
102
{ACAD_XDICTIONARY
360
10000167
102
}
330
0
100
AcDbSymbolTable
 70
     1
  0
VPORT
  5
29
330
8
100
AcDbSymbolTableRecord
100
AcDbViewportTableRecord
  2
*ACTIVE
 70
     0
 10
0.0
 20
0.0
 11
1.0
 21
1.0
 12
344.1869158878504
 22
148.5
 13
0.0
 23
0.0
 14
10.0
 24
10.0
 15
10.0
 25
10.0
 16
0.0
 26
0.0
 36
1.0
 17
0.0
 27
0.0
 37
0.0
 40
297.0
 41
1.972972972850329
 42
50.0
 43
0.0
 44
0.0
 50
0.0
 51
0.0
 71
     0
 72
   100
 73
     1
 74
     3
 75
     0
 76
     0
 77
     0
 78
     0
  0
ENDTAB
  0
TABLE
  2
LTYPE
  5
5
330
0
100
AcDbSymbolTable
 70
     7
  0
LTYPE
  5
14
330
5
100
AcDbSymbolTableRecord
100
AcDbLinetypeTableRecord
  2
BYBLOCK
 70
     0
  3

 72
    65
 73
     0
 40
0.0
  0
LTYPE
  5
15
330
5
100
AcDbSymbolTableRecord
100
AcDbLinetypeTableRecord
  2
BYLAYER
 70
     0
  3

 72
    65
 73
     0
 40
0.0
  0
LTYPE
  5
16
330
5
100
AcDbSymbolTableRecord
100
AcDbLinetypeTableRecord
  2
CONTINUOUS
 70
     0
  3
Solid line
 72
    65
 73
     0
 40
0.0
  0
LTYPE
  5
10000024
330
5
100
AcDbSymbolTableRecord
100
AcDbLinetypeTableRecord
  2
ONS_PHANTOM
 70
     0
  3
Onshape Phantom line ______ __ __ ______
 72
    65
 73
     6
 40
0.4999999999999999
 49
0.25
 74
     0
 49
-0.05
 74
     0
 49
0.05
 74
     0
 49
-0.05
 74
     0
 49
0.05
 74
     0
 49
-0.05
 74
     0
  0
LTYPE
  5
10000025
330
5
100
AcDbSymbolTableRecord
100
AcDbLinetypeTableRecord
  2
CENTER
 70
     0
  3
Center line ____ _ ____ _ ____ _
 72
    65
 73
     4
 40
0.7874015748031495
 49
0.4921259842519685
 74
     0
 49
-0.0984251968503937
 74
     0
 49
0.0984251968503937
 74
     0
 49
-0.0984251968503937
 74
     0
  0
LTYPE
  5
10000026
330
5
100
AcDbSymbolTableRecord
100
AcDbLinetypeTableRecord
  2
DASHED
 70
     0
  3
Dashed line __ __ __ __ __
 72
    65
 73
     2
 40
0.75
 49
0.5
 74
     0
 49
-0.25
 74
     0
  0
LTYPE
  5
10000027
330
5
100
AcDbSymbolTableRecord
100
AcDbLinetypeTableRecord
  2
ONS_DASHDOT
 70
     0
  3
Onshape Dashed with Dot _ . ____ . ____
 72
    65
 73
     4
 40
0.71
 49
0.5
 74
     0
 49
-0.1
 74
     0
 49
0.01
 74
     0
 49
-0.1
 74
     0
  0
LTYPE
  5
10000028
330
5
100
AcDbSymbolTableRecord
100
AcDbLinetypeTableRecord
  2
ONS_DOTTED
 70
     0
  3
Onshape Dotted line . . . . . . .
 72
    65
 73
     2
 40
0.11
 49
0.01
 74
     0
 49
-0.1
 74
     0
  0
LTYPE
  5
10000029
330
5
100
AcDbSymbolTableRecord
100
AcDbLinetypeTableRecord
  2
HIDDEN
 70
     0
  3
Hidden line ____ ____ ____ ____ 
 72
    65
 73
     2
 40
0.15
 49
0.1
 74
     0
 49
-0.05
 74
     0
  0
ENDTAB
  0
TABLE
  2
LAYER
  5
2
330
0
100
AcDbSymbolTable
 70
    40
  0
LAYER
  5
10
330
2
100
AcDbSymbolTableRecord
100
AcDbLayerTableRecord
  2
0
 70
     0
 62
     7
  6
CONTINUOUS
  0
LAYER
  5
1000002A
330
2
100
AcDbSymbolTableRecord
100
AcDbLayerTableRecord
  2
SECTION_CUTTING_LINE
 70
     0
 62
     7
  6
ONS_DASHDOT
  0
LAYER
  5
1000002B
330
2
100
AcDbSymbolTableRecord
100
AcDbLayerTableRecord
  2
DETAIL_VIEW_BORDER
 70
     0
 62
     7
  6
CONTINUOUS
  0
LAYER
  5
1000002C
330
2
100
AcDbSymbolTableRecord
100
AcDbLayerTableRecord
  2
DETAIL_VIEW_PARENT_BORDER
 70
     0
 62
     7
  6
ONS_PHANTOM
  0
LAYER
  5
1000002D
330
2
100
AcDbSymbolTableRecord
100
AcDbLayerTableRecord
  2
TEXT
 70
     0
 62
     7
  6
CONTINUOUS
  0
LAYER
  5
1000002E
330
2
100
AcDbSymbolTableRecord
100
AcDbLayerTableRecord
  2
SKETCHED_GEOMETRY
 70
     0
 62
    -7
  6
CONTINUOUS
  0
LAYER
  5
1000002F
330
2
100
AcDbSymbolTableRecord
100
AcDbLayerTableRecord
  2
VIRTUAL_SHARPS
 70
     0
 62
    -7
  6
CONTINUOUS
  0
LAYER
  5
10000030
330
2
100
AcDbSymbolTableRecord
100
AcDbLayerTableRecord
  2
CENTERLINES
 70
     0
 62
    -7
  6
CENTER
  0
LAYER
  5
10000031
330
2
100
AcDbSymbolTableRecord
100
AcDbLayerTableRecord
  2
CENTERMARKS
 70
     0
 62
    -7
  6
CONTINUOUS
  0
LAYER
  5
10000032
330
2
100
AcDbSymbolTableRecord
100
AcDbLayerTableRecord
  2
TABLES
 70
     0
 62
     7
  6
CONTINUOUS
  0
LAYER
  5
10000033
330
2
100
AcDbSymbolTableRecord
100
AcDbLayerTableRecord
  2
IMAGES
 70
     0
 62
    -7
  6
CONTINUOUS
  0
LAYER
  5
10000034
330
2
100
AcDbSymbolTableRecord
100
AcDbLayerTableRecord
  2
ANNOTATION_LINES
 70
     0
 62
    -7
  6
CONTINUOUS
  0
LAYER
  5
10000035
330
2
100
AcDbSymbolTableRecord
100
AcDbLayerTableRecord
  2
ANNOTATION_TEXT
 70
     0
 62
    -7
  6
CONTINUOUS
  0
LAYER
  5
10000036
330
2
100
AcDbSymbolTableRecord
100
AcDbLayerTableRecord
  2
SIDE_THREAD_SYMBOLS
 70
     0
 62
     7
  6
CONTINUOUS
  0
LAYER
  5
10000037
330
2
100
AcDbSymbolTableRecord
100
AcDbLayerTableRecord
  2
SIDE_THREAD_SYMBOLS_HIDDEN
 70
     0
 62
    -7
  6
HIDDEN
  0
LAYER
  5
10000038
330
2
100
AcDbSymbolTableRecord
100
AcDbLayerTableRecord
  2
SURFACE_THREAD_SYMBOLS
 70
     0
 62
     7
  6
CONTINUOUS
  0
LAYER
  5
10000039
330
2
100
AcDbSymbolTableRecord
100
AcDbLayerTableRecord
  2
SURFACE_THREAD_SYMBOLS_ON_
 70
     0
 62
     7
  6
CONTINUOUS
  0
LAYER
  5
1000003A
330
2
100
AcDbSymbolTableRecord
100
AcDbLayerTableRecord
  2
SURFACE_THREAD_SYMBOLS_HID
 70
     0
 62
    -7
  6
HIDDEN
  0
LAYER
  5
1000003B
330
2
100
AcDbSymbolTableRecord
100
AcDbLayerTableRecord
  2
BLIND_THREAD_SYMBOLS
 70
     0
 62
     7
  6
CONTINUOUS
  0
LAYER
  5
1000003C
330
2
100
AcDbSymbolTableRecord
100
AcDbLayerTableRecord
  2
BLIND_THREAD_SYMBOLS_HIDDE
 70
     0
 62
    -7
  6
HIDDEN
  0
LAYER
  5
1000003D
330
2
100
AcDbSymbolTableRecord
100
AcDbLayerTableRecord
  2
EXPLODE_LINES
 70
     0
 62
     7
  6
ONS_PHANTOM
  0
LAYER
  5
1000003E
330
2
100
AcDbSymbolTableRecord
100
AcDbLayerTableRecord
  2
HIDDEN_EXPLODE_LINES
 70
     0
 62
    -7
  6
ONS_PHANTOM
  0
LAYER
  5
1000003F
330
2
100
AcDbSymbolTableRecord
100
AcDbLayerTableRecord
  2
BREAK_LINES
 70
     0
 62
    -7
  6
CONTINUOUS
  0
LAYER
  5
10000040
330
2
100
AcDbSymbolTableRecord
100
AcDbLayerTableRecord
  2
SHEETMETAL_BEND_LINES_UP
 70
     0
 62
     7
  6
CENTER
  0
LAYER
  5
10000041
330
2
100
AcDbSymbolTableRecord
100
AcDbLayerTableRecord
  2
SHEETMETAL_BEND_LINES_DOWN
 70
     0
 62
     7
  6
CENTER
  0
LAYER
  5
10000042
330
2
100
AcDbSymbolTableRecord
100
AcDbLayerTableRecord
  2
SHEETMETAL_BEND_TANGENT_LI
 70
     0
 62
     7
  6
CONTINUOUS
  0
LAYER
  5
10000043
330
2
100
AcDbSymbolTableRecord
100
AcDbLayerTableRecord
  2
SHEETMETAL_CUT_LINES
 70
     0
 62
     7
  6
CONTINUOUS
  0
LAYER
  5
10000044
330
2
100
AcDbSymbolTableRecord
100
AcDbLayerTableRecord
  2
REGION_ASSOC_POINTS
 70
     0
 62
    -7
  6
CONTINUOUS
  0
LAYER
  5
10000045
330
2
100
AcDbSymbolTableRecord
100
AcDbLayerTableRecord
  2
PATTERN_CENTERLINES
 70
     1
 62
    -7
  6
CENTER
  0
LAYER
  5
10000046
330
2
100
AcDbSymbolTableRecord
100
AcDbLayerTableRecord
  2
HIDDEN
 70
     0
 62
    -7
  6
HIDDEN
  0
LAYER
  5
10000047
330
2
100
AcDbSymbolTableRecord
100
AcDbLayerTableRecord
  2
VISIBLE
 70
     0
 62
     7
  6
CONTINUOUS
  0
LAYER
  5
10000048
330
2
100
AcDbSymbolTableRecord
100
AcDbLayerTableRecord
  2
MODELSKETCH_VISIBLE
 70
     0
 62
     7
  6
CONTINUOUS
  0
LAYER
  5
10000049
330
2
100
AcDbSymbolTableRecord
100
AcDbLayerTableRecord
  2
MODELSKETCH_POINT
 70
     0
 62
     7
  6
CONTINUOUS
  0
LAYER
  5
1000004A
330
2
100
AcDbSymbolTableRecord
100
AcDbLayerTableRecord
  2
MODELSKETCH_CONSTRUCTION
 70
     0
 62
    -7
  6
CENTER
  0
LAYER
  5
1000004B
330
2
100
AcDbSymbolTableRecord
100
AcDbLayerTableRecord
  2
HIDDEN_BASE_VIEW
 70
     0
 62
     7
  6
CONTINUOUS
  0
LAYER
  5
1000004C
330
2
100
AcDbSymbolTableRecord
100
AcDbLayerTableRecord
  2
TANGENT_LINES
 70
     0
 62
    -7
  6
CONTINUOUS
  0
LAYER
  5
1000004D
330
2
100
AcDbSymbolTableRecord
100
AcDbLayerTableRecord
  2
TANGENT_HIDDEN
 70
     0
 62
    -7
  6
HIDDEN
  0
LAYER
  5
1000004E
330
2
100
AcDbSymbolTableRecord
100
AcDbLayerTableRecord
  2
INVISIBLE_LINES
 70
     0
 62
    -7
  6
CONTINUOUS
  0
LAYER
  5
1000004F
330
2
100
AcDbSymbolTableRecord
100
AcDbLayerTableRecord
  2
VIEW_HATCHES
 70
     0
 62
    -7
  6
CONTINUOUS
  0
LAYER
  5
10000050
330
2
100
AcDbSymbolTableRecord
100
AcDbLayerTableRecord
  2
SECTION_JOG_LINES
 70
     0
 62
    -7
  6
CONTINUOUS
  0
ENDTAB
  0
TABLE
  2
STYLE
  5
3
330
0
100
AcDbSymbolTable
 70
     2
  0
STYLE
  5
11
330
3
100
AcDbSymbolTableRecord
100
AcDbTextStyleTableRecord
  2
STANDARD
 70
     0
 40
0.0
 41
1.0
 50
0.0
 71
     0
 42
2.5
  3
txt
  4

  0
STYLE
  5
10000004
330
3
100
AcDbSymbolTableRecord
100
AcDbTextStyleTableRecord
  2
TTFSTYLE
 70
     0
 40
0.0
 41
1.0
 50
0.0
 71
     0
 42
2.5
  3
Verdana.ttf
  4

1001
ACAD
1000
Verdana
1071
       34
  0
ENDTAB
  0
TABLE
  2
VIEW
  5
6
330
0
100
AcDbSymbolTable
 70
     0
  0
ENDTAB
  0
TABLE
  2
UCS
  5
7
330
0
100
AcDbSymbolTable
 70
     0
  0
ENDTAB
  0
TABLE
  2
APPID
  5
9
330
0
100
AcDbSymbolTable
 70
     2
  0
APPID
  5
12
330
9
100
AcDbSymbolTableRecord
100
AcDbRegAppTableRecord
  2
ACAD
 70
     0
  0
APPID
  5
10000171
330
9
100
AcDbSymbolTableRecord
100
AcDbRegAppTableRecord
  2
ACAD_MLEADERVER
 70
     0
  0
ENDTAB
  0
TABLE
  2
DIMSTYLE
  5
A
330
0
100
AcDbSymbolTable
 70
     1
  0
DIMSTYLE
105
27
330
A
100
AcDbSymbolTableRecord
100
AcDbDimStyleTableRecord
  2
ISO-25
 70
     0
  3

  4

  5

  6

  7

 40
1.0
 41
2.5
 42
0.625
 43
3.75
 44
1.25
 45
0.0
 46
0.0
 47
0.0
 48
0.0
140
2.5
141
2.5
142
0.0
143
0.03937007874016
144
1.0
145
0.0
146
1.0
147
0.625
 71
     0
 72
     0
 73
     0
 74
     0
 75
     0
 76
     0
 77
     1
 78
     8
170
     0
171
     3
172
     1
173
     0
174
     0
175
     0
176
     0
177
     0
178
     0
270
     2
271
     2
272
     2
273
     2
274
     3
340
11
275
     0
280
     0
281
     0
282
     0
283
     0
284
     8
285
     0
286
     0
287
     3
288
     0
  0
ENDTAB
  0
TABLE
  2
BLOCK_RECORD
  5
1
330
0
100
AcDbSymbolTable
 70
     0
  0
BLOCK_RECORD
  5
1F
102
{ACAD_XDICTIONARY
360
10000138
102
}
330
1
100
AcDbSymbolTableRecord
100
AcDbBlockTableRecord
  2
*MODEL_SPACE
  0
BLOCK_RECORD
  5
1B
330
1
100
AcDbSymbolTableRecord
100
AcDbBlockTableRecord
  2
*PAPER_SPACE
  0
ENDTAB
  0
ENDSEC
  0
SECTION
  2
BLOCKS
  0
BLOCK
  5
20
330
1F
100
AcDbEntity
  8
0
100
AcDbBlockBegin
  2
*MODEL_SPACE
 70
     0
 10
0.0
 20
0.0
 30
0.0
  3
*MODEL_SPACE
  1

  0
ENDBLK
  5
21
330
1F
100
AcDbEntity
  8
0
100
AcDbBlockEnd
  0
BLOCK
  5
1C
330
1B
100
AcDbEntity
 67
     1
  8
0
100
AcDbBlockBegin
  2
*PAPER_SPACE
 70
     0
 10
0.0
 20
0.0
 30
0.0
  3
*PAPER_SPACE
  1

  0
ENDBLK
  5
1D
330
1B
100
AcDbEntity
 67
     1
  8
0
100
AcDbBlockEnd
  0
ENDSEC
  0
SECTION
  2
ENTITIES
  0
SPLINE
  5
10000051
102
{ACAD_XDICTIONARY
360
10000052
102
}
330
1F
100
AcDbEntity
  8
MODELSKETCH_VISIBLE
100
AcDbSpline
210
0.0
220
0.0
230
1.0
 70
     8
 71
     3
 72
     9
 73
     5
 74
     0
 42
0.000000001
 43
0.00000001
 40
0.0
 40
0.0
 40
0.0
 40
0.0
 40
0.452635374317116
 40
1.0
 40
1.0
 40
1.0
 40
1.0
 10
131.9579482078552
 20
-18.94067414104939
 30
0.0
 10
131.8270666423442
 20
-19.00271649786534
 30
0.0
 10
131.5379121198801
 20
-19.13978567172203
 30
0.0
 10
131.1165998867016
 20
-19.1050427187295
 30
0.0
 10
130.8859884738922
 20
-19.08602565526962
 30
0.0
  0
SPLINE
  5
10000054
102
{ACAD_XDICTIONARY
360
10000055
102
}
330
1F
100
AcDbEntity
  8
MODELSKETCH_VISIBLE
100
AcDbSpline
210
0.0
220
0.0
230
1.0
 70
     8
 71
     3
 72
     9
 73
     5
 74
     0
 42
0.000000001
 43
0.00000001
 40
0.0
 40
0.0
 40
0.0
 40
0.0
 40
0.4940838038756081
 40
1.0
 40
1.0
 40
1.0
 40
1.0
 10
131.8307667970657
 20
-21.10277488827705
 30
0.0
 10
131.9450808479691
 20
-21.03480289284809
 30
0.0
 10
132.1764465596293
 20
-20.89723109855776
 30
0.0
 10
132.4536257965932
 20
-20.92513705695147
 30
0.0
 10
132.5938552618027
 20
-20.93925513327122
 30
0.0
  0
SPLINE
  5
10000057
102
{ACAD_XDICTIONARY
360
10000058
102
}
330
1F
100
AcDbEntity
  8
MODELSKETCH_VISIBLE
100
AcDbSpline
210
0.0
220
0.0
230
1.0
 70
     8
 71
     3
 72
     9
 73
     5
 74
     0
 42
0.000000001
 43
0.00000001
 40
0.0
 40
0.0
 40
0.0
 40
0.0
 40
0.5340428088535564
 40
1.0
 40
1.0
 40
1.0
 40
1.0
 10
93.66198629140854
 20
-26.27105452120304
 30
0.0
 10
93.95300894127791
 20
-26.30417134276252
 30
0.0
 10
94.49795149091015
 20
-26.36618289129468
 30
0.0
 10
94.73525388581224
 20
-26.75193239551695
 30
0.0
 10
94.84582664319316
 20
-26.93167515099049
 30
0.0
  0
SPLINE
  5
1000005A
102
{ACAD_XDICTIONARY
360
1000005B
102
}
330
1F
100
AcDbEntity
  8
MODELSKETCH_VISIBLE
100
AcDbSpline
210
0.0
220
0.0
230
1.0
 70
     8
 71
     3
 72
     9
 73
     5
 74
     0
 42
0.000000001
 43
0.00000001
 40
0.0
 40
0.0
 40
0.0
 40
0.0
 40
0.5350272295101213
 40
1.0
 40
1.0
 40
1.0
 40
1.0
 10
94.84582664319316
 20
-23.19241380559374
 30
0.0
 10
95.08953918891662
 20
-23.40234694304048
 30
0.0
 10
95.54505347357573
 20
-23.79472536018935
 30
0.0
 10
95.99780893991813
 20
-23.97692016949248
 30
0.0
 10
96.2083279034578
 20
-24.06163579474304
 30
0.0
  0
SPLINE
  5
1000005D
102
{ACAD_XDICTIONARY
360
1000005E
102
}
330
1F
100
AcDbEntity
  8
MODELSKETCH_VISIBLE
100
AcDbSpline
210
0.0
220
0.0
230
1.0
 70
     8
 71
     3
 72
    10
 73
     6
 74
     0
 42
0.000000001
 43
0.00000001
 40
0.0
 40
0.0
 40
0.0
 40
0.0
 40
0.4283796520872075
 40
0.8441054234542016
 40
1.0
 40
1.0
 40
1.0
 40
1.0
 10
56.1375617980957
 20
-22.0736563205719
 30
0.0
 10
56.05199699842261
 20
-22.29010005787972
 30
0.0
 10
55.88450800066617
 20
-22.7147646537926
 30
0.0
 10
55.14518234682764
 20
-22.71039529141913
 30
0.0
 10
55.09755158509011
 20
-22.63649272219723
 30
0.0
 10
55.08342757821083
 20
-22.61782996356487
 30
0.0
  0
SPLINE
  5
10000060
102
{ACAD_XDICTIONARY
360
10000061
102
}
330
1F
100
AcDbEntity
  8
MODELSKETCH_VISIBLE
100
AcDbSpline
210
0.0
220
0.0
230
1.0
 70
     8
 71
     3
 72
     9
 73
     5
 74
     0
 42
0.000000001
 43
0.00000001
 40
0.0
 40
0.0
 40
0.0
 40
0.0
 40
0.4565245736329286
 40
1.0
 40
1.0
 40
1.0
 40
1.0
 10
55.9513121843338
 20
-24.75840598344803
 30
0.0
 10
56.11385768747436
 20
-24.68007771010991
 30
0.0
 10
56.46990753129126
 20
-24.50850255761639
 30
0.0
 10
56.88728576129679
 20
-24.7881268891058
 30
0.0
 10
57.1141205728054
 20
-24.94009584188461
 30
0.0
  0
SPLINE
  5
10000063
102
{ACAD_XDICTIONARY
360
10000064
102
}
330
1F
100
AcDbEntity
  8
MODELSKETCH_VISIBLE
100
AcDbSpline
210
0.0
220
0.0
230
1.0
 70
     8
 71
     3
 72
     9
 73
     5
 74
     0
 42
0.000000001
 43
0.00000001
 40
0.0
 40
0.0
 40
0.0
 40
0.0
 40
0.4462737558100385
 40
1.0
 40
1.0
 40
1.0
 40
1.0
 10
58.76749381422997
 20
-30.42710572481155
 30
0.0
 10
58.8143270578212
 20
-30.62905266444926
 30
0.0
 10
58.91926991628304
 20
-31.08157073661585
 30
0.0
 10
58.31875212130775
 20
-31.15148471189249
 30
0.0
 10
57.98622965812683
 20
-31.19019791483879
 30
0.0
  0
SPLINE
  5
10000066
102
{ACAD_XDICTIONARY
360
10000067
102
}
330
1F
100
AcDbEntity
  8
MODELSKETCH_VISIBLE
100
AcDbSpline
210
0.0
220
0.0
230
1.0
 70
     8
 71
     3
 72
     9
 73
     5
 74
     0
 42
0.000000001
 43
0.00000001
 40
0.0
 40
0.0
 40
0.0
 40
0.0
 40
0.4891807555833136
 40
1.0
 40
1.0
 40
1.0
 40
1.0
 10
60.16649678349496
 20
-31.42639622092248
 30
0.0
 10
60.03227513300516
 20
-31.45866381271966
 30
0.0
 10
59.75789465307446
 20
-31.52462632540824
 30
0.0
 10
59.60744075221417
 20
-31.78430730619186
 30
0.0
 10
59.5305860042572
 20
-31.91695734858513
 30
0.0
  0
SPLINE
  5
10000069
102
{ACAD_XDICTIONARY
360
1000006A
102
}
330
1F
100
AcDbEntity
  8
MODELSKETCH_VISIBLE
100
AcDbSpline
210
0.0
220
0.0
230
1.0
 70
     8
 71
     3
 72
     9
 73
     5
 74
     0
 42
0.000000001
 43
0.00000001
 40
0.0
 40
0.0
 40
0.0
 40
0.0
 40
0.4868819942705274
 40
1.0
 40
1.0
 40
1.0
 40
1.0
 10
64.00013715028763
 20
-31.71022725689997
 30
0.0
 10
64.08865242255422
 20
-31.87910115338549
 30
0.0
 10
64.27045268074454
 20
-32.2259488464051
 30
0.0
 10
63.93570427736643
 20
-32.47802700708409
 30
0.0
 10
63.76393884420393
 20
-32.60737285017967
 30
0.0
  0
SPLINE
  5
1000006C
102
{ACAD_XDICTIONARY
360
1000006D
102
}
330
1F
100
AcDbEntity
  8
MODELSKETCH_VISIBLE
100
AcDbSpline
210
0.0
220
0.0
230
1.0
 70
     8
 71
     3
 72
    12
 73
     8
 74
     0
 42
0.000000001
 43
0.00000001
 40
0.0
 40
0.0
 40
0.0
 40
0.0
 40
0.1860133973532763
 40
0.4262524297587983
 40
0.5909300090723516
 40
0.8318654317412583
 40
1.0
 40
1.0
 40
1.0
 40
1.0
 10
52.89905518293381
 20
35.53979471325874
 30
0.0
 10
53.47561876275879
 20
35.43599899623464
 30
0.0
 10
54.45324567916325
 20
35.32672405754212
 30
0.0
 10
57.46549061975513
 20
36.7926964437808
 30
0.0
 10
56.36620697149672
 20
38.75268956011664
 30
0.0
 10
53.16644609549524
 20
37.62602894699825
 30
0.0
 10
53.27541710418138
 20
36.39689575404129
 30
0.0
 10
52.87603661417961
 20
36.18435189127922
 30
0.0
  0
SPLINE
  5
1000006F
102
{ACAD_XDICTIONARY
360
10000070
102
}
330
1F
100
AcDbEntity
  8
MODELSKETCH_VISIBLE
100
AcDbSpline
210
0.0
220
0.0
230
1.0
 70
     8
 71
     3
 72
    27
 73
    23
 74
     0
 42
0.000000001
 43
0.00000001
 40
0.0
 40
0.0
 40
0.0
 40
0.0
 40
0.0295542507975403
 40
0.0731044353958711
 40
0.1201527732642387
 40
0.1689535017759811
 40
0.2199609768708957
 40
0.2705613236578601
 40
0.3181221906945932
 40
0.3813447999008437
 40
0.4305344998459577
 40
0.5010224554538484
 40
0.5615559785640445
 40
0.6041150274034314
 40
0.6539016063070413
 40
0.7008707669963533
 40
0.7561227088130363
 40
0.8049575027793539
 40
0.854738587564564
 40
0.9049155864183935
 40
0.9553146172205301
 40
1.0
 40
1.0
 40
1.0
 40
1.0
 10
51.37974396348
 20
36.2994484603405
 30
0.0
 10
51.24500933928634
 20
36.49611005819855
 30
0.0
 10
52.1743808516563
 20
37.21462304328846
 30
0.0
 10
53.51893806648789
 20
38.90945599385683
 30
0.0
 10
56.27025609138949
 20
38.99997265485572
 30
0.0
 10
58.73764791346959
 20
40.52062380403748
 30
0.0
 10
60.3908440308244
 20
43.03888456059764
 30
0.0
 10
63.55338544330665
 20
44.45519073416326
 30
0.0
 10
65.88799848105045
 20
42.77637085112254
 30
0.0
 10
71.55549017106787
 20
48.96842423512342
 30
0.0
 10
66.42562808888319
 20
42.08204015031573
 30
0.0
 10
78.28799061248934
 20
46.16449890556395
 30
0.0
 10
70.31931626980744
 20
42.3150120854227
 30
0.0
 10
68.85520741854621
 20
43.37970056914727
 30
0.0
 10
65.69723717352989
 20
42.32490817657938
 30
0.0
 10
63.18195763018799
 20
43.38350134845926
 30
0.0
 10
59.93309868037358
 20
40.85355807283781
 30
0.0
 10
59.45354662846685
 20
38.01502639087479
 30
0.0
 10
57.16837108127321
 20
36.07965669267115
 30
0.0
 10
55.03700158476818
 20
33.75037817226555
 30
0.0
 10
51.77424188873333
 20
34.51679117464515
 30
0.0
 10
50.41183875043634
 20
33.55429038768792
 30
0.0
 10
49.7683584690094
 20
33.09968858957291
 30
0.0
  0
SPLINE
  5
10000072
102
{ACAD_XDICTIONARY
360
10000073
102
}
330
1F
100
AcDbEntity
  8
MODELSKETCH_VISIBLE
100
AcDbSpline
210
0.0
220
0.0
230
1.0
 70
     8
 71
     3
 72
    24
 73
    20
 74
     0
 42
0.000000001
 43
0.00000001
 40
0.0
 40
0.0
 40
0.0
 40
0.0
 40
0.064423940018949
 40
0.1086976482078209
 40
0.1466401561185507
 40
0.2004659055246235
 40
0.2568327741494476
 40
0.308343019025331
 40
0.3790524669695234
 40
0.4350486571509681
 40
0.5009121395655906
 40
0.5738273611156908
 40
0.6462177657377682
 40
0.7104620509922246
 40
0.7685574477160121
 40
0.8393232006610514
 40
0.9077422672842393
 40
0.9529072550971467
 40
1.0
 40
1.0
 40
1.0
 40
1.0
 10
16.14757068455219
 20
69.01092082262039
 30
0.0
 10
16.22249895566748
 20
68.63382033873745
 30
0.0
 10
18.26046458315739
 20
68.71485792929646
 30
0.0
 10
18.74662040720998
 20
67.41413398526579
 30
0.0
 10
17.80927063332778
 20
67.25557631133114
 30
0.0
 10
16.79428852089169
 20
66.34524243786004
 30
0.0
 10
15.32259814730209
 20
65.7037861201967
 30
0.0
 10
15.03715465575731
 20
64.03948799570693
 30
0.0
 10
12.26415403295457
 20
64.47304581925981
 30
0.0
 10
10.77865286297416
 20
64.76925380602259
 30
0.0
 10
9.76063361493517
 20
66.87590998803378
 30
0.0
 10
7.765884118340455
 20
68.33412646750061
 30
0.0
 10
7.042677754239949
 20
71.40908488299702
 30
0.0
 10
9.299182503765064
 20
72.23437193115545
 30
0.0
 10
10.25814473753195
 20
73.74603641760861
 30
0.0
 10
13.10738243999816
 20
73.24618280867918
 30
0.0
 10
14.12453505873227
 20
71.03635919007263
 30
0.0
 10
14.47972610539309
 20
70.2188225926472
 30
0.0
 10
14.80887015651211
 20
69.35647748808647
 30
0.0
 10
15.19688032567501
 20
69.3134143948555
 30
0.0
  0
SPLINE
  5
10000075
102
{ACAD_XDICTIONARY
360
10000076
102
}
330
1F
100
AcDbEntity
  8
MODELSKETCH_VISIBLE
100
AcDbSpline
210
0.0
220
0.0
230
1.0
 70
     8
 71
     3
 72
    11
 73
     7
 74
     0
 42
0.000000001
 43
0.00000001
 40
0.0
 40
0.0
 40
0.0
 40
0.0
 40
0.2417106579521364
 40
0.4859171785508121
 40
0.7267783255400603
 40
1.0
 40
1.0
 40
1.0
 40
1.0
 10
17.05504767596722
 20
70.82587480545044
 30
0.0
 10
17.24330890369571
 20
71.50989443308056
 30
0.0
 10
16.19668001675777
 20
72.7738078757556
 30
0.0
 10
17.95884572963617
 20
74.68328109455085
 30
0.0
 10
16.30523969047355
 20
76.55082772750748
 30
0.0
 10
14.73501792685262
 20
76.90405314510889
 30
0.0
 10
13.90048582106829
 20
77.09178328514099
 30
0.0
  0
SPLINE
  5
10000078
102
{ACAD_XDICTIONARY
360
10000079
102
}
330
1F
100
AcDbEntity
  8
MODELSKETCH_VISIBLE
100
AcDbSpline
210
0.0
220
0.0
230
1.0
 70
     8
 71
     3
 72
     8
 73
     4
 74
     0
 42
0.000000001
 43
0.00000001
 40
0.0
 40
0.0
 40
0.0
 40
0.0
 40
1.0
 40
1.0
 40
1.0
 40
1.0
 10
132.5938552618027
 20
-20.93925513327122
 30
0.0
 10
132.8781651919361
 20
-21.12917675936384
 30
0.0
 10
133.1783487177602
 20
-20.8543383974993
 30
0.0
 10
133.4785322435824
 20
-20.57950003569045
 30
0.0
  0
SPLINE
  5
1000007B
102
{ACAD_XDICTIONARY
360
1000007C
102
}
330
1F
100
AcDbEntity
  8
MODELSKETCH_VISIBLE
100
AcDbSpline
210
0.0
220
0.0
230
1.0
 70
     8
 71
     3
 72
     9
 73
     5
 74
     0
 42
0.000000001
 43
0.00000001
 40
0.0
 40
0.0
 40
0.0
 40
0.0
 40
0.4973613227719071
 40
1.0
 40
1.0
 40
1.0
 40
1.0
 10
15.19688032567501
 20
69.3134143948555
 30
0.0
 10
15.32872650462285
 20
69.18750843690768
 30
0.0
 10
15.59381784347692
 20
68.9343605699884
 30
0.0
 10
15.96233813346225
 20
68.98531111038925
 30
0.0
 10
16.14757068455219
 20
69.01092082262039
 30
0.0
  0
SPLINE
  5
1000007E
102
{ACAD_XDICTIONARY
360
1000007F
102
}
330
1F
100
AcDbEntity
  8
MODELSKETCH_VISIBLE
100
AcDbSpline
210
0.0
220
0.0
230
1.0
 70
     8
 71
     3
 72
    30
 73
    26
 74
     0
 42
0.000000001
 43
0.00000001
 40
0.0
 40
0.0
 40
0.0
 40
0.0
 40
0.0375712386947778
 40
0.0908563467437868
 40
0.1350874548853372
 40
0.1761560661308511
 40
0.2197933311296398
 40
0.2704770442597929
 40
0.3184753444214919
 40
0.3697403587702734
 40
0.4069396529549685
 40
0.4423831234621411
 40
0.4917077823570495
 40
0.5451217775478897
 40
0.5963315040248924
 40
0.6424131423706909
 40
0.6875513059124808
 40
0.7409038611444114
 40
0.784029564014591
 40
0.8262181263185909
 40
0.8727423998800544
 40
0.9049692393483117
 40
0.9326397994350412
 40
0.972600597904134
 40
1.0
 40
1.0
 40
1.0
 40
1.0
 10
94.84582664319316
 20
-23.19241380559374
 30
0.0
 10
94.66328149095929
 20
-22.78028986495883
 30
0.0
 10
94.91046835492826
 20
-21.19667767992954
 30
0.0
 10
98.18677455772873
 20
-20.17806860461504
 30
0.0
 10
99.44204387332542
 20
-18.32472932510852
 30
0.0
 10
101.6384187633259
 20
-17.74733028637943
 30
0.0
 10
103.4712960614028
 20
-19.12353120168394
 30
0.0
 10
106.5673630169039
 20
-19.14563583424185
 30
0.0
 10
108.914622708519
 20
-17.98589836194237
 30
0.0
 10
110.8476346420404
 20
-15.66555478518895
 30
0.0
 10
112.3698778936107
 20
-14.80322723154896
 30
0.0
 10
113.8592246984885
 20
-15.27986807638339
 30
0.0
 10
116.642048691455
 20
-15.56121467565445
 30
0.0
 10
119.8021399561236
 20
-15.10226118600488
 30
0.0
 10
122.5496652760044
 20
-13.91239601083775
 30
0.0
 10
125.0193562691602
 20
-13.55402556288091
 30
0.0
 10
127.0741033301254
 20
-12.35606036650779
 30
0.0
 10
130.4833602642979
 20
-12.88222393289417
 30
0.0
 10
132.1657647325274
 20
-14.1967290847254
 30
0.0
 10
133.8682057825854
 20
-15.29415698535539
 30
0.0
 10
135.5331181766071
 20
-17.03327055397339
 30
0.0
 10
135.6891958696581
 20
-18.75115923998993
 30
0.0
 10
134.5033955373847
 20
-18.31040422465133
 30
0.0
 10
132.8973230741285
 20
-18.91336642803545
 30
0.0
 10
132.0677092159237
 20
-18.67563340591214
 30
0.0
 10
131.9579482078552
 20
-18.94067414104938
 30
0.0
  0
SPLINE
  5
10000081
102
{ACAD_XDICTIONARY
360
10000082
102
}
330
1F
100
AcDbEntity
  8
MODELSKETCH_VISIBLE
100
AcDbSpline
210
0.0
220
0.0
230
1.0
 70
     8
 71
     3
 72
    20
 73
    16
 74
     0
 42
0.000000001
 43
0.00000001
 40
0.0
 40
0.0
 40
0.0
 40
0.0
 40
0.0649265686856842
 40
0.1304655857408034
 40
0.2128199398427714
 40
0.2880237038650163
 40
0.3571308483676829
 40
0.4036561619802267
 40
0.4765385354016456
 40
0.5434265768007596
 40
0.6450636082161046
 40
0.7427343865614936
 40
0.8153975704204615
 40
0.9030515604110368
 40
1.0
 40
1.0
 40
1.0
 40
1.0
 10
23.60931038856506
 20
91.99827909469604
 30
0.0
 10
23.83957867138983
 20
91.85729351382689
 30
0.0
 10
24.30228734373165
 20
91.57399244368808
 30
0.0
 10
24.53720538874945
 20
90.82101343382297
 30
0.0
 10
25.02102331448044
 20
89.55783928355581
 30
0.0
 10
24.27853111894776
 20
88.7429853616946
 30
0.0
 10
23.74202506084784
 20
88.03798996011008
 30
0.0
 10
23.22152255911784
 20
87.91689637909823
 30
0.0
 10
23.51022833824771
 20
86.76176448487273
 30
0.0
 10
22.91800261426931
 20
86.1445204605653
 30
0.0
 10
21.25576211820282
 20
85.0405476973102
 30
0.0
 10
21.22432270943969
 20
83.14398128123761
 30
0.0
 10
21.67785711423452
 20
82.17507478823988
 30
0.0
 10
20.3006251144185
 20
80.88504011829433
 30
0.0
 10
21.24359706734484
 20
79.98317189518268
 30
0.0
 10
21.73882164061069
 20
79.50953394174576
 30
0.0
  0
SPLINE
  5
10000084
102
{ACAD_XDICTIONARY
360
10000085
102
}
330
1F
100
AcDbEntity
  8
MODELSKETCH_VISIBLE
100
AcDbSpline
210
0.0
220
0.0
230
1.0
 70
     8
 71
     3
 72
     8
 73
     4
 74
     0
 42
0.000000001
 43
0.00000001
 40
0.0
 40
0.0
 40
0.0
 40
0.0
 40
1.0
 40
1.0
 40
1.0
 40
1.0
 10
130.2097737789154
 20
-21.62421680986881
 30
0.0
 10
130.9374889302325
 20
-21.61896825378043
 30
0.0
 10
131.6652040815241
 20
-21.61371969764832
 30
0.0
 10
131.8307667970657
 20
-21.10277488827705
 30
0.0
  0
SPLINE
  5
10000087
102
{ACAD_XDICTIONARY
360
10000088
102
}
330
1F
100
AcDbEntity
  8
MODELSKETCH_VISIBLE
100
AcDbSpline
210
0.0
220
0.0
230
1.0
 70
     8
 71
     3
 72
    14
 73
    10
 74
     0
 42
0.000000001
 43
0.00000001
 40
0.0
 40
0.0
 40
0.0
 40
0.0
 40
0.1133214346967224
 40
0.2500685230747404
 40
0.4570368253605426
 40
0.5863918397318029
 40
0.722395752193849
 40
0.9003080476648841
 40
1.0
 40
1.0
 40
1.0
 40
1.0
 10
13.90048582106829
 20
77.09178328514099
 30
0.0
 10
14.12982364012265
 20
77.56618200217268
 30
0.0
 10
14.62943653302578
 20
78.6025430872858
 30
0.0
 10
16.89875404300111
 20
78.84630086697679
 30
0.0
 10
21.66288060768634
 20
79.57642779417813
 30
0.0
 10
23.80256242264143
 20
79.61311238317703
 30
0.0
 10
24.84814523593776
 20
81.61079030912225
 30
0.0
 10
29.44031138413274
 20
82.46414143081992
 30
0.0
 10
29.04321138934313
 20
81.14758198627125
 30
0.0
 10
28.92414666712284
 20
80.70116274829927
 30
0.0
  0
LINE
  5
1000008A
102
{ACAD_XDICTIONARY
360
1000008B
102
}
330
1F
100
AcDbEntity
  8
MODELSKETCH_VISIBLE
100
AcDbLine
 10
52.87603661417961
 20
36.18435189127922
 30
0.0
 11
51.37974396348
 21
36.2994484603405
 31
0.0
  0
SPLINE
  5
1000008D
102
{ACAD_XDICTIONARY
360
1000008E
102
}
330
1F
100
AcDbEntity
  8
MODELSKETCH_VISIBLE
100
AcDbSpline
210
0.0
220
0.0
230
1.0
 70
     8
 71
     3
 72
    13
 73
     9
 74
     0
 42
0.000000001
 43
0.00000001
 40
0.0
 40
0.0
 40
0.0
 40
0.0
 40
0.1645086095442138
 40
0.3311311911170737
 40
0.5279575504803685
 40
0.6469281333988885
 40
0.8514082693645251
 40
1.0
 40
1.0
 40
1.0
 40
1.0
 10
133.4785322435824
 20
-20.57950003569045
 30
0.0
 10
134.3795726826228
 20
-20.33341548757642
 30
0.0
 10
136.1636793482828
 20
-19.94329351047826
 30
0.0
 10
136.7704878154773
 20
-16.62490244237262
 30
0.0
 10
141.0041162041971
 20
-17.22144629539171
 30
0.0
 10
142.5269731641229
 20
-17.43540222626035
 30
0.0
 10
144.0290825402241
 20
-13.31645546251201
 30
0.0
 10
145.0998262793339
 20
-12.3660502201685
 30
0.0
 10
145.5504447221756
 20
-11.96607016026974
 30
0.0
  0
SPLINE
  5
10000090
102
{ACAD_XDICTIONARY
360
10000091
102
}
330
1F
100
AcDbEntity
  8
MODELSKETCH_VISIBLE
100
AcDbSpline
210
0.0
220
0.0
230
1.0
 70
     8
 71
     3
 72
    13
 73
     9
 74
     0
 42
0.000000001
 43
0.00000001
 40
0.0
 40
0.0
 40
0.0
 40
0.0
 40
0.1679724658134457
 40
0.3745034527185787
 40
0.5411247707049113
 40
0.732186737486026
 40
0.8512352310227104
 40
1.0
 40
1.0
 40
1.0
 40
1.0
 10
-13.39487731456757
 20
84.5576599240303
 30
0.0
 10
-12.88897351738307
 20
83.99094905815751
 30
0.0
 10
-11.76103437645593
 20
82.72743735738744
 30
0.0
 10
-7.493625545073979
 20
81.56844685955993
 30
0.0
 10
-8.262857754877194
 20
78.62574971402823
 30
0.0
 10
-5.850808599069885
 20
76.10136548160371
 30
0.0
 10
-4.795118102381483
 20
75.46687962383523
 30
0.0
 10
-3.516949097006357
 20
75.36032786260023
 30
0.0
 10
-2.806952456012368
 20
75.3011405467987
 30
0.0
  0
SPLINE
  5
10000093
102
{ACAD_XDICTIONARY
360
10000094
102
}
330
1F
100
AcDbEntity
  8
MODELSKETCH_VISIBLE
100
AcDbSpline
210
0.0
220
0.0
230
1.0
 70
     8
 71
     3
 72
    29
 73
    25
 74
     0
 42
0.000000001
 43
0.00000001
 40
0.0
 40
0.0
 40
0.0
 40
0.0
 40
0.0328730380916598
 40
0.0722796212900395
 40
0.1126278835980719
 40
0.1540289270081463
 40
0.2012008156017247
 40
0.2519329191239754
 40
0.290399009894252
 40
0.3397506601704103
 40
0.3809675465355396
 40
0.4239116509054486
 40
0.4769364859844786
 40
0.5365196441060711
 40
0.5885268222639074
 40
0.6447952136630779
 40
0.6956058451164588
 40
0.7490560745950157
 40
0.7968695927037378
 40
0.8444154528039932
 40
0.8848910084749577
 40
0.9221996469823011
 40
0.9598998238746779
 40
1.0
 40
1.0
 40
1.0
 40
1.0
 10
145.5504447221756
 20
-11.96607016026974
 30
0.0
 10
145.8267955874644
 20
-11.91728214599986
 30
0.0
 10
146.434422294511
 20
-11.81000945690168
 30
0.0
 10
147.5149607400124
 20
-12.74545074301271
 30
0.0
 10
147.1346809043013
 20
-14.30287172084912
 30
0.0
 10
148.8378273007108
 20
-14.63885016979631
 30
0.0
 10
150.3051513992563
 20
-14.73179590115827
 30
0.0
 10
152.4152133805508
 20
-16.97029240066991
 30
0.0
 10
151.8943960934426
 20
-14.66501463000483
 30
0.0
 10
149.9269107346727
 20
-14.46364478404053
 30
0.0
 10
148.7149393770762
 20
-13.97046141562794
 30
0.0
 10
147.5025542075456
 20
-12.8907285807063
 30
0.0
 10
147.3791084577431
 20
-10.60587955054048
 30
0.0
 10
146.3310965806664
 20
-8.13074083206641
 30
0.0
 10
144.7135072141957
 20
-6.172665890061585
 30
0.0
 10
146.814089885131
 20
-4.073312929115063
 30
0.0
 10
146.9768343932563
 20
-2.018041777321515
 30
0.0
 10
149.031957233903
 20
-0.5952924052529799
 30
0.0
 10
151.0423856845277
 20
-0.7699628863586465
 30
0.0
 10
151.9423357332304
 20
-2.778154310318311
 30
0.0
 10
150.8754816397661
 20
-3.814387995447463
 30
0.0
 10
151.2677739746662
 20
-5.080216152018947
 30
0.0
 10
152.3755823537132
 20
-5.565624724778277
 30
0.0
 10
153.2042165889579
 20
-5.497564684306928
 30
0.0
 10
153.6313146352768
 20
-5.462484899908304
 30
0.0
  0
SPLINE
  5
10000096
102
{ACAD_XDICTIONARY
360
10000097
102
}
330
1F
100
AcDbEntity
  8
MODELSKETCH_VISIBLE
100
AcDbSpline
210
0.0
220
0.0
230
1.0
 70
     8
 71
     3
 72
    10
 73
     6
 74
     0
 42
0.000000001
 43
0.00000001
 40
0.0
 40
0.0
 40
0.0
 40
0.0
 40
0.3250974774082255
 40
0.7188791559656151
 40
1.0
 40
1.0
 40
1.0
 40
1.0
 10
0.1847777748480439
 20
99.858857691288
 30
0.0
 10
0.3666806102951995
 20
99.89862462834837
 30
0.0
 10
0.7689173728087397
 20
99.98656016810462
 30
0.0
 10
1.408924452881418
 20
100.5939073054861
 30
0.0
 10
1.655106087450991
 20
100.7883765840014
 30
0.0
 10
1.757649471983314
 20
100.8693799376488
 30
0.0
  0
SPLINE
  5
10000099
102
{ACAD_XDICTIONARY
360
1000009A
102
}
330
1F
100
AcDbEntity
  8
MODELSKETCH_VISIBLE
100
AcDbSpline
210
0.0
220
0.0
230
1.0
 70
     8
 71
     3
 72
    39
 73
    35
 74
     0
 42
0.000000001
 43
0.00000001
 40
0.0
 40
0.0
 40
0.0
 40
0.0
 40
0.0276598882666789
 40
0.055515111969088
 40
0.0901036843017502
 40
0.114356748153871
 40
0.1437610445242249
 40
0.1751851415553901
 40
0.2061518193411113
 40
0.2404089557075891
 40
0.2750749157475718
 40
0.3075045240145108
 40
0.3434230624458441
 40
0.3792728779611753
 40
0.4089998131999517
 40
0.4428583596754772
 40
0.4738383841290474
 40
0.5105546871673136
 40
0.5439422893762332
 40
0.5762705971511454
 40
0.6054427713549528
 40
0.6304596527675506
 40
0.6653214089279879
 40
0.6997290627139886
 40
0.7298230298642562
 40
0.7592053411618505
 40
0.7926859498470717
 40
0.8258028424978363
 40
0.8553844372103545
 40
0.8877128913750383
 40
0.9150293629926476
 40
0.9381874316713946
 40
0.96278090179744
 40
1.0
 40
1.0
 40
1.0
 40
1.0
 10
152.7670472860336
 20
1.084312330931425
 30
0.0
 10
153.4660115038163
 20
1.130866199560406
 30
0.0
 10
154.8688760576596
 20
1.224302702434696
 30
0.0
 10
155.5850262782291
 20
3.57069278216541
 30
0.0
 10
158.8452369879782
 20
3.271622181986839
 30
0.0
 10
160.6351661374044
 20
3.475171243486535
 30
0.0
 10
160.7983796486007
 20
0.6354519253181115
 30
0.0
 10
163.5520193882858
 20
0.0350723235382603
 30
0.0
 10
165.5557666879014
 20
-0.7929448495574278
 30
0.0
 10
169.1340769073609
 20
-1.416966952399485
 30
0.0
 10
168.5432633804296
 20
-4.925083237403657
 30
0.0
 10
168.6195668988664
 20
-7.90533390927608
 30
0.0
 10
164.9555928030438
 20
-8.668220471767192
 30
0.0
 10
162.1185806790461
 20
-9.729511572677064
 30
0.0
 10
160.0091963566987
 20
-11.26800314509115
 30
0.0
 10
160.908424539302
 20
-14.53459290298344
 30
0.0
 10
159.2595879417815
 20
-16.36984621519075
 30
0.0
 10
158.1115679470043
 20
-19.88830446752897
 30
0.0
 10
155.0370005516828
 20
-20.34381317928504
 30
0.0
 10
152.4805981889649
 20
-20.40822722660058
 30
0.0
 10
150.4512010354271
 20
-21.36671758713271
 30
0.0
 10
149.0599557400718
 20
-22.20465963086126
 30
0.0
 10
145.9211293455263
 20
-22.0048771680705
 30
0.0
 10
143.0469024626664
 20
-21.47945891303721
 30
0.0
 10
140.8444977577423
 20
-22.39272682965494
 30
0.0
 10
138.7396264226719
 20
-23.04784751283539
 30
0.0
 10
135.9509957670911
 20
-22.88590394493097
 30
0.0
 10
133.1285010218977
 20
-22.30813981844033
 30
0.0
 10
131.2455773050905
 20
-23.65402775941002
 30
0.0
 10
129.1423172766142
 20
-25.17097868289381
 30
0.0
 10
127.1773935031413
 20
-25.54794430591587
 30
0.0
 10
125.8252613178099
 20
-24.30160029823573
 30
0.0
 10
127.029296018993
 20
-22.72441570616203
 30
0.0
 10
129.0625606702695
 20
-22.01850926084023
 30
0.0
 10
130.2097737789154
 20
-21.62421680986881
 30
0.0
  0
SPLINE
  5
1000009C
102
{ACAD_XDICTIONARY
360
1000009D
102
}
330
1F
100
AcDbEntity
  8
MODELSKETCH_VISIBLE
100
AcDbSpline
210
0.0
220
0.0
230
1.0
 70
     8
 71
     3
 72
     9
 73
     5
 74
     0
 42
0.000000001
 43
0.00000001
 40
0.0
 40
0.0
 40
0.0
 40
0.0
 40
0.4438961629214855
 40
1.0
 40
1.0
 40
1.0
 40
1.0
 10
-3.939223475754261
 20
100.1158058643341
 30
0.0
 10
-3.895352358214493
 20
100.3340986122567
 30
0.0
 10
-3.796520421369102
 20
100.8258639532454
 30
0.0
 10
-3.524957152577639
 20
101.4735549423492
 30
0.0
 10
-3.373939776793123
 20
101.833738386631
 30
0.0
  0
SPLINE
  5
1000009F
102
{ACAD_XDICTIONARY
360
100000A0
102
}
330
1F
100
AcDbEntity
  8
MODELSKETCH_VISIBLE
100
AcDbSpline
210
0.0
220
0.0
230
1.0
 70
     8
 71
     3
 72
    14
 73
    10
 74
     0
 42
0.000000001
 43
0.00000001
 40
0.0
 40
0.0
 40
0.0
 40
0.0
 40
0.1445421156217528
 40
0.2648108022562245
 40
0.4056731224753686
 40
0.5343227939014635
 40
0.6894767222991545
 40
0.8461345380352726
 40
1.0
 40
1.0
 40
1.0
 40
1.0
 10
153.6313146352768
 20
-5.462484899908304
 30
0.0
 10
153.1392564635997
 20
-5.367903036764573
 30
0.0
 10
152.2377730541584
 20
-5.194622751290389
 30
0.0
 10
151.781134665675
 20
-4.055082993977829
 30
0.0
 10
152.643527549905
 20
-3.030171972169738
 30
0.0
 10
153.0180514973758
 20
-1.671622729784503
 30
0.0
 10
151.1976914180533
 20
-1.164184691675748
 30
0.0
 10
150.8821459356099
 20
1.085532650340416
 30
0.0
 10
152.1425247852303
 20
1.084716658154656
 30
0.0
 10
152.7670472860336
 20
1.084312330931425
 30
0.0
  0
SPLINE
  5
100000A2
102
{ACAD_XDICTIONARY
360
100000A3
102
}
330
1F
100
AcDbEntity
  8
MODELSKETCH_VISIBLE
100
AcDbSpline
210
0.0
220
0.0
230
1.0
 70
     8
 71
     3
 72
    10
 73
     6
 74
     0
 42
0.000000001
 43
0.00000001
 40
0.0
 40
0.0
 40
0.0
 40
0.0
 40
0.2941990471991308
 40
0.6391639867938489
 40
1.0
 40
1.0
 40
1.0
 40
1.0
 10
-19.11194995045662
 20
93.22961419820786
 30
0.0
 10
-19.06607550293305
 20
93.45472768052589
 30
0.0
 10
-18.96641068399407
 20
93.94379938966054
 30
0.0
 10
-19.82678059920348
 20
94.54943439905261
 30
0.0
 10
-19.76556874615636
 20
95.2319216046671
 30
0.0
 10
-19.73427459597588
 20
95.58083862066269
 30
0.0
  0
SPLINE
  5
100000A5
102
{ACAD_XDICTIONARY
360
100000A6
102
}
330
1F
100
AcDbEntity
  8
MODELSKETCH_VISIBLE
100
AcDbSpline
210
0.0
220
0.0
230
1.0
 70
     8
 71
     3
 72
    16
 73
    12
 74
     0
 42
0.000000001
 43
0.00000001
 40
0.0
 40
0.0
 40
0.0
 40
0.0
 40
0.0948037705910599
 40
0.2036040249464224
 40
0.3195257116063771
 40
0.4210322275701949
 40
0.5597179436130663
 40
0.664782057422691
 40
0.783510002035903
 40
0.892103705917422
 40
1.0
 40
1.0
 40
1.0
 40
1.0
 10
42.82857850193977
 20
55.00757321715355
 30
0.0
 10
42.09149905570862
 20
55.48227712136145
 30
0.0
 10
40.50852043553022
 20
56.50176848707325
 30
0.0
 10
44.03504592366485
 20
57.26241698773904
 30
0.0
 10
46.27663264155127
 20
58.58233975508926
 30
0.0
 10
48.17610982001219
 20
59.81779387323174
 30
0.0
 10
52.44390081145424
 20
59.31184231742212
 30
0.0
 10
54.57986416552821
 20
60.10009690290317
 30
0.0
 10
57.23045846897642
 20
61.47765088629735
 30
0.0
 10
58.61557701061771
 20
64.59372427765979
 30
0.0
 10
60.01121304739014
 20
62.99783511409351
 30
0.0
 10
60.70678308606148
 20
62.20246106386185
 30
0.0
  0
SPLINE
  5
100000A8
102
{ACAD_XDICTIONARY
360
100000A9
102
}
330
1F
100
AcDbEntity
  8
MODELSKETCH_VISIBLE
100
AcDbSpline
210
0.0
220
0.0
230
1.0
 70
     8
 71
     3
 72
    11
 73
     7
 74
     0
 42
0.000000001
 43
0.00000001
 40
0.0
 40
0.0
 40
0.0
 40
0.0
 40
0.1825582018016991
 40
0.4770853105247036
 40
0.7428206124572332
 40
1.0
 40
1.0
 40
1.0
 40
1.0
 10
59.5305860042572
 20
-31.91695734858513
 30
0.0
 10
59.55407056130983
 20
-32.16115141596338
 30
0.0
 10
58.77124169765104
 20
-32.74318903363167
 30
0.0
 10
61.16166090569164
 20
-33.27137578589349
 30
0.0
 10
62.4615295407344
 20
-33.21254059401186
 30
0.0
 10
63.28845919968347
 20
-32.7335032394529
 30
0.0
 10
63.76393884420395
 20
-32.60737285017967
 30
0.0
  0
SPLINE
  5
100000AB
102
{ACAD_XDICTIONARY
360
100000AC
102
}
330
1F
100
AcDbEntity
  8
MODELSKETCH_VISIBLE
100
AcDbSpline
210
0.0
220
0.0
230
1.0
 70
     8
 71
     3
 72
    43
 73
    39
 74
     0
 42
0.000000001
 43
0.00000001
 40
0.0
 40
0.0
 40
0.0
 40
0.0
 40
0.0176155492325837
 40
0.038007089447358
 40
0.0680578639870151
 40
0.0884486022496681
 40
0.1111521977181033
 40
0.1342897414746024
 40
0.1591093139239965
 40
0.1739575450942541
 40
0.1948452619792485
 40
0.2178820150976013
 40
0.2373029935563845
 40
0.2689229967384405
 40
0.2958174995191089
 40
0.324502729112472
 40
0.351793646224109
 40
0.382167444928743
 40
0.3954501668294974
 40
0.4293999513979276
 40
0.4593095769713914
 40
0.4892985935452381
 40
0.5230820847857746
 40
0.5568823547581444
 40
0.5855730234929098
 40
0.6222568103509171
 40
0.6597959976751726
 40
0.6853060304345922
 40
0.7258520262090485
 40
0.7593979641402541
 40
0.7940504813797312
 40
0.8327423864081404
 40
0.8694981321366019
 40
0.897219015353931
 40
0.9225383870794102
 40
0.9453398138918737
 40
0.9696527918188721
 40
1.0
 40
1.0
 40
1.0
 40
1.0
 10
23.35027605295181
 20
92.72085130214691
 30
0.0
 10
23.46049917780309
 20
92.35234116286779
 30
0.0
 10
23.69831521805694
 20
91.55724827981811
 30
0.0
 10
23.52702360090115
 20
93.32579243639461
 30
0.0
 10
25.28204038337693
 20
94.6374059937847
 30
0.0
 10
25.84350045880264
 20
95.60627941016513
 30
0.0
 10
27.45247481579107
 20
95.29721286869417
 30
0.0
 10
27.85146255773252
 20
93.9230034043978
 30
0.0
 10
27.66707468177145
 20
92.45861965355088
 30
0.0
 10
28.51300201242796
 20
91.71122522687457
 30
0.0
 10
28.0952245498941
 20
93.25505963496457
 30
0.0
 10
28.76256327603274
 20
94.3102228280511
 30
0.0
 10
29.15626751702131
 20
95.34290883667846
 30
0.0
 10
31.91290963437253
 20
95.3320016219124
 30
0.0
 10
33.46711825494759
 20
94.89782375717081
 30
0.0
 10
35.53170122713665
 20
94.20817537401405
 30
0.0
 10
37.02583676467771
 20
93.55684666490494
 30
0.0
 10
39.65425836364987
 20
93.71860905841676
 30
0.0
 10
39.64306150196439
 20
93.00201319782161
 30
0.0
 10
42.74909068182922
 20
92.29459117814844
 30
0.0
 10
44.02633520875807
 20
90.62030984863236
 30
0.0
 10
45.77545846581224
 20
89.12204552088768
 30
0.0
 10
47.55519748470397
 20
86.99767905999819
 30
0.0
 10
49.27515132514574
 20
84.7335550390078
 30
0.0
 10
51.08189089960121
 20
83.46892739295832
 30
0.0
 10
51.51922981690515
 20
80.10565004803163
 30
0.0
 10
50.61568583125842
 20
76.28190439173356
 30
0.0
 10
48.23291673145614
 20
76.46151030931433
 30
0.0
 10
47.99583779063622
 20
71.68113889940945
 30
0.0
 10
49.15256018509034
 20
69.23737735348514
 30
0.0
 10
51.95946553466178
 20
67.51835472166621
 30
0.0
 10
55.62168860017416
 20
67.72537094356535
 30
0.0
 10
58.95971493549257
 20
67.8892916297922
 30
0.0
 10
60.82092862098154
 20
67.69924833034793
 30
0.0
 10
62.46308459248126
 20
66.61480859089852
 30
0.0
 10
61.71609135498294
 20
65.09561666754497
 30
0.0
 10
59.21040348213175
 20
65.06259335406939
 30
0.0
 10
60.98089954884333
 20
64.09687431909946
 30
0.0
 10
61.96387484669685
 20
63.56070935726166
 30
0.0
  0
SPLINE
  5
100000AE
102
{ACAD_XDICTIONARY
360
100000AF
102
}
330
1F
100
AcDbEntity
  8
MODELSKETCH_VISIBLE
100
AcDbSpline
210
0.0
220
0.0
230
1.0
 70
     8
 71
     3
 72
    10
 73
     6
 74
     0
 42
0.000000001
 43
0.00000001
 40
0.0
 40
0.0
 40
0.0
 40
0.0
 40
0.2054777808076761
 40
0.602394540023089
 40
1.0
 40
1.0
 40
1.0
 40
1.0
 10
58.76749381422997
 20
-30.42710572481155
 30
0.0
 10
58.74174743089272
 20
-30.21031515345163
 30
0.0
 10
59.68154715541181
 20
-29.92372576590759
 30
0.0
 10
58.68296532072569
 20
-27.03530244626653
 30
0.0
 10
57.71589143648298
 20
-25.36446664265523
 30
0.0
 10
57.1141205728054
 20
-24.94009584188461
 30
0.0
  0
SPLINE
  5
100000B1
102
{ACAD_XDICTIONARY
360
100000B2
102
}
330
1F
100
AcDbEntity
  8
MODELSKETCH_VISIBLE
100
AcDbSpline
210
0.0
220
0.0
230
1.0
 70
     8
 71
     3
 72
    18
 73
    14
 74
     0
 42
0.000000001
 43
0.00000001
 40
0.0
 40
0.0
 40
0.0
 40
0.0
 40
0.0794361493379606
 40
0.1767343355989292
 40
0.2932316446037294
 40
0.4043084008388816
 40
0.5097615817777948
 40
0.5975728861748115
 40
0.6762259845024752
 40
0.7637001454679182
 40
0.831834430993677
 40
0.9160971579856989
 40
1.0
 40
1.0
 40
1.0
 40
1.0
 10
9.607929736375809
 20
98.18647056818008
 30
0.0
 10
10.05341078783451
 20
98.05943782445526
 30
0.0
 10
11.04454389672305
 20
97.77680771525904
 30
0.0
 10
13.05358875440928
 20
98.6471058232319
 30
0.0
 10
15.62518229971755
 20
100.1156084632325
 30
0.0
 10
18.3074214544504
 20
100.6543663895504
 30
0.0
 10
20.82605695049018
 20
100.0470602141518
 30
0.0
 10
22.00556607841404
 20
98.60565717922647
 30
0.0
 10
21.75833217791654
 20
96.82131344365969
 30
0.0
 10
23.90539470638456
 20
96.85831439405395
 30
0.0
 10
24.44866820392449
 20
95.56075368148535
 30
0.0
 10
23.14660642827954
 20
94.33111181228675
 30
0.0
 10
23.28248310629579
 20
93.25683846784169
 30
0.0
 10
23.35027605295181
 20
92.72085130214691
 30
0.0
  0
LINE
  5
100000B4
102
{ACAD_XDICTIONARY
360
100000B5
102
}
330
1F
100
AcDbEntity
  8
MODELSKETCH_VISIBLE
100
AcDbLine
 10
51.05746537446976
 20
35.65489500761032
 30
0.0
 11
52.89905518293381
 21
35.53979471325874
 31
0.0
  0
SPLINE
  5
100000B7
102
{ACAD_XDICTIONARY
360
100000B8
102
}
330
1F
100
AcDbEntity
  8
MODELSKETCH_VISIBLE
100
AcDbSpline
210
0.0
220
0.0
230
1.0
 70
     8
 71
     3
 72
    26
 73
    22
 74
     0
 42
0.000000001
 43
0.00000001
 40
0.0
 40
0.0
 40
0.0
 40
0.0
 40
0.0431942380358847
 40
0.0960105950184874
 40
0.1408451614570597
 40
0.2042444546004485
 40
0.2507202458743689
 40
0.306302215457345
 40
0.3824666728999591
 40
0.4353092307097815
 40
0.4731577299575553
 40
0.507527424477469
 40
0.5473572372089491
 40
0.599243974922555
 40
0.7090156975303435
 40
0.7419211970975694
 40
0.8086892008048815
 40
0.8663627489903102
 40
0.9049406471666362
 40
0.9615238948455088
 40
1.0
 40
1.0
 40
1.0
 40
1.0
 10
-33.52668136358261
 20
81.82115852832794
 30
0.0
 10
-34.0930268833948
 20
82.20642270394451
 30
0.0
 10
-35.35187928630208
 20
83.0627740235238
 30
0.0
 10
-35.31896371899771
 20
86.50605771859038
 30
0.0
 10
-34.50997679838224
 20
88.37511207629922
 30
0.0
 10
-31.66716764795117
 20
92.01946645828241
 30
0.0
 10
-29.61482152944885
 20
93.16281181921926
 30
0.0
 10
-27.26027317705018
 20
95.87639951111888
 30
0.0
 10
-26.33565004184266
 20
102.3311041056738
 30
0.0
 10
-23.03673430066161
 20
103.9666381032079
 30
0.0
 10
-21.19918142214837
 20
102.8740274860422
 30
0.0
 10
-20.62716527166585
 20
104.6363732824355
 30
0.0
 10
-18.37641205544838
 20
104.4468765508444
 30
0.0
 10
-16.8751028423201
 20
107.2835598011137
 30
0.0
 10
-2.555364448846255
 20
106.8987611323339
 30
0.0
 10
-2.208156940465812
 20
105.4347389969
 30
0.0
 10
3.265110628799759
 20
106.2545923028763
 30
0.0
 10
6.219563584190555
 20
103.7253752981817
 30
0.0
 10
6.935991034387524
 20
102.3545552238331
 30
0.0
 10
7.827363019020305
 20
98.6258538426904
 30
0.0
 10
9.094887932469401
 20
98.31307182696126
 30
0.0
 10
9.607929736375809
 20
98.18647056818008
 30
0.0
  0
SPLINE
  5
100000BA
102
{ACAD_XDICTIONARY
360
100000BB
102
}
330
1F
100
AcDbEntity
  8
MODELSKETCH_VISIBLE
100
AcDbSpline
210
0.0
220
0.0
230
1.0
 70
     8
 71
     3
 72
     8
 73
     4
 74
     0
 42
0.000000001
 43
0.00000001
 40
0.0
 40
0.0
 40
0.0
 40
0.0
 40
1.0
 40
1.0
 40
1.0
 40
1.0
 10
57.38801207201379
 20
36.19933520934251
 30
0.0
 10
57.5235499796531
 20
36.19309655850958
 30
0.0
 10
57.61144052673926
 20
36.2757121513479
 30
0.0
 10
57.57086496795303
 20
36.37222523089307
 30
0.0
  0
SPLINE
  5
100000BD
102
{ACAD_XDICTIONARY
360
100000BE
102
}
330
1F
100
AcDbEntity
  8
MODELSKETCH_VISIBLE
100
AcDbSpline
210
0.0
220
0.0
230
1.0
 70
     8
 71
     3
 72
    18
 73
    14
 74
     0
 42
0.000000001
 43
0.00000001
 40
0.0
 40
0.0
 40
0.0
 40
0.0
 40
0.1030327451926031
 40
0.1929276766603245
 40
0.2797029009807982
 40
0.3855527531082494
 40
0.4878515305953161
 40
0.5811066214914857
 40
0.675007895151697
 40
0.7775837051054695
 40
0.8683467402553268
 40
0.9373565274438747
 40
1.0
 40
1.0
 40
1.0
 40
1.0
 10
44.26588863134384
 20
-4.658142104744911
 30
0.0
 10
42.86750366030379
 20
-4.883919552580838
 30
0.0
 10
41.39574533703503
 20
-5.842641443518493
 30
0.0
 10
40.38182165854214
 20
-8.024578759838928
 30
0.0
 10
39.63734041234323
 20
-10.80073733832402
 30
0.0
 10
36.05478597650714
 20
-9.343746445081777
 30
0.0
 10
32.75827371574054
 20
-9.776334384838094
 30
0.0
 10
31.87990118954449
 20
-6.568114579165785
 30
0.0
 10
28.95919992840911
 20
-6.64514177204153
 30
0.0
 10
26.07761733839351
 20
-6.144178832757056
 30
0.0
 10
23.61007255064075
 20
-6.871165898739958
 30
0.0
 10
22.9268039113355
 20
-8.489642343926878
 30
0.0
 10
22.18787224255512
 20
-8.234642077850665
 30
0.0
 10
21.7153150588274
 20
-8.50823987275362
 30
0.0
  0
SPLINE
  5
100000C0
102
{ACAD_XDICTIONARY
360
100000C1
102
}
330
1F
100
AcDbEntity
  8
MODELSKETCH_VISIBLE
100
AcDbSpline
210
0.0
220
0.0
230
1.0
 70
     8
 71
     3
 72
    13
 73
     9
 74
     0
 42
0.000000001
 43
0.00000001
 40
0.0
 40
0.0
 40
0.0
 40
0.0
 40
0.1581778823779119
 40
0.3183133771534014
 40
0.5144956172088287
 40
0.6760892661316716
 40
0.8225315998759071
 40
1.0
 40
1.0
 40
1.0
 40
1.0
 10
32.86650404334068
 20
65.52688032388686
 30
0.0
 10
33.72469430967613
 20
66.08732247299717
 30
0.0
 10
35.45169582095422
 20
67.21514281361974
 30
0.0
 10
35.54518127167099
 20
70.26936313853591
 30
0.0
 10
34.58605589181346
 20
75.12833145715042
 30
0.0
 10
37.90174871296307
 20
76.33120148573738
 30
0.0
 10
40.51137537462265
 20
77.51469900988923
 30
0.0
 10
40.06826735636772
 20
80.01595304958467
 30
0.0
 10
39.82549160718918
 20
81.38637244701385
 30
0.0
  0
SPLINE
  5
100000C3
102
{ACAD_XDICTIONARY
360
100000C4
102
}
330
1F
100
AcDbEntity
  8
MODELSKETCH_VISIBLE
100
AcDbSpline
210
0.0
220
0.0
230
1.0
 70
     8
 71
     3
 72
    18
 73
    14
 74
     0
 42
0.000000001
 43
0.00000001
 40
0.0
 40
0.0
 40
0.0
 40
0.0
 40
0.0913075232820658
 40
0.1746652405997357
 40
0.2813619081404364
 40
0.349197755792231
 40
0.440505335644462
 40
0.5374656542598852
 40
0.6393741451785304
 40
0.7090531449691146
 40
0.7928970555356875
 40
0.9047729398225037
 40
1.0
 40
1.0
 40
1.0
 40
1.0
 10
41.80560633540154
 20
53.97145822644234
 30
0.0
 10
41.29034846643562
 20
54.68843241680544
 30
0.0
 10
40.30469431200392
 20
56.05995652524842
 30
0.0
 10
39.68919813203634
 20
53.5156988958161
 30
0.0
 10
37.03287088739271
 20
53.42245675096557
 30
0.0
 10
35.53260449552683
 20
52.65912835307908
 30
0.0
 10
36.01347437589341
 20
55.22585924618267
 30
0.0
 10
35.2936789963647
 20
57.19078531501878
 30
0.0
 10
33.1552258508648
 20
58.45761490563432
 30
0.0
 10
32.36605082693185
 20
59.56426692065824
 30
0.0
 10
33.54895625755447
 20
61.25609147890057
 30
0.0
 10
30.91838743109557
 20
63.83126347295569
 30
0.0
 10
32.25289171568954
 20
64.99279966559126
 30
0.0
 10
32.86650404334068
 20
65.52688032388686
 30
0.0
  0
SPLINE
  5
100000C6
102
{ACAD_XDICTIONARY
360
100000C7
102
}
330
1F
100
AcDbEntity
  8
MODELSKETCH_VISIBLE
100
AcDbSpline
210
0.0
220
0.0
230
1.0
 70
     8
 71
     3
 72
    34
 73
    30
 74
     0
 42
0.000000001
 43
0.00000001
 40
0.0
 40
0.0
 40
0.0
 40
0.0
 40
0.0347899383349228
 40
0.0690196112839727
 40
0.1005963137866775
 40
0.1299583167242224
 40
0.1604962295343572
 40
0.1959139358794191
 40
0.2401579335243734
 40
0.2763337931694426
 40
0.3197206551715963
 40
0.3538548985208405
 40
0.3813909074119688
 40
0.4120177296033979
 40
0.4481734222840493
 40
0.4910999344238455
 40
0.5213668518081543
 40
0.5571414057669829
 40
0.5949538777939404
 40
0.6385881573897617
 40
0.6709184113402842
 40
0.7113942582952865
 40
0.7465517113509937
 40
0.7877911961963773
 40
0.8274642485587985
 40
0.8695040002021627
 40
0.9080221441601107
 40
0.9540493157187269
 40
1.0
 40
1.0
 40
1.0
 40
1.0
 10
39.82549160718918
 20
81.38637244701385
 30
0.0
 10
40.29480706567026
 20
81.76172406853738
 30
0.0
 10
41.22588001561592
 20
82.5063825603967
 30
0.0
 10
43.05275031571906
 20
82.34342968390897
 30
0.0
 10
43.78298462820981
 20
84.86587252060617
 30
0.0
 10
42.37693157261483
 20
83.15226513118176
 30
0.0
 10
41.22181276437763
 20
83.00246433443957
 30
0.0
 10
39.0215420830858
 20
82.63523762442863
 30
0.0
 10
38.92057786505552
 20
79.52866243989271
 30
0.0
 10
38.83047156005562
 20
77.33170286377322
 30
0.0
 10
35.7933972817445
 20
77.08776864249006
 30
0.0
 10
34.83640441099625
 20
74.47935662475025
 30
0.0
 10
34.69710547099876
 20
76.55227492836907
 30
0.0
 10
33.24088310492776
 20
76.81515498835296
 30
0.0
 10
31.79006783939411
 20
78.0354591226689
 30
0.0
 10
29.78323323292501
 20
79.32106925742065
 30
0.0
 10
28.68809964053901
 20
81.50504773180587
 30
0.0
 10
28.9972119613757
 20
78.39435672084743
 30
0.0
 10
30.85387025141221
 20
77.73879937248428
 30
0.0
 10
32.75784027713296
 20
75.56783460976739
 30
0.0
 10
34.33239273228521
 20
75.21306357476983
 30
0.0
 10
35.02684593371806
 20
72.48042416882667
 30
0.0
 10
33.84054206545217
 20
71.05002275314958
 30
0.0
 10
33.96689285214991
 20
68.43111512571939
 30
0.0
 10
33.07599045313025
 20
66.39992017273933
 30
0.0
 10
30.79017703482333
 20
64.49180647144651
 30
0.0
 10
28.69600967613687
 20
65.69602178449938
 30
0.0
 10
25.6885470520289
 20
66.21086209235492
 30
0.0
 10
23.87217603586376
 20
67.09831091268741
 30
0.0
 10
22.96474575996399
 20
67.54166632890703
 30
0.0
  0
SPLINE
  5
100000C9
102
{ACAD_XDICTIONARY
360
100000CA
102
}
330
1F
100
AcDbEntity
  8
MODELSKETCH_VISIBLE
100
AcDbSpline
210
0.0
220
0.0
230
1.0
 70
     8
 71
     3
 72
    10
 73
     6
 74
     0
 42
0.000000001
 43
0.00000001
 40
0.0
 40
0.0
 40
0.0
 40
0.0
 40
0.3337097396638485
 40
0.6890628831524926
 40
1.0
 40
1.0
 40
1.0
 40
1.0
 10
22.96474575996399
 20
67.54166632890703
 30
0.0
 10
22.3830227658502
 20
67.7455904358332
 30
0.0
 10
21.18184798466537
 20
68.16666455013595
 30
0.0
 10
19.33924731637751
 20
69.27058174292608
 30
0.0
 10
18.72454951165511
 20
70.44008783002597
 30
0.0
 10
18.09216476976871
 20
70.39374113082886
 30
0.0
  0
SPLINE
  5
100000CC
102
{ACAD_XDICTIONARY
360
100000CD
102
}
330
1F
100
AcDbEntity
  8
MODELSKETCH_VISIBLE
100
AcDbSpline
210
0.0
220
0.0
230
1.0
 70
     8
 71
     3
 72
    53
 73
    49
 74
     0
 42
0.000000001
 43
0.00000001
 40
0.0
 40
0.0
 40
0.0
 40
0.0
 40
0.0188756478750016
 40
0.0424420640429637
 40
0.0663411728886584
 40
0.0896047071951447
 40
0.1169076849014421
 40
0.1420234619094998
 40
0.158926660319011
 40
0.1770256590301439
 40
0.1991710097388526
 40
0.2248917578050445
 40
0.2446693853592693
 40
0.2700994634097685
 40
0.2943428391416015
 40
0.3183859890915239
 40
0.3446976549889625
 40
0.3668536540166303
 40
0.3898836964672797
 40
0.4053819382497523
 40
0.4219344471681489
 40
0.4396004672830404
 40
0.459023202615333
 40
0.4749644652642865
 40
0.4973610458823681
 40
0.5146475134173808
 40
0.5336525562945993
 40
0.5471847352944431
 40
0.5639852111010654
 40
0.5801346483188092
 40
0.5994849493869848
 40
0.6158115989717744
 40
0.6369290112442284
 40
0.656642076139288
 40
0.6798439506006809
 40
0.7059760357907328
 40
0.7228446955489594
 40
0.7419292249141571
 40
0.7630547168303667
 40
0.7863714471501696
 40
0.8059124791606526
 40
0.8328744603657243
 40
0.8622047399699403
 40
0.8945415141919726
 40
0.9257169455031513
 40
0.9608918340585356
 40
0.9839624240444935
 40
1.0
 40
1.0
 40
1.0
 40
1.0
 10
13.90048582106829
 20
77.09178328514099
 30
0.0
 10
13.38208081159653
 20
77.27449732289774
 30
0.0
 10
12.21644248448339
 20
77.68533148039919
 30
0.0
 10
9.642711549521234
 20
77.30774472656148
 30
0.0
 10
6.739584275176128
 20
75.58827238985174
 30
0.0
 10
5.496557299989115
 20
78.42709977818842
 30
0.0
 10
2.455399747998917
 20
81.37324766932021
 30
0.0
 10
5.508718757753851
 20
83.7207426659542
 30
0.0
 10
4.276270120911756
 20
86.11647735964891
 30
0.0
 10
4.072048606727674
 20
83.52571155545142
 30
0.0
 10
1.694981497696141
 20
82.36196232327357
 30
0.0
 10
2.951753291504274
 20
78.92057306385274
 30
0.0
 10
2.963799496281645
 20
76.92950447170082
 30
0.0
 10
-0.0256479849874698
 20
75.00885270453209
 30
0.0
 10
-2.764240152598314
 20
75.39306890634212
 30
0.0
 10
-5.751766315457137
 20
75.21208319425908
 30
0.0
 10
-7.832530258830309
 20
72.64261780212757
 30
0.0
 10
-9.85476121608997
 20
70.520202651506
 30
0.0
 10
-12.52876086354191
 20
73.75052941579227
 30
0.0
 10
-12.10949608534312
 20
71.2468909517308
 30
0.0
 10
-10.62405742831815
 20
71.4253822824556
 30
0.0
 10
-9.395146118786649
 20
70.3664197770265
 30
0.0
 10
-9.396416218787127
 20
68.12107296507608
 30
0.0
 10
-11.08342489704143
 20
68.03712799163424
 30
0.0
 10
-12.88068325961397
 20
69.92706703027777
 30
0.0
 10
-14.42983312682002
 20
69.20041588065277
 30
0.0
 10
-15.7436313689239
 20
71.6003531348121
 30
0.0
 10
-15.84302687756008
 20
69.81659498092922
 30
0.0
 10
-14.64730298352853
 20
69.05643807691337
 30
0.0
 10
-13.36685095983308
 20
69.02465282369315
 30
0.0
 10
-12.01562781718702
 20
67.90495403366371
 30
0.0
 10
-10.43074633155126
 20
67.12167892092013
 30
0.0
 10
-12.89189953655287
 20
64.59255518841422
 30
0.0
 10
-13.80018105007249
 20
67.60125601237027
 30
0.0
 10
-16.47568769065572
 20
66.1137197270691
 30
0.0
 10
-20.13580336561332
 20
69.34926422004415
 30
0.0
 10
-18.97017661315467
 20
66.84052431240515
 30
0.0
 10
-17.5100044874553
 20
65.9406566272905
 30
0.0
 10
-15.22137533806522
 20
66.71316166126803
 30
0.0
 10
-13.13695820026476
 20
64.39187761793244
 30
0.0
 10
-13.59602953954742
 20
62.38266565373918
 30
0.0
 10
-16.60407785646147
 20
59.78670697297996
 30
0.0
 10
-20.8715343265478
 20
61.06323441667674
 30
0.0
 10
-25.36892402254427
 20
59.08352247767469
 30
0.0
 10
-30.35014444240008
 20
56.04421763145055
 30
0.0
 10
-33.52841150734036
 20
62.30279500680913
 30
0.0
 10
-35.91650065639462
 20
63.61173532673346
 30
0.0
 10
-35.85929028760597
 20
64.58965293038285
 30
0.0
 10
-35.82657187937534
 20
65.0571882722709
 30
0.0
  0
SPLINE
  5
100000CF
102
{ACAD_XDICTIONARY
360
100000D0
102
}
330
1F
100
AcDbEntity
  8
MODELSKETCH_VISIBLE
100
AcDbSpline
210
0.0
220
0.0
230
1.0
 70
     8
 71
     3
 72
    61
 73
    57
 74
     0
 42
0.000000001
 43
0.00000001
 40
0.0
 40
0.0
 40
0.0
 40
0.0
 40
0.0111526669494189
 40
0.0307489748557777
 40
0.0499054536515566
 40
0.0662944087036771
 40
0.0971277341331155
 40
0.120025670917953
 40
0.1375578722290289
 40
0.1573207071491405
 40
0.1785372119846086
 40
0.2099690778681188
 40
0.2354583045118965
 40
0.2591710249007241
 40
0.2813574496695663
 40
0.3027604623977052
 40
0.3245616505552403
 40
0.3440667235029969
 40
0.3652345409605928
 40
0.3836808067378333
 40
0.4055917963620557
 40
0.4235206646377066
 40
0.439851372614902
 40
0.4599610417557749
 40
0.4740502337714829
 40
0.4859135643972501
 40
0.4993154922098294
 40
0.5138971405696587
 40
0.5300504254450155
 40
0.5447599696646245
 40
0.5623640140536441
 40
0.5817575738437083
 40
0.6077235934907409
 40
0.6165283630541789
 40
0.634256524382515
 40
0.6527380538639072
 40
0.6725271748405687
 40
0.6913827022411562
 40
0.7022607672291606
 40
0.7132219842308046
 40
0.7272549791252028
 40
0.7398163854710083
 40
0.7539532339868176
 40
0.7681117603248971
 40
0.7847649500792029
 40
0.8036637867116051
 40
0.8206409454884618
 40
0.8369045906990075
 40
0.8563268473812498
 40
0.8768989612153877
 40
0.901989315578551
 40
0.9216009168803697
 40
0.9460179349274928
 40
0.9695813882995976
 40
0.9815489540880219
 40
1.0
 40
1.0
 40
1.0
 40
1.0
 10
-35.82657187937535
 20
65.05718827227092
 30
0.0
 10
-35.78260397001874
 20
65.28269841564692
 30
0.0
 10
-35.66138021740434
 20
65.90445155862523
 30
0.0
 10
-37.09197441630833
 20
67.8968826228483
 30
0.0
 10
-37.16247476125066
 20
70.12966326465187
 30
0.0
 10
-37.7469403525696
 20
71.99063962527238
 30
0.0
 10
-32.79629280977544
 20
75.91359817891063
 30
0.0
 10
-30.24393999967326
 20
76.80336845244223
 30
0.0
 10
-27.24881735410178
 20
76.85306064780062
 30
0.0
 10
-29.5781052620363
 20
80.15934160615578
 30
0.0
 10
-25.75486799462235
 20
80.7975787289314
 30
0.0
 10
-20.2674282688622
 20
81.90377733942981
 30
0.0
 10
-16.51421470976778
 20
82.9197496301363
 30
0.0
 10
-13.37445807548224
 20
84.42678270264246
 30
0.0
 10
-10.8953863501996
 20
86.38955148198643
 30
0.0
 10
-10.25722459698083
 20
89.16194774146426
 30
0.0
 10
-8.499631481619225
 20
91.66333748466575
 30
0.0
 10
-9.471865982452723
 20
94.27990843553812
 30
0.0
 10
-6.849139714335492
 20
95.99832739563185
 30
0.0
 10
-6.209042542348626
 20
98.22935008826067
 30
0.0
 10
-2.806608109201826
 20
98.17721955384019
 30
0.0
 10
-1.339364163751094
 20
98.61630199723898
 30
0.0
 10
1.226206791515003
 20
100.4367330358568
 30
0.0
 10
-2.348546580786008
 20
99.01238600751016
 30
0.0
 10
-3.338261831783086
 20
99.22013238494755
 30
0.0
 10
-4.121347334364782
 20
100.6492465111886
 30
0.0
 10
-3.83044993993679
 20
98.6800659356678
 30
0.0
 10
-5.345485465169177
 20
98.54988165051371
 30
0.0
 10
-6.714664066339403
 20
97.78504426532989
 30
0.0
 10
-7.849533694921848
 20
97.13949521192946
 30
0.0
 10
-9.348825344375033
 20
95.82240645228238
 30
0.0
 10
-10.68889395217952
 20
94.08699691840596
 30
0.0
 10
-9.954570465083451
 20
89.5866449787805
 30
0.0
 10
-10.94347082057713
 20
89.4175536395243
 30
0.0
 10
-12.16617872250268
 20
91.14951029588066
 30
0.0
 10
-14.20373148763568
 20
91.49430685875579
 30
0.0
 10
-16.42575447330634
 20
92.23235231984994
 30
0.0
 10
-18.17992610312956
 20
93.29188463350084
 30
0.0
 10
-19.38315504729346
 20
93.36973958034656
 30
0.0
 10
-18.66454596246746
 20
92.5117145939588
 30
0.0
 10
-17.71497180519721
 20
91.93062807716147
 30
0.0
 10
-16.8004921571724
 20
91.64536389717033
 30
0.0
 10
-15.63129894329042
 20
91.22193326338596
 30
0.0
 10
-14.49833099833914
 20
90.77687450057131
 30
0.0
 10
-12.7757245292733
 20
90.5782856552624
 30
0.0
 10
-11.22673667614779
 20
88.60987284919528
 30
0.0
 10
-12.05579362517297
 20
86.80352643690354
 30
0.0
 10
-13.15435180349053
 20
85.61197071431299
 30
0.0
 10
-15.38593818213024
 20
84.66784155865943
 30
0.0
 10
-17.75239277771713
 20
84.1004344013963
 30
0.0
 10
-21.44774703642377
 20
82.76422467775545
 30
0.0
 10
-23.72421390217163
 20
82.44169649229929
 30
0.0
 10
-27.17451214065227
 20
82.02224682934512
 30
0.0
 10
-30.67113471186892
 20
81.1394951668847
 30
0.0
 10
-31.40642544396945
 20
81.91341758960101
 30
0.0
 10
-32.72616543551489
 20
81.85599151588123
 30
0.0
 10
-33.52668136358261
 20
81.82115852832794
 30
0.0
  0
SPLINE
  5
100000D2
102
{ACAD_XDICTIONARY
360
100000D3
102
}
330
1F
100
AcDbEntity
  8
MODELSKETCH_VISIBLE
100
AcDbSpline
210
0.0
220
0.0
230
1.0
 70
     8
 71
     3
 72
     9
 73
     5
 74
     0
 42
0.000000001
 43
0.00000001
 40
0.0
 40
0.0
 40
0.0
 40
0.0
 40
0.4459131808997305
 40
1.0
 40
1.0
 40
1.0
 40
1.0
 10
17.05504767596722
 20
70.82587480545044
 30
0.0
 10
17.14911469550812
 20
70.70290832206716
 30
0.0
 10
17.36006835996609
 20
70.42714503753005
 30
0.0
 10
17.83114655251293
 20
70.40565080291545
 30
0.0
 10
18.09216476976871
 20
70.39374113082884
 30
0.0
  0
SPLINE
  5
100000D5
102
{ACAD_XDICTIONARY
360
100000D6
102
}
330
1F
100
AcDbEntity
  8
MODELSKETCH_VISIBLE
100
AcDbSpline
210
0.0
220
0.0
230
1.0
 70
     8
 71
     3
 72
    40
 73
    36
 74
     0
 42
0.000000001
 43
0.00000001
 40
0.0
 40
0.0
 40
0.0
 40
0.0
 40
0.0315671027117761
 40
0.0650634146530457
 40
0.0972070863934981
 40
0.138069272677401
 40
0.1637289737608149
 40
0.1990506298897754
 40
0.228004407321451
 40
0.2555029779814911
 40
0.2983232715346283
 40
0.3212010445551176
 40
0.3610247110901711
 40
0.3891507420414292
 40
0.4162192401509945
 40
0.4426203846492088
 40
0.4677848291171953
 40
0.5010436433187404
 40
0.5233502509560312
 40
0.5557042678421453
 40
0.5838951669626181
 40
0.6089830301397389
 40
0.6300793229089403
 40
0.6573963841057757
 40
0.6804705499835143
 40
0.712479769547779
 40
0.7505097447379484
 40
0.7851223641561867
 40
0.8220096043798822
 40
0.8528383894238543
 40
0.8819581514375702
 40
0.9201903761645767
 40
0.9483499611265582
 40
0.9768606381967858
 40
1.0
 40
1.0
 40
1.0
 40
1.0
 10
93.66198629140854
 20
-26.27105452120304
 30
0.0
 10
93.22067792515358
 20
-26.3224327958335
 30
0.0
 10
91.97574263211493
 20
-24.74633939812795
 30
0.0
 10
89.98360732591874
 20
-26.390533282998
 30
0.0
 10
88.31901573878974
 20
-26.98477158095329
 30
0.0
 10
84.92058194798355
 20
-26.66046415548687
 30
0.0
 10
84.07972091556682
 20
-27.76334022574072
 30
0.0
 10
83.94139528285982
 20
-30.6623093479482
 30
0.0
 10
86.07110597491001
 20
-30.596808291305
 30
0.0
 10
86.67632026101838
 20
-32.36191005966973
 30
0.0
 10
90.25239028452954
 20
-31.47038596227927
 30
0.0
 10
91.86444658697502
 20
-32.99404423115017
 30
0.0
 10
87.94920924824164
 20
-32.59282344347814
 30
0.0
 10
86.67321095704081
 20
-32.5891321361926
 30
0.0
 10
85.65727698145625
 20
-31.43200629817667
 30
0.0
 10
84.21446659494484
 20
-31.12956399205934
 30
0.0
 10
83.23316737529845
 20
-31.9479878973141
 30
0.0
 10
81.96046284896423
 20
-33.32047193548106
 30
0.0
 10
80.13477007603542
 20
-33.83932580758741
 30
0.0
 10
82.46926442619299
 20
-32.16781916440457
 30
0.0
 10
83.35993095549078
 20
-31.30246807283743
 30
0.0
 10
83.45254058714241
 20
-29.83409136638482
 30
0.0
 10
82.17807708833057
 20
-29.40830791458315
 30
0.0
 10
83.68374750949769
 20
-28.09507527071455
 30
0.0
 10
82.82575986976363
 20
-27.01675431434953
 30
0.0
 10
80.89313041934138
 20
-26.64671739194513
 30
0.0
 10
78.1845653879912
 20
-27.04854186718453
 30
0.0
 10
76.16969946607158
 20
-27.78441199121067
 30
0.0
 10
73.52551783047339
 20
-28.42437307109087
 30
0.0
 10
72.72890641897196
 20
-30.35759302027735
 30
0.0
 10
71.00332998560035
 20
-30.50843672104621
 30
0.0
 10
68.66355587501418
 20
-31.94799024931699
 30
0.0
 10
67.05919796905302
 20
-32.17704567631553
 30
0.0
 10
65.87267229051726
 20
-30.1977988445458
 30
0.0
 10
65.66361140693586
 20
-31.2241989319955
 30
0.0
 10
65.61034897405774
 20
-31.71022725689997
 30
0.0
  0
SPLINE
  5
100000D8
102
{ACAD_XDICTIONARY
360
100000D9
102
}
330
1F
100
AcDbEntity
  8
MODELSKETCH_VISIBLE
100
AcDbSpline
210
0.0
220
0.0
230
1.0
 70
     8
 71
     3
 72
    18
 73
    14
 74
     0
 42
0.000000001
 43
0.00000001
 40
0.0
 40
0.0
 40
0.0
 40
0.0
 40
0.0711397607233106
 40
0.1457797856394153
 40
0.1885360295290356
 40
0.2880648897486011
 40
0.4038808144499263
 40
0.4423085843260954
 40
0.547923832929822
 40
0.6558001153474351
 40
0.7655879896272256
 40
0.8821820255587568
 40
1.0
 40
1.0
 40
1.0
 40
1.0
 10
55.678788334853
 20
58.43920585871581
 30
0.0
 10
55.80431928187664
 20
58.07741918208289
 30
0.0
 10
56.0615576301949
 20
57.33604496841537
 30
0.0
 10
55.78200207464836
 20
55.77850600731536
 30
0.0
 10
55.20465650675224
 20
55.84573022553611
 30
0.0
 10
52.79015033701587
 20
54.42904745320202
 30
0.0
 10
53.70939538483471
 20
50.70254123716936
 30
0.0
 10
53.08982922096267
 20
50.72654295371287
 30
0.0
 10
51.33452137427
 20
48.05911228871186
 30
0.0
 10
52.66491955928642
 20
45.5558131341469
 30
0.0
 10
53.54753491850189
 20
42.47649318132016
 30
0.0
 10
51.10261470425138
 20
39.752126189255
 30
0.0
 10
51.28704655159451
 20
37.45434019005479
 30
0.0
 10
51.37974396348
 20
36.29944846034051
 30
0.0
  0
SPLINE
  5
100000DB
102
{ACAD_XDICTIONARY
360
100000DC
102
}
330
1F
100
AcDbEntity
  8
MODELSKETCH_VISIBLE
100
AcDbSpline
210
0.0
220
0.0
230
1.0
 70
     8
 71
     3
 72
    25
 73
    21
 74
     0
 42
0.000000001
 43
0.00000001
 40
0.0
 40
0.0
 40
0.0
 40
0.0
 40
0.0370253009429003
 40
0.0887247469648523
 40
0.1416072637671233
 40
0.1888692568262003
 40
0.2439399782696975
 40
0.3022038977274322
 40
0.3451430218244714
 40
0.392069700709419
 40
0.4606937647851853
 40
0.4835131281926676
 40
0.5252221217921601
 40
0.5732632136770205
 40
0.6431167607507047
 40
0.7283539482600889
 40
0.7975879254477976
 40
0.8551292740500698
 40
0.9239343310375032
 40
1.0
 40
1.0
 40
1.0
 40
1.0
 10
65.5897901305004
 20
-32.46202319845955
 30
0.0
 10
65.61004772952631
 20
-32.84461839084852
 30
0.0
 10
65.55365559798003
 20
-33.70492170288696
 30
0.0
 10
67.71769356598479
 20
-34.42386988065888
 30
0.0
 10
70.10185127586779
 20
-34.26940798056342
 30
0.0
 10
70.46680860731817
 20
-36.38778722674682
 30
0.0
 10
72.4393466711427
 20
-37.71366103635819
 30
0.0
 10
75.031056282341
 20
-38.35809950697998
 30
0.0
 10
76.48882943035083
 20
-37.73561035505998
 30
0.0
 10
77.82651950393284
 20
-37.10219073214147
 30
0.0
 10
81.68463237491962
 20
-36.56659949274825
 30
0.0
 10
81.70591678297114
 20
-35.99890335341154
 30
0.0
 10
83.31188075494474
 20
-35.61651614953349
 30
0.0
 10
84.81170839502613
 20
-36.65085702897665
 30
0.0
 10
88.69814243482419
 20
-37.04345073162973
 30
0.0
 10
93.8402165776793
 20
-35.9951476665812
 30
0.0
 10
98.0117089138086
 20
-35.78196969169589
 30
0.0
 10
98.75244357596934
 20
-33.00723210696725
 30
0.0
 10
99.77537579276395
 20
-28.70267251489
 30
0.0
 10
95.32698136373467
 20
-27.81417975226645
 30
0.0
 10
94.84582664319316
 20
-26.93167515099049
 30
0.0
  0
SPLINE
  5
100000DE
102
{ACAD_XDICTIONARY
360
100000DF
102
}
330
1F
100
AcDbEntity
  8
MODELSKETCH_VISIBLE
100
AcDbSpline
210
0.0
220
0.0
230
1.0
 70
     8
 71
     3
 72
    12
 73
     8
 74
     0
 42
0.000000001
 43
0.00000001
 40
0.0
 40
0.0
 40
0.0
 40
0.0
 40
0.2260892345561819
 40
0.4806289789532804
 40
0.7024277347691321
 40
0.8894379645849484
 40
1.0
 40
1.0
 40
1.0
 40
1.0
 10
74.70615953207016
 20
44.68994960188866
 30
0.0
 10
75.4202024684861
 20
44.97388529709917
 30
0.0
 10
76.93814173760721
 20
45.57748645283444
 30
0.0
 10
79.97680097033073
 20
45.90005276760697
 30
0.0
 10
82.00666436649911
 20
46.87133671939933
 30
0.0
 10
83.1181327188368
 20
48.34863881745967
 30
0.0
 10
83.61359201468677
 20
48.20715077392431
 30
0.0
 10
83.79767835140228
 20
48.15458133816719
 30
0.0
  0
SPLINE
  5
100000E1
102
{ACAD_XDICTIONARY
360
100000E2
102
}
330
1F
100
AcDbEntity
  8
MODELSKETCH_VISIBLE
100
AcDbSpline
210
0.0
220
0.0
230
1.0
 70
     8
 71
     3
 72
    11
 73
     7
 74
     0
 42
0.000000001
 43
0.00000001
 40
0.0
 40
0.0
 40
0.0
 40
0.0
 40
0.1853657749724459
 40
0.4214947720274809
 40
0.7527475606380706
 40
1.0
 40
1.0
 40
1.0
 40
1.0
 10
64.00013715028763
 20
-31.71022725689997
 30
0.0
 10
63.82715555870862
 20
-31.60568435992848
 30
0.0
 10
63.74687525548404
 20
-31.15225851764089
 30
0.0
 10
63.00073564743329
 20
-30.35635896369681
 30
0.0
 10
60.96071793219294
 20
-30.75389860029922
 30
0.0
 10
60.55738675966165
 20
-31.46608429222854
 30
0.0
 10
60.16649678349495
 20
-31.42639622092247
 30
0.0
  0
SPLINE
  5
100000E4
102
{ACAD_XDICTIONARY
360
100000E5
102
}
330
1F
100
AcDbEntity
  8
MODELSKETCH_VISIBLE
100
AcDbSpline
210
0.0
220
0.0
230
1.0
 70
     8
 71
     3
 72
    30
 73
    26
 74
     0
 42
0.000000001
 43
0.00000001
 40
0.0
 40
0.0
 40
0.0
 40
0.0
 40
0.0349097433094649
 40
0.0718645700011451
 40
0.1117838726757515
 40
0.1569894611736902
 40
0.1896627910271534
 40
0.2385876685697232
 40
0.2720751624760283
 40
0.3244878889082279
 40
0.3686939316720114
 40
0.4102728367056775
 40
0.4514218083659421
 40
0.4844778348506531
 40
0.538929808737376
 40
0.5909006294738472
 40
0.6287151096503834
 40
0.6761088321994557
 40
0.7214390552038489
 40
0.768448132545126
 40
0.8120432693409813
 40
0.866756525210148
 40
0.9178065247294411
 40
0.9665901873753147
 40
1.0
 40
1.0
 40
1.0
 40
1.0
 10
90.56203674019898
 20
48.65646916486379
 30
0.0
 10
90.93536481507725
 20
48.47454509186581
 30
0.0
 10
91.70389127866792
 20
48.10003946565824
 30
0.0
 10
92.23524319185866
 20
46.71623859296938
 30
0.0
 10
92.8558051700706
 20
45.43444021298898
 30
0.0
 10
95.22733351328816
 20
44.01465684542838
 30
0.0
 10
93.39427644850333
 20
43.30711018120074
 30
0.0
 10
94.34418801963646
 20
40.78261419919831
 30
0.0
 10
95.13446589430177
 20
39.65773404219293
 30
0.0
 10
92.41362314133619
 20
37.93028913911429
 30
0.0
 10
90.60706805716772
 20
37.54661931322054
 30
0.0
 10
88.88819619359509
 20
37.96735175235241
 30
0.0
 10
87.14250343833382
 20
38.05857403830859
 30
0.0
 10
86.00681890642416
 20
38.08648091853333
 30
0.0
 10
83.43362236766707
 20
36.64363851195483
 30
0.0
 10
81.31498166876668
 20
34.52068226832474
 30
0.0
 10
79.94978423194475
 20
35.60638467602001
 30
0.0
 10
77.44475905660701
 20
35.89608701347368
 30
0.0
 10
76.15838606958668
 20
34.10819657478019
 30
0.0
 10
74.1484744785829
 20
33.07634224627305
 30
0.0
 10
73.0985110591509
 20
31.19636617293618
 30
0.0
 10
69.77985018490571
 20
31.49194640444949
 30
0.0
 10
67.43657287403124
 20
31.9474419405219
 30
0.0
 10
64.97251698561782
 20
31.8927284760165
 30
0.0
 10
64.15662381076864
 20
31.80234243623714
 30
0.0
 10
63.82498145103456
 20
31.76560252904893
 30
0.0
  0
SPLINE
  5
100000E7
102
{ACAD_XDICTIONARY
360
100000E8
102
}
330
1F
100
AcDbEntity
  8
MODELSKETCH_VISIBLE
100
AcDbSpline
210
0.0
220
0.0
230
1.0
 70
     8
 71
     3
 72
    13
 73
     9
 74
     0
 42
0.000000001
 43
0.00000001
 40
0.0
 40
0.0
 40
0.0
 40
0.0
 40
0.122720007616376
 40
0.2847341046004699
 40
0.4337364185618368
 40
0.6424329770244258
 40
0.8157884874184852
 40
1.0
 40
1.0
 40
1.0
 40
1.0
 10
56.1375617980957
 20
-22.0736563205719
 30
0.0
 10
56.13803136487209
 20
-21.60581213921233
 30
0.0
 10
56.60543418994494
 20
-20.84254476707116
 30
0.0
 10
55.4271084613182
 20
-18.81228152219275
 30
0.0
 10
54.35015927018473
 20
-17.01322401860244
 30
0.0
 10
50.47671362704138
 20
-18.06695494067
 30
0.0
 10
48.16310516843541
 20
-18.67467514650438
 30
0.0
 10
46.33655064825045
 20
-17.66591054904418
 30
0.0
 10
45.61515152454377
 20
-17.08253286778927
 30
0.0
  0
SPLINE
  5
100000EA
102
{ACAD_XDICTIONARY
360
100000EB
102
}
330
1F
100
AcDbEntity
  8
MODELSKETCH_VISIBLE
100
AcDbSpline
210
0.0
220
0.0
230
1.0
 70
     8
 71
     3
 72
    32
 73
    28
 74
     0
 42
0.000000001
 43
0.00000001
 40
0.0
 40
0.0
 40
0.0
 40
0.0
 40
0.0251197830373781
 40
0.0699130951680405
 40
0.1162140236791989
 40
0.1443848527454785
 40
0.1897663772304947
 40
0.2286675034757635
 40
0.2828539944910627
 40
0.3257363692306887
 40
0.361264273984212
 40
0.4081694582209837
 40
0.4624885585806139
 40
0.4985718498302484
 40
0.5406971494969416
 40
0.58251054530308
 40
0.6199075045219093
 40
0.651712772674117
 40
0.705185048163206
 40
0.7338903488032522
 40
0.7855620187695797
 40
0.8171007648556964
 40
0.8561309340554716
 40
0.8999790375163297
 40
0.9355411803246964
 40
0.9761892020719551
 40
1.0
 40
1.0
 40
1.0
 40
1.0
 10
81.24953508377075
 20
34.99317914247513
 30
0.0
 10
81.21620713114106
 20
34.76556937492127
 30
0.0
 10
81.12345077425289
 20
34.13209953460369
 30
0.0
 10
82.2566551971267
 20
31.98887821185857
 30
0.0
 10
83.59484952123584
 20
29.75772922632002
 30
0.0
 10
84.1275476691308
 20
28.96801002416587
 30
0.0
 10
84.28898955892262
 20
26.29557101918949
 30
0.0
 10
85.08168043855841
 20
24.58736024591852
 30
0.0
 10
88.55434845610193
 20
23.30128933860928
 30
0.0
 10
90.17593113068214
 20
21.60024631688343
 30
0.0
 10
92.03467353249565
 20
22.04953014703758
 30
0.0
 10
93.94706708762362
 20
19.98448549341893
 30
0.0
 10
96.50093761048102
 20
17.63291349510062
 30
0.0
 10
97.93888366628443
 20
16.60006010072695
 30
0.0
 10
97.50537349349263
 20
14.13977995153014
 30
0.0
 10
98.83807240700135
 20
12.52156335819202
 30
0.0
 10
98.52459384206172
 20
10.23379526889469
 30
0.0
 10
97.08973409060323
 20
10.7493026045782
 30
0.0
 10
93.45720620617342
 20
9.821142043960526
 30
0.0
 10
93.35983359004655
 20
8.604740481566436
 30
0.0
 10
88.71360050136563
 20
9.3379133529798
 30
0.0
 10
90.63460470569623
 20
7.699707602176904
 30
0.0
 10
91.47596545081028
 20
6.427477616515962
 30
0.0
 10
92.8363662013356
 20
4.293901264229857
 30
0.0
 10
94.28898355918896
 20
3.912530141253431
 30
0.0
 10
95.88922989507867
 20
2.571403895185316
 30
0.0
 10
96.38623106013497
 20
2.390459989261708
 30
0.0
 10
96.56991634995211
 20
2.323372452026799
 30
0.0
  0
SPLINE
  5
100000ED
102
{ACAD_XDICTIONARY
360
100000EE
102
}
330
1F
100
AcDbEntity
  8
MODELSKETCH_VISIBLE
100
AcDbSpline
210
0.0
220
0.0
230
1.0
 70
     8
 71
     3
 72
    17
 73
    13
 74
     0
 42
0.000000001
 43
0.00000001
 40
0.0
 40
0.0
 40
0.0
 40
0.0
 40
0.091279217929722
 40
0.1856832604214304
 40
0.2736602533511568
 40
0.3791926690064834
 40
0.4759096117243691
 40
0.5670727411468872
 40
0.6957065155488228
 40
0.8026709389895599
 40
0.9005435269992743
 40
1.0
 40
1.0
 40
1.0
 40
1.0
 10
55.9513121843338
 20
-24.75840598344803
 30
0.0
 10
55.55879792331618
 20
-25.00148740644834
 30
0.0
 10
55.14621412388877
 20
-26.41028021427584
 30
0.0
 10
53.97631534626319
 20
-27.86462391070309
 30
0.0
 10
52.44725066625168
 20
-28.66214177016437
 30
0.0
 10
50.07913453623405
 20
-28.65112422747571
 30
0.0
 10
48.08757944795349
 20
-29.39188739978607
 30
0.0
 10
47.77428494439626
 20
-32.29380501109311
 30
0.0
 10
52.00660571411429
 20
-31.39048796440635
 30
0.0
 10
54.22653586984774
 20
-30.66473723929797
 30
0.0
 10
56.11354000010306
 20
-32.77494118341277
 30
0.0
 10
57.23469283129979
 20
-31.29116733386829
 30
0.0
 10
57.98622965812682
 20
-31.19019791483879
 30
0.0
  0
SPLINE
  5
100000F0
102
{ACAD_XDICTIONARY
360
100000F1
102
}
330
1F
100
AcDbEntity
  8
MODELSKETCH_VISIBLE
100
AcDbSpline
210
0.0
220
0.0
230
1.0
 70
     8
 71
     3
 72
    18
 73
    14
 74
     0
 42
0.000000001
 43
0.00000001
 40
0.0
 40
0.0
 40
0.0
 40
0.0
 40
0.0609377680966119
 40
0.1348779752138281
 40
0.2535992645467385
 40
0.3504838150667486
 40
0.4334979507391719
 40
0.5292885996134993
 40
0.628441005912195
 40
0.7184369221156426
 40
0.8270850720509348
 40
0.8986219319724852
 40
1.0
 40
1.0
 40
1.0
 40
1.0
 10
89.71411734819412
 20
8.829589933156967
 30
0.0
 10
89.7314329384693
 20
9.090109663450113
 30
0.0
 10
89.76975878841262
 20
9.666736849228943
 30
0.0
 10
89.36332773767245
 20
10.85673727027875
 30
0.0
 10
86.96471419329484
 20
12.67911840644054
 30
0.0
 10
85.63638421582398
 20
14.18491103327655
 30
0.0
 10
83.99718277892818
 20
14.33653787930457
 30
0.0
 10
82.12434428250765
 20
13.90694920278507
 30
0.0
 10
79.96879779872619
 20
13.61300863770177
 30
0.0
 10
78.39078320776275
 20
14.11089750943496
 30
0.0
 10
75.85542729866356
 20
14.64762478228897
 30
0.0
 10
74.83210622865614
 20
15.24149352052426
 30
0.0
 10
73.53694496075326
 20
14.59657428449048
 30
0.0
 10
72.77760654687881
 20
14.2184654250741
 30
0.0
  0
SPLINE
  5
100000F3
102
{ACAD_XDICTIONARY
360
100000F4
102
}
330
1F
100
AcDbEntity
  8
MODELSKETCH_VISIBLE
100
AcDbSpline
210
0.0
220
0.0
230
1.0
 70
     8
 71
     3
 72
     9
 73
     5
 74
     0
 42
0.000000001
 43
0.00000001
 40
0.0
 40
0.0
 40
0.0
 40
0.0
 40
0.4738089163860144
 40
1.0
 40
1.0
 40
1.0
 40
1.0
 10
48.48266020417213
 20
-9.363817982375622
 30
0.0
 10
48.6254715373374
 20
-8.658716253354138
 30
0.0
 10
47.95277366298938
 20
-7.611392812625271
 30
0.0
 10
49.48346300290779
 20
-5.959084099010597
 30
0.0
 10
49.21601340174675
 20
-5.391494370996952
 30
0.0
  0
SPLINE
  5
100000F6
102
{ACAD_XDICTIONARY
360
100000F7
102
}
330
1F
100
AcDbEntity
  8
MODELSKETCH_VISIBLE
100
AcDbSpline
210
0.0
220
0.0
230
1.0
 70
     8
 71
     3
 72
    24
 73
    20
 74
     0
 42
0.000000001
 43
0.00000001
 40
0.0
 40
0.0
 40
0.0
 40
0.0
 40
0.0373402312145043
 40
0.084738762135238
 40
0.1410560180894732
 40
0.212646645045982
 40
0.2877066134111746
 40
0.3575408974995263
 40
0.4109574383738591
 40
0.4633006079224394
 40
0.5059834538016437
 40
0.5974500421322262
 40
0.6659057489915796
 40
0.7077240305688002
 40
0.7633051561902668
 40
0.8313567415636686
 40
0.9010124899976666
 40
0.9636359403479119
 40
1.0
 40
1.0
 40
1.0
 40
1.0
 10
98.32949191331863
 20
10.61995513737202
 30
0.0
 10
98.54759324828835
 20
10.4243585198644
 30
0.0
 10
99.04254565067725
 20
9.980477625013464
 30
0.0
 10
100.5571408521454
 20
10.52081904671864
 30
0.0
 10
102.2729826982435
 20
9.2799947269487
 30
0.0
 10
105.5082546232541
 20
9.615711885462254
 30
0.0
 10
108.7532919730488
 20
10.15116321620715
 30
0.0
 10
111.7448972185347
 20
10.64831380238035
 30
0.0
 10
113.5043358959556
 20
10.78001763102189
 30
0.0
 10
115.1420182542098
 20
10.00624981540295
 30
0.0
 10
116.495469110824
 20
9.949557865622976
 30
0.0
 10
119.5005118689594
 20
14.4077871596303
 30
0.0
 10
122.3154425605046
 20
15.21312872633157
 30
0.0
 10
123.5588507395267
 20
15.25806566625457
 30
0.0
 10
125.0540341547567
 20
13.81953447106351
 30
0.0
 10
127.8784980555557
 20
13.26697407272237
 30
0.0
 10
130.5764413642582
 20
12.91789514908063
 30
0.0
 10
133.317399076536
 20
12.91643366566147
 30
0.0
 10
133.4474625461349
 20
12.15646513115618
 30
0.0
 10
133.4952426728088
 20
11.87728302907271
 30
0.0
  0
SPLINE
  5
100000F9
102
{ACAD_XDICTIONARY
360
100000FA
102
}
330
1F
100
AcDbEntity
  8
MODELSKETCH_VISIBLE
100
AcDbSpline
210
0.0
220
0.0
230
1.0
 70
     8
 71
     3
 72
    11
 73
     7
 74
     0
 42
0.000000001
 43
0.00000001
 40
0.0
 40
0.0
 40
0.0
 40
0.0
 40
0.1636515670481903
 40
0.371659314052992
 40
0.6095073885694742
 40
1.0
 40
1.0
 40
1.0
 40
1.0
 10
48.93519356846809
 20
-3.34588810801506
 30
0.0
 10
49.01209727408956
 20
-3.194274832473276
 30
0.0
 10
48.54262113150784
 20
-2.60978518154265
 30
0.0
 10
50.16698652731259
 20
-1.79523772537647
 30
0.0
 10
50.43146041395762
 20
-4.744147495302885
 30
0.0
 10
51.7315985841707
 20
-2.051158834430621
 30
0.0
 10
52.53959074616432
 20
-0.377556920284406
 30
0.0
  0
SPLINE
  5
100000FC
102
{ACAD_XDICTIONARY
360
100000FD
102
}
330
1F
100
AcDbEntity
  8
MODELSKETCH_VISIBLE
100
AcDbSpline
210
0.0
220
0.0
230
1.0
 70
     8
 71
     3
 72
    28
 73
    24
 74
     0
 42
0.000000001
 43
0.00000001
 40
0.0
 40
0.0
 40
0.0
 40
0.0
 40
0.0307327810338158
 40
0.0864154138578355
 40
0.1251967501099156
 40
0.181007611975261
 40
0.2493437955343437
 40
0.2954428325402378
 40
0.3445371289510891
 40
0.3917939014733894
 40
0.4215420336434035
 40
0.4569130941261292
 40
0.5079058168379854
 40
0.5466278299541008
 40
0.5903208942394068
 40
0.6263168200596991
 40
0.6786451484893098
 40
0.7158699355451681
 40
0.7786610301713274
 40
0.8455936251215116
 40
0.8970872931658936
 40
0.9490600783593965
 40
1.0
 40
1.0
 40
1.0
 40
1.0
 10
94.5720449090004
 20
44.03345659375191
 30
0.0
 10
94.71283583849929
 20
43.84384774801203
 30
0.0
 10
95.10871626424694
 20
43.31069954844981
 30
0.0
 10
97.76157633688304
 20
42.05738430875552
 30
0.0
 10
99.033285668419
 20
41.84206053835727
 30
0.0
 10
101.9136826625298
 20
41.61018234869763
 30
0.0
 10
106.094684260817
 20
42.02709504069609
 30
0.0
 10
107.9779850549945
 20
41.64722917632011
 30
0.0
 10
110.1601209506035
 20
41.38234895111049
 30
0.0
 10
112.0018655849865
 20
40.24460444308188
 30
0.0
 10
112.289858506167
 20
39.47203653739127
 30
0.0
 10
112.731384564631
 20
38.08370256212321
 30
0.0
 10
115.3377809782759
 20
38.49939985379818
 30
0.0
 10
116.689058967536
 20
38.53425080444675
 30
0.0
 10
117.8777029656434
 20
36.98238028190065
 30
0.0
 10
118.0652247912961
 20
35.66284462518757
 30
0.0
 10
120.9200287038932
 20
35.43087360405812
 30
0.0
 10
121.8733701067588
 20
34.63114918861191
 30
0.0
 10
125.663786877964
 20
34.91045377809385
 30
0.0
 10
129.5217711949949
 20
35.06297524526985
 30
0.0
 10
131.9676045434809
 20
35.77014543307769
 30
0.0
 10
134.324703832221
 20
34.63271443969602
 30
0.0
 10
135.7180266203627
 20
33.93440813780368
 30
0.0
 10
136.4076961065848
 20
33.58875919518208
 30
0.0
  0
SPLINE
  5
100000FF
102
{ACAD_XDICTIONARY
360
10000100
102
}
330
1F
100
AcDbEntity
  8
MODELSKETCH_VISIBLE
100
AcDbSpline
210
0.0
220
0.0
230
1.0
 70
     8
 71
     3
 72
    21
 73
    17
 74
     0
 42
0.000000001
 43
0.00000001
 40
0.0
 40
0.0
 40
0.0
 40
0.0
 40
0.0772295272688881
 40
0.1487120355677704
 40
0.2142959200628599
 40
0.2817448047696486
 40
0.3526107195137522
 40
0.4189970756875839
 40
0.4836769987351581
 40
0.5485989426299809
 40
0.6376712240177147
 40
0.7094673401278513
 40
0.7741471984617126
 40
0.8545011563984811
 40
0.899365718377206
 40
1.0
 40
1.0
 40
1.0
 40
1.0
 10
50.63230916857719
 20
-10.96608210355043
 30
0.0
 10
51.01578533897796
 20
-11.19074894120833
 30
0.0
 10
50.86499706330589
 20
-13.82359441975437
 30
0.0
 10
53.59165012871249
 20
-14.27412527711296
 30
0.0
 10
54.95656203100464
 20
-12.37165406993624
 30
0.0
 10
53.10714002147507
 20
-10.49455517932881
 30
0.0
 10
56.36368366594611
 20
-8.928411483848517
 30
0.0
 10
56.40922751985153
 20
-12.14057429753514
 30
0.0
 10
58.29383925251759
 20
-10.52118675643582
 30
0.0
 10
60.61843678448649
 20
-9.958239994215132
 30
0.0
 10
57.97481481559188
 20
-6.840160757753615
 30
0.0
 10
56.07854453915211
 20
-5.503896226229953
 30
0.0
 10
54.34307579013741
 20
-7.537723268471485
 30
0.0
 10
52.60289443996405
 20
-4.692587216390276
 30
0.0
 10
51.27602584486078
 20
-4.617310675025356
 30
0.0
 10
52.47632282637657
 20
-2.06333382700187
 30
0.0
 10
53.35474014282227
 20
-0.5217064574349487
 30
0.0
  0
SPLINE
  5
10000102
102
{ACAD_XDICTIONARY
360
10000103
102
}
330
1F
100
AcDbEntity
  8
MODELSKETCH_VISIBLE
100
AcDbSpline
210
0.0
220
0.0
230
1.0
 70
     8
 71
     3
 72
     9
 73
     5
 74
     0
 42
0.000000001
 43
0.00000001
 40
0.0
 40
0.0
 40
0.0
 40
0.0
 40
0.5432014871850599
 40
1.0
 40
1.0
 40
1.0
 40
1.0
 10
20.98195999860764
 20
-7.5915502384305
 30
0.0
 10
21.08538517510821
 20
-7.817690706140058
 30
0.0
 10
21.27578446329229
 20
-8.234001178486974
 30
0.0
 10
21.57749440579204
 20
-8.422248689624766
 30
0.0
 10
21.7153150588274
 20
-8.508239872753622
 30
0.0
  0
SPLINE
  5
10000105
102
{ACAD_XDICTIONARY
360
10000106
102
}
330
1F
100
AcDbEntity
  8
MODELSKETCH_VISIBLE
100
AcDbSpline
210
0.0
220
0.0
230
1.0
 70
     8
 71
     3
 72
    28
 73
    24
 74
     0
 42
0.000000001
 43
0.00000001
 40
0.0
 40
0.0
 40
0.0
 40
0.0
 40
0.0553868684399307
 40
0.1252242929301309
 40
0.1729921011440553
 40
0.231646363750635
 40
0.2826510958424219
 40
0.3320394532034362
 40
0.3836704049845078
 40
0.4246645392788793
 40
0.4685609625112798
 40
0.5084133568613534
 40
0.5455080243196204
 40
0.6090113060011719
 40
0.6699623522215199
 40
0.7193735534746336
 40
0.7695745493777187
 40
0.814158558232023
 40
0.8538230923272861
 40
0.9035727971160179
 40
0.95399976804101
 40
0.9919934786976891
 40
1.0
 40
1.0
 40
1.0
 40
1.0
 10
43.67055743932724
 20
-15.50525054335594
 30
0.0
 10
42.66916547515424
 20
-14.96719053935236
 30
0.0
 10
39.32123240887639
 20
-14.46853563698453
 30
0.0
 10
33.53898412887649
 20
-17.9477773625727
 30
0.0
 10
31.14192241629665
 20
-19.87755477924706
 30
0.0
 10
25.66949159757176
 20
-18.45309354701393
 30
0.0
 10
24.13173084676258
 20
-22.68475872869722
 30
0.0
 10
20.63659433022494
 20
-22.76532042909691
 30
0.0
 10
17.96578204901794
 20
-26.91257007260248
 30
0.0
 10
21.13084813395838
 20
-27.79059872406271
 30
0.0
 10
23.6553662739771
 20
-27.4044669838822
 30
0.0
 10
25.36999193889846
 20
-29.28393216167446
 30
0.0
 10
27.38912997902899
 20
-29.01414607619042
 30
0.0
 10
32.80217295170679
 20
-28.3035162157495
 30
0.0
 10
37.35893853418773
 20
-26.86490657635073
 30
0.0
 10
41.2111905590232
 20
-27.83293068672767
 30
0.0
 10
42.83584658029203
 20
-24.19844143215786
 30
0.0
 10
44.86633264561423
 20
-22.53659348870297
 30
0.0
 10
46.39989358610011
 20
-20.75833819480049
 30
0.0
 10
50.06328100481218
 20
-21.06541485470236
 30
0.0
 10
52.79695609449522
 20
-22.43828515604255
 30
0.0
 10
55.08892318784252
 20
-22.54854403173216
 30
0.0
 10
55.12942222493953
 20
-22.65244428727269
 30
0.0
 10
55.15142229799988
 20
-22.67149174387468
 30
0.0
  0
SPLINE
  5
10000108
102
{ACAD_XDICTIONARY
360
10000109
102
}
330
1F
100
AcDbEntity
  8
MODELSKETCH_VISIBLE
100
AcDbSpline
210
0.0
220
0.0
230
1.0
 70
     8
 71
     3
 72
     9
 73
     5
 74
     0
 42
0.000000001
 43
0.00000001
 40
0.0
 40
0.0
 40
0.0
 40
0.0
 40
0.513535145330353
 40
1.0
 40
1.0
 40
1.0
 40
1.0
 10
48.93519356846809
 20
-3.34588810801506
 30
0.0
 10
48.94898603925705
 20
-3.715241898473035
 30
0.0
 10
48.97584392992795
 20
-4.434479508238519
 30
0.0
 10
49.13741483492738
 20
-5.078298875882512
 30
0.0
 10
49.21601340174675
 20
-5.391494370996952
 30
0.0
  0
SPLINE
  5
1000010B
102
{ACAD_XDICTIONARY
360
1000010C
102
}
330
1F
100
AcDbEntity
  8
MODELSKETCH_VISIBLE
100
AcDbSpline
210
0.0
220
0.0
230
1.0
 70
     8
 71
     3
 72
    43
 73
    39
 74
     0
 42
0.000000001
 43
0.00000001
 40
0.0
 40
0.0
 40
0.0
 40
0.0
 40
0.028467285212634
 40
0.0609996364605197
 40
0.0959634386477053
 40
0.1296209247394852
 40
0.158074372449337
 40
0.1858996363857617
 40
0.2191591776105636
 40
0.2477578002493644
 40
0.2771127514041589
 40
0.3037374816328025
 40
0.3281781584994146
 40
0.3588238040194555
 40
0.3876252838775338
 40
0.4092398511840147
 40
0.4297300864601439
 40
0.4453306512056278
 40
0.4669868373808472
 40
0.4975010457898103
 40
0.5199801044363123
 40
0.5446828584730828
 40
0.5591716117520463
 40
0.5823060944882811
 40
0.6076836086960178
 40
0.6394435210257245
 40
0.668378344703495
 40
0.6960840276648413
 40
0.7260257512198175
 40
0.750999192607192
 40
0.7806120255142828
 40
0.8152249005593424
 40
0.8484809221603001
 40
0.8772824013599324
 40
0.9075425179698275
 40
0.9394729952249659
 40
0.9759971000878815
 40
1.0
 40
1.0
 40
1.0
 40
1.0
 10
41.80560633540154
 20
53.97145822644234
 30
0.0
 10
41.36147887337355
 20
53.688604708432
 30
0.0
 10
40.414549253808
 20
53.08552924676325
 30
0.0
 10
38.6912495822845
 20
51.6468863291767
 30
0.0
 10
36.17692536466436
 20
51.72117657037292
 30
0.0
 10
33.86842498937083
 20
51.7957971590093
 30
0.0
 10
32.41994357367544
 20
50.34987584979474
 30
0.0
 10
30.98755205566453
 20
51.6437463509462
 30
0.0
 10
28.58790237282033
 20
51.1224827869906
 30
0.0
 10
27.49906033620831
 20
49.91751953259698
 30
0.0
 10
26.07593595248162
 20
48.79832576650026
 30
0.0
 10
25.46988993650607
 20
47.5668004964792
 30
0.0
 10
24.88918337856083
 20
46.04321439851525
 30
0.0
 10
27.11639691743008
 20
45.49361611763976
 30
0.0
 10
28.07457095733907
 20
44.15024553785543
 30
0.0
 10
28.8833541001676
 20
43.58320531096717
 30
0.0
 10
29.02715164469678
 20
42.64029428469631
 30
0.0
 10
28.88358021617274
 20
42.15600739307382
 30
0.0
 10
28.61869957341811
 20
41.20084807010688
 30
0.0
 10
29.52224628680857
 20
39.31835872649555
 30
0.0
 10
28.55724604841403
 20
38.54578120706685
 30
0.0
 10
29.01435583284753
 20
37.19778088993977
 30
0.0
 10
29.04145943652138
 20
36.81902589978415
 30
0.0
 10
29.47313819448469
 20
35.69453162836144
 30
0.0
 10
30.40960687777062
 20
34.85448015544635
 30
0.0
 10
32.15085182312784
 20
33.75488778214113
 30
0.0
 10
33.18431905214567
 20
32.39356055661873
 30
0.0
 10
34.57394339930858
 20
31.6665899193496
 30
0.0
 10
35.84512135298721
 20
30.32145089434374
 30
0.0
 10
37.08785730430574
 20
29.80374069658862
 30
0.0
 10
38.90490755552383
 20
30.14595827162423
 30
0.0
 10
41.27542482078532
 20
29.55776217003629
 30
0.0
 10
43.43785860755433
 20
30.51491913838882
 30
0.0
 10
44.62920795252887
 20
31.71139139554333
 30
0.0
 10
45.66417378557059
 20
33.35746639997075
 30
0.0
 10
47.42191514619313
 20
34.38923376596913
 30
0.0
 10
50.28065563939332
 20
34.6506534871189
 30
0.0
 10
50.69350559066138
 20
35.52269235004417
 30
0.0
 10
51.05746537446976
 20
35.65489500761032
 30
0.0
  0
SPLINE
  5
1000010E
102
{ACAD_XDICTIONARY
360
1000010F
102
}
330
1F
100
AcDbEntity
  8
MODELSKETCH_VISIBLE
100
AcDbSpline
210
0.0
220
0.0
230
1.0
 70
     8
 71
     3
 72
     9
 73
     5
 74
     0
 42
0.000000001
 43
0.00000001
 40
0.0
 40
0.0
 40
0.0
 40
0.0
 40
0.4864744663300609
 40
1.0
 40
1.0
 40
1.0
 40
1.0
 10
48.48266020417213
 20
-9.363817982375622
 30
0.0
 10
48.83539508221291
 20
-9.588172850671995
 30
0.0
 10
49.56047913585663
 20
-10.04935814162651
 30
0.0
 10
50.26864692614269
 20
-10.65504594902087
 30
0.0
 10
50.63230916857719
 20
-10.96608210355043
 30
0.0
  0
SPLINE
  5
10000111
102
{ACAD_XDICTIONARY
360
10000112
102
}
330
1F
100
AcDbEntity
  8
MODELSKETCH_VISIBLE
100
AcDbSpline
210
0.0
220
0.0
230
1.0
 70
     8
 71
     3
 72
    50
 73
    46
 74
     0
 42
0.000000001
 43
0.00000001
 40
0.0
 40
0.0
 40
0.0
 40
0.0
 40
0.0265797627298961
 40
0.0508247002554704
 40
0.0704636836370228
 40
0.0882716341674045
 40
0.1093516874951614
 40
0.1338845928830848
 40
0.1587870498675575
 40
0.1890387306836845
 40
0.2093286886248911
 40
0.2349847406459996
 40
0.2587954919141291
 40
0.2831622213337893
 40
0.3040067183448845
 40
0.3269212861386815
 40
0.3543337832874811
 40
0.3762971302491324
 40
0.4017723080213657
 40
0.4315962292894697
 40
0.4562315772335323
 40
0.4750753121617887
 40
0.5002521266858537
 40
0.525537124925409
 40
0.547305319481693
 40
0.5722683685949712
 40
0.5922122658284804
 40
0.6114923689373714
 40
0.6309624411170205
 40
0.6478059674932752
 40
0.6692859219405722
 40
0.6897783251570526
 40
0.7137388102775777
 40
0.7396505357242812
 40
0.7616352538996067
 40
0.7833213502859929
 40
0.8015731117898215
 40
0.822032818973572
 40
0.8388514365567741
 40
0.8610513899191966
 40
0.8892534605632447
 40
0.9146301169653276
 40
0.9466031881715835
 40
0.968822847619192
 40
1.0
 40
1.0
 40
1.0
 40
1.0
 10
49.7683584690094
 20
33.09968858957291
 30
0.0
 10
49.12636081943401
 20
32.11937535019323
 30
0.0
 10
47.8987600151693
 20
30.24486175674042
 30
0.0
 10
47.34246801286668
 20
27.0450258158534
 30
0.0
 10
49.01671107726741
 20
25.65715229464922
 30
0.0
 10
50.85353524069066
 20
25.24697931873716
 30
0.0
 10
52.23676406609916
 20
27.46852021330326
 30
0.0
 10
55.48819051739936
 20
27.27818155565806
 30
0.0
 10
58.22641143876728
 20
28.72740166010592
 30
0.0
 10
61.1724880199484
 20
31.69703543910135
 30
0.0
 10
65.17934130778066
 20
32.10183088761076
 30
0.0
 10
60.50029267065031
 20
30.07672600600515
 30
0.0
 10
59.32805225545379
 20
28.02778688194662
 30
0.0
 10
56.48741211371491
 20
26.36854028425594
 30
0.0
 10
54.16375136909144
 20
26.9911280530049
 30
0.0
 10
52.10903375854225
 20
24.89733481271466
 30
0.0
 10
51.57687184922408
 20
20.72017217747272
 30
0.0
 10
54.14180406987683
 20
19.43039914308056
 30
0.0
 10
57.07068605015667
 20
18.6048868501361
 30
0.0
 10
61.77217035794719
 20
17.93573536602533
 30
0.0
 10
62.82282855821557
 20
14.86011487050628
 30
0.0
 10
64.32465756329593
 20
13.06106128173397
 30
0.0
 10
67.49287666257149
 20
15.5678171774426
 30
0.0
 10
69.94947870620305
 20
13.62620986428906
 30
0.0
 10
74.3310489510655
 20
14.64029126113991
 30
0.0
 10
69.45118855208968
 20
13.10127693215187
 30
0.0
 10
67.9853345899565
 20
13.85975386427308
 30
0.0
 10
65.82926095681682
 20
13.75772378636824
 30
0.0
 10
64.771879148384
 20
11.98997138965849
 30
0.0
 10
65.01509900534387
 20
10.15563136262872
 30
0.0
 10
67.60140775602127
 20
10.17150536078418
 30
0.0
 10
68.6778638515924
 20
6.343304621543848
 30
0.0
 10
65.6249254709019
 20
9.948945731850834
 30
0.0
 10
62.32640896916607
 20
9.20489916485429
 30
0.0
 10
60.19388157752773
 20
7.39396530822475
 30
0.0
 10
60.81309705978884
 20
5.212034556856941
 30
0.0
 10
61.82815339665965
 20
2.477724396682476
 30
0.0
 10
59.92054333694512
 20
5.125957351919252
 30
0.0
 10
58.700844288443
 20
5.886852560440824
 30
0.0
 10
61.24955935065559
 20
9.475328904725009
 30
0.0
 10
55.57007019823321
 20
8.106008659932483
 30
0.0
 10
52.73655093452684
 20
9.435572447465177
 30
0.0
 10
48.92356448113757
 20
5.150939206828457
 30
0.0
 10
48.08679196839721
 20
2.27217324106251
 30
0.0
 10
50.89812120747645
 20
0.5992335350378408
 30
0.0
 10
52.53959074616432
 20
-0.377556920284405
 30
0.0
  0
SPLINE
  5
10000114
102
{ACAD_XDICTIONARY
360
10000115
102
}
330
1F
100
AcDbEntity
  8
MODELSKETCH_VISIBLE
100
AcDbSpline
210
0.0
220
0.0
230
1.0
 70
     8
 71
     3
 72
     9
 73
     5
 74
     0
 42
0.000000001
 43
0.00000001
 40
0.0
 40
0.0
 40
0.0
 40
0.0
 40
0.5754200406110865
 40
1.0
 40
1.0
 40
1.0
 40
1.0
 10
43.67055743932724
 20
-15.50525054335594
 30
0.0
 10
44.15332931075378
 20
-15.83433665489763
 30
0.0
 10
44.9923196784056
 20
-16.40624254679567
 30
0.0
 10
45.42952353069433
 20
-16.88097217958069
 30
0.0
 10
45.61515152454377
 20
-17.08253286778927
 30
0.0
  0
SPLINE
  5
10000117
102
{ACAD_XDICTIONARY
360
10000118
102
}
330
1F
100
AcDbEntity
  8
MODELSKETCH_VISIBLE
100
AcDbSpline
210
0.0
220
0.0
230
1.0
 70
     8
 71
     3
 72
    19
 73
    15
 74
     0
 42
0.000000001
 43
0.00000001
 40
0.0
 40
0.0
 40
0.0
 40
0.0
 40
0.0766418602920368
 40
0.1389759163564017
 40
0.2113655427369899
 40
0.2820703057252936
 40
0.3483398404390873
 40
0.3645192519874053
 40
0.456072345138211
 40
0.5522127299516771
 40
0.6788538394822499
 40
0.7858008943270951
 40
0.8673677736182627
 40
1.0
 40
1.0
 40
1.0
 40
1.0
 10
53.35474014282227
 20
-0.5217064574349489
 30
0.0
 10
53.9331701460731
 20
-1.029783340738382
 30
0.0
 10
54.93651286651984
 20
-2.460669840061303
 30
0.0
 10
55.844749121906
 20
-4.150506658386737
 30
0.0
 10
58.38294739756434
 20
-3.55010787539912
 30
0.0
 10
60.31827457973989
 20
-4.023819739465663
 30
0.0
 10
62.0654474048354
 20
-2.587252649960631
 30
0.0
 10
62.0633560352564
 20
-2.487675013342253
 30
0.0
 10
65.38745338718861
 20
-0.0147466184466188
 30
0.0
 10
68.65747753684529
 20
1.352489483333799
 30
0.0
 10
75.6904332318969
 20
0.4719076390538424
 30
0.0
 10
80.2306695962777
 20
-2.294454280368964
 30
0.0
 10
83.35228729882226
 20
0.0576975301059054
 30
0.0
 10
86.35173081191246
 20
0.2101464120052599
 30
0.0
 10
90.56203674019898
 20
-0.5217064574349444
 30
0.0
  0
LINE
  5
1000011A
102
{ACAD_XDICTIONARY
360
1000011B
102
}
330
1F
100
AcDbEntity
  8
MODELSKETCH_VISIBLE
100
AcDbLine
 10
19.08746920526028
 20
-12.23611272871494
 30
0.0
 11
17.68187619745731
 21
-12.23611272871494
 31
0.0
  0
LINE
  5
1000011D
102
{ACAD_XDICTIONARY
360
1000011E
102
}
330
1F
100
AcDbEntity
  8
MODELSKETCH_VISIBLE
100
AcDbLine
 10
52.53959074616432
 20
-0.3775569202844054
 30
0.0
 11
53.35474014282227
 21
-0.5217064574349489
 31
0.0
  0
SPLINE
  5
10000120
102
{ACAD_XDICTIONARY
360
10000121
102
}
330
1F
100
AcDbEntity
  8
MODELSKETCH_VISIBLE
100
AcDbSpline
210
0.0
220
0.0
230
1.0
 70
     8
 71
     3
 72
   111
 73
   107
 74
     0
 42
0.000000001
 43
0.00000001
 40
0.0
 40
0.0
 40
0.0
 40
0.0
 40
0.0095745434266439
 40
0.0195190455218109
 40
0.0270869128898158
 40
0.0352267734277901
 40
0.0447330470626949
 40
0.0559358645928471
 40
0.0651947287042544
 40
0.0742703071549637
 40
0.0837275166161009
 40
0.0935490831684027
 40
0.1027091621160536
 40
0.1127425365243232
 40
0.1211988696624803
 40
0.1310411145258794
 40
0.1383865443375405
 40
0.1478256617480115
 40
0.1582787782824896
 40
0.167874253341705
 40
0.1768097518187165
 40
0.186885146567172
 40
0.1948140325644871
 40
0.2032849670641216
 40
0.2111038975080147
 40
0.2232839073731755
 40
0.2328578926104823
 40
0.2414804427519404
 40
0.2499480354435578
 40
0.2579272465573979
 40
0.2670005841400236
 40
0.2732748755326872
 40
0.2826851847002762
 40
0.291307669734189
 40
0.3005973525859053
 40
0.3102578078696822
 40
0.3200820782745533
 40
0.3287921418657348
 40
0.3373079673419879
 40
0.3486392424525581
 40
0.360671825224751
 40
0.3706742832788513
 40
0.382235129950058
 40
0.3916850909157148
 40
0.4005935014324881
 40
0.408015504126297
 40
0.4169686241209766
 40
0.425322405670068
 40
0.4358172373818772
 40
0.4471974953351692
 40
0.4565163862315119
 40
0.4672256500880022
 40
0.4833820128529601
 40
0.4969857656582068
 40
0.5092112117882623
 40
0.5194413807752546
 40
0.5289942589907126
 40
0.5429774690421083
 40
0.5548338750076763
 40
0.5614613711908495
 40
0.5692374403331623
 40
0.5799222091972168
 40
0.5895231604996058
 40
0.5969205317293571
 40
0.6065249544381671
 40
0.6162152518722189
 40
0.6225272334525483
 40
0.6315818723347164
 40
0.6409439572259018
 40
0.6510872910652544
 40
0.6628571227984982
 40
0.6721348151275635
 40
0.6851243461416285
 40
0.6956546310529308
 40
0.7071176997671657
 40
0.7159508097239248
 40
0.7229045808701805
 40
0.7307977992031315
 40
0.7368519839573677
 40
0.7466213918653148
 40
0.7577914685191552
 40
0.7688305260024699
 40
0.7798276259765224
 40
0.7884237809289646
 40
0.7966405782842175
 40
0.8072014428881538
 40
0.8164994285502347
 40
0.8247362978373378
 40
0.83505452459491
 40
0.8431808714236874
 40
0.8518844071632568
 40
0.8633245031072312
 40
0.8736597316922956
 40
0.8855659346383439
 40
0.8955081148143995
 40
0.904806673517982
 40
0.9131693341304917
 40
0.921541777192782
 40
0.9300466097518473
 40
0.9403516491457213
 40
0.9524369107569158
 40
0.9632248225889031
 40
0.9709123410098586
 40
0.979730041982289
 40
0.9880742374704504
 40
1.0
 40
1.0
 40
1.0
 40
1.0
 10
90.56203674019898
 20
-0.5217064574349444
 30
0.0
 10
91.38580922995597
 20
-0.2309539733381138
 30
0.0
 10
93.06518463311485
 20
0.3617856195361203
 30
0.0
 10
95.77954175416741
 20
1.508645516488083
 30
0.0
 10
97.04044343978008
 20
2.850565870112698
 30
0.0
 10
98.65298871859146
 20
3.312332563654915
 30
0.0
 10
103.517875304634
 20
3.019127410281381
 30
0.0
 10
97.46538386320641
 20
2.282519703859012
 30
0.0
 10
96.14643670606986
 20
0.5623858437590794
 30
0.0
 10
94.00017775893194
 20
-1.049128712503
 30
0.0
 10
91.34700590592512
 20
-1.122948226634782
 30
0.0
 10
88.4867791610966
 20
-1.461853936645254
 30
0.0
 10
86.0739221583673
 20
-0.9048568046369208
 30
0.0
 10
83.08659122776953
 20
-2.137851949017088
 30
0.0
 10
81.86297452668917
 20
-3.719111356727169
 30
0.0
 10
79.15678485289494
 20
-5.22556957566229
 30
0.0
 10
79.05550558399824
 20
-7.197245892861426
 30
0.0
 10
81.02916119417871
 20
-9.205363163856052
 30
0.0
 10
83.90544080792581
 20
-10.4621150117345
 30
0.0
 10
86.19866974809779
 20
-11.95266824985999
 30
0.0
 10
87.77773087091019
 20
-13.93006625059437
 30
0.0
 10
90.98287074534835
 20
-13.72421085698898
 30
0.0
 10
92.83573958846482
 20
-13.99645722316392
 30
0.0
 10
94.60116112252184
 20
-12.12850009083543
 30
0.0
 10
96.56004201907511
 20
-13.1801412016292
 30
0.0
 10
100.258105888597
 20
-10.60596636092733
 30
0.0
 10
102.924097049966
 20
-9.199450504756998
 30
0.0
 10
101.9462984760513
 20
-6.601757800128786
 30
0.0
 10
100.6078461612882
 20
-5.198880330718171
 30
0.0
 10
98.64232260526202
 20
-3.785026099918881
 30
0.0
 10
101.5665753998816
 20
-0.855256956165359
 30
0.0
 10
100.2306338909061
 20
-3.06022463609815
 30
0.0
 10
101.8663068760809
 20
-5.294220032258806
 30
0.0
 10
104.0392903694104
 20
-6.131943539124758
 30
0.0
 10
103.6610821816274
 20
-9.839062778581148
 30
0.0
 10
107.4015587683848
 20
-8.606203196032304
 30
0.0
 10
108.9521397359705
 20
-6.474221118789754
 30
0.0
 10
110.501641615848
 20
-4.672334025105235
 30
0.0
 10
112.8002972322187
 20
-4.095332844898143
 30
0.0
 10
116.3988772968043
 20
-5.243905440031654
 30
0.0
 10
120.8595145692124
 20
-4.672114116438488
 30
0.0
 10
122.9343512911451
 20
-2.456420416163213
 30
0.0
 10
127.0793192141527
 20
-1.842467759847352
 30
0.0
 10
129.5405796671955
 20
-2.177674470903904
 30
0.0
 10
132.0773944411936
 20
-2.195021931272787
 30
0.0
 10
133.3920923015331
 20
-1.093501378397064
 30
0.0
 10
135.9276098395092
 20
-1.20850925322141
 30
0.0
 10
137.74238316099
 20
0.2088208370382295
 30
0.0
 10
138.3063074433445
 20
3.569639941228881
 30
0.0
 10
136.7529727484991
 20
7.391405797194235
 30
0.0
 10
134.2938357922614
 20
8.260090050501592
 30
0.0
 10
131.9705699587757
 20
12.73632750925714
 30
0.0
 10
140.5104780374999
 20
15.9868879089452
 30
0.0
 10
145.3264457974912
 20
16.74290059492624
 30
0.0
 10
149.9960035553161
 20
16.10418161296604
 30
0.0
 10
152.6069315087068
 20
14.15122610911948
 30
0.0
 10
155.4857376015954
 20
13.78251089058719
 30
0.0
 10
160.8035113989438
 20
16.06187085970789
 30
0.0
 10
163.5598850917905
 20
19.27785404636804
 30
0.0
 10
163.4686723616122
 20
21.20968639395604
 30
0.0
 10
161.1229904522507
 20
21.11931711341513
 30
0.0
 10
158.6984281371635
 20
19.78100498802878
 30
0.0
 10
154.9812085213485
 20
17.99915455217302
 30
0.0
 10
156.8302435020996
 20
20.3379489066741
 30
0.0
 10
158.8915626811807
 20
21.60846429536961
 30
0.0
 10
161.7517897594294
 20
21.65608134166425
 30
0.0
 10
163.0399830761108
 20
22.58440117418225
 30
0.0
 10
161.5185857021549
 20
25.56276390245793
 30
0.0
 10
158.730535777936
 20
24.2173675020946
 30
0.0
 10
155.6117726422076
 20
25.3599293429037
 30
0.0
 10
153.6967712259224
 20
29.05618845993315
 30
0.0
 10
150.6920827357911
 20
30.4706296143722
 30
0.0
 10
147.1928214106652
 20
25.86946052698382
 30
0.0
 10
143.5805204084889
 20
26.44226701075939
 30
0.0
 10
140.4729827492226
 20
29.14967992111483
 30
0.0
 10
140.3955877200948
 20
31.68250915380308
 30
0.0
 10
138.9489913701107
 20
32.61130084128443
 30
0.0
 10
137.2538425455029
 20
32.43001835601413
 30
0.0
 10
135.5404772168784
 20
34.26399801761432
 30
0.0
 10
140.5687358592414
 20
31.83043731710242
 30
0.0
 10
138.6440488925835
 20
37.2181970039138
 30
0.0
 10
139.4733714770412
 20
40.28727005774816
 30
0.0
 10
140.6301593221133
 20
43.60740811189859
 30
0.0
 10
143.424613663401
 20
45.34226554944046
 30
0.0
 10
140.4020883533719
 20
46.195537709783
 30
0.0
 10
139.6401015412786
 20
49.58873413564593
 30
0.0
 10
136.6251539441448
 20
50.24195303526969
 30
0.0
 10
134.8530248175327
 20
49.18436427235925
 30
0.0
 10
131.7005330731717
 20
49.75830838984727
 30
0.0
 10
129.6064747477733
 20
50.87701248816871
 30
0.0
 10
130.68167745211
 20
53.5511762432478
 30
0.0
 10
126.6930692850107
 20
56.41558305076853
 30
0.0
 10
123.974035928823
 20
54.40956526078125
 30
0.0
 10
119.7744114989702
 20
53.16153500815536
 30
0.0
 10
117.0920206730983
 20
54.40755070312693
 30
0.0
 10
114.5615298353906
 20
55.38869909003373
 30
0.0
 10
113.6491020971006
 20
57.25152891671605
 30
0.0
 10
112.7206303439348
 20
59.56601320612734
 30
0.0
 10
110.1966226931956
 20
58.7749971270961
 30
0.0
 10
107.4322044879228
 20
57.56002512821982
 30
0.0
 10
103.1814772953627
 20
57.40403508827956
 30
0.0
 10
99.85217646375938
 20
56.53542270986254
 30
0.0
 10
98.11534338258734
 20
55.7882914126553
 30
0.0
 10
97.22789767674399
 20
53.51348269768343
 30
0.0
 10
96.14763252719763
 20
51.48720616083001
 30
0.0
 10
93.42091157342098
 20
51.32092369509919
 30
0.0
 10
91.81665434947043
 20
51.22309195823021
 30
0.0
  0
SPLINE
  5
10000123
102
{ACAD_XDICTIONARY
360
10000124
102
}
330
1F
100
AcDbEntity
  8
MODELSKETCH_VISIBLE
100
AcDbSpline
210
0.0
220
0.0
230
1.0
 70
     8
 71
     3
 72
    19
 73
    15
 74
     0
 42
0.000000001
 43
0.00000001
 40
0.0
 40
0.0
 40
0.0
 40
0.0
 40
0.0995416690023061
 40
0.1993336700461221
 40
0.2786044817078496
 40
0.3658028854575617
 40
0.4649617950474522
 40
0.5294879680270241
 40
0.6124922363578273
 40
0.6973284710207919
 40
0.780397232664043
 40
0.8560020057373668
 40
0.9479214160939793
 40
1.0
 40
1.0
 40
1.0
 40
1.0
 10
20.98195999860764
 20
-7.5915502384305
 30
0.0
 10
21.54228934977394
 20
-6.214339250068055
 30
0.0
 10
21.61812579402312
 20
-4.043442543442594
 30
0.0
 10
25.35208406103029
 20
-2.041541200974121
 30
0.0
 10
27.74743531130798
 20
-2.535973592503837
 30
0.0
 10
29.90574768696907
 20
-4.304911276178212
 30
0.0
 10
33.66094400427376
 20
-4.503855088557809
 30
0.0
 10
35.106814725437
 20
-4.216414593773454
 30
0.0
 10
37.29600464230506
 20
-8.411688822177144
 30
0.0
 10
34.92706264482874
 20
-3.598003523013717
 30
0.0
 10
38.27762731472434
 20
-3.142768437815196
 30
0.0
 10
39.7106117529381
 20
-1.816696742516273
 30
0.0
 10
43.03268448513877
 20
-2.32383990634116
 30
0.0
 10
43.62901496270194
 20
-2.792368844125036
 30
0.0
 10
43.84468495845795
 20
-2.96181789599359
 30
0.0
  0
SPLINE
  5
10000126
102
{ACAD_XDICTIONARY
360
10000127
102
}
330
1F
100
AcDbEntity
  8
MODELSKETCH_VISIBLE
100
AcDbSpline
210
0.0
220
0.0
230
1.0
 70
     8
 71
     3
 72
     9
 73
     5
 74
     0
 42
0.000000001
 43
0.00000001
 40
0.0
 40
0.0
 40
0.0
 40
0.0
 40
0.4734210403303262
 40
1.0
 40
1.0
 40
1.0
 40
1.0
 10
50.54101347923279
 20
-3.502608509734273
 30
0.0
 10
50.66676833909427
 20
-3.70772782304669
 30
0.0
 10
50.93239840017846
 20
-4.140998201501557
 30
0.0
 10
51.50011745532269
 20
-4.309138857346578
 30
0.0
 10
51.79906636476517
 20
-4.397678188979626
 30
0.0
  0
SPLINE
  5
10000129
102
{ACAD_XDICTIONARY
360
1000012A
102
}
330
1F
100
AcDbEntity
  8
MODELSKETCH_VISIBLE
100
AcDbSpline
210
0.0
220
0.0
230
1.0
 70
     8
 71
     3
 72
    37
 73
    33
 74
     0
 42
0.000000001
 43
0.00000001
 40
0.0
 40
0.0
 40
0.0
 40
0.0
 40
0.0286029976309407
 40
0.064842090489457
 40
0.0906787627218822
 40
0.1171954948816645
 40
0.1430434421825189
 40
0.1815778148578603
 40
0.2026626011211279
 40
0.2269026676866051
 40
0.2528180189809281
 40
0.2854050205534646
 40
0.3172290438754928
 40
0.3484138971359096
 40
0.3826809120950027
 40
0.426333545402895
 40
0.4526045406650663
 40
0.4888833536365046
 40
0.529844239551523
 40
0.562321908307917
 40
0.5987817765138432
 40
0.6353854272077925
 40
0.6741551130092992
 40
0.6965867925593876
 40
0.7271041666506589
 40
0.7665638347786148
 40
0.8077636329630347
 40
0.8509058557976749
 40
0.8959758815686091
 40
0.9417118356062618
 40
0.9729316014487102
 40
1.0
 40
1.0
 40
1.0
 40
1.0
 10
93.42091157342098
 20
51.32092369509919
 30
0.0
 10
92.844436935287
 20
51.3273275488754
 30
0.0
 10
91.53762027677277
 20
51.34183624431782
 30
0.0
 10
90.79678000922495
 20
48.41724057096835
 30
0.0
 10
89.44586695855936
 20
47.96666760625894
 30
0.0
 10
87.88972614389414
 20
47.88865654684502
 30
0.0
 10
86.91621847965172
 20
48.84555701355394
 30
0.0
 10
83.38313628807342
 20
47.53881205100995
 30
0.0
 10
83.74100910777008
 20
49.22822257749536
 30
0.0
 10
82.30142407748299
 20
49.3351707314021
 30
0.0
 10
81.17210774788069
 20
50.19451940478092
 30
0.0
 10
81.00647041422154
 20
52.54948974047949
 30
0.0
 10
79.11772099531021
 20
53.47878651664215
 30
0.0
 10
77.54902848549288
 20
55.04922868010956
 30
0.0
 10
78.08880302480554
 20
57.26044136635015
 30
0.0
 10
79.48345762910657
 20
61.51306867658798
 30
0.0
 10
77.34865045394417
 20
61.52461244594404
 30
0.0
 10
75.45716017679749
 20
63.31004053583244
 30
0.0
 10
72.62602432900785
 20
64.97469296723321
 30
0.0
 10
70.72716724595728
 20
66.07014120603611
 30
0.0
 10
67.94566194303387
 20
65.3009350695715
 30
0.0
 10
65.48689518546557
 20
65.70242940194915
 30
0.0
 10
62.41867622504496
 20
64.52846817867012
 30
0.0
 10
62.05084295252368
 20
63.49246838932254
 30
0.0
 10
60.51923496347273
 20
62.22414469507159
 30
0.0
 10
59.00515792898115
 20
59.49181046639084
 30
0.0
 10
55.65827443258327
 20
58.08383769393796
 30
0.0
 10
51.95396341788035
 20
58.75511936730258
 30
0.0
 10
47.95921557801253
 20
58.56562227534972
 30
0.0
 10
44.25382527495433
 20
56.43317495763007
 30
0.0
 10
42.86981920052369
 20
55.05251947317165
 30
0.0
 10
42.14308737674904
 20
54.31428219264647
 30
0.0
 10
41.80560633540154
 20
53.97145822644234
 30
0.0
  0
SPLINE
  5
1000012C
102
{ACAD_XDICTIONARY
360
1000012D
102
}
330
1F
100
AcDbEntity
  8
MODELSKETCH_VISIBLE
100
AcDbSpline
210
0.0
220
0.0
230
1.0
 70
     8
 71
     3
 72
    25
 73
    21
 74
     0
 42
0.000000001
 43
0.00000001
 40
0.0
 40
0.0
 40
0.0
 40
0.0
 40
0.0422977732351208
 40
0.0886887878826318
 40
0.1456150048723079
 40
0.2013615324588298
 40
0.2554905418192688
 40
0.3125283188392559
 40
0.368820999367939
 40
0.4229301276694029
 40
0.4893499116802352
 40
0.5518996034408028
 40
0.6074999754822886
 40
0.6681982789170017
 40
0.7260346188258651
 40
0.7939478161907808
 40
0.8418898614216371
 40
0.8906421548349325
 40
0.9498621196188943
 40
1.0
 40
1.0
 40
1.0
 40
1.0
 10
19.08746920526028
 20
-12.23611272871494
 30
0.0
 10
18.95960044404659
 20
-12.76465230485198
 30
0.0
 10
19.30670384941642
 20
-13.31223875569302
 30
0.0
 10
20.61539042344511
 20
-14.56626938187039
 30
0.0
 10
22.30050057374255
 20
-12.83546600673827
 30
0.0
 10
23.79112145136552
 20
-11.51761923242268
 30
0.0
 10
25.93066080434047
 20
-11.98988196900217
 30
0.0
 10
27.15828806360376
 20
-13.69216136929037
 30
0.0
 10
28.3308887622237
 20
-15.41221398549939
 30
0.0
 10
27.87416699044574
 20
-17.66360257782894
 30
0.0
 10
24.96059697915314
 20
-18.49941276715838
 30
0.0
 10
22.98105011657314
 20
-19.74536185794063
 30
0.0
 10
20.24035165095553
 20
-19.42015489012509
 30
0.0
 10
21.11767129419662
 20
-16.01855255139197
 30
0.0
 10
18.22373167024096
 20
-16.41695160515813
 30
0.0
 10
15.75691195496528
 20
-15.1681331517147
 30
0.0
 10
13.7071302803271
 20
-15.97226755566109
 30
0.0
 10
14.12043741645149
 20
-13.69661760082771
 30
0.0
 10
16.17712636104678
 20
-12.53082122261451
 30
0.0
 10
17.11812042696523
 20
-12.61505910307845
 30
0.0
 10
17.68187619745731
 20
-12.23611272871494
 30
0.0
  0
LINE
  5
1000012F
102
{ACAD_XDICTIONARY
360
10000130
102
}
330
1F
100
AcDbEntity
  8
MODELSKETCH_VISIBLE
100
AcDbLine
 10
65.61034897405774
 20
-31.71022725689997
 30
0.0
 11
65.5897901305004
 21
-32.46202319845955
 31
0.0
  0
SPLINE
  5
10000132
102
{ACAD_XDICTIONARY
360
10000133
102
}
330
1F
100
AcDbEntity
  8
MODELSKETCH_VISIBLE
100
AcDbSpline
210
0.0
220
0.0
230
1.0
 70
     8
 71
     3
 72
     8
 73
     4
 74
     0
 42
0.000000001
 43
0.00000001
 40
0.0
 40
0.0
 40
0.0
 40
0.0
 40
1.0
 40
1.0
 40
1.0
 40
1.0
 10
56.72823671187025
 20
36.7906176454859
 30
0.0
 10
56.65325389066044
 20
36.78814173375292
 30
0.0
 10
56.62532867381493
 20
36.75298438128733
 30
0.0
 10
56.6483756054959
 20
36.69404536671041
 30
0.0
  0
SPLINE
  5
10000135
102
{ACAD_XDICTIONARY
360
10000136
102
}
330
1F
100
AcDbEntity
  8
MODELSKETCH_VISIBLE
100
AcDbSpline
210
0.0
220
0.0
230
1.0
 70
     8
 71
     3
 72
    24
 73
    20
 74
     0
 42
0.000000001
 43
0.00000001
 40
0.0
 40
0.0
 40
0.0
 40
0.0
 40
0.0564657977086998
 40
0.1069360892040098
 40
0.1624886950283611
 40
0.2192973092417201
 40
0.2786722923232687
 40
0.336898552014841
 40
0.4115066408950683
 40
0.4622531160883739
 40
0.5161769297236684
 40
0.5747367992877278
 40
0.6544690726083192
 40
0.7042038280268875
 40
0.7706837182642116
 40
0.8524244338912169
 40
0.9199803435857693
 40
0.9888738997686264
 40
1.0
 40
1.0
 40
1.0
 40
1.0
 10
130.8859884738922
 20
-19.08602565526962
 30
0.0
 10
130.3324147984426
 20
-18.91033775430278
 30
0.0
 10
129.2130394803325
 20
-20.3539002327881
 30
0.0
 10
127.7627953671639
 20
-20.74160432213665
 30
0.0
 10
125.7431125520898
 20
-20.70479117568094
 30
0.0
 10
123.976641260234
 20
-19.97172702530816
 30
0.0
 10
121.3648218898989
 20
-20.21393198783891
 30
0.0
 10
120.9308375965209
 20
-22.55835071435579
 30
0.0
 10
118.0184305097448
 20
-24.52097462321371
 30
0.0
 10
117.2321427445498
 20
-26.20469172385768
 30
0.0
 10
115.0369478109576
 20
-25.54832365486573
 30
0.0
 10
113.3821028437433
 20
-26.70660479748487
 30
0.0
 10
108.9205457649667
 20
-26.68134178698281
 30
0.0
 10
108.4859904650945
 20
-24.63815515061762
 30
0.0
 10
105.3148078947323
 20
-24.73794334585753
 30
0.0
 10
101.4582942862463
 20
-25.54973178083521
 30
0.0
 10
98.76571180743107
 20
-26.57488666609351
 30
0.0
 10
96.30019167207806
 20
-24.07493191492301
 30
0.0
 10
96.23029585176319
 20
-24.07426577461579
 30
0.0
 10
96.2083279034578
 20
-24.06163579474304
 30
0.0
  0
ENDSEC
  0
SECTION
  2
OBJECTS
  0
DICTIONARY
  5
C
330
0
100
AcDbDictionary
  3
ACAD_GROUP
350
D
  3
ACAD_LAYOUT
350
1A
  3
ACAD_MATERIAL
350
43
  3
ACAD_MLEADERSTYLE
350
6B
  3
ACAD_MLINESTYLE
350
17
  3
ACAD_PLOTSETTINGS
350
19
  3
ACAD_SCALELIST
350
47
  3
ACAD_VISUALSTYLE
350
2A
  3
ACDBHEADERROUNDTRIPXREC
350
1000013A
  3
ACDBVARIABLEDICTIONARY
350
1000015B
  3
DWGPROPS
350
10000166
  3
ONSHAPE_DATA
350
10000001
  0
DICTIONARY
  5
10000167
330
8
100
AcDbDictionary
280
     1
  3
ACAD_XREC_ROUNDTRIP
360
10000168
  0
DICTIONARY
  5
10000138
330
1F
100
AcDbDictionary
280
     1
  3
ACAD_SORTENTS
360
10000139
  0
DICTIONARY
  5
10000052
330
10000051
100
AcDbDictionary
280
     1
  3
BTDETID
360
10000053
  0
DICTIONARY
  5
10000055
330
10000054
100
AcDbDictionary
280
     1
  3
BTDETID
360
10000056
  0
DICTIONARY
  5
10000058
330
10000057
100
AcDbDictionary
280
     1
  3
BTDETID
360
10000059
  0
DICTIONARY
  5
1000005B
330
1000005A
100
AcDbDictionary
280
     1
  3
BTDETID
360
1000005C
  0
DICTIONARY
  5
1000005E
330
1000005D
100
AcDbDictionary
280
     1
  3
BTDETID
360
1000005F
  0
DICTIONARY
  5
10000061
330
10000060
100
AcDbDictionary
280
     1
  3
BTDETID
360
10000062
  0
DICTIONARY
  5
10000064
330
10000063
100
AcDbDictionary
280
     1
  3
BTDETID
360
10000065
  0
DICTIONARY
  5
10000067
330
10000066
100
AcDbDictionary
280
     1
  3
BTDETID
360
10000068
  0
DICTIONARY
  5
1000006A
330
10000069
100
AcDbDictionary
280
     1
  3
BTDETID
360
1000006B
  0
DICTIONARY
  5
1000006D
330
1000006C
100
AcDbDictionary
280
     1
  3
BTDETID
360
1000006E
  0
DICTIONARY
  5
10000070
330
1000006F
100
AcDbDictionary
280
     1
  3
BTDETID
360
10000071
  0
DICTIONARY
  5
10000073
330
10000072
100
AcDbDictionary
280
     1
  3
BTDETID
360
10000074
  0
DICTIONARY
  5
10000076
330
10000075
100
AcDbDictionary
280
     1
  3
BTDETID
360
10000077
  0
DICTIONARY
  5
10000079
330
10000078
100
AcDbDictionary
280
     1
  3
BTDETID
360
1000007A
  0
DICTIONARY
  5
1000007C
330
1000007B
100
AcDbDictionary
280
     1
  3
BTDETID
360
1000007D
  0
DICTIONARY
  5
1000007F
330
1000007E
100
AcDbDictionary
280
     1
  3
BTDETID
360
10000080
  0
DICTIONARY
  5
10000082
330
10000081
100
AcDbDictionary
280
     1
  3
BTDETID
360
10000083
  0
DICTIONARY
  5
10000085
330
10000084
100
AcDbDictionary
280
     1
  3
BTDETID
360
10000086
  0
DICTIONARY
  5
10000088
330
10000087
100
AcDbDictionary
280
     1
  3
BTDETID
360
10000089
  0
DICTIONARY
  5
1000008B
330
1000008A
100
AcDbDictionary
280
     1
  3
BTDETID
360
1000008C
  0
DICTIONARY
  5
1000008E
330
1000008D
100
AcDbDictionary
280
     1
  3
BTDETID
360
1000008F
  0
DICTIONARY
  5
10000091
330
10000090
100
AcDbDictionary
280
     1
  3
BTDETID
360
10000092
  0
DICTIONARY
  5
10000094
330
10000093
100
AcDbDictionary
280
     1
  3
BTDETID
360
10000095
  0
DICTIONARY
  5
10000097
330
10000096
100
AcDbDictionary
280
     1
  3
BTDETID
360
10000098
  0
DICTIONARY
  5
1000009A
330
10000099
100
AcDbDictionary
280
     1
  3
BTDETID
360
1000009B
  0
DICTIONARY
  5
1000009D
330
1000009C
100
AcDbDictionary
280
     1
  3
BTDETID
360
1000009E
  0
DICTIONARY
  5
100000A0
330
1000009F
100
AcDbDictionary
280
     1
  3
BTDETID
360
100000A1
  0
DICTIONARY
  5
100000A3
330
100000A2
100
AcDbDictionary
280
     1
  3
BTDETID
360
100000A4
  0
DICTIONARY
  5
100000A6
330
100000A5
100
AcDbDictionary
280
     1
  3
BTDETID
360
100000A7
  0
DICTIONARY
  5
100000A9
330
100000A8
100
AcDbDictionary
280
     1
  3
BTDETID
360
100000AA
  0
DICTIONARY
  5
100000AC
330
100000AB
100
AcDbDictionary
280
     1
  3
BTDETID
360
100000AD
  0
DICTIONARY
  5
100000AF
330
100000AE
100
AcDbDictionary
280
     1
  3
BTDETID
360
100000B0
  0
DICTIONARY
  5
100000B2
330
100000B1
100
AcDbDictionary
280
     1
  3
BTDETID
360
100000B3
  0
DICTIONARY
  5
100000B5
330
100000B4
100
AcDbDictionary
280
     1
  3
BTDETID
360
100000B6
  0
DICTIONARY
  5
100000B8
330
100000B7
100
AcDbDictionary
280
     1
  3
BTDETID
360
100000B9
  0
DICTIONARY
  5
100000BB
330
100000BA
100
AcDbDictionary
280
     1
  3
BTDETID
360
100000BC
  0
DICTIONARY
  5
100000BE
330
100000BD
100
AcDbDictionary
280
     1
  3
BTDETID
360
100000BF
  0
DICTIONARY
  5
100000C1
330
100000C0
100
AcDbDictionary
280
     1
  3
BTDETID
360
100000C2
  0
DICTIONARY
  5
100000C4
330
100000C3
100
AcDbDictionary
280
     1
  3
BTDETID
360
100000C5
  0
DICTIONARY
  5
100000C7
330
100000C6
100
AcDbDictionary
280
     1
  3
BTDETID
360
100000C8
  0
DICTIONARY
  5
100000CA
330
100000C9
100
AcDbDictionary
280
     1
  3
BTDETID
360
100000CB
  0
DICTIONARY
  5
100000CD
330
100000CC
100
AcDbDictionary
280
     1
  3
BTDETID
360
100000CE
  0
DICTIONARY
  5
100000D0
330
100000CF
100
AcDbDictionary
280
     1
  3
BTDETID
360
100000D1
  0
DICTIONARY
  5
100000D3
330
100000D2
100
AcDbDictionary
280
     1
  3
BTDETID
360
100000D4
  0
DICTIONARY
  5
100000D6
330
100000D5
100
AcDbDictionary
280
     1
  3
BTDETID
360
100000D7
  0
DICTIONARY
  5
100000D9
330
100000D8
100
AcDbDictionary
280
     1
  3
BTDETID
360
100000DA
  0
DICTIONARY
  5
100000DC
330
100000DB
100
AcDbDictionary
280
     1
  3
BTDETID
360
100000DD
  0
DICTIONARY
  5
100000DF
330
100000DE
100
AcDbDictionary
280
     1
  3
BTDETID
360
100000E0
  0
DICTIONARY
  5
100000E2
330
100000E1
100
AcDbDictionary
280
     1
  3
BTDETID
360
100000E3
  0
DICTIONARY
  5
100000E5
330
100000E4
100
AcDbDictionary
280
     1
  3
BTDETID
360
100000E6
  0
DICTIONARY
  5
100000E8
330
100000E7
100
AcDbDictionary
280
     1
  3
BTDETID
360
100000E9
  0
DICTIONARY
  5
100000EB
330
100000EA
100
AcDbDictionary
280
     1
  3
BTDETID
360
100000EC
  0
DICTIONARY
  5
100000EE
330
100000ED
100
AcDbDictionary
280
     1
  3
BTDETID
360
100000EF
  0
DICTIONARY
  5
100000F1
330
100000F0
100
AcDbDictionary
280
     1
  3
BTDETID
360
100000F2
  0
DICTIONARY
  5
100000F4
330
100000F3
100
AcDbDictionary
280
     1
  3
BTDETID
360
100000F5
  0
DICTIONARY
  5
100000F7
330
100000F6
100
AcDbDictionary
280
     1
  3
BTDETID
360
100000F8
  0
DICTIONARY
  5
100000FA
330
100000F9
100
AcDbDictionary
280
     1
  3
BTDETID
360
100000FB
  0
DICTIONARY
  5
100000FD
330
100000FC
100
AcDbDictionary
280
     1
  3
BTDETID
360
100000FE
  0
DICTIONARY
  5
10000100
330
100000FF
100
AcDbDictionary
280
     1
  3
BTDETID
360
10000101
  0
DICTIONARY
  5
10000103
330
10000102
100
AcDbDictionary
280
     1
  3
BTDETID
360
10000104
  0
DICTIONARY
  5
10000106
330
10000105
100
AcDbDictionary
280
     1
  3
BTDETID
360
10000107
  0
DICTIONARY
  5
10000109
330
10000108
100
AcDbDictionary
280
     1
  3
BTDETID
360
1000010A
  0
DICTIONARY
  5
1000010C
330
1000010B
100
AcDbDictionary
280
     1
  3
BTDETID
360
1000010D
  0
DICTIONARY
  5
1000010F
330
1000010E
100
AcDbDictionary
280
     1
  3
BTDETID
360
10000110
  0
DICTIONARY
  5
10000112
330
10000111
100
AcDbDictionary
280
     1
  3
BTDETID
360
10000113
  0
DICTIONARY
  5
10000115
330
10000114
100
AcDbDictionary
280
     1
  3
BTDETID
360
10000116
  0
DICTIONARY
  5
10000118
330
10000117
100
AcDbDictionary
280
     1
  3
BTDETID
360
10000119
  0
DICTIONARY
  5
1000011B
330
1000011A
100
AcDbDictionary
280
     1
  3
BTDETID
360
1000011C
  0
DICTIONARY
  5
1000011E
330
1000011D
100
AcDbDictionary
280
     1
  3
BTDETID
360
1000011F
  0
DICTIONARY
  5
10000121
330
10000120
100
AcDbDictionary
280
     1
  3
BTDETID
360
10000122
  0
DICTIONARY
  5
10000124
330
10000123
100
AcDbDictionary
280
     1
  3
BTDETID
360
10000125
  0
DICTIONARY
  5
10000127
330
10000126
100
AcDbDictionary
280
     1
  3
BTDETID
360
10000128
  0
DICTIONARY
  5
1000012A
330
10000129
100
AcDbDictionary
280
     1
  3
BTDETID
360
1000012B
  0
DICTIONARY
  5
1000012D
330
1000012C
100
AcDbDictionary
280
     1
  3
BTDETID
360
1000012E
  0
DICTIONARY
  5
10000130
330
1000012F
100
AcDbDictionary
280
     1
  3
BTDETID
360
10000131
  0
DICTIONARY
  5
10000133
330
10000132
100
AcDbDictionary
280
     1
  3
BTDETID
360
10000134
  0
DICTIONARY
  5
10000136
330
10000135
100
AcDbDictionary
280
     1
  3
BTDETID
360
10000137
  0
DICTIONARY
  5
D
102
{ACAD_REACTORS
330
C
102
}
330
C
100
AcDbDictionary
  0
DICTIONARY
  5
1A
102
{ACAD_REACTORS
330
C
102
}
330
C
100
AcDbDictionary
  0
DICTIONARY
  5
43
102
{ACAD_REACTORS
330
C
102
}
330
C
100
AcDbDictionary
  3
BYBLOCK
350
45
  3
BYLAYER
350
44
  3
GLOBAL
350
46
  0
DICTIONARY
  5
6B
102
{ACAD_REACTORS
330
C
102
}
330
C
100
AcDbDictionary
  3
STANDARD
350
6C
  0
DICTIONARY
  5
17
102
{ACAD_REACTORS
330
C
102
}
330
C
100
AcDbDictionary
  3
STANDARD
350
18
  0
DICTIONARY
  5
19
102
{ACAD_REACTORS
330
C
102
}
330
C
100
AcDbDictionary
  0
DICTIONARY
  5
47
102
{ACAD_REACTORS
330
C
102
}
330
C
100
AcDbDictionary
  3
SCALE100_1
350
10000023
  3
SCALE10_1
350
1000001D
  3
SCALE12_1
350
1000001E
  3
SCALE16_1
350
1000001F
  3
SCALE1_1
350
10000006
  3
SCALE1_10
350
1000000D
  3
SCALE1_100
350
10000016
  3
SCALE1_12
350
1000000E
  3
SCALE1_16
350
1000000F
  3
SCALE1_2
350
10000007
  3
SCALE1_20
350
10000010
  3
SCALE1_25
350
10000011
  3
SCALE1_3
350
10000008
  3
SCALE1_32
350
10000012
  3
SCALE1_4
350
10000009
  3
SCALE1_40
350
10000013
  3
SCALE1_5
350
1000000A
  3
SCALE1_50
350
10000014
  3
SCALE1_6
350
1000000B
  3
SCALE1_8
350
1000000C
  3
SCALE1_80
350
10000015
  3
SCALE20_1
350
10000020
  3
SCALE2_1
350
10000017
  3
SCALE32_1
350
10000021
  3
SCALE3_1
350
10000018
  3
SCALE4_1
350
10000019
  3
SCALE50_1
350
10000022
  3
SCALE5_1
350
1000001A
  3
SCALE6_1
350
1000001B
  3
SCALE8_1
350
1000001C
  0
DICTIONARY
  5
2A
102
{ACAD_REACTORS
330
C
102
}
330
C
100
AcDbDictionary
  3
2DWIREFRAME
350
2F
  3
BASIC
350
32
  3
BRIGHTEN
350
36
  3
COLORCHANGE
350
3A
  3
CONCEPTUAL
350
34
  3
DIM
350
35
  3
EDGECOLOROFF
350
3D
  3
FACEPATTERN
350
39
  3
FLAT
350
2B
  3
FLATWITHEDGES
350
2C
  3
GOURAUD
350
2D
  3
GOURAUDWITHEDGES
350
2E
  3
HIDDEN
350
31
  3
JITTEROFF
350
3B
  3
LINEPATTERN
350
38
  3
OVERHANGOFF
350
3C
  3
REALISTIC
350
33
  3
SHADED
350
42
  3
SHADED_WITH_EDGES
350
41
  3
SHADES_OF_GRAY
350
3E
  3
SKETCHY
350
3F
  3
THICKEN
350
37
  3
WIREFRAME
350
30
  3
X-RAY
350
40
  0
DICTIONARY
  5
1000013A
102
{ACAD_REACTORS
330
C
102
}
330
C
100
AcDbDictionary
  3
CEPSNID
350
10000144
  3
CEPSNTYPE
350
10000143
  3
DIMSTYLEDATA
350
1000015A
  3
FINGERPRINTGUID
350
10000145
  3
HYPERLINKBASE
350
1000013D
  3
INSUNITS
350
10000142
  3
LAYOUTDICT
350
1000013F
  3
LWETCUNION
350
10000141
  3
PLOTSETDICT
350
10000140
  3
PSVPSCALE
350
10000147
  3
PUCSBASE
350
1000014A
  3
PUCSORGBACK
350
10000150
  3
PUCSORGBOTTOM
350
1000014C
  3
PUCSORGFRONT
350
1000014F
  3
PUCSORGLEFT
350
1000014D
  3
PUCSORGRIGHT
350
1000014E
  3
PUCSORGTOP
350
1000014B
  3
PUCSORTHOREF
350
10000148
  3
PUCSORTHOVIEW
350
10000149
  3
STYLESHEET
350
1000013E
  3
TSTACKALIGN
350
1000013B
  3
TSTACKSIZE
350
1000013C
  3
UCSBASE
350
10000153
  3
UCSORGBACK
350
10000159
  3
UCSORGBOTTOM
350
10000155
  3
UCSORGFRONT
350
10000158
  3
UCSORGLEFT
350
10000156
  3
UCSORGRIGHT
350
10000157
  3
UCSORGTOP
350
10000154
  3
UCSORTHOREF
350
10000151
  3
UCSORTHOVIEW
350
10000152
  3
VERSIONGUID
350
10000146
  0
DICTIONARY
  5
1000015B
102
{ACAD_REACTORS
330
C
102
}
330
C
100
AcDbDictionary
  3
CANNOSCALE
350
10000169
  3
CENTEREXE
350
10000162
  3
CENTERLTYPEFILE
350
10000163
  3
CMLEADERSTYLE
350
1000015D
  3
CTABLESTYLE
350
1000015C
  3
DIMASSOC
350
10000164
  3
HIDETEXT
350
10000165
  3
MSLTSCALE
350
1000016A
  3
PSOLHEIGHT
350
1000015F
  3
PSOLWIDTH
350
1000015E
  0
XRECORD
  5
10000166
102
{ACAD_REACTORS
330
C
102
}
330
C
100
AcDbXrecord
  1
DWGPROPS COOKIE
  2

  3

  4

  6
File was created by BTDwgCreate
  7

  8

  9

300
=
301
=
302
=
303
=
304
=
305
=
306
=
307
=
308
=
309
=
 40
0.0
 41
2460568.535449051
 42
2460568.535449062
  1

 90
        0
  0
DICTIONARY
  5
10000001
102
{ACAD_REACTORS
330
C
102
}
330
C
100
AcDbDictionary
280
     1
  3
DIM_UNITS
360
10000003
  3
DWGGEN_VERSION
360
10000002
  3
FIRST_ANGLE
360
10000005
  0
XRECORD
  5
10000168
102
{ACAD_REACTORS
330
10000167
102
}
330
10000167
100
AcDbXrecord
102
VTR_0.000_0.000_1.000_1.000_VISUALSTYLE
340
2F
102
VTR_0.000_0.000_1.000_1.000_GRIDDISPLAY
 70
     3
102
VTR_0.000_0.000_1.000_1.000_GRIDMAJOR
 70
     5
102
VTR_0.000_0.000_1.000_1.000_DEFAULTLIGHTING
280
     1
102
VTR_0.000_0.000_1.000_1.000_DEFAULTLIGHTINGTYPE
 70
     1
102
VTR_0.000_0.000_1.000_1.000_BRIGHTNESS
141
0.0
102
VTR_0.000_0.000_1.000_1.000_CONTRAST
142
0.0
  0
SORTENTSTABLE
  5
10000139
102
{ACAD_REACTORS
330
10000138
102
}
330
10000138
100
AcDbSortentsTable
330
1F
  0
XRECORD
  5
10000053
102
{ACAD_REACTORS
330
10000052
102
}
330
10000052
100
AcDbXrecord
1000
KPBO
  0
XRECORD
  5
10000056
102
{ACAD_REACTORS
330
10000055
102
}
330
10000055
100
AcDbXrecord
1000
KP1N
  0
XRECORD
  5
10000059
102
{ACAD_REACTORS
330
10000058
102
}
330
10000058
100
AcDbXrecord
1000
KPpN
  0
XRECORD
  5
1000005C
102
{ACAD_REACTORS
330
1000005B
102
}
330
1000005B
100
AcDbXrecord
1000
KPdN
  0
XRECORD
  5
1000005F
102
{ACAD_REACTORS
330
1000005E
102
}
330
1000005E
100
AcDbXrecord
1000
KPRN
  0
XRECORD
  5
10000062
102
{ACAD_REACTORS
330
10000061
102
}
330
10000061
100
AcDbXrecord
1000
KPFN
  0
XRECORD
  5
10000065
102
{ACAD_REACTORS
330
10000064
102
}
330
10000064
100
AcDbXrecord
1000
KP5M
  0
XRECORD
  5
10000068
102
{ACAD_REACTORS
330
10000067
102
}
330
10000067
100
AcDbXrecord
1000
KPtM
  0
XRECORD
  5
1000006B
102
{ACAD_REACTORS
330
1000006A
102
}
330
1000006A
100
AcDbXrecord
1000
KPhM
  0
XRECORD
  5
1000006E
102
{ACAD_REACTORS
330
1000006D
102
}
330
1000006D
100
AcDbXrecord
1000
KPtH
  0
XRECORD
  5
10000071
102
{ACAD_REACTORS
330
10000070
102
}
330
10000070
100
AcDbXrecord
1000
KPhH
  0
XRECORD
  5
10000074
102
{ACAD_REACTORS
330
10000073
102
}
330
10000073
100
AcDbXrecord
1000
KPJH
  0
XRECORD
  5
10000077
102
{ACAD_REACTORS
330
10000076
102
}
330
10000076
100
AcDbXrecord
1000
KP9G
  0
XRECORD
  5
1000007A
102
{ACAD_REACTORS
330
10000079
102
}
330
10000079
100
AcDbXrecord
1000
KPxG
  0
XRECORD
  5
1000007D
102
{ACAD_REACTORS
330
1000007C
102
}
330
1000007C
100
AcDbXrecord
1000
KPhJ
  0
XRECORD
  5
10000080
102
{ACAD_REACTORS
330
1000007F
102
}
330
1000007F
100
AcDbXrecord
1000
KP9C
  0
XRECORD
  5
10000083
102
{ACAD_REACTORS
330
10000082
102
}
330
10000082
100
AcDbXrecord
1000
KPVJ
  0
XRECORD
  5
10000086
102
{ACAD_REACTORS
330
10000085
102
}
330
10000085
100
AcDbXrecord
1000
KPxC
  0
XRECORD
  5
10000089
102
{ACAD_REACTORS
330
10000088
102
}
330
10000088
100
AcDbXrecord
1000
KPJJ
  0
XRECORD
  5
1000008C
102
{ACAD_REACTORS
330
1000008B
102
}
330
1000008B
100
AcDbXrecord
1000
KPxH
  0
XRECORD
  5
1000008F
102
{ACAD_REACTORS
330
1000008E
102
}
330
1000008E
100
AcDbXrecord
1000
KPlC
  0
XRECORD
  5
10000092
102
{ACAD_REACTORS
330
10000091
102
}
330
10000091
100
AcDbXrecord
1000
KP9I
  0
XRECORD
  5
10000095
102
{ACAD_REACTORS
330
10000094
102
}
330
10000094
100
AcDbXrecord
1000
KPZC
  0
XRECORD
  5
10000098
102
{ACAD_REACTORS
330
10000097
102
}
330
10000097
100
AcDbXrecord
1000
KPxI
  0
XRECORD
  5
1000009B
102
{ACAD_REACTORS
330
1000009A
102
}
330
1000009A
100
AcDbXrecord
1000
KPNC
  0
XRECORD
  5
1000009E
102
{ACAD_REACTORS
330
1000009D
102
}
330
1000009D
100
AcDbXrecord
1000
KPlI
  0
XRECORD
  5
100000A1
102
{ACAD_REACTORS
330
100000A0
102
}
330
100000A0
100
AcDbXrecord
1000
KPBC
  0
XRECORD
  5
100000A4
102
{ACAD_REACTORS
330
100000A3
102
}
330
100000A3
100
AcDbXrecord
1000
KPZI
  0
XRECORD
  5
100000A7
102
{ACAD_REACTORS
330
100000A6
102
}
330
100000A6
100
AcDbXrecord
1000
KP1B
  0
XRECORD
  5
100000AA
102
{ACAD_REACTORS
330
100000A9
102
}
330
100000A9
100
AcDbXrecord
1000
KPNI
  0
XRECORD
  5
100000AD
102
{ACAD_REACTORS
330
100000AC
102
}
330
100000AC
100
AcDbXrecord
1000
KPpB
  0
XRECORD
  5
100000B0
102
{ACAD_REACTORS
330
100000AF
102
}
330
100000AF
100
AcDbXrecord
1000
KPBI
  0
XRECORD
  5
100000B3
102
{ACAD_REACTORS
330
100000B2
102
}
330
100000B2
100
AcDbXrecord
1000
KPdB
  0
XRECORD
  5
100000B6
102
{ACAD_REACTORS
330
100000B5
102
}
330
100000B5
100
AcDbXrecord
1000
KP1H
  0
XRECORD
  5
100000B9
102
{ACAD_REACTORS
330
100000B8
102
}
330
100000B8
100
AcDbXrecord
1000
KPRB
  0
XRECORD
  5
100000BC
102
{ACAD_REACTORS
330
100000BB
102
}
330
100000BB
100
AcDbXrecord
1000
KPVH
  0
XRECORD
  5
100000BF
102
{ACAD_REACTORS
330
100000BE
102
}
330
100000BE
100
AcDbXrecord
1000
KP9F
  0
XRECORD
  5
100000C2
102
{ACAD_REACTORS
330
100000C1
102
}
330
100000C1
100
AcDbXrecord
1000
JPV
  0
XRECORD
  5
100000C5
102
{ACAD_REACTORS
330
100000C4
102
}
330
100000C4
100
AcDbXrecord
1000
JPJ
  0
XRECORD
  5
100000C8
102
{ACAD_REACTORS
330
100000C7
102
}
330
100000C7
100
AcDbXrecord
1000
JPh
  0
XRECORD
  5
100000CB
102
{ACAD_REACTORS
330
100000CA
102
}
330
100000CA
100
AcDbXrecord
1000
JPt
  0
XRECORD
  5
100000CE
102
{ACAD_REACTORS
330
100000CD
102
}
330
100000CD
100
AcDbXrecord
1000
JP5
  0
XRECORD
  5
100000D1
102
{ACAD_REACTORS
330
100000D0
102
}
330
100000D0
100
AcDbXrecord
1000
KPFB
  0
XRECORD
  5
100000D4
102
{ACAD_REACTORS
330
100000D3
102
}
330
100000D3
100
AcDbXrecord
1000
KPtJ
  0
XRECORD
  5
100000D7
102
{ACAD_REACTORS
330
100000D6
102
}
330
100000D6
100
AcDbXrecord
1000
KPJD
  0
XRECORD
  5
100000DA
102
{ACAD_REACTORS
330
100000D9
102
}
330
100000D9
100
AcDbXrecord
1000
KP5J
  0
XRECORD
  5
100000DD
102
{ACAD_REACTORS
330
100000DC
102
}
330
100000DC
100
AcDbXrecord
1000
KPVD
  0
XRECORD
  5
100000E0
102
{ACAD_REACTORS
330
100000DF
102
}
330
100000DF
100
AcDbXrecord
1000
KPFK
  0
XRECORD
  5
100000E3
102
{ACAD_REACTORS
330
100000E2
102
}
330
100000E2
100
AcDbXrecord
1000
KPhD
  0
XRECORD
  5
100000E6
102
{ACAD_REACTORS
330
100000E5
102
}
330
100000E5
100
AcDbXrecord
1000
KPRK
  0
XRECORD
  5
100000E9
102
{ACAD_REACTORS
330
100000E8
102
}
330
100000E8
100
AcDbXrecord
1000
KPtD
  0
XRECORD
  5
100000EC
102
{ACAD_REACTORS
330
100000EB
102
}
330
100000EB
100
AcDbXrecord
1000
KPdK
  0
XRECORD
  5
100000EF
102
{ACAD_REACTORS
330
100000EE
102
}
330
100000EE
100
AcDbXrecord
1000
KP5D
  0
XRECORD
  5
100000F2
102
{ACAD_REACTORS
330
100000F1
102
}
330
100000F1
100
AcDbXrecord
1000
KPpK
  0
XRECORD
  5
100000F5
102
{ACAD_REACTORS
330
100000F4
102
}
330
100000F4
100
AcDbXrecord
1000
KPFE
  0
XRECORD
  5
100000F8
102
{ACAD_REACTORS
330
100000F7
102
}
330
100000F7
100
AcDbXrecord
1000
KP1K
  0
XRECORD
  5
100000FB
102
{ACAD_REACTORS
330
100000FA
102
}
330
100000FA
100
AcDbXrecord
1000
KPRE
  0
XRECORD
  5
100000FE
102
{ACAD_REACTORS
330
100000FD
102
}
330
100000FD
100
AcDbXrecord
1000
KPBL
  0
XRECORD
  5
10000101
102
{ACAD_REACTORS
330
10000100
102
}
330
10000100
100
AcDbXrecord
1000
KPdE
  0
XRECORD
  5
10000104
102
{ACAD_REACTORS
330
10000103
102
}
330
10000103
100
AcDbXrecord
1000
KPNL
  0
XRECORD
  5
10000107
102
{ACAD_REACTORS
330
10000106
102
}
330
10000106
100
AcDbXrecord
1000
KPpE
  0
XRECORD
  5
1000010A
102
{ACAD_REACTORS
330
10000109
102
}
330
10000109
100
AcDbXrecord
1000
KPZL
  0
XRECORD
  5
1000010D
102
{ACAD_REACTORS
330
1000010C
102
}
330
1000010C
100
AcDbXrecord
1000
KP1E
  0
XRECORD
  5
10000110
102
{ACAD_REACTORS
330
1000010F
102
}
330
1000010F
100
AcDbXrecord
1000
KPlL
  0
XRECORD
  5
10000113
102
{ACAD_REACTORS
330
10000112
102
}
330
10000112
100
AcDbXrecord
1000
KPBF
  0
XRECORD
  5
10000116
102
{ACAD_REACTORS
330
10000115
102
}
330
10000115
100
AcDbXrecord
1000
KPxL
  0
XRECORD
  5
10000119
102
{ACAD_REACTORS
330
10000118
102
}
330
10000118
100
AcDbXrecord
1000
KPNF
  0
XRECORD
  5
1000011C
102
{ACAD_REACTORS
330
1000011B
102
}
330
1000011B
100
AcDbXrecord
1000
KPBG
  0
XRECORD
  5
1000011F
102
{ACAD_REACTORS
330
1000011E
102
}
330
1000011E
100
AcDbXrecord
1000
KP9L
  0
XRECORD
  5
10000122
102
{ACAD_REACTORS
330
10000121
102
}
330
10000121
100
AcDbXrecord
1000
KPZF
  0
XRECORD
  5
10000125
102
{ACAD_REACTORS
330
10000124
102
}
330
10000124
100
AcDbXrecord
1000
KPNG
  0
XRECORD
  5
10000128
102
{ACAD_REACTORS
330
10000127
102
}
330
10000127
100
AcDbXrecord
1000
KPJM
  0
XRECORD
  5
1000012B
102
{ACAD_REACTORS
330
1000012A
102
}
330
1000012A
100
AcDbXrecord
1000
KPlF
  0
XRECORD
  5
1000012E
102
{ACAD_REACTORS
330
1000012D
102
}
330
1000012D
100
AcDbXrecord
1000
KPZG
  0
XRECORD
  5
10000131
102
{ACAD_REACTORS
330
10000130
102
}
330
10000130
100
AcDbXrecord
1000
KPVM
  0
XRECORD
  5
10000134
102
{ACAD_REACTORS
330
10000133
102
}
330
10000133
100
AcDbXrecord
1000
KPxF
  0
XRECORD
  5
10000137
102
{ACAD_REACTORS
330
10000136
102
}
330
10000136
100
AcDbXrecord
1000
KPlG
  0
MATERIAL
  5
45
102
{ACAD_REACTORS
330
43
102
}
102
{ACAD_XDICTIONARY
360
1000016D
102
}
330
43
100
AcDbMaterial
  1
BYBLOCK
  0
MATERIAL
  5
44
102
{ACAD_REACTORS
330
43
102
}
102
{ACAD_XDICTIONARY
360
1000016B
102
}
330
43
100
AcDbMaterial
  1
BYLAYER
  0
MATERIAL
  5
46
102
{ACAD_REACTORS
330
43
102
}
102
{ACAD_XDICTIONARY
360
1000016F
102
}
330
43
100
AcDbMaterial
  1
GLOBAL
  0
ACAD_PROXY_OBJECT
  5
6C
102
{ACAD_REACTORS
330
6B
102
}
330
6B
100
AcDbProxyObject
 90
      499
 91
      505
 93
      610
310
40901902A4063FBFFFFFE0000000000000020400000000000020404214DD185B99185C990000000000000104090141901A00000000000004100000000000000041025764000000000000039000
340
14
340
0
340
11
340
0
 94
        0
1001
ACAD_MLEADERVER
1070
     2
  0
MLINESTYLE
  5
18
102
{ACAD_REACTORS
330
17
102
}
330
17
100
AcDbMlineStyle
  2
Standard
 70
     0
  3

 62
   256
 51
90.0
 52
90.0
 71
     2
 49
0.5
 62
   256
  6
BYLAYER
 49
-0.5
 62
   256
  6
BYLAYER
  0
ACAD_PROXY_OBJECT
  5
10000023
102
{ACAD_REACTORS
330
47
102
}
330
47
100
AcDbProxyObject
 90
      499
 91
      503
 93
      121
310
9053130303A310000000000001650100
  0
ACAD_PROXY_OBJECT
  5
1000001D
102
{ACAD_REACTORS
330
47
102
}
330
47
100
AcDbProxyObject
 90
      499
 91
      503
 93
      113
310
90431303A310000000000000910100
  0
ACAD_PROXY_OBJECT
  5
1000001E
102
{ACAD_REACTORS
330
47
102
}
330
47
100
AcDbProxyObject
 90
      499
 91
      503
 93
      113
310
90431323A310000000000000A10100
  0
ACAD_PROXY_OBJECT
  5
1000001F
102
{ACAD_REACTORS
330
47
102
}
330
47
100
AcDbProxyObject
 90
      499
 91
      503
 93
      113
310
90431363A310000000000000C10100
  0
ACAD_PROXY_OBJECT
  5
10000006
102
{ACAD_REACTORS
330
47
102
}
330
47
100
AcDbProxyObject
 90
      499
 91
      503
 93
       41
310
903313A31500
  0
ACAD_PROXY_OBJECT
  5
1000000D
102
{ACAD_REACTORS
330
47
102
}
330
47
100
AcDbProxyObject
 90
      499
 91
      503
 93
      113
310
904313A31304000000000000244000
  0
ACAD_PROXY_OBJECT
  5
10000016
102
{ACAD_REACTORS
330
47
102
}
330
47
100
AcDbProxyObject
 90
      499
 91
      503
 93
      121
310
905313A3130304000000000000594000
  0
ACAD_PROXY_OBJECT
  5
1000000E
102
{ACAD_REACTORS
330
47
102
}
330
47
100
AcDbProxyObject
 90
      499
 91
      503
 93
      113
310
904313A31324000000000000284000
  0
ACAD_PROXY_OBJECT
  5
1000000F
102
{ACAD_REACTORS
330
47
102
}
330
47
100
AcDbProxyObject
 90
      499
 91
      503
 93
      113
310
904313A31364000000000000304000
  0
ACAD_PROXY_OBJECT
  5
10000007
102
{ACAD_REACTORS
330
47
102
}
330
47
100
AcDbProxyObject
 90
      499
 91
      503
 93
      105
310
903313A324000000000000004000
  0
ACAD_PROXY_OBJECT
  5
10000010
102
{ACAD_REACTORS
330
47
102
}
330
47
100
AcDbProxyObject
 90
      499
 91
      503
 93
      113
310
904313A32304000000000000344000
  0
ACAD_PROXY_OBJECT
  5
10000011
102
{ACAD_REACTORS
330
47
102
}
330
47
100
AcDbProxyObject
 90
      499
 91
      503
 93
      113
310
904313A32354000000000000394000
  0
ACAD_PROXY_OBJECT
  5
10000008
102
{ACAD_REACTORS
330
47
102
}
330
47
100
AcDbProxyObject
 90
      499
 91
      503
 93
      105
310
903313A334000000000000084000
  0
ACAD_PROXY_OBJECT
  5
10000012
102
{ACAD_REACTORS
330
47
102
}
330
47
100
AcDbProxyObject
 90
      499
 91
      503
 93
      113
310
904313A33324000000000000404000
  0
ACAD_PROXY_OBJECT
  5
10000009
102
{ACAD_REACTORS
330
47
102
}
330
47
100
AcDbProxyObject
 90
      499
 91
      503
 93
      105
310
903313A344000000000000104000
  0
ACAD_PROXY_OBJECT
  5
10000013
102
{ACAD_REACTORS
330
47
102
}
330
47
100
AcDbProxyObject
 90
      499
 91
      503
 93
      113
310
904313A34304000000000000444000
  0
ACAD_PROXY_OBJECT
  5
1000000A
102
{ACAD_REACTORS
330
47
102
}
330
47
100
AcDbProxyObject
 90
      499
 91
      503
 93
      105
310
903313A354000000000000144000
  0
ACAD_PROXY_OBJECT
  5
10000014
102
{ACAD_REACTORS
330
47
102
}
330
47
100
AcDbProxyObject
 90
      499
 91
      503
 93
      113
310
904313A35304000000000000494000
  0
ACAD_PROXY_OBJECT
  5
1000000B
102
{ACAD_REACTORS
330
47
102
}
330
47
100
AcDbProxyObject
 90
      499
 91
      503
 93
      105
310
903313A364000000000000184000
  0
ACAD_PROXY_OBJECT
  5
1000000C
102
{ACAD_REACTORS
330
47
102
}
330
47
100
AcDbProxyObject
 90
      499
 91
      503
 93
      105
310
903313A384000000000000204000
  0
ACAD_PROXY_OBJECT
  5
10000015
102
{ACAD_REACTORS
330
47
102
}
330
47
100
AcDbProxyObject
 90
      499
 91
      503
 93
      113
310
904313A38304000000000000544000
  0
ACAD_PROXY_OBJECT
  5
10000020
102
{ACAD_REACTORS
330
47
102
}
330
47
100
AcDbProxyObject
 90
      499
 91
      503
 93
      113
310
90432303A310000000000000D10100
  0
ACAD_PROXY_OBJECT
  5
10000017
102
{ACAD_REACTORS
330
47
102
}
330
47
100
AcDbProxyObject
 90
      499
 91
      503
 93
      105
310
903323A310000000000000010100
  0
ACAD_PROXY_OBJECT
  5
10000021
102
{ACAD_REACTORS
330
47
102
}
330
47
100
AcDbProxyObject
 90
      499
 91
      503
 93
      113
310
90433323A310000000000001010100
  0
ACAD_PROXY_OBJECT
  5
10000018
102
{ACAD_REACTORS
330
47
102
}
330
47
100
AcDbProxyObject
 90
      499
 91
      503
 93
      105
310
903333A310000000000000210100
  0
ACAD_PROXY_OBJECT
  5
10000019
102
{ACAD_REACTORS
330
47
102
}
330
47
100
AcDbProxyObject
 90
      499
 91
      503
 93
      105
310
903343A310000000000000410100
  0
ACAD_PROXY_OBJECT
  5
10000022
102
{ACAD_REACTORS
330
47
102
}
330
47
100
AcDbProxyObject
 90
      499
 91
      503
 93
      113
310
90435303A310000000000001250100
  0
ACAD_PROXY_OBJECT
  5
1000001A
102
{ACAD_REACTORS
330
47
102
}
330
47
100
AcDbProxyObject
 90
      499
 91
      503
 93
      105
310
903353A310000000000000510100
  0
ACAD_PROXY_OBJECT
  5
1000001B
102
{ACAD_REACTORS
330
47
102
}
330
47
100
AcDbProxyObject
 90
      499
 91
      503
 93
      105
310
903363A310000000000000610100
  0
ACAD_PROXY_OBJECT
  5
1000001C
102
{ACAD_REACTORS
330
47
102
}
330
47
100
AcDbProxyObject
 90
      499
 91
      503
 93
      105
310
903383A310000000000000810100
  0
ACAD_PROXY_OBJECT
  5
2F
102
{ACAD_REACTORS
330
2A
102
}
330
2A
100
AcDbProxyObject
 90
      499
 91
      501
 93
      436
310
42CC9915DA5C99599C985B595049028333333333333E33F0000000000000F90107901411070040501600405405064090741402480A0340
1001
ACAD
1000
AcDbSavedByObjectVersion
1070
     0
  0
ACAD_PROXY_OBJECT
  5
32
102
{ACAD_REACTORS
330
2A
102
}
330
2A
100
AcDbProxyObject
 90
      499
 91
      501
 93
      388
310
4150985CDA58D07406404333333333333E33F0000000000000F90107A41107004050150841D405064090741402480A0350
1001
ACAD
1000
AcDbSavedByObjectVersion
1070
     0
  0
ACAD_PROXY_OBJECT
  5
36
102
{ACAD_REACTORS
330
2A
102
}
330
2A
100
AcDbProxyObject
 90
      499
 91
      501
 93
      428
310
42109C9A59DA1D195B90C409028333333333333E33F0000000000000F9010790141107004050150841D405064090741402480A029950
1001
ACAD
1000
AcDbSavedByObjectVersion
1070
     0
  0
ACAD_PROXY_OBJECT
  5
3A
102
{ACAD_REACTORS
330
2A
102
}
330
2A
100
AcDbProxyObject
 90
      499
 91
      501
 93
      452
310
42D0DBDB1BDC90DA185B99D95104090240C333333333333E33F0000000000000F90108901411070040501508421405064090741402480A0350
1001
ACAD
1000
AcDbSavedByObjectVersion
1070
     0
  0
ACAD_PROXY_OBJECT
  5
34
102
{ACAD_REACTORS
330
2A
102
}
330
2A
100
AcDbProxyObject
 90
      499
 91
      501
 93
      500
310
4290DBDB98D95C1D1D585B10940D028333333333333E33F0000000000000F90107902409070040501000000000018199010841D405064090740C02480A0340
1001
ACAD
1000
AcDbSavedByObjectVersion
1070
     0
  0
ACAD_PROXY_OBJECT
  5
35
102
{ACAD_REACTORS
330
2A
102
}
330
2A
100
AcDbProxyObject
 90
      499
 91
      501
 93
      412
310
40D11A5B50B409028333333333333E33F0000000000000F9010790141107004050150841D405064090741402480A02677FFFFFD0
1001
ACAD
1000
AcDbSavedByObjectVersion
1070
     0
  0
ACAD_PROXY_OBJECT
  5
3D
102
{ACAD_REACTORS
330
2A
102
}
330
2A
100
AcDbProxyObject
 90
      499
 91
      501
 93
      452
310
43115919D950DBDB1BDC93D999916409028333333333333E33F0000000000000F9010790141107004050150841D405064090741402480A0350
1001
ACAD
1000
AcDbSavedByObjectVersion
1070
     0
  0
ACAD_PROXY_OBJECT
  5
39
102
{ACAD_REACTORS
330
2A
102
}
330
2A
100
AcDbProxyObject
 90
      499
 91
      501
 93
      444
310
42D19858D95C185D1D195C9B90F409028333333333333E33F0000000000000F9010790141107004050150841D405064090741402480A0350
1001
ACAD
1000
AcDbSavedByObjectVersion
1070
     0
  0
ACAD_PROXY_OBJECT
  5
2B
102
{ACAD_REACTORS
330
2A
102
}
330
2A
100
AcDbProxyObject
 90
      499
 91
      501
 93
      380
310
41119B185D240901404333333333333E33F0000000000000F9010740A907004050150841D405064090741402480A1B50
1001
ACAD
1000
AcDbSavedByObjectVersion
1070
     0
  0
ACAD_PROXY_OBJECT
  5
2C
102
{ACAD_REACTORS
330
2A
102
}
330
2A
100
AcDbProxyObject
 90
      499
 91
      501
 93
      468
310
43519B185D15DA5D1A115919D95CD0140901404333333333333E33F0000000000000F90107409019070040501600405405064090741402480A1B50
1001
ACAD
1000
AcDbSavedByObjectVersion
1070
     0
  0
ACAD_PROXY_OBJECT
  5
2D
102
{ACAD_REACTORS
330
2A
102
}
330
2A
100
AcDbProxyObject
 90
      499
 91
      501
 93
      404
310
41D1DBDD5C985D5910240902404333333333333E33F0000000000000F9010740A9070040501641D405064090741402480A1B50
1001
ACAD
1000
AcDbSavedByObjectVersion
1070
     0
  0
ACAD_PROXY_OBJECT
  5
2E
102
{ACAD_REACTORS
330
2A
102
}
330
2A
100
AcDbProxyObject
 90
      499
 91
      501
 93
      492
310
4411DBDD5C985D5915DA5D1A115919D95CD0340902404333333333333E33F0000000000000F90107409019070040501600405405064090741402480A1B50
1001
ACAD
1000
AcDbSavedByObjectVersion
1070
     0
  0
ACAD_PROXY_OBJECT
  5
31
102
{ACAD_REACTORS
330
2A
102
}
330
2A
100
AcDbProxyObject
 90
      499
 91
      501
 93
      476
310
41921A5919195B90640502408333333333333E33F0000000000000F901079024090700405020000000000001110200405405064090740C02480A0340
1001
ACAD
1000
AcDbSavedByObjectVersion
1070
     0
  0
ACAD_PROXY_OBJECT
  5
3B
102
{ACAD_REACTORS
330
2A
102
}
330
2A
100
AcDbProxyObject
 90
      499
 91
      501
 93
      428
310
42529A5D1D195C93D999914409028333333333333E33F0000000000000F9010790141107004050150A41D405064090741402480A0350
1001
ACAD
1000
AcDbSavedByObjectVersion
1070
     0
  0
ACAD_PROXY_OBJECT
  5
38
102
{ACAD_REACTORS
330
2A
102
}
330
2A
100
AcDbProxyObject
 90
      499
 91
      501
 93
      444
310
42D31A5B995C185D1D195C9B90E409028333333333333E33F0000000000000F9010790141107004050750841D405064090741402483A0350
1001
ACAD
1000
AcDbSavedByObjectVersion
1070
     0
  0
ACAD_PROXY_OBJECT
  5
3C
102
{ACAD_REACTORS
330
2A
102
}
330
2A
100
AcDbProxyObject
 90
      499
 91
      501
 93
      444
310
42D3DD995C9A185B99D3D999915409028333333333333E33F0000000000000F9010790141107004050150941D405064090741402480A0350
1001
ACAD
1000
AcDbSavedByObjectVersion
1070
     0
  0
ACAD_PROXY_OBJECT
  5
33
102
{ACAD_REACTORS
330
2A
102
}
330
2A
100
AcDbProxyObject
 90
      499
 91
      501
 93
      428
310
425499585B1A5CDD1A58D08409038333333333333E33F0000000000000F9010740A907004050150800405405064090740C02480A1B40
1001
ACAD
1000
AcDbSavedByObjectVersion
1070
     0
  0
ACAD_PROXY_OBJECT
  5
42
102
{ACAD_REACTORS
330
2A
102
}
330
2A
100
AcDbProxyObject
 90
      499
 91
      501
 93
      420
310
4194DA1859195911B40902404333333333333E33F0000000000000F9010740A41107004050150800405405064090840C02480A0B40
1001
ACAD
1000
AcDbSavedByObjectVersion
1070
     0
  0
ACAD_PROXY_OBJECT
  5
41
102
{ACAD_REACTORS
330
2A
102
}
330
2A
100
AcDbProxyObject
 90
      499
 91
      501
 93
      516
310
4454DA18591959081DDA5D1A08195919D95CD1A40902404333333333333E33F0000000000000F901074090142907004050250800405405064090740C02480A0B40
1001
ACAD
1000
AcDbSavedByObjectVersion
1070
     0
  0
ACAD_PROXY_OBJECT
  5
3E
102
{ACAD_REACTORS
330
2A
102
}
330
2A
100
AcDbProxyObject
 90
      499
 91
      501
 93
      532
310
4394DA1859195CC81BD98811DC985E5174090240C333333333333E33F0000000000000F901079024090741D01000000000000111010841D405064090740C02480A0340
1001
ACAD
1000
AcDbSavedByObjectVersion
1070
     0
  0
ACAD_PROXY_OBJECT
  5
3F
102
{ACAD_REACTORS
330
2A
102
}
330
2A
100
AcDbProxyObject
 90
      499
 91
      501
 93
      476
310
41D4DAD95D18DA1E51840502408333333333333E33F0000000000000F901079024090741D01000000000000111010B41D405064090741802480A0340
1001
ACAD
1000
AcDbSavedByObjectVersion
1070
     0
  0
ACAD_PROXY_OBJECT
  5
37
102
{ACAD_REACTORS
330
2A
102
}
330
2A
100
AcDbProxyObject
 90
      499
 91
      501
 93
      412
310
41D51A1A58DAD95B90D409028333333333333E33F0000000000000F9010790141107004050150C41D405064090741402480A0350
1001
ACAD
1000
AcDbSavedByObjectVersion
1070
     0
  0
ACAD_PROXY_OBJECT
  5
30
102
{ACAD_REACTORS
330
2A
102
}
330
2A
100
AcDbProxyObject
 90
      499
 91
      501
 93
      420
310
4255DA5C99599C985B595059028333333333333E33F0000000000000F90107901411070040501600405405064090740C02480A0340
1001
ACAD
1000
AcDbSavedByObjectVersion
1070
     0
  0
ACAD_PROXY_OBJECT
  5
40
102
{ACAD_REACTORS
330
2A
102
}
330
2A
100
AcDbProxyObject
 90
      499
 91
      501
 93
      404
310
41560B54985E51940902404000000000000E03F0000000000000F9010740501907004050150841D405064090740C02480A1B40
1001
ACAD
1000
AcDbSavedByObjectVersion
1070
     0
  0
XRECORD
  5
10000144
102
{ACAD_REACTORS
330
1000013A
102
}
330
1000013A
100
AcDbXrecord
340
0
  0
XRECORD
  5
10000143
102
{ACAD_REACTORS
330
1000013A
102
}
330
1000013A
100
AcDbXrecord
 90
        0
  0
XRECORD
  5
1000015A
102
{ACAD_REACTORS
330
1000013A
102
}
330
1000013A
100
AcDbXrecord
1000
DSTYLE
1002
{
1070
   340
340
11
1002
}
  0
XRECORD
  5
10000145
102
{ACAD_REACTORS
330
1000013A
102
}
330
1000013A
100
AcDbXrecord
  1
{3030b832-7337-7461-6371-737174713774}
  0
XRECORD
  5
1000013D
102
{ACAD_REACTORS
330
1000013A
102
}
330
1000013A
100
AcDbXrecord
  1

  0
XRECORD
  5
10000142
102
{ACAD_REACTORS
330
1000013A
102
}
330
1000013A
100
AcDbXrecord
 90
        4
  0
XRECORD
  5
1000013F
102
{ACAD_REACTORS
330
1000013A
102
}
330
1000013A
100
AcDbXrecord
340
1A
  0
XRECORD
  5
10000141
102
{ACAD_REACTORS
330
1000013A
102
}
330
1000013A
100
AcDbXrecord
 90
    10781
  0
XRECORD
  5
10000140
102
{ACAD_REACTORS
330
1000013A
102
}
330
1000013A
100
AcDbXrecord
340
19
  0
XRECORD
  5
10000147
102
{ACAD_REACTORS
330
1000013A
102
}
330
1000013A
100
AcDbXrecord
 40
0.0
  0
XRECORD
  5
1000014A
102
{ACAD_REACTORS
330
1000013A
102
}
330
1000013A
100
AcDbXrecord
340
0
  0
XRECORD
  5
10000150
102
{ACAD_REACTORS
330
1000013A
102
}
330
1000013A
100
AcDbXrecord
 10
0.0
 20
0.0
 30
0.0
  0
XRECORD
  5
1000014C
102
{ACAD_REACTORS
330
1000013A
102
}
330
1000013A
100
AcDbXrecord
 10
0.0
 20
0.0
 30
0.0
  0
XRECORD
  5
1000014F
102
{ACAD_REACTORS
330
1000013A
102
}
330
1000013A
100
AcDbXrecord
 10
0.0
 20
0.0
 30
0.0
  0
XRECORD
  5
1000014D
102
{ACAD_REACTORS
330
1000013A
102
}
330
1000013A
100
AcDbXrecord
 10
0.0
 20
0.0
 30
0.0
  0
XRECORD
  5
1000014E
102
{ACAD_REACTORS
330
1000013A
102
}
330
1000013A
100
AcDbXrecord
 10
0.0
 20
0.0
 30
0.0
  0
XRECORD
  5
1000014B
102
{ACAD_REACTORS
330
1000013A
102
}
330
1000013A
100
AcDbXrecord
 10
0.0
 20
0.0
 30
0.0
  0
XRECORD
  5
10000148
102
{ACAD_REACTORS
330
1000013A
102
}
330
1000013A
100
AcDbXrecord
340
0
  0
XRECORD
  5
10000149
102
{ACAD_REACTORS
330
1000013A
102
}
330
1000013A
100
AcDbXrecord
 70
     0
  0
XRECORD
  5
1000013E
102
{ACAD_REACTORS
330
1000013A
102
}
330
1000013A
100
AcDbXrecord
  1

  0
XRECORD
  5
1000013B
102
{ACAD_REACTORS
330
1000013A
102
}
330
1000013A
100
AcDbXrecord
 90
        1
  0
XRECORD
  5
1000013C
102
{ACAD_REACTORS
330
1000013A
102
}
330
1000013A
100
AcDbXrecord
 90
       70
  0
XRECORD
  5
10000153
102
{ACAD_REACTORS
330
1000013A
102
}
330
1000013A
100
AcDbXrecord
340
0
  0
XRECORD
  5
10000159
102
{ACAD_REACTORS
330
1000013A
102
}
330
1000013A
100
AcDbXrecord
 10
0.0
 20
0.0
 30
0.0
  0
XRECORD
  5
10000155
102
{ACAD_REACTORS
330
1000013A
102
}
330
1000013A
100
AcDbXrecord
 10
0.0
 20
0.0
 30
0.0
  0
XRECORD
  5
10000158
102
{ACAD_REACTORS
330
1000013A
102
}
330
1000013A
100
AcDbXrecord
 10
0.0
 20
0.0
 30
0.0
  0
XRECORD
  5
10000156
102
{ACAD_REACTORS
330
1000013A
102
}
330
1000013A
100
AcDbXrecord
 10
0.0
 20
0.0
 30
0.0
  0
XRECORD
  5
10000157
102
{ACAD_REACTORS
330
1000013A
102
}
330
1000013A
100
AcDbXrecord
 10
0.0
 20
0.0
 30
0.0
  0
XRECORD
  5
10000154
102
{ACAD_REACTORS
330
1000013A
102
}
330
1000013A
100
AcDbXrecord
 10
0.0
 20
0.0
 30
0.0
  0
XRECORD
  5
10000151
102
{ACAD_REACTORS
330
1000013A
102
}
330
1000013A
100
AcDbXrecord
340
0
  0
XRECORD
  5
10000152
102
{ACAD_REACTORS
330
1000013A
102
}
330
1000013A
100
AcDbXrecord
 70
     0
  0
XRECORD
  5
10000146
102
{ACAD_REACTORS
330
1000013A
102
}
330
1000013A
100
AcDbXrecord
  1
{FAEB1C32-E019-11D5-929B-00C0DF256EC4}
  0
DICTIONARYVAR
  5
10000169
102
{ACAD_REACTORS
330
1000015B
102
}
330
1000015B
100
DictionaryVariables
280
     0
  1
1:1
  0
DICTIONARYVAR
  5
10000162
102
{ACAD_REACTORS
330
1000015B
102
}
330
1000015B
100
DictionaryVariables
280
     0
  1
3.500000
  0
DICTIONARYVAR
  5
10000163
102
{ACAD_REACTORS
330
1000015B
102
}
330
1000015B
100
DictionaryVariables
280
     0
  1
acadiso.lin
  0
DICTIONARYVAR
  5
1000015D
102
{ACAD_REACTORS
330
1000015B
102
}
330
1000015B
100
DictionaryVariables
280
     0
  1
Standard
  0
DICTIONARYVAR
  5
1000015C
102
{ACAD_REACTORS
330
1000015B
102
}
330
1000015B
100
DictionaryVariables
280
     0
  1
Standard
  0
DICTIONARYVAR
  5
10000164
102
{ACAD_REACTORS
330
1000015B
102
}
330
1000015B
100
DictionaryVariables
280
     0
  1
2
  0
DICTIONARYVAR
  5
10000165
102
{ACAD_REACTORS
330
1000015B
102
}
330
1000015B
100
DictionaryVariables
280
     0
  1
1
  0
DICTIONARYVAR
  5
1000016A
102
{ACAD_REACTORS
330
1000015B
102
}
330
1000015B
100
DictionaryVariables
280
     0
  1
1
  0
DICTIONARYVAR
  5
1000015F
102
{ACAD_REACTORS
330
1000015B
102
}
330
1000015B
100
DictionaryVariables
280
     0
  1
80.000000
  0
DICTIONARYVAR
  5
1000015E
102
{ACAD_REACTORS
330
1000015B
102
}
330
1000015B
100
DictionaryVariables
280
     0
  1
5.000000
  0
XRECORD
  5
10000003
102
{ACAD_REACTORS
330
10000001
102
}
330
10000001
100
AcDbXrecord
 70
     4
  0
XRECORD
  5
10000002
102
{ACAD_REACTORS
330
10000001
102
}
330
10000001
100
AcDbXrecord
1040
89.0
  0
ACAD_PROXY_OBJECT
  5
10000005
102
{ACAD_REACTORS
330
10000001
102
}
330
10000001
100
AcDbProxyObject
 90
      499
 91
      509
 93
       34
310
40C8804040
  0
DICTIONARY
  5
1000016D
330
45
100
AcDbDictionary
280
     1
  3
ACAD_XREC_ROUNDTRIP
360
1000016E
  0
DICTIONARY
  5
1000016B
330
44
100
AcDbDictionary
280
     1
  3
ACAD_XREC_ROUNDTRIP
360
1000016C
  0
DICTIONARY
  5
1000016F
330
46
100
AcDbDictionary
280
     1
  3
ACAD_XREC_ROUNDTRIP
360
10000170
  0
XRECORD
  5
1000016E
102
{ACAD_REACTORS
330
1000016D
102
}
330
1000016D
100
AcDbXrecord
102
MATERIAL
148
0.0
149
0.0
149
0.0
 93
        0
 94
      127
282
     0
 72
     1
 77
     1
171
     1
175
     1
179
     1
273
     0
  0
XRECORD
  5
1000016C
102
{ACAD_REACTORS
330
1000016B
102
}
330
1000016B
100
AcDbXrecord
102
MATERIAL
148
0.0
149
0.0
149
0.0
 93
        0
 94
      127
282
     0
 72
     1
 77
     1
171
     1
175
     1
179
     1
273
     0
  0
XRECORD
  5
10000170
102
{ACAD_REACTORS
330
1000016F
102
}
330
1000016F
100
AcDbXrecord
102
MATERIAL
148
0.0
149
0.0
149
0.0
 93
        0
 94
      127
282
     0
 72
     1
 77
     1
171
     1
175
     1
179
     1
273
     0
  0
ENDSEC
  0
EOF
