<?xml version="1.0" encoding="UTF-8" standalone="no"?>
<svg
   viewBox="0 0 1560.0075 1098.1906"
   width="1560.0076"
   height="1098.1906"
   version="1.1"
   id="svg118"
   sodipodi:docname="Earth Kingdom.dxf"
   xmlns:inkscape="http://www.inkscape.org/namespaces/inkscape"
   xmlns:sodipodi="http://sodipodi.sourceforge.net/DTD/sodipodi-0.dtd"
   xmlns="http://www.w3.org/2000/svg"
   xmlns:svg="http://www.w3.org/2000/svg">
  <sodipodi:namedview
     id="namedview118"
     pagecolor="#ffffff"
     bordercolor="#000000"
     borderopacity="0.25"
     inkscape:showpageshadow="2"
     inkscape:pageopacity="0.0"
     inkscape:pagecheckerboard="0"
     inkscape:deskcolor="#d1d1d1" />
  <desc
     id="desc1">Earth Kingdom.dxf - scale = 1.000000, origin = (0.000000, 0.000000), method = file</desc>
  <defs
     id="defs4" />
  <g
     inkscape:groupmode="layer"
     inkscape:label="MODELSKETCH_VISIBLE"
     id="g110"
     transform="translate(141.67903,-718.10005)">
    <path
       d="m 1139.1584,1670.1144 c -0.9893,0.469 -1.9786,0.938 -3.1727,1.1408 -1.4439,0.2454 -3.1871,0.102 -4.9303,-0.042"
       style="fill:none;stroke:#ff0000;stroke-width:2"
       id="path34" />
    <path
       d="m 1138.1971,1686.4579 c 0.8641,-0.5138 1.7282,-1.0276 2.6768,-1.236 0.9714,-0.2134 2.0314,-0.106 3.0914,0"
       style="fill:none;stroke:#ff0000;stroke-width:2"
       id="path35" />
    <path
       d="m 849.67671,1725.5253 c 2.19986,0.2502 4.39972,0.5006 5.93634,1.4488 1.34073,0.8274 2.17655,2.1862 3.01239,3.5448"
       style="fill:none;stroke:#ff0000;stroke-width:2"
       id="path36" />
    <path
       d="m 858.62544,1702.2537 c 1.84222,1.5868 3.68447,3.1736 5.52075,4.3058 1.59582,0.9838 3.18714,1.6242 4.77849,2.2646"
       style="fill:none;stroke:#ff0000;stroke-width:2"
       id="path37" />
    <path
       d="m 566.02706,1693.7969 c -0.64678,1.636 -1.2893,3.2652 -2.82072,4.0604 -1.48616,0.7716 -3.80951,0.7578 -4.63357,0.4586 -0.30902,-0.112 -0.40722,-0.2646 -0.51398,-0.4056"
       style="fill:none;stroke:#ff0000;stroke-width:2"
       id="path38" />
    <path
       d="m 564.6192,1714.0911 c 1.22868,-0.5922 2.45738,-1.1842 3.78269,-1.0656 1.57774,0.142 3.29238,1.2902 5.00704,2.439"
       style="fill:none;stroke:#ff0000;stroke-width:2"
       id="path39" />
    <path
       d="m 585.90689,1756.9412 c 0.35402,1.5264 0.70804,3.053 0,4.0036 -0.8785,1.1794 -3.39206,1.472 -5.90563,1.7646"
       style="fill:none;stroke:#ff0000;stroke-width:2"
       id="path40" />
    <path
       d="m 596.48205,1764.4948 c -1.01458,0.244 -2.02918,0.4878 -2.8196,1.0822 -0.82539,0.6206 -1.40633,1.6234 -1.98729,2.626"
       style="fill:none;stroke:#ff0000;stroke-width:2"
       id="path41" />
    <path
       d="m 625.4608,1766.6404 c 0.6691,1.2764 1.33818,2.553 1.08168,3.6596 -0.27034,1.1664 -1.56873,2.1442 -2.86713,3.1218"
       style="fill:none;stroke:#ff0000;stroke-width:2"
       id="path42" />
    <path
       d="m 541.54698,1258.2929 c 4.35827,0.7846 7.5832,1.1451 12.52862,-0.174 6.38709,-1.7036 15.64401,-6.2087 17.57487,-11.3106 1.32356,-3.4972 -0.79518,-7.2749 -4.87225,-8.5264 -5.96505,-1.8311 -16.12204,1.7453 -20.01099,6.4383 -2.71386,3.275 -2.3753,7.0938 -5.39425,8.7004"
       style="fill:none;stroke:#ff0000;stroke-width:2"
       id="path43" />
    <path
       d="m 530.06241,1252.5506 c -1.01849,-1.4866 1.82162,-3.6823 4.52422,-6.2643 3.98245,-3.8048 7.66632,-8.4483 12.70262,-10.9625 5.44085,-2.7162 12.46012,-2.9471 18.96695,-4.8723 6.74917,-1.9969 12.947,-5.8166 18.09689,-10.7885 5.38279,-5.1967 9.62072,-11.6522 15.83481,-16.7048 6.16451,-5.0123 14.27374,-8.6439 21.05509,-8.3524 6.37399,0.274 11.57482,4.0139 20.01097,0.174 11.21416,-5.1044 28.14522,-23.6025 28.01536,-21.5771 -0.101,1.5759 -10.52981,15.5756 -6.61229,20.359 5.61373,6.8546 40.68671,-5.2158 43.73131,-4.4354 2.61465,0.6701 -18.39165,10.8178 -29.63664,13.1358 -7.90598,1.6298 -10.98692,-0.6107 -16.00881,-0.696 -5.87469,-0.1 -14.40552,2.7495 -21.75107,2.7842 -6.92985,0.033 -12.80476,-2.4399 -19.48893,-1.0441 -7.86292,1.642 -16.84565,8.637 -21.75108,16.0088 -4.3357,6.5156 -5.48621,13.3256 -8.87445,19.1409 -3.45391,5.9281 -9.23314,10.8227 -14.79072,16.1828 -5.60179,5.4028 -10.9784,11.2787 -17.92291,13.2247 -6.97525,1.9546 -15.53233,-0.055 -22.4471,1.0441 -6.13087,0.9748 -10.9707,4.394 -15.8348,7.8303"
       style="fill:none;stroke:#ff0000;stroke-width:2"
       id="path44" />
    <path
       d="m 263.74005,1005.2824 c 0.56639,2.8505 9.69684,2.4875 14.37266,4.8998 3.21334,1.6578 4.32287,4.6264 3.59317,6.2064 -0.62535,1.3541 -2.60152,1.6884 -4.57313,2.6132 -2.79695,1.3119 -5.58473,3.8123 -8.81958,5.8797 -3.38757,2.165 -7.26542,3.8552 -9.47289,6.737 -2.01728,2.6335 -2.63963,6.2622 -5.55308,7.9623 -3.99937,2.3338 -12.31603,1.0335 -18.29247,0 -4.73287,-0.8184 -7.99809,-1.4695 -10.7795,-3.9251 -3.27152,-2.8884 -5.87369,-8.2732 -9.47288,-12.7341 -3.98454,-4.9385 -9.19102,-8.7446 -12.73941,-14.6993 -3.52284,-5.9119 -5.41137,-13.94162 -2.93986,-18.9458 2.19339,-4.44107 7.82077,-6.49921 11.75946,-9.47288 3.56171,-2.68906 5.74251,-6.12679 9.79953,-7.51301 4.94183,-1.68856 12.66751,-0.33322 17.96582,3.59316 5.12262,3.79621 7.97619,9.99576 9.79954,14.04603 1.20364,2.67366 1.95835,4.41076 2.93987,6.85971 1.02341,2.55346 2.29342,5.88079 5.22642,6.20639"
       style="fill:none;stroke:#ff0000;stroke-width:2"
       id="path45" />
    <path
       d="m 270.59973,991.56306 c 1.42308,-5.17055 -2.51237,-9.92302 -2.28656,-14.69932 0.22815,-4.82561 4.70394,-9.67556 4.89977,-14.37267 0.19314,-4.63274 -3.77725,-9.11681 -8.49293,-12.0861 -5.34926,-3.3682 -11.65754,-4.78726 -17.96583,-6.20632"
       style="fill:none;stroke:#ff0000;stroke-width:2"
       id="path46" />
    <path
       d="m 1143.9653,1685.2219 c 2.1491,1.4356 4.4182,-0.642 6.6873,-2.7194"
       style="fill:none;stroke:#ff0000;stroke-width:2"
       id="path47" />
    <path
       d="m 256.55372,1002.9959 c 0.99663,0.9517 1.99326,1.9034 3.1833,2.2865 1.20266,0.3872 2.60284,0.1936 4.00303,0"
       style="fill:none;stroke:#ff0000;stroke-width:2"
       id="path48" />
    <path
       d="m 858.62544,1702.2537 c -1.37988,-3.1154 -0.60722,-8.0654 2.69428,-11.8542 4.68235,-5.3732 14.45119,-8.4104 20.87566,-12.7314 5.33284,-3.5867 8.36127,-8.0581 12.77262,-10.9873 4.09596,-2.7196 9.38415,-4.1098 14.14604,-3.296 5.05973,0.8646 9.52527,4.2174 15.24472,6.0428 6.64301,2.1202 14.97757,2.1798 22.11174,0.6868 6.75617,-1.4138 12.43576,-4.22 17.85416,-8.6524 5.78717,-4.734 11.27638,-11.3232 16.34345,-15.6568 3.67681,-3.1446 7.13133,-5.1014 10.57516,-5.4936 3.28128,-0.3736 6.55285,0.6734 10.71253,1.5108 5.7888,1.1652 13.2975,1.9244 20.8757,1.7854 8.2065,-0.15 16.4944,-1.3542 24.3092,-3.5708 7.4922,-2.1252 14.5494,-5.1814 21.425,-7.1418 6.1871,-1.7638 12.2271,-2.6402 17.7168,-4.5322 5.3774,-1.853 10.2268,-4.6802 16.6182,-5.6308 7.5545,-1.1236 17.2634,0.3748 24.3091,3.1588 5.6952,2.2502 9.6504,5.3406 13.7341,8.2404 3.995,2.8368 8.113,5.4914 12.3605,9.0644 4.684,3.9402 9.5254,8.9974 11.8113,14.4206 1.5835,3.7568 1.9407,7.689 0.5494,8.9272 -1.1947,1.063 -3.6785,0.14 -6.5923,0.138 -4.2081,0 -9.3132,1.913 -13.5968,2.0602 -2.937,0.1 -5.4879,-0.63 -6.3176,1.3734"
       style="fill:none;stroke:#ff0000;stroke-width:2"
       id="path49" />
    <path
       d="m 320.14384,831.51943 c 1.74061,1.06572 3.48122,2.13144 4.62522,3.53094 1.15478,1.41273 1.70164,3.16555 2.48226,5.38465 0.98091,2.78847 2.33094,6.31319 1.90944,9.16532 -0.3849,2.60448 -2.24705,4.64812 -3.97163,6.72117 -1.58477,1.90498 -3.05338,3.8348 -4.50629,4.81181 -0.97815,0.65776 -1.94918,0.88368 -2.32951,1.87122 -0.59579,1.547 0.25798,4.96301 -0.0382,7.33227 -0.27181,2.17442 -1.51219,3.46719 -3.51338,5.07913 -3.04082,2.44932 -7.8383,5.63557 -10.23459,9.92905 -2.30278,4.12595 -2.38813,9.27442 -1.6803,13.06064 0.52659,2.81681 1.49218,4.87965 0.68739,7.25587 -0.97083,2.86645 -4.51786,6.18889 -4.77359,9.47078 -0.28286,3.62991 3.46058,7.21015 7.20401,10.79042"
       style="fill:none;stroke:#0000ff;stroke-width:2"
       id="path50" />
    <path
       d="m 1125.9439,1690.3995 c 5.5008,-0.04 11.0017,-0.08 12.2532,-3.9416"
       style="fill:none;stroke:#ff0000;stroke-width:2"
       id="path51" />
    <path
       d="m 246.75418,944.19865 c 1.73358,-3.58603 3.445,-7.13606 6.30829,-9.28438 3.45518,-2.59244 8.5877,-3.14374 15.81979,-4.11043 10.94587,-1.46308 26.70127,-3.87768 37.12243,-4.88114 6.51321,-0.62716 10.94274,-0.7031 14.33732,-2.89015 3.56906,-2.29944 5.99404,-6.93259 12.31363,-10.47739 8.2669,-4.63709 23.19837,-7.41178 27.3276,-4.32059 2.31378,1.7321 1.23582,5.30601 0.3358,8.68053"
       style="fill:none;stroke:#0000ff;stroke-width:2"
       id="path52" />
    <path
       style="fill:none;stroke:#ff0000;stroke-width:2"
       d="m 541.88287,1252.2077 0.8847,6.6001"
       id="path53"
       sodipodi:nodetypes="cc" />
    <path
       d="m 1150.6526,1682.5025 c 6.8111,-1.8602 13.5111,-3.3252 17.5926,-7.9457 4.1339,-4.6796 5.5815,-12.596 11.4328,-16.1692 6.912,-4.2208 19.9689,-2.381 27.6021,-1.3066 4.6138,0.6494 7.2461,1.0194 9.9628,-1.6332 4.6692,-4.559 9.5878,-18.0462 14.3726,-26.132 3.477,-5.8758 6.8833,-8.8994 10.2895,-11.9228"
       style="fill:none;stroke:#ff0000;stroke-width:2"
       id="path54" />
    <path
       d="m 40.426706,887.76358 c 3.824159,4.2838 7.648321,8.56761 14.248396,12.1498 8.115136,4.40446 20.4269,7.74823 24.746336,13.74796 3.484758,4.84034 1.767593,11.40936 3.818882,18.02509 2.352178,7.58615 9.659437,15.23372 14.511741,19.39991 3.023409,2.5959 5.093719,3.84018 8.152879,4.6905 3.82277,1.06258 9.18969,1.50999 14.5566,1.95739"
       style="fill:none;stroke:#0000ff;stroke-width:2"
       id="path55" />
    <path
       d="m 1241.905,1617.393 c 2.089,-0.3688 4.1779,-0.7376 6.4011,0 2.665,0.8842 5.5228,3.3582 6.5066,6.5018 1.0073,3.2186 0.05,7.1392 1.5538,9.5172 1.5431,2.4398 5.6774,3.2554 9.4201,3.7874 4.2644,0.606 8.0202,0.844 12.6248,3.7874 4.9521,3.1656 10.8858,9.4604 12.6248,8.546 1.3185,-0.6934 0.2255,-5.5314 -2.3307,-8.4488 -3.2797,-3.7434 -8.9679,-4.3256 -13.4018,-5.3414 -3.7031,-0.8484 -6.5313,-1.9992 -9.3229,-3.7874 -2.9086,-1.8632 -5.7774,-4.418 -7.4778,-7.9634 -2.0995,-4.3774 -2.4175,-10.265 -3.7874,-16.2181 -1.5394,-6.6892 -4.4068,-13.4614 -8.0606,-19.4228 -3.1892,-5.2034 -6.9776,-9.7892 -6.4531,-14.6642 0.5675,-5.2744 6.1837,-10.8872 9.0752,-16.4122 2.6111,-4.989 3.0005,-9.9065 5.7296,-14.1787 2.8709,-4.494 8.331,-8.274 13.7903,-9.8084 4.8835,-1.3728 9.7664,-0.9484 13.4017,1.9422 3.6148,2.8744 5.996,8.188 5.4384,12.2364 -0.4747,3.4465 -3.0791,5.9761 -3.7875,8.9345 -0.6529,2.727 0.3051,5.8182 2.1365,7.9634 1.8507,2.1676 4.5934,3.3694 7.4778,3.868 3.068,0.5304 6.2965,0.2652 9.525,0"
       style="fill:none;stroke:#ff0000;stroke-width:2"
       id="path56" />
    <path
       d="m 143.07623,772.1008 c 1.37501,-0.3006 2.75003,-0.6012 4.21448,-1.44083 1.77384,-1.017 3.6789,-2.82484 5.10593,-4.0783 1.01877,-0.89486 1.7939,-1.50716 2.56903,-2.11949"
       style="fill:none;stroke:#0000ff;stroke-width:2"
       id="path57" />
    <path
       d="m 1296.4558,1518.7442 c 5.2835,-0.352 10.567,-0.7038 14.0461,-3.5932 3.5036,-2.9098 5.1771,-8.3928 9.6362,-11.106 5.537,-3.3692 15.3691,-2.4672 22.539,-2.45 5.0274,0.02 8.746,-0.4108 10.9427,2.1232 2.6633,3.0722 3.0897,10.4908 6.5331,15.026 3.6798,4.8466 10.8054,6.4002 16.8225,8.1964 5.9295,1.77 10.7825,3.7754 17.3126,5.523 7.2239,1.9332 16.5003,3.5508 20.4156,8.8196 3.9622,5.3314 2.4347,14.4015 1.7967,22.7023 -0.5969,7.7652 -0.4153,14.857 -4.4099,19.4356 -4.4242,5.0712 -13.9715,7.059 -22.5389,9.473 -8.551,2.4092 -16.1258,5.2428 -22.7022,8.8196 -5.4533,2.9658 -10.2202,6.4424 -11.7595,11.9227 -1.7533,6.242 0.6804,15.0828 -0.3267,21.7224 -0.9215,6.075 -4.7236,10.307 -8.0029,16.3324 -3.8864,7.1414 -7.0385,16.8018 -12.9028,22.049 -5.3326,4.7717 -12.9079,5.8939 -20.089,6.5331 -6.9533,0.619 -13.537,0.7848 -19.673,2.2866 -5.537,1.3552 -10.7095,3.7982 -14.9521,6.043 -3.6382,1.9252 -6.5926,3.7046 -10.9428,4.5732 -6.0622,1.2104 -14.8349,0.652 -23.0289,-0.3268 -8.0873,-0.9658 -15.6108,-2.3412 -22.3756,-1.6332 -5.9168,0.6192 -11.2533,2.832 -16.4959,4.7364 -5.1186,1.8594 -10.1478,3.4248 -15.8425,4.0832 -6.4891,0.7504 -13.8422,0.3234 -21.2325,-0.6532 -7.3099,-0.9662 -14.6563,-2.47 -20.7423,-1.3066 -5.4363,1.039 -9.8671,4.206 -14.6993,7.6762 -5.2809,3.7924 -11.0413,7.947 -16.8226,10.4528 -4.885,2.1174 -9.785,3.0574 -14.0459,1.6332 -3.6124,-1.2072 -6.7654,-4.1136 -7.1864,-7.1862 -0.4471,-3.2632 2.1872,-6.7138 6.2064,-9.6362 6.0825,-4.4228 15.337,-7.6358 24.0089,-10.6162"
       style="fill:none;stroke:#ff0000;stroke-width:2"
       id="path58" />
    <path
       d="m 111.90263,770.15851 c 0.33162,-1.6501 0.66325,-3.30018 1.25215,-5.18252 0.73776,-2.35815 1.87931,-5.08079 3.02086,-7.80346"
       style="fill:none;stroke:#0000ff;stroke-width:2"
       id="path59" />
    <path
       d="m 1302.9889,1568.2319 c -3.7195,-0.715 -7.439,-1.43 -9.7996,-3.4298 -1.9642,-1.6642 -2.9875,-4.2178 -2.6131,-6.6964 0.4385,-2.903 2.7943,-5.7028 4.4097,-8.8196 1.4753,-2.8467 2.3329,-5.9577 0.9799,-8.1663 -1.6317,-2.6636 -6.4788,-4.0148 -9.3095,-7.513 -2.8581,-3.532 -3.6605,-9.253 -1.6332,-12.086 1.9911,-2.7828 6.7119,-2.7796 11.4327,-2.7766"
       style="fill:none;stroke:#ff0000;stroke-width:2"
       id="path60" />
    <path
       d="m -2.78903,822.21169 c 0.3467685,-1.70164 0.6935371,-3.4033 0,-4.94164 -0.8132093,-1.80379 -3.0567208,-3.38305 -4.0931684,-5.42283 -1.0841337,-2.13362 -0.8475793,-4.77111 -0.6110249,-7.40859"
       style="fill:none;stroke:#0000ff;stroke-width:2"
       id="path61" />
    <path
       d="m 443.20494,1113.4332 c 10.00695,-16.8685 11.07537,-9.4752 11.78081,-12.187 0.8096,-3.1122 9.88653,-5.0701 17.30483,-7.6911 7.90385,-2.7925 13.92482,-6.3379 19.22759,-9.6138 4.64336,-2.8685 8.73603,-5.5305 15.1074,-6.5923 8.70505,-1.4507 21.66375,0.086 30.76417,-0.5493 6.89419,-0.481 11.57408,-2.2081 17.03014,-4.6696 6.16565,-2.7816 13.32251,-6.5011 18.67823,-12.6353 4.89859,-5.6105 8.2904,-13.241 12.6353,-14.0086 4.31699,-0.7628 3.7648,-7.3283 13.68347,-10.1907"
       style="fill:none;stroke:#ff0000;stroke-width:2"
       id="path62"
       sodipodi:nodetypes="csssscsssc" />
    <path
       d="m 591.67516,1768.203 c 0.1776,1.8458 -2.0868,3.5294 -1.7854,4.9442 0.48626,2.2826 7.65071,3.8656 12.90996,4.5322 4.74511,0.6014 7.93929,0.457 11.12452,-0.5494 3.08266,-0.9738 6.15695,-2.7546 9.75111,-3.7082"
       style="fill:none;stroke:#ff0000;stroke-width:2"
       id="path63" />
    <path
       d="m 318.18578,826.05746 c 0.83318,2.7856 1.66637,5.57119 1.95806,5.46197 0.33765,-0.1264 -0.0503,-4.13191 1.26248,-7.67199 1.93463,-5.21699 7.56282,-9.42322 10.87678,-12.91614 2.24866,-2.37009 3.43179,-4.41175 5.82683,-5.14703 2.66671,-0.81868 6.83583,-0.018 9.42007,2.03938 2.63363,2.09655 3.62119,5.49797 3.88455,9.2258 0.28252,3.99884 -0.26828,8.37325 1.16538,11.45949 0.85766,1.84633 2.42558,3.23161 3.01052,2.81631 0.82289,-0.58422 -0.29946,-4.73171 -0.0972,-8.15759 0.22318,-3.77835 2.05771,-6.67899 3.39899,-9.32296 1.13076,-2.22896 1.911,-4.27551 4.37013,-5.53551 4.00378,-2.05148 12.45804,-2.01804 18.64588,-1.35956 5.26309,0.56008 8.88658,1.57232 13.20751,2.91341 4.60862,1.43038 10.01067,3.23486 14.5671,4.95278 4.33495,1.63443 7.90451,3.19047 13.40174,3.78749 6.11821,0.66446 14.62422,0.141 17.18917,1.4567 1.12168,0.57538 1.1072,1.50248 2.23366,2.42782 2.87918,2.36507 13.212,4.71845 19.90835,8.25468 5.89947,3.1154 8.97645,7.14889 12.62482,10.97384 3.65807,3.8351 7.89053,7.46055 12.07708,11.70205 4.71629,4.77817 9.37429,10.33816 13.98444,16.12093 4.61243,5.78565 9.17694,11.79432 13.79018,16.31518 3.91585,3.83745 7.86681,6.60293 10.4883,11.26524 3.35184,5.96121 4.53023,15.02339 3.88459,24.86114 -0.66071,10.06718 -3.23147,20.94653 -8.1576,25.05546 -3.34758,2.79224 -7.78287,2.45792 -10.68255,5.82687 -4.60881,5.35463 -5.33833,20.06453 -3.88455,30.49377 1.2028,8.62867 3.90011,14.32716 8.54603,19.22861 4.79917,5.0631 11.67764,9.2756 19.42279,11.2652 8.648,2.2215 18.37647,1.6716 27.96883,1.1654 9.11235,-0.4809 18.10187,-0.9224 25.24966,-0.777 5.39082,0.1096 9.73407,0.5532 14.17864,2.3308 4.05954,1.6236 8.20361,4.3603 9.12871,7.7691 0.8331,3.0698 -0.9444,6.6848 -4.55988,8.5858 -3.85515,2.027 -9.80008,2.1054 -10.45282,3.5932 -0.81474,1.857 -9.66526,5.9737 -16.79192,14.6236"
       style="fill:none;stroke:#ff0000;stroke-width:2"
       id="path64"
       sodipodi:nodetypes="csssscssscssssssssssssssssssssssssssc" />
    <path
       d="m 585.90689,1756.9412 c -0.1946,-1.6388 2.22859,-2.3778 3.29617,-4.395 2.0622,-3.8964 -0.93386,-12.5627 -4.25757,-20.0517 -3.32946,-7.5018 -6.98773,-13.8222 -11.53656,-17.03"
       style="fill:none;stroke:#ff0000;stroke-width:2"
       id="path65" />
    <path
       d="m 214.30646,784.74248 c 3.36742,0.96026 6.73485,1.9205 10.43783,1.64814 4.53564,-0.33362 9.57473,-2.51651 14.97006,-5.21895 6.45995,-3.23572 13.43061,-7.21631 20.46366,-9.88845 6.70581,-2.54783 13.46834,-3.90617 20.32631,-3.70819 6.51076,0.188 13.10755,1.77858 17.99154,4.80691 4.06691,2.5217 6.94619,6.04027 7.96572,10.16313 0.9132,3.69287 0.33435,7.87053 2.60946,10.02582 2.53027,2.397 8.59053,2.29256 12.08591,4.25752 2.72258,1.53053 3.88905,4.31653 3.26522,7.0552 -0.7715,3.38692 -4.28122,6.70145 -5.77444,10.39397 -1.48685,3.67677 -0.9744,7.72831 -0.46195,11.77988"
       style="fill:none;stroke:#ff0000;stroke-width:2"
       id="path66" />
    <path
       style="fill:none;stroke:#ff0000;stroke-width:2"
       d="m 526.92377,1257.9336 4.7261,-9.1539"
       id="path67"
       sodipodi:nodetypes="cc" />
    <path
       d="m -111.75096,908.44897 c -4.28102,-2.91223 -8.56207,-5.82447 -10.88279,-11.01766 -2.83769,-6.35003 -2.74439,-16.11042 -1.61685,-23.09777 0.95715,-5.93141 2.65955,-9.86456 6.23639,-15.47547 5.05793,-7.93421 13.86403,-19.22321 21.018957,-25.9092 5.245028,-4.90125 9.602755,-7.32889 14.089622,-11.08692 5.366008,-4.49434 10.916697,-10.89145 15.013523,-20.78795 5.613909,-13.56126 8.497814,-33.69345 16.39941,-45.27159 5.48209,-8.03287 13.379465,-11.94822 20.095027,-11.54888 4.810026,0.28604 9.013764,2.78559 11.779845,1.61683 2.51184,-1.06135 3.83816,-5.14765 6.698338,-7.1603 3.3145594,-2.33236 8.6890418,-1.87988 12.70376402,-3.46464 5.23002418,-2.0645 8.15245878,-7.58637 19.40210198,-11.08694 23.799777,-7.40579 84.870262,-5.76473 100.013192,-0.9238 4.53929,1.45112 4.95163,3.18978 8.08421,3.92659 6.35626,1.49504 23.91222,-1.13471 36.95638,1.84784 11.26742,2.57628 19.16842,9.34009 23.55969,14.39406 2.93732,3.38061 4.30429,5.99617 5.90562,10.84988 2.34871,7.11909 5.20162,19.05309 9.75113,24.7212 3.09363,3.85426 6.97175,4.81124 10.84986,5.76823"
       style="fill:none;stroke:#ff0000;stroke-width:2"
       id="path68" />
    <path
       d="m 575.4793,1253.3074 c 1.02454,0.047 1.68892,-0.5774 1.3822,-1.3069"
       style="fill:none;stroke:#ff0000;stroke-width:2"
       id="path69" />
    <path
       d="m 476.2883,1562.1519 c -10.57049,1.7066 -16.51184,5.5768 -20.78799,10.6248 -3.73089,4.4044 -6.19415,9.7052 -8.31517,15.7066 -2.04741,5.7928 -3.77591,12.2384 -8.3152,14.3204 -5.5371,2.5398 -15.25654,-1.413 -24.48357,-2.7716 -8.9175,-1.3132 -17.37505,-0.2034 -22.6358,-4.1576 -4.79569,-3.6048 -6.93483,-11.4178 -11.54886,-15.2446 -4.64603,-3.853 -11.80136,-3.6644 -18.94017,-4.1574 -7.79827,-0.5388 -15.57684,-1.891 -23.09772,-1.386 -6.65477,0.447 -13.1078,2.3482 -17.09233,6.0054 -3.02956,2.7808 -4.63208,6.5768 -6.92932,7.8532 -2.08531,1.1588 -4.74308,0.2416 -8.31517,2.3098"
       style="fill:none;stroke:#ff0000;stroke-width:2"
       id="path70" />
    <path
       d="m 390.11959,1031.6185 c 6.48711,-4.2364 12.97422,-8.4728 16.3457,-14.1312 3.41319,-5.7284 3.63313,-12.9142 2.74679,-21.97439 -1.08588,-11.09964 -3.83219,-25.0125 0.27468,-33.2363 3.3828,-6.77387 11.41526,-9.68789 18.67823,-12.63526 6.58199,-2.67102 12.53204,-5.36944 15.10738,-10.71251 3.12099,-6.47511 1.28582,-16.83421 -0.54934,-27.19329"
       style="fill:none;stroke:#ff0000;stroke-width:2"
       id="path71" />
    <path
       d="m 458.07393,1098.025 c -9.38567,5.3066 -8.17281,10.1024 -10.82089,10.7786 -2.41753,0.6173 -3.79593,6.3151 -7.41637,9.6138 -4.63413,4.2223 -12.94154,4.5139 -18.95293,6.0429 -3.82195,0.9722 -6.71579,2.4446 -7.96572,1.0987 -1.6824,-1.8115 -0.38646,-8.7288 -0.54936,-14.558 -0.173,-6.1901 -1.99106,-11.1531 -5.76827,-15.3821 -3.96996,-4.4448 -10.10415,-8.0787 -14.00866,-11.5365 -2.66968,-2.3643 -4.29699,-4.6462 -4.12022,-7.4164 0.2127,-3.3333 3.03752,-7.3734 2.19744,-12.0859 -1.12094,-6.288 -8.76706,-13.7731 -9.33912,-19.7769 -0.48692,-5.1104 4.15141,-9.1475 8.78976,-13.1847"
       style="fill:none;stroke:#ff0000;stroke-width:2"
       id="path72"
       sodipodi:nodetypes="cssssssssssc" />
    <path
       d="m 442.72303,911.73555 c 3.54759,-2.8373 7.09519,-5.67462 11.26186,-6.86703 4.09958,-1.17322 8.79849,-0.75408 12.08594,-4.12022 3.03264,-3.10525 4.86412,-9.43174 3.8455,-10.16312 -0.94716,-0.68008 -4.35866,3.47765 -7.41635,5.76829 -3.18016,2.38238 -5.97761,2.74518 -9.61379,3.29615 -4.21723,0.63902 -9.5627,1.53118 -12.6353,5.2189 -3.83831,4.60671 -4.12981,13.57594 -4.39485,20.8757 -0.21672,5.96861 -0.41574,10.82109 -3.84553,13.734 -4.11344,3.49354 -12.87404,4.19718 -18.40355,9.06439 -4.3503,3.82923 -6.70071,10.23556 -7.96571,9.88852 -1.02048,-0.27998 -1.33462,-4.95479 -3.02148,-7.69105 -1.87621,-3.04341 -5.45059,-3.68865 -8.78978,-5.21895 -3.94198,-1.80655 -7.55621,-4.84653 -11.81121,-7.96572 -5.05185,-3.7033 -11.00698,-7.51823 -15.38209,-12.90992 -3.08484,-3.80162 -5.38419,-8.38711 -6.31765,-7.73039 -1.10332,0.7762 -0.29844,8.87604 2.19744,13.77334 2.63807,5.17629 7.16526,6.77477 11.81124,10.16314 5.36133,3.91005 10.88084,10.20358 15.79187,13.45932 3.63874,2.4123 6.94345,3.15691 9.47869,6.31763 3.17403,3.95709 5.14205,11.70116 4.39487,17.30489 -0.649,4.86743 -3.34655,8.12001 -4.66957,12.63526 -1.55188,5.29637 -1.21254,12.33002 -2.1974,18.40352 -0.94746,5.8429 -3.12045,10.7971 -7.00659,15.6568 -4.11797,5.1495 -10.15958,10.1929 -15.79187,11.0267 -5.16047,0.7639 -9.97731,-2.0059 -15.65676,-4.0372 -6.78663,-2.4272 -14.805,-3.7999 -22.24907,-6.1655 -7.43171,-2.3617 -14.29103,-5.713 -21.15036,-9.0644"
       style="fill:none;stroke:#ff0000;stroke-width:2"
       id="path73" />
    <path
       d="m 315.27153,1016.3886 c -4.39728,-1.5415 -8.79457,-3.0829 -13.31328,-5.2265 -4.81179,-2.2826 -9.76127,-5.2478 -13.39271,-9.1462 -3.17754,-3.41113 -5.34594,-7.53666 -10.12618,-7.18632"
       style="fill:none;stroke:#ff0000;stroke-width:2"
       id="path74" />
    <path
       d="m 246.75418,944.19865 c -3.91866,-1.38117 -7.83731,-2.76231 -12.47501,-3.16803 -5.7902,-0.50656 -12.70121,0.50734 -19.81126,3.16803 -7.21042,2.69822 -14.62554,7.09007 -19.81126,5.76648 -5.04781,-1.2884 -7.98322,-7.99229 -12.81905,-14.76132 -5.67552,-7.94441 -13.96873,-15.97852 -13.20751,-23.46826 0.70025,-6.88975 9.06237,-13.31882 10.09986,-20.42729 0.69824,-4.78406 -1.92115,-9.87587 -3.4961,-9.71143 -1.68636,0.176 -2.17527,6.37837 -4.66148,10.87679 -3.04204,5.50413 -9.07427,8.45736 -10.87676,13.98441 -2.09351,6.41939 1.51876,16.3108 3.10764,23.69583 1.22175,5.67863 1.24714,9.87534 -1.55382,14.04479 -3.60148,5.36106 -11.87571,10.67707 -19.56995,12.75866 -7.33519,1.98444 -14.14324,1.02928 -21.21794,0.77692 -7.01627,-0.25028 -14.29479,0.1906 -20.588172,3.49608 -6.887178,3.61731 -12.594555,10.66516 -18.257442,17.09211 -4.76849,5.41187 -9.505433,10.38349 -15.538244,8.54601 -6.270802,-1.90994 -13.941734,-11.17682 -16.235338,-10.17459 -1.543498,0.67444 -0.651757,5.99947 1.501349,8.54617 2.299573,2.71996 6.037955,2.27076 9.354588,3.2337 3.539748,1.02773 6.599092,3.66399 8.199695,7.73774 1.759767,4.47885 1.756251,10.69525 -0.600457,13.61465 -1.934273,2.3961 -5.453738,2.5712 -9.128718,0.9711 -5.163142,-2.2481 -10.633249,-8.0003 -15.538244,-9.3229 -3.785848,-1.0209 -7.235046,0.597 -10.682537,-1.55383 -3.790234,-2.36462 -7.578406,-9.28455 -9.322951,-9.12877 -1.24217,0.111 -1.448244,3.80914 -0.388464,6.60381 1.31574,3.46959 4.582633,5.54649 7.769126,6.60369 3.063013,1.0163 6.051733,1.0905 9.128718,2.3308 3.686854,1.486 7.500426,4.6461 11.459458,7.1864 3.340397,2.1434 6.784349,3.8454 6.409524,7.1864 -0.484807,4.3214 -7.358296,11.3847 -11.847913,10.9157 -4.191048,-0.4378 -6.304749,-7.4395 -10.099855,-9.7503 -4.466763,-2.7197 -11.262748,1.0587 -19.422807,-0.9711 -9.19061,-2.2862 -20.1115971,-11.9403 -22.1419862,-10.8768 -1.3106481,0.6865 1.0833276,5.839 3.884548,9.5172 3.169189,4.1613 6.8596427,6.4357 11.2652256,6.798 4.8767276,0.401 10.6297206,-1.5409 16.1209316,0.1942 6.060785,1.915 11.802666,8.3094 13.790193,13.9844 1.665687,4.756 0.694467,9.0067 -2.330744,13.5961 -4.174072,6.3321 -12.258419,13.309 -21.170849,15.5382 -9.6952867,2.425 -20.3705214,-0.7683 -31.076488,-0.1942 -11.803381,0.6329 -23.644115,5.8451 -35.737964,12.2363 -11.659502,6.1617 -23.554281,13.4194 -33.795677,9.5172 -11.555238,-4.4028 -21.005696,-23.0124 -29.911106,-33.213 -5.84091,-6.6904 -11.44736,-9.7633 -13.59596,-13.596 -1.49362,-2.6643 -1.31628,-5.6956 -1.06896,-9.2298"
       style="fill:none;stroke:#ff0000;stroke-width:2"
       id="path75" />
    <path
       d="m -129.13598,1035.1689 c 0.33236,-1.7046 0.66472,-3.4092 0,-5.7164 -1.16797,-4.0538 -5.41425,-9.9678 -7.60908,-15.9242 -2.14556,-5.8228 -2.3307,-11.6862 -3.1032,-16.57755 -0.6609,-4.18471 -1.75172,-7.65791 0.57164,-12.33114 4.37103,-8.792 20.82639,-21.83144 32.62917,-29.05819 8.765175,-5.36685 14.964405,-7.52795 22.530457,-8.54603 5.793089,-0.7795 12.387459,-0.8889 13.401741,-4.46725 1.143322,-4.03362 -4.803688,-12.47504 -4.078786,-17.48048 0.778201,-5.37363 9.245934,-6.7872 18.840107,-8.54608 14.213578,-2.60576 30.899418,-5.96943 44.478233,-9.12877 11.01154963,-2.56203 19.9798656,-4.98969 28.692149,-8.26684 8.105071,-3.04876 15.988551,-6.83271 23.210255,-11.36239 6.75687,-4.23815 12.93441,-9.12912 16.800728,-15.14977 3.729798,-5.80805 5.308712,-12.6674 8.351801,-19.32567 3.099701,-6.78215 7.718562,-13.35566 8.546037,-20.10261 0.740325,-6.03635 -1.554168,-12.2115 0.388457,-17.48055 2.108227,-5.71818 9.206766,-10.36917 13.401735,-15.63534 3.655617,-4.58909 5.106294,-9.64534 9.614291,-12.3335 5.354725,-3.19308 15.023125,-3.04494 21.753535,-3.69033 5.50722,-0.5281 9.04731,-1.5875 14.08153,-4.4672 4.58548,-2.62301 10.41059,-6.75629 9.71141,-7.47781 -0.86098,-0.88849 -11.61507,3.39644 -17.9661,4.7586 -4.44964,0.95435 -6.73798,0.474 -8.93449,-1.84514 -1.84949,-1.95276 -3.63389,-5.20925 -4.27301,-4.85575 -0.72202,0.39934 0.0176,5.40575 -1.26248,8.1576 -1.39272,2.99406 -5.17624,3.31918 -8.74027,4.37014 -3.948167,1.16426 -7.626982,3.21929 -10.876769,5.04995 -2.959331,1.66704 -5.562895,3.14803 -8.448918,5.24413 -3.453923,2.50856 -7.312401,5.89813 -10.682542,9.42003 -3.712728,3.87993 -6.832789,7.92046 -7.769118,15.44117 -1.253652,10.06947 1.407364,26.37768 -0.679806,30.97941 -0.707733,1.56038 -1.961417,1.77476 -3.398991,1.06822 -2.894512,-1.42262 -6.534522,-6.57867 -10.779659,-9.6143 -4.425537,-3.16464 -9.508725,-4.02482 -14.761325,-5.34123 -5.624227,-1.40954 -11.442688,-3.34214 -16.994946,-5.92396 -5.290319,-2.46001 -10.3389604,-5.50943 -14.8584475,-6.79798 -2.60736608,-0.74338 -5.0386139,-0.9007 -5.4383885,0 -0.4028286,0.90759 1.25699,2.88943 3.10765086,4.56435 2.36929174,2.14433 5.05137584,3.78561 7.57489384,4.95285 2.2588853,1.04484 4.3907173,1.70984 6.7979823,2.52496 2.709183,0.91736 5.767219,2.02485 8.643146,3.10765 2.880336,1.08448 5.578003,2.14418 8.740263,2.9134 3.719436,0.90476 8.081611,1.40766 12.139253,3.88459 4.604808,2.81094 8.81741,8.16421 9.614285,13.30462 0.715846,4.61773 -1.324716,9.06369 -3.690331,12.72194 -2.266196,3.5045 -4.830698,6.28609 -8.448916,8.74027 -4.320922,2.93081 -10.144599,5.39467 -15.732468,7.28357 -5.918689,2.00075 -11.572824,3.35643 -18.6458952,5.53553 -8.6265235,2.65769 -19.3637058,6.54015 -27.5803748,8.74022 -6.422468,1.71964 -11.305002,2.41138 -17.383415,3.20478 -7.567806,0.98782 -16.989341,2.13319 -27.094827,4.07877 -9.752195,1.87758 -20.141371,4.50043 -25.249619,3.69034 -2.594424,-0.41144 -3.826626,-1.70838 -6.11821,-2.42788 -3.533025,-1.10928 -9.584178,-0.84598 -15.635348,-0.58268"
       style="fill:none;stroke:#ff0000;stroke-width:2"
       id="path76" />
    <path
       d="m 270.59973,991.56306 c 0.71106,0.92952 1.42211,1.85902 2.52415,2.40636 1.36938,0.68012 3.34243,0.77014 5.31548,0.86016"
       style="fill:none;stroke:#ff0000;stroke-width:2"
       id="path77" />
    <path
       d="m 849.67671,1725.5253 c -3.33589,0.3882 -7.90164,-5.392 -12.6248,-6.4096 -5.01181,-1.0798 -10.20084,3.2028 -14.76139,6.021 -4.37636,2.7044 -8.17401,4.0602 -13.98438,4.4672 -7.38637,0.5178 -18.02543,-0.4976 -23.6958,1.1654 -3.56074,1.0444 -5.16218,3.1448 -6.21529,6.9922 -1.44966,5.2963 -1.86032,13.9027 1.35961,17.6749 2.63942,3.092 7.71839,2.9358 10.87673,4.8556 2.99963,1.8234 4.26687,5.5192 8.1576,6.9922 6.05857,2.2938 18.47862,-0.8026 26.02656,1.1654 4.03268,1.0514 6.67459,3.5486 5.63263,4.8558 -1.81377,2.2754 -14.79007,0.9456 -22.53048,0.3884 -5.46679,-0.3936 -8.32187,-0.4018 -11.071,-1.9422 -2.64574,-1.4826 -5.19335,-4.3842 -8.35183,-6.2154 -3.08062,-1.786 -6.74237,-2.5536 -9.71138,-1.9422 -2.82994,0.5826 -5.03052,2.418 -7.57491,4.8556 -3.36282,3.2218 -7.32623,7.496 -12.04212,10.0998 -3.16292,1.7466 -6.66435,2.7416 -6.79797,1.9424 -0.1938,-1.1592 6.69727,-6.0934 11.26524,-9.7114 3.98017,-3.1526 6.19659,-5.306 7.38065,-8.546 1.05374,-2.8834 1.28986,-6.6276 -0.38848,-8.9346 -1.41132,-1.9398 -4.1764,-2.8636 -4.27302,-4.6614 -0.125,-2.3278 4.22402,-6.1212 5.04994,-9.3231 0.69762,-2.7044 -1.1185,-4.987 -3.69032,-6.6036 -3.56775,-2.2428 -8.58978,-3.2044 -14.17864,-3.302 -6.64012,-0.116 -14.08037,0.988 -20.39396,2.525 -5.74627,1.399 -10.55927,3.1568 -16.31518,4.8558 -6.13417,1.8106 -13.33924,3.5544 -17.86897,7.3807 -3.78577,3.1978 -5.70281,7.85 -8.74027,10.294 -2.86907,2.3086 -6.73775,2.6468 -11.26518,4.273 -5.94419,2.1354 -13.0239,6.4912 -18.84015,8.7404 -4.28389,1.6566 -7.88237,2.1702 -11.26524,-0.194 -3.42504,-2.394 -6.62909,-7.7386 -8.54603,-7.769 -1.55578,-0.024 -2.26377,3.4512 -2.66639,7.1252"
       style="fill:none;stroke:#ff0000;stroke-width:2"
       id="path78" />
    <path
       d="m 562.55916,1085.1947 c 0.9489,2.7348 1.8978,5.4696 1.99454,9.0377 0.1014,3.7437 -0.7351,8.4047 -1.99454,9.9911 -0.72142,0.9088 -1.58163,0.8086 -3.09187,1.2716 -3.51558,1.0779 -10.55369,5.2074 -13.07934,12.5344 -2.93896,8.526 0.23224,21.3817 -0.54498,24.5238 -0.25788,1.0425 -0.95046,1.0157 -1.99822,1.8166 -2.87967,2.2011 -8.4424,10.6544 -9.62786,17.984 -1.21086,7.4867 2.14497,13.801 4.90475,20.709 2.80868,7.0304 5.00003,14.6758 3.26983,21.7989 -1.83749,7.5648 -8.09784,14.5407 -10.89946,22.3439 -2.83103,7.8851 -2.1303,16.615 -1.4296,25.3449"
       style="fill:none;stroke:#0000ff;stroke-width:2"
       id="path79" />
    <path
       d="m 637.47709,1772.3232 c 0.1532,2.892 -0.0248,5.6058 1.65643,7.78 2.3475,3.036 8.31969,5.0202 14.3729,5.827 6.19173,0.8252 12.46822,0.4186 15.92668,3.1076 3.09087,2.4032 3.93089,7.279 6.40955,11.2652 2.88819,4.6448 8.0012,8.0817 13.98439,10.6825 6.33013,2.7518 13.63426,4.568 19.22859,4.2732 4.12288,-0.2174 7.31715,-1.5814 10.29411,-2.9134 3.25345,-1.4558 6.24737,-2.8736 12.04212,-4.2732 8.47403,-2.0466 22.93768,-4.0545 26.60924,-6.2153 1.2209,-0.7186 1.24846,-1.454 2.13655,-2.1364 1.62318,-1.2476 6.12113,-2.3186 9.90561,-1.9424 4.35907,0.4334 7.77161,2.7868 12.6248,4.4672 7.05671,2.4434 17.15925,3.4641 28.1631,2.9134 13.42721,-0.6716 28.19645,-3.6826 41.81137,-5.3896 11.05874,-1.3866 21.35589,-1.9128 27.11208,-6.2064 4.78403,-3.5686 6.43137,-9.7394 8.32958,-17.3126 2.26978,-9.0556 4.89822,-20.1162 -1.30661,-27.4386 -6.85959,-8.0953 -24.51507,-11.6217 -28.15214,-18.2925"
       style="fill:none;stroke:#ff0000;stroke-width:2"
       id="path80" />
    <path
       d="m 706.38834,1189.1263 c 5.39749,-2.1463 10.795,-4.2926 17.13125,-5.7985 7.13359,-1.6953 15.45704,-2.5789 22.47893,-4.4957 6.11869,-1.6704 11.2491,-4.1252 15.54265,-7.8356 3.62012,-3.1284 6.64531,-7.1493 9.24849,-8.2209 1.53904,-0.6335 2.93057,-0.2361 4.32209,0.1612"
       style="fill:none;stroke:#ff0000;stroke-width:2"
       id="path81" />
    <path
       d="m 625.4608,1766.6404 c -1.30759,-0.7904 -1.57447,-2.2976 -2.33479,-3.7936 -0.96852,-1.9058 -2.73778,-3.793 -5.63093,-4.5322 -4.05862,-1.0372 -10.32909,0.184 -14.0087,2.472 -2.7465,1.7074 -4.04957,4.0082 -7.00433,3.7082"
       style="fill:none;stroke:#ff0000;stroke-width:2"
       id="path82" />
    <path
       d="m 826.24397,1159.1431 c 2.82202,1.3752 5.64403,2.7503 7.70451,5.0443 2.1812,2.4285 3.50903,5.8865 4.88115,9.0922 1.4822,3.4628 3.01608,6.6312 6.67949,10.0192 4.14853,3.8367 11.02792,7.9553 11.04678,10.7899 0.014,2.0489 -3.55667,3.427 -4.88109,6.4226 -1.98318,4.4856 1.06934,12.5981 3.5966,17.7263 1.72985,3.51 3.21359,5.622 2.05521,8.2208 -1.81301,4.0676 -10.09834,9.3279 -16.69865,12.3314 -5.56685,2.5331 -9.93501,3.4608 -14.384,3.3397 -4.18457,-0.114 -8.44061,-1.1557 -12.93926,-1.7983 -4.45213,-0.636 -9.14184,-0.8811 -12.75354,-1.0276 -2.90137,-0.1178 -5.10705,-0.172 -8.22089,0.7707 -5.12931,1.5528 -12.7229,5.8107 -19.52459,10.9897 -6.49177,4.9431 -12.2622,10.7253 -16.95553,11.3608 -3.41493,0.4624 -6.25961,-1.7999 -10.27616,-3.3397 -5.03404,-1.9299 -11.9089,-2.725 -16.95552,-0.7707 -4.82693,1.8691 -7.98138,6.2534 -12.07444,9.7623 -4.24467,3.6388 -9.49876,6.3361 -13.35892,10.0191 -3.57983,3.4156 -5.96085,7.6788 -10.53304,9.7624 -5.73823,2.6148 -14.92778,1.7962 -22.60742,0.7706 -7.16545,-0.957 -13.0164,-2.0942 -19.52459,-2.569 -6.21925,-0.4536 -13.03866,-0.3022 -17.98318,0 -3.38629,0.207 -5.89319,0.4848 -8.4001,0.7624"
       style="fill:none;stroke:#0000ff;stroke-width:2"
       id="path83" />
    <path
       d="m 566.02706,1693.7969 c 0.004,-3.5366 1.52632,-6.0232 1.30662,-9.3096 -0.29008,-4.3386 -3.61712,-10.0713 -6.53303,-15.0261 -2.68172,-4.5568 -5.01568,-8.4556 -9.79953,-9.7994 -6.70037,-1.8822 -18.20685,1.248 -26.94872,3.593 -7.26153,1.9482 -12.61552,3.3544 -18.61913,2.2866 -6.37959,-1.1346 -13.4927,-5.063 -18.94581,-9.4728"
       style="fill:none;stroke:#ff0000;stroke-width:2"
       id="path84" />
    <path
       d="m 755.85016,1262.4248 c -0.25194,1.7205 -0.50386,3.441 0,5.8015 0.89846,4.2093 4.20011,10.4536 7.74639,16.7423 3.66565,6.5002 7.59267,13.0477 10.04532,16.9583 1.49224,2.3792 2.4387,3.7822 3.13974,6.5862 1.12934,4.517 1.62182,12.6694 2.90653,18.7108 1.10126,5.1786 2.78464,8.8062 6.90303,12.0802 5.73661,4.5602 16.19776,8.4344 23.61545,13.0792 5.87027,3.6758 9.83446,7.8343 14.26009,9.0829 3.66664,1.0346 7.65003,0.072 11.53523,1.2716 5.12941,1.5844 10.0877,6.9384 15.80425,12.6252 6.62013,6.5858 14.25718,13.618 19.98231,18.3474 3.80313,3.1418 6.76257,5.2676 7.90207,8.992 1.3303,4.3484 0.1802,10.8756 1.36248,16.2584 1.17355,5.3431 4.64513,9.5583 5.81301,14.9869 1.04453,4.855 0.2463,10.6806 -1.90738,12.716 -1.83164,1.731 -4.64369,0.7208 -9.26453,0.8174 -7.76878,0.162 -20.65028,3.454 -25.34122,6.9938 -2.51823,1.9004 -2.67607,3.8722 -5.99469,4.6322 -5.97377,1.3682 -22.18928,-1.1906 -24.52374,1.09 -1.42488,1.392 2.32162,4.587 5.17723,7.5388 3.53388,3.653 5.70339,6.9334 8.44705,11.172 3.08236,4.7616 6.88939,10.7323 10.80866,13.9877 3.17866,2.64 6.43115,3.494 10.17281,5.6312 4.27679,2.4432 9.1927,6.563 12.50256,8.6288 1.93887,1.2102 3.32665,1.7154 4.71513,2.2224"
       style="fill:none;stroke:#0000ff;stroke-width:2"
       id="path85" />
    <path
       d="m 564.6192,1714.0911 c -2.96704,1.8374 -4.50019,7.0724 -6.72967,11.5364 -2.30582,4.617 -5.35649,8.4094 -8.78977,11.262 -3.19955,2.6582 -6.73139,4.5005 -11.12454,5.4937 -5.26975,1.1912 -11.77884,1.161 -17.71685,2.1974 -5.44199,0.9498 -10.4043,2.7956 -13.18464,7.1416 -2.62068,4.0966 -3.30276,10.4146 0,13.322 4.66033,4.1024 17.25455,1.4144 26.50664,-0.9614 7.69351,-1.9756 13.07606,-3.7352 18.26619,-1.648 4.74897,1.9098 9.33681,7.0402 13.734,6.867 4.46835,-0.176 8.7398,-5.8292 14.4207,-6.5924"
       style="fill:none;stroke:#ff0000;stroke-width:2"
       id="path86" />
    <path
       d="m 819.8345,1460.1971 c 0.1308,-1.9692 0.26178,-3.9386 0,-5.9946 -0.31764,-2.495 -1.21338,-5.1176 -3.54233,-8.0838 -3.73942,-4.7626 -11.17371,-10.411 -16.7125,-15.4408 -4.52003,-4.1048 -7.77773,-7.7978 -11.62608,-9.7189 -3.29743,-1.646 -7.02847,-1.991 -10.9903,-1.7256 -4.57157,0.3062 -9.45037,1.4252 -14.62344,2.3615 -5.35463,0.9692 -11.02456,1.7424 -15.80421,1.4534 -4.33824,-0.2624 -7.94305,-1.3998 -12.80686,-2.6343 -5.87186,-1.49 -13.57868,-3.1216 -18.43824,-4.8138 -3.19969,-1.1142 -5.16501,-2.2548 -7.99292,-2.0892 -4.00756,0.235 -9.74745,3.093 -15.48734,5.9512"
       style="fill:none;stroke:#0000ff;stroke-width:2"
       id="path87" />
    <path
       d="m 508.16315,1597.7223 c 1.07952,-5.33 -1.32978,-9.081 0,-13.8586 1.4768,-5.306 7.56513,-11.878 5.54347,-16.1684"
       style="fill:none;stroke:#ff0000;stroke-width:2"
       id="path88" />
    <path
       d="m 884.95868,1446.6637 c 1.64864,1.4784 3.29729,2.957 5.55497,3.3076 2.8658,0.445 6.71295,-0.9276 10.40456,-0.5138 4.38624,0.4914 8.55291,3.5046 13.87272,4.881 6.76255,1.7498 15.38852,0.8548 23.76347,-0.2568 8.78082,-1.1654 17.28571,-2.5688 25.81874,-3.982 7.93898,-1.3148 15.90231,-2.6382 22.35056,-3.436 4.93227,-0.6104 8.97811,-0.9132 13.23044,0 4.16686,0.8948 8.53206,2.9572 12.07446,3.9498 2.8886,0.8094 5.2301,0.9076 8.3493,-1.2844 6.6841,-4.6974 16.939,-19.9114 26.8463,-28.0024 7.4149,-6.0557 14.6352,-8.1213 19.7815,-8.9917 3.1438,-0.5318 5.5136,-0.6174 8.0925,0.5138 3.4276,1.5034 7.2244,5.1564 12.0744,7.707 5.9381,3.1231 13.455,4.5937 20.6807,5.7805 7.396,1.2148 14.4871,2.1322 22.3505,2.569 7.0695,0.3926 14.7632,0.3968 17.9831,2.6974 1.8697,1.336 2.2309,3.4464 2.5921,5.5568"
       style="fill:none;stroke:#0000ff;stroke-width:2"
       id="path89" />
    <path
       d="m 511.58388,1552.2325 c 0.58132,-1.1462 -0.9813,-3.0917 -0.4042,-4.9085 0.73352,-2.3092 4.9239,-4.4104 7.39127,-2.9448 2.82134,1.6756 5.68838,10.4413 7.44991,11.4641 2.89204,1.6792 15.18183,11.1923 28.0044,21.4532"
       style="fill:none;stroke:#ff0000;stroke-width:2"
       id="path90"
       sodipodi:nodetypes="cscsc" />
    <path
       d="m 856.5559,1194.0887 c 1.06424,1.4333 2.1285,2.8666 4.5649,4.6172 4.41439,3.1718 13.33324,7.3854 19.09443,9.4708 4.01251,1.4524 6.49331,1.8725 10.08182,2.2913 5.16425,0.6029 12.6226,1.2033 21.38571,1.0693 10.7298,-0.164 23.41572,-1.429 32.07861,-1.222 5.84391,0.1396 9.85704,0.949 14.51177,1.6803 4.95716,0.7787 10.64199,1.4688 16.192,3.5134 5.34227,1.968 10.55962,5.191 13.13696,7.9432 1.62244,1.7325 2.19872,3.2785 2.90237,5.3465 0.83664,2.4588 1.85336,5.6558 4.73538,7.1795 4.15491,2.1966 12.18665,0.9156 17.87235,0.3055 4.3175,-0.4634 7.2823,-0.5398 10.2346,1.222 3.3313,1.988 6.6467,6.3166 8.4016,10.0818 1.4457,3.102 1.8322,5.8216 4.5826,7.6378 3.9985,2.6402 12.9928,3.371 18.1779,4.8882 3.6885,1.0792 5.4493,2.5563 8.9326,3.3084 5.8755,1.2687 16.6518,0.4747 27.1031,-0.1284 11.1406,-0.6428 21.9119,-1.0686 30.6999,-2.4405 6.7609,-1.0555 12.3479,-2.6709 18.1116,-2.0553 5.8174,0.6214 11.8147,3.5154 17.4694,6.2941 5.5424,2.7236 10.7556,5.3364 15.9689,7.9491"
       style="fill:none;stroke:#0000ff;stroke-width:2"
       id="path91" />
    <path
       d="m 524.4125,1609.8339 c 2.89872,1.6982 2.30678,12.0339 5.87975,17.6393 3.30708,5.1882 10.18225,6.3242 15.35258,4.2464 4.74369,-1.9064 8.05229,-6.518 7.51299,-11.1062 -0.55464,-4.7186 -5.17915,-9.4123 -3.59314,-13.7193 1.66632,-4.5254 10.18833,-8.6238 14.37266,-6.2064 3.91981,2.2644 4.03299,10.247 6.53299,12.086 2.43574,1.7919 7.13717,-2.248 12.08612,-4.8998 4.96749,-2.6616 10.18435,-3.925 10.7795,-7.5128 0.81652,-4.9226 -7.06674,-14.2206 -13.71937,-20.579 -5.3623,-5.1252 -9.92509,-8.3406 -14.37266,-7.1864 -4.00675,1.0398 -7.91997,5.6258 -12.0861,4.8998 -5.17573,-0.902 -10.74179,-10.0022 -15.02596,-13.3928 -2.39202,-1.893 -4.38441,-2.006 -4.89977,-3.9198 -1.156,-4.2926 -0.62677,4.5731 -8.67148,-6.697"
       style="fill:none;stroke:#ff0000;stroke-width:2"
       id="path92"
       sodipodi:nodetypes="csssssssssssssc" />
    <path
       d="m 300.28352,1584.3257 c 0.7818,1.7094 1.5636,3.4188 2.59367,4.6194 0.86622,1.0098 1.90801,1.6598 2.94981,2.3098"
       style="fill:none;stroke:#ff0000;stroke-width:2"
       id="path93" />
    <path
       d="m 471.78814,1644.1458 c -7.56958,-4.0672 -18.76301,-5.7344 -31.19519,-2.9398 -15.67577,3.5236 -33.32098,14.141 -44.75123,21.8856 -7.81814,5.2972 -12.72868,9.2504 -21.06902,9.9628 -10.24111,0.8748 -25.65348,-3.137 -35.11501,1.3066 -8.22757,3.8643 -11.95528,14.1223 -18.29248,19.2725 -6.13638,4.987 -14.71949,5.1848 -22.53894,10.6162 -8.17452,5.678 -15.51445,17.0754 -13.71936,23.5188 1.42527,5.116 8.60936,7.109 15.35262,7.6764 7.22067,0.6074 13.93588,-0.4196 19.59907,1.7966 5.14145,2.012 9.41579,6.6973 13.71936,8.6563 4.00576,1.8234 8.03685,1.2848 14.046,0.49 10.28722,-1.3608 26.3715,-3.4722 40.66811,-6.5331 13.72202,-2.9378 25.79716,-6.75 37.30833,-6.9228 9.33176,-0.14 18.29287,2.1118 24.8964,-1.4232 6.70907,-3.5914 10.98458,-13.156 16.03091,-20.1392 4.48168,-6.2016 9.57133,-10.3674 14.00866,-14.6952 3.94773,-3.8504 7.37913,-7.8294 12.77264,-9.7512 6.76487,-2.4104 16.61645,-1.5846 25.27056,0.6868 8.77191,2.3022 16.3135,6.0896 24.72118,7.9656 6.33469,1.4134 13.16106,1.7418 14.55804,2.3348 0.2944,0.124 0.34768,0.2616 0.51398,0.4056"
       style="fill:none;stroke:#ff0000;stroke-width:2"
       id="path94" />
    <path
       d="m 511.58388,1552.2325 c 0.1042,2.7918 0.20852,5.5838 0.58132,8.2254 0.35316,2.5024 0.94728,4.87 1.54142,7.2374"
       style="fill:none;stroke:#ff0000;stroke-width:2"
       id="path95" />
    <path
       d="m 457.69085,1118.9667 c -3.35718,2.1381 -6.69763,4.2656 -10.28255,6.9057 -4.09683,3.0171 -8.51292,6.7037 -13.7467,8.5264 -5.62493,1.9589 -12.19436,1.7648 -18.61889,1.5661 -6.18451,-0.1912 -12.23476,-0.3869 -17.22687,1.7401 -4.22027,1.798 -7.68429,5.2559 -11.13656,5.3942 -3.37604,0.1352 -6.74087,-2.9041 -11.13654,-4.0022 -5.25414,-1.3124 -11.98111,0.1488 -16.70484,2.6102 -4.06173,2.1164 -6.64233,4.9722 -9.74446,7.8304 -3.18418,2.9337 -6.91783,5.87 -9.57048,9.0484 -2.40594,2.8828 -3.92262,5.9648 -5.39426,9.3965 -1.35093,3.1501 -2.6639,6.5949 -1.21806,9.0484 1.8129,3.0764 7.96326,4.594 12.35462,7.3084 4.12708,2.551 6.70051,6.1589 9.22245,8.7004 1.89264,1.9073 3.75627,3.2139 4.87223,5.2203 1.0579,1.902 1.44386,4.4328 1.39206,6.2643 -0.0394,1.3944 -0.33262,2.3834 -0.69602,3.6542 -0.5045,1.764 -1.1443,4.0712 -0.69604,7.1343 0.63162,4.316 3.42348,10.1327 2.95814,13.9207 -0.3428,2.7906 -2.45324,4.4802 -2.95814,7.1344 -0.55486,2.9167 0.82922,6.9982 1.39206,9.2224 0.33014,1.3045 0.37776,1.9701 0.69604,3.1322 0.5082,1.8554 1.70645,4.9768 3.30617,7.4823 1.75482,2.7485 3.99274,4.756 6.96033,6.9604 3.71392,2.7587 8.57065,5.8257 12.35464,9.2224 3.4474,3.0946 6.00441,6.4628 9.04845,9.0485 2.91475,2.4757 6.27603,4.2343 9.57048,6.7863 3.56032,2.758 7.04259,6.4429 10.44049,8.8745 2.83409,2.028 5.60949,3.1842 8.87446,3.4802 3.87152,0.3508 8.43141,-0.508 13.39864,-0.348 5.80595,0.186 12.16842,1.7656 18.27091,1.218 5.86325,-0.5262 11.48651,-3.0152 15.8348,-5.9162 3.76585,-2.5127 6.57539,-5.3343 9.22244,-8.7007 2.78112,-3.5366 5.38284,-7.6746 8.70043,-10.9624 3.50073,-3.4693 7.79853,-5.992 13.57268,-7.6564 6.60483,-1.9038 15.14134,-2.6844 19.66299,-5.3943 2.97155,-1.7808 4.20913,-4.3949 6.96033,-5.3942"
       style="fill:none;stroke:#ff0000;stroke-width:2"
       id="path96" />
    <path
       d="m 508.16315,1597.7223 c 2.66635,1.6958 5.33269,3.3918 7.96877,5.3462 2.78267,2.0632 5.53163,4.4142 8.28058,6.7654"
       style="fill:none;stroke:#ff0000;stroke-width:2"
       id="path97" />
    <path
       d="m 517.88183,1276.7378 c -4.85291,7.4102 -9.7058,14.8204 -12.85032,23.1271 -2.86829,7.5768 -4.31515,15.8992 -2.21479,21.9014 1.70135,4.8622 5.73017,8.2018 10.08952,10.3356 3.95291,1.935 8.17757,2.8784 11.8121,1.2304 4.30232,-1.9506 7.77771,-7.5322 13.0425,-10.3356 6.12717,-3.2624 14.67798,-2.7618 22.14767,-4.1834 7.58223,-1.4428 14.05054,-4.8662 20.91728,-10.0894 8.34173,-6.3452 17.27142,-15.3462 28.05372,-19.6869 7.23173,-2.9112 15.29686,-3.726 15.25728,-2.2148 -0.05,1.911 -13.05862,7.5413 -20.91725,13.0427 -7.29337,5.1056 -10.151,10.1004 -15.25728,14.765 -5.22553,4.7736 -12.80598,9.2014 -19.68683,10.3356 -5.88623,0.9702 -11.26052,-0.4696 -16.24163,0.9844 -5.47579,1.5984 -10.47644,6.694 -13.78078,14.0268 -3.95297,8.772 -5.47835,20.7455 -2.21476,28.0537 2.61484,5.8556 8.30397,8.7164 14.27296,11.0738 6.92339,2.7346 14.22332,4.792 23.37811,6.6444 10.71754,2.1684 23.97724,4.0556 31.74501,10.0894 6.41637,4.9842 9.08548,12.7974 12.55034,18.9486 2.65029,4.705 5.76613,8.4377 10.33556,8.3669 6.10515,-0.094 14.80508,-6.9779 22.39379,-7.8747 7.62134,-0.9006 14.12185,4.2372 23.3781,5.1678 7.96881,0.8013 17.98011,-1.5158 17.71815,-0.9844 -0.3004,0.6096 -14.1109,4.9651 -22.63986,5.6601 -6.81409,0.5552 -10.25695,-1.2264 -14.7651,-1.9688 -4.35809,-0.7176 -9.71169,-0.4642 -13.7808,1.9688 -4.10919,2.457 -6.90845,7.1368 -7.87475,11.812 -0.83594,4.0446 -0.30012,8.0858 2.46088,10.3356 3.52101,2.8692 10.66084,2.8254 15.50338,7.6286 4.61993,4.5824 7.14898,13.5764 5.41389,14.7652 -2.02874,1.3898 -9.88701,-7.8912 -17.96426,-11.8122 -8.73506,-4.2402 -17.72619,-2.2122 -25.10068,1.4766 -6.25687,3.1296 -11.34998,7.4546 -13.04254,12.5502 -1.66957,5.0266 -0.0304,10.8026 2.21476,17.4723 1.88954,5.6132 4.20825,11.8592 3.1991,12.058 -1.1312,0.2232 -6.44407,-7.1524 -10.58165,-11.5658 -3.40125,-3.6282 -6.00833,-5.2545 -5.41387,-9.1053 0.78464,-5.0828 7.14731,-14.0412 5.16779,-17.7182 -2.51473,-4.671 -18.49233,-0.8188 -29.77635,-0.7382 -10.15354,0.072 -16.50685,-2.9086 -24.11636,0 -9.58751,3.6646 -21.16919,16.6788 -27.31548,26.8233 -4.27135,7.0498 -5.91765,12.7136 -3.19908,18.2104 3.8145,7.7126 16.22248,15.0962 28.63046,22.4798"
       style="fill:none;stroke:#ff0000;stroke-width:2"
       id="path98" />
    <path
       d="m 471.78814,1644.1458 c 3.6493,2.4876 7.29861,4.9752 9.94229,7.2196 1.95068,1.656 3.35387,3.1796 4.75703,4.7032"
       style="fill:none;stroke:#ff0000;stroke-width:2"
       id="path99" />
    <path
       d="m 544.99153,1530.8842 c 4.37239,3.8406 8.55497,9.8054 11.80382,15.035 2.64232,4.2535 4.66703,8.0207 8.44857,9.4075 4.39157,1.6108 11.15256,0.02 17.05213,-0.152 5.76225,-0.16 10.70273,1.0492 16.24026,-0.9534 5.19017,-1.8772 10.90484,-6.5759 12.0214,-7.7285 0.27262,-0.2814 0.27114,-0.3514 0.56938,-0.6336 1.68755,-1.5972 12.97134,-9.9916 22.2629,-15.7598 9.75709,-6.0572 17.31728,-9.2182 28.30422,-10.1774 14.47258,-1.2638 34.8911,1.2928 51.7165,7.019 14.20886,4.8356 25.85524,11.9318 35.35244,11.643 7.24337,-0.2202 13.23658,-4.736 20.23533,-7.6994 11.38038,-4.8186 25.41952,-5.5322 57.24549,0"
       style="fill:none;stroke:#ff0000;stroke-width:2"
       id="path100" />
    <path
       style="fill:none;stroke:#ff0000;stroke-width:2"
       d="M 285.96291,1619.4414 H 275.33789"
       id="path101" />
    <path
       style="fill:none;stroke:#ff0000;stroke-width:2"
       d="m 538.8301,1529.8012 6.16201,1.08"
       id="path102" />
    <path
       d="m 826.24397,1530.8842 c 6.22695,-2.1978 12.4539,-4.3956 19.18397,-7.0186 6.99009,-2.7242 14.52294,-5.9068 19.87641,-9.5152 4.07403,-2.7462 6.88593,-5.7386 10.10574,-7.7942 3.46316,-2.2108 7.39827,-3.3378 14.30442,-3.6564 8.06547,-0.372 20.18319,0.3584 20.07641,1.5642 -0.1258,1.421 -17.22885,3.5026 -27.03824,7.1446 -8.10724,3.0098 -11.23248,7.0858 -15.50899,11.1526 -4.19184,3.9866 -9.48981,7.9646 -15.33692,10.082 -6.09297,2.2064 -12.7822,2.3926 -19.71701,2.9052 -7.20199,0.5326 -14.66884,1.4172 -21.46668,1.1068 -6.33999,-0.2896 -12.09805,-1.6188 -18.67838,-0.84 -7.20768,0.853 -15.40187,4.235 -20.927,8.0788 -4.65666,3.2396 -7.41737,6.8073 -12.01962,10.4615 -5.35652,4.2532 -13.2077,8.6238 -16.72508,13.6462 -2.62507,3.7484 -2.83627,7.86 -1.1943,11.9636 2.10998,5.2734 7.28011,10.5338 13.2994,14.741 6.66591,4.6592 14.37324,8.0268 21.32165,11.7572 6.37833,3.4244 12.11714,7.1545 16.95755,11.5493 4.50748,4.0926 8.23589,8.7616 13.98894,10.9934 6.48699,2.5166 15.54812,1.9346 22.52133,2.1166 5.48761,0.144 9.68218,0.7596 13.96105,-1.157 4.57138,-2.0478 9.23901,-6.9864 13.77046,-8.127 4.18268,-1.0528 8.24935,1.1304 13.61566,0.4488 8.35943,-1.062 19.87263,-9.0762 29.46384,-14.9903 7.5391,-4.6486 13.89067,-7.9996 15.50407,-13.297 1.45308,-4.771 -0.93708,-11.1208 -3.87703,-16.1072 -2.88712,-4.8968 -6.30447,-8.4786 -10.50045,-12.042 -3.95399,-3.3578 -8.59938,-6.6994 -7.53312,-12.022 1.21249,-6.0527 9.81042,-14.6669 11.13742,-14.5773 0.91764,0.062 -1.64156,4.286 -1.90032,8.564 -0.38808,6.4163 4.39861,12.9539 9.63961,17.2181 4.80223,3.907 9.9859,5.9054 12.24392,11.1602 2.43273,5.6614 1.46951,15.1026 5.45333,18.4406 4.14283,3.4714 13.63544,0.3426 20.41277,-3.9726 6.89225,-4.3884 10.97632,-10.0038 15.15045,-15.2648 3.7007,-4.6644 7.47219,-9.0502 12.01638,-11.891 4.44284,-2.7776 9.62431,-4.0782 15.70032,-3.8256 8.08487,0.336 17.75347,3.422 28.28637,4.2994 11.1849,0.9318 23.3444,-0.627 31.9314,-4.6102 7.1382,-3.311 11.8077,-8.2976 18.9987,-11.6655 8.3113,-3.8924 19.991,-5.6224 29.1998,-5.8618 7.5273,-0.196 13.4036,0.6046 19.8733,1.0178 6.099,0.3894 12.7252,0.4348 17.6469,-1.145 4.1005,-1.3162 7.0177,-3.7606 11.22,-4.9786 5.0693,-1.4694 12.0084,-1.1548 17.6431,-2.7876 5.2576,-1.5236 9.3795,-4.7428 12.1967,-9.6468 3.5392,-6.161 5.0191,-14.9808 3.8938,-24.2324 -1.2203,-10.0318 -5.5039,-20.5713 -11.1355,-26.6243 -4.6115,-4.9564 -10.1267,-6.9048 -15.1803,-12.001 -5.8074,-5.8568 -11.005,-15.871 -7.3212,-24.4852 5.5575,-12.9958 31.3289,-22.8053 50.7145,-28.4831 16.3227,-4.7808 28.1181,-6.6326 40.7145,-6.5496 11.3201,0.074 23.2873,1.7114 32.8431,5.5268 7.9963,3.1928 14.3042,7.911 20.7594,10.626 6.028,2.5352 12.1844,3.3239 20.2458,1.9048 11.8001,-2.0774 27.6816,-8.8846 39.825,-17.674 10.2963,-7.4526 17.9051,-16.33 20.4336,-23.7422 1.4134,-4.1434 1.2394,-7.8288 -1.0098,-9.7354 -2.639,-2.2372 -8.1347,-2.0254 -13.4547,-0.722 -7.3101,1.7908 -14.2884,5.6426 -23.3035,10.204 -8.1006,4.0984 -17.8457,8.7698 -19.2374,7.199 -1.0724,-1.2104 2.8142,-6.1264 6.8885,-10.0616 5.29,-5.1092 10.8967,-8.5648 17.7491,-10.3676 6.9137,-1.8188 15.0956,-1.955 20.6032,-3.652 3.5876,-1.1056 6.0405,-2.8732 6.2801,-6.2753 0.3438,-4.8804 -3.8672,-13.124 -9.2928,-15.7292 -5.6099,-2.694 -12.5184,0.6398 -19.4982,1.1326 -7.5622,0.5338 -15.2081,-2.2672 -21.4939,-7.9776 -7.2937,-6.6262 -12.7561,-17.1694 -19.5558,-23.8842 -5.36,-5.2932 -11.5509,-8.2074 -18.2799,-5.8082 -9.4212,3.359 -19.8973,17.134 -30.1871,22.4134 -8.3417,4.2798 -16.5611,2.9764 -24.6869,-1.0502 -8.8457,-4.3832 -17.5807,-11.9934 -21.5213,-19.8542 -3.0364,-6.0574 -3.2261,-12.2637 -5.5919,-16.4627 -1.8624,-3.3056 -5.0735,-5.3672 -8.7773,-6.2497 -4.2042,-1.0018 -9.0432,-0.4843 -13.5831,-2.8708 -3.4821,-1.8304 -6.7882,-5.3693 -5.5678,-5.9756 1.9693,-0.9784 15.7253,5.6792 20.9897,3.4258 6.0192,-2.5764 0.9373,-16.8021 -0.528,-27.798 -1.4482,-10.8669 0.6358,-18.5792 3.2544,-26.9588 2.6087,-8.3478 5.7479,-17.3578 11.8135,-24.2213 4.7413,-5.365 11.2706,-9.4186 10.7932,-12.4352 -0.4562,-2.8835 -7.3143,-4.8196 -11.9091,-9.1933 -5.9056,-5.6214 -8.0722,-15.2696 -13.6423,-20.774 -4.904,-4.8461 -12.4462,-6.4802 -18.3603,-5.8327 -5.2391,0.5736 -9.2005,2.9377 -14.6691,3.6579 -6.8504,0.9021 -16.0659,-0.7757 -23.4917,-3.3129 -5.8483,-1.9982 -10.5865,-4.5295 -11.9087,-8.6442 -1.4162,-4.407 1.086,-10.6304 -1.2129,-16.8363 -3.0218,-8.1572 -14.3385,-16.2843 -23.3774,-17.4358 -8.1659,-1.0403 -14.4727,3.6127 -22.5861,7.5113 -9.3465,4.4912 -21.0906,7.9812 -30.6585,7.6074 -7.9897,-0.3122 -14.4619,-3.3187 -21.1498,-6.152 -6.255,-2.6498 -12.6985,-5.1482 -17.0466,-8.9792 -3.9104,-3.4454 -6.1259,-7.9686 -8.3964,-13.1282 -2.27302,-5.1656 -4.60113,-10.9691 -8.68955,-12.9799 -4.15307,-2.0427 -10.12256,-0.1718 -15.99391,1.9962 -7.11409,2.6269 -14.08408,5.6903 -22.43937,7.5123 -9.79872,2.1367 -21.50272,2.5662 -32.28107,4.1407 -9.62132,1.4054 -18.50505,3.7232 -25.23158,5.991 -4.79337,1.6161 -8.49132,3.2069 -11.43348,6.5344 -3.37471,3.8167 -5.75511,9.9184 -8.18431,15.2707 -2.29877,5.065 -4.64123,9.4588 -9.51222,12.2569 -6.96173,3.9991 -19.08841,4.7386 -31.21511,5.4781"
       style="fill:none;stroke:#ff0000;stroke-width:2"
       id="path103" />
    <path
       d="m 300.28352,1584.3257 c 4.23557,-10.4104 4.52183,-18.6052 9.70106,-25.4076 5.19226,-6.8194 15.30212,-12.2397 23.55969,-13.8587 6.55949,-1.286 11.95015,-0.174 17.09232,2.3098 5.6564,2.7315 11.01211,7.1209 18.47818,9.7011 8.49018,2.9342 19.70934,3.5284 26.79339,3.2338 4.60982,-0.192 7.46863,-0.7602 11.08691,2.7716 4.65447,4.5434 10.5657,15.8714 10.62396,15.6442 0.0596,-0.2322 -5.99507,-12.535 -4.53221,-19.2276 1.43237,-6.553 10.07224,-7.7268 16.06877,-10.0258 5.45773,-2.0923 8.72579,-5.1165 14.42072,-6.1803 6.92381,-1.2934 17.43489,0.3112 23.07312,2.3348 3.19442,1.1464 4.82468,2.4272 6.45495,3.7083"
       style="fill:none;stroke:#ff0000;stroke-width:2"
       id="path104" />
    <path
       d="m 523.72238,1553.4171 c 0.9506,1.5504 1.90118,3.101 3.36356,4.2024 1.6266,1.225 3.88637,1.8942 6.14615,2.5634"
       style="fill:none;stroke:#ff0000;stroke-width:2"
       id="path105" />
    <path
       d="m 847.8544,1139.0023 c -4.3576,-0.048 -8.71511,-0.097 -11.92966,2.9522 -4.0727,3.863 -6.31073,12.698 -9.68077,17.1886 -2.40266,3.2015 -5.38073,4.1948 -8.80703,4.794 -3.51649,0.6151 -7.50512,0.815 -10.561,-0.1548 -2.97883,-0.9453 -5.07137,-3.0021 -9.56652,-3.0339 -6.70141,-0.047 -18.74265,4.4063 -22.19767,2.1885 -1.8905,-1.2135 -1.21032,-4.4243 -2.34482,-6.2528 -1.30425,-2.1022 -5.00691,-2.3772 -8.12876,-3.4391 -3.33758,-1.1353 -6.01129,-3.1698 -7.65971,-6.5655 -2.07282,-4.27 -2.52452,-10.6922 -5.20995,-15.0767 -2.62254,-4.2818 -7.37545,-6.6204 -11.68712,-9.7393 -4.22508,-3.0562 -8.02649,-6.8619 -9.46105,-11.1306 -1.57634,-4.6906 -0.29486,-9.9403 1.94786,-17.5307 2.85699,-9.6695 7.27389,-23.1376 4.79251,-28.2201 -1.49334,-3.0588 -5.48515,-3.0803 -9.32449,-4.5315 -5.30191,-2.004 -10.3131,-6.7341 -16.29425,-11.1969 -6.75307,-5.0386 -14.74264,-9.7363 -21.25985,-13.5353 -5.16747,-3.0121 -9.40932,-5.4592 -14.70093,-5.9105 -5.94043,-0.5066 -13.20384,1.502 -19.86645,2.0146 -6.68887,0.5145 -12.77216,-0.4788 -20.11647,0.6231 -7.77893,1.1671 -16.97253,4.6848 -21.08673,8.071 -2.38043,1.9593 -3.06045,3.8745 -4.64299,5.9644 -2.15298,2.8431 -5.97637,6.0092 -9.50243,10.2671 -4.55927,5.5054 -8.62142,12.836 -14.64119,18.24 -6.28525,5.6422 -14.70456,9.1841 -23.36577,10.2067 -9.06954,1.0708 -18.40431,-0.6209 -27.93029,-1.2595 -9.95165,-0.6672 -20.11201,-0.1852 -30.36408,3.0125 -10.40358,3.245 -20.90162,9.2866 -27.89421,14.4647 -4.77319,3.5346 -7.91297,6.6667 -10.94701,9.7222 -2.63059,2.6492 -5.18167,5.2406 -7.73272,7.8321"
       style="fill:none;stroke:#ff0000;stroke-width:2"
       id="path106" />
    <path
       d="m 285.96294,1619.4342 c -0.96657,3.9952 0.28477,5.9694 2.30977,8.3152 2.22096,2.5728 5.37257,5.5928 8.77714,5.5434 4.17775,-0.06 8.73641,-4.7428 12.93473,-8.777 4.11132,-3.9508 7.87708,-7.28 12.47276,-8.3152 4.46233,-1.0052 9.70711,0.152 13.85865,2.7716 4.37463,2.76 7.53537,7.1428 10.62497,11.549 3.04925,4.3484 6.02923,8.7196 6.92933,13.6246 0.86518,4.7146 -0.1912,9.9224 -3.69564,13.6306 -4.30167,4.5518 -12.29179,6.8438 -18.94016,9.701 -6.261,2.6908 -11.33206,5.8824 -17.55429,6.9294 -5.53095,0.9306 -11.97148,0.166 -14.32059,-4.1576 -2.56449,-4.7204 -0.25287,-13.6832 -2.77173,-17.5542 -2.4001,-3.6888 -9.1859,-2.7546 -15.70645,-3.6958 -7.65663,-1.1052 -14.94753,-4.796 -21.71187,-4.8534 -4.77517,-0.04 -9.28793,1.73 -11.08691,0 -1.82939,-1.7592 -0.85249,-7.138 1.8478,-11.315 3.28008,-5.0738 9.10305,-8.3744 13.85864,-9.701 4.02625,-1.123 7.28741,-0.8312 11.54887,-3.6956"
       style="fill:none;stroke:#ff0000;stroke-width:2"
       id="path107" />
    <path
       style="fill:none;stroke:#ff0000;stroke-width:2"
       d="m 637.63225,1766.6416 -0.156,5.68"
       id="path108" />
    <path
       d="m 570.49201,1248.8378 c -0.5668,0.018 -0.77788,0.2845 -0.60366,0.73"
       style="fill:none;stroke:#ff0000;stroke-width:2"
       id="path109" />
    <path
       d="m 1131.0554,1671.213 c -4.1845,-1.328 -8.6524,4.434 -12.7727,7.6913 -3.6827,2.9112 -7.0878,3.8216 -11.1245,4.2574 -4.4432,0.4798 -9.6518,0.385 -14.4207,-0.5494 -4.8768,-0.9552 -9.2937,-2.7882 -14.6953,-3.4334 -5.6456,-0.6744 -12.3668,-0.05 -16.2062,3.0214 -3.7651,3.0132 -4.7589,8.3816 -8.3777,13.4594 -4.637,6.5064 -13.5841,12.5356 -18.6782,18.1288 -3.4649,3.8044 -5.1473,7.407 -8.5151,8.515 -3.5787,1.1776 -9.0605,-0.4614 -13.5966,-0.138 -4.9262,0.352 -8.7372,3.0194 -15.38212,4.5322 -9.04742,2.0596 -23.3485,1.9786 -29.66541,-1.9228 -3.94033,-2.4336 -4.77407,-6.3538 -7.82841,-8.515 -4.08269,-2.8892 -12.133,-2.6358 -20.60097,-1.6482 -10.41184,1.2144 -21.4551,3.539 -30.62685,6.1804 -7.58013,2.1828 -13.88194,4.5822 -21.28768,1.5106 -7.55237,-3.1322 -16.2528,-11.9542 -17.85416,-13.1846 -0.2586,-0.198 -0.33206,-0.2 -0.49812,-0.2948"
       style="fill:none;stroke:#ff0000;stroke-width:2"
       id="path110" />
    <path
       style="fill:none;stroke:#ff0000"
       d="m 475.71785,1562.6632 0.38308,-0.7661 1.27693,-2.2985 0.38308,-4.597 -4.21388,-5.2354 c -1.7877,-1.1492 -4.46926,-2.4262 -4.46926,-2.4262"
       id="path118" />
    <text
       xml:space="preserve"
       style="font-size:32px;fill:none;stroke:#0000ff"
       x="-106.43568"
       y="872.35345"
       id="text118"><tspan
         sodipodi:role="line"
         id="tspan118"
         x="-106.43568"
         y="872.35345">The Abby</tspan></text>
    <path
       style="fill:none;stroke:#0000ff"
       d="m 155.023,764.8717 9.39044,-5.77873 10.83514,-8.30694 6.86225,-5.59815 3.97288,-3.43113"
       id="path119" />
    <text
       xml:space="preserve"
       style="font-size:32px;fill:none;stroke:#0000ff"
       x="111.86306"
       y="827.89606"
       id="text119"><tspan
         sodipodi:role="line"
         id="tspan119"
         x="111.86306"
         y="827.89606">republic</tspan><tspan
         sodipodi:role="line"
         x="111.86306"
         y="867.89606"
         id="tspan120">city</tspan></text>
    <text
       xml:space="preserve"
       style="font-size:32px;fill:none;stroke:#0000ff"
       x="-99.783188"
       y="1003.4252"
       id="text121"><tspan
         sodipodi:role="line"
         id="tspan121"
         x="-99.783188"
         y="1003.4252">Yu Dao</tspan></text>
    <text
       xml:space="preserve"
       style="font-size:20px;fill:none;stroke:#0000ff"
       x="294.61563"
       y="966.58575"
       id="text122"><tspan
         sodipodi:role="line"
         id="tspan122"
         x="294.61563"
         y="966.58575"
         style="font-size:20px">Makapu</tspan><tspan
         sodipodi:role="line"
         x="294.61563"
         y="991.58575"
         id="tspan123"
         style="font-size:20px">Village</tspan></text>
    <text
       xml:space="preserve"
       style="font-size:26.6667px;fill:none;stroke:#0000ff"
       x="414.52441"
       y="1010.6486"
       id="text124"><tspan
         sodipodi:role="line"
         id="tspan124"
         x="414.52441"
         y="1010.6486"
         style="font-size:26.6667px">Pohual</tspan><tspan
         sodipodi:role="line"
         x="414.52441"
         y="1043.9821"
         id="tspan125"
         style="font-size:26.6667px">Stronghold</tspan></text>
    <text
       xml:space="preserve"
       style="font-size:32px;fill:none;stroke:#0000ff"
       x="381.29666"
       y="1191.9565"
       id="text126"><tspan
         sodipodi:role="line"
         id="tspan126"
         x="381.29666"
         y="1191.9565"
         style="font-size:32px">Hie Bai's</tspan><tspan
         sodipodi:role="line"
         x="381.29666"
         y="1231.9565"
         id="tspan128"
         style="font-size:32px">Forest</tspan><tspan
         sodipodi:role="line"
         x="381.29666"
         y="1271.9565"
         id="tspan127"
         style="font-size:32px" /></text>
    <text
       xml:space="preserve"
       style="font-size:32px;fill:none;stroke:#0000ff"
       x="567.66095"
       y="1122.6116"
       id="text129"><tspan
         sodipodi:role="line"
         id="tspan129"
         x="567.66095"
         y="1122.6116">The Great</tspan><tspan
         sodipodi:role="line"
         x="567.66095"
         y="1162.6116"
         id="tspan130">Divide</tspan></text>
    <text
       xml:space="preserve"
       style="font-size:26.6667px;fill:none;stroke:#0000ff"
       x="610.17883"
       y="1228.873"
       id="text131"><tspan
         sodipodi:role="line"
         id="tspan131"
         x="610.17883"
         y="1228.873"
         style="font-size:26.6667px">Kolau Mountains</tspan></text>
    <text
       xml:space="preserve"
       style="font-size:29.3333px;fill:none;stroke:#0000ff"
       x="899.27637"
       y="1176.7743"
       id="text132"><tspan
         sodipodi:role="line"
         id="tspan132"
         x="899.27637"
         y="1176.7743"
         style="font-size:29.3333px">Full Moom Bay</tspan></text>
    <text
       xml:space="preserve"
       style="font-size:34.6667px;fill:none;stroke:#0000ff"
       x="864.54376"
       y="1319.7906"
       id="text134"><tspan
         sodipodi:role="line"
         id="tspan134"
         x="864.54376"
         y="1319.7906">Si Wong Desert</tspan></text>
    <text
       xml:space="preserve"
       style="font-size:34.6667px;fill:none;stroke:#0000ff"
       x="587.70483"
       y="1346.3508"
       id="text135"><tspan
         sodipodi:role="line"
         id="tspan135"
         x="587.70483"
         y="1346.3508">Omashu</tspan></text>
    <text
       xml:space="preserve"
       style="font-size:32px;fill:none;stroke:#0000ff"
       x="625.50208"
       y="1504.6906"
       id="text136"><tspan
         sodipodi:role="line"
         id="tspan136"
         x="625.50208"
         y="1504.6906"
         style="font-size:32px">Chin Village</tspan></text>
    <text
       xml:space="preserve"
       style="font-size:34.6667px;fill:none;stroke:#0000ff"
       x="932.98737"
       y="1512.8629"
       id="text137"><tspan
         sodipodi:role="line"
         id="tspan137"
         x="932.98737"
         y="1512.8629">Gaoling</tspan></text>
    <text
       xml:space="preserve"
       style="font-size:24px;fill:none;stroke:#0000ff"
       x="344.94867"
       y="1695.1831"
       id="text138"><tspan
         sodipodi:role="line"
         id="tspan138"
         x="344.94867"
         y="1695.1831"
         style="font-size:24px">Whale Tail</tspan><tspan
         sodipodi:role="line"
         x="344.94867"
         y="1725.1831"
         id="tspan139"
         style="font-size:24px">Island</tspan></text>
    <text
       xml:space="preserve"
       style="font-size:21.3333px;fill:none;stroke:#0000ff"
       x="670.95587"
       y="1784.2771"
       id="text140"><tspan
         sodipodi:role="line"
         id="tspan140"
         x="670.95587"
         y="1784.2771"
         style="font-size:21.3333px">Kyoshi</tspan></text>
    <text
       xml:space="preserve"
       style="font-size:21.3333px;fill:none;stroke:#0000ff"
       x="781.11304"
       y="1794.3899"
       id="text141"><tspan
         sodipodi:role="line"
         id="tspan141"
         x="781.11304"
         y="1794.3899"
         style="font-size:21.3333px">Island</tspan></text>
    <text
       xml:space="preserve"
       style="font-size:21.3333px;fill:none;stroke:#0000ff"
       x="977.95135"
       y="1670.5082"
       id="text142"><tspan
         sodipodi:role="line"
         id="tspan142"
         x="977.95135"
         y="1670.5082">Kangaroo</tspan><tspan
         sodipodi:role="line"
         x="977.95135"
         y="1697.1748"
         id="tspan143">Island</tspan></text>
  </g>
</svg>
