  0
SECTION
  2
HEADER
  9
$ACADVER
  1
AC1014
  9
$ACADMAINTVER
 70
     9
  9
$DWGCODEPAGE
  3
ANSI_1252
  9
$INSBASE
 10
0.0
 20
0.0
 30
0.0
  9
$EXTMIN
 10
1.000000000000000E+20
 20
1.000000000000000E+20
 30
1.000000000000000E+20
  9
$EXTMAX
 10
-1.000000000000000E+20
 20
-1.000000000000000E+20
 30
-1.000000000000000E+20
  9
$LIMMIN
 10
0.0
 20
0.0
  9
$LIMMAX
 10
420.0
 20
297.0
  9
$ORTHOMODE
 70
     0
  9
$REGENMODE
 70
     1
  9
$FILLMODE
 70
     1
  9
$QTEXTMODE
 70
     0
  9
$MIRRTEXT
 70
     1
  9
$DRAGMODE
 70
     2
  9
$LTSCALE
 40
1.0
  9
$OSMODE
 70
    37
  9
$ATTMODE
 70
     1
  9
$TEXTSIZE
 40
2.5
  9
$TRACEWID
 40
1.0
  9
$TEXTSTYLE
  7
STANDARD
  9
$CLAYER
  8
0
  9
$CELTYPE
  6
BYLAYER
  9
$CECOLOR
 62
   256
  9
$CELTSCALE
 40
1.0
  9
$DELOBJ
 70
     1
  9
$DISPSILH
 70
     0
  9
$DIMSCALE
 40
1.0
  9
$DIMASZ
 40
2.5
  9
$DIMEXO
 40
0.625
  9
$DIMDLI
 40
3.75
  9
$DIMRND
 40
0.0
  9
$DIMDLE
 40
0.0
  9
$DIMEXE
 40
1.25
  9
$DIMTP
 40
0.0
  9
$DIMTM
 40
0.0
  9
$DIMTXT
 40
2.5
  9
$DIMCEN
 40
2.5
  9
$DIMTSZ
 40
0.0
  9
$DIMTOL
 70
     0
  9
$DIMLIM
 70
     0
  9
$DIMTIH
 70
     0
  9
$DIMTOH
 70
     0
  9
$DIMSE1
 70
     0
  9
$DIMSE2
 70
     0
  9
$DIMTAD
 70
     1
  9
$DIMZIN
 70
     8
  9
$DIMBLK
  1

  9
$DIMASO
 70
     1
  9
$DIMSHO
 70
     1
  9
$DIMPOST
  1

  9
$DIMAPOST
  1

  9
$DIMALT
 70
     0
  9
$DIMALTD
 70
     3
  9
$DIMALTF
 40
0.03937007874016
  9
$DIMLFAC
 40
1.0
  9
$DIMTOFL
 70
     1
  9
$DIMTVP
 40
0.0
  9
$DIMTIX
 70
     0
  9
$DIMSOXD
 70
     0
  9
$DIMSAH
 70
     0
  9
$DIMBLK1
  1

  9
$DIMBLK2
  1

  9
$DIMSTYLE
  2
ISO-25
  9
$DIMCLRD
 70
     0
  9
$DIMCLRE
 70
     0
  9
$DIMCLRT
 70
     0
  9
$DIMTFAC
 40
1.0
  9
$DIMGAP
 40
0.625
  9
$DIMJUST
 70
     0
  9
$DIMSD1
 70
     0
  9
$DIMSD2
 70
     0
  9
$DIMTOLJ
 70
     0
  9
$DIMTZIN
 70
     8
  9
$DIMALTZ
 70
     0
  9
$DIMALTTZ
 70
     0
  9
$DIMFIT
 70
     3
  9
$DIMUPT
 70
     0
  9
$DIMUNIT
 70
     2
  9
$DIMDEC
 70
     2
  9
$DIMTDEC
 70
     2
  9
$DIMALTU
 70
     2
  9
$DIMALTTD
 70
     3
  9
$DIMTXSTY
  7
STANDARD
  9
$DIMAUNIT
 70
     0
  9
$LUNITS
 70
     2
  9
$LUPREC
 70
     4
  9
$SKETCHINC
 40
1.0
  9
$FILLETRAD
 40
10.0
  9
$AUNITS
 70
     0
  9
$AUPREC
 70
     0
  9
$MENU
  1
.
  9
$ELEVATION
 40
0.0
  9
$PELEVATION
 40
0.0
  9
$THICKNESS
 40
0.0
  9
$LIMCHECK
 70
     0
  9
$CHAMFERA
 40
0.0
  9
$CHAMFERB
 40
0.0
  9
$CHAMFERC
 40
0.0
  9
$CHAMFERD
 40
0.0
  9
$SKPOLY
 70
     0
  9
$TDCREATE
 40
2460568.528444908
  9
$TDUPDATE
 40
2460568.528444919
  9
$TDINDWG
 40
0.0000000116
  9
$TDUSRTIMER
 40
0.0000000116
  9
$USRTIMER
 70
     1
  9
$ANGBASE
 50
0.0
  9
$ANGDIR
 70
     0
  9
$PDMODE
 70
     0
  9
$PDSIZE
 40
0.0
  9
$PLINEWID
 40
0.0
  9
$COORDS
 70
     1
  9
$SPLFRAME
 70
     0
  9
$SPLINETYPE
 70
     6
  9
$SPLINESEGS
 70
     8
  9
$ATTDIA
 70
     0
  9
$ATTREQ
 70
     1
  9
$HANDLING
 70
     1
  9
$HANDSEED
  5
100000D6
  9
$SURFTAB1
 70
     6
  9
$SURFTAB2
 70
     6
  9
$SURFTYPE
 70
     6
  9
$SURFU
 70
     6
  9
$SURFV
 70
     6
  9
$UCSNAME
  2

  9
$UCSORG
 10
0.0
 20
0.0
 30
0.0
  9
$UCSXDIR
 10
1.0
 20
0.0
 30
0.0
  9
$UCSYDIR
 10
0.0
 20
1.0
 30
0.0
  9
$PUCSNAME
  2

  9
$PUCSORG
 10
0.0
 20
0.0
 30
0.0
  9
$PUCSXDIR
 10
1.0
 20
0.0
 30
0.0
  9
$PUCSYDIR
 10
0.0
 20
1.0
 30
0.0
  9
$USERI1
 70
     0
  9
$USERI2
 70
     0
  9
$USERI3
 70
     0
  9
$USERI4
 70
     0
  9
$USERI5
 70
     0
  9
$USERR1
 40
0.0
  9
$USERR2
 40
0.0
  9
$USERR3
 40
0.0
  9
$USERR4
 40
0.0
  9
$USERR5
 40
0.0
  9
$WORLDVIEW
 70
     1
  9
$SHADEDGE
 70
     3
  9
$SHADEDIF
 70
    70
  9
$TILEMODE
 70
     1
  9
$MAXACTVP
 70
    64
  9
$PINSBASE
 10
0.0
 20
0.0
 30
0.0
  9
$PLIMCHECK
 70
     0
  9
$PEXTMIN
 10
1.000000000000000E+20
 20
1.000000000000000E+20
 30
1.000000000000000E+20
  9
$PEXTMAX
 10
-1.000000000000000E+20
 20
-1.000000000000000E+20
 30
-1.000000000000000E+20
  9
$PLIMMIN
 10
0.0
 20
0.0
  9
$PLIMMAX
 10
420.0
 20
297.0
  9
$UNITMODE
 70
     0
  9
$VISRETAIN
 70
     1
  9
$PLINEGEN
 70
     0
  9
$PSLTSCALE
 70
     1
  9
$TREEDEPTH
 70
  3020
  9
$PICKSTYLE
 70
     1
  9
$CMLSTYLE
  2
STANDARD
  9
$CMLJUST
 70
     0
  9
$CMLSCALE
 40
20.0
  9
$PROXYGRAPHICS
 70
     1
  9
$MEASUREMENT
 70
     1
  0
ENDSEC
  0
SECTION
  2
CLASSES
  0
CLASS
  1
ACDBDICTIONARYWDFLT
  2
AcDbDictionaryWithDefault
  3
ObjectDBX Classes
 90
        0
280
     0
281
     0
  0
CLASS
  1
VISUALSTYLE
  2
AcDbVisualStyle
  3
ObjectDBX Classes
 90
     4095
280
     0
281
     0
  0
CLASS
  1
MATERIAL
  2
AcDbMaterial
  3
ObjectDBX Classes
 90
     1153
280
     0
281
     0
  0
CLASS
  1
SCALE
  2
AcDbScale
  3
ObjectDBX Classes
 90
     1153
280
     0
281
     0
  0
CLASS
  1
TABLESTYLE
  2
AcDbTableStyle
  3
ObjectDBX Classes
 90
     4095
280
     0
281
     0
  0
CLASS
  1
MLEADERSTYLE
  2
AcDbMLeaderStyle
  3
ACDB_MLEADERSTYLE_CLASS
 90
     4095
280
     0
281
     0
  0
CLASS
  1
SUN
  2
AcDbSun
  3
SCENEOE
 90
     1153
280
     0
281
     0
  0
CLASS
  1
SORTENTSTABLE
  2
AcDbSortentsTable
  3
ObjectDBX Classes
 90
        0
280
     0
281
     0
  0
CLASS
  1
DICTIONARYVAR
  2
AcDbDictionaryVar
  3
ObjectDBX Classes
 90
        0
280
     0
281
     0
  0
CLASS
  1
XRECORD
  2
AcDbXrecord
  3
ObjectDBX Classes
 90
        0
280
     0
281
     0
  0
CLASS
  1
LWPOLYLINE
  2
AcDbPolyline
  3
ObjectDBX Classes
 90
        0
280
     0
281
     1
  0
CLASS
  1
HATCH
  2
AcDbHatch
  3
ObjectDBX Classes
 90
        0
280
     0
281
     1
  0
CLASS
  1
ACDBPLACEHOLDER
  2
AcDbPlaceHolder
  3
ObjectDBX Classes
 90
        0
280
     0
281
     0
  0
CLASS
  1
LAYOUT
  2
AcDbLayout
  3
ObjectDBX Classes
 90
        0
280
     0
281
     0
  0
ENDSEC
  0
SECTION
  2
TABLES
  0
TABLE
  2
VPORT
  5
8
102
{ACAD_XDICTIONARY
360
100000CB
102
}
330
0
100
AcDbSymbolTable
 70
     1
  0
VPORT
  5
29
330
8
100
AcDbSymbolTableRecord
100
AcDbViewportTableRecord
  2
*ACTIVE
 70
     0
 10
0.0
 20
0.0
 11
1.0
 21
1.0
 12
344.1869158878504
 22
148.5
 13
0.0
 23
0.0
 14
10.0
 24
10.0
 15
10.0
 25
10.0
 16
0.0
 26
0.0
 36
1.0
 17
0.0
 27
0.0
 37
0.0
 40
297.0
 41
1.972972972850329
 42
50.0
 43
0.0
 44
0.0
 50
0.0
 51
0.0
 71
     0
 72
   100
 73
     1
 74
     3
 75
     0
 76
     0
 77
     0
 78
     0
  0
ENDTAB
  0
TABLE
  2
LTYPE
  5
5
330
0
100
AcDbSymbolTable
 70
     7
  0
LTYPE
  5
14
330
5
100
AcDbSymbolTableRecord
100
AcDbLinetypeTableRecord
  2
BYBLOCK
 70
     0
  3

 72
    65
 73
     0
 40
0.0
  0
LTYPE
  5
15
330
5
100
AcDbSymbolTableRecord
100
AcDbLinetypeTableRecord
  2
BYLAYER
 70
     0
  3

 72
    65
 73
     0
 40
0.0
  0
LTYPE
  5
16
330
5
100
AcDbSymbolTableRecord
100
AcDbLinetypeTableRecord
  2
CONTINUOUS
 70
     0
  3
Solid line
 72
    65
 73
     0
 40
0.0
  0
LTYPE
  5
10000024
330
5
100
AcDbSymbolTableRecord
100
AcDbLinetypeTableRecord
  2
ONS_PHANTOM
 70
     0
  3
Onshape Phantom line ______ __ __ ______
 72
    65
 73
     6
 40
0.4999999999999999
 49
0.25
 74
     0
 49
-0.05
 74
     0
 49
0.05
 74
     0
 49
-0.05
 74
     0
 49
0.05
 74
     0
 49
-0.05
 74
     0
  0
LTYPE
  5
10000025
330
5
100
AcDbSymbolTableRecord
100
AcDbLinetypeTableRecord
  2
CENTER
 70
     0
  3
Center line ____ _ ____ _ ____ _
 72
    65
 73
     4
 40
0.7874015748031495
 49
0.4921259842519685
 74
     0
 49
-0.0984251968503937
 74
     0
 49
0.0984251968503937
 74
     0
 49
-0.0984251968503937
 74
     0
  0
LTYPE
  5
10000026
330
5
100
AcDbSymbolTableRecord
100
AcDbLinetypeTableRecord
  2
DASHED
 70
     0
  3
Dashed line __ __ __ __ __
 72
    65
 73
     2
 40
0.75
 49
0.5
 74
     0
 49
-0.25
 74
     0
  0
LTYPE
  5
10000027
330
5
100
AcDbSymbolTableRecord
100
AcDbLinetypeTableRecord
  2
ONS_DASHDOT
 70
     0
  3
Onshape Dashed with Dot _ . ____ . ____
 72
    65
 73
     4
 40
0.71
 49
0.5
 74
     0
 49
-0.1
 74
     0
 49
0.01
 74
     0
 49
-0.1
 74
     0
  0
LTYPE
  5
10000028
330
5
100
AcDbSymbolTableRecord
100
AcDbLinetypeTableRecord
  2
ONS_DOTTED
 70
     0
  3
Onshape Dotted line . . . . . . .
 72
    65
 73
     2
 40
0.11
 49
0.01
 74
     0
 49
-0.1
 74
     0
  0
LTYPE
  5
10000029
330
5
100
AcDbSymbolTableRecord
100
AcDbLinetypeTableRecord
  2
HIDDEN
 70
     0
  3
Hidden line ____ ____ ____ ____ 
 72
    65
 73
     2
 40
0.15
 49
0.1
 74
     0
 49
-0.05
 74
     0
  0
ENDTAB
  0
TABLE
  2
LAYER
  5
2
330
0
100
AcDbSymbolTable
 70
    40
  0
LAYER
  5
10
330
2
100
AcDbSymbolTableRecord
100
AcDbLayerTableRecord
  2
0
 70
     0
 62
     7
  6
CONTINUOUS
  0
LAYER
  5
1000002A
330
2
100
AcDbSymbolTableRecord
100
AcDbLayerTableRecord
  2
SECTION_CUTTING_LINE
 70
     0
 62
     7
  6
ONS_DASHDOT
  0
LAYER
  5
1000002B
330
2
100
AcDbSymbolTableRecord
100
AcDbLayerTableRecord
  2
DETAIL_VIEW_BORDER
 70
     0
 62
     7
  6
CONTINUOUS
  0
LAYER
  5
1000002C
330
2
100
AcDbSymbolTableRecord
100
AcDbLayerTableRecord
  2
DETAIL_VIEW_PARENT_BORDER
 70
     0
 62
     7
  6
ONS_PHANTOM
  0
LAYER
  5
1000002D
330
2
100
AcDbSymbolTableRecord
100
AcDbLayerTableRecord
  2
TEXT
 70
     0
 62
     7
  6
CONTINUOUS
  0
LAYER
  5
1000002E
330
2
100
AcDbSymbolTableRecord
100
AcDbLayerTableRecord
  2
SKETCHED_GEOMETRY
 70
     0
 62
    -7
  6
CONTINUOUS
  0
LAYER
  5
1000002F
330
2
100
AcDbSymbolTableRecord
100
AcDbLayerTableRecord
  2
VIRTUAL_SHARPS
 70
     0
 62
    -7
  6
CONTINUOUS
  0
LAYER
  5
10000030
330
2
100
AcDbSymbolTableRecord
100
AcDbLayerTableRecord
  2
CENTERLINES
 70
     0
 62
    -7
  6
CENTER
  0
LAYER
  5
10000031
330
2
100
AcDbSymbolTableRecord
100
AcDbLayerTableRecord
  2
CENTERMARKS
 70
     0
 62
    -7
  6
CONTINUOUS
  0
LAYER
  5
10000032
330
2
100
AcDbSymbolTableRecord
100
AcDbLayerTableRecord
  2
TABLES
 70
     0
 62
     7
  6
CONTINUOUS
  0
LAYER
  5
10000033
330
2
100
AcDbSymbolTableRecord
100
AcDbLayerTableRecord
  2
IMAGES
 70
     0
 62
    -7
  6
CONTINUOUS
  0
LAYER
  5
10000034
330
2
100
AcDbSymbolTableRecord
100
AcDbLayerTableRecord
  2
ANNOTATION_LINES
 70
     0
 62
    -7
  6
CONTINUOUS
  0
LAYER
  5
10000035
330
2
100
AcDbSymbolTableRecord
100
AcDbLayerTableRecord
  2
ANNOTATION_TEXT
 70
     0
 62
    -7
  6
CONTINUOUS
  0
LAYER
  5
10000036
330
2
100
AcDbSymbolTableRecord
100
AcDbLayerTableRecord
  2
SIDE_THREAD_SYMBOLS
 70
     0
 62
     7
  6
CONTINUOUS
  0
LAYER
  5
10000037
330
2
100
AcDbSymbolTableRecord
100
AcDbLayerTableRecord
  2
SIDE_THREAD_SYMBOLS_HIDDEN
 70
     0
 62
    -7
  6
HIDDEN
  0
LAYER
  5
10000038
330
2
100
AcDbSymbolTableRecord
100
AcDbLayerTableRecord
  2
SURFACE_THREAD_SYMBOLS
 70
     0
 62
     7
  6
CONTINUOUS
  0
LAYER
  5
10000039
330
2
100
AcDbSymbolTableRecord
100
AcDbLayerTableRecord
  2
SURFACE_THREAD_SYMBOLS_ON_
 70
     0
 62
     7
  6
CONTINUOUS
  0
LAYER
  5
1000003A
330
2
100
AcDbSymbolTableRecord
100
AcDbLayerTableRecord
  2
SURFACE_THREAD_SYMBOLS_HID
 70
     0
 62
    -7
  6
HIDDEN
  0
LAYER
  5
1000003B
330
2
100
AcDbSymbolTableRecord
100
AcDbLayerTableRecord
  2
BLIND_THREAD_SYMBOLS
 70
     0
 62
     7
  6
CONTINUOUS
  0
LAYER
  5
1000003C
330
2
100
AcDbSymbolTableRecord
100
AcDbLayerTableRecord
  2
BLIND_THREAD_SYMBOLS_HIDDE
 70
     0
 62
    -7
  6
HIDDEN
  0
LAYER
  5
1000003D
330
2
100
AcDbSymbolTableRecord
100
AcDbLayerTableRecord
  2
EXPLODE_LINES
 70
     0
 62
     7
  6
ONS_PHANTOM
  0
LAYER
  5
1000003E
330
2
100
AcDbSymbolTableRecord
100
AcDbLayerTableRecord
  2
HIDDEN_EXPLODE_LINES
 70
     0
 62
    -7
  6
ONS_PHANTOM
  0
LAYER
  5
1000003F
330
2
100
AcDbSymbolTableRecord
100
AcDbLayerTableRecord
  2
BREAK_LINES
 70
     0
 62
    -7
  6
CONTINUOUS
  0
LAYER
  5
10000040
330
2
100
AcDbSymbolTableRecord
100
AcDbLayerTableRecord
  2
SHEETMETAL_BEND_LINES_UP
 70
     0
 62
     7
  6
CENTER
  0
LAYER
  5
10000041
330
2
100
AcDbSymbolTableRecord
100
AcDbLayerTableRecord
  2
SHEETMETAL_BEND_LINES_DOWN
 70
     0
 62
     7
  6
CENTER
  0
LAYER
  5
10000042
330
2
100
AcDbSymbolTableRecord
100
AcDbLayerTableRecord
  2
SHEETMETAL_BEND_TANGENT_LI
 70
     0
 62
     7
  6
CONTINUOUS
  0
LAYER
  5
10000043
330
2
100
AcDbSymbolTableRecord
100
AcDbLayerTableRecord
  2
SHEETMETAL_CUT_LINES
 70
     0
 62
     7
  6
CONTINUOUS
  0
LAYER
  5
10000044
330
2
100
AcDbSymbolTableRecord
100
AcDbLayerTableRecord
  2
REGION_ASSOC_POINTS
 70
     0
 62
    -7
  6
CONTINUOUS
  0
LAYER
  5
10000045
330
2
100
AcDbSymbolTableRecord
100
AcDbLayerTableRecord
  2
PATTERN_CENTERLINES
 70
     1
 62
    -7
  6
CENTER
  0
LAYER
  5
10000046
330
2
100
AcDbSymbolTableRecord
100
AcDbLayerTableRecord
  2
HIDDEN
 70
     0
 62
    -7
  6
HIDDEN
  0
LAYER
  5
10000047
330
2
100
AcDbSymbolTableRecord
100
AcDbLayerTableRecord
  2
VISIBLE
 70
     0
 62
     7
  6
CONTINUOUS
  0
LAYER
  5
10000048
330
2
100
AcDbSymbolTableRecord
100
AcDbLayerTableRecord
  2
MODELSKETCH_VISIBLE
 70
     0
 62
     7
  6
CONTINUOUS
  0
LAYER
  5
10000049
330
2
100
AcDbSymbolTableRecord
100
AcDbLayerTableRecord
  2
MODELSKETCH_POINT
 70
     0
 62
     7
  6
CONTINUOUS
  0
LAYER
  5
1000004A
330
2
100
AcDbSymbolTableRecord
100
AcDbLayerTableRecord
  2
MODELSKETCH_CONSTRUCTION
 70
     0
 62
    -7
  6
CENTER
  0
LAYER
  5
1000004B
330
2
100
AcDbSymbolTableRecord
100
AcDbLayerTableRecord
  2
HIDDEN_BASE_VIEW
 70
     0
 62
     7
  6
CONTINUOUS
  0
LAYER
  5
1000004C
330
2
100
AcDbSymbolTableRecord
100
AcDbLayerTableRecord
  2
TANGENT_LINES
 70
     0
 62
    -7
  6
CONTINUOUS
  0
LAYER
  5
1000004D
330
2
100
AcDbSymbolTableRecord
100
AcDbLayerTableRecord
  2
TANGENT_HIDDEN
 70
     0
 62
    -7
  6
HIDDEN
  0
LAYER
  5
1000004E
330
2
100
AcDbSymbolTableRecord
100
AcDbLayerTableRecord
  2
INVISIBLE_LINES
 70
     0
 62
    -7
  6
CONTINUOUS
  0
LAYER
  5
1000004F
330
2
100
AcDbSymbolTableRecord
100
AcDbLayerTableRecord
  2
VIEW_HATCHES
 70
     0
 62
    -7
  6
CONTINUOUS
  0
LAYER
  5
10000050
330
2
100
AcDbSymbolTableRecord
100
AcDbLayerTableRecord
  2
SECTION_JOG_LINES
 70
     0
 62
    -7
  6
CONTINUOUS
  0
ENDTAB
  0
TABLE
  2
STYLE
  5
3
330
0
100
AcDbSymbolTable
 70
     2
  0
STYLE
  5
11
330
3
100
AcDbSymbolTableRecord
100
AcDbTextStyleTableRecord
  2
STANDARD
 70
     0
 40
0.0
 41
1.0
 50
0.0
 71
     0
 42
2.5
  3
txt
  4

  0
STYLE
  5
10000004
330
3
100
AcDbSymbolTableRecord
100
AcDbTextStyleTableRecord
  2
TTFSTYLE
 70
     0
 40
0.0
 41
1.0
 50
0.0
 71
     0
 42
2.5
  3
Verdana.ttf
  4

1001
ACAD
1000
Verdana
1071
       34
  0
ENDTAB
  0
TABLE
  2
VIEW
  5
6
330
0
100
AcDbSymbolTable
 70
     0
  0
ENDTAB
  0
TABLE
  2
UCS
  5
7
330
0
100
AcDbSymbolTable
 70
     0
  0
ENDTAB
  0
TABLE
  2
APPID
  5
9
330
0
100
AcDbSymbolTable
 70
     2
  0
APPID
  5
12
330
9
100
AcDbSymbolTableRecord
100
AcDbRegAppTableRecord
  2
ACAD
 70
     0
  0
APPID
  5
100000D5
330
9
100
AcDbSymbolTableRecord
100
AcDbRegAppTableRecord
  2
ACAD_MLEADERVER
 70
     0
  0
ENDTAB
  0
TABLE
  2
DIMSTYLE
  5
A
330
0
100
AcDbSymbolTable
 70
     1
  0
DIMSTYLE
105
27
330
A
100
AcDbSymbolTableRecord
100
AcDbDimStyleTableRecord
  2
ISO-25
 70
     0
  3

  4

  5

  6

  7

 40
1.0
 41
2.5
 42
0.625
 43
3.75
 44
1.25
 45
0.0
 46
0.0
 47
0.0
 48
0.0
140
2.5
141
2.5
142
0.0
143
0.03937007874016
144
1.0
145
0.0
146
1.0
147
0.625
 71
     0
 72
     0
 73
     0
 74
     0
 75
     0
 76
     0
 77
     1
 78
     8
170
     0
171
     3
172
     1
173
     0
174
     0
175
     0
176
     0
177
     0
178
     0
270
     2
271
     2
272
     2
273
     2
274
     3
340
11
275
     0
280
     0
281
     0
282
     0
283
     0
284
     8
285
     0
286
     0
287
     3
288
     0
  0
ENDTAB
  0
TABLE
  2
BLOCK_RECORD
  5
1
330
0
100
AcDbSymbolTable
 70
     0
  0
BLOCK_RECORD
  5
1F
102
{ACAD_XDICTIONARY
360
1000009C
102
}
330
1
100
AcDbSymbolTableRecord
100
AcDbBlockTableRecord
  2
*MODEL_SPACE
  0
BLOCK_RECORD
  5
1B
330
1
100
AcDbSymbolTableRecord
100
AcDbBlockTableRecord
  2
*PAPER_SPACE
  0
ENDTAB
  0
ENDSEC
  0
SECTION
  2
BLOCKS
  0
BLOCK
  5
20
330
1F
100
AcDbEntity
  8
0
100
AcDbBlockBegin
  2
*MODEL_SPACE
 70
     0
 10
0.0
 20
0.0
 30
0.0
  3
*MODEL_SPACE
  1

  0
ENDBLK
  5
21
330
1F
100
AcDbEntity
  8
0
100
AcDbBlockEnd
  0
BLOCK
  5
1C
330
1B
100
AcDbEntity
 67
     1
  8
0
100
AcDbBlockBegin
  2
*PAPER_SPACE
 70
     0
 10
0.0
 20
0.0
 30
0.0
  3
*PAPER_SPACE
  1

  0
ENDBLK
  5
1D
330
1B
100
AcDbEntity
 67
     1
  8
0
100
AcDbBlockEnd
  0
ENDSEC
  0
SECTION
  2
ENTITIES
  0
SPLINE
  5
10000051
102
{ACAD_XDICTIONARY
360
10000052
102
}
330
1F
100
AcDbEntity
  8
MODELSKETCH_VISIBLE
100
AcDbSpline
210
0.0
220
0.0
230
1.0
 70
     8
 71
     3
 72
    14
 73
    10
 74
     0
 42
0.000000001
 43
0.00000001
 40
0.0
 40
0.0
 40
0.0
 40
0.0
 40
0.1614562710358368
 40
0.2955431828773389
 40
0.4564099366155587
 40
0.5778508913727117
 40
0.7335824011011306
 40
0.8738808385184544
 40
1.0
 40
1.0
 40
1.0
 40
1.0
 10
10.28080843389034
 20
50.06871372461319
 30
0.0
 10
10.79297601261092
 20
50.07489285137855
 30
0.0
 10
11.72489771126138
 20
49.89935208231123
 30
0.0
 10
11.5675823400822
 20
48.86442402941651
 30
0.0
 10
11.67635865009212
 20
47.53715681591902
 30
0.0
 10
10.69924918441413
 20
47.14433098281902
 30
0.0
 10
9.893784112492142
 20
48.20829253929772
 30
0.0
 10
9.509897560679129
 20
48.93768613474739
 30
0.0
 10
9.12997440214499
 20
49.54287555639625
 30
0.0
 10
9.214458055794239
 20
49.73547905683517
 30
0.0
  0
SPLINE
  5
10000054
102
{ACAD_XDICTIONARY
360
10000055
102
}
330
1F
100
AcDbEntity
  8
MODELSKETCH_VISIBLE
100
AcDbSpline
210
0.0
220
0.0
230
1.0
 70
     8
 71
     3
 72
    32
 73
    28
 74
     0
 42
0.000000001
 43
0.00000001
 40
0.0
 40
0.0
 40
0.0
 40
0.0
 40
0.0400850803378291
 40
0.0772148455805871
 40
0.1235504334131802
 40
0.1748157980627553
 40
0.2245910189138666
 40
0.2563018523410007
 40
0.295493489052351
 40
0.3256879831897262
 40
0.3589710588876078
 40
0.4108193976515626
 40
0.4382494409492406
 40
0.5013604355416931
 40
0.5482740889802141
 40
0.5860330403681115
 40
0.6183538304696637
 40
0.6590907260396693
 40
0.6987945384956509
 40
0.745021770571249
 40
0.7806677497215444
 40
0.8193817780198108
 40
0.8566596444962004
 40
0.8974901402517705
 40
0.928628539468364
 40
0.9756723581633325
 40
1.0
 40
1.0
 40
1.0
 40
1.0
 10
-109.6221357584
 20
49.9890111386776
 30
0.0
 10
-108.4765852520293
 20
49.83384151679071
 30
0.0
 10
-106.2773839582435
 20
49.53595047548598
 30
0.0
 10
-103.3441643182823
 20
48.27277425594568
 30
0.0
 10
-99.08621775958562
 20
51.15727772007633
 30
0.0
 10
-93.87956169745966
 20
49.71848062587119
 30
0.0
 10
-88.18739641477484
 20
50.67915562600808
 30
0.0
 10
-86.99146654240842
 20
48.41909154357862
 30
0.0
 10
-83.53648107547686
 20
47.88454876972764
 30
0.0
 10
-82.28783315810453
 20
46.03090648785913
 30
0.0
 10
-79.90905718354068
 20
46.24070151706047
 30
0.0
 10
-74.07142149525338
 20
45.64612895982256
 30
0.0
 10
-72.65066960651494
 20
47.59662636973333
 30
0.0
 10
-65.98090046020243
 20
40.04096674093647
 30
0.0
 10
-61.47342754680088
 20
42.25473997592736
 30
0.0
 10
-57.9963995204151
 20
40.31133368708939
 30
0.0
 10
-59.17173655470928
 20
37.27504305160914
 30
0.0
 10
-63.18558793660419
 20
37.66300286094454
 30
0.0
 10
-65.47567349557664
 20
35.45339816922981
 30
0.0
 10
-70.56147385076873
 20
34.08425263038103
 30
0.0
 10
-72.05990840091354
 20
37.36766610768461
 30
0.0
 10
-76.00780374603691
 20
35.44655762135643
 30
0.0
 10
-77.23518730424307
 20
39.44294947404001
 30
0.0
 10
-81.74559756923364
 20
37.46646181501219
 30
0.0
 10
-82.08561659663438
 20
40.7354919614061
 30
0.0
 10
-87.61317439478519
 20
39.55713272694616
 30
0.0
 10
-87.97917893783341
 20
40.57713202765616
 30
0.0
 10
-88.12833577394485
 20
41.04834422469139
 30
0.0
  0
SPLINE
  5
10000057
102
{ACAD_XDICTIONARY
360
10000058
102
}
330
1F
100
AcDbEntity
  8
MODELSKETCH_VISIBLE
100
AcDbSpline
210
0.0
220
0.0
230
1.0
 70
    11
 71
     3
 72
    18
 73
    14
 74
     0
 42
0.000000001
 43
0.00000001
 40
0.0
 40
0.0
 40
0.0
 40
0.0
 40
0.1153513434991676
 40
0.2128847027117059
 40
0.2888337550838568
 40
0.3862912957906082
 40
0.4762531730690581
 40
0.5759177107273443
 40
0.6542716711758737
 40
0.7324613949997526
 40
0.7945885437567873
 40
0.8927542362872452
 40
1.0
 40
1.0
 40
1.0
 40
1.0
 10
-87.9791789378334
 20
38.82034758408445
 30
0.0
 10
-87.24126001009262
 20
39.07211183124383
 30
0.0
 10
-85.5653273358471
 20
39.00904086798814
 30
0.0
 10
-83.35013330466346
 20
39.25204767354618
 30
0.0
 10
-83.41827551469677
 20
37.7138012589766
 30
0.0
 10
-84.17427939095029
 20
36.02852539391247
 30
0.0
 10
-85.76976000915
 20
35.37583563309008
 30
0.0
 10
-87.66071092884096
 20
36.20147468368027
 30
0.0
 10
-88.75613733128874
 20
35.61048321563897
 30
0.0
 10
-89.89734566908142
 20
35.38405630395093
 30
0.0
 10
-90.9935832420757
 20
35.77357973177427
 30
0.0
 10
-89.69753336538695
 20
37.66454091082316
 30
0.0
 10
-88.66524532044323
 20
38.58627446327709
 30
0.0
 10
-87.9791789378334
 20
38.82034758408445
 30
0.0
  0
SPLINE
  5
1000005A
102
{ACAD_XDICTIONARY
360
1000005B
102
}
330
1F
100
AcDbEntity
  8
MODELSKETCH_VISIBLE
100
AcDbSpline
210
0.0
220
0.0
230
1.0
 70
     8
 71
     3
 72
    23
 73
    19
 74
     0
 42
0.000000001
 43
0.00000001
 40
0.0
 40
0.0
 40
0.0
 40
0.0
 40
0.0635257382575113
 40
0.1275267439582821
 40
0.192584163938309
 40
0.2486339618441968
 40
0.3262150029789041
 40
0.380942882333876
 40
0.4577913636622046
 40
0.5242240708354678
 40
0.5973966267181786
 40
0.668526433888882
 40
0.7399549531974641
 40
0.7836160584930155
 40
0.8379534621005215
 40
0.8975641710421796
 40
0.9466147853791298
 40
1.0
 40
1.0
 40
1.0
 40
1.0
 10
-79.5907476450768
 20
71.5620356994743
 30
0.0
 10
-79.31145099940976
 20
70.87469777000095
 30
0.0
 10
-78.15003045468023
 20
69.5199706286464
 30
0.0
 10
-75.70722085991157
 20
70.03674375728205
 30
0.0
 10
-73.80801640786389
 20
67.91479595163452
 30
0.0
 10
-72.09370935394422
 20
68.96052397102683
 30
0.0
 10
-68.68259155280558
 20
68.77968718544068
 30
0.0
 10
-66.99082643641876
 20
69.32423316554244
 30
0.0
 10
-65.89533005013492
 20
73.10257335208496
 30
0.0
 10
-68.19454638677134
 20
74.7948266920521
 30
0.0
 10
-71.13170554291727
 20
75.33130946086652
 30
0.0
 10
-73.62414158465597
 20
76.44223349769707
 30
0.0
 10
-76.19539857973139
 20
77.27481630276499
 30
0.0
 10
-77.78129486442504
 20
77.74816147865475
 30
0.0
 10
-77.27525335780116
 20
75.57657350746182
 30
0.0
 10
-78.58856500968395
 20
74.05627155140424
 30
0.0
 10
-79.8409376714684
 20
73.32144726681769
 30
0.0
 10
-79.83483675687586
 20
72.19255062717518
 30
0.0
 10
-79.60885172480862
 20
71.60770964852887
 30
0.0
  0
SPLINE
  5
1000005D
102
{ACAD_XDICTIONARY
360
1000005E
102
}
330
1F
100
AcDbEntity
  8
MODELSKETCH_VISIBLE
100
AcDbSpline
210
0.0
220
0.0
230
1.0
 70
    11
 71
     3
 72
    15
 73
    11
 74
     0
 42
0.000000001
 43
0.00000001
 40
0.0
 40
0.0
 40
0.0
 40
0.0
 40
0.1241883104282469
 40
0.2513660617132983
 40
0.3992150960094009
 40
0.4889310998530985
 40
0.6223821899060522
 40
0.7347713443024956
 40
0.8839057777809247
 40
1.0
 40
1.0
 40
1.0
 40
1.0
 10
-56.78687244653701
 20
39.05371204018592
 30
0.0
 10
-56.35857217024854
 20
39.65348237278288
 30
0.0
 10
-55.09899274583125
 20
40.45501253643634
 30
0.0
 10
-53.14234161494864
 20
39.89972604493057
 30
0.0
 10
-50.04460781467968
 20
39.47832919023961
 30
0.0
 10
-50.09292570085854
 20
37.51878359898035
 30
0.0
 10
-52.94208170319961
 20
37.95698112469891
 30
0.0
 10
-53.87528860924377
 20
36.67157055572095
 30
0.0
 10
-57.71465741463536
 20
36.80527433371134
 30
0.0
 10
-57.18725785544114
 20
38.49303229478307
 30
0.0
 10
-56.78687244653701
 20
39.05371204018592
 30
0.0
  0
SPLINE
  5
10000060
102
{ACAD_XDICTIONARY
360
10000061
102
}
330
1F
100
AcDbEntity
  8
MODELSKETCH_VISIBLE
100
AcDbSpline
210
0.0
220
0.0
230
1.0
 70
     8
 71
     3
 72
    11
 73
     7
 74
     0
 42
0.000000001
 43
0.00000001
 40
0.0
 40
0.0
 40
0.0
 40
0.0
 40
0.2073736044882055
 40
0.4147473088861174
 40
0.720999492650898
 40
1.0
 40
1.0
 40
1.0
 40
1.0
 10
-1.893357490189373
 20
48.89128357172012
 30
0.0
 10
-1.657100186820083
 20
48.67213696207887
 30
0.0
 10
-1.16363435477358
 20
47.72719739688872
 30
0.0
 10
-0.5911549451579906
 20
49.23578950503946
 30
0.0
 10
1.703355301541351
 20
49.3811531490018
 30
0.0
 10
2.306250917757541
 20
50.76422488283129
 30
0.0
 10
2.253752326329419
 20
51.35301835210549
 30
0.0
  0
SPLINE
  5
10000063
102
{ACAD_XDICTIONARY
360
10000064
102
}
330
1F
100
AcDbEntity
  8
MODELSKETCH_VISIBLE
100
AcDbSpline
210
0.0
220
0.0
230
1.0
 70
     8
 71
     3
 72
    13
 73
     9
 74
     0
 42
0.000000001
 43
0.00000001
 40
0.0
 40
0.0
 40
0.0
 40
0.0
 40
0.1729665181520915
 40
0.3231496201823843
 40
0.4590307892377898
 40
0.6264391152066658
 40
0.7921202186832123
 40
1.0
 40
1.0
 40
1.0
 40
1.0
 10
-95.29924392700195
 20
23.77599291503429
 30
0.0
 10
-94.71957949403068
 20
23.74774401559736
 30
0.0
 10
-93.63745960296922
 20
23.69527814384205
 30
0.0
 10
-92.18343430980559
 20
24.03928902360933
 30
0.0
 10
-91.56420077017941
 20
22.80317187963988
 30
0.0
 10
-89.44334049271245
 20
23.60785998742491
 30
0.0
 10
-90.14460383179475
 20
25.59804850349978
 30
0.0
 10
-88.08069676160812
 20
26.34351700544358
 30
0.0
 10
-87.81664892004669
 20
27.06320412223554
 30
0.0
  0
SPLINE
  5
10000066
102
{ACAD_XDICTIONARY
360
10000067
102
}
330
1F
100
AcDbEntity
  8
MODELSKETCH_VISIBLE
100
AcDbSpline
210
0.0
220
0.0
230
1.0
 70
    11
 71
     3
 72
    11
 73
     7
 74
     0
 42
0.000000001
 43
0.00000001
 40
0.0
 40
0.0
 40
0.0
 40
0.0
 40
0.2854563938247864
 40
0.5365562929392852
 40
0.8042328586170032
 40
1.0
 40
1.0
 40
1.0
 40
1.0
 10
-89.73302357780234
 20
37.47929237557651
 30
0.0
 10
-89.733920904714
 20
37.86009425819814
 30
0.0
 10
-90.26564576403385
 20
38.9636013364409
 30
0.0
 10
-91.17048381566622
 20
37.64935653221912
 30
0.0
 10
-90.04492189704402
 20
36.82957478483641
 30
0.0
 10
-89.73240818740233
 20
37.21813691503404
 30
0.0
 10
-89.73302357780234
 20
37.47929237557651
 30
0.0
  0
SPLINE
  5
10000069
102
{ACAD_XDICTIONARY
360
1000006A
102
}
330
1F
100
AcDbEntity
  8
MODELSKETCH_VISIBLE
100
AcDbSpline
210
0.0
220
0.0
230
1.0
 70
     8
 71
     3
 72
    28
 73
    24
 74
     0
 42
0.000000001
 43
0.00000001
 40
0.0
 40
0.0
 40
0.0
 40
0.0
 40
0.0489077909439212
 40
0.1065896736356759
 40
0.1544857911284892
 40
0.2044906324581451
 40
0.2605310280435852
 40
0.3062207437421162
 40
0.3542052542838621
 40
0.3945687080849803
 40
0.4556838992292355
 40
0.5076344029813212
 40
0.5474069448735028
 40
0.5899475033516838
 40
0.6261350424464952
 40
0.6715311629404364
 40
0.7172378188107731
 40
0.7579104204421572
 40
0.8005071032883159
 40
0.8379958715597716
 40
0.8973419261229308
 40
0.9475734360920576
 40
1.0
 40
1.0
 40
1.0
 40
1.0
 10
-88.12833577394485
 20
41.04834422469139
 30
0.0
 10
-88.44815430787426
 20
41.64684928906123
 30
0.0
 10
-89.14516704339663
 20
42.95123164306347
 30
0.0
 10
-92.16674577151686
 20
42.51219866861329
 30
0.0
 10
-93.51076373168581
 20
44.38753474135329
 30
0.0
 10
-95.55889419546602
 20
43.12739391114906
 30
0.0
 10
-98.12338404355555
 20
43.69612269053444
 30
0.0
 10
-99.62081974778643
 20
43.00587622616052
 30
0.0
 10
-101.6394493783369
 20
42.68526033805024
 30
0.0
 10
-102.2409059934743
 20
41.29403753140859
 30
0.0
 10
-105.3615967479876
 20
40.84925098740768
 30
0.0
 10
-107.478220418464
 20
40.67235471993202
 30
0.0
 10
-108.6700880042512
 20
41.35925381779865
 30
0.0
 10
-109.5736176530253
 20
42.55470179300674
 30
0.0
 10
-110.7658627003411
 20
42.89231441689001
 30
0.0
 10
-112.1283256503917
 20
41.70269235950968
 30
0.0
 10
-113.6970419786092
 20
41.53950963624113
 30
0.0
 10
-115.5407185437159
 20
42.08128009983442
 30
0.0
 10
-114.2103538841989
 20
43.62633621699652
 30
0.0
 10
-114.4949644617223
 20
44.77814083550734
 30
0.0
 10
-112.3301056090511
 20
46.94108304644789
 30
0.0
 10
-111.5137656954671
 20
48.70083672720664
 30
0.0
 10
-110.2616037237783
 20
49.55354210014406
 30
0.0
 10
-109.6221357583999
 20
49.98901113867759
 30
0.0
  0
LINE
  5
1000006C
102
{ACAD_XDICTIONARY
360
1000006D
102
}
330
1F
100
AcDbEntity
  8
MODELSKETCH_VISIBLE
100
AcDbLine
 10
-79.5907476450768
 20
71.5620356994743
 30
0.0
 11
-80.92865832566353
 21
69.84178906638512
 31
0.0
  0
SPLINE
  5
1000006F
102
{ACAD_XDICTIONARY
360
10000070
102
}
330
1F
100
AcDbEntity
  8
MODELSKETCH_VISIBLE
100
AcDbSpline
210
0.0
220
0.0
230
1.0
 70
     8
 71
     3
 72
    15
 73
    11
 74
     0
 42
0.000000001
 43
0.00000001
 40
0.0
 40
0.0
 40
0.0
 40
0.0
 40
0.1492051302991426
 40
0.3054251976654539
 40
0.4560101989983025
 40
0.5949065068112808
 40
0.7147800857942381
 40
0.8148421095806988
 40
0.936674413820519
 40
1.0
 40
1.0
 40
1.0
 40
1.0
 10
2.238748827949166
 20
51.46829783916473
 30
0.0
 10
2.139070065440716
 20
52.04663657146494
 30
0.0
 10
1.192735796744812
 20
53.03703357937943
 30
0.0
 10
-0.900341974098617
 20
52.48789836584935
 30
0.0
 10
-1.518936626896468
 20
50.75742028375309
 30
0.0
 10
-2.914120972794181
 20
50.21776553340254
 30
0.0
 10
-3.93755328911259
 20
49.68264085932063
 30
0.0
 10
-3.801419006612779
 20
48.4418109396283
 30
0.0
 10
-2.525297426926978
 20
49.04568105426004
 30
0.0
 10
-2.329927072684586
 20
49.05153338179691
 30
0.0
 10
-2.240893813301811
 20
49.0476657909965
 30
0.0
  0
SPLINE
  5
10000072
102
{ACAD_XDICTIONARY
360
10000073
102
}
330
1F
100
AcDbEntity
  8
MODELSKETCH_VISIBLE
100
AcDbSpline
210
0.0
220
0.0
230
1.0
 70
     8
 71
     3
 72
    11
 73
     7
 74
     0
 42
0.000000001
 43
0.00000001
 40
0.0
 40
0.0
 40
0.0
 40
0.0
 40
0.2729545747977652
 40
0.5238156163280372
 40
0.7963971213260586
 40
1.0
 40
1.0
 40
1.0
 40
1.0
 10
8.214754983782768
 20
50.60188844799995
 30
0.0
 10
8.027985626823575
 20
50.40619853029513
 30
0.0
 10
6.832336702820232
 20
50.76197686013943
 30
0.0
 10
5.947089194508174
 20
51.19322805019051
 30
0.0
 10
4.734340239248633
 20
50.63458955383473
 30
0.0
 10
4.065079465313363
 20
50.80523851128827
 30
0.0
 10
3.993784077465532
 20
51.00176855921745
 30
0.0
  0
SPLINE
  5
10000075
102
{ACAD_XDICTIONARY
360
10000076
102
}
330
1F
100
AcDbEntity
  8
MODELSKETCH_VISIBLE
100
AcDbSpline
210
0.0
220
0.0
230
1.0
 70
     8
 71
     3
 72
    18
 73
    14
 74
     0
 42
0.000000001
 43
0.00000001
 40
0.0
 40
0.0
 40
0.0
 40
0.0
 40
0.1024138475171956
 40
0.2029246312070143
 40
0.2905186153461045
 40
0.3909441944202642
 40
0.4774085292888726
 40
0.5604059903522969
 40
0.666529177768309
 40
0.7723563038481572
 40
0.8569799197913894
 40
0.9336795135156307
 40
1.0
 40
1.0
 40
1.0
 40
1.0
 10
-2.652199007570744
 20
47.6214699447155
 30
0.0
 10
-3.217772649689751
 20
47.75790082030468
 30
0.0
 10
-4.606128665735594
 20
46.67404576595247
 30
0.0
 10
-6.143200767906317
 20
45.56962598164077
 30
0.0
 10
-7.014168273521066
 20
44.21826866491999
 30
0.0
 10
-6.90993798539341
 20
42.04771804757752
 30
0.0
 10
-6.000810410114016
 20
40.96681807192641
 30
0.0
 10
-4.299188267556464
 20
39.85936868879399
 30
0.0
 10
-3.717327333288465
 20
42.68766744996866
 30
0.0
 10
-3.655132670759258
 20
44.692778813131
 30
0.0
 10
-3.051775634481632
 20
46.08306683502625
 30
0.0
 10
-1.634103318433686
 20
46.61090132084382
 30
0.0
 10
-2.104804754890367
 20
47.31975230699594
 30
0.0
 10
-2.387905040118968
 20
47.5046159424087
 30
0.0
  0
SPLINE
  5
10000078
102
{ACAD_XDICTIONARY
360
10000079
102
}
330
1F
100
AcDbEntity
  8
MODELSKETCH_VISIBLE
100
AcDbSpline
210
0.0
220
0.0
230
1.0
 70
     8
 71
     3
 72
    19
 73
    15
 74
     0
 42
0.000000001
 43
0.00000001
 40
0.0
 40
0.0
 40
0.0
 40
0.0
 40
0.076637221526212
 40
0.1643062459284733
 40
0.2652359914157811
 40
0.3407026830187777
 40
0.3930976898393799
 40
0.4935381358885682
 40
0.5905087452614749
 40
0.6539923906402787
 40
0.7198756941988814
 40
0.7990964283415707
 40
0.9338283666390639
 40
1.0
 40
1.0
 40
1.0
 40
1.0
 10
-107.5005829334259
 20
40.84284976124763
 30
0.0
 10
-107.2057668085386
 20
40.63096935943711
 30
0.0
 10
-106.5736962590753
 20
40.17670871801503
 30
0.0
 10
-105.7172554617178
 20
39.00369667695329
 30
0.0
 10
-104.4817579978808
 20
37.70720743350502
 30
0.0
 10
-103.4771499745568
 20
36.8471934129876
 30
0.0
 10
-104.0455695115473
 20
36.35344811500098
 30
0.0
 10
-103.953125638989
 20
34.33317355288627
 30
0.0
 10
-102.8486661908291
 20
32.97530767034795
 30
0.0
 10
-102.2235916497346
 20
32.420804369855
 30
0.0
 10
-102.5203568585712
 20
31.31353652306101
 30
0.0
 10
-101.1516712907698
 20
31.10232023637004
 30
0.0
 10
-98.40611768829375
 20
28.97686390698654
 30
0.0
 10
-98.33465609505548
 20
28.28039024951091
 30
0.0
 10
-98.31111878156662
 20
28.0509926378727
 30
0.0
  0
SPLINE
  5
1000007B
102
{ACAD_XDICTIONARY
360
1000007C
102
}
330
1F
100
AcDbEntity
  8
MODELSKETCH_VISIBLE
100
AcDbSpline
210
0.0
220
0.0
230
1.0
 70
     8
 71
     3
 72
    76
 73
    72
 74
     0
 42
0.000000001
 43
0.00000001
 40
0.0
 40
0.0
 40
0.0
 40
0.0
 40
0.0128506319552787
 40
0.0234558100967437
 40
0.0370276671963297
 40
0.0513216976140666
 40
0.0608104194005835
 40
0.0771723751794541
 40
0.0912722792415199
 40
0.1060692551222149
 40
0.1200036896603878
 40
0.137384968626303
 40
0.153732814406128
 40
0.1724623795933972
 40
0.1880995366280401
 40
0.2005486820150054
 40
0.2132326151378428
 40
0.2264398329386394
 40
0.2398915950228022
 40
0.2591158703524801
 40
0.2812074143301353
 40
0.3019177432809743
 40
0.31948052681357
 40
0.3331233471166845
 40
0.3518989038638452
 40
0.361861046416653
 40
0.376287183842112
 40
0.3869436356012138
 40
0.4005032033700935
 40
0.4149189127482842
 40
0.439668084635926
 40
0.4494541802665494
 40
0.4636902765020364
 40
0.4832998069977653
 40
0.4953788309025606
 40
0.5108026803861229
 40
0.5306083660600377
 40
0.5477594192097588
 40
0.5577045904240601
 40
0.570589266347294
 40
0.5809979749477224
 40
0.5932916112517778
 40
0.6161245248313318
 40
0.6318292564788957
 40
0.6471132216179813
 40
0.6567678552678011
 40
0.6666185196085075
 40
0.6841648904934442
 40
0.6962022285241268
 40
0.7100170316371291
 40
0.7251237505984689
 40
0.7364992538044373
 40
0.7507714802721807
 40
0.7653133850173715
 40
0.7785255140783713
 40
0.7919143896021024
 40
0.8059504585437368
 40
0.8211201849269235
 40
0.833345819382881
 40
0.8454422045807372
 40
0.8613494210402173
 40
0.8732219793296856
 40
0.8925778988712129
 40
0.9084576897216364
 40
0.9244160158146368
 40
0.9317589588781937
 40
0.9471450173386384
 40
0.9604055004492382
 40
0.9730808577527251
 40
0.9875147743490664
 40
1.0
 40
1.0
 40
1.0
 40
1.0
 10
-92.01399981975555
 20
42.95380786061287
 30
0.0
 10
-91.39323686070011
 20
42.56580744595648
 30
0.0
 10
-90.26017989250047
 20
41.85760382800911
 30
0.0
 10
-88.8011503407696
 20
40.66764525596622
 30
0.0
 10
-90.35891606678841
 20
38.41508500290671
 30
0.0
 10
-91.81713414695305
 20
36.32045007248056
 30
0.0
 10
-91.56125109893392
 20
34.52674163331072
 30
0.0
 10
-86.26428441712177
 20
35.40117492366446
 30
0.0
 10
-89.22523531815628
 20
32.23235179995146
 30
0.0
 10
-90.57459643573732
 20
29.79257848441232
 30
0.0
 10
-88.88391612868051
 20
27.23872305025892
 30
0.0
 10
-85.01950845345482
 20
26.02821784893405
 30
0.0
 10
-81.66464824662945
 20
25.4813721914185
 30
0.0
 10
-77.1649065192961
 20
26.68346668184422
 30
0.0
 10
-74.38376454761261
 20
28.21797495052306
 30
0.0
 10
-72.25649986797826
 20
28.47075595937405
 30
0.0
 10
-70.46464593184935
 20
29.47787505592974
 30
0.0
 10
-67.89539689590616
 20
30.18149147760847
 30
0.0
 10
-66.41895096626025
 20
28.0453424402633
 30
0.0
 10
-61.17196898820793
 20
25.64162662663164
 30
0.0
 10
-56.67734442199716
 20
30.78790445269766
 30
0.0
 10
-51.99202531650575
 20
34.43469408016238
 30
0.0
 10
-47.73429889462662
 20
32.21520592415644
 30
0.0
 10
-45.42264258660378
 20
33.1078436826822
 30
0.0
 10
-41.13556281499894
 20
30.31772646415092
 30
0.0
 10
-40.80307188803621
 20
29.11406170245396
 30
0.0
 10
-40.70345525602323
 20
26.30278604371626
 30
0.0
 10
-41.46319811695319
 20
24.66946362561797
 30
0.0
 10
-44.47248932033476
 20
25.33519671923264
 30
0.0
 10
-45.7757148652024
 20
21.92744557827974
 30
0.0
 10
-53.76950041353617
 20
24.38882413688862
 30
0.0
 10
-56.03957148298244
 20
24.81598346634161
 30
0.0
 10
-53.18718084415876
 20
22.09627256440588
 30
0.0
 10
-47.99982468951894
 20
23.12422103596706
 30
0.0
 10
-47.14406876529431
 20
19.95701760543892
 30
0.0
 10
-50.47703482135999
 20
18.81775632310909
 30
0.0
 10
-55.54112897832579
 20
16.90944776010756
 30
0.0
 10
-58.19526743877196
 20
20.13226216229095
 30
0.0
 10
-60.70843122980281
 20
20.11465657226426
 30
0.0
 10
-58.46739814359962
 20
18.26414898323776
 30
0.0
 10
-58.07559818627206
 20
16.23780601423493
 30
0.0
 10
-60.66021528027323
 20
17.36398443537194
 30
0.0
 10
-67.15663705753133
 20
17.60901812554415
 30
0.0
 10
-70.39981703898985
 20
16.25399096083713
 30
0.0
 10
-72.50832133472038
 20
19.18457369669501
 30
0.0
 10
-74.46208165697445
 20
18.67194195188466
 30
0.0
 10
-73.31183458407939
 20
17.21333857168541
 30
0.0
 10
-69.42648113859401
 20
15.70597090378214
 30
0.0
 10
-69.46638941563245
 20
13.5823049879549
 30
0.0
 10
-68.0909065071815
 20
11.15438646350698
 30
0.0
 10
-69.95797885890804
 20
8.587054087485102
 30
0.0
 10
-71.45741495397134
 20
7.048439016632838
 30
0.0
 10
-73.7167753937027
 20
9.333549503175828
 30
0.0
 10
-76.27244603857329
 20
9.727402247638327
 30
0.0
 10
-79.2534791006079
 20
8.733940133023669
 30
0.0
 10
-78.93677777274515
 20
11.88325361039704
 30
0.0
 10
-79.7891404367383
 20
14.34089400521172
 30
0.0
 10
-83.16020310352845
 20
15.29585701637819
 30
0.0
 10
-83.03722381908422
 20
17.69183104066361
 30
0.0
 10
-84.62013678544199
 20
19.01566735325103
 30
0.0
 10
-88.2821652637744
 20
19.40604673663935
 30
0.0
 10
-89.40057853713846
 20
17.52901521040134
 30
0.0
 10
-94.46859494465232
 20
17.88540043808334
 30
0.0
 10
-98.2173767888928
 20
19.79426826185635
 30
0.0
 10
-95.64327046295112
 20
23.22354180579611
 30
0.0
 10
-95.07765052140071
 20
23.71381225389755
 30
0.0
 10
-96.12927415203633
 20
26.65958686283548
 30
0.0
 10
-99.08513903244783
 20
28.86365691855466
 30
0.0
 10
-97.11484619505028
 20
25.9921781356457
 30
0.0
 10
-96.77658950326008
 20
23.38670684818056
 30
0.0
 10
-97.80685637075631
 20
22.29570443021723
 30
0.0
 10
-98.28469902276996
 20
21.78969234228135
 30
0.0
  0
LINE
  5
1000007E
102
{ACAD_XDICTIONARY
360
1000007F
102
}
330
1F
100
AcDbEntity
  8
MODELSKETCH_VISIBLE
100
AcDbLine
 10
4.393664654491815
 20
51.97925865668413
 30
0.0
 11
3.993784077465532
 21
51.00176855921745
 31
0.0
  0
SPLINE
  5
10000081
102
{ACAD_XDICTIONARY
360
10000082
102
}
330
1F
100
AcDbEntity
  8
MODELSKETCH_VISIBLE
100
AcDbSpline
210
0.0
220
0.0
230
1.0
 70
     8
 71
     3
 72
    37
 73
    33
 74
     0
 42
0.000000001
 43
0.00000001
 40
0.0
 40
0.0
 40
0.0
 40
0.0
 40
0.0285474464689184
 40
0.0447475553970759
 40
0.0767635718758174
 40
0.1139991131827574
 40
0.1453375739056556
 40
0.1905050777642566
 40
0.2325136060984927
 40
0.2712701972562181
 40
0.3007812657346631
 40
0.3309573066408365
 40
0.3687828385051046
 40
0.3992780559276668
 40
0.429400583200697
 40
0.4696036058051224
 40
0.5054281621114901
 40
0.536191431994568
 40
0.5775245291125736
 40
0.6011023347579734
 40
0.6279420470670264
 40
0.6602568201409861
 40
0.6986634634701083
 40
0.7438040701920512
 40
0.7795129218212419
 40
0.8214976477196765
 40
0.852833702846687
 40
0.8907063191833856
 40
0.9171339128001212
 40
0.945544913204302
 40
0.975220238763638
 40
1.0
 40
1.0
 40
1.0
 40
1.0
 10
-98.28469902276994
 20
21.78969234228135
 30
0.0
 10
-98.53177582468035
 20
21.37264981104138
 30
0.0
 10
-98.9190638048104
 20
20.71894392565106
 30
0.0
 10
-99.17685769748718
 20
20.15448349212193
 30
0.0
 10
-100.8725179211122
 20
21.03490851892164
 30
0.0
 10
-103.0252999258134
 20
20.50029656722174
 30
0.0
 10
-104.4473408802226
 20
19.91607858709486
 30
0.0
 10
-107.8164767913281
 20
20.21140635208924
 30
0.0
 10
-110.2573698008094
 20
21.59603144714251
 30
0.0
 10
-111.279594278493
 20
23.88773620943968
 30
0.0
 10
-111.9455830118164
 20
25.10645940422926
 30
0.0
 10
-113.2142315194179
 20
26.13302137241574
 30
0.0
 10
-115.5206969747626
 20
25.59873506877596
 30
0.0
 10
-117.0160221074327
 20
26.01502223661267
 30
0.0
 10
-118.0958445641001
 20
27.02541951093976
 30
0.0
 10
-118.8517171053849
 20
29.94204455174054
 30
0.0
 10
-116.3901109398364
 20
31.02240750203065
 30
0.0
 10
-117.5829657587413
 20
33.09284994219886
 30
0.0
 10
-114.5763309792369
 20
33.89243739315913
 30
0.0
 10
-113.5978550100795
 20
34.87632213177613
 30
0.0
 10
-115.2924325500521
 20
35.14160378578776
 30
0.0
 10
-116.6311937817845
 20
34.21635686565866
 30
0.0
 10
-118.6127861708873
 20
33.08288260093509
 30
0.0
 10
-122.5987428387334
 20
33.93565780174226
 30
0.0
 10
-121.6343624082085
 20
36.70892629195669
 30
0.0
 10
-118.9419215986912
 20
37.78043448605771
 30
0.0
 10
-117.4606214274312
 20
37.97515947040029
 30
0.0
 10
-115.6967520904227
 20
39.59828178786007
 30
0.0
 10
-115.2377725538959
 20
40.79319389950403
 30
0.0
 10
-113.8264505343703
 20
40.55672409733545
 30
0.0
 10
-112.2816189919934
 20
40.76752703490745
 30
0.0
 10
-112.192651348347
 20
41.53826538849071
 30
0.0
 10
-112.1521666646004
 20
41.88898950815201
 30
0.0
  0
SPLINE
  5
10000084
102
{ACAD_XDICTIONARY
360
10000085
102
}
330
1F
100
AcDbEntity
  8
MODELSKETCH_VISIBLE
100
AcDbSpline
210
0.0
220
0.0
230
1.0
 70
     8
 71
     3
 72
    12
 73
     8
 74
     0
 42
0.000000001
 43
0.00000001
 40
0.0
 40
0.0
 40
0.0
 40
0.0
 40
0.2024880119827694
 40
0.4142849602587693
 40
0.6309402877776267
 40
0.8152004953608493
 40
1.0
 40
1.0
 40
1.0
 40
1.0
 10
4.393664654491815
 20
51.97925865668413
 30
0.0
 10
4.645318942528243
 20
52.29040449261903
 30
0.0
 10
5.20248395592991
 20
52.70943844729475
 30
0.0
 10
6.356359827992665
 20
52.57657813522458
 30
0.0
 10
7.613737627301682
 20
52.45620356948398
 30
0.0
 10
8.04456417176465
 20
51.65403915924494
 30
0.0
 10
8.28739021541406
 20
51.02434601757062
 30
0.0
 10
8.280930964379907
 20
50.79644424072273
 30
0.0
  0
LINE
  5
10000087
102
{ACAD_XDICTIONARY
360
10000088
102
}
330
1F
100
AcDbEntity
  8
MODELSKETCH_VISIBLE
100
AcDbLine
 10
10.28080843389034
 20
50.06871372461319
 30
0.0
 11
9.214458055794239
 21
49.73547905683517
 31
0.0
  0
SPLINE
  5
1000008A
102
{ACAD_XDICTIONARY
360
1000008B
102
}
330
1F
100
AcDbEntity
  8
MODELSKETCH_VISIBLE
100
AcDbSpline
210
0.0
220
0.0
230
1.0
 70
     8
 71
     3
 72
    24
 73
    20
 74
     0
 42
0.000000001
 43
0.00000001
 40
0.0
 40
0.0
 40
0.0
 40
0.0
 40
0.0666297417936122
 40
0.1191068750606177
 40
0.1776130751032678
 40
0.2385045102265557
 40
0.2944062347278977
 40
0.3446683192513204
 40
0.3869335206025937
 40
0.4357557281118036
 40
0.4969520839076809
 40
0.5635135694484387
 40
0.6290348453316565
 40
0.6794797963084593
 40
0.7284352039094385
 40
0.7854741724236805
 40
0.8290233471286728
 40
0.9129266599550929
 40
1.0
 40
1.0
 40
1.0
 40
1.0
 10
-10.61659509721295
 20
34.37629620211392
 30
0.0
 10
-10.02619103034843
 20
33.84118085678379
 30
0.0
 10
-9.285883443388869
 20
32.64603043863695
 30
0.0
 10
-8.879626814576662
 20
31.02412249519256
 30
0.0
 10
-10.83349407982326
 20
29.98165631181063
 30
0.0
 10
-12.33927449227575
 20
30.7516848036228
 30
0.0
 10
-14.30369493527918
 20
32.31423911380362
 30
0.0
 10
-13.57171031061636
 20
30.12724439179821
 30
0.0
 10
-12.39105153888709
 20
30.39836948273676
 30
0.0
 10
-12.48714249334904
 20
28.37082480824806
 30
0.0
 10
-14.78562561042314
 20
28.93447958303022
 30
0.0
 10
-16.75385078335765
 20
28.9778303065657
 30
0.0
 10
-18.98004370801539
 20
30.26657628131237
 30
0.0
 10
-18.44075860009994
 20
31.83665597213782
 30
0.0
 10
-17.3433658685127
 20
32.53125356097665
 30
0.0
 10
-17.52400541145343
 20
34.30601395858272
 30
0.0
 10
-18.72432756693638
 20
35.53110727278125
 30
0.0
 10
-14.17926382249182
 20
35.90652389315779
 30
0.0
 10
-11.7662481727523
 20
35.27183854331823
 30
0.0
 10
-10.87618060410023
 20
34.59258005023003
 30
0.0
  0
SPLINE
  5
1000008D
102
{ACAD_XDICTIONARY
360
1000008E
102
}
330
1F
100
AcDbEntity
  8
MODELSKETCH_VISIBLE
100
AcDbSpline
210
0.0
220
0.0
230
1.0
 70
    11
 71
     3
 72
    23
 73
    19
 74
     0
 42
0.000000001
 43
0.00000001
 40
0.0
 40
0.0
 40
0.0
 40
0.0
 40
0.067560256224031
 40
0.1402240360179556
 40
0.1998025204732633
 40
0.2508678793408099
 40
0.3194792869944451
 40
0.3938571932925829
 40
0.4548336764399128
 40
0.5141083497536139
 40
0.5763235533845813
 40
0.641203829444211
 40
0.7096467576252713
 40
0.7744337037028719
 40
0.835463413497941
 40
0.8970144365688643
 40
0.9504634486897141
 40
1.0
 40
1.0
 40
1.0
 40
1.0
 10
-67.76953831520544
 20
15.98272897257693
 30
0.0
 10
-67.04981059251556
 20
16.34751196273538
 30
0.0
 10
-64.80972451376238
 20
15.54377766366833
 30
0.0
 10
-61.57208679476405
 20
15.21466963574476
 30
0.0
 10
-59.41102261797983
 20
16.34414458419868
 30
0.0
 10
-57.61874003142442
 20
15.91706291698129
 30
0.0
 10
-55.23102036265647
 20
14.02499078175492
 30
0.0
 10
-54.31115704198911
 20
10.03266168322592
 30
0.0
 10
-56.86842206285344
 20
8.714454172722098
 30
0.0
 10
-59.17173265756786
 20
8.611550660582708
 30
0.0
 10
-60.70175287965089
 20
6.078010640101729
 30
0.0
 10
-63.60083700162218
 20
6.831761691692265
 30
0.0
 10
-66.57913721038251
 20
6.23478009705723
 30
0.0
 10
-68.84871313472658
 20
9.298317841518001
 30
0.0
 10
-66.05913223977949
 20
10.77788591093609
 30
0.0
 10
-66.80647380467097
 20
13.66385366590412
 30
0.0
 10
-68.99251053292743
 20
14.31867910138894
 30
0.0
 10
-68.29725729167346
 20
15.71526267924046
 30
0.0
 10
-67.76953831520544
 20
15.98272897257693
 30
0.0
  0
LINE
  5
10000090
102
{ACAD_XDICTIONARY
360
10000091
102
}
330
1F
100
AcDbEntity
  8
MODELSKETCH_VISIBLE
100
AcDbLine
 10
-81.24720837879447
 20
70.52540286494438
 30
0.0
 11
-79.60885172480862
 21
71.60770964852887
 31
0.0
  0
SPLINE
  5
10000093
102
{ACAD_XDICTIONARY
360
10000094
102
}
330
1F
100
AcDbEntity
  8
MODELSKETCH_VISIBLE
100
AcDbSpline
210
0.0
220
0.0
230
1.0
 70
     8
 71
     3
 72
    17
 73
    13
 74
     0
 42
0.000000001
 43
0.00000001
 40
0.0
 40
0.0
 40
0.0
 40
0.0
 40
0.0887055814937863
 40
0.2129515357915203
 40
0.340152187986646
 40
0.4584079158179077
 40
0.5647122303816849
 40
0.6379414919227164
 40
0.7259807967922909
 40
0.8187041574522086
 40
0.9276800852625994
 40
1.0
 40
1.0
 40
1.0
 40
1.0
 10
-9.650413015080568
 20
35.85522915039926
 30
0.0
 10
-9.931195963076718
 20
36.16227467687946
 30
0.0
 10
-10.3737437358121
 20
36.87361417076899
 30
0.0
 10
-13.89159565164242
 20
38.66608670055322
 30
0.0
 10
-10.03346833829004
 20
40.42787789811482
 30
0.0
 10
-7.718723696560772
 20
40.00261397707156
 30
0.0
 10
-6.538596018591107
 20
38.2792823965699
 30
0.0
 10
-5.375345589905443
 20
37.87922979339786
 30
0.0
 10
-6.056303538290731
 20
36.42142532594787
 30
0.0
 10
-6.350595572621333
 20
34.78718046602398
 30
0.0
 10
-8.866870419334415
 20
34.95180308232549
 30
0.0
 10
-9.240999847261085
 20
35.43076346346307
 30
0.0
 10
-9.459521344468278
 20
35.65292012113308
 30
0.0
  0
SPLINE
  5
10000096
102
{ACAD_XDICTIONARY
360
10000097
102
}
330
1F
100
AcDbEntity
  8
MODELSKETCH_VISIBLE
100
AcDbSpline
210
0.0
220
0.0
230
1.0
 70
    11
 71
     3
 72
    25
 73
    21
 74
     0
 42
0.000000001
 43
0.00000001
 40
0.0
 40
0.0
 40
0.0
 40
0.0
 40
0.0858211805653451
 40
0.1517806911550842
 40
0.2116217910639482
 40
0.2721245303692684
 40
0.3135979246985781
 40
0.3556639547016873
 40
0.3863202808815108
 40
0.4234911523406129
 40
0.4797536385083507
 40
0.5360706269450175
 40
0.6055707592443015
 40
0.668909935444182
 40
0.7446927172981325
 40
0.7952485192412683
 40
0.8520636399348325
 40
0.9151290882606733
 40
0.9626828630982572
 40
1.0
 40
1.0
 40
1.0
 40
1.0
 10
-36.95492446422576
 20
32.46293962001801
 30
0.0
 10
-35.73282577586188
 20
32.79725271068263
 30
0.0
 10
-30.91906811156789
 20
34.21534683711371
 30
0.0
 10
-27.8588520870933
 20
32.3032258133095
 30
0.0
 10
-24.92833075939143
 20
32.98568919060086
 30
0.0
 10
-21.89825299829418
 20
32.57747937293092
 30
0.0
 10
-20.77977222660266
 20
31.6472710003689
 30
0.0
 10
-20.26734306762115
 20
30.23198604681521
 30
0.0
 10
-20.11422279802252
 20
29.4599916991628
 30
0.0
 10
-20.4432223667516
 20
28.30361588864608
 30
0.0
 10
-22.46414336812977
 20
26.36434926249443
 30
0.0
 10
-25.13106009002247
 20
26.71870989372821
 30
0.0
 10
-28.36000256377188
 20
24.12389108518235
 30
0.0
 10
-31.32723319108254
 20
23.07500065278018
 30
0.0
 10
-35.83442786225817
 20
23.49623620767427
 30
0.0
 10
-38.5225284067977
 20
24.88073918940961
 30
0.0
 10
-35.54051774698242
 20
27.56141446326182
 30
0.0
 10
-38.86748646316531
 20
29.92095663590287
 30
0.0
 10
-38.04998735689693
 20
32.18799815734361
 30
0.0
 10
-37.48632270135897
 20
32.31757215606338
 30
0.0
 10
-36.95492446422576
 20
32.46293962001801
 30
0.0
  0
SPLINE
  5
10000099
102
{ACAD_XDICTIONARY
360
1000009A
102
}
330
1F
100
AcDbEntity
  8
MODELSKETCH_VISIBLE
100
AcDbSpline
210
0.0
220
0.0
230
1.0
 70
     8
 71
     3
 72
    17
 73
    13
 74
     0
 42
0.000000001
 43
0.00000001
 40
0.0
 40
0.0
 40
0.0
 40
0.0
 40
0.1027756254050489
 40
0.1809087391024413
 40
0.2626811767329072
 40
0.3911250098597565
 40
0.5233969987230366
 40
0.6346292642313889
 40
0.7373209852593517
 40
0.8711480884065331
 40
0.9234308079853077
 40
1.0
 40
1.0
 40
1.0
 40
1.0
 10
-80.92865832566353
 20
69.84178906638512
 30
0.0
 10
-80.59374248206649
 20
69.08331454993505
 30
0.0
 10
-80.11783288206121
 20
67.78234430797741
 30
0.0
 10
-78.08666192277045
 20
67.39684851292483
 30
0.0
 10
-79.93926748132117
 20
65.91169984879073
 30
0.0
 10
-83.27594402785304
 20
66.37353867816256
 30
0.0
 10
-86.88180004478203
 20
67.19018450309832
 30
0.0
 10
-88.42561625588361
 20
70.19566410559119
 30
0.0
 10
-86.34800923851556
 20
71.9188129462906
 30
0.0
 10
-82.43510681987989
 20
71.9046691069783
 30
0.0
 10
-81.8402954575241
 20
71.65892554420512
 30
0.0
 10
-81.47473981746327
 20
70.9860840870884
 30
0.0
 10
-81.24720837879447
 20
70.52540286494438
 30
0.0
  0
ENDSEC
  0
SECTION
  2
OBJECTS
  0
DICTIONARY
  5
C
330
0
100
AcDbDictionary
  3
ACAD_GROUP
350
D
  3
ACAD_LAYOUT
350
1A
  3
ACAD_MATERIAL
350
43
  3
ACAD_MLEADERSTYLE
350
6B
  3
ACAD_MLINESTYLE
350
17
  3
ACAD_PLOTSETTINGS
350
19
  3
ACAD_SCALELIST
350
47
  3
ACAD_VISUALSTYLE
350
2A
  3
ACDBHEADERROUNDTRIPXREC
350
1000009E
  3
ACDBVARIABLEDICTIONARY
350
100000BF
  3
DWGPROPS
350
100000CA
  3
ONSHAPE_DATA
350
10000001
  0
DICTIONARY
  5
100000CB
330
8
100
AcDbDictionary
280
     1
  3
ACAD_XREC_ROUNDTRIP
360
100000CC
  0
DICTIONARY
  5
1000009C
330
1F
100
AcDbDictionary
280
     1
  3
ACAD_SORTENTS
360
1000009D
  0
DICTIONARY
  5
10000052
330
10000051
100
AcDbDictionary
280
     1
  3
BTDETID
360
10000053
  0
DICTIONARY
  5
10000055
330
10000054
100
AcDbDictionary
280
     1
  3
BTDETID
360
10000056
  0
DICTIONARY
  5
10000058
330
10000057
100
AcDbDictionary
280
     1
  3
BTDETID
360
10000059
  0
DICTIONARY
  5
1000005B
330
1000005A
100
AcDbDictionary
280
     1
  3
BTDETID
360
1000005C
  0
DICTIONARY
  5
1000005E
330
1000005D
100
AcDbDictionary
280
     1
  3
BTDETID
360
1000005F
  0
DICTIONARY
  5
10000061
330
10000060
100
AcDbDictionary
280
     1
  3
BTDETID
360
10000062
  0
DICTIONARY
  5
10000064
330
10000063
100
AcDbDictionary
280
     1
  3
BTDETID
360
10000065
  0
DICTIONARY
  5
10000067
330
10000066
100
AcDbDictionary
280
     1
  3
BTDETID
360
10000068
  0
DICTIONARY
  5
1000006A
330
10000069
100
AcDbDictionary
280
     1
  3
BTDETID
360
1000006B
  0
DICTIONARY
  5
1000006D
330
1000006C
100
AcDbDictionary
280
     1
  3
BTDETID
360
1000006E
  0
DICTIONARY
  5
10000070
330
1000006F
100
AcDbDictionary
280
     1
  3
BTDETID
360
10000071
  0
DICTIONARY
  5
10000073
330
10000072
100
AcDbDictionary
280
     1
  3
BTDETID
360
10000074
  0
DICTIONARY
  5
10000076
330
10000075
100
AcDbDictionary
280
     1
  3
BTDETID
360
10000077
  0
DICTIONARY
  5
10000079
330
10000078
100
AcDbDictionary
280
     1
  3
BTDETID
360
1000007A
  0
DICTIONARY
  5
1000007C
330
1000007B
100
AcDbDictionary
280
     1
  3
BTDETID
360
1000007D
  0
DICTIONARY
  5
1000007F
330
1000007E
100
AcDbDictionary
280
     1
  3
BTDETID
360
10000080
  0
DICTIONARY
  5
10000082
330
10000081
100
AcDbDictionary
280
     1
  3
BTDETID
360
10000083
  0
DICTIONARY
  5
10000085
330
10000084
100
AcDbDictionary
280
     1
  3
BTDETID
360
10000086
  0
DICTIONARY
  5
10000088
330
10000087
100
AcDbDictionary
280
     1
  3
BTDETID
360
10000089
  0
DICTIONARY
  5
1000008B
330
1000008A
100
AcDbDictionary
280
     1
  3
BTDETID
360
1000008C
  0
DICTIONARY
  5
1000008E
330
1000008D
100
AcDbDictionary
280
     1
  3
BTDETID
360
1000008F
  0
DICTIONARY
  5
10000091
330
10000090
100
AcDbDictionary
280
     1
  3
BTDETID
360
10000092
  0
DICTIONARY
  5
10000094
330
10000093
100
AcDbDictionary
280
     1
  3
BTDETID
360
10000095
  0
DICTIONARY
  5
10000097
330
10000096
100
AcDbDictionary
280
     1
  3
BTDETID
360
10000098
  0
DICTIONARY
  5
1000009A
330
10000099
100
AcDbDictionary
280
     1
  3
BTDETID
360
1000009B
  0
DICTIONARY
  5
D
102
{ACAD_REACTORS
330
C
102
}
330
C
100
AcDbDictionary
  0
DICTIONARY
  5
1A
102
{ACAD_REACTORS
330
C
102
}
330
C
100
AcDbDictionary
  0
DICTIONARY
  5
43
102
{ACAD_REACTORS
330
C
102
}
330
C
100
AcDbDictionary
  3
BYBLOCK
350
45
  3
BYLAYER
350
44
  3
GLOBAL
350
46
  0
DICTIONARY
  5
6B
102
{ACAD_REACTORS
330
C
102
}
330
C
100
AcDbDictionary
  3
STANDARD
350
6C
  0
DICTIONARY
  5
17
102
{ACAD_REACTORS
330
C
102
}
330
C
100
AcDbDictionary
  3
STANDARD
350
18
  0
DICTIONARY
  5
19
102
{ACAD_REACTORS
330
C
102
}
330
C
100
AcDbDictionary
  0
DICTIONARY
  5
47
102
{ACAD_REACTORS
330
C
102
}
330
C
100
AcDbDictionary
  3
SCALE100_1
350
10000023
  3
SCALE10_1
350
1000001D
  3
SCALE12_1
350
1000001E
  3
SCALE16_1
350
1000001F
  3
SCALE1_1
350
10000006
  3
SCALE1_10
350
1000000D
  3
SCALE1_100
350
10000016
  3
SCALE1_12
350
1000000E
  3
SCALE1_16
350
1000000F
  3
SCALE1_2
350
10000007
  3
SCALE1_20
350
10000010
  3
SCALE1_25
350
10000011
  3
SCALE1_3
350
10000008
  3
SCALE1_32
350
10000012
  3
SCALE1_4
350
10000009
  3
SCALE1_40
350
10000013
  3
SCALE1_5
350
1000000A
  3
SCALE1_50
350
10000014
  3
SCALE1_6
350
1000000B
  3
SCALE1_8
350
1000000C
  3
SCALE1_80
350
10000015
  3
SCALE20_1
350
10000020
  3
SCALE2_1
350
10000017
  3
SCALE32_1
350
10000021
  3
SCALE3_1
350
10000018
  3
SCALE4_1
350
10000019
  3
SCALE50_1
350
10000022
  3
SCALE5_1
350
1000001A
  3
SCALE6_1
350
1000001B
  3
SCALE8_1
350
1000001C
  0
DICTIONARY
  5
2A
102
{ACAD_REACTORS
330
C
102
}
330
C
100
AcDbDictionary
  3
2DWIREFRAME
350
2F
  3
BASIC
350
32
  3
BRIGHTEN
350
36
  3
COLORCHANGE
350
3A
  3
CONCEPTUAL
350
34
  3
DIM
350
35
  3
EDGECOLOROFF
350
3D
  3
FACEPATTERN
350
39
  3
FLAT
350
2B
  3
FLATWITHEDGES
350
2C
  3
GOURAUD
350
2D
  3
GOURAUDWITHEDGES
350
2E
  3
HIDDEN
350
31
  3
JITTEROFF
350
3B
  3
LINEPATTERN
350
38
  3
OVERHANGOFF
350
3C
  3
REALISTIC
350
33
  3
SHADED
350
42
  3
SHADED_WITH_EDGES
350
41
  3
SHADES_OF_GRAY
350
3E
  3
SKETCHY
350
3F
  3
THICKEN
350
37
  3
WIREFRAME
350
30
  3
X-RAY
350
40
  0
DICTIONARY
  5
1000009E
102
{ACAD_REACTORS
330
C
102
}
330
C
100
AcDbDictionary
  3
CEPSNID
350
100000A8
  3
CEPSNTYPE
350
100000A7
  3
DIMSTYLEDATA
350
100000BE
  3
FINGERPRINTGUID
350
100000A9
  3
HYPERLINKBASE
350
100000A1
  3
INSUNITS
350
100000A6
  3
LAYOUTDICT
350
100000A3
  3
LWETCUNION
350
100000A5
  3
PLOTSETDICT
350
100000A4
  3
PSVPSCALE
350
100000AB
  3
PUCSBASE
350
100000AE
  3
PUCSORGBACK
350
100000B4
  3
PUCSORGBOTTOM
350
100000B0
  3
PUCSORGFRONT
350
100000B3
  3
PUCSORGLEFT
350
100000B1
  3
PUCSORGRIGHT
350
100000B2
  3
PUCSORGTOP
350
100000AF
  3
PUCSORTHOREF
350
100000AC
  3
PUCSORTHOVIEW
350
100000AD
  3
STYLESHEET
350
100000A2
  3
TSTACKALIGN
350
1000009F
  3
TSTACKSIZE
350
100000A0
  3
UCSBASE
350
100000B7
  3
UCSORGBACK
350
100000BD
  3
UCSORGBOTTOM
350
100000B9
  3
UCSORGFRONT
350
100000BC
  3
UCSORGLEFT
350
100000BA
  3
UCSORGRIGHT
350
100000BB
  3
UCSORGTOP
350
100000B8
  3
UCSORTHOREF
350
100000B5
  3
UCSORTHOVIEW
350
100000B6
  3
VERSIONGUID
350
100000AA
  0
DICTIONARY
  5
100000BF
102
{ACAD_REACTORS
330
C
102
}
330
C
100
AcDbDictionary
  3
CANNOSCALE
350
100000CD
  3
CENTEREXE
350
100000C6
  3
CENTERLTYPEFILE
350
100000C7
  3
CMLEADERSTYLE
350
100000C1
  3
CTABLESTYLE
350
100000C0
  3
DIMASSOC
350
100000C8
  3
HIDETEXT
350
100000C9
  3
MSLTSCALE
350
100000CE
  3
PSOLHEIGHT
350
100000C3
  3
PSOLWIDTH
350
100000C2
  0
XRECORD
  5
100000CA
102
{ACAD_REACTORS
330
C
102
}
330
C
100
AcDbXrecord
  1
DWGPROPS COOKIE
  2

  3

  4

  6
File was created by BTDwgCreate
  7

  8

  9

300
=
301
=
302
=
303
=
304
=
305
=
306
=
307
=
308
=
309
=
 40
0.0
 41
2460568.528444908
 42
2460568.528444919
  1

 90
        0
  0
DICTIONARY
  5
10000001
102
{ACAD_REACTORS
330
C
102
}
330
C
100
AcDbDictionary
280
     1
  3
DIM_UNITS
360
10000003
  3
DWGGEN_VERSION
360
10000002
  3
FIRST_ANGLE
360
10000005
  0
XRECORD
  5
100000CC
102
{ACAD_REACTORS
330
100000CB
102
}
330
100000CB
100
AcDbXrecord
102
VTR_0.000_0.000_1.000_1.000_VISUALSTYLE
340
2F
102
VTR_0.000_0.000_1.000_1.000_GRIDDISPLAY
 70
     3
102
VTR_0.000_0.000_1.000_1.000_GRIDMAJOR
 70
     5
102
VTR_0.000_0.000_1.000_1.000_DEFAULTLIGHTING
280
     1
102
VTR_0.000_0.000_1.000_1.000_DEFAULTLIGHTINGTYPE
 70
     1
102
VTR_0.000_0.000_1.000_1.000_BRIGHTNESS
141
0.0
102
VTR_0.000_0.000_1.000_1.000_CONTRAST
142
0.0
  0
SORTENTSTABLE
  5
1000009D
102
{ACAD_REACTORS
330
1000009C
102
}
330
1000009C
100
AcDbSortentsTable
330
1F
  0
XRECORD
  5
10000053
102
{ACAD_REACTORS
330
10000052
102
}
330
10000052
100
AcDbXrecord
1000
KH9B
  0
XRECORD
  5
10000056
102
{ACAD_REACTORS
330
10000055
102
}
330
10000055
100
AcDbXrecord
1000
JHJ
  0
XRECORD
  5
10000059
102
{ACAD_REACTORS
330
10000058
102
}
330
10000058
100
AcDbXrecord
1000
KHdC
  0
XRECORD
  5
1000005C
102
{ACAD_REACTORS
330
1000005B
102
}
330
1000005B
100
AcDbXrecord
1000
KHZC
  0
XRECORD
  5
1000005F
102
{ACAD_REACTORS
330
1000005E
102
}
330
1000005E
100
AcDbXrecord
1000
JHZ
  0
XRECORD
  5
10000062
102
{ACAD_REACTORS
330
10000061
102
}
330
10000061
100
AcDbXrecord
1000
KHlB
  0
XRECORD
  5
10000065
102
{ACAD_REACTORS
330
10000064
102
}
330
10000064
100
AcDbXrecord
1000
KHZD
  0
XRECORD
  5
10000068
102
{ACAD_REACTORS
330
10000067
102
}
330
10000067
100
AcDbXrecord
1000
KHhC
  0
XRECORD
  5
1000006B
102
{ACAD_REACTORS
330
1000006A
102
}
330
1000006A
100
AcDbXrecord
1000
JHV
  0
XRECORD
  5
1000006E
102
{ACAD_REACTORS
330
1000006D
102
}
330
1000006D
100
AcDbXrecord
1000
KH9C
  0
XRECORD
  5
10000071
102
{ACAD_REACTORS
330
10000070
102
}
330
10000070
100
AcDbXrecord
1000
KHtC
  0
XRECORD
  5
10000074
102
{ACAD_REACTORS
330
10000073
102
}
330
10000073
100
AcDbXrecord
1000
KH5C
  0
XRECORD
  5
10000077
102
{ACAD_REACTORS
330
10000076
102
}
330
10000076
100
AcDbXrecord
1000
KHZB
  0
XRECORD
  5
1000007A
102
{ACAD_REACTORS
330
10000079
102
}
330
10000079
100
AcDbXrecord
1000
KHND
  0
XRECORD
  5
1000007D
102
{ACAD_REACTORS
330
1000007C
102
}
330
1000007C
100
AcDbXrecord
1000
JHl
  0
XRECORD
  5
10000080
102
{ACAD_REACTORS
330
1000007F
102
}
330
1000007F
100
AcDbXrecord
1000
KHxD
  0
XRECORD
  5
10000083
102
{ACAD_REACTORS
330
10000082
102
}
330
10000082
100
AcDbXrecord
1000
JHx
  0
XRECORD
  5
10000086
102
{ACAD_REACTORS
330
10000085
102
}
330
10000085
100
AcDbXrecord
1000
KHxB
  0
XRECORD
  5
10000089
102
{ACAD_REACTORS
330
10000088
102
}
330
10000088
100
AcDbXrecord
1000
KHlD
  0
XRECORD
  5
1000008C
102
{ACAD_REACTORS
330
1000008B
102
}
330
1000008B
100
AcDbXrecord
1000
KHBB
  0
XRECORD
  5
1000008F
102
{ACAD_REACTORS
330
1000008E
102
}
330
1000008E
100
AcDbXrecord
1000
KHBC
  0
XRECORD
  5
10000092
102
{ACAD_REACTORS
330
10000091
102
}
330
10000091
100
AcDbXrecord
1000
KHBD
  0
XRECORD
  5
10000095
102
{ACAD_REACTORS
330
10000094
102
}
330
10000094
100
AcDbXrecord
1000
KHNB
  0
XRECORD
  5
10000098
102
{ACAD_REACTORS
330
10000097
102
}
330
10000097
100
AcDbXrecord
1000
JH1
  0
XRECORD
  5
1000009B
102
{ACAD_REACTORS
330
1000009A
102
}
330
1000009A
100
AcDbXrecord
1000
KHNC
  0
MATERIAL
  5
45
102
{ACAD_REACTORS
330
43
102
}
102
{ACAD_XDICTIONARY
360
100000D1
102
}
330
43
100
AcDbMaterial
  1
BYBLOCK
  0
MATERIAL
  5
44
102
{ACAD_REACTORS
330
43
102
}
102
{ACAD_XDICTIONARY
360
100000CF
102
}
330
43
100
AcDbMaterial
  1
BYLAYER
  0
MATERIAL
  5
46
102
{ACAD_REACTORS
330
43
102
}
102
{ACAD_XDICTIONARY
360
100000D3
102
}
330
43
100
AcDbMaterial
  1
GLOBAL
  0
ACAD_PROXY_OBJECT
  5
6C
102
{ACAD_REACTORS
330
6B
102
}
330
6B
100
AcDbProxyObject
 90
      499
 91
      505
 93
      610
310
40901902A4063FBFFFFFE0000000000000020400000000000020404214DD185B99185C990000000000000104090141901A00000000000004100000000000000041025764000000000000039000
340
14
340
0
340
11
340
0
 94
        0
1001
ACAD_MLEADERVER
1070
     2
  0
MLINESTYLE
  5
18
102
{ACAD_REACTORS
330
17
102
}
330
17
100
AcDbMlineStyle
  2
Standard
 70
     0
  3

 62
   256
 51
90.0
 52
90.0
 71
     2
 49
0.5
 62
   256
  6
BYLAYER
 49
-0.5
 62
   256
  6
BYLAYER
  0
ACAD_PROXY_OBJECT
  5
10000023
102
{ACAD_REACTORS
330
47
102
}
330
47
100
AcDbProxyObject
 90
      499
 91
      503
 93
      121
310
9053130303A310000000000001650100
  0
ACAD_PROXY_OBJECT
  5
1000001D
102
{ACAD_REACTORS
330
47
102
}
330
47
100
AcDbProxyObject
 90
      499
 91
      503
 93
      113
310
90431303A310000000000000910100
  0
ACAD_PROXY_OBJECT
  5
1000001E
102
{ACAD_REACTORS
330
47
102
}
330
47
100
AcDbProxyObject
 90
      499
 91
      503
 93
      113
310
90431323A310000000000000A10100
  0
ACAD_PROXY_OBJECT
  5
1000001F
102
{ACAD_REACTORS
330
47
102
}
330
47
100
AcDbProxyObject
 90
      499
 91
      503
 93
      113
310
90431363A310000000000000C10100
  0
ACAD_PROXY_OBJECT
  5
10000006
102
{ACAD_REACTORS
330
47
102
}
330
47
100
AcDbProxyObject
 90
      499
 91
      503
 93
       41
310
903313A31500
  0
ACAD_PROXY_OBJECT
  5
1000000D
102
{ACAD_REACTORS
330
47
102
}
330
47
100
AcDbProxyObject
 90
      499
 91
      503
 93
      113
310
904313A31304000000000000244000
  0
ACAD_PROXY_OBJECT
  5
10000016
102
{ACAD_REACTORS
330
47
102
}
330
47
100
AcDbProxyObject
 90
      499
 91
      503
 93
      121
310
905313A3130304000000000000594000
  0
ACAD_PROXY_OBJECT
  5
1000000E
102
{ACAD_REACTORS
330
47
102
}
330
47
100
AcDbProxyObject
 90
      499
 91
      503
 93
      113
310
904313A31324000000000000284000
  0
ACAD_PROXY_OBJECT
  5
1000000F
102
{ACAD_REACTORS
330
47
102
}
330
47
100
AcDbProxyObject
 90
      499
 91
      503
 93
      113
310
904313A31364000000000000304000
  0
ACAD_PROXY_OBJECT
  5
10000007
102
{ACAD_REACTORS
330
47
102
}
330
47
100
AcDbProxyObject
 90
      499
 91
      503
 93
      105
310
903313A324000000000000004000
  0
ACAD_PROXY_OBJECT
  5
10000010
102
{ACAD_REACTORS
330
47
102
}
330
47
100
AcDbProxyObject
 90
      499
 91
      503
 93
      113
310
904313A32304000000000000344000
  0
ACAD_PROXY_OBJECT
  5
10000011
102
{ACAD_REACTORS
330
47
102
}
330
47
100
AcDbProxyObject
 90
      499
 91
      503
 93
      113
310
904313A32354000000000000394000
  0
ACAD_PROXY_OBJECT
  5
10000008
102
{ACAD_REACTORS
330
47
102
}
330
47
100
AcDbProxyObject
 90
      499
 91
      503
 93
      105
310
903313A334000000000000084000
  0
ACAD_PROXY_OBJECT
  5
10000012
102
{ACAD_REACTORS
330
47
102
}
330
47
100
AcDbProxyObject
 90
      499
 91
      503
 93
      113
310
904313A33324000000000000404000
  0
ACAD_PROXY_OBJECT
  5
10000009
102
{ACAD_REACTORS
330
47
102
}
330
47
100
AcDbProxyObject
 90
      499
 91
      503
 93
      105
310
903313A344000000000000104000
  0
ACAD_PROXY_OBJECT
  5
10000013
102
{ACAD_REACTORS
330
47
102
}
330
47
100
AcDbProxyObject
 90
      499
 91
      503
 93
      113
310
904313A34304000000000000444000
  0
ACAD_PROXY_OBJECT
  5
1000000A
102
{ACAD_REACTORS
330
47
102
}
330
47
100
AcDbProxyObject
 90
      499
 91
      503
 93
      105
310
903313A354000000000000144000
  0
ACAD_PROXY_OBJECT
  5
10000014
102
{ACAD_REACTORS
330
47
102
}
330
47
100
AcDbProxyObject
 90
      499
 91
      503
 93
      113
310
904313A35304000000000000494000
  0
ACAD_PROXY_OBJECT
  5
1000000B
102
{ACAD_REACTORS
330
47
102
}
330
47
100
AcDbProxyObject
 90
      499
 91
      503
 93
      105
310
903313A364000000000000184000
  0
ACAD_PROXY_OBJECT
  5
1000000C
102
{ACAD_REACTORS
330
47
102
}
330
47
100
AcDbProxyObject
 90
      499
 91
      503
 93
      105
310
903313A384000000000000204000
  0
ACAD_PROXY_OBJECT
  5
10000015
102
{ACAD_REACTORS
330
47
102
}
330
47
100
AcDbProxyObject
 90
      499
 91
      503
 93
      113
310
904313A38304000000000000544000
  0
ACAD_PROXY_OBJECT
  5
10000020
102
{ACAD_REACTORS
330
47
102
}
330
47
100
AcDbProxyObject
 90
      499
 91
      503
 93
      113
310
90432303A310000000000000D10100
  0
ACAD_PROXY_OBJECT
  5
10000017
102
{ACAD_REACTORS
330
47
102
}
330
47
100
AcDbProxyObject
 90
      499
 91
      503
 93
      105
310
903323A310000000000000010100
  0
ACAD_PROXY_OBJECT
  5
10000021
102
{ACAD_REACTORS
330
47
102
}
330
47
100
AcDbProxyObject
 90
      499
 91
      503
 93
      113
310
90433323A310000000000001010100
  0
ACAD_PROXY_OBJECT
  5
10000018
102
{ACAD_REACTORS
330
47
102
}
330
47
100
AcDbProxyObject
 90
      499
 91
      503
 93
      105
310
903333A310000000000000210100
  0
ACAD_PROXY_OBJECT
  5
10000019
102
{ACAD_REACTORS
330
47
102
}
330
47
100
AcDbProxyObject
 90
      499
 91
      503
 93
      105
310
903343A310000000000000410100
  0
ACAD_PROXY_OBJECT
  5
10000022
102
{ACAD_REACTORS
330
47
102
}
330
47
100
AcDbProxyObject
 90
      499
 91
      503
 93
      113
310
90435303A310000000000001250100
  0
ACAD_PROXY_OBJECT
  5
1000001A
102
{ACAD_REACTORS
330
47
102
}
330
47
100
AcDbProxyObject
 90
      499
 91
      503
 93
      105
310
903353A310000000000000510100
  0
ACAD_PROXY_OBJECT
  5
1000001B
102
{ACAD_REACTORS
330
47
102
}
330
47
100
AcDbProxyObject
 90
      499
 91
      503
 93
      105
310
903363A310000000000000610100
  0
ACAD_PROXY_OBJECT
  5
1000001C
102
{ACAD_REACTORS
330
47
102
}
330
47
100
AcDbProxyObject
 90
      499
 91
      503
 93
      105
310
903383A310000000000000810100
  0
ACAD_PROXY_OBJECT
  5
2F
102
{ACAD_REACTORS
330
2A
102
}
330
2A
100
AcDbProxyObject
 90
      499
 91
      501
 93
      436
310
42CC9915DA5C99599C985B595049028333333333333E33F0000000000000F90107901411070040501600405405064090741402480A0340
1001
ACAD
1000
AcDbSavedByObjectVersion
1070
     0
  0
ACAD_PROXY_OBJECT
  5
32
102
{ACAD_REACTORS
330
2A
102
}
330
2A
100
AcDbProxyObject
 90
      499
 91
      501
 93
      388
310
4150985CDA58D07406404333333333333E33F0000000000000F90107A41107004050150841D405064090741402480A0350
1001
ACAD
1000
AcDbSavedByObjectVersion
1070
     0
  0
ACAD_PROXY_OBJECT
  5
36
102
{ACAD_REACTORS
330
2A
102
}
330
2A
100
AcDbProxyObject
 90
      499
 91
      501
 93
      428
310
42109C9A59DA1D195B90C409028333333333333E33F0000000000000F9010790141107004050150841D405064090741402480A029950
1001
ACAD
1000
AcDbSavedByObjectVersion
1070
     0
  0
ACAD_PROXY_OBJECT
  5
3A
102
{ACAD_REACTORS
330
2A
102
}
330
2A
100
AcDbProxyObject
 90
      499
 91
      501
 93
      452
310
42D0DBDB1BDC90DA185B99D95104090240C333333333333E33F0000000000000F90108901411070040501508421405064090741402480A0350
1001
ACAD
1000
AcDbSavedByObjectVersion
1070
     0
  0
ACAD_PROXY_OBJECT
  5
34
102
{ACAD_REACTORS
330
2A
102
}
330
2A
100
AcDbProxyObject
 90
      499
 91
      501
 93
      500
310
4290DBDB98D95C1D1D585B10940D028333333333333E33F0000000000000F90107902409070040501000000000018199010841D405064090740C02480A0340
1001
ACAD
1000
AcDbSavedByObjectVersion
1070
     0
  0
ACAD_PROXY_OBJECT
  5
35
102
{ACAD_REACTORS
330
2A
102
}
330
2A
100
AcDbProxyObject
 90
      499
 91
      501
 93
      412
310
40D11A5B50B409028333333333333E33F0000000000000F9010790141107004050150841D405064090741402480A02677FFFFFD0
1001
ACAD
1000
AcDbSavedByObjectVersion
1070
     0
  0
ACAD_PROXY_OBJECT
  5
3D
102
{ACAD_REACTORS
330
2A
102
}
330
2A
100
AcDbProxyObject
 90
      499
 91
      501
 93
      452
310
43115919D950DBDB1BDC93D999916409028333333333333E33F0000000000000F9010790141107004050150841D405064090741402480A0350
1001
ACAD
1000
AcDbSavedByObjectVersion
1070
     0
  0
ACAD_PROXY_OBJECT
  5
39
102
{ACAD_REACTORS
330
2A
102
}
330
2A
100
AcDbProxyObject
 90
      499
 91
      501
 93
      444
310
42D19858D95C185D1D195C9B90F409028333333333333E33F0000000000000F9010790141107004050150841D405064090741402480A0350
1001
ACAD
1000
AcDbSavedByObjectVersion
1070
     0
  0
ACAD_PROXY_OBJECT
  5
2B
102
{ACAD_REACTORS
330
2A
102
}
330
2A
100
AcDbProxyObject
 90
      499
 91
      501
 93
      380
310
41119B185D240901404333333333333E33F0000000000000F9010740A907004050150841D405064090741402480A1B50
1001
ACAD
1000
AcDbSavedByObjectVersion
1070
     0
  0
ACAD_PROXY_OBJECT
  5
2C
102
{ACAD_REACTORS
330
2A
102
}
330
2A
100
AcDbProxyObject
 90
      499
 91
      501
 93
      468
310
43519B185D15DA5D1A115919D95CD0140901404333333333333E33F0000000000000F90107409019070040501600405405064090741402480A1B50
1001
ACAD
1000
AcDbSavedByObjectVersion
1070
     0
  0
ACAD_PROXY_OBJECT
  5
2D
102
{ACAD_REACTORS
330
2A
102
}
330
2A
100
AcDbProxyObject
 90
      499
 91
      501
 93
      404
310
41D1DBDD5C985D5910240902404333333333333E33F0000000000000F9010740A9070040501641D405064090741402480A1B50
1001
ACAD
1000
AcDbSavedByObjectVersion
1070
     0
  0
ACAD_PROXY_OBJECT
  5
2E
102
{ACAD_REACTORS
330
2A
102
}
330
2A
100
AcDbProxyObject
 90
      499
 91
      501
 93
      492
310
4411DBDD5C985D5915DA5D1A115919D95CD0340902404333333333333E33F0000000000000F90107409019070040501600405405064090741402480A1B50
1001
ACAD
1000
AcDbSavedByObjectVersion
1070
     0
  0
ACAD_PROXY_OBJECT
  5
31
102
{ACAD_REACTORS
330
2A
102
}
330
2A
100
AcDbProxyObject
 90
      499
 91
      501
 93
      476
310
41921A5919195B90640502408333333333333E33F0000000000000F901079024090700405020000000000001110200405405064090740C02480A0340
1001
ACAD
1000
AcDbSavedByObjectVersion
1070
     0
  0
ACAD_PROXY_OBJECT
  5
3B
102
{ACAD_REACTORS
330
2A
102
}
330
2A
100
AcDbProxyObject
 90
      499
 91
      501
 93
      428
310
42529A5D1D195C93D999914409028333333333333E33F0000000000000F9010790141107004050150A41D405064090741402480A0350
1001
ACAD
1000
AcDbSavedByObjectVersion
1070
     0
  0
ACAD_PROXY_OBJECT
  5
38
102
{ACAD_REACTORS
330
2A
102
}
330
2A
100
AcDbProxyObject
 90
      499
 91
      501
 93
      444
310
42D31A5B995C185D1D195C9B90E409028333333333333E33F0000000000000F9010790141107004050750841D405064090741402483A0350
1001
ACAD
1000
AcDbSavedByObjectVersion
1070
     0
  0
ACAD_PROXY_OBJECT
  5
3C
102
{ACAD_REACTORS
330
2A
102
}
330
2A
100
AcDbProxyObject
 90
      499
 91
      501
 93
      444
310
42D3DD995C9A185B99D3D999915409028333333333333E33F0000000000000F9010790141107004050150941D405064090741402480A0350
1001
ACAD
1000
AcDbSavedByObjectVersion
1070
     0
  0
ACAD_PROXY_OBJECT
  5
33
102
{ACAD_REACTORS
330
2A
102
}
330
2A
100
AcDbProxyObject
 90
      499
 91
      501
 93
      428
310
425499585B1A5CDD1A58D08409038333333333333E33F0000000000000F9010740A907004050150800405405064090740C02480A1B40
1001
ACAD
1000
AcDbSavedByObjectVersion
1070
     0
  0
ACAD_PROXY_OBJECT
  5
42
102
{ACAD_REACTORS
330
2A
102
}
330
2A
100
AcDbProxyObject
 90
      499
 91
      501
 93
      420
310
4194DA1859195911B40902404333333333333E33F0000000000000F9010740A41107004050150800405405064090840C02480A0B40
1001
ACAD
1000
AcDbSavedByObjectVersion
1070
     0
  0
ACAD_PROXY_OBJECT
  5
41
102
{ACAD_REACTORS
330
2A
102
}
330
2A
100
AcDbProxyObject
 90
      499
 91
      501
 93
      516
310
4454DA18591959081DDA5D1A08195919D95CD1A40902404333333333333E33F0000000000000F901074090142907004050250800405405064090740C02480A0B40
1001
ACAD
1000
AcDbSavedByObjectVersion
1070
     0
  0
ACAD_PROXY_OBJECT
  5
3E
102
{ACAD_REACTORS
330
2A
102
}
330
2A
100
AcDbProxyObject
 90
      499
 91
      501
 93
      532
310
4394DA1859195CC81BD98811DC985E5174090240C333333333333E33F0000000000000F901079024090741D01000000000000111010841D405064090740C02480A0340
1001
ACAD
1000
AcDbSavedByObjectVersion
1070
     0
  0
ACAD_PROXY_OBJECT
  5
3F
102
{ACAD_REACTORS
330
2A
102
}
330
2A
100
AcDbProxyObject
 90
      499
 91
      501
 93
      476
310
41D4DAD95D18DA1E51840502408333333333333E33F0000000000000F901079024090741D01000000000000111010B41D405064090741802480A0340
1001
ACAD
1000
AcDbSavedByObjectVersion
1070
     0
  0
ACAD_PROXY_OBJECT
  5
37
102
{ACAD_REACTORS
330
2A
102
}
330
2A
100
AcDbProxyObject
 90
      499
 91
      501
 93
      412
310
41D51A1A58DAD95B90D409028333333333333E33F0000000000000F9010790141107004050150C41D405064090741402480A0350
1001
ACAD
1000
AcDbSavedByObjectVersion
1070
     0
  0
ACAD_PROXY_OBJECT
  5
30
102
{ACAD_REACTORS
330
2A
102
}
330
2A
100
AcDbProxyObject
 90
      499
 91
      501
 93
      420
310
4255DA5C99599C985B595059028333333333333E33F0000000000000F90107901411070040501600405405064090740C02480A0340
1001
ACAD
1000
AcDbSavedByObjectVersion
1070
     0
  0
ACAD_PROXY_OBJECT
  5
40
102
{ACAD_REACTORS
330
2A
102
}
330
2A
100
AcDbProxyObject
 90
      499
 91
      501
 93
      404
310
41560B54985E51940902404000000000000E03F0000000000000F9010740501907004050150841D405064090740C02480A1B40
1001
ACAD
1000
AcDbSavedByObjectVersion
1070
     0
  0
XRECORD
  5
100000A8
102
{ACAD_REACTORS
330
1000009E
102
}
330
1000009E
100
AcDbXrecord
340
0
  0
XRECORD
  5
100000A7
102
{ACAD_REACTORS
330
1000009E
102
}
330
1000009E
100
AcDbXrecord
 90
        0
  0
XRECORD
  5
100000BE
102
{ACAD_REACTORS
330
1000009E
102
}
330
1000009E
100
AcDbXrecord
1000
DSTYLE
1002
{
1070
   340
340
11
1002
}
  0
XRECORD
  5
100000A9
102
{ACAD_REACTORS
330
1000009E
102
}
330
1000009E
100
AcDbXrecord
  1
{7173b036-7063-3963-7670-633379336566}
  0
XRECORD
  5
100000A1
102
{ACAD_REACTORS
330
1000009E
102
}
330
1000009E
100
AcDbXrecord
  1

  0
XRECORD
  5
100000A6
102
{ACAD_REACTORS
330
1000009E
102
}
330
1000009E
100
AcDbXrecord
 90
        4
  0
XRECORD
  5
100000A3
102
{ACAD_REACTORS
330
1000009E
102
}
330
1000009E
100
AcDbXrecord
340
1A
  0
XRECORD
  5
100000A5
102
{ACAD_REACTORS
330
1000009E
102
}
330
1000009E
100
AcDbXrecord
 90
    10781
  0
XRECORD
  5
100000A4
102
{ACAD_REACTORS
330
1000009E
102
}
330
1000009E
100
AcDbXrecord
340
19
  0
XRECORD
  5
100000AB
102
{ACAD_REACTORS
330
1000009E
102
}
330
1000009E
100
AcDbXrecord
 40
0.0
  0
XRECORD
  5
100000AE
102
{ACAD_REACTORS
330
1000009E
102
}
330
1000009E
100
AcDbXrecord
340
0
  0
XRECORD
  5
100000B4
102
{ACAD_REACTORS
330
1000009E
102
}
330
1000009E
100
AcDbXrecord
 10
0.0
 20
0.0
 30
0.0
  0
XRECORD
  5
100000B0
102
{ACAD_REACTORS
330
1000009E
102
}
330
1000009E
100
AcDbXrecord
 10
0.0
 20
0.0
 30
0.0
  0
XRECORD
  5
100000B3
102
{ACAD_REACTORS
330
1000009E
102
}
330
1000009E
100
AcDbXrecord
 10
0.0
 20
0.0
 30
0.0
  0
XRECORD
  5
100000B1
102
{ACAD_REACTORS
330
1000009E
102
}
330
1000009E
100
AcDbXrecord
 10
0.0
 20
0.0
 30
0.0
  0
XRECORD
  5
100000B2
102
{ACAD_REACTORS
330
1000009E
102
}
330
1000009E
100
AcDbXrecord
 10
0.0
 20
0.0
 30
0.0
  0
XRECORD
  5
100000AF
102
{ACAD_REACTORS
330
1000009E
102
}
330
1000009E
100
AcDbXrecord
 10
0.0
 20
0.0
 30
0.0
  0
XRECORD
  5
100000AC
102
{ACAD_REACTORS
330
1000009E
102
}
330
1000009E
100
AcDbXrecord
340
0
  0
XRECORD
  5
100000AD
102
{ACAD_REACTORS
330
1000009E
102
}
330
1000009E
100
AcDbXrecord
 70
     0
  0
XRECORD
  5
100000A2
102
{ACAD_REACTORS
330
1000009E
102
}
330
1000009E
100
AcDbXrecord
  1

  0
XRECORD
  5
1000009F
102
{ACAD_REACTORS
330
1000009E
102
}
330
1000009E
100
AcDbXrecord
 90
        1
  0
XRECORD
  5
100000A0
102
{ACAD_REACTORS
330
1000009E
102
}
330
1000009E
100
AcDbXrecord
 90
       70
  0
XRECORD
  5
100000B7
102
{ACAD_REACTORS
330
1000009E
102
}
330
1000009E
100
AcDbXrecord
340
0
  0
XRECORD
  5
100000BD
102
{ACAD_REACTORS
330
1000009E
102
}
330
1000009E
100
AcDbXrecord
 10
0.0
 20
0.0
 30
0.0
  0
XRECORD
  5
100000B9
102
{ACAD_REACTORS
330
1000009E
102
}
330
1000009E
100
AcDbXrecord
 10
0.0
 20
0.0
 30
0.0
  0
XRECORD
  5
100000BC
102
{ACAD_REACTORS
330
1000009E
102
}
330
1000009E
100
AcDbXrecord
 10
0.0
 20
0.0
 30
0.0
  0
XRECORD
  5
100000BA
102
{ACAD_REACTORS
330
1000009E
102
}
330
1000009E
100
AcDbXrecord
 10
0.0
 20
0.0
 30
0.0
  0
XRECORD
  5
100000BB
102
{ACAD_REACTORS
330
1000009E
102
}
330
1000009E
100
AcDbXrecord
 10
0.0
 20
0.0
 30
0.0
  0
XRECORD
  5
100000B8
102
{ACAD_REACTORS
330
1000009E
102
}
330
1000009E
100
AcDbXrecord
 10
0.0
 20
0.0
 30
0.0
  0
XRECORD
  5
100000B5
102
{ACAD_REACTORS
330
1000009E
102
}
330
1000009E
100
AcDbXrecord
340
0
  0
XRECORD
  5
100000B6
102
{ACAD_REACTORS
330
1000009E
102
}
330
1000009E
100
AcDbXrecord
 70
     0
  0
XRECORD
  5
100000AA
102
{ACAD_REACTORS
330
1000009E
102
}
330
1000009E
100
AcDbXrecord
  1
{FAEB1C32-E019-11D5-929B-00C0DF256EC4}
  0
DICTIONARYVAR
  5
100000CD
102
{ACAD_REACTORS
330
100000BF
102
}
330
100000BF
100
DictionaryVariables
280
     0
  1
1:1
  0
DICTIONARYVAR
  5
100000C6
102
{ACAD_REACTORS
330
100000BF
102
}
330
100000BF
100
DictionaryVariables
280
     0
  1
3.500000
  0
DICTIONARYVAR
  5
100000C7
102
{ACAD_REACTORS
330
100000BF
102
}
330
100000BF
100
DictionaryVariables
280
     0
  1
acadiso.lin
  0
DICTIONARYVAR
  5
100000C1
102
{ACAD_REACTORS
330
100000BF
102
}
330
100000BF
100
DictionaryVariables
280
     0
  1
Standard
  0
DICTIONARYVAR
  5
100000C0
102
{ACAD_REACTORS
330
100000BF
102
}
330
100000BF
100
DictionaryVariables
280
     0
  1
Standard
  0
DICTIONARYVAR
  5
100000C8
102
{ACAD_REACTORS
330
100000BF
102
}
330
100000BF
100
DictionaryVariables
280
     0
  1
2
  0
DICTIONARYVAR
  5
100000C9
102
{ACAD_REACTORS
330
100000BF
102
}
330
100000BF
100
DictionaryVariables
280
     0
  1
1
  0
DICTIONARYVAR
  5
100000CE
102
{ACAD_REACTORS
330
100000BF
102
}
330
100000BF
100
DictionaryVariables
280
     0
  1
1
  0
DICTIONARYVAR
  5
100000C3
102
{ACAD_REACTORS
330
100000BF
102
}
330
100000BF
100
DictionaryVariables
280
     0
  1
80.000000
  0
DICTIONARYVAR
  5
100000C2
102
{ACAD_REACTORS
330
100000BF
102
}
330
100000BF
100
DictionaryVariables
280
     0
  1
5.000000
  0
XRECORD
  5
10000003
102
{ACAD_REACTORS
330
10000001
102
}
330
10000001
100
AcDbXrecord
 70
     4
  0
XRECORD
  5
10000002
102
{ACAD_REACTORS
330
10000001
102
}
330
10000001
100
AcDbXrecord
1040
89.0
  0
ACAD_PROXY_OBJECT
  5
10000005
102
{ACAD_REACTORS
330
10000001
102
}
330
10000001
100
AcDbProxyObject
 90
      499
 91
      509
 93
       34
310
40C8804040
  0
DICTIONARY
  5
100000D1
330
45
100
AcDbDictionary
280
     1
  3
ACAD_XREC_ROUNDTRIP
360
100000D2
  0
DICTIONARY
  5
100000CF
330
44
100
AcDbDictionary
280
     1
  3
ACAD_XREC_ROUNDTRIP
360
100000D0
  0
DICTIONARY
  5
100000D3
330
46
100
AcDbDictionary
280
     1
  3
ACAD_XREC_ROUNDTRIP
360
100000D4
  0
XRECORD
  5
100000D2
102
{ACAD_REACTORS
330
100000D1
102
}
330
100000D1
100
AcDbXrecord
102
MATERIAL
148
0.0
149
0.0
149
0.0
 93
        0
 94
      127
282
     0
 72
     1
 77
     1
171
     1
175
     1
179
     1
273
     0
  0
XRECORD
  5
100000D0
102
{ACAD_REACTORS
330
100000CF
102
}
330
100000CF
100
AcDbXrecord
102
MATERIAL
148
0.0
149
0.0
149
0.0
 93
        0
 94
      127
282
     0
 72
     1
 77
     1
171
     1
175
     1
179
     1
273
     0
  0
XRECORD
  5
100000D4
102
{ACAD_REACTORS
330
100000D3
102
}
330
100000D3
100
AcDbXrecord
102
MATERIAL
148
0.0
149
0.0
149
0.0
 93
        0
 94
      127
282
     0
 72
     1
 77
     1
171
     1
175
     1
179
     1
273
     0
  0
ENDSEC
  0
EOF
