<?xml version="1.0" encoding="UTF-8" standalone="no"?>
<svg
   viewBox="0 0 367.38192 367.35472"
   width="367.38193"
   height="367.35471"
   version="1.1"
   id="svg47"
   sodipodi:docname="frame - TR C.dxf"
   xmlns:inkscape="http://www.inkscape.org/namespaces/inkscape"
   xmlns:sodipodi="http://sodipodi.sourceforge.net/DTD/sodipodi-0.dtd"
   xmlns="http://www.w3.org/2000/svg"
   xmlns:svg="http://www.w3.org/2000/svg">
  <sodipodi:namedview
     id="namedview47"
     pagecolor="#ffffff"
     bordercolor="#000000"
     borderopacity="0.25"
     inkscape:showpageshadow="2"
     inkscape:pageopacity="0.0"
     inkscape:pagecheckerboard="0"
     inkscape:deskcolor="#d1d1d1" />
  <desc
     id="desc1">frame - TR C.dxf - scale = 1.000000, origin = (0.000000, 0.000000), method = file</desc>
  <defs
     id="defs4" />
  <g
     inkscape:groupmode="layer"
     inkscape:label="MODELSKETCH_VISIBLE"
     id="g39"
     transform="translate(-1619.7386,-571.26738)">
    <path
       d="m 1918.6387,727.31006 c -2.2061,3.0725 -3.2181,11.81689 0.299,12.85948 4.5107,1.33714 16.4713,-9.99405 16.4481,-13.30807 -0.015,-2.1634 -5.1372,-0.91026 -8.9716,-0.89717 -3.5873,0.0123 -6.0476,-1.06076 -7.7755,1.34576 z"
       style="fill:none;stroke:#0000ff"
       id="path34" />
    <path
       d="m 1883.0801,740.41078 c -0.5878,-1.2742 2.0261,-2.82995 5.1272,-4.48586 4.7344,-2.52809 10.6047,-5.28961 14.3117,-6.87834 1.9059,-0.81684 3.24,-1.32365 4.1868,-0.29906 1.7004,1.84024 2.1514,8.62061 1.4951,13.45759 -0.5788,4.26658 -2.0191,7.02111 -5.9811,8.67268 -4.5693,1.90474 -12.4928,2.34245 -14.0125,0 -1.0175,-1.56819 0.8351,-4.38242 0,-6.2802 -0.8574,-1.94837 -4.5477,-2.9308 -5.1272,-4.18681 z"
       style="fill:none;stroke:#0000ff"
       id="path35" />
    <path
       d="m 1907.9775,662.6372 c 2.876,-1.31118 7.7128,-0.43689 7.7754,2.99058 0.131,7.16568 -20.6053,25.49095 -20.3358,30.20477 0.1877,3.28227 10.5598,-0.0349 17.3452,-3.28961 6.1974,-2.97263 9.4029,-5.89316 13.4577,-5.98115 3.3611,-0.0729 7.3059,1.80048 8.3735,5.68209 1.1505,4.18286 -1.0402,10.69771 -2.9905,11.36418 -1.664,0.56859 -3.153,-3.11962 -6.8782,-5.08398 -5.2787,-2.78355 -15.0474,-2.10569 -17.0463,2.09339 -2.2358,4.69672 5.249,13.79874 12.2612,17.6444 5.7933,3.17722 11.264,2.76658 14.6538,0.59812 2.4872,-1.59106 3.8542,-4.12843 6.2803,-4.78493 2.8991,-0.78446 7.3105,1.11667 10.4671,4.18681 2.8376,2.75991 4.6612,6.46452 3.5886,8.37359 -1.1635,2.07092 -5.7351,2.02895 -9.8689,4.18681 -5.2645,2.74806 -9.8191,9.06384 -11.3641,13.15854 -0.8468,2.24424 -0.7896,3.82127 -2.0935,4.78492 -1.7042,1.25948 -5.7335,1.47117 -8.6728,2.09339 -2.6032,0.55108 -4.3514,1.42419 -5.6819,4.08562 -1.9516,3.90379 -3.0047,11.65517 0.2989,15.05406 2.5509,2.6244 7.6991,2.65388 8.9719,0.29905 1.3374,-2.47414 -1.6032,-7.58033 -0.8972,-9.86889 0.7152,-2.3187 5.1737,-1.74508 10.1679,-0.29906 7.3826,2.1376 15.9358,6.18162 18.5416,12.26135 2.3543,5.49277 -0.1457,12.64716 -2.6916,17.94345 -1.5792,3.28533 -3.176,5.8557 -4.7849,5.08401 -2.7392,-1.31391 -5.5134,-12.31618 -11.3643,-16.74724 -5.2751,-3.99491 -13.0511,-2.64853 -16.4482,-0.29905 -2.038,1.40953 -2.5,3.1801 -4.1868,4.1868 -1.6952,1.01181 -4.6277,1.252 -5.9811,0 -1.11,-1.02684 -1.1579,-3.05744 -2.6914,-2.99058 -4.8046,0.20948 -24.1932,21.01035 -33.4946,20.93404 -5.7798,-0.0474 -7.6646,-8.15637 -7.1773,-13.45759 0.2886,-3.13963 1.4092,-5.29444 2.3924,-4.78492 1.0556,0.54697 1.9528,4.16442 3.8878,4.78492 3.3862,1.08587 9.9505,-7.00638 16.4482,-9.27079 5.6808,-1.97975 11.3108,0.49524 14.3546,-1.49527 1.9307,-1.26258 2.8209,-4.32179 1.1963,-5.68209 -1.8256,-1.52851 -6.8264,-0.91199 -7.1774,-1.49531 -0.3914,-0.65042 4.9983,-2.79259 6.8784,-5.98114 1.4936,-2.53302 0.7724,-5.7264 -0.8973,-5.68209 -2.6064,0.0692 -7.5242,8.02777 -11.663,7.77551 -5.6261,-0.34291 -9.8129,-15.85763 -15.252,-20.93402 -3.6034,-3.36312 -7.7566,-2.14475 -10.168,-5.08397 -2.285,-2.78513 -3.0062,-9.30336 -0.8972,-10.16796 1.9259,-0.7895 6.2116,3.13516 8.0745,2.69151 1.7633,-0.41991 1.3563,-4.75301 3.2898,-6.87831 2.9663,-3.26061 11.4417,-1.32471 17.9434,-0.29906 4.9604,0.7825 8.7719,1.03517 10.1679,-2.39247 1.8027,-4.4261 -0.4223,-14.98889 -4.7849,-16.74721 -4.5154,-1.81993 -11.3207,5.79247 -17.3453,6.87831 -4.647,0.83755 -8.8296,-2.20792 -9.869,-5.08398 -0.7795,-2.15702 0.209,-4.21876 1.7944,-5.98114 2.2323,-2.48159 5.648,-4.36962 9.8689,-7.47642 6.0445,-4.44902 13.7403,-11.39736 17.3454,-18.5416 2.7074,-5.36541 3.1076,-10.84131 6.8784,-12.56039 z"
       style="fill:none;stroke:#0000ff"
       id="path36" />
    <path
       d="m 1813.1193,683.86942 c 2.8622,-2.2903 9.415,-4.4881 16.0945,-5.53247 5.742,-0.89779 11.5776,-0.94323 12.3224,-2.51478 0.394,-0.83149 -0.6371,-2.09021 0,-3.52066 1.0985,-2.46666 7.1573,-5.44396 9.5561,-4.27512 1.8102,0.88204 1.5361,4.12515 2.7662,5.28101 1.2425,1.16751 4.0196,0.20549 6.0354,0.75443 2.0616,0.56141 3.3268,2.70321 2.0119,6.03543 -2.8088,7.11796 -17.3905,19.66768 -15.3401,24.64467 1.2634,3.06678 8.8419,3.25826 9.8076,5.02955 1.1309,2.0743 -6.807,6.31517 -10.8135,10.56199 -3.0646,3.24855 -3.8289,6.50058 -2.2633,8.5502 1.6657,2.18067 5.9687,3.00026 9.0532,4.27509 2.7281,1.12756 4.503,2.61125 5.7839,5.28101 2.4584,5.12411 3.0973,14.61743 1.7603,28.79788 -1.7644,18.71412 -6.9701,45.59154 -14.7874,48.02414 -3.7982,1.18191 -8.2128,-3.40672 -9.0688,-7.64628 -0.7264,-3.59783 1.11,-6.94427 -0.3556,-8.53537 -1.6562,-1.79806 -7.5293,-1.35446 -10.3136,-3.55643 -2.0416,-1.61455 -2.4226,-4.65145 -1.4226,-5.69025 1.0574,-1.0984 3.6588,0.0371 6.4015,1.42257 3.1457,1.58896 6.4774,3.50666 8.5355,1.24474 4.2268,-4.64571 3.0806,-26.92281 2.8451,-36.2754 -0.1036,-4.11553 -0.031,-5.7284 -1.2448,-6.935 -1.0608,-1.05453 -3.1044,-1.79873 -5.3345,-0.71128 -4.1751,2.03584 -9.0039,10.49137 -13.1588,13.51436 -2.3911,1.73963 -4.559,1.6802 -6.2238,0.53346 -1.7448,-1.20188 -2.937,-3.59813 -3.5563,-5.86809 -0.5844,-2.14218 -0.6586,-4.17189 0.889,-6.04591 2.1426,-2.59437 7.3935,-4.89036 10.1358,-5.86805 1.8245,-0.65048 2.5386,-0.71742 4.4454,-2.66734 4.3442,-4.44248 14.8792,-18.65873 13.1588,-23.4723 -1.0088,-2.82275 -6.2321,-2.41209 -9.2467,-0.35566 -3.0252,2.0636 -3.8263,5.78445 -6.2236,6.935 -2.083,0.99968 -5.371,0.0589 -6.7572,-1.95603 -1.4637,-2.12749 -0.8071,-5.45254 0.5334,-7.82408 1.3662,-2.41687 3.4428,-3.84344 6.5794,-4.80117 4.0392,-1.23335 9.8362,-1.68919 12.6252,-4.80114 2.9188,-3.25685 2.543,-9.42291 3.3786,-14.40348 0.5656,-3.37122 1.6862,-6.19929 0.5336,-6.75719 -1.7028,-0.82419 -8.3668,3.30622 -13.3366,6.40154 -4.3006,2.67855 -7.3325,4.58197 -10.4915,3.5564 -2.9533,-0.95882 -6.0178,-4.4777 -6.7571,-6.935 -0.4842,-1.60946 0.029,-2.76351 1.443,-3.89499 z"
       style="fill:none;stroke:#0000ff"
       id="path37" />
    <path
       d="m 1986.6205,754.94474 a 183.19097,183.19097 0 0 0 -366.3819,0 183.19097,183.19097 0 0 0 366.3819,0 z"
       style="fill:none;stroke:#ff0000"
       id="path38" />
    <path
       d="m 1714.2556,652.07309 c 1.3373,-1.16572 3.5617,1.9235 6.1059,3.45638 2.7146,1.63558 5.7934,1.49926 7.0413,3.77215 2.2426,4.08473 -1.4281,15.95058 -2.7662,25.6506 -1.0886,7.89117 -0.6335,14.34897 2.7662,16.84889 2.8156,2.07046 7.651,1.42608 11.3164,3.01773 4.1679,1.80983 6.8232,6.51074 8.8017,12.32233 2.4066,7.06891 3.812,15.78105 -1.0059,22.3814 -5.0154,6.87078 -16.7745,11.45317 -18.6092,15.59153 -0.9468,2.13563 0.7494,4.153 1.5088,6.2869 0.9934,2.79159 0.3836,5.78261 0,11.06498 -0.6362,8.76205 -0.6498,23.82854 4.0236,30.17715 3.4563,4.69534 9.4764,4.62211 16.0945,4.27509 7.9322,-0.41594 16.7236,-1.22521 23.8902,1.25738 5.6292,1.95003 10.256,5.93105 10.3105,10.56199 0.049,4.19917 -3.6607,8.93272 -6.7898,10.05906 -3.3274,1.19773 -5.9979,-1.68352 -13.3283,-3.2692 -16.6058,-3.59207 -57.1249,-0.53559 -70.4134,1.25739 -4.9252,0.66455 -6.1096,1.15552 -9.556,1.50888 -3.9678,0.40681 -10.9336,0.63121 -12.5739,-2.51477 -1.886,-3.6174 3.2691,-11.69092 9.0531,-14.33415 5.8519,-2.67423 12.3477,0.20996 17.3519,0.25147 3.9526,0.0328 6.9747,-1.70784 10.6079,-2.1621 3.538,-0.44236 7.6554,0.33507 10.2647,0.15028 1.654,-0.11713 2.702,-0.62084 3.2692,-2.51474 1.6033,-5.35377 -0.6358,-21.8166 -1.0059,-32.94341 -0.269,-8.08697 0.4494,-13.35524 -3.2692,-17.10039 -3.9455,-3.97361 -12.8856,-6.23261 -16.3459,-10.81348 -2.9737,-3.93673 -1.9003,-9.58826 -2.0119,-14.33415 -0.1021,-4.34564 -1.1978,-7.93195 1.2574,-12.07084 3.3755,-5.6903 13.4627,-12.42507 16.0944,-16.34596 1.6331,-2.43315 0.3952,-3.78269 -0.7543,-8.80167 -2.5275,-11.03545 -4.6273,-39.8107 -1.3278,-42.68672 z"
       style="fill:none;stroke:#0000ff"
       id="path39" />
  </g>
</svg>
