<?xml version="1.0" encoding="UTF-8" standalone="no"?>
<svg
   viewBox="0 0 367.38192 367.35472"
   width="367.38193"
   height="367.35471"
   version="1.1"
   id="svg47"
   sodipodi:docname="frame - TR C.svg"
   xmlns:inkscape="http://www.inkscape.org/namespaces/inkscape"
   xmlns:sodipodi="http://sodipodi.sourceforge.net/DTD/sodipodi-0.dtd"
   xmlns="http://www.w3.org/2000/svg"
   xmlns:svg="http://www.w3.org/2000/svg">
  <sodipodi:namedview
     id="namedview47"
     pagecolor="#ffffff"
     bordercolor="#000000"
     borderopacity="0.25"
     inkscape:showpageshadow="2"
     inkscape:pageopacity="0.0"
     inkscape:pagecheckerboard="0"
     inkscape:deskcolor="#d1d1d1" />
  <desc
     id="desc1">frame - TR C.dxf - scale = 1.000000, origin = (0.000000, 0.000000), method = file</desc>
  <defs
     id="defs4" />
  <g
     inkscape:groupmode="layer"
     inkscape:label="MODELSKETCH_VISIBLE"
     id="g39"
     transform="translate(-1619.7386,-571.26738)">
    <path
       d="m 1918.6387,727.31006 c -2.2061,3.0725 -3.2181,11.81689 0.299,12.85948 4.5107,1.33714 16.4713,-9.99405 16.4481,-13.30807 -0.015,-2.1634 -5.1372,-0.91026 -8.9716,-0.89717 -3.5873,0.0123 -6.0476,-1.06076 -7.7755,1.34576 z"
       style="fill:none;stroke:#0000ff"
       id="path34" />
    <path
       d="m 1883.0801,740.41078 c -0.5878,-1.2742 2.0261,-2.82995 5.1272,-4.48586 4.7344,-2.52809 10.6047,-5.28961 14.3117,-6.87834 1.9059,-0.81684 3.24,-1.32365 4.1868,-0.29906 1.7004,1.84024 2.1514,8.62061 1.4951,13.45759 -0.5788,4.26658 -2.0191,7.02111 -5.9811,8.67268 -4.5693,1.90474 -12.4928,2.34245 -14.0125,0 -1.0175,-1.56819 0.8351,-4.38242 0,-6.2802 -0.8574,-1.94837 -4.5477,-2.9308 -5.1272,-4.18681 z"
       style="fill:none;stroke:#0000ff"
       id="path35" />
    <path
       d="m 1907.9775,662.6372 c 2.876,-1.31118 7.7128,-0.43689 7.7754,2.99058 0.131,7.16568 -20.6053,25.49095 -20.3358,30.20477 0.1877,3.28227 10.5598,-0.0349 17.3452,-3.28961 6.1974,-2.97263 9.4029,-5.89316 13.4577,-5.98115 3.3611,-0.0729 7.3059,1.80048 8.3735,5.68209 1.1505,4.18286 -1.0402,10.69771 -2.9905,11.36418 -1.664,0.56859 -3.153,-3.11962 -6.8782,-5.08398 -5.2787,-2.78355 -15.0474,-2.10569 -17.0463,2.09339 -2.2358,4.69672 5.249,13.79874 12.2612,17.6444 5.7933,3.17722 11.264,2.76658 14.6538,0.59812 2.4872,-1.59106 3.8542,-4.12843 6.2803,-4.78493 2.8991,-0.78446 7.3105,1.11667 10.4671,4.18681 2.8376,2.75991 4.6612,6.46452 3.5886,8.37359 -1.1635,2.07092 -5.7351,2.02895 -9.8689,4.18681 -5.2645,2.74806 -9.8191,9.06384 -11.3641,13.15854 -0.8468,2.24424 -0.7896,3.82127 -2.0935,4.78492 -1.7042,1.25948 -5.7335,1.47117 -8.6728,2.09339 -2.6032,0.55108 -4.3514,1.42419 -5.6819,4.08562 -1.9516,3.90379 -3.0047,11.65517 0.2989,15.05406 2.5509,2.6244 7.6991,2.65388 8.9719,0.29905 1.3374,-2.47414 -1.6032,-7.58033 -0.8972,-9.86889 0.7152,-2.3187 5.1737,-1.74508 10.1679,-0.29906 7.3826,2.1376 15.9358,6.18162 18.5416,12.26135 2.3543,5.49277 -0.1457,12.64716 -2.6916,17.94345 -1.5792,3.28533 -3.176,5.8557 -4.7849,5.08401 -2.7392,-1.31391 -5.5134,-12.31618 -11.3643,-16.74724 -5.2751,-3.99491 -13.0511,-2.64853 -16.4482,-0.29905 -2.038,1.40953 -2.5,3.1801 -4.1868,4.1868 -1.6952,1.01181 -4.6277,1.252 -5.9811,0 -1.11,-1.02684 -1.1579,-3.05744 -2.6914,-2.99058 -4.8046,0.20948 -24.1932,21.01035 -33.4946,20.93404 -5.7798,-0.0474 -7.6646,-8.15637 -7.1773,-13.45759 0.2886,-3.13963 1.4092,-5.29444 2.3924,-4.78492 1.0556,0.54697 1.9528,4.16442 3.8878,4.78492 3.3862,1.08587 9.9505,-7.00638 16.4482,-9.27079 5.6808,-1.97975 11.3108,0.49524 14.3546,-1.49527 1.9307,-1.26258 2.8209,-4.32179 1.1963,-5.68209 -1.8256,-1.52851 -6.8264,-0.91199 -7.1774,-1.49531 -0.3914,-0.65042 4.9983,-2.79259 6.8784,-5.98114 1.4936,-2.53302 0.7724,-5.7264 -0.8973,-5.68209 -2.6064,0.0692 -7.5242,8.02777 -11.663,7.77551 -5.6261,-0.34291 -9.8129,-15.85763 -15.252,-20.93402 -3.6034,-3.36312 -7.7566,-2.14475 -10.168,-5.08397 -2.285,-2.78513 -3.0062,-9.30336 -0.8972,-10.16796 1.9259,-0.7895 6.2116,3.13516 8.0745,2.69151 1.7633,-0.41991 1.3563,-4.75301 3.2898,-6.87831 2.9663,-3.26061 11.4417,-1.32471 17.9434,-0.29906 4.9604,0.7825 8.7719,1.03517 10.1679,-2.39247 1.8027,-4.4261 -0.4223,-14.98889 -4.7849,-16.74721 -4.5154,-1.81993 -11.3207,5.79247 -17.3453,6.87831 -4.647,0.83755 -8.8296,-2.20792 -9.869,-5.08398 -0.7795,-2.15702 0.209,-4.21876 1.7944,-5.98114 2.2323,-2.48159 5.648,-4.36962 9.8689,-7.47642 6.0445,-4.44902 13.7403,-11.39736 17.3454,-18.5416 2.7074,-5.36541 3.1076,-10.84131 6.8784,-12.56039 z"
       style="fill:none;stroke:#0000ff"
       id="path36" />
    <path
       d="m 1813.1193,683.86942 c 2.8622,-2.2903 9.415,-4.4881 16.0945,-5.53247 5.742,-0.89779 11.5776,-0.94323 12.3224,-2.51478 0.394,-0.83149 -0.6371,-2.09021 0,-3.52066 1.0985,-2.46666 7.1573,-5.44396 9.5561,-4.27512 1.8102,0.88204 1.5361,4.12515 2.7662,5.28101 1.2425,1.16751 4.0196,0.20549 6.0354,0.75443 2.0616,0.56141 3.3268,2.70321 2.0119,6.03543 -2.8088,7.11796 -17.3905,19.66768 -15.3401,24.64467 1.2634,3.06678 8.8419,3.25826 9.8076,5.02955 1.1309,2.0743 -6.807,6.31517 -10.8135,10.56199 -3.0646,3.24855 -3.8289,6.50058 -2.2633,8.5502 1.6657,2.18067 5.9687,3.00026 9.0532,4.27509 2.7281,1.12756 4.503,2.61125 5.7839,5.28101 2.4584,5.12411 3.0973,14.61743 1.7603,28.79788 -1.7644,18.71412 -6.9701,45.59154 -14.7874,48.02414 -3.7982,1.18191 -8.2128,-3.40672 -9.0688,-7.64628 -0.7264,-3.59783 1.11,-6.94427 -0.3556,-8.53537 -1.6562,-1.79806 -7.5293,-1.35446 -10.3136,-3.55643 -2.0416,-1.61455 -2.4226,-4.65145 -1.4226,-5.69025 1.0574,-1.0984 3.6588,0.0371 6.4015,1.42257 3.1457,1.58896 6.4774,3.50666 8.5355,1.24474 4.2268,-4.64571 3.0806,-26.92281 2.8451,-36.2754 -0.1036,-4.11553 -0.031,-5.7284 -1.2448,-6.935 -1.0608,-1.05453 -3.1044,-1.79873 -5.3345,-0.71128 -4.1751,2.03584 -9.0039,10.49137 -13.1588,13.51436 -2.3911,1.73963 -4.559,1.6802 -6.2238,0.53346 -1.7448,-1.20188 -2.937,-3.59813 -3.5563,-5.86809 -0.5844,-2.14218 -0.6586,-4.17189 0.889,-6.04591 2.1426,-2.59437 7.3935,-4.89036 10.1358,-5.86805 1.8245,-0.65048 2.5386,-0.71742 4.4454,-2.66734 4.3442,-4.44248 14.8792,-18.65873 13.1588,-23.4723 -1.0088,-2.82275 -6.2321,-2.41209 -9.2467,-0.35566 -3.0252,2.0636 -3.8263,5.78445 -6.2236,6.935 -2.083,0.99968 -5.371,0.0589 -6.7572,-1.95603 -1.4637,-2.12749 -0.8071,-5.45254 0.5334,-7.82408 1.3662,-2.41687 3.4428,-3.84344 6.5794,-4.80117 4.0392,-1.23335 9.8362,-1.68919 12.6252,-4.80114 2.9188,-3.25685 2.543,-9.42291 3.3786,-14.40348 0.5656,-3.37122 1.6862,-6.19929 0.5336,-6.75719 -1.7028,-0.82419 -8.3668,3.30622 -13.3366,6.40154 -4.3006,2.67855 -7.3325,4.58197 -10.4915,3.5564 -2.9533,-0.95882 -6.0178,-4.4777 -6.7571,-6.935 -0.4842,-1.60946 0.029,-2.76351 1.443,-3.89499 z"
       style="fill:none;stroke:#0000ff"
       id="path37" />
    <path
       d="m 1986.6205,754.94474 a 183.19097,183.19097 0 0 0 -366.3819,0 183.19097,183.19097 0 0 0 366.3819,0 z"
       style="fill:none;stroke:#ff0000"
       id="path38" />
    <path
       d="m 1714.2556,652.07309 c 1.3373,-1.16572 3.5617,1.9235 6.1059,3.45638 2.7146,1.63558 5.7934,1.49926 7.0413,3.77215 2.2426,4.08473 -1.4281,15.95058 -2.7662,25.6506 -1.0886,7.89117 -0.6335,14.34897 2.7662,16.84889 2.8156,2.07046 7.651,1.42608 11.3164,3.01773 4.1679,1.80983 6.8232,6.51074 8.8017,12.32233 2.4066,7.06891 3.812,15.78105 -1.0059,22.3814 -5.0154,6.87078 -16.7745,11.45317 -18.6092,15.59153 -0.9468,2.13563 0.7494,4.153 1.5088,6.2869 0.9934,2.79159 0.3836,5.78261 0,11.06498 -0.6362,8.76205 -0.6498,23.82854 4.0236,30.17715 3.4563,4.69534 9.4764,4.62211 16.0945,4.27509 7.9322,-0.41594 16.7236,-1.22521 23.8902,1.25738 5.6292,1.95003 10.256,5.93105 10.3105,10.56199 0.049,4.19917 -3.6607,8.93272 -6.7898,10.05906 -3.3274,1.19773 -5.9979,-1.68352 -13.3283,-3.2692 -16.6058,-3.59207 -57.1249,-0.53559 -70.4134,1.25739 -4.9252,0.66455 -6.1096,1.15552 -9.556,1.50888 -3.9678,0.40681 -10.9336,0.63121 -12.5739,-2.51477 -1.886,-3.6174 3.2691,-11.69092 9.0531,-14.33415 5.8519,-2.67423 12.3477,0.20996 17.3519,0.25147 3.9526,0.0328 6.9747,-1.70784 10.6079,-2.1621 3.538,-0.44236 7.6554,0.33507 10.2647,0.15028 1.654,-0.11713 2.702,-0.62084 3.2692,-2.51474 1.6033,-5.35377 -0.6358,-21.8166 -1.0059,-32.94341 -0.269,-8.08697 0.4494,-13.35524 -3.2692,-17.10039 -3.9455,-3.97361 -12.8856,-6.23261 -16.3459,-10.81348 -2.9737,-3.93673 -1.9003,-9.58826 -2.0119,-14.33415 -0.1021,-4.34564 -1.1978,-7.93195 1.2574,-12.07084 3.3755,-5.6903 13.4627,-12.42507 16.0944,-16.34596 1.6331,-2.43315 0.3952,-3.78269 -0.7543,-8.80167 -2.5275,-11.03545 -4.6273,-39.8107 -1.3278,-42.68672 z"
       style="fill:none;stroke:#0000ff"
       id="path39" />
    <path
       style="fill:#000000;stroke:#000000;stroke-width:0.554279"
       d="m 150.48664,255.48376 c -7.42472,-2.79958 -13.47216,-3.46844 -31.0396,-3.43301 -8.87335,0.0179 -20.623324,0.42154 -27.436789,0.94255 -10.727642,0.8203 -14.924341,1.29078 -27.991071,3.13797 -5.307241,0.75026 -9.494892,0.20082 -11.159942,-1.46423 -0.72123,-0.72123 -1.30889,-1.63444 -1.305912,-2.02937 0.01365,-1.81023 2.857573,-6.49773 5.348164,-8.81512 4.403565,-4.09733 5.353976,-4.24327 19.05883,-2.92644 2.787464,0.26783 4.695097,0.0716 8.241745,-0.84772 3.512504,-0.91048 5.99787,-1.17052 10.40518,-1.08869 7.787535,0.14461 8.137745,-0.17729 8.398175,-7.71903 0.10271,-2.97425 -0.20908,-11.0909 -0.69285,-18.03701 -0.48377,-6.9461 -0.87958,-14.43794 -0.87958,-16.64853 0,-5.57601 -1.17867,-9.19843 -3.744553,-11.50817 -1.141457,-1.02751 -4.779335,-3.34639 -8.084175,-5.15307 -9.083937,-4.96599 -9.787149,-6.3641 -9.772877,-19.43023 0.0075,-6.86363 0.186245,-8.70419 1.024536,-10.54963 0.658256,-1.44911 3.780551,-4.85506 8.876161,-9.68258 4.43388,-4.20059 8.009952,-8.04176 8.203056,-8.81115 0.188293,-0.75021 -0.201197,-3.62639 -0.86553,-6.3915 -1.986795,-8.2695 -2.994403,-18.04939 -3.059217,-29.692878 -0.05781,-10.384586 0.257455,-13.856965 1.258087,-13.856965 0.256144,0 1.560874,0.870805 2.899403,1.935122 1.338528,1.064317 3.618329,2.331445 5.066209,2.815839 4.92985,1.649292 5.21336,3.561132 2.59631,17.507962 -2.16988,11.56373 -2.59034,19.62288 -1.22375,23.45624 1.26146,3.53846 3.37873,4.97657 8.61497,5.85154 6.89824,1.1527 9.35835,3.05082 12.30989,9.49785 3.76229,8.2179 4.57303,17.4827 1.98045,22.63152 -1.84182,3.6578 -3.92411,5.63426 -12.005,11.39484 -8.56516,6.10579 -9.25454,7.11757 -7.63263,11.20213 0.92856,2.33847 1.04144,4.24457 1.04155,17.58823 1.1e-4,12.41359 0.16462,15.60552 0.96475,18.71872 1.69627,6.59993 3.6563,9.40563 7.91114,11.32444 1.96908,0.888 3.65731,0.97711 15.51224,0.81879 10.82898,-0.14462 14.04718,-0.008 17.30631,0.73389 4.54565,1.03494 9.20448,3.79374 11.11495,6.58189 2.25405,3.28956 1.347,7.84044 -2.253,11.30388 -2.55958,2.46248 -3.90285,2.55844 -8.98563,0.64192 z"
       id="path1"
       transform="translate(1619.7386,571.26738)" />
    <path
       style="fill:#000000;stroke:#000000;stroke-width:0.554279"
       d="m 221.37623,242.27478 c -0.9465,-0.57716 -2.31834,-2.01042 -3.04853,-3.18502 -1.15954,-1.86527 -1.31082,-2.71346 -1.19493,-6.69953 0.15535,-5.34366 -0.11281,-5.67091 -5.71855,-6.97865 -5.24825,-1.22433 -6.88541,-2.49083 -6.88541,-5.32653 0,-1.63235 1.31736,-1.45836 6.0193,0.79498 4.63032,2.21902 7.70002,2.51469 9.17593,0.88383 2.32103,-2.5647 2.72159,-5.67025 2.96395,-22.97934 0.12748,-9.104 0.0707,-17.4113 -0.12616,-18.46068 -0.53759,-2.86558 -2.04079,-4.06324 -5.09985,-4.06324 -2.82852,0 -3.02712,0.16809 -12.98707,10.99172 -3.18984,3.46644 -3.90288,3.9738 -5.58474,3.9738 -2.22814,0 -3.83112,-1.42197 -5.14334,-4.56256 -2.14534,-5.13452 -0.74404,-7.17077 7.74215,-11.25029 6.97424,-3.35268 8.85645,-5.09403 14.40683,-13.32863 5.82124,-8.63646 7.44593,-14.20303 4.77631,-16.36476 -2.54719,-2.06259 -7.9671,-0.91371 -10.75934,2.2807 -0.97964,1.12074 -2.44457,2.8245 -3.25541,3.78615 -2.80043,3.32127 -7.67135,1.57291 -7.67135,-2.75354 0,-5.05142 2.47675,-7.26738 10.87943,-9.73391 9.57045,-2.80931 10.77719,-3.96342 11.86135,-11.34413 0.32913,-2.24063 0.97155,-6.29742 1.4276,-9.01508 0.73791,-4.39728 0.73727,-5.03312 -0.006,-5.77624 -1.27528,-1.27528 -3.90714,-0.24452 -12.77867,5.00471 -8.99348,5.32139 -10.54934,5.64493 -13.94177,2.89921 -1.14148,-0.92388 -2.57588,-2.64414 -3.18755,-3.82281 l -1.11213,-2.14303 2.05507,-1.77647 c 2.80763,-2.42701 9.50017,-4.53525 18.62938,-5.86852 8.58514,-1.25381 10.25036,-1.99189 9.73969,-4.31694 -0.28293,-1.28821 -0.0137,-1.83193 1.61494,-3.261937 2.08347,-1.829309 5.51186,-2.814892 6.85175,-1.969715 0.44696,0.281936 1.09216,1.370888 1.43378,2.419892 0.73292,2.25056 2.52229,3.30237 5.63735,3.31371 2.69434,0.01 3.5751,0.76343 3.5751,3.05904 0,2.10062 -1.74923,4.90965 -7.70892,12.37952 -6.45952,8.09636 -7.81088,10.37241 -7.81088,13.15561 0,2.80502 0.46456,3.23079 5.30762,4.86448 2.07486,0.69991 3.86198,1.5411 3.97139,1.86932 0.10941,0.32823 -1.23391,1.80664 -2.98515,3.28536 -8.94567,7.55364 -10.17381,9.11591 -10.17381,12.94169 0,2.83433 1.66512,4.5392 5.73259,5.86944 9.23947,3.02172 11.27334,6.30413 11.84485,19.1161 0.83171,18.64522 -5.12193,50.86818 -10.97515,59.40088 -2.63268,3.83788 -4.50727,4.51133 -7.49179,2.69141 z"
       id="path2"
       transform="translate(1619.7386,571.26738)" />
    <path
       style="fill:#000000;stroke:#000000;stroke-width:0.554279"
       d="m 250.14353,227.38048 c -2.73442,-2.14323 -4.35788,-9.30084 -3.14019,-13.84464 0.46227,-1.72496 1.01644,-1.56498 2.33803,0.67494 1.25732,2.13099 3.02613,2.84323 5.09415,2.05124 0.75023,-0.28731 3.35947,-1.96051 5.79829,-3.71822 7.37899,-5.31819 9.0301,-5.96165 15.12855,-5.89581 7.56142,0.0816 10.09113,-1.25264 10.09113,-5.32251 0,-2.08417 -1.39005,-3.30266 -4.29816,-3.76768 l -2.32922,-0.37246 2.18515,-1.58291 c 3.59019,-2.60073 5.24191,-6.28064 3.92419,-8.74282 -1.15707,-2.162 -3.28383,-1.50714 -7.68565,2.36652 -2.21421,1.94853 -4.53621,3.67626 -5.16,3.83938 -2.02864,0.5305 -4.96524,-2.90926 -9.27761,-10.86729 -2.22275,-4.10184 -4.86125,-8.25258 -5.86335,-9.22384 -1.05716,-1.02464 -3.5422,-2.395 -5.91986,-3.26446 -3.75301,-1.37241 -4.20281,-1.70613 -5.34498,-3.96556 -1.4138,-2.79677 -1.66618,-6.54039 -0.47182,-6.9987 0.42642,-0.16363 2.0683,0.35769 3.64861,1.1585 4.14694,2.10141 5.03767,1.79526 6.43541,-2.21189 0.93634,-2.68436 1.52426,-3.51256 3.04882,-4.2948 2.40446,-1.23372 3.32367,-1.21907 13.07287,0.20819 6.61052,0.96778 8.44006,1.06328 10.20999,0.533 2.85789,-0.85624 3.95555,-2.9889 3.92875,-7.63323 -0.0369,-6.40005 -2.88592,-12.47348 -6.19182,-13.19958 -2.21081,-0.48557 -4.29531,0.26098 -10.86696,3.89193 -6.03186,3.33272 -8.27859,3.73737 -11.70995,2.10908 -2.43508,-1.15552 -4.18093,-3.83297 -3.73347,-5.72571 0.47357,-2.00324 3.10309,-4.53162 9.38598,-9.02497 11.36678,-8.12919 18.10173,-15.92722 21.63772,-25.053084 2.2049,-5.690536 3.59955,-7.383795 6.46459,-7.848727 1.52015,-0.246687 2.25094,-0.02949 3.4917,1.03777 1.43509,1.234407 1.51681,1.499995 0.95631,3.107849 -0.95799,2.748085 -3.93721,6.927572 -10.92957,15.332872 -9.45868,11.36999 -10.88951,14.35203 -7.33908,15.29558 3.33735,0.88692 13.52029,-2.45591 21.79129,-7.15359 7.09235,-4.02824 10.74435,-4.11902 14.05417,-0.34934 1.44681,1.64783 1.70657,2.38847 1.69626,4.83648 -0.0113,2.68703 -1.64471,7.60204 -2.52637,7.60204 -0.2066,0 -1.37303,-0.90109 -2.59207,-2.00242 -4.44916,-4.01955 -10.90935,-5.54317 -16.55021,-3.90332 -4.0709,1.18344 -5.77214,3.03196 -5.70354,6.19728 0.10983,5.06725 6.73176,12.89626 13.88753,16.41904 3.15629,1.55383 4.29757,1.82451 7.63398,1.81052 4.433,-0.0186 6.06592,-0.68767 10.01076,-4.10191 2.82837,-2.44793 4.56262,-2.76911 7.75342,-1.43591 2.53438,1.05893 6.62445,4.90039 7.75566,7.28422 1.45431,3.06474 0.83465,3.85097 -4.33165,5.49602 -2.74959,0.87552 -5.67546,2.28422 -7.32005,3.52431 -3.61285,2.72426 -7.64092,8.12142 -9.14982,12.25972 -0.66803,1.83213 -1.53055,3.59337 -1.91671,3.91385 -0.38616,0.32049 -2.7861,0.9717 -5.33321,1.44713 -2.5471,0.47543 -5.4118,1.3415 -6.36601,1.9246 -2.2605,1.38136 -4.06508,5.58776 -4.47019,10.41982 -0.57131,6.81468 2.42443,10.80632 8.0464,10.72133 1.50557,-0.0228 2.81673,-0.41518 3.52733,-1.05568 1.00567,-0.90649 1.08841,-1.41874 0.74662,-4.62228 -0.77016,-7.21861 -0.8387,-6.9066 1.56059,-7.10376 2.68284,-0.22045 10.94747,2.12172 15.37729,4.35789 6.44839,3.25514 10.44158,8.18343 10.46856,12.92002 0.026,4.57329 -3.64008,14.49584 -6.21773,16.82859 -1.02883,0.93107 -1.11154,0.92549 -1.8929,-0.12759 -0.44938,-0.60565 -1.94062,-3.26811 -3.31386,-5.91655 -4.71158,-9.08677 -8.69431,-12.26617 -15.44585,-12.33038 -5.00257,-0.0476 -8.22461,1.19984 -11.36549,4.40016 -2.03283,2.0713 -2.79426,2.49142 -4.51552,2.49142 -1.70775,0 -2.24061,-0.28819 -3.04236,-1.64545 -0.5346,-0.905 -1.33164,-1.78346 -1.7712,-1.95214 -1.38514,-0.53152 -5.11629,1.74147 -12.83928,7.82162 -15.21596,11.97921 -20.73774,14.70912 -24.22439,11.9763 z m 30.89842,-46.4666 c 3.79772,-1.1278 6.82487,-4.03649 7.74075,-7.43784 1.01251,-3.76017 0.53068,-13.77735 -0.75725,-15.74297 -0.8964,-1.36807 -1.27749,-1.52305 -3.13306,-1.27417 -2.31072,0.30993 -18.19007,7.84967 -20.64006,9.80019 -2.27367,1.81013 -1.97775,3.3714 1.04249,5.50027 l 2.56676,1.80921 -0.32896,2.77759 c -0.28885,2.43886 -0.16557,2.94098 1.01086,4.11741 1.17432,1.17431 1.84401,1.33982 5.4215,1.33982 2.24493,0 5.42956,-0.40028 7.07697,-0.88951 z m 23.22058,-12.51092 c 3.10211,-1.47868 11.45969,-9.65475 11.97734,-11.71721 0.71398,-2.84471 -0.16022,-3.14517 -8.5827,-2.9499 -4.18643,0.0971 -7.90536,0.35797 -8.26427,0.57979 -2.80328,1.73252 -4.26764,11.70094 -2.07508,14.12584 1.36626,1.51104 3.7213,1.49798 6.94471,-0.0385 z"
       id="path3"
       transform="translate(1619.7386,571.26738)" />
  </g>
</svg>
