<?xml version="1.0" encoding="UTF-8" standalone="no"?>
<svg
   viewBox="0 0 367.38192 367.35472"
   width="367.38193"
   height="367.35471"
   version="1.1"
   id="svg52"
   sodipodi:docname="frame - TL C.dxf"
   xmlns:inkscape="http://www.inkscape.org/namespaces/inkscape"
   xmlns:sodipodi="http://sodipodi.sourceforge.net/DTD/sodipodi-0.dtd"
   xmlns="http://www.w3.org/2000/svg"
   xmlns:svg="http://www.w3.org/2000/svg">
  <sodipodi:namedview
     id="namedview52"
     pagecolor="#505050"
     bordercolor="#eeeeee"
     borderopacity="1"
     inkscape:showpageshadow="0"
     inkscape:pageopacity="0"
     inkscape:pagecheckerboard="0"
     inkscape:deskcolor="#505050" />
  <desc
     id="desc1">frame - TL C.dxf - scale = 1.000000, origin = (0.000000, 0.000000), method = manual</desc>
  <defs
     id="defs4" />
  <g
     inkscape:groupmode="layer"
     inkscape:label="MODELSKETCH_VISIBLE"
     id="g44"
     transform="translate(654.70073,-571.26738)">
    <path
       d="m -419.00103,767.09973 c -4.03967,5.66345 -2.69721,16.62979 1.69174,17.55165 4.62651,0.97174 12.63822,-9.21773 13.5338,-14.16821 0.46276,-2.55799 -0.97447,-3.71719 -1.26882,-5.07516 -0.21617,-0.99725 0.18402,-2.1017 -0.63438,-2.74906 -1.82588,-1.44427 -9.71729,-0.61336 -13.32234,4.44078 z"
       style="fill:none;stroke:#0000ff"
       id="path34" />
    <path
       d="m -410.5424,751.23981 c 0.80076,-2.34634 4.15228,-5.53455 7.61277,-5.07516 3.43052,0.4554 6.96814,4.4955 5.92102,6.76688 -1.19715,2.59684 -8.38703,2.88179 -11.63059,1.69172 -1.86413,-0.68395 -2.4248,-1.8551 -1.9032,-3.38344 z"
       style="fill:none;stroke:#0000ff"
       id="path35" />
    <path
       d="m -429.99722,750.1825 c -1.95158,2.11899 -1.32771,5.58176 0.84586,6.97836 2.64247,1.69788 7.57539,0.34196 10.15033,-2.21612 1.97143,-1.95853 2.56067,-4.62175 0.84588,-6.03103 -2.39801,-1.9708 -9.3018,-1.48938 -11.84207,1.26879 z"
       style="fill:none;stroke:#0000ff"
       id="path36" />
    <path
       d="m -429.62819,685.39334 c 4.9047,0.52148 14.84304,-4.85668 21.37548,-5.78394 4.06001,-0.57632 6.80438,0.56667 8.5502,-0.2515 1.42531,-0.66795 2.18506,-2.64306 4.27509,-3.77213 3.10384,-1.67673 9.1415,-1.48762 12.57381,0 2.12744,0.92208 3.25393,2.34302 3.01773,3.77213 -0.26816,1.62247 -2.2927,3.25545 -4.52659,4.27512 -3.18496,1.45379 -6.79547,1.66084 -11.81937,4.52656 -6.01647,3.43189 -14.05998,10.67678 -13.32826,12.32233 0.56316,1.26647 6.32422,-0.78376 10.56202,-2.01181 4.25908,-1.23422 6.97955,-1.63799 10.81348,-1.00589 3.51256,0.57911 7.95973,2.02771 8.29872,3.77213 0.33062,1.70136 -3.24667,3.68411 -7.54429,4.27511 -6.22918,0.85663 -13.97171,-1.21066 -18.1063,2.01182 -2.94998,2.29919 -4.06329,7.29122 -2.01182,9.05313 2.46284,2.11522 9.48693,-0.42498 13.32826,1.0059 2.54113,0.94655 3.68944,3.63089 2.51474,5.281 -1.80697,2.53829 -9.11067,2.6294 -12.5738,5.78397 -2.60517,2.37307 -3.037,6.47973 -0.75442,7.79576 3.22074,1.85693 11.84574,-1.84217 15.59153,-0.25147 2.88445,1.22492 2.87563,5.58658 3.52066,8.55018 0.57353,2.63505 1.66396,4.16483 5.53248,4.77805 10.49837,1.66416 41.45648,-3.42185 53.81592,1.50885 5.15218,2.05542 7.0724,5.85149 5.53248,7.54431 -2.62468,2.88529 -15.30124,-0.33942 -27.15944,-1.00592 -12.60668,-0.70856 -24.28844,1.47422 -30.68011,1.50886 -3.33436,0.0181 -5.22906,-0.54846 -8.29871,1.00592 -4.45563,2.25619 -11.38674,8.98088 -12.07087,12.82529 -0.31046,1.74456 0.6655,2.896 2.01181,3.0177 2.16618,0.19583 5.29111,-2.27412 8.80167,-3.26919 4.35879,-1.23551 9.31206,-0.19731 14.33415,2.01181 4.79621,2.10976 9.65519,5.28749 10.05906,8.55021 0.3424,2.76621 -2.51757,5.59353 -5.02952,8.04721 -2.54057,2.48164 -4.72515,4.58109 -5.78397,7.79578 -1.17828,3.57737 -0.96246,8.53582 -3.26917,11.56792 -2.22807,2.92873 -6.80962,4.06019 -10.56202,3.77212 -3.89497,-0.29901 -6.89659,-2.1275 -11.81937,-2.51474 -6.12817,-0.48206 -15.23354,1.26933 -18.10631,4.77805 -2.04288,2.49512 -0.93399,5.87891 -1.76031,9.3046 -0.74342,3.08202 -3.05323,6.19796 -5.78397,5.02955 -6.08762,-2.60473 -14.26716,-26.50162 -11.81938,-36.21258 1.44996,-5.75235 6.62888,-6.52707 8.80167,-10.05906 2.05149,-3.3348 1.42314,-9.12759 -1.50888,-11.81938 -3.56542,-3.27329 -10.53737,-1.96105 -17.60334,0.75443 -9.15505,3.51832 -18.46796,9.39229 -26.40502,13.32825 -5.11439,2.53621 -9.65751,4.26774 -12.07081,2.26328 -2.02056,-1.67826 -2.5481,-5.97547 -1.00592,-8.55021 2.02861,-3.38685 7.63849,-3.79326 13.83119,-5.53247 8.17067,-2.29472 17.35591,-6.90962 24.3932,-8.80167 4.611,-1.23972 8.29984,-1.31047 10.56199,-3.52067 1.92917,-1.88486 2.82075,-5.32568 1.76035,-7.9033 -0.84897,-2.06367 -2.94912,-3.57405 -2.26331,-4.6705 1.37233,-2.19404 13.89999,-2.73068 19.36369,-7.54428 4.19269,-3.69384 4.2257,-9.9062 2.01181,-12.07088 -1.52203,-1.48819 -4.10605,-1.06326 -5.78396,0 -1.79769,1.13916 -2.55531,3.01103 -5.28099,4.02363 -3.71951,1.38181 -11.10393,1.16351 -12.32236,-1.00589 -0.93911,-1.67209 1.78479,-4.50325 4.52658,-5.78397 3.17662,-1.48383 6.37725,-0.88645 9.80757,-1.00589 3.11417,-0.10844 6.41764,-0.80766 7.54431,-3.01773 1.03864,-2.0374 0.22736,-5.35876 -1.25738,-6.78987 -1.31646,-1.26889 -3.16235,-1.05174 -5.28101,-1.25735 -2.36945,-0.22996 -5.08005,-0.98867 -6.78986,0 -1.46603,0.8477 -2.19632,2.98002 -3.2692,3.77213 -0.8342,0.61588 -1.87551,0.42154 -3.0177,0 -1.30316,-0.48096 -2.73764,-1.25769 -3.01774,-2.51478 -0.34505,-1.54864 1.06182,-3.8263 2.76624,-5.28098 1.67326,-1.42808 3.63327,-2.063 5.28101,-2.2633 1.06178,-0.12908 1.99388,-0.0777 2.26331,-0.75443 0.30353,-0.76244 -0.23406,-2.44908 0.25146,-3.0177 0.73099,-0.85609 3.78108,0.82207 6.78986,1.00589 2.78643,0.17023 5.53742,-0.94117 5.53248,-2.01181 -0.003,-0.59422 -0.85443,-1.17589 -1.00592,-1.50885 -0.15149,-0.33297 0.39722,-0.41722 1.50888,-1.00589 3.91139,-2.07128 14.79202,-10.38735 16.84889,-14.83711 0.8496,-1.838 0.19374,-3.01635 -1.50885,-3.52067 -3.58689,-1.06245 -11.81945,0.86664 -16.84889,2.26328 -3.47376,0.96464 -5.41949,1.67527 -7.04136,4.02363 -1.74761,2.53041 -3.11922,6.96232 -5.28101,7.79578 -1.81524,0.69984 -4.18763,-1.13752 -6.03541,-2.76624 -1.86542,-1.64428 -3.19617,-3.07591 -4.52658,-5.02954 -1.25043,-1.83621 -2.50057,-4.13355 -1.50885,-5.78395 1.20634,-2.00756 5.72985,-3.05788 8.55018,-2.2633 2.56402,0.72237 3.72037,2.96955 6.53839,3.26917 z"
       style="fill:none;stroke:#0000ff"
       id="path37" />
    <path
       d="m -626.67402,679.75878 c -0.0323,-2.27536 6.40648,-5.45582 11.36418,-4.78492 6.3293,0.85653 10.24454,7.99028 11.96228,16.1491 2.0763,9.86184 0.94197,21.22133 -1.79433,29.30763 -2.10631,6.22456 -5.16184,10.50962 -7.80215,15.55098 -2.33773,4.46365 -4.34995,9.52019 -6.55258,11.96229 -0.97543,1.08147 -1.9882,1.65022 -2.39245,1.19622 -1.23124,-1.38274 3.18234,-12.25286 6.57923,-23.92457 4.15014,-14.25991 6.7827,-29.71633 0.29629,-37.03611 -4.04213,-4.56147 -11.62552,-5.96315 -11.66047,-8.42062 z"
       style="fill:none;stroke:#0000ff"
       id="path38" />
    <path
       d="m -287.81878,754.94474 a 183.19097,183.19097 0 0 0 -366.38195,0 183.19097,183.19097 0 0 0 366.38195,0 z"
       style="fill:none;stroke:#ff0000"
       id="path39" />
    <path
       d="m -609.65442,757.52944 c 0.54337,2.89606 -2.45229,6.84172 -3.28962,11.36418 -1.08388,5.85411 1.44876,12.67471 3.88773,19.43873 2.89631,8.03236 5.66054,15.98494 12.85945,24.82177 7.59401,9.32181 20.12282,19.6276 19.13968,24.52268 -0.5697,2.83657 -5.67656,3.85628 -10.16795,2.39248 -6.7652,-2.20487 -12.134,-10.04437 -16.14907,-17.34535 -3.95691,-7.19523 -6.59902,-13.86742 -9.56984,-20.93401 -2.79254,-6.64254 -5.87553,-13.63358 -6.87833,-19.13966 -0.80756,-4.43399 -0.26613,-7.905 0.89716,-13.15853 1.27036,-5.73706 3.28233,-13.59987 5.98117,-14.54699 1.3919,-0.48847 2.96649,0.86254 3.28962,2.5847 z"
       style="fill:none;stroke:#0000ff"
       id="path40" />
    <path
       d="m -599.86747,657.57065 c 0.0714,-2.30477 4.56138,-2.50936 8.45866,-1.26879 5.52247,1.7579 9.85482,6.41758 13.53376,10.57325 3.22563,3.64362 5.94895,6.89979 6.97836,11.20769 1.13621,4.7548 0.20885,10.79086 -0.63438,16.07138 -0.75152,4.70624 -1.43621,8.81234 -2.74906,12.47645 -1.39641,3.89737 -3.5035,7.2947 -5.07516,13.5338 -2.75015,10.9174 -3.86085,30.53613 -2.3261,44.19629 1.28086,11.40046 4.40433,18.65068 11.63062,28.54786 10.26519,14.05929 28.80953,33.45993 43.77337,44.19627 8.38915,6.01909 15.65293,9.31496 15.22554,12.26501 -0.30347,2.09472 -4.48476,4.01508 -9.09298,3.80637 -7.79209,-0.35291 -16.80484,-6.79322 -25.37587,-12.26501 -9.30585,-5.94089 -18.091,-10.74007 -25.79882,-20.93508 -10.14936,-13.4244 -18.43077,-36.20442 -21.35799,-53.50076 -2.29884,-13.58341 -1.29549,-23.78477 0.4229,-35.52622 1.68112,-11.48673 4.04659,-24.44746 8.24718,-32.98861 2.87704,-5.84992 6.61493,-9.6266 4.01783,-15.43699 -3.67287,-8.21715 -20.01575,-20.50173 -19.87786,-24.95291 z"
       style="fill:none;stroke:#0000ff"
       id="path41" />
    <path
       d="m -548.90421,668.77828 c 2.09662,0.28553 3.91695,3.1039 5.28665,6.55544 1.83785,4.63125 2.86438,10.40247 2.11462,15.01406 -0.72541,4.46182 -3.1136,7.8381 -5.92102,12.89938 -4.10899,7.40778 -9.11604,18.42511 -12.05353,27.91345 -1.88319,6.08286 -2.9158,11.53731 -5.07516,11.41914 -1.65399,-0.0905 -3.96904,-3.45048 -4.01788,-6.1325 -0.0546,-3.00014 2.7264,-5.15197 4.01788,-8.24715 1.78663,-4.28187 0.72256,-10.36909 2.74906,-17.34017 2.64039,-9.0828 10.5274,-19.66605 10.99618,-27.70199 0.29699,-5.09099 -2.38338,-9.15961 -1.69172,-11.84207 0.4195,-1.62694 2.07939,-2.74398 3.59492,-2.53759 z"
       style="fill:none;stroke:#0000ff"
       id="path42" />
    <path
       d="m -424.19832,796.31734 c -2.56025,4.42411 -0.73902,10.37978 4.12623,12.44745 7.15534,3.04092 20.89479,-2.32775 26.81455,-9.24668 3.96583,-4.63521 4.42211,-9.9662 2.66731,-12.44745 -1.53236,-2.16672 -4.75075,-2.16041 -9.60231,-1.42255 -7.98116,1.21385 -20.3821,4.40748 -24.00578,10.66923 z"
       style="fill:none;stroke:#0000ff"
       id="path43" />
    <path
       d="m -562.35479,754.94474 c 1.44557,-0.82623 5.33347,5.23596 8.89103,11.71176 5.2286,9.51759 9.74362,19.92857 15.47036,27.74001 5.09011,6.94306 11.1375,11.83242 19.02682,16.35947 6.72875,3.86111 14.79737,7.45866 14.93696,10.49143 0.0915,1.98788 -3.22362,3.7331 -6.5794,4.26768 -4.69557,0.74801 -9.47076,-0.8743 -14.9369,-3.5564 -7.20941,-3.53747 -15.62076,-8.91848 -21.5163,-15.82604 -6.34774,-7.43738 -9.77893,-16.64445 -12.62528,-28.27347 -2.45682,-10.03757 -4.47792,-21.87955 -2.66729,-22.91444 z"
       style="fill:none;stroke:#0000ff"
       id="path44" />
    <path
       style="fill:#000000;stroke:#000000;stroke-width:0.391396"
       d="m 226.97395,257.45502 c -1.9066,-1.96463 -5.24719,-8.65564 -6.99303,-14.00664 -1.7825,-5.46335 -2.79319,-10.93483 -2.82395,-15.28773 -0.037,-5.23674 0.87373,-7.24423 4.6553,-10.26148 4.85446,-3.8733 5.81625,-5.62629 5.50045,-10.02536 -0.42069,-5.86025 -3.49842,-8.69774 -9.42134,-8.68592 -6.39425,0.0127 -13.63036,2.68651 -27.08577,10.00823 -12.90193,7.02054 -16.93703,8.81152 -19.85251,8.81152 -2.09318,0 -2.84197,-0.48988 -3.58419,-2.34488 -0.82044,-2.05047 -0.78967,-3.34138 0.12781,-5.36223 0.99579,-2.19336 2.4411,-2.88005 10.55892,-5.01671 3.63147,-0.95583 7.01711,-1.9144 7.52364,-2.13015 6.6611,-2.83725 18.27338,-6.94363 22.72066,-8.03456 3.44494,-0.84506 6.08871,-1.72823 7.02167,-2.34563 2.00003,-1.32356 3.19068,-3.7222 3.23171,-6.51047 0.0276,-1.87661 -0.17534,-2.52815 -1.40208,-4.50106 l -1.43438,-2.30683 0.93077,-0.49183 c 0.51191,-0.2705 3.18491,-1.09252 5.93999,-1.8267 6.59029,-1.75619 8.96603,-2.67586 11.46891,-4.43975 4.86292,-3.4271 6.30236,-10.92654 2.68196,-13.9729 -2.11723,-1.78155 -5.16967,-1.14943 -8.27593,1.71382 -0.9491,0.87485 -2.35577,1.85392 -3.12593,2.17571 -3.10317,1.29659 -9.2148,1.21999 -10.88998,-0.13649 -0.79514,-0.64387 -0.80798,-0.74624 -0.23308,-1.85798 0.64363,-1.24465 2.81544,-2.92631 4.77256,-3.69547 0.6458,-0.25381 3.72837,-0.58052 6.85015,-0.72604 6.25473,-0.29154 8.05933,-0.83852 9.56323,-2.89863 1.59044,-2.17866 0.70417,-6.85194 -1.58375,-8.35104 -1.17061,-0.76701 -9.05905,-1.79969 -11.03148,-1.44413 -0.9253,0.1668 -1.81051,0.83712 -3.13117,2.37104 -1.65571,1.92309 -1.96612,2.11849 -3.0816,1.93979 -2.91049,-0.46625 -3.92681,-2.14784 -2.71072,-4.48513 1.12897,-2.16985 4.63279,-4.35663 7.0102,-4.37517 1.93442,-0.0151 2.61619,-0.64479 2.61619,-2.41637 0,-1.53694 0.0408,-1.58882 1.07634,-1.36972 6.16686,1.30475 8.60354,1.26164 10.4423,-0.18473 1.03813,-0.81659 1.32566,-2.05638 0.58332,-2.51517 -0.23657,-0.14621 0.55505,-0.85025 1.79769,-1.5988 5.28747,-3.18514 12.92682,-9.76024 15.03106,-12.93707 2.17049,-3.27683 1.36828,-5.68612 -2.06469,-6.20092 -3.21664,-0.48237 -13.37091,1.32546 -18.75065,3.3383 -3.08283,1.15345 -4.28415,2.27521 -6.20667,5.7957 -2.47345,4.52936 -2.98827,5.16432 -4.18587,5.16265 -3.41336,-0.005 -11.73278,-9.30188 -10.84021,-12.11414 0.39319,-1.23883 3.18092,-2.47472 5.68751,-2.52147 1.89523,-0.0353 2.50935,0.17024 5.00074,1.67399 2.79799,1.68881 2.88218,1.71144 5.66797,1.52355 2.12985,-0.14365 4.75987,-0.852 10.65573,-2.86996 l 7.82792,-2.67923 4.98531,-0.0283 4.98531,-0.0283 1.86412,-1.83128 c 2.10306,-2.06602 3.76094,-2.87683 6.67188,-3.26298 3.98479,-0.5286 9.57918,1.26052 10.32355,3.30153 0.28721,0.78753 0.0866,1.17596 -1.32989,2.57491 -1.4347,1.41692 -2.41168,1.89943 -6.98141,3.44795 -2.9223,0.99027 -6.40244,2.43882 -7.73364,3.21902 -6.39656,3.74892 -13.37233,10.17777 -13.37233,12.3239 0,2.07095 1.34252,2.04014 9.12191,-0.20936 2.54147,-0.73489 5.71477,-1.51092 7.05177,-1.7245 3.71887,-0.5941 9.23075,0.45988 12.34725,2.36103 l 1.3189,0.80456 -0.89412,0.95174 c -1.9274,2.05163 -4.53409,2.61214 -13.48556,2.89976 -5.08515,0.16339 -8.66706,0.45034 -9.39351,0.75253 -4.8615,2.02226 -6.98178,9.70339 -3.21604,11.65073 0.99326,0.51363 2.08791,0.59504 5.89372,0.4383 2.57066,-0.10587 5.28246,-0.0552 6.02625,0.11251 2.72547,0.61469 4.08046,3.09129 2.59148,4.7366 -0.3532,0.39027 -2.66894,1.35914 -5.14608,2.15303 -6.71499,2.15206 -9.15003,4.44839 -9.15003,8.62879 0,1.58891 0.17833,2.0221 1.21298,2.94656 1.47198,1.31521 2.84356,1.37821 9.50362,0.43651 5.37541,-0.76007 6.72723,-0.5315 7.99656,1.35206 0.48108,0.71388 1.05411,2.50181 1.31308,4.09704 0.68082,4.19373 1.6287,5.92525 3.83983,7.0144 1.75317,0.86356 2.2223,0.90337 10.44632,0.8865 4.7359,-0.01 13.19005,-0.23382 18.78702,-0.49801 18.85026,-0.88976 27.64938,0.48681 31.55657,4.93685 1.6381,1.86569 1.43552,3.18698 -0.60735,3.9614 -1.62386,0.61558 -3.33339,0.49787 -19.99013,-1.37638 -6.36692,-0.71642 -18.28125,-0.53569 -27.59343,0.41857 -3.12138,0.31987 -7.54648,0.58546 -9.83354,0.59021 -2.67268,0.006 -4.75204,0.21813 -5.8202,0.59499 -2.4546,0.86604 -6.16909,3.672 -9.30243,7.02716 -4.16152,4.45611 -5.34238,7.57281 -3.65753,9.65352 1.14207,1.41039 3.12161,1.19678 7.44144,-0.803 4.69208,-2.17209 7.40603,-2.45102 12.15743,-1.2495 5.94935,1.50447 12.86588,5.49852 14.28964,8.25176 1.30625,2.52602 0.52941,4.05739 -4.87337,9.60669 -4.03986,4.14941 -5.21848,6.2829 -6.07504,10.99677 -0.90861,5.00035 -1.60994,6.90478 -3.04374,8.26525 -3.45761,3.28074 -7.50823,3.71938 -15.35352,1.66261 -4.37539,-1.14708 -5.01811,-1.21703 -9.39351,-1.02233 -2.58321,0.11495 -5.84158,0.50708 -7.24083,0.8714 -2.97335,0.77419 -6.54289,2.48072 -7.57158,3.61985 -1.10887,1.2279 -1.7858,3.54255 -1.80474,6.17099 -0.0222,3.0789 -0.86935,5.84774 -2.22078,7.25833 -1.57243,1.64126 -2.91283,1.49611 -4.87733,-0.52817 z m 18.95344,-19.30796 c 1.3274,-0.33496 4.36305,-1.55578 6.7459,-2.71294 7.71053,-3.74441 12.44858,-9.2125 12.97057,-14.96911 0.28148,-3.10421 -0.74927,-5.55753 -2.72985,-6.49737 -3.78002,-1.79374 -17.12661,0.63293 -25.57427,4.6499 -6.52746,3.10389 -9.70457,8.06595 -8.3832,13.09301 1.66623,6.33909 7.935,8.71663 16.97085,6.43651 z m -4.92169,-24.92873 c 2.67157,-1.33425 7.20534,-6.39935 9.07923,-10.14327 1.8043,-3.60489 1.9747,-5.2536 0.80858,-7.82351 -0.42581,-0.93839 -0.77807,-2.18053 -0.7828,-2.76032 -0.0274,-3.36629 -7.92112,-2.98441 -12.63537,0.61127 -3.53418,2.69561 -5.49755,8.40848 -4.68777,13.64012 0.99517,6.42936 3.83319,8.66565 8.21813,6.47571 z m -7.92931,-27.08311 c 3.76085,-1.6955 5.77866,-4.77766 4.8902,-7.4697 -1.57244,-4.76454 -13.49113,-3.35561 -14.86797,1.75757 -0.29575,1.09832 -0.30251,2.02877 -0.0223,3.06933 1.01707,3.77711 5.09408,4.85457 10.00009,2.6428 z m 23.16355,-2.42762 c 2.96194,-1.44671 3.04739,-4.16346 0.21626,-6.87566 -1.91334,-1.83296 -3.62234,-2.66322 -5.454,-2.64964 -3.43161,0.0254 -7.55382,3.62982 -7.55382,6.60491 0,2.83066 2.5484,4.02277 8.0948,3.78664 2.09126,-0.089 3.72085,-0.38958 4.69676,-0.86625 z"
       id="path52"
       transform="translate(-654.70073,571.26738)" />
    <path
       style="fill:#000000;stroke:#000000;stroke-width:0.391396"
       d="m 88.960927,169.76807 c -2.600192,-2.84369 -2.666063,-5.03282 -0.267416,-8.88719 2.469687,-3.96853 2.783831,-5.04509 3.466685,-11.88019 0.32717,-3.27485 0.869547,-7.00904 1.205282,-8.29822 0.761782,-2.92512 3.015242,-8.22564 6.221432,-14.63385 4.87443,-9.74253 5.76969,-14.10438 4.18283,-20.37955 -1.046,-4.13638 -1.05737,-5.65825 -0.0498,-6.665852 1.80465,-1.80465 4.18401,-0.149409 6.20912,4.319472 1.67629,3.69913 2.38858,6.70142 2.64312,11.14067 0.29032,5.06348 -0.25812,6.81607 -4.68106,14.95885 -6.71086,12.35488 -11.044368,22.51221 -14.382022,33.71003 -1.512202,5.07343 -2.626743,7.49647 -3.448203,7.49647 -0.162119,0 -0.657118,-0.39629 -1.099998,-0.88064 z"
       id="path53"
       transform="translate(-654.70073,571.26738)" />
    <path
       style="fill:#000000;stroke:#000000;stroke-width:0.391396"
       d="m 132.80945,280.95832 c -2.65687,-0.40999 -6.65767,-1.93445 -10.30247,-3.92565 -3.53016,-1.92857 -21.24208,-13.18925 -25.636441,-16.29883 -4.39941,-3.11316 -11.669692,-10.48963 -14.529173,-14.74138 -9.216631,-13.70418 -16.547593,-33.09158 -19.979818,-52.83848 -0.978372,-5.62894 -0.980921,-20.73969 -0.0047,-27.98482 1.741282,-12.92339 4.080657,-24.58989 6.317882,-31.50739 0.556968,-1.72214 2.461481,-6.01547 4.232251,-9.54073 3.06878,-6.10935 3.219584,-6.53177 3.219584,-9.01847 0,-4.432 -2.114025,-7.63672 -11.467578,-17.38408 -6.42044,-6.690756 -9.174361,-10.174233 -9.001188,-11.385738 0.286373,-2.003445 5.852565,-1.663035 10.150208,0.620754 5.78866,3.076124 15.0197,13.353034 16.993766,18.919144 1.05552,2.97616 0.916461,9.5165 -0.366158,17.22143 -1.296633,7.78911 -2.154753,10.96653 -4.348999,16.10333 -4.267441,9.9902 -5.821255,18.78118 -6.320019,35.75665 -0.485293,16.51701 1.298112,27.91109 5.717979,36.53188 4.644238,9.05842 13.686441,20.49856 26.617194,33.67591 11.59221,11.81329 18.73753,17.86237 29.75572,25.1906 9.28321,6.17428 10.31405,7.34788 7.92577,9.0234 -2.11421,1.48324 -5.61556,2.10069 -8.97379,1.58247 z"
       id="path54"
       transform="translate(-654.70073,571.26738)" />
    <path
       style="fill:#000000;stroke:#000000;stroke-width:0.391396"
       d="m 33.26867,176.87856 c 0,-0.93606 1.462068,-5.97515 3.965231,-13.66638 5.038639,-15.48174 6.747862,-23.62555 6.777059,-32.29018 0.01859,-5.5174 -0.08609,-6.58825 -0.88005,-9.00211 -1.579201,-4.80123 -4.27563,-7.55343 -10.450522,-10.66667 -1.292261,-0.65152 -2.781106,-1.53403 -3.308544,-1.96112 l -0.958979,-0.77654 1.160675,-1.16067 c 1.607415,-1.60742 5.278617,-2.90854 8.25508,-2.92571 7.732654,-0.0446 13.141753,9.33367 13.724101,23.7948 0.480271,11.92632 -1.577422,20.30549 -7.653644,31.16655 -1.476992,2.64008 -3.935917,7.26863 -5.464278,10.28567 -2.537521,5.00916 -5.166129,8.67383 -5.166129,7.20236 z"
       id="path55"
       transform="translate(-654.70073,571.26738)" />
    <path
       style="fill:#000000;stroke:#000000;stroke-width:0.391396"
       d="m 68.50381,268.28061 c -3.014547,-0.8367 -5.066285,-2.1434 -7.970183,-5.07601 -5.789079,-5.84633 -10.311606,-14.14649 -18.617382,-34.16836 -6.988746,-16.84704 -7.615336,-20.02252 -5.749395,-29.13716 1.766025,-8.62659 4.23984,-15.17454 5.850095,-15.48465 1.147586,-0.221 2.210816,1.05991 2.210816,2.66346 0,0.78914 -0.735597,3.35973 -1.63466,5.71243 -1.480124,3.87323 -1.634747,4.61064 -1.635579,7.80019 -0.0011,4.34172 0.93593,8.18323 4.153101,17.02573 5.805303,15.95607 8.724201,20.67407 20.612691,33.31759 7.129565,7.58235 9.256002,10.15738 10.525648,12.74614 0.785031,1.60065 0.933264,2.25952 0.620053,2.75606 -1.313325,2.08206 -4.766312,2.84346 -8.365205,1.84458 z"
       id="path56"
       transform="translate(-654.70073,571.26738)" />
    <path
       style="fill:#000000;stroke:#000000;stroke-width:0.391396"
       d="m 135.22736,252.44263 c -10.61121,-3.64909 -23.97359,-13.27969 -29.45444,-21.22855 -4.09054,-5.93249 -7.044113,-13.11457 -9.696219,-23.57789 -2.869068,-11.31929 -4.493518,-22.36506 -3.389472,-23.0474 1.096397,-0.67761 5.198033,5.87765 12.706171,20.30708 7.93597,15.25165 11.13923,20.08373 17.02738,25.68559 4.23483,4.02892 8.52315,6.9929 16.91624,11.69205 9.19898,5.15036 11.31537,6.89958 10.33147,8.53903 -0.85709,1.42816 -4.05203,2.57171 -7.57132,2.70997 -2.92619,0.11496 -3.79035,-0.0209 -6.86981,-1.07988 z"
       id="path57"
       transform="translate(-654.70073,571.26738)" />
  </g>
</svg>
