<?xml version="1.0" encoding="UTF-8" standalone="no"?>
<svg
   viewBox="0 0 367.38192 367.35472"
   width="367.38193"
   height="367.35471"
   version="1.1"
   id="svg53"
   sodipodi:docname="frame - BL C.dxf"
   xmlns:inkscape="http://www.inkscape.org/namespaces/inkscape"
   xmlns:sodipodi="http://sodipodi.sourceforge.net/DTD/sodipodi-0.dtd"
   xmlns="http://www.w3.org/2000/svg"
   xmlns:svg="http://www.w3.org/2000/svg">
  <sodipodi:namedview
     id="namedview53"
     pagecolor="#505050"
     bordercolor="#eeeeee"
     borderopacity="1"
     inkscape:showpageshadow="0"
     inkscape:pageopacity="0"
     inkscape:pagecheckerboard="0"
     inkscape:deskcolor="#505050" />
  <desc
     id="desc1">frame - BL C.dxf - scale = 1.000000, origin = (0.000000, 0.000000), method = manual</desc>
  <defs
     id="defs4" />
  <g
     inkscape:groupmode="layer"
     inkscape:label="MODELSKETCH_VISIBLE"
     id="g45"
     transform="translate(654.70073,-1880.0402)">
    <path
       d="m -381.95135,2024.5722 c 1.59653,-0.1394 5.09234,1.9884 7.04133,4.0237 1.73757,1.8144 2.24571,3.5552 2.2633,6.0354 0.0204,2.8703 -0.61629,6.7308 -1.88608,8.4244 -0.71766,0.9572 -1.63758,1.2223 -1.88608,2.0119 -0.30197,0.9595 0.38758,2.6937 0.6287,4.0236 0.19963,1.1011 0.0919,1.9251 -0.37723,2.7662 -0.52285,0.9376 -1.49458,1.8966 -2.51474,2.389 -0.93848,0.453 -1.91795,0.5112 -2.89197,0.503 -0.93664,-0.01 -1.86823,-0.077 -2.64051,-0.6287 -0.95659,-0.6833 -1.66873,-2.1067 -2.01181,-3.6464 -0.35332,-1.5857 -0.31522,-3.2948 0.3772,-4.4008 0.68326,-1.0914 2.00366,-1.5955 2.6405,-3.3949 1.20273,-3.3984 -0.0326,-11.417 0,-15.3401 0.0145,-1.7461 0.28013,-2.6809 1.25739,-2.7663 z"
       style="fill:none;stroke:#0000ff"
       id="path34" />
    <path
       d="m -424.9233,2044.0124 c 2.02463,-2.2675 7.05686,-3.9421 10.57329,-4.2293 2.18964,-0.1789 3.79154,0.1802 4.2293,1.2688 0.48071,1.1954 -0.44238,3.2705 -0.63438,5.2866 -0.17281,1.8146 0.2466,3.5815 -0.84586,4.2293 -1.70187,1.0093 -7.07278,-0.6972 -10.36181,-1.4802 -2.05449,-0.4891 -3.29667,-0.6179 -3.8064,-1.4803 -0.48471,-0.8201 -0.30711,-2.3037 0.84586,-3.5949 z"
       style="fill:none;stroke:#0000ff"
       id="path35" />
    <path
       d="m -443.10932,2004.8913 c 4.84494,0.426 15.82239,4.1735 22.83828,2.749 5.38178,-1.0927 8.43251,-5.2287 11.84208,-6.5554 2.25795,-0.8786 4.67327,-0.5251 5.92102,0.4229 0.9201,0.6991 1.20531,1.7215 1.69172,2.7491 0.56527,1.1941 1.40226,2.3951 1.69172,4.0178 0.31446,1.7628 -0.0173,4.0233 -0.84586,5.0752 -0.61526,0.7811 -1.50447,0.8958 -2.53758,1.2688 -1.44975,0.5235 -3.18289,1.5557 -4.86371,2.749 -1.67537,1.1896 -3.29876,2.5392 -4.2293,3.595 -0.64997,0.7374 -0.96192,1.3314 -1.69172,2.1146 -1.09824,1.1786 -3.14273,2.7858 -4.44078,4.2293 -0.99981,1.1119 -1.55678,2.1267 -2.11466,2.9605 -0.33824,0.5056 -0.67682,0.9447 -0.42293,1.2688 0.51948,0.6633 3.51915,0.8457 5.4981,1.0573 1.53988,0.1647 2.46171,0.3471 3.38344,-0.2114 1.11229,-0.674 2.22443,-2.4269 3.38347,-3.5949 0.96325,-0.9707 1.9589,-1.5373 2.96051,-1.6917 0.86406,-0.1332 1.73257,0.04 2.53758,0 0.73487,-0.037 1.41684,-0.2522 2.11465,0 0.78726,0.2845 1.59469,1.164 1.9032,1.9032 0.24554,0.5883 0.17505,1.0878 0.21145,1.6917 0.0445,0.738 0.24863,1.6321 0.21148,2.5376 -0.0472,1.1498 -0.48345,2.3182 -0.84586,4.0178 -0.44501,2.087 -0.77868,4.975 -0.84586,6.1325 -0.0304,0.524 -0.006,0.6934 0,1.2688 0.015,1.39 -0.075,5.1496 -0.21148,7.4013 -0.0964,1.5902 -0.21597,2.4284 -0.84586,3.5949 -1.03716,1.9208 -3.45789,4.7318 -5.92102,8.0745 -3.25081,4.4117 -6.5755,9.7496 -10.78476,13.7064 -3.41933,3.2143 -7.42238,5.5173 -10.78474,4.0179 -2.77689,-1.2384 -5.11679,-5.0701 -3.59492,-6.9783 1.91088,-2.396 9.91006,-1.7593 11.84207,-3.595 1.54277,-1.4659 -0.78312,-4.5082 -3.337,-7.151 -3.13101,-3.24 -6.6047,-5.8796 -9.56238,-7.0172 -1.85236,-0.7124 -3.50232,-0.8357 -4.65226,0 -1.33569,0.9708 -1.99677,3.2354 -3.38344,5.2867 -1.36697,2.0221 -3.43906,3.8368 -5.07516,3.3834 -1.80519,-0.5003 -3.07961,-3.7618 -2.53758,-6.9783 0.73994,-4.3911 4.86495,-8.6984 8.67008,-10.7848 3.16168,-1.7336 6.10251,-1.9338 8.4586,-4.4408 3.16484,-3.3675 5.27461,-10.8973 8.08214,-15.2255 1.88837,-2.9111 4.0924,-4.3739 4.81727,-6.1325 0.46436,-1.1265 0.32173,-2.3743 -0.42293,-3.172 -0.88058,-0.9433 -2.60303,-1.257 -4.39434,-0.8459 -2.58369,0.5931 -5.3106,2.6941 -8.29359,4.2294 -2.78329,1.4325 -5.78951,2.3724 -8.0357,1.0573 -2.70223,-1.5821 -4.30446,-6.4279 -5.49809,-10.3618 -0.91208,-3.006 -1.58559,-5.4796 -1.05734,-6.7669 0.36909,-0.8994 1.32485,-1.2198 3.17199,-1.0573 z"
       style="fill:none;stroke:#0000ff"
       id="path36" />
    <path
       d="m -343.515,2077.8927 c -2.33754,1.4842 -0.12766,7.6351 2.32613,13.1109 2.82736,6.3093 5.97855,11.7222 10.57325,14.1681 3.79425,2.0198 8.57287,2.0163 12.05355,-0.2114 3.26362,-2.0888 5.38615,-6.133 5.07517,-9.3045 -0.34455,-3.5139 -3.67621,-5.9567 -9.09302,-9.3045 -7.13613,-4.4103 -17.89115,-10.3912 -20.93508,-8.4586 z"
       style="fill:none;stroke:#0000ff"
       id="path37" />
    <path
       d="m -363.26279,1998.4181 c 0.26351,-0.4797 8.80884,2.1533 13.15854,8.3737 7.15198,10.2277 2.96086,30.1538 0,42.167 -1.80371,7.3183 -3.15086,11.7001 -6.87834,14.0557 -2.5857,1.6341 -6.31682,2.2931 -7.47642,0.8972 -1.50124,-1.8072 1.30753,-7.0587 2.99056,-12.2614 2.09476,-6.4754 2.44561,-12.8753 2.09341,-19.4387 -0.34866,-6.4975 -1.38633,-13.1551 -0.89716,-19.1397 0.38164,-4.6691 1.69268,-8.9285 0,-11.6632 -1.0193,-1.6468 -3.12781,-2.7407 -2.99059,-2.9906 z"
       style="fill:none;stroke:#0000ff"
       id="path38" />
    <path
       d="m -379.46415,2078.5271 c 1.55622,0.133 4.0087,5.0867 7.18984,9.093 3.3024,4.159 7.39007,7.2971 6.97836,10.3619 -0.38785,2.8872 -4.76893,5.7094 -9.09301,6.3439 -4.26795,0.6263 -8.48037,-0.8787 -9.9389,-4.2294 -1.78676,-4.1047 0.5593,-10.9795 2.11468,-16.0713 0.95781,-3.1355 1.61579,-5.5949 2.74903,-5.4981 z"
       style="fill:none;stroke:#0000ff"
       id="path39" />
    <path
       d="m -595.71747,2005.0117 c 3.55769,0.4395 6.86915,5.0454 8.88156,10.1504 3.10787,7.8838 3.11748,16.9581 1.26882,32.1427 -2.23527,18.3602 -7.18731,45.6537 -9.30452,46.0995 -2.00182,0.4216 -1.46936,-23.158 -3.80634,-41.8701 -2.2922,-18.3536 -7.34491,-32.0243 -4.65226,-40.1785 1.3328,-4.0361 4.56323,-6.7206 7.61274,-6.344 z"
       style="fill:none;stroke:#0000ff"
       id="path40" />
    <path
       d="m -287.81878,2063.7175 a 183.19097,183.19097 0 0 0 -366.38195,0 183.19097,183.19097 0 0 0 366.38195,0 z"
       style="fill:none;stroke:#ff0000"
       id="path41" />
    <path
       d="m -566.1123,1969.0626 c -7.17912,4.4485 -1.55223,37.0981 -0.4229,62.1709 1.05072,23.3276 -1.79181,40.0964 -3.38344,53.7122 -1.18533,10.1401 -1.67689,18.5314 -10.57329,27.9135 -11.77107,12.4137 -38.25626,26.5619 -40.17845,33.4115 -0.65193,2.3232 1.52163,3.8068 4.65221,3.8064 8.8746,-9e-4 25.44,-11.9272 36.79501,-31.2968 12.01854,-20.5016 18.19993,-49.342 22.83828,-49.0601 4.67869,0.2844 7.78737,30.1997 23.26119,49.9059 14.82938,18.8854 41.01541,28.3945 43.98485,24.9529 2.5912,-3.0032 -12.4964,-15.8678 -24.10705,-30.0281 -15.58911,-19.0124 -24.91021,-40.3604 -31.71985,-61.7479 -5.91385,-18.5741 -9.93352,-37.178 -8.88156,-51.5976 0.72011,-9.8707 3.81672,-17.7807 0.42296,-24.53 -2.63561,-5.2415 -9.18566,-9.783 -12.68796,-7.6128 z"
       style="fill:none;stroke:#0000ff"
       id="path42" />
    <path
       d="m -542.0052,2011.7787 c 1.94177,-1.9069 7.30712,-0.1575 11.41909,0 3.53904,0.1355 6.14964,-0.9082 8.45866,0 2.58465,1.0166 4.79142,4.4788 5.07516,9.3044 0.53111,9.0327 -5.67542,22.842 -9.30452,35.9492 -2.30567,8.3273 -3.57098,16.3712 -4.2293,14.3797 -1.1942,-3.6127 -0.39105,-40.2478 -5.07516,-49.06 -1.79914,-3.3848 -4.40781,-2.6648 -5.92103,-4.2293 -1.4145,-1.4625 -1.87181,-4.9212 -0.4229,-6.344 z"
       style="fill:none;stroke:#0000ff"
       id="path43" />
    <path
       d="m -445.22991,2093.5412 c 3.00341,-1.3826 5.587,-5.5832 8.45863,-6.5555 1.71393,-0.5803 3.53047,-0.011 3.59489,1.2688 0.11475,2.279 -5.32996,6.8101 -7.18981,9.7275 -1.15698,1.8148 -0.92667,3.0052 -1.48027,4.4407 -0.79462,2.0606 -3.20432,4.6261 -5.92102,7.6127 -3.66707,4.0315 -7.89351,8.8303 -13.5338,11.2077 -4.19243,1.7671 -9.166,2.1965 -9.70846,0 -0.85261,-3.4523 9.24093,-13.3912 13.72631,-19.6663 2.71003,-3.7913 3.37283,-6.2451 5.28664,-6.9784 1.69274,-0.6486 4.36415,0.049 6.76689,-1.0572 z"
       style="fill:none;stroke:#0000ff"
       id="path44" />
    <path
       d="m -415.8362,2082.9679 c -3.36872,3.3264 -0.99675,13.0596 -1.48027,20.0892 -0.32178,4.6784 -1.90828,8.1593 -0.84586,8.8816 0.91541,0.6224 3.79732,-0.8032 6.34398,-1.9033 2.61882,-1.1312 4.88312,-1.9182 6.13248,-3.3834 1.25163,-1.4678 1.48463,-3.6162 1.9032,-6.7669 0.61747,-4.6478 1.63878,-11.4767 -1.48025,-15.2255 -2.60952,-3.1364 -8.11718,-4.1169 -10.57328,-1.6917 z"
       style="fill:none;stroke:#0000ff"
       id="path45" />
    <path
       style="fill:#000000;stroke:#000000;stroke-width:0.708955"
       d="m 324.31686,224.12707 c -1.18639,-0.72348 -3.07069,-2.3972 -4.18733,-3.71936 -2.95608,-3.50017 -8.29898,-14.94856 -8.72011,-18.68484 -0.36092,-3.20201 -0.35327,-3.21537 1.839,-3.21537 4.21662,0 23.53119,10.88547 25.99995,14.65328 2.1663,3.30619 0.25533,8.6106 -4.02187,11.16375 -2.58085,1.54056 -8.22716,1.43837 -10.90964,-0.19746 z"
       id="path53"
       transform="translate(-654.70073,1880.0402)" />
    <path
       style="fill:#000000;stroke:#000000;stroke-width:0.708955"
       d="m 290.6717,182.80064 c 0,-0.45033 1.11356,-4.2634 2.47459,-8.47348 3.04054,-9.40532 3.63577,-16.14299 2.54407,-28.7974 -0.57848,-6.70543 -0.59765,-11.07745 -0.0673,-15.34547 0.49369,-3.97293 0.50692,-6.58592 0.0396,-7.81518 -0.38617,-1.01569 -0.54416,-1.8467 -0.3511,-1.8467 0.78485,0 5.74392,3.48758 7.20053,5.06393 6.16032,6.66675 6.60676,21.8434 1.2623,42.91189 -2.11849,8.35131 -3.65578,11.44957 -6.71135,13.52606 -2.47879,1.68452 -6.39132,2.15978 -6.39132,0.77635 z"
       id="path54"
       transform="translate(-654.70073,1880.0402)" />
    <path
       style="fill:#000000;stroke:#000000;stroke-width:0.708955"
       d="m 270.13693,172.32276 c -1.17646,-2.19824 -0.85467,-4.90236 0.86125,-7.23744 1.47493,-2.00713 1.58385,-2.83317 1.44518,-10.9601 -0.16955,-9.93671 -0.0718,-10.07984 4.58149,-6.709 3.77809,2.73683 4.81444,5.7705 3.73975,10.94724 -0.43716,2.10581 -1.42837,4.40208 -2.20269,5.10283 -1.1618,1.05141 -1.32695,1.81355 -0.94496,4.36087 0.36239,2.41655 0.18975,3.38861 -0.79509,4.47684 -1.68767,1.86486 -5.69091,1.87609 -6.68493,0.0188 z"
       id="path55"
       transform="translate(-654.70073,1880.0402)" />
    <path
       style="fill:#000000;stroke:#000000;stroke-width:0.708955"
       d="m 227.57467,200.78322 c -1.79177,-0.55488 -4.25373,-3.16009 -4.25373,-4.50122 0,-1.66544 1.76186,-2.54588 6.29893,-3.14775 2.0396,-0.27056 4.38575,-1.04044 5.21367,-1.71085 1.36694,-1.10688 1.42048,-1.42368 0.58254,-3.44666 -1.32684,-3.20328 -9.25295,-10.34744 -13.11735,-11.82327 -4.0997,-1.56569 -6.14408,-0.80589 -8.0899,3.00664 -3.34925,6.56233 -6.86167,6.7292 -6.81076,0.32357 0.0391,-4.91634 2.64115,-8.09538 9.67125,-11.81574 2.94726,-1.5597 5.90759,-3.29773 6.57852,-3.8623 0.67093,-0.56456 2.93877,-4.45386 5.03965,-8.6429 2.10088,-4.18903 4.72982,-8.67208 5.84208,-9.96233 2.78102,-3.22605 3.2055,-4.71744 1.90678,-6.69953 -1.63884,-2.5012 -4.85124,-2.16669 -11.17181,1.16332 -8.78612,4.62901 -11.16623,3.68998 -14.34639,-5.66008 -1.92793,-5.66836 -2.16482,-7.48628 -1.06417,-8.16652 0.39169,-0.24207 4.14029,0.25918 8.33023,1.11391 13.71705,2.7982 16.88146,2.36969 26.19478,-3.54717 2.72884,-1.73365 4.15628,-2.22607 5.48579,-1.89238 2.21359,0.55557 4.65019,5.02634 4.65019,8.53234 0,2.3282 -0.25821,2.61097 -4.00116,4.38167 -4.11908,1.94863 -14.17838,11.42331 -16.24472,15.30061 -1.25282,2.35081 -0.68704,2.80806 4.29124,3.46805 3.97578,0.52709 5.50191,-0.0337 7.9235,-2.91161 2.34826,-2.79075 7.01635,-3.23718 8.59862,-0.82233 0.9586,1.463 0.99009,2.24778 0.22867,5.69823 -0.48567,2.20086 -1.05874,7.35137 -1.27349,11.44559 -0.44603,8.50363 0.0913,7.36377 -9.60159,20.36725 -8.07061,10.82708 -13.12617,14.96819 -16.86137,13.81146 z m 17.26173,-34.73121 c 0.78982,-6.77903 0.20086,-7.57717 -5.12912,-6.95073 -4.17628,0.49084 -9.16512,2.41009 -10.45069,4.02047 -1.24967,1.56541 -1.70984,3.7412 -1.02275,4.83577 0.83519,1.3305 9.60265,3.60007 13.16546,3.40804 l 2.83582,-0.15284 z"
       id="path56"
       transform="translate(-654.70073,1880.0402)" />
    <path
       style="fill:#000000;stroke:#000000;stroke-width:0.708955"
       d="m 274.01124,222.46465 c -2.7801,-1.59439 -3.25851,-2.8448 -2.92735,-7.65118 0.33197,-4.81811 3.08665,-14.88806 4.0727,-14.88806 0.31418,0 2.33068,2.31297 4.48112,5.13993 2.15043,2.82696 5.03426,6.53909 6.4085,8.24918 1.37424,1.71009 2.49862,3.65459 2.49862,4.32109 0,3.87614 -10.25419,7.28327 -14.53359,4.82904 z"
       id="path57"
       transform="translate(-654.70073,1880.0402)" />
    <path
       style="fill:#000000;stroke:#000000;stroke-width:0.708955"
       d="m 237.19212,229.87877 c 0.304,-0.68237 0.68745,-6.50466 0.8521,-12.93843 0.33991,-13.28173 0.66887,-14.17911 5.19781,-14.17911 3.58913,0 6.18554,2.29681 7.07238,6.25629 0.86272,3.85179 -0.29461,13.83877 -1.88495,16.26595 -0.62339,0.95141 -3.17101,2.65372 -5.66138,3.78291 -5.2861,2.39683 -6.35096,2.55198 -5.57596,0.81239 z"
       id="path58"
       transform="translate(-654.70073,1880.0402)" />
    <path
       style="fill:#000000;stroke:#000000;stroke-width:0.708955"
       d="m 184.65758,241.0039 c -0.59036,-0.95522 1.65765,-4.32399 8.32903,-12.48148 2.92204,-3.57295 6.23695,-7.95942 7.36647,-9.7477 1.64356,-2.60213 2.54919,-3.33046 4.53502,-3.64718 5.05935,-0.80694 5.72305,-1.11072 9.22829,-4.22387 3.27472,-2.90841 6.36873,-4.13726 6.36873,-2.52947 0,0.35766 -1.75467,2.79095 -3.89926,5.40732 -2.14459,2.61636 -3.89925,5.29982 -3.89925,5.96324 0,3.72251 -12.87627,17.26333 -19.22761,20.21996 -3.97501,1.85042 -8.00591,2.32634 -8.80142,1.03918 z"
       id="path59"
       transform="translate(-654.70073,1880.0402)" />
    <path
       style="fill:#000000;stroke:#000000;stroke-width:0.708955"
       d="m 157.89589,263.38088 c -8.19781,-2.25449 -20.5865,-9.54473 -28.48118,-16.76003 -9.51821,-8.69911 -16.56132,-21.31478 -23.48555,-42.06749 -4.50104,-13.49013 -6.294588,-16.60435 -8.792785,-15.26736 -1.8965,1.01498 -3.507594,4.31639 -8.551941,17.52439 -4.10026,10.73603 -5.632138,14.00679 -4.657199,9.94374 1.079333,-4.49812 4.051585,-30.87889 4.831204,-42.88023 0.8732,-13.44192 0.539356,-22.47632 -1.919074,-51.93358 -2.12774,-25.494877 -0.792445,-33.601047 5.314027,-32.25984 3.072848,0.67491 7.330006,5.080519 8.911908,9.222672 1.23941,3.245358 1.24281,3.779008 0.0828,13.033298 -1.492578,11.90786 -1.509248,18.62254 -0.0704,28.34572 4.14319,27.99759 16.70331,61.4273 31.27193,83.23263 5.98365,8.95593 8.5819,12.14333 19.77997,24.2651 9.06048,9.80783 13.23652,15.08735 12.66519,16.01179 -0.53133,0.85969 -2.76215,0.72686 -6.89897,-0.41081 z"
       id="path60"
       transform="translate(-654.70073,1880.0402)" />
    <path
       style="fill:#000000;stroke:#000000;stroke-width:0.708955"
       d="m 36.333962,268.67199 c -0.877332,-0.35265 -1.59515,-1.15071 -1.59515,-1.77348 0,-1.91207 6.286856,-7.3597 19.559813,-16.9488 7.237411,-5.22869 15.365224,-11.8183 18.901015,-15.32397 3.411848,-3.38278 6.20336,-5.87896 6.20336,-5.54707 0,1.09882 -6.330479,12.07033 -9.642645,16.71192 -7.16652,10.04297 -18.720098,19.75781 -26.716093,22.46424 -3.805798,1.28816 -4.444571,1.32787 -6.7103,0.41716 z"
       id="path61"
       transform="translate(-654.70073,1880.0402)" />
    <path
       style="fill:#000000;stroke:#000000;stroke-width:0.708955"
       d="m 59.619044,210.91422 c -1.519639,-29.3588 -2.818397,-42.01994 -6.063937,-59.11526 -2.786811,-14.67905 -2.373419,-20.81579 1.647337,-24.45453 4.720046,-4.27158 11.42249,3.0462 13.664426,14.91892 1.542951,8.17108 -0.84788,32.42286 -5.424082,55.02006 -1.927656,9.51873 -3.708073,15.86552 -3.823744,13.63081 z"
       id="path62"
       transform="translate(-654.70073,1880.0402)" />
    <path
       style="fill:#000000;stroke:#000000;stroke-width:0.708955"
       d="m 124.57032,186.01312 c -0.27672,-0.27673 -0.50443,-3.40099 -0.50602,-6.94281 -0.004,-9.13536 -1.30884,-25.42411 -2.497,-31.17302 -1.22022,-5.90402 -2.5144,-8.03078 -5.69582,-9.36006 -2.49681,-1.04323 -3.71064,-3.47268 -2.85245,-5.7091 0.38409,-1.00092 1.21993,-1.10235 5.85507,-0.71054 2.97386,0.25138 7.43727,0.45706 9.91868,0.45706 4.32916,0 4.56852,0.0932 5.9171,2.30411 3.17387,5.20335 2.64965,10.74703 -2.54302,26.89269 -1.79545,5.58262 -4.12597,13.434 -5.17893,17.44751 -1.05296,4.01351 -2.14089,7.07088 -2.41761,6.79416 z"
       id="path63"
       transform="translate(-654.70073,1880.0402)" />
    <path
       style="fill:#000000;stroke:#000000;stroke-width:0.0329373"
       d="m 76.875641,230.58251 c 0,-0.01 0.168345,-0.23364 0.3741,-0.49801 2.769287,-3.55815 4.658492,-7.28681 5.849802,-11.54556 0.09375,-0.33514 0.176652,-0.62416 0.18423,-0.64228 0.0076,-0.0181 0.0052,0.0877 -0.0054,0.23524 -0.0232,0.32485 0.04877,0.5338 0.213115,0.61879 0.211236,0.10924 0.411805,0.0483 0.612581,-0.18619 0.314626,-0.36741 1.234711,-2.45361 2.622567,-5.94641 0.261014,-0.6569 0.478687,-1.18201 0.483717,-1.16692 0.005,0.0151 -0.219368,0.62666 -0.498661,1.35904 -2.246436,5.89074 -4.08314,10.36147 -5.892988,14.34413 -0.657157,1.44611 -1.157119,2.51458 -1.17043,2.50133 -0.0058,-0.006 0.02014,-0.10983 0.05764,-0.23124 0.0375,-0.12141 0.06818,-0.2718 0.06818,-0.3342 0,-0.33254 -0.307168,-0.49765 -0.642277,-0.34524 -0.258517,0.11758 -1.101876,0.79782 -1.935066,1.56079 -0.176626,0.16174 -0.321139,0.28627 -0.321139,0.27673 z"
       id="path64"
       transform="translate(-654.70073,1880.0402)" />
  </g>
</svg>
