<?xml version="1.0" encoding="UTF-8" standalone="no"?>
<svg
   viewBox="0 0 389.29134 389.29118"
   width="389.29135"
   height="389.29117"
   version="1.1"
   id="svg52"
   sodipodi:docname="frame - TL C.svg"
   inkscape:export-filename="frame-C.svg"
   inkscape:export-xdpi="96"
   inkscape:export-ydpi="96"
   xmlns:inkscape="http://www.inkscape.org/namespaces/inkscape"
   xmlns:sodipodi="http://sodipodi.sourceforge.net/DTD/sodipodi-0.dtd"
   xmlns="http://www.w3.org/2000/svg"
   xmlns:svg="http://www.w3.org/2000/svg">
  <sodipodi:namedview
     id="namedview52"
     pagecolor="#505050"
     bordercolor="#eeeeee"
     borderopacity="1"
     inkscape:showpageshadow="0"
     inkscape:pageopacity="0"
     inkscape:pagecheckerboard="0"
     inkscape:deskcolor="#505050" />
  <desc
     id="desc1">frame - TL C.dxf - scale = 1.000000, origin = (0.000000, 0.000000), method = manual</desc>
  <defs
     id="defs4" />
  <g
     inkscape:groupmode="layer"
     inkscape:label="MODELSKETCH_VISIBLE"
     id="g44"
     transform="translate(665.65543,-560.29915)">
    <path
       d="m -287.81878,754.94474 a 183.19097,183.19097 0 0 0 -366.38195,0 183.19097,183.19097 0 0 0 366.38195,0 z"
       style="fill:none;stroke:#ff0000"
       id="path39" />
    <path
       d="m -276.89391,754.94474 a 194.11585,194.11585 0 0 0 -388.2317,0 194.11585,194.11585 0 0 0 388.2317,0 z"
       style="fill:none;stroke:#ff0000;stroke-width:1.05964"
       id="path2" />
    <path
       style="fill:#000000;stroke:#000000;stroke-width:0.903416"
       d="M 170.74553,386.23526 C 127.84226,380.6297 88.092161,361.05372 57.818592,330.62141 9.8639132,282.41527 -9.1281192,212.62589 7.7336281,146.57587 25.043817,78.769231 78.769231,25.043817 146.57587,7.7336281 259.63341,-21.128555 371.80309,55.561535 386.27406,171.61461 c 7.22544,57.94589 -13.21283,117.1139 -54.97952,159.1636 -30.46951,30.67598 -70.18946,50.09072 -113.53707,55.49585 -12.34461,1.53928 -35.07736,1.52052 -47.01194,-0.0388 z m 47.60889,-9.08651 c 40.31723,-5.22749 77.71167,-23.61866 106.44367,-52.35066 71.74885,-71.74885 71.75119,-188.48334 0.005,-260.229318 C 295.42673,35.192202 257.83456,16.965936 215.94,11.787275 204.91428,10.424366 182.42423,10.623359 170.56595,12.188747 87.959267,23.093491 23.093491,87.959267 12.188747,170.56595 c -1.565388,11.85828 -1.764381,34.34833 -0.401472,45.37405 3.303539,26.72512 12.756278,53.85153 26.415037,75.80293 14.522765,23.33996 36.027719,44.84396 59.421128,59.41849 20.87445,13.00517 47.55394,22.57462 72.21867,25.90356 12.87733,1.73801 35.45323,1.777 48.51231,0.0838 z"
       id="path3"
       transform="translate(-665.65543,560.29915)" />
  </g>
</svg>
