<?xml version="1.0" encoding="UTF-8" standalone="no"?>
<svg
   viewBox="0 0 572.56816 234.69532"
   width="572.56818"
   height="234.69531"
   version="1.1"
   id="svg57"
   sodipodi:docname="Northern Water Tribe.dxf"
   xmlns:inkscape="http://www.inkscape.org/namespaces/inkscape"
   xmlns:sodipodi="http://sodipodi.sourceforge.net/DTD/sodipodi-0.dtd"
   xmlns="http://www.w3.org/2000/svg"
   xmlns:svg="http://www.w3.org/2000/svg">
  <sodipodi:namedview
     id="namedview57"
     pagecolor="#ffffff"
     bordercolor="#000000"
     borderopacity="0.25"
     inkscape:showpageshadow="2"
     inkscape:pageopacity="0.0"
     inkscape:pagecheckerboard="0"
     inkscape:deskcolor="#d1d1d1" />
  <desc
     id="desc1">Northern Water Tribe.dxf - scale = 1.000000, origin = (0.000000, 0.000000), method = file</desc>
  <defs
     id="defs4" />
  <g
     inkscape:groupmode="layer"
     inkscape:label="MODELSKETCH_VISIBLE"
     id="g49"
     transform="translate(1.1200724,-579.64159)">
    <path
       d="m 354.76283,757.70345 c 2.31199,-2.15177 4.62397,-4.30355 4.43646,-6.83184 -0.20046,-2.70244 -3.25668,-5.83504 -4.43646,-8.18157 -0.85781,-1.70615 -0.72359,-2.9967 0,-4.92037 1.13786,-3.02498 3.73314,-7.6155 3.79422,-11.56053 0.0564,-3.63926 -2.04387,-6.72922 -3.79422,-9.63382 -1.84641,-3.06403 -3.30352,-5.92179 -4.04127,-10.78982 -1.1459,-7.56104 -0.55644,-19.97172 -1.66987,-27.74523 -0.76268,-5.32479 -2.32439,-8.47375 -6.03715,-11.56062 -4.23935,-3.52466 -11.28321,-6.96833 -15.15713,-7.70701 -2.21856,-0.42304 -3.39744,0.041 -5.52338,-0.77068 -3.7722,-1.44039 -10.52604,-6.89785 -11.68896,-13.10194 -1.29145,-6.88992 4.31248,-14.70061 6.42251,-20.68045 1.41385,-4.00684 1.25901,-7.19164 2.569,-9.37689 1.08093,-1.80317 3.15922,-2.92574 5.23753,-4.04833"
       style="fill:none;stroke:#0000ff;stroke-width:1.99999"
       id="path34" />
    <path
       d="m 123.06386,684.78784 c 1.75764,1.97635 3.51529,3.9527 5.40984,5.35077 1.45894,1.0766 2.99907,1.81027 3.45146,2.90651 0.49012,1.18763 -0.29646,2.80078 0.54497,5.26796 1.91803,5.62387 12.29516,15.68529 20.3455,18.52895 5.9284,2.09413 10.59496,0.27402 14.8958,0.90832 3.82561,0.5642 7.36186,3.07036 10.17275,5.9946 2.91775,3.0354 5.05393,6.52126 8.7195,9.26447 4.41865,3.3068 11.05965,5.53442 17.07567,7.0846 5.99927,1.54587 11.37703,2.41806 17.98397,3.81477 7.1306,1.50741 15.69291,3.6258 20.7088,5.44971 2.84806,1.03561 4.55271,1.97631 6.25738,2.91698"
       style="fill:none;stroke:#0000ff;stroke-width:1.99999"
       id="path35" />
    <path
       d="m 495.17698,709.82526 c 6.3225,-0.82718 12.26886,-10.55084 18.45569,-15.02581 4.89439,-3.54014 9.9393,-3.79544 14.61753,-2.85819 4.46201,0.89394 8.59049,2.87273 12.08601,6.12469 3.27794,3.04956 5.99928,7.21873 4.89969,10.86101 -1.1495,3.80764 -6.4747,7.03946 -9.7995,8.57469 -1.90235,0.87841 -3.14982,1.20137 -3.42982,2.53154"
       style="fill:none;stroke:#ff0000;stroke-width:1.99999"
       id="path36" />
    <path
       d="m 534.21146,724.27965 c -0.73967,-0.0588 -1.47937,-0.1178 -2.20488,0 -0.7449,0.1208 -1.47487,0.42792 -2.20485,0.73496"
       style="fill:none;stroke:#ff0000;stroke-width:1.99999"
       id="path37" />
    <path
       d="m 532.00658,720.03319 c -0.3832,0.3288 -0.76638,0.6576 -1.30262,0.88984 -0.69901,0.30274 -1.65807,0.44142 -2.61714,0.58008"
       style="fill:none;stroke:#ff0000;stroke-width:1.99999"
       id="path38" />
    <path
       d="m 534.21146,724.27965 c 3.40634,0.59184 10.46568,-7.68951 15.67915,-10.61604 3.5593,-1.99797 6.25824,-1.50007 8.81951,-0.32664 2.5202,1.15462 4.90713,2.96329 6.69634,5.30795 1.86803,2.44799 3.08454,5.48023 4.00145,8.41125 0.8343,2.66687 1.42058,5.24995 0.73492,7.67622 -0.70962,2.51098 -2.78152,4.85403 -5.71633,5.96136 -3.65657,1.37967 -8.65266,0.84108 -12.82098,0.0816 -3.86732,-0.70457 -7.02208,-1.59923 -10.7794,-2.36822 -3.87933,-0.79398 -8.40099,-1.454 -11.43269,-2.77653 -2.09235,-0.91275 -3.47502,-2.14105 -4.08313,-3.83808 -0.54482,-1.52043 -0.46792,-3.41709 0.24498,-4.49145 0.56407,-0.85003 1.52629,-1.18529 2.44988,-1.38825 0.78006,-0.1714 1.53257,-0.2485 1.79657,-0.89829"
       style="fill:none;stroke:#ff0000;stroke-width:1.99999"
       id="path39" />
    <path
       style="fill:none;stroke:#ff0000;stroke-width:1.99999"
       d="m 495.17712,709.82564 -1.306,3.59397"
       id="path40" />
    <path
       d="m 166.12275,665.8347 c -3.55985,0.50443 -7.04326,0.99777 -9.47282,2.44986 -1.99754,1.1939 -3.2827,3.03593 -5.55303,3.59316 -3.38495,0.83084 -8.95988,-1.19425 -14.6992,-0.32664 -6.89083,1.04168 -14.01862,6.25327 -18.61898,10.12616 -3.42684,2.88493 -5.45124,5.02703 -9.3095,7.18618 -4.0745,2.28019 -10.194192,4.57937 -12.894474,2.39875 -2.352102,-1.89947 -2.10975,-7.19796 -4.319555,-8.96509 -2.486129,-1.98809 -8.076016,0.49358 -12.551165,-1.05947 -5.195241,-1.80295 -8.888139,-9.04351 -9.080864,-14.34242 -0.159099,-4.37435 2.06711,-7.42549 6.01785,-9.88006 5.41728,-3.36568 14.07704,-5.60967 18.862104,-10.83206 4.029558,-4.39783 5.311364,-10.90783 9.043124,-12.49594 3.16226,-1.34575 8.08376,0.84275 11.01618,-1.15093 3.63426,-2.47087 4.21337,-11.36544 6.74124,-15.61997 2.02427,-3.40694 5.29819,-3.83846 9.86767,-4.65195 6.53828,-1.164 15.72904,-3.11 21.86551,-4.55566 4.17795,-0.98423 6.94011,-1.73655 9.70081,-3.61725 3.19814,-2.17871 6.39434,-5.87177 10.68735,-8.87869 4.79494,-3.35848 10.95816,-5.86101 15.23653,-8.26369 3.33312,-1.87185 5.52224,-3.6831 9.30949,-4.89975 4.30158,-1.38188 10.66484,-1.99669 13.55593,-0.6533 1.926,0.89494 2.31106,2.65892 4.57309,3.9198 4.78013,2.6645 17.94215,3.08238 26.78518,2.44988 7.06362,-0.50523 11.37153,-1.68065 16.98576,-2.44988 6.15568,-0.84342 13.88181,-1.19856 20.57887,-1.46993 5.59043,-0.22652 10.4638,-0.39468 14.37254,0.32665 3.1057,0.57314 5.60243,1.70785 7.83957,4.57312 3.24806,4.15995 5.94895,11.96781 9.96282,16.3324 3.37396,3.66876 7.67564,4.90463 12.24933,5.71637 5.06481,0.89891 10.46318,1.27769 16.49574,1.63325 6.33914,0.37363 13.37858,0.72159 18.29233,-0.6533 3.87948,-1.08549 6.43394,-3.2449 10.4528,-4.57311 5.39035,-1.78147 13.41512,-2.06757 20.41556,-2.12311 6.0608,-0.048 11.35381,0.0766 15.18917,2.44988 3.55084,2.19715 5.8523,6.32157 9.21104,9.43741"
       style="fill:none;stroke:#ff0000;stroke-width:1.99999"
       id="path41" />
    <path
       d="m 528.08682,721.50311 c -3.10886,-1.21068 -10.15926,3.73983 -15.76083,5.71638 -4.73203,1.66973 -8.43013,1.21713 -11.84101,1.71491 -2.32422,0.3392 -4.51511,1.1197 -5.55304,0.1634 -1.25921,-1.16023 -0.82156,-4.87669 -0.40832,-8.16621 0.39686,-3.15916 0.77122,-5.92459 -0.6533,-7.5129"
       style="fill:none;stroke:#ff0000;stroke-width:1.99999"
       id="path42" />
    <path
       d="m 156.64993,673.70099 c 1.00832,-1.43919 2.01664,-2.8784 3.44341,-4.11791 1.64085,-1.42552 3.83513,-2.58695 6.02941,-3.74838"
       style="fill:none;stroke:#ff0000;stroke-width:1.99999"
       id="path43" />
    <path
       d="m 310.64507,644.90002 c -1.12987,0.62922 -2.25976,1.25845 -4.05595,1.64147 -3.0746,0.65562 -8.10149,0.5898 -12.71593,1.63483 -4.81013,1.08936 -9.17204,3.3858 -13.17006,4.54146 -3.30824,0.95625 -6.3673,1.13141 -9.26448,2.27066 -3.08872,1.2146 -5.99347,3.52498 -9.26445,5.63135 -3.56546,2.29599 -7.56605,4.34953 -11.35351,6.08548 -3.5459,1.62523 -6.90498,2.97208 -10.6269,3.81482 -4.52341,1.02425 -9.58276,1.30391 -16.62152,1.36247 -9.14646,0.0762 -21.63521,-0.22112 -28.15671,-0.45416 -3.36182,-0.12019 -5.13792,-0.22317 -7.44791,-0.72661 -2.45387,-0.53482 -5.51022,-1.52143 -7.99286,-2.72483 -2.20604,-1.06931 -3.95911,-2.30978 -6.08548,-2.72482 -2.29815,-0.4486 -5.03236,0.067 -7.76656,0.58256"
       style="fill:none;stroke:#0000ff;stroke-width:1.99999"
       id="path44" />
    <path
       d="m 35.870555,704.18975 c 2.524043,-2.46849 5.048088,-4.93697 7.622197,-7.73767 2.469463,-2.68685 4.985004,-5.67947 7.622194,-6.46735 2.066738,-0.61743 4.208191,0.1192 5.889879,1.73237 1.998456,1.91707 3.347626,5.07201 5.774394,6.46735 2.398504,1.37909 5.849647,1.03929 8.430612,0.80841 2.011718,-0.18 3.494771,-0.29378 5.081461,0.8084 2.11377,1.46831 4.411462,5.09467 6.929265,5.94742 2.277155,0.77124 4.734354,-0.72626 7.044756,-2.48279 2.637929,-2.00554 5.08449,-4.34875 8.084152,-5.42792 2.979525,-1.07192 6.504745,-0.89672 9.469995,-1.61679 2.77673,-0.67432 5.06243,-2.13367 7.39122,-4.04202 2.63489,-2.15921 5.32495,-4.89317 7.85318,-7.39132 2.24691,-2.22016 4.366,-4.25403 6.46731,-5.54336 1.82542,-1.12004 3.63742,-1.67819 6.12086,-1.96329 2.99635,-0.34396 6.97013,-0.29038 9.35451,-0.23102 1.54489,0.0384 2.42255,0.0794 3.92659,-0.1154 1.94713,-0.25224 4.94408,-0.89957 6.35182,-1.73239 0.78152,-0.46234 1.07325,-0.98183 1.36498,-1.50135"
       style="fill:none;stroke:#ff0000;stroke-width:1.99999"
       id="path45" />
    <path
       style="fill:none;stroke:#ff0000;stroke-width:1.99999"
       d="m 487.25516,705.41566 -3.01998,5.63397"
       id="path46" />
    <path
       d="m 484.23418,711.05041 c -0.64867,1.35341 -1.29735,2.70682 -1.06161,4.24635 0.3106,2.02833 2.1564,4.3797 3.26652,6.85966 1.10471,2.46789 1.48089,5.06311 0.4083,7.51296 -1.46174,3.33872 -5.61427,6.40748 -9.79945,9.96276 -5.17319,4.39461 -10.39621,9.5326 -15.38336,14.80639 -3.9751,4.20358 -7.80034,8.49341 -9.93195,9.23909 -1.05397,0.36867 -1.69387,-0.1292 -3.2533,-0.64306 -3.84313,-1.26665 -13.271,-2.63171 -19.714,-4.12734 -4.89611,-1.13657 -8.06855,-2.34854 -11.45935,-1.99082 -3.69974,0.39029 -7.65943,2.64934 -12.09061,6.74932 -5.25113,4.85867 -11.16439,12.30262 -14.88229,12.51578 -2.35927,0.1352 -3.8345,-2.64112 -6.23634,-4.73503 -3.0512,-2.65997 -7.59776,-4.21856 -12.01075,-3.92656 -4.02644,0.26642 -7.94169,2.07343 -10.5094,0.46194 -2.7801,-1.74479 -3.98051,-7.49696 -6.81376,-10.2784 -3.0605,-3.00452 -8.02625,-2.54266 -13.62758,-4.61951 -8.84894,-3.281 -19.28408,-12.89805 -31.06623,-18.01611 -11.45757,-4.97707 -24.18894,-5.69965 -33.83792,-2.88719 -7.63395,2.22511 -13.33852,6.66296 -18.47805,10.5094 -4.0551,3.03484 -7.75845,5.70153 -9.12355,9.58544 -1.37193,3.90344 -0.38203,9.03637 2.30977,13.16564 2.98994,4.58664 8.07963,7.93494 13.1656,9.93197 5.14463,2.02006 10.28542,2.6575 16.74572,2.07874 7.97047,-0.71405 17.94946,-3.27938 24.94539,-6.1208 3.99216,-1.62145 7.01296,-3.33278 7.96866,-2.54079 0.90615,0.75094 -0.0442,3.75238 -2.39851,7.12634 -4.65023,6.66428 -14.77783,14.78185 -20.98717,20.49718 -3.96836,3.65266 -6.33635,6.32412 -10.04446,6.533 -4.54676,0.25614 -11.1084,-3.19018 -17.31238,-4.98141 -6.41928,-1.85339 -12.45567,-1.93481 -19.10897,-2.6132 -6.9408,-0.7077 -14.55297,-2.06503 -20.98719,-0.32664 -6.24155,1.68633 -11.37461,6.28576 -17.14906,9.7995 -5.96745,3.63116 -12.61987,6.10284 -19.27229,8.57451"
       style="fill:none;stroke:#ff0000;stroke-width:1.99999"
       id="path47" />
    <path
       d="m 414.93075,616.96537 c 2.18239,2.9785 4.36478,5.957 7.93802,8.03827 4.23323,2.46569 10.41857,3.67204 15.51582,3.2665 3.90574,-0.31074 7.17264,-1.56787 9.30949,0 2.51112,1.84247 3.46168,7.58618 5.45661,11.64069 1.91714,3.89644 4.79881,6.2328 7.82831,8.92701 3.16192,2.81196 6.48492,6.01374 9.6137,8.65229 2.75471,2.32306 5.35885,4.20955 6.59226,7.55373 1.35826,3.6827 1.05424,9.13315 2.88417,11.81111 1.47741,2.16213 4.34585,2.51701 7.00427,3.70806 2.97777,1.33409 5.69201,3.7173 8.37767,5.35627 2.10995,1.28761 4.20224,2.11591 4.66954,3.98275 0.62077,2.48011 -1.62631,6.79318 -5.10695,9.55207 -3.30802,2.62204 -7.73026,3.84023 -7.7579,5.96136"
       style="fill:none;stroke:#ff0000;stroke-width:1.99999"
       id="path48" />
    <path
       d="m 186.50461,813.39952 c -1.86048,-1.67461 -3.72096,-3.34922 -5.50278,-5.08707 -1.8771,-1.83077 -3.6669,-3.73172 -6.75604,-4.85047 -4.49327,-1.62727 -11.73552,-1.59969 -17.59586,-0.0578 -5.01533,1.31963 -9.01852,3.74842 -12.54646,2.94492 -3.67278,-0.83649 -6.83048,-5.17617 -10.41473,-9.30718 -4.18388,-4.82209 -8.94897,-9.35991 -13.16561,-13.74308 -3.59132,-3.73314 -6.7848,-7.35408 -11.4333,-7.73766 -5.62712,-0.46433 -13.386387,3.8153 -19.748423,4.38854 -5.441364,0.4903 -9.86063,-1.73071 -14.782438,-0.69294 -5.995063,1.26405 -12.73573,7.36306 -19.401951,10.27844 -5.277358,2.30799 -10.508059,2.62073 -13.74305,0.6929 -2.811981,-1.67575 -4.116049,-5.04443 -6.813779,-7.8532 -3.75738,-3.91199 -10.218283,-6.7378 -17.554148,-9.9319 C 9.6443773,769.22026 1.3519866,765.6226 0.06933228,760.89425 -1.0036873,756.93868 2.8289439,752.19184 5.2662833,747.49763 c 2.3224502,-4.47291 3.3780519,-8.89803 2.4252436,-12.81916 -0.8204971,-3.37662 -3.1303534,-6.37952 -3.8110973,-8.89255 -0.4900711,-1.80913 -0.1358372,-3.36436 1.2703664,-4.85047 2.4815032,-2.6225 8.238953,-5.02969 13.627563,-7.62222 6.00251,-2.88788 11.547353,-6.00572 17.092196,-9.12356"
       style="fill:none;stroke:#ff0000;stroke-width:1.99999"
       id="path49" />
    <text
       xml:space="preserve"
       style="font-size:29.3333px;fill:none;stroke:#0000ff"
       x="131.68092"
       y="642.46667"
       id="text57"><tspan
         sodipodi:role="line"
         id="tspan57"
         x="131.68092"
         y="642.46667"
         style="font-size:29.3333px">North Pole</tspan></text>
    <text
       xml:space="preserve"
       style="font-size:24px;fill:none;stroke:#0000ff"
       x="33.101723"
       y="737.47046"
       id="text58"><tspan
         sodipodi:role="line"
         id="tspan58"
         x="33.101723"
         y="737.47046"
         style="font-size:24px">Northern</tspan><tspan
         sodipodi:role="line"
         x="33.101723"
         y="767.47046"
         id="tspan59"
         style="font-size:24px">Water Tribe</tspan></text>
    <text
       xml:space="preserve"
       style="font-size:29.3333px;fill:none;stroke:#0000ff"
       x="164.37038"
       y="702.22711"
       id="text60"><tspan
         sodipodi:role="line"
         id="tspan60"
         x="164.37038"
         y="702.22711"
         style="font-size:29.3333px">Spirit Oasis</tspan></text>
    <text
       xml:space="preserve"
       style="font-size:26.6667px;fill:none;stroke:#0000ff"
       x="356.42102"
       y="685.88239"
       id="text61"><tspan
         sodipodi:role="line"
         id="tspan61"
         x="356.42102"
         y="685.88239"
         style="font-size:26.6667px">Northern</tspan><tspan
         sodipodi:role="line"
         x="356.42102"
         y="719.21576"
         id="tspan62"
         style="font-size:26.6667px">Tundra</tspan></text>
  </g>
</svg>
