<?xml version="1.0" encoding="UTF-8" standalone="no"?>
<svg
   viewBox="0 0 328.43624 130.0537"
   width="328.43625"
   height="130.0537"
   version="1.1"
   id="svg57"
   sodipodi:docname="Southern water tribe.svg"
   inkscape:export-filename="Southern water tribe.png"
   inkscape:export-xdpi="96"
   inkscape:export-ydpi="96"
   inkscape:version="1.3.2 (091e20e, 2023-11-25, custom)"
   xmlns:inkscape="http://www.inkscape.org/namespaces/inkscape"
   xmlns:sodipodi="http://sodipodi.sourceforge.net/DTD/sodipodi-0.dtd"
   xmlns="http://www.w3.org/2000/svg"
   xmlns:svg="http://www.w3.org/2000/svg">
  <sodipodi:namedview
     id="namedview57"
     pagecolor="#ffffff"
     bordercolor="#000000"
     borderopacity="0.25"
     inkscape:showpageshadow="2"
     inkscape:pageopacity="0.0"
     inkscape:pagecheckerboard="0"
     inkscape:deskcolor="#d1d1d1"
     inkscape:zoom="2.6718108"
     inkscape:cx="182.08625"
     inkscape:cy="57.825951"
     inkscape:window-width="1920"
     inkscape:window-height="991"
     inkscape:window-x="-9"
     inkscape:window-y="-9"
     inkscape:window-maximized="1"
     inkscape:current-layer="g49"
     showgrid="false" />
  <desc
     id="desc1">Southern water tribe.dxf - scale = 1.000000, origin = (0.000000, 0.000000), method = file</desc>
  <defs
     id="defs4">
    <rect
       x="115.94547"
       y="28.858675"
       width="78.403656"
       height="55.674259"
       id="rect57" />
  </defs>
  <g
     inkscape:groupmode="layer"
     inkscape:label="MODELSKETCH_VISIBLE"
     id="g49"
     transform="translate(37.596633,-1287.3651)">
    <path
       d="m 65.721914,1338.6917 c 1.222433,0.9454 2.444866,1.8907 3.666397,3.0066 1.201178,1.0973 2.401484,2.3596 2.543199,3.8148 0.159307,1.6358 -1.019127,3.5154 -1.362429,5.6314 -0.347912,2.1444 0.161887,4.5316 1.271599,5.813 0.73832,0.8526 1.742197,1.2157 1.816574,1.9074 0.08665,0.8058 -1.088176,2.0576 -1.634915,3.179 -0.520667,1.0679 -0.471725,2.0176 -0.635804,3.179 -0.202041,1.4301 -0.727079,3.1812 -1.362428,4.7231 -0.562693,1.3656 -1.21191,2.5671 -0.999112,3.724 0.20972,1.1401 1.256705,2.2368 1.453257,3.4515 0.215484,1.3316 -0.591177,2.8051 -1.397839,4.2786"
       style="fill:none;stroke:#0000ff"
       id="path34" />
    <path
       d="m 241.49881,1303.5915 c -0.0508,0.5002 -1.05896,0.7116 -1.55912,1.4436 -0.8126,1.1892 -0.28418,3.7526 -0.28872,5.6012 -0.004,1.5495 -0.38211,2.5968 -0.75065,3.8688 -0.31232,1.0779 -0.61763,2.3172 0.0577,2.8295 1.05424,0.7997 4.49804,-0.1717 6.87155,-0.5774 1.79116,-0.3062 2.9728,-0.2901 3.92662,-0.058 0.70134,0.1709 1.2795,0.4587 1.96329,0.8084 0.82434,0.4217 1.8022,0.9334 2.59849,1.6643 0.7508,0.6891 1.34018,1.5731 1.96332,1.9159 0.47233,0.2598 0.96406,0.2088 1.38585,0.7507"
       style="fill:none;stroke:#ff0000"
       id="path35" />
    <path
       d="m 242.79553,1301.3111 c 0.31248,-0.8112 2.38876,-1.538 3.26506,-2.6279 0.64328,-0.8001 0.6399,-1.7958 0.17324,-2.252 -0.55882,-0.5463 -1.78195,-0.3188 -3.17594,-0.6352 -2.18164,-0.4953 -4.78178,-2.3229 -7.21802,-3.2914 -2.18447,-0.8684 -4.23717,-1.0461 -6.35188,-0.5775 -2.05847,0.4562 -4.1757,1.5249 -5.37021,2.7718 -0.85685,0.8944 -1.2389,1.8805 -0.80842,3.0027 0.62983,1.6417 2.99902,3.5746 4.79278,4.6195 1.44419,0.8412 2.51538,1.1068 4.15758,1.1549 1.9723,0.058 4.76824,-0.1985 6.17864,-0.7507 0.74858,-0.2931 1.10684,-0.6696 1.67457,-0.5197"
       style="fill:none;stroke:#ff0000"
       id="path36" />
    <path
       d="m 261.30505,1321.3189 c 0.69136,-1.8731 2.58624,-2.9742 4.33085,-3.9843 1.67124,-0.9676 3.20458,-1.8516 4.90826,-2.252 1.47018,-0.3455 3.0672,-0.3308 3.86886,-1.0972 0.71714,-0.6855 0.79778,-1.9961 0.51968,-3.1759 -0.3277,-1.3903 -1.15356,-2.599 -2.42525,-3.7534 -1.62225,-1.4726 -3.97001,-2.857 -6.1209,-3.9266 -1.9226,-0.9561 -3.68789,-1.6608 -5.19698,-2.5985 -1.33116,-0.8271 -2.46297,-1.8356 -3.98434,-2.1365 -1.76961,-0.35 -4.0663,0.2574 -6.06314,0.8084 -1.7971,0.4959 -3.35135,0.9461 -4.61954,1.7901 -0.99525,0.6623 -1.81432,1.5672 -2.65625,1.5013"
       style="fill:none;stroke:#ff0000"
       id="path37" />
    <path
       d="m 98.358287,1373.0806 c 0.866244,-1.5456 1.732493,-3.0912 3.183353,-4.5878 1.73006,-1.7847 4.29139,-3.4998 6.44883,-4.6323 1.71169,-0.8985 3.16915,-1.4303 4.72309,-1.6349 1.42579,-0.1878 2.9328,-0.1001 4.08729,-0.9991 1.1681,-0.9097 1.97532,-2.8294 2.90652,-3.179 0.77839,-0.2923 1.64342,0.5126 2.99734,0.2724 3.28122,-0.5819 9.43388,-7.3015 16.34916,-6.7213 8.09445,0.6791 17.23377,11.3597 21.34472,11.4444 1.94462,0.04 2.76408,-2.2908 4.17812,-3.4515 1.40248,-1.1512 3.38985,-1.1513 4.90474,-2.089 1.67435,-1.0364 2.77151,-3.2182 4.17812,-4.9956 1.52592,-1.9282 3.41602,-3.3806 6.53966,-3.9964 3.26871,-0.6445 7.88819,-0.3729 8.31636,-1.1278"
       style="fill:none;stroke:#0000ff"
       id="path38" />
    <path
       d="m 63.724161,1339.3741 c -3.827867,-0.524 -7.655735,-1.048 -10.7125,-2.0601 -2.657469,-0.8799 -4.732132,-2.1288 -7.14167,-4.1202 -2.743027,-2.2671 -5.920039,-5.4965 -8.515063,-6.455 -1.66427,-0.6147 -3.089164,-0.2953 -4.39487,0 -1.210723,0.2739 -2.318967,0.527 -3.570835,1.2361 -1.467379,0.8311 -3.132089,2.2887 -3.158817,4.1202 -0.0264,1.809 1.545153,3.9828 1.09872,4.9442 -0.285035,0.6138 -1.392695,0.7334 -2.060096,0.1373 -1.153549,-1.0302 -0.991854,-4.1982 -1.236057,-6.0429 -0.156129,-1.1794 -0.478171,-1.8179 -1.236057,-2.1974 -0.836446,-0.419 -2.203776,-0.5225 -3.021473,-0.5494 -0.637739,-0.021 -0.941149,0 -1.785417,-0.5494 -2.51831,-1.6528 -9.848795,-8.4647 -13.459299,-9.7511 -1.935431,-0.6895 -2.801904,0.2087 -4.530727,1.5108 -3.371319,2.5392 -10.021944,6.6142 -15.658215,9.2017 -4.465447,2.05 -8.294194,3.1663 -9.751124,5.9056 -1.272138,2.392 -0.735969,6.0214 -0.824033,8.6524 -0.07015,2.096 -0.536463,3.5584 -1.785416,5.219 -1.615303,2.1476 -4.539729,4.6266 -6.592314,6.4549 -1.371655,1.2218 -2.353974,2.1529 -2.472113,3.2962 -0.117243,1.1345 0.616635,2.478 1.64808,3.7081 1.392007,1.6603 3.325984,3.1142 5.493586,4.9443 2.497147,2.1083 5.304355,4.7157 6.866987,7.0043 1.135849,1.6635 1.614118,3.1585 2.746793,4.3949 1.136829,1.2409 2.932872,2.2213 4.669555,2.3347 1.773081,0.1159 3.484288,-0.672 5.35625,-0.9613 1.838275,-0.2841 3.831572,-0.087 5.218914,0.5493 1.399765,0.6424 2.182676,1.7327 3.70817,3.8455 2.630121,3.6428 7.467614,10.3253 10.300483,12.0859 1.369406,0.8511 2.270383,0.5521 3.708173,0.1374 2.216234,-0.6393 5.707919,-1.5533 8.377727,-2.7468 2.555633,-1.1425 4.358181,-2.5411 6.592307,-4.6696 2.58204,-2.4599 5.740541,-5.8947 7.965706,-7.279 1.238279,-0.7703 2.187523,-0.9057 3.296154,-0.5493 1.47281,0.4733 3.226922,1.8145 5.21891,2.7468 2.175019,1.0179 4.633636,1.5484 6.86699,1.5107 1.98905,-0.034 3.799424,-0.5178 5.49359,-0.9614 1.539368,-0.403 2.982793,-0.7725 4.394873,-1.3734 1.422333,-0.6052 2.812863,-1.4452 4.257532,-1.9227 1.335514,-0.4415 2.717294,-0.5733 3.982848,0.2747 1.452445,0.9731 2.7518,3.2367 3.982855,3.4334 1.139454,0.1822 2.220393,-1.4063 3.570837,-2.7467 1.598385,-1.5866 3.574321,-2.8255 5.243409,-3.5126 1.376561,-0.5666 2.544406,-0.7579 4.257538,-0.5493 2.272471,0.2766 5.50443,1.2565 7.553685,0 1.853619,-1.1367 2.739572,-4.1032 3.708172,-4.9443 0.382021,-0.3317 0.776898,-0.3328 0.961378,0 0.443858,0.8008 -0.330232,3.5343 -1.510738,5.3563 -1.144371,1.7662 -2.670658,2.6757 -4.532208,2.6094 -2.06133,-0.073 -4.533744,-1.3431 -6.31763,-1.0987 -1.605134,0.22 -2.652812,1.666 -4.120197,3.1588 -1.611764,1.6398 -3.72989,3.3361 -3.845514,4.9443 -0.10556,1.4681 1.457959,2.8628 3.021477,4.2575"
       style="fill:none;stroke:#ff0000"
       id="path39" />
    <path
       d="m 258.18691,1325.8808 c 0.51692,-0.1425 1.03384,-0.285 1.61298,-0.3465 0.65965,-0.07 1.40001,-0.035 2.14036,0"
       style="fill:none;stroke:#ff0000"
       id="path40" />
    <path
       d="m 160.39859,1363.043 c 0.44203,0.3894 0.88406,0.7788 1.067,1.4866 0.27827,1.0767 -0.043,2.89 0.70648,4.1747 1.03289,1.7705 4.09944,2.5368 7.19327,3.5966 3.15832,1.0819 6.34505,2.4697 8.15664,1.9268 0.96039,-0.2878 1.5343,-1.1183 2.11944,-1.0276 0.78855,0.1221 1.59748,1.917 2.82592,3.2113 1.41806,1.494 3.39513,2.321 4.75269,3.147 1.00661,0.6124 1.67261,1.2242 2.24791,2.1837 0.72513,1.2092 1.30615,2.9707 2.50478,4.3031 1.34503,1.495 3.46773,2.4497 5.45918,3.0828 1.94787,0.6192 3.77017,0.9307 5.84453,1.3487 2.13027,0.4293 4.52637,0.9709 6.10142,1.6699 1.13458,0.5035 1.84312,1.0887 2.82593,1.6698 1.20148,0.7105 2.81285,1.4149 4.42422,2.1193"
       style="fill:none;stroke:#0000ff"
       id="path41" />
    <path
       d="m 258.18691,1325.8808 c -0.66334,0.775 -2.50617,-0.1251 -4.15761,-0.2888 -1.82659,-0.1811 -3.41905,0.5387 -4.96599,1.1549 -1.48307,0.5908 -2.9243,1.0865 -4.33082,1.7901 -1.38571,0.6932 -2.73773,1.5882 -3.81113,2.483 -0.87501,0.7294 -1.56488,1.4586 -2.0788,2.1943 -0.4325,0.6191 -0.74038,1.2428 -1.04827,1.8664"
       style="fill:none;stroke:#ff0000"
       id="path42" />
    <path
       d="m 279.40528,1319.1721 c -0.71915,-0.872 -1.43829,-1.744 -2.62474,-1.8375 -2.06277,-0.1626 -5.53811,2.0279 -8.60391,4.4463 -2.65781,2.0965 -5.00782,4.3643 -6.23638,3.7534"
       style="fill:none;stroke:#ff0000"
       id="path43" />
    <path
       d="m 241.49881,1303.5915 c 0.21801,-0.3362 0.43602,-0.6724 0.78399,-0.858 0.40846,-0.218 0.99598,-0.2286 1.5835,-0.2392"
       style="fill:none;stroke:#ff0000"
       id="path44" />
    <path
       d="m 240.11293,1302.2056 c 0.47187,-0.028 0.94374,-0.056 1.38588,-0.2012 0.45305,-0.1489 0.87488,-0.4211 1.29672,-0.6933"
       style="fill:none;stroke:#ff0000"
       id="path45" />
    <path
       d="m 261.30505,1321.3189 c -0.60576,-0.042 -1.21152,-0.083 -1.81066,0 -0.6137,0.086 -1.22045,0.3027 -1.8272,0.5198"
       style="fill:none;stroke:#ff0000"
       id="path46" />
    <path
       d="m 81.053477,1392.3082 c 0.896804,1.0044 1.793607,2.0089 2.722731,3.2391 1.052407,1.3934 2.14628,3.0765 2.42785,4.8557 0.27159,1.7161 -0.212567,3.5217 -0.09712,5.0499 0.09271,1.2272 0.572117,2.2755 1.456707,2.9134 1.047963,0.7557 2.664598,0.9353 4.467244,0.9711 2.182897,0.043 4.638555,-0.1241 6.700855,0.1943 1.994426,0.3079 3.620966,1.0702 6.021066,1.748 3.16882,0.8949 7.6861,1.6425 10.58541,2.7192 1.82768,0.6787 3.0124,1.4882 3.88455,1.9423 0.5242,0.2729 0.93547,0.4175 1.45671,0.5827 0.63967,0.2027 1.44494,0.4365 2.33074,0.3884 1.35869,-0.074 2.90683,-0.8105 5.24414,-1.8451 3.90855,-1.7302 10.02394,-4.2934 14.37286,-5.924 3.07536,-1.153 5.26736,-1.8397 7.57488,-1.748 2.36393,0.094 4.84908,1.0046 8.06045,1.2624 3.75838,0.3017 8.51145,-0.2909 11.1681,-0.3884 1.45915,-0.054 2.28588,0.042 3.30188,0.6798 1.19485,0.7498 2.65149,2.2491 3.78743,2.7192 0.73727,0.3051 1.33944,0.1767 1.94229,-0.2914 0.96316,-0.7478 1.92803,-2.3628 3.49609,-3.5932 2.04896,-1.6076 5.12781,-2.5584 7.76912,-3.5932 2.45518,-0.9618 4.5323,-1.9962 6.79797,-2.9134 2.16378,-0.8759 4.49952,-1.645 6.21529,-2.6221 1.34555,-0.7662 2.30981,-1.6605 3.49609,-2.2336 1.24019,-0.5992 2.72303,-0.8475 4.46724,-0.7769 1.99485,0.081 4.33158,0.5785 5.92395,0.2913 1.1237,-0.2026 1.87673,-0.7962 2.62207,-1.3596 0.77763,-0.5877 1.54689,-1.1426 2.91342,-1.3595 2.45673,-0.3901 6.84389,0.312 10.39118,0 3.24415,-0.2854 5.78585,-1.4189 8.25467,-2.7193 2.31688,-1.2203 4.56957,-2.5875 6.2153,-4.4672 1.50874,-1.7232 2.50737,-3.8772 3.10764,-5.6326 0.45251,-1.3232 0.67865,-2.42 1.06827,-3.4961 0.39186,-1.0823 0.94909,-2.1438 1.84516,-3.2048 1.16767,-1.3825 2.91071,-2.764 4.85568,-3.9816 2.22961,-1.3959 4.72456,-2.5764 7.38065,-3.6904 2.88274,-1.209 5.95528,-2.3396 9.0316,-3.5932 3.05797,-1.2461 6.11968,-2.6137 8.74026,-3.9816 1.93475,-1.0099 3.62905,-2.0199 3.98166,-3.399 0.34459,-1.3477 -0.59215,-3.0478 -1.2379,-4.844 -0.71724,-1.995 -1.07548,-4.1085 -1.23607,-6.0429 -0.13558,-1.6333 -0.13026,-3.1391 -0.13733,-4.3949 -0.006,-1.0262 -0.0198,-1.8856 0.54934,-2.8841 0.82208,-1.4423 2.86085,-3.175 4.12021,-4.5322 0.82707,-0.8914 1.31798,-1.6208 1.23604,-2.3348 -0.0852,-0.7427 -0.79016,-1.4688 -1.64807,-2.3348 -1.20479,-1.2162 -2.71128,-2.7085 -4.12019,-3.8455 -1.19696,-0.966 -2.32349,-1.6756 -3.23354,-2.4681 -0.77103,-0.6714 -1.38666,-1.4023 -1.92277,-2.1974"
       style="fill:none;stroke:#ff0000"
       id="path47" />
    <path
       d="m 186.37907,1311.0622 c -2.88473,-1.6381 -5.76947,-3.2761 -9.1287,-4.1759 -3.09707,-0.8297 -6.59747,-1.0319 -8.3518,-1.7481 -0.93277,-0.3808 -1.37192,-0.9069 -1.55382,-1.8451 -0.27729,-1.4304 0.0433,-3.8186 -1.35959,-5.4384 -2.22721,-2.5717 -8.79839,-3.2066 -13.49883,-4.1759 -3.81569,-0.7869 -6.3986,-1.7943 -8.93448,-2.6221 -2.30928,-0.7539 -4.57956,-1.3588 -7.67199,-0.874 -4.43436,0.6952 -10.55923,3.6312 -15.05264,5.0499 -3.22642,1.0187 -5.61171,1.255 -8.15757,0.6798 -2.7742,-0.6268 -5.73907,-2.2173 -9.03159,-3.5932 -3.734065,-1.5605 -7.889544,-2.8451 -11.945006,-3.6904 -3.741283,-0.7797 -7.397447,-1.1856 -10.639577,-0.097 -3.120073,1.0476 -5.856701,3.4791 -8.783193,4.4673 -2.809589,0.9486 -5.794178,0.5669 -9.08241,-0.023 -3.542194,-0.6349 -7.436746,-1.5109 -10.534488,-0.3266 -2.812662,1.0753 -4.968423,3.8491 -6.941332,5.2264 -1.445804,1.0093 -2.793409,1.2687 -4.170286,2.0935 -1.709402,1.0242 -3.463923,2.92 -5.287581,4.8756 -1.606726,1.723 -3.26712,3.4923 -2.952802,4.7382 0.307273,1.218 2.501727,1.9357 4.532212,2.8155 2.16237,0.9369 4.138778,2.0577 5.356251,2.8155 0.723797,0.4505 1.179357,0.7727 1.442068,1.5794 0.489254,1.5023 0.309658,4.6848 0.137338,7.4163 -0.148987,2.3616 -0.292535,4.386 0.523372,5.5201 0.634346,0.8817 1.848646,1.2253 2.918469,1.6481 1.032775,0.4081 1.930905,0.8902 2.609455,1.7167 0.713756,0.8695 1.184556,2.1202 2.266107,2.6095 1.325048,0.5994 3.566807,0.056 5.184577,-0.1717 1.372722,-0.1931 2.296171,-0.1586 3.708168,0.4464 1.570767,0.673 3.746128,2.0521 3.742512,2.7124 -0.0024,0.4463 -1.000098,0.5644 -1.997753,0.6824"
       style="fill:none;stroke:#ff0000"
       id="path48" />
    <path
       d="m 237.79429,1335.0807 c 0.36336,2.0505 1.10218,2.8361 2.09454,3.5618 0.92389,0.6756 2.06754,1.2993 2.71919,2.3307 0.70451,1.1152 0.83396,2.7069 0.29134,4.1759 -0.68916,1.8657 -2.46237,3.5334 -4.37013,5.1471 -2.21606,1.8744 -4.61366,3.6759 -7.76912,4.7585 -3.76869,1.293 -8.61843,1.5605 -12.81903,2.1365 -3.22799,0.4427 -6.07264,1.0676 -7.67199,-0.1942 -1.36648,-1.0781 -1.82389,-3.5335 -3.10764,-4.6615 -1.42439,-1.2515 -3.86609,-0.8688 -6.79797,-1.1653 -3.93729,-0.3982 -8.75859,-2.0213 -11.84789,-3.7875 -2.28535,-1.3065 -3.62287,-2.6914 -5.04993,-4.5643 -1.37909,-1.81 -2.84181,-4.0757 -2.0394,-6.0211 1.08096,-2.6206 6.27258,-4.6597 8.15758,-8.1575 2.34587,-4.3531 -0.42945,-10.9654 -3.20477,-17.5776"
       style="fill:none;stroke:#ff0000"
       id="path49" />
  </g>
  <g
     inkscape:groupmode="layer"
     inkscape:label="SECTION_JOG_LINES"
     id="g57"
     transform="translate(37.596633,-1287.3651)">
    <text
       xml:space="preserve"
       transform="translate(-32.744289,1279.7035)"
       id="text57"
       style="font-size:14.6667px;white-space:pre;shape-inside:url(#rect57);fill:none;stroke:#0000ff"><tspan
         x="115.94531"
         y="42.24025"
         id="tspan1">Southern
</tspan><tspan
         x="115.94531"
         y="60.573624"
         id="tspan2">Tundra</tspan></text>
    <text
       xml:space="preserve"
       style="font-size:14.6667px;fill:none;stroke:#0000ff"
       x="101.84441"
       y="1396.926"
       id="text58"><tspan
         sodipodi:role="line"
         id="tspan57"
         x="101.84441"
         y="1396.926">South Pole</tspan></text>
    <text
       xml:space="preserve"
       style="font-size:12px;fill:none;stroke:#0000ff"
       x="-19.208805"
       y="1353.2548"
       id="text59"><tspan
         sodipodi:role="line"
         id="tspan58"
         x="-19.208805"
         y="1353.2548">Water Tribe</tspan><tspan
         sodipodi:role="line"
         x="-19.208805"
         y="1368.2548"
         id="tspan59">Settelments</tspan></text>
    <text
       xml:space="preserve"
       style="font-size:12px;fill:none;stroke:#0000ff"
       x="189.18658"
       y="1372.1534"
       id="text60"><tspan
         sodipodi:role="line"
         id="tspan60"
         x="189.18658"
         y="1372.1534">Shipwreck</tspan></text>
  </g>
</svg>
